<?xml version="1.0" encoding="utf-8" ?>
<svg xmlns="http://www.w3.org/2000/svg" xmlns:ev="http://www.w3.org/2001/xml-events" xmlns:xlink="http://www.w3.org/1999/xlink" baseProfile="full" height="426.0px" version="1.1" width="1558.0px">
  <defs/>
  <path d="M 60 189 L 141 189 Q 155.4 144.29999999999998 129 132 L 60 60 L 60 189 z" fill="rgb(255,217,194)" stroke="black"/>
  <text fill="rgb(9,33,173)" font-size="25" x="72.5" y="145.5">rbsleeve</text>
  <path d="M 212.5 189.0 L 281.5 117.0 Q 307.90000000000003 104.7 293.5 60.0 L 212.5 60.0 L 212.5 189.0 z" fill="rgb(255,217,194)" stroke="black"/>
  <text fill="rgb(9,33,173)" font-size="25" x="225.0" y="109.5">rfsleeve</text>
  <path d="M 365.0 366.0 L 629.0 366.0 L 560.0 117.0 Q 534.5 103.5 551.0 60.0 L 521.0 60.0 L 497.0 69.0 L 473.0 60.0 L 443.0 60.0 Q 459.5 103.5 434.0 117.0 L 365.0 366.0 z" fill="rgb(255,217,194)" stroke="black"/>
  <text fill="rgb(9,33,173)" font-size="25" x="472.0" y="144.66666666666666">back</text>
  <path d="M 689.0 366.0 L 953.0 366.0 L 884.0 117.0 Q 858.5 103.5 875.0 60.0 L 845.0 60.0 L 821.0 93.0 L 797.0 60.0 L 767.0 60.0 Q 783.5 103.5 758.0 117.0 L 689.0 366.0 z" fill="rgb(255,217,194)" stroke="black"/>
  <text fill="rgb(9,33,173)" font-size="25" x="796.0" y="147.33333333333334">front</text>
  <path d="M 1013.0 162.0 L 1070.0 171.0 Q 1123.1000000000001 146.70000000000002 1073.0 84.0 L 1049.0 93.0 L 1022.0 60.0 L 1013.0 162.0 z" fill="rgb(255,217,194)" stroke="black"/>
  <text fill="rgb(9,33,173)" font-size="25" x="1020.4000000000001" y="117.0">Rhood</text>
  <path d="M 1142.0 171.0 L 1169.0 138.0 L 1193.0 147.0 Q 1243.1000000000001 84.3 1190.0 60.0 L 1133.0 69.0 L 1142.0 171.0 z" fill="rgb(255,217,194)" stroke="black"/>
  <text fill="rgb(9,33,173)" font-size="25" x="1140.4" y="120.0">Lhood</text>
  <path d="M 1253.0 189.0 L 1322.0 117.0 Q 1348.3999999999999 104.7 1334.0 60.0 L 1253.0 60.0 L 1253.0 189.0 z" fill="rgb(255,217,194)" stroke="black"/>
  <text fill="rgb(9,33,173)" font-size="25" x="1265.5" y="109.5">lbsleeve</text>
  <path d="M 1405.5 189.0 L 1486.5 189.0 Q 1500.8999999999999 144.29999999999998 1474.5 132.0 L 1405.5 60.0 L 1405.5 189.0 z" fill="rgb(255,217,194)" stroke="black"/>
  <text fill="rgb(9,33,173)" font-size="25" x="1418.0" y="145.5">lfsleeve</text>
</svg>
