<?xml version="1.0" encoding="utf-8" ?>
<svg xmlns="http://www.w3.org/2000/svg" xmlns:ev="http://www.w3.org/2001/xml-events" xmlns:xlink="http://www.w3.org/1999/xlink" baseProfile="full" height="273.0px" version="1.1" width="1538.5px">
  <defs/>
  <path d="M 60 168 L 117 168 Q 137.7 107.4 102 90 L 60 60 L 60 168 z" fill="rgb(255,217,194)" stroke="black"/>
  <text fill="rgb(9,33,173)" font-size="25" x="59.75" y="124.5">rbsleeve</text>
  <path d="M 199.75 168.0 L 241.75 138.0 Q 277.45 120.6 256.75 60.0 L 199.75 60.0 L 199.75 168.0 z" fill="rgb(255,217,194)" stroke="black"/>
  <text fill="rgb(9,33,173)" font-size="25" x="199.5" y="109.5">rfsleeve</text>
  <path d="M 339.5 213.0 L 519.5 213.0 L 519.5 117.0 L 471.5 60.0 L 444.5 60.0 Q 464.0 118.5 429.5 135.0 L 339.5 213.0 z" fill="rgb(255,217,194)" stroke="black"/>
  <text fill="rgb(9,33,173)" font-size="25" x="429.0" y="136.0">front_right</text>
  <path d="M 599.0 213.0 L 959.0 213.0 L 869.0 138.0 Q 833.3 120.6 854.0 60.0 L 827.0 60.0 Q 779.0 100.76296985617313 731.0 60.0 L 704.0 60.0 Q 724.7 120.6 689.0 138.0 L 599.0 213.0 z" fill="rgb(255,217,194)" stroke="black"/>
  <text fill="rgb(9,33,173)" font-size="25" x="754.0" y="120.75">back</text>
  <path d="M 1019.0 213.0 L 1199.0 213.0 L 1109.0 135.0 Q 1074.5 118.5 1094.0 60.0 L 1067.0 60.0 L 1019.0 117.0 L 1019.0 213.0 z" fill="rgb(255,217,194)" stroke="black"/>
  <text fill="rgb(9,33,173)" font-size="25" x="1059.5" y="136.0">front_left</text>
  <path d="M 1259.0 168.0 L 1301.0 138.0 Q 1336.7 120.6 1316.0 60.0 L 1259.0 60.0 L 1259.0 168.0 z" fill="rgb(255,217,194)" stroke="black"/>
  <text fill="rgb(9,33,173)" font-size="25" x="1258.75" y="109.5">lbsleeve</text>
  <path d="M 1398.75 168.0 L 1455.75 168.0 Q 1476.45 107.4 1440.75 90.0 L 1398.75 60.0 L 1398.75 168.0 z" fill="rgb(255,217,194)" stroke="black"/>
  <text fill="rgb(9,33,173)" font-size="25" x="1398.5" y="124.5">lfsleeve</text>
</svg>
