<?xml version="1.0" encoding="utf-8" ?>
<svg xmlns="http://www.w3.org/2000/svg" xmlns:ev="http://www.w3.org/2001/xml-events" xmlns:xlink="http://www.w3.org/1999/xlink" baseProfile="full" height="507px" version="1.1" width="1494px">
  <defs/>
  <path d="M 60 165 L 168 165 Q 201.6 86.7 156 60 L 60 72 L 60 165 z" fill="rgb(255,217,194)" stroke="black"/>
  <text fill="rgb(9,33,173)" font-size="25" x="86.0" y="118.5">rbsleeve</text>
  <path d="M 228 153 L 324 165 Q 369.6 138.3 336 60 L 228 60 L 228 153 z" fill="rgb(255,217,194)" stroke="black"/>
  <text fill="rgb(9,33,173)" font-size="25" x="254.0" y="112.5">rfsleeve</text>
  <path d="M 396 447 L 588 447 L 570 165 Q 524.4 138.3 558 60 L 525 60 L 492 69 L 459 60 L 426 60 Q 459.6 138.3 414 165 L 396 447 z" fill="rgb(255,217,194)" stroke="black"/>
  <text fill="rgb(9,33,173)" font-size="25" x="467.0" y="173.33333333333334">back</text>
  <path d="M 648 447 L 840 447 L 822 165 Q 776.4 138.3 810 60 L 777 60 L 744 69 L 711 60 L 678 60 Q 711.6 138.3 666 165 L 648 447 z" fill="rgb(255,217,194)" stroke="black"/>
  <text fill="rgb(9,33,173)" font-size="25" x="719.0" y="173.33333333333334">front</text>
  <path d="M 900 189 L 945 183 Q 1020.6 163.20000000000002 969 69 L 936 78 L 903 60 L 900 189 z" fill="rgb(255,217,194)" stroke="black"/>
  <text fill="rgb(9,33,173)" font-size="25" x="905.6" y="118.8">Rhood</text>
  <path d="M 1032 189 L 1065 171 L 1098 180 Q 1149.6000000000001 85.80000000000001 1074 66 L 1029 60 L 1032 189 z" fill="rgb(255,217,194)" stroke="black"/>
  <text fill="rgb(9,33,173)" font-size="25" x="1034.6" y="136.2">Lhood</text>
  <path d="M 1158 153 L 1254 165 Q 1299.6 138.3 1266 60 L 1158 60 L 1158 153 z" fill="rgb(255,217,194)" stroke="black"/>
  <text fill="rgb(9,33,173)" font-size="25" x="1184.0" y="112.5">lbsleeve</text>
  <path d="M 1326 165 L 1434 165 Q 1467.6 86.7 1422 60 L 1326 72 L 1326 165 z" fill="rgb(255,217,194)" stroke="black"/>
  <text fill="rgb(9,33,173)" font-size="25" x="1352.0" y="118.5">lfsleeve</text>
</svg>
