<?xml version="1.0" encoding="utf-8" ?>
<svg xmlns="http://www.w3.org/2000/svg" xmlns:ev="http://www.w3.org/2001/xml-events" xmlns:xlink="http://www.w3.org/1999/xlink" baseProfile="full" height="249px" version="1.1" width="1224px">
  <defs/>
  <path d="M 60 189 Q 219.0 179.260190846982 378 189 L 288 102 L 267 60 L 171 60 L 150 102 L 60 189 z" fill="rgb(255,217,194)" stroke="black"/>
  <text fill="rgb(9,33,173)" font-size="25" x="194.0" y="120.0">skirt_back</text>
  <path d="M 438 189 Q 597.0 290.3445559336942 756 189 L 666 102 L 645 60 L 549 60 L 528 102 L 438 189 z" fill="rgb(255,217,194)" stroke="black"/>
  <text fill="rgb(9,33,173)" font-size="25" x="572.0" y="120.0">skirt_front</text>
  <path d="M 840 168 L 936 168 L 960 141 Q 924.0 121.5 948 60 L 912 60 Q 888.0 129.47304068264512 864 60 L 828 60 Q 852.0 121.49999999999999 816 141 L 840 168 z" fill="rgb(255,217,194)" stroke="black"/>
  <text fill="rgb(9,33,173)" font-size="25" x="863.0" y="110.25">top_back</text>
  <path d="M 1044 165 L 1140 165 L 1164 141 Q 1128.0 121.5 1152 60 L 1116 60 L 1092 78 L 1068 60 L 1032 60 Q 1056.0 121.49999999999999 1020 141 L 1044 165 z" fill="rgb(255,217,194)" stroke="black"/>
  <text fill="rgb(9,33,173)" font-size="25" x="1067.0" y="106.33333333333333">top_front</text>
</svg>
