<?xml version="1.0" encoding="utf-8" ?>
<svg xmlns="http://www.w3.org/2000/svg" xmlns:ev="http://www.w3.org/2001/xml-events" xmlns:xlink="http://www.w3.org/1999/xlink" baseProfile="full" height="264px" version="1.1" width="1570.0px">
  <defs/>
  <path d="M 60 204 L 207 204 L 195 60 L 90 60 Q 103.5 139.5 60 150 Q 65.4 152.7 60 204 z" fill="rgb(255,217,194)" stroke="black"/>
  <text fill="rgb(9,33,173)" font-size="25" x="97.4" y="138.6">Rback</text>
  <path d="M 267 204 L 414 204 Q 408.6 152.7 414 150 Q 375.0 138.0 384 60 L 279 60 L 267 204 z" fill="rgb(255,217,194)" stroke="black"/>
  <text fill="rgb(9,33,173)" font-size="25" x="326.6" y="138.6">Rfront</text>
  <path d="M 474 81 L 513 81 L 552 81 L 552 60 L 474 60 L 474 81 z" fill="rgb(255,217,194)" stroke="black"/>
  <text fill="rgb(9,33,173)" font-size="25" x="488.0" y="75.6">wb_back</text>
  <path d="M 618.0 81.0 L 657.0 81.0 L 696.0 81.0 L 696.0 60.0 L 618.0 60.0 L 618.0 81.0 z" fill="rgb(255,217,194)" stroke="black"/>
  <text fill="rgb(9,33,173)" font-size="25" x="632.0" y="75.6">wb_front</text>
  <path d="M 772.0 174.0 L 904.0 174.0 L 904.0 150.0 Q 864.4 127.8 892.0 60.0 L 850.0 60.0 Q 838.0 84.97177545240682 826.0 60.0 L 784.0 60.0 Q 811.6 127.8 772.0 150.0 L 772.0 174.0 z" fill="rgb(255,217,194)" stroke="black"/>
  <text fill="rgb(9,33,173)" font-size="25" x="813.0" y="114.0">top_back</text>
  <path d="M 964.0 174.0 L 1096.0 174.0 L 1096.0 150.0 Q 1056.4 127.8 1084.0 60.0 L 1042.0 60.0 L 1030.0 96.0 L 1018.0 60.0 L 976.0 60.0 Q 1003.6 127.8 964.0 150.0 L 964.0 174.0 z" fill="rgb(255,217,194)" stroke="black"/>
  <text fill="rgb(9,33,173)" font-size="25" x="1005.0" y="112.33333333333333">top_front</text>
  <path d="M 1156.0 204.0 L 1303.0 204.0 Q 1297.6 152.7 1303.0 150.0 Q 1259.5 139.5 1273.0 60.0 L 1168.0 60.0 L 1156.0 204.0 z" fill="rgb(255,217,194)" stroke="black"/>
  <text fill="rgb(9,33,173)" font-size="25" x="1215.6" y="138.6">Lback</text>
  <path d="M 1363.0 204.0 L 1510.0 204.0 L 1498.0 60.0 L 1393.0 60.0 Q 1402.0 138.0 1363.0 150.0 Q 1368.4 152.7 1363.0 204.0 z" fill="rgb(255,217,194)" stroke="black"/>
  <text fill="rgb(9,33,173)" font-size="25" x="1400.4" y="138.6">Lfront</text>
</svg>
