<?xml version="1.0" encoding="utf-8" ?>
<svg xmlns="http://www.w3.org/2000/svg" xmlns:ev="http://www.w3.org/2001/xml-events" xmlns:xlink="http://www.w3.org/1999/xlink" baseProfile="full" height="345px" version="1.1" width="916.0px">
  <defs/>
  <path d="M 63 285 L 138 285 L 138 93 L 96 60 L 72 60 Q 103.2 134.10000000000002 60 159 L 63 285 z" fill="rgb(255,217,194)" stroke="black"/>
  <text fill="rgb(9,33,173)" font-size="25" x="69.5" y="160.0">front_right</text>
  <path d="M 245.5 162.0 L 308.5 171.0 Q 364.3 152.1 320.5 84.0 L 281.5 93.0 L 239.5 60.0 L 245.5 162.0 z" fill="rgb(255,217,194)" stroke="black"/>
  <text fill="rgb(9,33,173)" font-size="25" x="254.10000000000002" y="117.0">Rhood</text>
  <path d="M 383.5 285.0 L 533.5 285.0 L 536.5 162.0 Q 492.09999999999997 136.20000000000002 524.5 60.0 L 500.5 60.0 L 458.5 69.0 L 416.5 60.0 L 392.5 60.0 Q 424.90000000000003 136.2 380.5 162.0 L 383.5 285.0 z" fill="rgb(255,217,194)" stroke="black"/>
  <text fill="rgb(9,33,173)" font-size="25" x="433.5" y="136.66666666666666">back</text>
  <path d="M 596.5 171.0 L 638.5 138.0 L 677.5 147.0 Q 721.3000000000001 78.89999999999999 665.5 60.0 L 602.5 69.0 L 596.5 171.0 z" fill="rgb(255,217,194)" stroke="black"/>
  <text fill="rgb(9,33,173)" font-size="25" x="611.1" y="120.0">Lhood</text>
  <path d="M 737.5 285.0 L 812.5 285.0 L 815.5 159.0 Q 772.3 134.10000000000002 803.5 60.0 L 779.5 60.0 L 737.5 93.0 L 737.5 285.0 z" fill="rgb(255,217,194)" stroke="black"/>
  <text fill="rgb(9,33,173)" font-size="25" x="756.0" y="160.0">front_left</text>
</svg>
