<?xml version="1.0" encoding="utf-8" ?>
<svg xmlns="http://www.w3.org/2000/svg" xmlns:ev="http://www.w3.org/2001/xml-events" xmlns:xlink="http://www.w3.org/1999/xlink" baseProfile="full" height="312px" version="1.1" width="1118.0px">
  <defs/>
  <path d="M 60 252 L 102 252 Q 154.95 91.35000000000001 153 60 L 90 60 Q 104.7 141.75 60 153 Q 69.9 157.95 60 252 z" fill="rgb(255,217,194)" stroke="black"/>
  <text fill="rgb(9,33,173)" font-size="25" x="68.0" y="158.4">Rback</text>
  <path d="M 264 252 L 306 252 Q 296.1 157.95 306 153 Q 265.95 140.25 276 60 L 213 60 Q 211.05 91.35 264 252 z" fill="rgb(255,217,194)" stroke="black"/>
  <text fill="rgb(9,33,173)" font-size="25" x="248.0" y="158.4">Rfront</text>
  <path d="M 386.0 168.0 L 449.0 168.0 L 512.0 168.0 L 530.0 114.0 Q 503.9 103.8 515.0 60.0 L 482.0 60.0 Q 449.0 146.91029700928345 416.0 60.0 L 383.0 60.0 Q 394.1 103.8 368.0 114.0 L 386.0 168.0 z" fill="rgb(255,217,194)" stroke="black"/>
  <text fill="rgb(9,33,173)" font-size="25" x="424.0" y="111.0">up_back</text>
  <path d="M 608.0 165.0 L 671.0 165.0 L 734.0 165.0 L 752.0 114.0 Q 725.9 103.8 737.0 60.0 L 704.0 60.0 L 671.0 69.0 L 638.0 60.0 L 605.0 60.0 Q 616.1 103.8 590.0 114.0 L 608.0 165.0 z" fill="rgb(255,217,194)" stroke="black"/>
  <text fill="rgb(9,33,173)" font-size="25" x="646.0" y="106.2">up_front</text>
  <path d="M 863.0 252.0 L 905.0 252.0 Q 895.1 157.95 905.0 153.0 Q 860.3 141.75 875.0 60.0 L 812.0 60.0 Q 810.05 91.35 863.0 252.0 z" fill="rgb(255,217,194)" stroke="black"/>
  <text fill="rgb(9,33,173)" font-size="25" x="847.0" y="158.4">Lback</text>
  <path d="M 965.0 252.0 L 1007.0 252.0 Q 1059.9499999999998 91.35000000000001 1058.0 60.0 L 995.0 60.0 Q 1005.05 140.25 965.0 153.0 Q 974.9 157.95 965.0 252.0 z" fill="rgb(255,217,194)" stroke="black"/>
  <text fill="rgb(9,33,173)" font-size="25" x="973.0" y="158.4">Lfront</text>
</svg>
