<?xml version="1.0" encoding="utf-8" ?>
<svg xmlns="http://www.w3.org/2000/svg" xmlns:ev="http://www.w3.org/2001/xml-events" xmlns:xlink="http://www.w3.org/1999/xlink" baseProfile="full" height="480.0px" version="1.1" width="1429.0px">
  <defs/>
  <path d="M 60 129 L 165 129 Q 179.1 89.70000000000002 156 78 L 60 60 L 60 129 z" fill="rgb(255,217,194)" stroke="black"/>
  <text fill="rgb(9,33,173)" font-size="25" x="85.25" y="102.0">rbsleeve</text>
  <path d="M 225.25 129.0 L 321.25 111.0 Q 344.34999999999997 99.3 330.25 60.0 L 225.25 60.0 L 225.25 129.0 z" fill="rgb(255,217,194)" stroke="black"/>
  <text fill="rgb(9,33,173)" font-size="25" x="250.5" y="93.0">rfsleeve</text>
  <path d="M 390.5 420.0 L 684.5 420.0 L 600.5 114.0 Q 575.3 102.6 588.5 60.0 L 561.5 60.0 Q 537.5 75.43956165226214 513.5 60.0 L 486.5 60.0 Q 499.70000000000005 102.6 474.5 114.0 L 390.5 420.0 z" fill="rgb(255,217,194)" stroke="black"/>
  <text fill="rgb(9,33,173)" font-size="25" x="512.5" y="166.5">back</text>
  <path d="M 744.5 420.0 L 1038.5 420.0 L 954.5 111.0 Q 930.5 100.5 942.5 60.0 L 915.5 60.0 L 891.5 156.0 L 867.5 60.0 L 840.5 60.0 Q 852.5 100.49999999999999 828.5 111.0 L 744.5 420.0 z" fill="rgb(255,217,194)" stroke="black"/>
  <text fill="rgb(9,33,173)" font-size="25" x="866.5" y="165.0">front</text>
  <path d="M 1098.5 129.0 L 1194.5 111.0 Q 1217.6000000000001 99.3 1203.5 60.0 L 1098.5 60.0 L 1098.5 129.0 z" fill="rgb(255,217,194)" stroke="black"/>
  <text fill="rgb(9,33,173)" font-size="25" x="1123.75" y="93.0">lbsleeve</text>
  <path d="M 1263.75 129.0 L 1368.75 129.0 Q 1382.8500000000001 89.70000000000002 1359.75 78.0 L 1263.75 60.0 L 1263.75 129.0 z" fill="rgb(255,217,194)" stroke="black"/>
  <text fill="rgb(9,33,173)" font-size="25" x="1289.0" y="102.0">lfsleeve</text>
</svg>
