<?xml version="1.0" encoding="utf-8" ?>
<svg xmlns="http://www.w3.org/2000/svg" xmlns:ev="http://www.w3.org/2001/xml-events" xmlns:xlink="http://www.w3.org/1999/xlink" baseProfile="full" height="267px" version="1.1" width="1522.0px">
  <defs/>
  <path d="M 60 207 L 180 207 L 189 60 L 90 60 Q 104.7 141.75 60 153 Q 65.4 155.7 60 207 z" fill="rgb(255,217,194)" stroke="black"/>
  <text fill="rgb(9,33,173)" font-size="25" x="90.8" y="140.4">Rback</text>
  <path d="M 258 207 L 378 207 Q 372.6 155.7 378 153 Q 337.95 140.25 348 60 L 249 60 L 258 207 z" fill="rgb(255,217,194)" stroke="black"/>
  <text fill="rgb(9,33,173)" font-size="25" x="297.2" y="140.4">Rfront</text>
  <path d="M 438 78 L 477 78 L 516 78 L 516 60 L 438 60 L 438 78 z" fill="rgb(255,217,194)" stroke="black"/>
  <text fill="rgb(9,33,173)" font-size="25" x="452.0" y="73.8">wb_back</text>
  <path d="M 582.0 78.0 L 621.0 78.0 L 660.0 78.0 L 660.0 60.0 L 582.0 60.0 L 582.0 78.0 z" fill="rgb(255,217,194)" stroke="black"/>
  <text fill="rgb(9,33,173)" font-size="25" x="596.0" y="73.8">wb_front</text>
  <path d="M 736.0 162.0 L 880.0 162.0 L 880.0 138.0 Q 845.1999999999999 119.39999999999999 868.0 60.0 L 832.0 60.0 Q 808.0 92.24237344699773 784.0 60.0 L 748.0 60.0 Q 770.8000000000001 119.39999999999999 736.0 138.0 L 736.0 162.0 z" fill="rgb(255,217,194)" stroke="black"/>
  <text fill="rgb(9,33,173)" font-size="25" x="783.0" y="108.0">top_back</text>
  <path d="M 940.0 162.0 L 1084.0 162.0 L 1084.0 138.0 Q 1049.2 119.39999999999999 1072.0 60.0 L 1036.0 60.0 L 1012.0 114.0 L 988.0 60.0 L 952.0 60.0 Q 974.8000000000001 119.39999999999999 940.0 138.0 L 940.0 162.0 z" fill="rgb(255,217,194)" stroke="black"/>
  <text fill="rgb(9,33,173)" font-size="25" x="987.0" y="109.0">top_front</text>
  <path d="M 1153.0 207.0 L 1273.0 207.0 Q 1267.6 155.7 1273.0 153.0 Q 1228.3 141.75 1243.0 60.0 L 1144.0 60.0 L 1153.0 207.0 z" fill="rgb(255,217,194)" stroke="black"/>
  <text fill="rgb(9,33,173)" font-size="25" x="1192.2" y="140.4">Lback</text>
  <path d="M 1333.0 207.0 L 1453.0 207.0 L 1462.0 60.0 L 1363.0 60.0 Q 1373.05 140.25 1333.0 153.0 Q 1338.4 155.7 1333.0 207.0 z" fill="rgb(255,217,194)" stroke="black"/>
  <text fill="rgb(9,33,173)" font-size="25" x="1363.8" y="140.4">Lfront</text>
</svg>
