<?xml version="1.0" encoding="utf-8" ?>
<svg xmlns="http://www.w3.org/2000/svg" xmlns:ev="http://www.w3.org/2001/xml-events" xmlns:xlink="http://www.w3.org/1999/xlink" baseProfile="full" height="528px" version="1.1" width="845.0px">
  <defs/>
  <path d="M 60 468 L 201 468 L 201 114 L 183 60 L 153 60 Q 169.5 103.5 144 117 L 60 468 z" fill="rgb(255,217,194)" stroke="black"/>
  <text fill="rgb(9,33,173)" font-size="25" x="132.0" y="217.5">front_right</text>
  <path d="M 302.0 468.0 L 584.0 468.0 L 500.0 117.0 Q 474.5 103.5 491.0 60.0 L 461.0 60.0 Q 443.0 109.49764329491778 425.0 60.0 L 395.0 60.0 Q 411.5 103.5 386.0 117.0 L 302.0 468.0 z" fill="rgb(255,217,194)" stroke="black"/>
  <text fill="rgb(9,33,173)" font-size="25" x="418.0" y="179.25">back</text>
  <path d="M 644.0 468.0 L 785.0 468.0 L 701.0 117.0 Q 675.5 103.5 692.0 60.0 L 662.0 60.0 L 644.0 114.0 L 644.0 468.0 z" fill="rgb(255,217,194)" stroke="black"/>
  <text fill="rgb(9,33,173)" font-size="25" x="663.0" y="217.5">front_left</text>
</svg>
