<?xml version="1.0" encoding="utf-8" ?>
<svg xmlns="http://www.w3.org/2000/svg" xmlns:ev="http://www.w3.org/2001/xml-events" xmlns:xlink="http://www.w3.org/1999/xlink" baseProfile="full" height="261px" version="1.1" width="1764px">
  <defs/>
  <path d="M 60 150 L 165 150 Q 183.0 99.00000000000001 153 84 L 60 60 L 60 150 z" fill="rgb(255,217,194)" stroke="black"/>
  <text fill="rgb(9,33,173)" font-size="25" x="84.5" y="114.0">rbsleeve</text>
  <path d="M 225 150 L 318 126 Q 348.0 111.0 330 60 L 225 60 L 225 150 z" fill="rgb(255,217,194)" stroke="black"/>
  <text fill="rgb(9,33,173)" font-size="25" x="249.5" y="102.0">rfsleeve</text>
  <path d="M 390 201 L 447 201 Q 484.65000000000003 82.95 483 60 L 420 60 Q 434.7 141.75 390 153 Q 394.8 155.4 390 201 z" fill="rgb(255,217,194)" stroke="black"/>
  <text fill="rgb(9,33,173)" font-size="25" x="401.0" y="138.0">Rback</text>
  <path d="M 579 201 L 636 201 Q 631.2 155.4 636 153 Q 595.95 140.25 606 60 L 543 60 Q 541.35 82.95 579 201 z" fill="rgb(255,217,194)" stroke="black"/>
  <text fill="rgb(9,33,173)" font-size="25" x="575.0" y="138.0">Rfront</text>
  <path d="M 711 168 L 774 168 L 837 168 L 852 126 Q 822.0 111.0 840 60 L 801 60 Q 774.0 70.58948708710864 747 60 L 708 60 Q 726.0 110.99999999999999 696 126 L 711 168 z" fill="rgb(255,217,194)" stroke="black"/>
  <text fill="rgb(9,33,173)" font-size="25" x="749.0" y="113.66666666666667">up_back</text>
  <path d="M 927 165 L 990 165 L 1053 165 L 1068 126 Q 1038.0 111.0 1056 60 L 1017 60 L 990 105 L 963 60 L 924 60 Q 942.0 110.99999999999999 912 126 L 927 165 z" fill="rgb(255,217,194)" stroke="black"/>
  <text fill="rgb(9,33,173)" font-size="25" x="965.0" y="112.2">up_front</text>
  <path d="M 1164 201 L 1221 201 Q 1216.2 155.4 1221 153 Q 1176.3 141.75 1191 60 L 1128 60 Q 1126.3500000000001 82.95 1164 201 z" fill="rgb(255,217,194)" stroke="black"/>
  <text fill="rgb(9,33,173)" font-size="25" x="1160.0" y="138.0">Lback</text>
  <path d="M 1281 201 L 1338 201 Q 1375.6499999999999 82.95 1374 60 L 1311 60 Q 1321.05 140.25 1281 153 Q 1285.8 155.4 1281 201 z" fill="rgb(255,217,194)" stroke="black"/>
  <text fill="rgb(9,33,173)" font-size="25" x="1292.0" y="138.0">Lfront</text>
  <path d="M 1434 150 L 1527 126 Q 1557.0 111.0 1539 60 L 1434 60 L 1434 150 z" fill="rgb(255,217,194)" stroke="black"/>
  <text fill="rgb(9,33,173)" font-size="25" x="1458.5" y="102.0">lbsleeve</text>
  <path d="M 1599 150 L 1704 150 Q 1722.0 99.00000000000001 1692 84 L 1599 60 L 1599 150 z" fill="rgb(255,217,194)" stroke="black"/>
  <text fill="rgb(9,33,173)" font-size="25" x="1623.5" y="114.0">lfsleeve</text>
</svg>
