<?xml version="1.0" encoding="utf-8" ?>
<svg xmlns="http://www.w3.org/2000/svg" xmlns:ev="http://www.w3.org/2001/xml-events" xmlns:xlink="http://www.w3.org/1999/xlink" baseProfile="full" height="456.0px" version="1.1" width="1481.0px">
  <defs/>
  <path d="M 60 150 L 120 150 Q 134.4 105.3 108 93 L 60 60 L 60 150 z" fill="rgb(255,217,194)" stroke="black"/>
  <text fill="rgb(9,33,173)" font-size="25" x="62.0" y="116.25">rbsleeve</text>
  <path d="M 202.0 150.0 L 250.0 117.0 Q 276.4 104.7 262.0 60.0 L 202.0 60.0 L 202.0 150.0 z" fill="rgb(255,217,194)" stroke="black"/>
  <text fill="rgb(9,33,173)" font-size="25" x="204.0" y="99.75">rfsleeve</text>
  <path d="M 344.0 393.0 L 425.0 393.0 L 425.0 99.0 L 389.0 60.0 L 368.0 60.0 Q 383.3 101.39999999999999 359.0 114.0 L 344.0 393.0 z" fill="rgb(255,217,194)" stroke="black"/>
  <text fill="rgb(9,33,173)" font-size="25" x="360.0" y="189.5">front_right</text>
  <path d="M 533.0 174.0 L 551.0 177.0 Q 619.4000000000001 183.3 605.0 90.0 L 569.0 99.0 L 530.0 60.0 L 533.0 174.0 z" fill="rgb(255,217,194)" stroke="black"/>
  <text fill="rgb(9,33,173)" font-size="25" x="532.6" y="123.0">Rhood</text>
  <path d="M 665.0 396.0 L 827.0 396.0 L 812.0 117.0 Q 786.5 103.5 803.0 60.0 L 782.0 60.0 L 746.0 69.0 L 710.0 60.0 L 689.0 60.0 Q 705.5 103.5 680.0 117.0 L 665.0 396.0 z" fill="rgb(255,217,194)" stroke="black"/>
  <text fill="rgb(9,33,173)" font-size="25" x="721.0" y="151.33333333333334">back</text>
  <path d="M 887.0 177.0 L 926.0 138.0 L 962.0 147.0 Q 976.4000000000001 53.699999999999996 908.0 60.0 L 890.0 63.0 L 887.0 177.0 z" fill="rgb(255,217,194)" stroke="black"/>
  <text fill="rgb(9,33,173)" font-size="25" x="889.6" y="120.0">Lhood</text>
  <path d="M 1022.0 393.0 L 1103.0 393.0 L 1088.0 114.0 Q 1063.7 101.39999999999999 1079.0 60.0 L 1058.0 60.0 L 1022.0 99.0 L 1022.0 393.0 z" fill="rgb(255,217,194)" stroke="black"/>
  <text fill="rgb(9,33,173)" font-size="25" x="1037.0" y="189.5">front_left</text>
  <path d="M 1197.0 150.0 L 1245.0 117.0 Q 1271.3999999999999 104.7 1257.0 60.0 L 1197.0 60.0 L 1197.0 150.0 z" fill="rgb(255,217,194)" stroke="black"/>
  <text fill="rgb(9,33,173)" font-size="25" x="1199.0" y="99.75">lbsleeve</text>
  <path d="M 1339.0 150.0 L 1399.0 150.0 Q 1413.3999999999999 105.3 1387.0 93.0 L 1339.0 60.0 L 1339.0 150.0 z" fill="rgb(255,217,194)" stroke="black"/>
  <text fill="rgb(9,33,173)" font-size="25" x="1341.0" y="116.25">lfsleeve</text>
</svg>
