<?xml version="1.0" encoding="utf-8" ?>
<svg xmlns="http://www.w3.org/2000/svg" xmlns:ev="http://www.w3.org/2001/xml-events" xmlns:xlink="http://www.w3.org/1999/xlink" baseProfile="full" height="306.0px" version="1.1" width="1553.0px">
  <defs/>
  <path d="M 60 150 L 138 150 Q 151.2 107.4 126 96 L 60 60 L 60 150 z" fill="rgb(255,217,194)" stroke="black"/>
  <text fill="rgb(9,33,173)" font-size="25" x="71.0" y="117.0">rbsleeve</text>
  <path d="M 211.0 150.0 L 277.0 114.0 Q 302.20000000000005 102.6 289.0 60.0 L 211.0 60.0 L 211.0 150.0 z" fill="rgb(255,217,194)" stroke="black"/>
  <text fill="rgb(9,33,173)" font-size="25" x="222.0" y="99.0">rfsleeve</text>
  <path d="M 362.0 246.0 L 467.0 246.0 L 467.0 96.0 L 449.0 60.0 L 404.0 60.0 Q 417.20000000000005 102.6 392.0 114.0 L 362.0 246.0 z" fill="rgb(255,217,194)" stroke="black"/>
  <text fill="rgb(9,33,173)" font-size="25" x="398.5" y="140.0">front_right</text>
  <path d="M 568.5 198.0 L 613.5 195.0 Q 681.9 169.79999999999998 625.5 87.0 L 604.5 96.0 L 583.5 60.0 L 568.5 198.0 z" fill="rgb(255,217,194)" stroke="black"/>
  <text fill="rgb(9,33,173)" font-size="25" x="574.1" y="130.2">Rhood</text>
  <path d="M 685.5 246.0 L 895.5 246.0 L 865.5 114.0 Q 840.3 102.6 853.5 60.0 L 808.5 60.0 L 790.5 69.0 L 772.5 60.0 L 727.5 60.0 Q 740.7 102.6 715.5 114.0 L 685.5 246.0 z" fill="rgb(255,217,194)" stroke="black"/>
  <text fill="rgb(9,33,173)" font-size="25" x="765.5" y="117.33333333333333">back</text>
  <path d="M 970.5 198.0 L 991.5 162.0 L 1012.5 171.0 Q 1068.9 88.2 1000.5 63.0 L 955.5 60.0 L 970.5 198.0 z" fill="rgb(255,217,194)" stroke="black"/>
  <text fill="rgb(9,33,173)" font-size="25" x="961.1" y="133.8">Lhood</text>
  <path d="M 1072.5 246.0 L 1177.5 246.0 L 1147.5 114.0 Q 1122.3000000000002 102.6 1135.5 60.0 L 1090.5 60.0 L 1072.5 96.0 L 1072.5 246.0 z" fill="rgb(255,217,194)" stroke="black"/>
  <text fill="rgb(9,33,173)" font-size="25" x="1091.0" y="140.0">front_left</text>
  <path d="M 1251.0 150.0 L 1317.0 114.0 Q 1342.1999999999998 102.6 1329.0 60.0 L 1251.0 60.0 L 1251.0 150.0 z" fill="rgb(255,217,194)" stroke="black"/>
  <text fill="rgb(9,33,173)" font-size="25" x="1262.0" y="99.0">lbsleeve</text>
  <path d="M 1402.0 150.0 L 1480.0 150.0 Q 1493.1999999999998 107.4 1468.0 96.0 L 1402.0 60.0 L 1402.0 150.0 z" fill="rgb(255,217,194)" stroke="black"/>
  <text fill="rgb(9,33,173)" font-size="25" x="1413.0" y="117.0">lfsleeve</text>
</svg>
