<?xml version="1.0" encoding="utf-8" ?>
<svg xmlns="http://www.w3.org/2000/svg" xmlns:ev="http://www.w3.org/2001/xml-events" xmlns:xlink="http://www.w3.org/1999/xlink" baseProfile="full" height="447.0px" version="1.1" width="1864.0px">
  <defs/>
  <path d="M 60 162 L 138 162 Q 170.4 85.80000000000001 126 60 L 60 111 L 60 162 z" fill="rgb(255,217,194)" stroke="black"/>
  <text fill="rgb(9,33,173)" font-size="25" x="71.0" y="126.75">rbsleeve</text>
  <path d="M 211.0 111.0 L 277.0 162.0 Q 321.40000000000003 136.20000000000002 289.0 60.0 L 211.0 60.0 L 211.0 111.0 z" fill="rgb(255,217,194)" stroke="black"/>
  <text fill="rgb(9,33,173)" font-size="25" x="222.0" y="101.25">rfsleeve</text>
  <path d="M 362.0 387.0 L 752.0 387.0 L 641.0 159.0 Q 596.9 135.3 626.0 60.0 L 602.0 60.0 L 557.0 69.0 L 512.0 60.0 L 488.0 60.0 Q 517.1 135.3 473.0 159.0 L 362.0 387.0 z" fill="rgb(255,217,194)" stroke="black"/>
  <text fill="rgb(9,33,173)" font-size="25" x="532.0" y="158.66666666666666">back</text>
  <path d="M 812.0 387.0 L 1202.0 387.0 L 1091.0 159.0 Q 1046.9 135.3 1076.0 60.0 L 1052.0 60.0 L 1007.0 75.0 L 962.0 60.0 L 938.0 60.0 Q 967.1 135.3 923.0 159.0 L 812.0 387.0 z" fill="rgb(255,217,194)" stroke="black"/>
  <text fill="rgb(9,33,173)" font-size="25" x="982.0" y="159.33333333333334">front</text>
  <path d="M 1274.0 195.0 L 1325.0 186.0 Q 1399.6999999999998 168.89999999999998 1352.0 75.0 L 1310.0 84.0 L 1262.0 60.0 L 1274.0 195.0 z" fill="rgb(255,217,194)" stroke="black"/>
  <text fill="rgb(9,33,173)" font-size="25" x="1279.6" y="123.0">Rhood</text>
  <path d="M 1412.0 195.0 L 1460.0 171.0 L 1502.0 180.0 Q 1549.6999999999998 86.10000000000001 1475.0 69.0 L 1424.0 60.0 L 1412.0 195.0 z" fill="rgb(255,217,194)" stroke="black"/>
  <text fill="rgb(9,33,173)" font-size="25" x="1429.6" y="138.0">Lhood</text>
  <path d="M 1562.0 111.0 L 1628.0 162.0 Q 1672.3999999999999 136.20000000000002 1640.0 60.0 L 1562.0 60.0 L 1562.0 111.0 z" fill="rgb(255,217,194)" stroke="black"/>
  <text fill="rgb(9,33,173)" font-size="25" x="1573.0" y="101.25">lbsleeve</text>
  <path d="M 1713.0 162.0 L 1791.0 162.0 Q 1823.3999999999999 85.80000000000001 1779.0 60.0 L 1713.0 111.0 L 1713.0 162.0 z" fill="rgb(255,217,194)" stroke="black"/>
  <text fill="rgb(9,33,173)" font-size="25" x="1724.0" y="126.75">lfsleeve</text>
</svg>
