<?xml version="1.0" encoding="utf-8" ?>
<svg xmlns="http://www.w3.org/2000/svg" xmlns:ev="http://www.w3.org/2001/xml-events" xmlns:xlink="http://www.w3.org/1999/xlink" baseProfile="full" height="426px" version="1.1" width="1717.1px">
  <defs/>
  <path d="M 60 162 L 174 162 Q 208.5 87.00000000000001 165 60 L 60 96 L 60 162 z" fill="rgb(255,217,194)" stroke="black"/>
  <text fill="rgb(9,33,173)" font-size="25" x="89.75" y="123.0">rbsleeve</text>
  <path d="M 234 126 L 339 162 Q 382.5 135.0 348 60 L 234 60 L 234 126 z" fill="rgb(255,217,194)" stroke="black"/>
  <text fill="rgb(9,33,173)" font-size="25" x="263.75" y="105.0">rfsleeve</text>
  <path d="M 408 366 L 534 366 L 534 114 L 522 60 L 483 60 Q 517.5 134.99999999999997 474 162 L 408 366 z" fill="rgb(255,217,194)" stroke="black"/>
  <text fill="rgb(9,33,173)" font-size="25" x="467.5" y="191.0">front_right</text>
  <path d="M 637.5 195.0 L 688.5 198.0 Q 743.4 168.29999999999998 685.5 105.0 L 673.5 114.0 L 661.5 60.0 L 637.5 195.0 z" fill="rgb(255,217,194)" stroke="black"/>
  <text fill="rgb(9,33,173)" font-size="25" x="644.3" y="137.4">Rhood</text>
  <path d="M 754.3 366.0 L 1006.3 366.0 L 940.3 162.0 Q 896.8 135.0 931.3 60.0 L 892.3 60.0 L 880.3 69.0 L 868.3 60.0 L 829.3 60.0 Q 863.8 134.99999999999997 820.3 162.0 L 754.3 366.0 z" fill="rgb(255,217,194)" stroke="black"/>
  <text fill="rgb(9,33,173)" font-size="25" x="855.3000000000001" y="154.66666666666666">back</text>
  <path d="M 1090.3 198.0 L 1102.3 144.0 L 1114.3 153.0 Q 1172.1999999999998 89.7 1117.3 60.0 L 1066.3 63.0 L 1090.3 198.0 z" fill="rgb(255,217,194)" stroke="black"/>
  <text fill="rgb(9,33,173)" font-size="25" x="1073.1" y="126.6">Lhood</text>
  <path d="M 1183.1 366.0 L 1309.1 366.0 L 1243.1 162.0 Q 1199.6 135.0 1234.1 60.0 L 1195.1 60.0 L 1183.1 114.0 L 1183.1 366.0 z" fill="rgb(255,217,194)" stroke="black"/>
  <text fill="rgb(9,33,173)" font-size="25" x="1199.6000000000001" y="191.0">front_left</text>
  <path d="M 1369.1 126.0 L 1474.1 162.0 Q 1517.6 135.0 1483.1 60.0 L 1369.1 60.0 L 1369.1 126.0 z" fill="rgb(255,217,194)" stroke="black"/>
  <text fill="rgb(9,33,173)" font-size="25" x="1398.85" y="105.0">lbsleeve</text>
  <path d="M 1543.1 162.0 L 1657.1 162.0 Q 1691.6 87.00000000000001 1648.1 60.0 L 1543.1 96.0 L 1543.1 162.0 z" fill="rgb(255,217,194)" stroke="black"/>
  <text fill="rgb(9,33,173)" font-size="25" x="1572.85" y="123.0">lfsleeve</text>
</svg>
