<?xml version="1.0" encoding="utf-8" ?>
<svg xmlns="http://www.w3.org/2000/svg" xmlns:ev="http://www.w3.org/2001/xml-events" xmlns:xlink="http://www.w3.org/1999/xlink" baseProfile="full" height="267px" version="1.1" width="1092px">
  <defs/>
  <path d="M 60 207 L 135 207 Q 157.65 82.95 153 60 L 90 60 Q 104.7 141.75 60 153 Q 65.4 155.7 60 207 z" fill="rgb(255,217,194)" stroke="black"/>
  <text fill="rgb(9,33,173)" font-size="25" x="74.6" y="140.4">Rback</text>
  <path d="M 231 207 L 306 207 Q 300.6 155.7 306 153 Q 265.95 140.25 276 60 L 213 60 Q 208.35 82.95 231 207 z" fill="rgb(255,217,194)" stroke="black"/>
  <text fill="rgb(9,33,173)" font-size="25" x="241.39999999999998" y="140.4">Rfront</text>
  <path d="M 381 168 L 441 168 L 501 168 L 516 117 Q 489.59999999999997 104.7 504 60 L 483 60 Q 441.0 111.68929747535813 399 60 L 378 60 Q 392.40000000000003 104.7 366 117 L 381 168 z" fill="rgb(255,217,194)" stroke="black"/>
  <text fill="rgb(9,33,173)" font-size="25" x="416.0" y="111.66666666666667">up_back</text>
  <path d="M 591 165 L 651 165 L 711 165 L 726 117 Q 699.6 104.7 714 60 L 693 60 L 651 114 L 609 60 L 588 60 Q 602.4 104.7 576 117 L 591 165 z" fill="rgb(255,217,194)" stroke="black"/>
  <text fill="rgb(9,33,173)" font-size="25" x="626.0" y="111.3">up_front</text>
  <path d="M 804 207 L 879 207 Q 873.6 155.7 879 153 Q 834.3 141.75 849 60 L 786 60 Q 781.35 82.95 804 207 z" fill="rgb(255,217,194)" stroke="black"/>
  <text fill="rgb(9,33,173)" font-size="25" x="814.4" y="140.4">Lback</text>
  <path d="M 939 207 L 1014 207 Q 1036.6499999999999 82.95 1032 60 L 969 60 Q 979.05 140.25 939 153 Q 944.4 155.7 939 207 z" fill="rgb(255,217,194)" stroke="black"/>
  <text fill="rgb(9,33,173)" font-size="25" x="953.6" y="140.4">Lfront</text>
</svg>
