<?xml version="1.0" encoding="utf-8" ?>
<svg xmlns="http://www.w3.org/2000/svg" xmlns:ev="http://www.w3.org/2001/xml-events" xmlns:xlink="http://www.w3.org/1999/xlink" baseProfile="full" height="513px" version="1.1" width="1618.0px">
  <defs/>
  <path d="M 60 222 L 183 222 Q 200.1 167.7 168 153 L 60 60 L 60 222 z" fill="rgb(255,217,194)" stroke="black"/>
  <text fill="rgb(9,33,173)" font-size="25" x="92.75" y="167.25">rbsleeve</text>
  <path d="M 243 222 L 351 129 Q 383.1 114.3 366 60 L 243 60 L 243 222 z" fill="rgb(255,217,194)" stroke="black"/>
  <text fill="rgb(9,33,173)" font-size="25" x="275.75" y="120.75">rfsleeve</text>
  <path d="M 429 453 L 510 453 L 510 108 L 489 60 L 438 60 Q 457.20000000000005 113.1 426 129 L 429 453 z" fill="rgb(255,217,194)" stroke="black"/>
  <text fill="rgb(9,33,173)" font-size="25" x="442.0" y="213.5">front_right</text>
  <path d="M 612.0 192.0 L 627.0 192.0 Q 695.4 189.29999999999998 669.0 99.0 L 648.0 108.0 L 624.0 60.0 L 612.0 192.0 z" fill="rgb(255,217,194)" stroke="black"/>
  <text fill="rgb(9,33,173)" font-size="25" x="611.0" y="133.2">Rhood</text>
  <path d="M 732.0 453.0 L 894.0 453.0 L 897.0 129.0 Q 865.8 113.1 885.0 60.0 L 834.0 60.0 L 813.0 69.0 L 792.0 60.0 L 741.0 60.0 Q 760.2 113.1 729.0 129.0 L 732.0 453.0 z" fill="rgb(255,217,194)" stroke="black"/>
  <text fill="rgb(9,33,173)" font-size="25" x="788.0" y="166.66666666666666">back</text>
  <path d="M 969.0 192.0 L 993.0 144.0 L 1014.0 153.0 Q 1040.4 62.7 972.0 60.0 L 957.0 60.0 L 969.0 192.0 z" fill="rgb(255,217,194)" stroke="black"/>
  <text fill="rgb(9,33,173)" font-size="25" x="956.0" y="124.8">Lhood</text>
  <path d="M 1074.0 453.0 L 1155.0 453.0 L 1158.0 129.0 Q 1126.8000000000002 113.1 1146.0 60.0 L 1095.0 60.0 L 1074.0 108.0 L 1074.0 453.0 z" fill="rgb(255,217,194)" stroke="black"/>
  <text fill="rgb(9,33,173)" font-size="25" x="1092.0" y="213.5">front_left</text>
  <path d="M 1252.0 222.0 L 1360.0 129.0 Q 1392.1 114.3 1375.0 60.0 L 1252.0 60.0 L 1252.0 222.0 z" fill="rgb(255,217,194)" stroke="black"/>
  <text fill="rgb(9,33,173)" font-size="25" x="1284.75" y="120.75">lbsleeve</text>
  <path d="M 1435.0 222.0 L 1558.0 222.0 Q 1575.1 167.7 1543.0 153.0 L 1435.0 60.0 L 1435.0 222.0 z" fill="rgb(255,217,194)" stroke="black"/>
  <text fill="rgb(9,33,173)" font-size="25" x="1467.75" y="167.25">lfsleeve</text>
</svg>
