<?xml version="1.0" encoding="utf-8" ?>
<svg xmlns="http://www.w3.org/2000/svg" xmlns:ev="http://www.w3.org/2001/xml-events" xmlns:xlink="http://www.w3.org/1999/xlink" baseProfile="full" height="303.0px" version="1.1" width="589.0px">
  <defs/>
  <path d="M 60 240 L 123 240 L 123 93 L 99 60 L 69 60 Q 81.9 97.19999999999999 60 108 L 60 240 z" fill="rgb(255,217,194)" stroke="black"/>
  <text fill="rgb(9,33,173)" font-size="25" x="64.0" y="136.5">front_right</text>
  <text fill="rgb(245,96,66)" font-size="25" x="121.21485154423925" y="94.17054448406795">0</text>
  <text fill="rgb(245,96,66)" font-size="25" x="94.67406200024311" y="60.04564429821311">1</text>
  <text fill="rgb(245,96,66)" font-size="25" x="62.687190286527006" y="60.17542430298674">2</text>
  <text fill="rgb(245,96,66)" font-size="25" x="51.24514843034475" y="109.69832017151003">3</text>
  <text fill="rgb(245,96,66)" font-size="25" x="53.68632957019152" y="249.8243414060208">4</text>
  <text fill="rgb(245,96,66)" font-size="25" x="119.52063267271276" y="249.76315822482084">5</text>
  <text fill="rgb(50,179,101)" font-size="20" x="86.61733856752201" y="249.9986229764378">0</text>
  <text fill="rgb(50,179,101)" font-size="20" x="121.58790345814158" y="174.9823768858433">1</text>
  <text fill="rgb(50,179,101)" font-size="20" x="107.80037797025761" y="76.8353843497871">2</text>
  <text fill="rgb(50,179,101)" font-size="20" x="78.66064824853679" y="60.01152925349072">3</text>
  <text fill="rgb(50,179,101)" font-size="20" x="57.282056013195586" y="84.51884786339517">4</text>
  <text fill="rgb(50,179,101)" font-size="20" x="52.089063443274725" y="183.0652734671508">5</text>
  <path d="M 234.0 243.0 L 360.0 243.0 L 360.0 111.0 Q 336.90000000000003 99.3 351.0 60.0 L 321.0 60.0 Q 297.0 74.4 273.0 60.0 L 243.0 60.0 Q 257.09999999999997 99.29999999999998 234.0 111.0 L 234.0 243.0 z" fill="rgb(255,217,194)" stroke="black"/>
  <text fill="rgb(9,33,173)" font-size="25" x="272.0" y="121.5">back</text>
  <text fill="rgb(245,96,66)" font-size="25" x="317.89778178128154" y="60.37415690812627">0</text>
  <text fill="rgb(245,96,66)" font-size="25" x="349.3914005136653" y="61.32598277686256">1</text>
  <text fill="rgb(245,96,66)" font-size="25" x="359.9649413709747" y="115.40893555107444">2</text>
  <text fill="rgb(245,96,66)" font-size="25" x="357.2575425409681" y="252.46133406905597">3</text>
  <text fill="rgb(245,96,66)" font-size="25" x="226.74245745903193" y="252.46133406905597">4</text>
  <text fill="rgb(245,96,66)" font-size="25" x="224.0350586290253" y="115.40893555107444">5</text>
  <text fill="rgb(245,96,66)" font-size="25" x="234.60859948633467" y="61.32598277686256">6</text>
  <text fill="rgb(245,96,66)" font-size="25" x="266.10221821871846" y="60.37415690812627">7</text>
  <text fill="rgb(50,179,101)" font-size="20" x="292.0" y="253.0">0</text>
  <text fill="rgb(50,179,101)" font-size="20" x="358.6639674581315" y="185.4022554968364">1</text>
  <text fill="rgb(50,179,101)" font-size="20" x="354.85489233871465" y="88.04339406534045">2</text>
  <text fill="rgb(50,179,101)" font-size="20" x="333.7735009811261" y="60.83974852831078">3</text>
  <text fill="rgb(50,179,101)" font-size="20" x="292.0" y="60.0">4</text>
  <text fill="rgb(50,179,101)" font-size="20" x="250.22649901887385" y="60.83974852831078">5</text>
  <text fill="rgb(50,179,101)" font-size="20" x="229.14510766128535" y="88.04339406534045">6</text>
  <text fill="rgb(50,179,101)" font-size="20" x="225.33603254186852" y="185.4022554968364">7</text>
  <path d="M 420.0 240.0 L 483.0 240.0 L 483.0 108.0 Q 461.1 97.19999999999999 474.0 60.0 L 444.0 60.0 L 420.0 93.0 L 420.0 240.0 z" fill="rgb(255,217,194)" stroke="black"/>
  <text fill="rgb(9,33,173)" font-size="25" x="429.0" y="136.5">front_left</text>
  <text fill="rgb(245,96,66)" font-size="25" x="411.78514845576075" y="94.17054448406795">0</text>
  <text fill="rgb(245,96,66)" font-size="25" x="413.47936732728726" y="249.76315822482084">1</text>
  <text fill="rgb(245,96,66)" font-size="25" x="479.3136704298085" y="249.8243414060208">2</text>
  <text fill="rgb(245,96,66)" font-size="25" x="481.7548515696553" y="109.69832017151003">3</text>
  <text fill="rgb(245,96,66)" font-size="25" x="470.312809713473" y="60.17542430298674">4</text>
  <text fill="rgb(245,96,66)" font-size="25" x="438.3259379997569" y="60.04564429821311">5</text>
  <text fill="rgb(50,179,101)" font-size="20" x="446.38266143247796" y="249.9986229764378">0</text>
  <text fill="rgb(50,179,101)" font-size="20" x="480.9109365567253" y="183.0652734671508">1</text>
  <text fill="rgb(50,179,101)" font-size="20" x="475.7179439868044" y="84.51884786339517">2</text>
  <text fill="rgb(50,179,101)" font-size="20" x="454.3393517514632" y="60.01152925349072">3</text>
  <text fill="rgb(50,179,101)" font-size="20" x="425.1996220297424" y="76.8353843497871">4</text>
  <text fill="rgb(50,179,101)" font-size="20" x="411.41209654185843" y="174.9823768858433">5</text>
</svg>
