<?xml version="1.0" encoding="utf-8" ?>
<svg xmlns="http://www.w3.org/2000/svg" xmlns:ev="http://www.w3.org/2001/xml-events" xmlns:xlink="http://www.w3.org/1999/xlink" baseProfile="full" height="384px" version="1.1" width="1539.0px">
  <defs/>
  <path d="M 60 324 L 144 324 L 204 60 L 90 60 Q 98.7 130.5 60 138 Q 78.6 147.3 60 324 z" fill="rgb(255,217,194)" stroke="black"/>
  <text fill="rgb(9,33,173)" font-size="25" x="86.6" y="184.2">Rback</text>
  <path d="M 324 324 L 408 324 Q 389.4 147.3 408 138 Q 373.2 129.0 378 60 L 264 60 L 324 324 z" fill="rgb(255,217,194)" stroke="black"/>
  <text fill="rgb(9,33,173)" font-size="25" x="331.4" y="184.2">Rfront</text>
  <path d="M 468 72 L 507 72 L 546 72 L 546 60 L 468 60 L 468 72 z" fill="rgb(255,217,194)" stroke="black"/>
  <text fill="rgb(9,33,173)" font-size="25" x="482.0" y="70.2">wb_back</text>
  <path d="M 612.0 72.0 L 651.0 72.0 L 690.0 72.0 L 690.0 60.0 L 612.0 60.0 L 612.0 72.0 z" fill="rgb(255,217,194)" stroke="black"/>
  <text fill="rgb(9,33,173)" font-size="25" x="626.0" y="70.2">wb_front</text>
  <path d="M 766.0 180.0 L 886.0 180.0 L 886.0 141.0 Q 850.9 120.3 877.0 60.0 L 856.0 60.0 Q 826.0 76.30425561673874 796.0 60.0 L 775.0 60.0 Q 801.1 120.29999999999998 766.0 141.0 L 766.0 180.0 z" fill="rgb(255,217,194)" stroke="black"/>
  <text fill="rgb(9,33,173)" font-size="25" x="801.0" y="113.25">top_back</text>
  <path d="M 946.0 180.0 L 1066.0 180.0 L 1066.0 141.0 Q 1030.8999999999999 120.3 1057.0 60.0 L 1036.0 60.0 L 1006.0 81.0 L 976.0 60.0 L 955.0 60.0 Q 981.1 120.29999999999998 946.0 141.0 L 946.0 180.0 z" fill="rgb(255,217,194)" stroke="black"/>
  <text fill="rgb(9,33,173)" font-size="25" x="981.0" y="110.0">top_front</text>
  <path d="M 1191.0 324.0 L 1275.0 324.0 Q 1256.4 147.3 1275.0 138.0 Q 1236.3 130.5 1245.0 60.0 L 1131.0 60.0 L 1191.0 324.0 z" fill="rgb(255,217,194)" stroke="black"/>
  <text fill="rgb(9,33,173)" font-size="25" x="1198.4" y="184.2">Lback</text>
  <path d="M 1335.0 324.0 L 1419.0 324.0 L 1479.0 60.0 L 1365.0 60.0 Q 1369.8 129.0 1335.0 138.0 Q 1353.6 147.3 1335.0 324.0 z" fill="rgb(255,217,194)" stroke="black"/>
  <text fill="rgb(9,33,173)" font-size="25" x="1361.6" y="184.2">Lfront</text>
</svg>
