<?xml version="1.0" encoding="utf-8" ?>
<svg xmlns="http://www.w3.org/2000/svg" xmlns:ev="http://www.w3.org/2001/xml-events" xmlns:xlink="http://www.w3.org/1999/xlink" baseProfile="full" height="432px" version="1.1" width="1260px">
  <defs/>
  <path d="M 60 141 L 189 141 Q 198.6 104.7 177 96 L 60 60 L 60 141 z" fill="rgb(255,217,194)" stroke="black"/>
  <text fill="rgb(9,33,173)" font-size="25" x="96.5" y="112.5">rbsleeve</text>
  <path d="M 249 141 L 366 105 Q 387.6 96.3 378 60 L 249 60 L 249 141 z" fill="rgb(255,217,194)" stroke="black"/>
  <text fill="rgb(9,33,173)" font-size="25" x="285.5" y="94.5">rfsleeve</text>
  <path d="M 438 372 L 600 372 L 588 108 Q 566.0999999999999 97.19999999999999 579 60 L 543 60 Q 519.0 148.0745996202483 495 60 L 459 60 Q 471.9 97.19999999999999 450 108 L 438 372 z" fill="rgb(255,217,194)" stroke="black"/>
  <text fill="rgb(9,33,173)" font-size="25" x="494.0" y="153.0">back</text>
  <path d="M 660 372 L 822 372 L 810 108 Q 788.0999999999999 97.19999999999999 801 60 L 765 60 L 741 108 L 717 60 L 681 60 Q 693.9000000000001 97.19999999999999 672 108 L 660 372 z" fill="rgb(255,217,194)" stroke="black"/>
  <text fill="rgb(9,33,173)" font-size="25" x="716.0" y="148.33333333333334">front</text>
  <path d="M 882 141 L 999 105 Q 1020.6 96.3 1011 60 L 882 60 L 882 141 z" fill="rgb(255,217,194)" stroke="black"/>
  <text fill="rgb(9,33,173)" font-size="25" x="918.5" y="94.5">lbsleeve</text>
  <path d="M 1071 141 L 1200 141 Q 1209.6 104.7 1188 96 L 1071 60 L 1071 141 z" fill="rgb(255,217,194)" stroke="black"/>
  <text fill="rgb(9,33,173)" font-size="25" x="1107.5" y="112.5">lfsleeve</text>
</svg>
