<?xml version="1.0" encoding="utf-8" ?>
<svg xmlns="http://www.w3.org/2000/svg" xmlns:ev="http://www.w3.org/2001/xml-events" xmlns:xlink="http://www.w3.org/1999/xlink" baseProfile="full" height="285px" version="1.1" width="1489.0px">
  <defs/>
  <path d="M 60 225 L 114 225 Q 143.1 149.7 99 126 L 60 60 L 60 225 z" fill="rgb(255,217,194)" stroke="black"/>
  <text fill="rgb(9,33,173)" font-size="25" x="58.25" y="162.0">rbsleeve</text>
  <path d="M 198.25 225.0 L 237.25 159.0 Q 281.35 135.3 252.25 60.0 L 198.25 60.0 L 198.25 225.0 z" fill="rgb(255,217,194)" stroke="black"/>
  <text fill="rgb(9,33,173)" font-size="25" x="196.5" y="129.0">rfsleeve</text>
  <path d="M 336.5 222.0 L 714.5 222.0 L 612.5 159.0 Q 568.4 135.3 597.5 60.0 L 543.5 60.0 Q 525.5 99.01670045141158 507.5 60.0 L 453.5 60.0 Q 482.6 135.3 438.5 159.0 L 336.5 222.0 z" fill="rgb(255,217,194)" stroke="black"/>
  <text fill="rgb(9,33,173)" font-size="25" x="500.5" y="128.25">back</text>
  <path d="M 774.5 219.0 L 1152.5 219.0 L 1050.5 159.0 Q 1006.4 135.3 1035.5 60.0 L 981.5 60.0 L 963.5 102.0 L 945.5 60.0 L 891.5 60.0 Q 920.6 135.3 876.5 159.0 L 774.5 219.0 z" fill="rgb(255,217,194)" stroke="black"/>
  <text fill="rgb(9,33,173)" font-size="25" x="938.5" y="125.0">front</text>
  <path d="M 1212.5 225.0 L 1251.5 159.0 Q 1295.6 135.3 1266.5 60.0 L 1212.5 60.0 L 1212.5 225.0 z" fill="rgb(255,217,194)" stroke="black"/>
  <text fill="rgb(9,33,173)" font-size="25" x="1210.75" y="129.0">lbsleeve</text>
  <path d="M 1350.75 225.0 L 1404.75 225.0 Q 1433.85 149.7 1389.75 126.0 L 1350.75 60.0 L 1350.75 225.0 z" fill="rgb(255,217,194)" stroke="black"/>
  <text fill="rgb(9,33,173)" font-size="25" x="1349.0" y="162.0">lfsleeve</text>
</svg>
