<?xml version="1.0" encoding="utf-8" ?>
<svg xmlns="http://www.w3.org/2000/svg" xmlns:ev="http://www.w3.org/2001/xml-events" xmlns:xlink="http://www.w3.org/1999/xlink" baseProfile="full" height="417px" version="1.1" width="1092px">
  <defs/>
  <path d="M 60 357 L 123 357 Q 160.79999999999998 105.9 150 60 L 90 60 Q 104.7 141.75 60 153 Q 80.4 163.2 60 357 z" fill="rgb(255,217,194)" stroke="black"/>
  <text fill="rgb(9,33,173)" font-size="25" x="71.6" y="200.4">Rback</text>
  <path d="M 237 357 L 300 357 Q 279.6 163.20000000000002 300 153 Q 259.95 140.25 270 60 L 210 60 Q 199.20000000000002 105.89999999999999 237 357 z" fill="rgb(255,217,194)" stroke="black"/>
  <text fill="rgb(9,33,173)" font-size="25" x="238.39999999999998" y="200.4">Rfront</text>
  <path d="M 381 168 L 438 168 L 495 168 L 516 105 Q 494.4 96.3 504 60 L 477 60 Q 438.0 139.10514947672942 399 60 L 372 60 Q 381.6 96.3 360 105 L 381 168 z" fill="rgb(255,217,194)" stroke="black"/>
  <text fill="rgb(9,33,173)" font-size="25" x="413.0" y="109.0">up_back</text>
  <path d="M 597 165 L 654 165 L 711 165 L 732 105 Q 710.4 96.3 720 60 L 693 60 L 654 84 L 615 60 L 588 60 Q 597.6 96.3 576 105 L 597 165 z" fill="rgb(255,217,194)" stroke="black"/>
  <text fill="rgb(9,33,173)" font-size="25" x="629.0" y="105.9">up_front</text>
  <path d="M 819 357 L 882 357 Q 861.6 163.20000000000002 882 153 Q 837.3 141.75 852 60 L 792 60 Q 781.1999999999999 105.89999999999999 819 357 z" fill="rgb(255,217,194)" stroke="black"/>
  <text fill="rgb(9,33,173)" font-size="25" x="820.4" y="200.4">Lback</text>
  <path d="M 942 357 L 1005 357 Q 1042.8 105.9 1032 60 L 972 60 Q 982.05 140.25 942 153 Q 962.4 163.2 942 357 z" fill="rgb(255,217,194)" stroke="black"/>
  <text fill="rgb(9,33,173)" font-size="25" x="953.6" y="200.4">Lfront</text>
</svg>
