<?xml version="1.0" encoding="utf-8" ?>
<svg xmlns="http://www.w3.org/2000/svg" xmlns:ev="http://www.w3.org/2001/xml-events" xmlns:xlink="http://www.w3.org/1999/xlink" baseProfile="full" height="270.0px" version="1.1" width="1493.0px">
  <defs/>
  <path d="M 60 186 L 93 186 Q 101.7 146.4 78 138 L 60 60 L 60 186 z" fill="rgb(255,217,194)" stroke="black"/>
  <text fill="rgb(9,33,173)" font-size="25" x="47.75" y="145.5">rbsleeve</text>
  <path d="M 187.75 186.0 L 205.75 108.0 Q 229.45 99.6 220.75 60.0 L 187.75 60.0 L 187.75 186.0 z" fill="rgb(255,217,194)" stroke="black"/>
  <text fill="rgb(9,33,173)" font-size="25" x="175.5" y="106.5">rfsleeve</text>
  <path d="M 321.5 210.0 Q 390.5 159.79699745477518 459.5 210.0 L 465.5 102.0 L 459.5 60.0 L 321.5 60.0 L 315.5 102.0 L 321.5 210.0 z" fill="rgb(255,217,194)" stroke="black"/>
  <text fill="rgb(9,33,173)" font-size="25" x="365.5" y="127.0">skirt_back</text>
  <path d="M 531.5 210.0 Q 600.5 275.50863137298455 669.5 210.0 L 675.5 102.0 L 669.5 60.0 L 531.5 60.0 L 525.5 102.0 L 531.5 210.0 z" fill="rgb(255,217,194)" stroke="black"/>
  <text fill="rgb(9,33,173)" font-size="25" x="575.5" y="127.0">skirt_front</text>
  <path d="M 769.5 168.0 L 907.5 168.0 L 931.5 111.0 Q 906.6 101.7 916.5 60.0 L 862.5 60.0 Q 838.5 151.68825786746118 814.5 60.0 L 760.5 60.0 Q 770.4 101.69999999999999 745.5 111.0 L 769.5 168.0 z" fill="rgb(255,217,194)" stroke="black"/>
  <text fill="rgb(9,33,173)" font-size="25" x="813.5" y="102.75">top_back</text>
  <path d="M 1015.5 165.0 L 1153.5 165.0 L 1177.5 108.0 Q 1153.8 99.6 1162.5 60.0 L 1108.5 60.0 L 1084.5 138.0 L 1060.5 60.0 L 1006.5 60.0 Q 1015.2 99.6 991.5 108.0 L 1015.5 165.0 z" fill="rgb(255,217,194)" stroke="black"/>
  <text fill="rgb(9,33,173)" font-size="25" x="1059.5" y="105.66666666666667">top_front</text>
  <path d="M 1237.5 186.0 L 1255.5 108.0 Q 1279.2 99.6 1270.5 60.0 L 1237.5 60.0 L 1237.5 186.0 z" fill="rgb(255,217,194)" stroke="black"/>
  <text fill="rgb(9,33,173)" font-size="25" x="1225.25" y="106.5">lbsleeve</text>
  <path d="M 1365.25 186.0 L 1398.25 186.0 Q 1406.95 146.4 1383.25 138.0 L 1365.25 60.0 L 1365.25 186.0 z" fill="rgb(255,217,194)" stroke="black"/>
  <text fill="rgb(9,33,173)" font-size="25" x="1353.0" y="145.5">lfsleeve</text>
</svg>
