<?xml version="1.0" encoding="utf-8" ?>
<svg xmlns="http://www.w3.org/2000/svg" xmlns:ev="http://www.w3.org/2001/xml-events" xmlns:xlink="http://www.w3.org/1999/xlink" baseProfile="full" height="351px" version="1.1" width="1842.0px">
  <defs/>
  <path d="M 60 144 L 177 144 Q 201.0 82.50000000000001 165 63 L 60 60 L 60 144 z" fill="rgb(255,217,194)" stroke="black"/>
  <text fill="rgb(9,33,173)" font-size="25" x="90.5" y="105.75">rbsleeve</text>
  <path d="M 237 144 L 342 141 Q 378.0 121.5 354 60 L 237 60 L 237 144 z" fill="rgb(255,217,194)" stroke="black"/>
  <text fill="rgb(9,33,173)" font-size="25" x="267.5" y="104.25">rfsleeve</text>
  <path d="M 414 291 L 558 291 L 558 66 L 516 60 L 492 60 Q 516.0 121.49999999999999 480 141 L 414 291 z" fill="rgb(255,217,194)" stroke="black"/>
  <text fill="rgb(9,33,173)" font-size="25" x="478.0" y="154.5">front_right</text>
  <path d="M 657.0 144.0 L 669.0 147.0 Q 740.1 158.7 732.0 60.0 L 693.0 69.0 L 648.0 63.0 L 657.0 144.0 z" fill="rgb(255,217,194)" stroke="black"/>
  <text fill="rgb(9,33,173)" font-size="25" x="654.8" y="99.6">Rhood</text>
  <path d="M 792.0 291.0 L 1080.0 291.0 L 1014.0 141.0 Q 978.0 121.5 1002.0 60.0 L 978.0 60.0 L 936.0 69.0 L 894.0 60.0 L 870.0 60.0 Q 894.0 121.49999999999999 858.0 141.0 L 792.0 291.0 z" fill="rgb(255,217,194)" stroke="black"/>
  <text fill="rgb(9,33,173)" font-size="25" x="911.0" y="133.33333333333334">back</text>
  <path d="M 1140.0 144.0 L 1185.0 138.0 L 1224.0 147.0 Q 1232.1000000000001 48.3 1161.0 60.0 L 1149.0 63.0 L 1140.0 144.0 z" fill="rgb(255,217,194)" stroke="black"/>
  <text fill="rgb(9,33,173)" font-size="25" x="1146.8" y="113.4">Lhood</text>
  <path d="M 1284.0 291.0 L 1428.0 291.0 L 1362.0 141.0 Q 1326.0 121.5 1350.0 60.0 L 1326.0 60.0 L 1284.0 66.0 L 1284.0 291.0 z" fill="rgb(255,217,194)" stroke="black"/>
  <text fill="rgb(9,33,173)" font-size="25" x="1314.0" y="154.5">front_left</text>
  <path d="M 1488.0 144.0 L 1593.0 141.0 Q 1629.0 121.5 1605.0 60.0 L 1488.0 60.0 L 1488.0 144.0 z" fill="rgb(255,217,194)" stroke="black"/>
  <text fill="rgb(9,33,173)" font-size="25" x="1518.5" y="104.25">lbsleeve</text>
  <path d="M 1665.0 144.0 L 1782.0 144.0 Q 1806.0 82.50000000000001 1770.0 63.0 L 1665.0 60.0 L 1665.0 144.0 z" fill="rgb(255,217,194)" stroke="black"/>
  <text fill="rgb(9,33,173)" font-size="25" x="1695.5" y="105.75">lfsleeve</text>
</svg>
