<?xml version="1.0" encoding="utf-8" ?>
<svg xmlns="http://www.w3.org/2000/svg" xmlns:ev="http://www.w3.org/2001/xml-events" xmlns:xlink="http://www.w3.org/1999/xlink" baseProfile="full" height="399px" version="1.1" width="1408.0px">
  <defs/>
  <path d="M 60 171 L 180 171 Q 216.0 88.50000000000001 168 60 L 60 90 L 60 171 z" fill="rgb(255,217,194)" stroke="black"/>
  <text fill="rgb(9,33,173)" font-size="25" x="92.0" y="126.0">rbsleeve</text>
  <path d="M 240 141 L 348 171 Q 396.0 142.5 360 60 L 240 60 L 240 141 z" fill="rgb(255,217,194)" stroke="black"/>
  <text fill="rgb(9,33,173)" font-size="25" x="272.0" y="111.0">rfsleeve</text>
  <path d="M 420 339 L 516 339 L 516 93 L 495 60 L 459 60 Q 495.9 139.2 450 168 L 420 339 z" fill="rgb(255,217,194)" stroke="black"/>
  <text fill="rgb(9,33,173)" font-size="25" x="451.0" y="179.5">front_right</text>
  <path d="M 621.0 339.0 L 813.0 339.0 L 783.0 168.0 Q 737.0999999999999 139.2 774.0 60.0 L 738.0 60.0 Q 717.0 185.06245224886365 696.0 60.0 L 660.0 60.0 Q 696.9000000000001 139.2 651.0 168.0 L 621.0 339.0 z" fill="rgb(255,217,194)" stroke="black"/>
  <text fill="rgb(9,33,173)" font-size="25" x="692.0" y="159.75">back</text>
  <path d="M 873.0 339.0 L 969.0 339.0 L 939.0 168.0 Q 893.0999999999999 139.2 930.0 60.0 L 894.0 60.0 L 873.0 93.0 L 873.0 339.0 z" fill="rgb(255,217,194)" stroke="black"/>
  <text fill="rgb(9,33,173)" font-size="25" x="888.0" y="179.5">front_left</text>
  <path d="M 1048.0 141.0 L 1156.0 171.0 Q 1204.0 142.5 1168.0 60.0 L 1048.0 60.0 L 1048.0 141.0 z" fill="rgb(255,217,194)" stroke="black"/>
  <text fill="rgb(9,33,173)" font-size="25" x="1080.0" y="111.0">lbsleeve</text>
  <path d="M 1228.0 171.0 L 1348.0 171.0 Q 1384.0 88.50000000000001 1336.0 60.0 L 1228.0 90.0 L 1228.0 171.0 z" fill="rgb(255,217,194)" stroke="black"/>
  <text fill="rgb(9,33,173)" font-size="25" x="1260.0" y="126.0">lfsleeve</text>
</svg>
