<?xml version="1.0" encoding="utf-8" ?>
<svg xmlns="http://www.w3.org/2000/svg" xmlns:ev="http://www.w3.org/2001/xml-events" xmlns:xlink="http://www.w3.org/1999/xlink" baseProfile="full" height="249px" version="1.1" width="1129.5px">
  <defs/>
  <path d="M 60 189 L 204 189 L 204 75 L 165 60 L 141 60 Q 151.8 98.39999999999999 129 108 L 60 189 z" fill="rgb(255,217,194)" stroke="black"/>
  <text fill="rgb(9,33,173)" font-size="25" x="125.5" y="116.5">front_right</text>
  <path d="M 301.5 174.0 L 367.5 168.0 Q 431.4 142.8 376.5 66.0 L 337.5 75.0 L 295.5 60.0 L 301.5 174.0 z" fill="rgb(255,217,194)" stroke="black"/>
  <text fill="rgb(9,33,173)" font-size="25" x="310.7" y="111.6">Rhood</text>
  <path d="M 436.5 189.0 L 724.5 189.0 L 655.5 108.0 Q 632.6999999999999 98.39999999999999 643.5 60.0 L 619.5 60.0 L 580.5 69.0 L 541.5 60.0 L 517.5 60.0 Q 528.3000000000001 98.39999999999999 505.5 108.0 L 436.5 189.0 z" fill="rgb(255,217,194)" stroke="black"/>
  <text fill="rgb(9,33,173)" font-size="25" x="555.5" y="103.33333333333333">back</text>
  <path d="M 784.5 174.0 L 826.5 159.0 L 865.5 168.0 Q 920.4000000000001 91.2 856.5 66.0 L 790.5 60.0 L 784.5 174.0 z" fill="rgb(255,217,194)" stroke="black"/>
  <text fill="rgb(9,33,173)" font-size="25" x="799.7" y="128.4">Lhood</text>
  <path d="M 925.5 189.0 L 1069.5 189.0 L 1000.5 108.0 Q 977.6999999999999 98.39999999999999 988.5 60.0 L 964.5 60.0 L 925.5 75.0 L 925.5 189.0 z" fill="rgb(255,217,194)" stroke="black"/>
  <text fill="rgb(9,33,173)" font-size="25" x="954.0" y="116.5">front_left</text>
</svg>
