<?xml version="1.0" encoding="utf-8" ?>
<svg xmlns="http://www.w3.org/2000/svg" xmlns:ev="http://www.w3.org/2001/xml-events" xmlns:xlink="http://www.w3.org/1999/xlink" baseProfile="full" height="366px" version="1.1" width="1438.0px">
  <defs/>
  <path d="M 60 306 L 336 306 L 336 60 L 60 60 L 60 306 z" fill="rgb(255,217,194)" stroke="black"/>
  <text fill="rgb(9,33,173)" font-size="25" x="173.0" y="186.0">skirt_back</text>
  <path d="M 396 81 L 486 81 L 486 60 L 396 60 L 396 81 z" fill="rgb(255,217,194)" stroke="black"/>
  <text fill="rgb(9,33,173)" font-size="25" x="416.0" y="73.5">wb_back</text>
  <path d="M 546 81 L 636 81 L 636 60 L 546 60 L 546 81 z" fill="rgb(255,217,194)" stroke="black"/>
  <text fill="rgb(9,33,173)" font-size="25" x="566.0" y="73.5">wb_front</text>
  <path d="M 706.0 306.0 L 982.0 306.0 L 982.0 60.0 L 706.0 60.0 L 706.0 306.0 z" fill="rgb(255,217,194)" stroke="black"/>
  <text fill="rgb(9,33,173)" font-size="25" x="819.0" y="186.0">skirt_front</text>
  <path d="M 1042.0 165.0 L 1180.0 165.0 L 1180.0 120.0 Q 1153.3 105.6 1171.0 60.0 L 1132.0 60.0 Q 1111.0 88.0648211418137 1090.0 60.0 L 1051.0 60.0 Q 1068.7 105.6 1042.0 120.0 L 1042.0 165.0 z" fill="rgb(255,217,194)" stroke="black"/>
  <text fill="rgb(9,33,173)" font-size="25" x="1086.0" y="104.25">top_back</text>
  <path d="M 1240.0 162.0 L 1378.0 162.0 L 1378.0 120.0 Q 1351.3 105.6 1369.0 60.0 L 1330.0 60.0 L 1309.0 69.0 L 1288.0 60.0 L 1249.0 60.0 Q 1266.7 105.6 1240.0 120.0 L 1240.0 162.0 z" fill="rgb(255,217,194)" stroke="black"/>
  <text fill="rgb(9,33,173)" font-size="25" x="1284.0" y="100.0">top_front</text>
</svg>
