<?xml version="1.0" encoding="utf-8" ?>
<svg xmlns="http://www.w3.org/2000/svg" xmlns:ev="http://www.w3.org/2001/xml-events" xmlns:xlink="http://www.w3.org/1999/xlink" baseProfile="full" height="363px" version="1.1" width="1152px">
  <defs/>
  <path d="M 60 303 L 117 303 Q 169.95000000000002 98.85000000000002 165 60 L 90 60 Q 104.7 141.75 60 153 Q 75.0 160.5 60 303 z" fill="rgb(255,217,194)" stroke="black"/>
  <text fill="rgb(9,33,173)" font-size="25" x="73.4" y="178.8">Rback</text>
  <path d="M 273 303 L 330 303 Q 315.0 160.5 330 153 Q 289.95 140.25 300 60 L 225 60 Q 220.04999999999998 98.85 273 303 z" fill="rgb(255,217,194)" stroke="black"/>
  <text fill="rgb(9,33,173)" font-size="25" x="266.6" y="178.8">Rfront</text>
  <path d="M 390 168 L 468 168 L 546 168 L 525 132 Q 493.49999999999994 114.0 516 60 L 498 60 Q 468.0 106.80404083538744 438 60 L 420 60 Q 442.5 114.0 411 132 L 390 168 z" fill="rgb(255,217,194)" stroke="black"/>
  <text fill="rgb(9,33,173)" font-size="25" x="443.0" y="115.0">up_back</text>
  <path d="M 606 165 L 684 165 L 762 165 L 741 132 Q 709.5 114.0 732 60 L 714 60 L 684 114 L 654 60 L 636 60 Q 658.5 114.0 627 132 L 606 165 z" fill="rgb(255,217,194)" stroke="black"/>
  <text fill="rgb(9,33,173)" font-size="25" x="659.0" y="114.3">up_front</text>
  <path d="M 870 303 L 927 303 Q 912.0 160.5 927 153 Q 882.3 141.75 897 60 L 822 60 Q 817.0500000000001 98.85 870 303 z" fill="rgb(255,217,194)" stroke="black"/>
  <text fill="rgb(9,33,173)" font-size="25" x="863.6" y="178.8">Lback</text>
  <path d="M 987 303 L 1044 303 Q 1096.95 98.85000000000002 1092 60 L 1017 60 Q 1027.05 140.25 987 153 Q 1002.0 160.5 987 303 z" fill="rgb(255,217,194)" stroke="black"/>
  <text fill="rgb(9,33,173)" font-size="25" x="1000.4000000000001" y="178.8">Lfront</text>
</svg>
