<?xml version="1.0" encoding="utf-8" ?>
<svg xmlns="http://www.w3.org/2000/svg" xmlns:ev="http://www.w3.org/2001/xml-events" xmlns:xlink="http://www.w3.org/1999/xlink" baseProfile="full" height="402px" version="1.1" width="1116px">
  <defs/>
  <path d="M 60 342 L 168 342 Q 171.9 101.70000000000002 156 60 L 90 60 Q 104.7 141.75 60 153 Q 78.9 162.45 60 342 z" fill="rgb(255,217,194)" stroke="black"/>
  <text fill="rgb(9,33,173)" font-size="25" x="81.8" y="194.4">Rback</text>
  <path d="M 228 342 L 336 342 Q 317.1 162.45000000000002 336 153 Q 295.95 140.25 306 60 L 240 60 Q 224.1 101.7 228 342 z" fill="rgb(255,217,194)" stroke="black"/>
  <text fill="rgb(9,33,173)" font-size="25" x="264.2" y="194.4">Rfront</text>
  <path d="M 396 168 L 462 168 L 528 168 L 528 147 Q 490.49999999999994 124.5 519 60 L 489 60 Q 462.0 96.36952666838589 435 60 L 405 60 Q 433.5 124.5 396 147 L 396 168 z" fill="rgb(255,217,194)" stroke="black"/>
  <text fill="rgb(9,33,173)" font-size="25" x="437.0" y="118.33333333333333">up_back</text>
  <path d="M 588 165 L 654 165 L 720 165 L 720 147 Q 682.5 124.5 711 60 L 681 60 L 654 69 L 627 60 L 597 60 Q 625.5 124.5 588 147 L 588 165 z" fill="rgb(255,217,194)" stroke="black"/>
  <text fill="rgb(9,33,173)" font-size="25" x="629.0" y="112.8">up_front</text>
  <path d="M 780 342 L 888 342 Q 869.1 162.45000000000002 888 153 Q 843.3 141.75 858 60 L 792 60 Q 776.1 101.7 780 342 z" fill="rgb(255,217,194)" stroke="black"/>
  <text fill="rgb(9,33,173)" font-size="25" x="816.2" y="194.4">Lback</text>
  <path d="M 948 342 L 1056 342 Q 1059.8999999999999 101.70000000000002 1044 60 L 978 60 Q 988.05 140.25 948 153 Q 966.9 162.45 948 342 z" fill="rgb(255,217,194)" stroke="black"/>
  <text fill="rgb(9,33,173)" font-size="25" x="969.8" y="194.4">Lfront</text>
</svg>
