<?xml version="1.0" encoding="utf-8" ?>
<svg xmlns="http://www.w3.org/2000/svg" xmlns:ev="http://www.w3.org/2001/xml-events" xmlns:xlink="http://www.w3.org/1999/xlink" baseProfile="full" height="309px" version="1.1" width="1116.0px">
  <defs/>
  <path d="M 60 249 L 213 249 L 213 84 L 198 60 L 156 60 Q 187.2 134.10000000000002 144 159 L 60 249 z" fill="rgb(255,217,194)" stroke="black"/>
  <text fill="rgb(9,33,173)" font-size="25" x="139.0" y="146.5">front_right</text>
  <path d="M 309.0 189.0 L 336.0 186.0 Q 410.70000000000005 168.89999999999998 363.0 75.0 L 345.0 84.0 L 327.0 60.0 L 309.0 189.0 z" fill="rgb(255,217,194)" stroke="black"/>
  <text fill="rgb(9,33,173)" font-size="25" x="311.0" y="121.8">Rhood</text>
  <path d="M 423.0 249.0 L 729.0 249.0 L 645.0 159.0 Q 601.8 134.10000000000002 633.0 60.0 L 591.0 60.0 L 576.0 69.0 L 561.0 60.0 L 519.0 60.0 Q 550.2 134.10000000000002 507.0 159.0 L 423.0 249.0 z" fill="rgb(255,217,194)" stroke="black"/>
  <text fill="rgb(9,33,173)" font-size="25" x="551.0" y="128.0">back</text>
  <path d="M 807.0 189.0 L 825.0 165.0 L 843.0 174.0 Q 890.7 80.10000000000001 816.0 63.0 L 789.0 60.0 L 807.0 189.0 z" fill="rgb(255,217,194)" stroke="black"/>
  <text fill="rgb(9,33,173)" font-size="25" x="791.0" y="133.2">Lhood</text>
  <path d="M 903.0 249.0 L 1056.0 249.0 L 972.0 159.0 Q 928.8 134.10000000000002 960.0 60.0 L 918.0 60.0 L 903.0 84.0 L 903.0 249.0 z" fill="rgb(255,217,194)" stroke="black"/>
  <text fill="rgb(9,33,173)" font-size="25" x="927.0" y="146.5">front_left</text>
</svg>
