<?xml version="1.0" encoding="utf-8" ?>
<svg xmlns="http://www.w3.org/2000/svg" xmlns:ev="http://www.w3.org/2001/xml-events" xmlns:xlink="http://www.w3.org/1999/xlink" baseProfile="full" height="267.0px" version="1.1" width="1619.4px">
  <defs/>
  <path d="M 60 180 L 123 180 Q 138.6 133.2 111 120 L 60 60 L 60 180 z" fill="rgb(255,217,194)" stroke="black"/>
  <text fill="rgb(9,33,173)" font-size="25" x="63.5" y="138.0">rbsleeve</text>
  <path d="M 203.5 180.0 L 254.5 120.0 Q 282.1 106.8 266.5 60.0 L 203.5 60.0 L 203.5 180.0 z" fill="rgb(255,217,194)" stroke="black"/>
  <text fill="rgb(9,33,173)" font-size="25" x="207.0" y="108.0">rfsleeve</text>
  <path d="M 347.0 207.0 L 395.0 207.0 Q 438.05 84.14999999999999 437.0 60.0 L 377.0 60.0 Q 391.7 141.75 347.0 153.0 Q 352.4 155.7 347.0 207.0 z" fill="rgb(255,217,194)" stroke="black"/>
  <text fill="rgb(9,33,173)" font-size="25" x="355.6" y="140.4">Rback</text>
  <path d="M 539.0 207.0 L 587.0 207.0 Q 581.6 155.7 587.0 153.0 Q 546.95 140.25 557.0 60.0 L 497.0 60.0 Q 495.95 84.14999999999999 539.0 207.0 z" fill="rgb(255,217,194)" stroke="black"/>
  <text fill="rgb(9,33,173)" font-size="25" x="528.4" y="140.4">Rfront</text>
  <path d="M 654.4 168.0 L 714.4 168.0 L 774.4 168.0 L 780.4 120.0 Q 753.6999999999999 105.6 771.4 60.0 L 729.4 60.0 Q 714.4 68.93419784884468 699.4 60.0 L 657.4 60.0 Q 675.1 105.6 648.4 120.0 L 654.4 168.0 z" fill="rgb(255,217,194)" stroke="black"/>
  <text fill="rgb(9,33,173)" font-size="25" x="689.3999999999999" y="112.33333333333333">up_back</text>
  <path d="M 846.4 165.0 L 906.4 165.0 L 966.4 165.0 L 972.4 120.0 Q 945.6999999999999 105.6 963.4 60.0 L 921.4 60.0 L 906.4 66.0 L 891.4 60.0 L 849.4 60.0 Q 867.1 105.6 840.4 120.0 L 846.4 165.0 z" fill="rgb(255,217,194)" stroke="black"/>
  <text fill="rgb(9,33,173)" font-size="25" x="881.3999999999999" y="107.1">up_front</text>
  <path d="M 1074.4 207.0 L 1122.4 207.0 Q 1117.0 155.7 1122.4 153.0 Q 1077.7 141.75 1092.4 60.0 L 1032.4 60.0 Q 1031.3500000000001 84.14999999999999 1074.4 207.0 z" fill="rgb(255,217,194)" stroke="black"/>
  <text fill="rgb(9,33,173)" font-size="25" x="1063.8" y="140.4">Lback</text>
  <path d="M 1182.4 207.0 L 1230.4 207.0 Q 1273.45 84.14999999999999 1272.4 60.0 L 1212.4 60.0 Q 1222.45 140.25 1182.4 153.0 Q 1187.8000000000002 155.7 1182.4 207.0 z" fill="rgb(255,217,194)" stroke="black"/>
  <text fill="rgb(9,33,173)" font-size="25" x="1191.0" y="140.4">Lfront</text>
  <path d="M 1332.4 180.0 L 1383.4 120.0 Q 1411.0 106.8 1395.4 60.0 L 1332.4 60.0 L 1332.4 180.0 z" fill="rgb(255,217,194)" stroke="black"/>
  <text fill="rgb(9,33,173)" font-size="25" x="1335.9" y="108.0">lbsleeve</text>
  <path d="M 1475.9 180.0 L 1538.9 180.0 Q 1554.5 133.2 1526.9 120.0 L 1475.9 60.0 L 1475.9 180.0 z" fill="rgb(255,217,194)" stroke="black"/>
  <text fill="rgb(9,33,173)" font-size="25" x="1479.4" y="138.0">lfsleeve</text>
</svg>
