<?xml version="1.0" encoding="utf-8" ?>
<svg xmlns="http://www.w3.org/2000/svg" xmlns:ev="http://www.w3.org/2001/xml-events" xmlns:xlink="http://www.w3.org/1999/xlink" baseProfile="full" height="312px" version="1.1" width="1716px">
  <defs/>
  <path d="M 60 117 L 183 117 Q 197.4 72.3 171 60 L 60 60 L 60 117 z" fill="rgb(255,217,194)" stroke="black"/>
  <text fill="rgb(9,33,173)" font-size="25" x="93.5" y="91.5">rbsleeve</text>
  <path d="M 243 117 L 354 117 Q 380.40000000000003 104.7 366 60 L 243 60 L 243 117 z" fill="rgb(255,217,194)" stroke="black"/>
  <text fill="rgb(9,33,173)" font-size="25" x="276.5" y="91.5">rfsleeve</text>
  <path d="M 426 252 Q 519.0 324.9895489785681 612 252 L 585 102 L 585 60 L 453 60 L 453 102 L 426 252 z" fill="rgb(255,217,194)" stroke="black"/>
  <text fill="rgb(9,33,173)" font-size="25" x="494.0" y="141.0">skirt_back</text>
  <path d="M 672 252 Q 765.0 299.92971961599335 858 252 L 831 102 L 831 60 L 699 60 L 699 102 L 672 252 z" fill="rgb(255,217,194)" stroke="black"/>
  <text fill="rgb(9,33,173)" font-size="25" x="740.0" y="141.0">skirt_front</text>
  <path d="M 930 168 L 1062 168 L 1074 117 Q 1047.6000000000001 104.7 1062 60 L 1023 60 Q 996.0 103.97833345156471 969 60 L 930 60 Q 944.4 104.7 918 117 L 930 168 z" fill="rgb(255,217,194)" stroke="black"/>
  <text fill="rgb(9,33,173)" font-size="25" x="971.0" y="104.25">top_back</text>
  <path d="M 1146 165 L 1278 165 L 1290 117 Q 1263.6000000000001 104.7 1278 60 L 1239 60 L 1212 132 L 1185 60 L 1146 60 Q 1160.3999999999999 104.7 1134 117 L 1146 165 z" fill="rgb(255,217,194)" stroke="black"/>
  <text fill="rgb(9,33,173)" font-size="25" x="1187.0" y="107.0">top_front</text>
  <path d="M 1350 117 L 1461 117 Q 1487.3999999999999 104.7 1473 60 L 1350 60 L 1350 117 z" fill="rgb(255,217,194)" stroke="black"/>
  <text fill="rgb(9,33,173)" font-size="25" x="1383.5" y="91.5">lbsleeve</text>
  <path d="M 1533 117 L 1656 117 Q 1670.3999999999999 72.3 1644 60 L 1533 60 L 1533 117 z" fill="rgb(255,217,194)" stroke="black"/>
  <text fill="rgb(9,33,173)" font-size="25" x="1566.5" y="91.5">lfsleeve</text>
</svg>
