<?xml version="1.0" encoding="utf-8" ?>
<svg xmlns="http://www.w3.org/2000/svg" xmlns:ev="http://www.w3.org/2001/xml-events" xmlns:xlink="http://www.w3.org/1999/xlink" baseProfile="full" height="408px" version="1.1" width="1104px">
  <defs/>
  <path d="M 60 348 L 117 348 Q 162.0 105.00000000000001 153 60 L 90 60 Q 104.7 141.75 60 153 Q 79.5 162.75 60 348 z" fill="rgb(255,217,194)" stroke="black"/>
  <text fill="rgb(9,33,173)" font-size="25" x="71.0" y="196.8">Rback</text>
  <path d="M 249 348 L 306 348 Q 286.5 162.75 306 153 Q 265.95 140.25 276 60 L 213 60 Q 204.0 104.99999999999999 249 348 z" fill="rgb(255,217,194)" stroke="black"/>
  <text fill="rgb(9,33,173)" font-size="25" x="245.0" y="196.8">Rfront</text>
  <path d="M 381 168 L 444 168 L 507 168 L 522 132 Q 489.59999999999997 115.2 510 60 L 471 60 Q 444.0 68.70697889795521 417 60 L 378 60 Q 398.40000000000003 115.2 366 132 L 381 168 z" fill="rgb(255,217,194)" stroke="black"/>
  <text fill="rgb(9,33,173)" font-size="25" x="419.0" y="115.0">up_back</text>
  <path d="M 597 165 L 660 165 L 723 165 L 738 132 Q 705.6 115.2 726 60 L 687 60 L 660 144 L 633 60 L 594 60 Q 614.4 115.2 582 132 L 597 165 z" fill="rgb(255,217,194)" stroke="black"/>
  <text fill="rgb(9,33,173)" font-size="25" x="635.0" y="117.3">up_front</text>
  <path d="M 834 348 L 891 348 Q 871.5 162.75 891 153 Q 846.3 141.75 861 60 L 798 60 Q 789.0 104.99999999999999 834 348 z" fill="rgb(255,217,194)" stroke="black"/>
  <text fill="rgb(9,33,173)" font-size="25" x="830.0" y="196.8">Lback</text>
  <path d="M 951 348 L 1008 348 Q 1053.0 105.00000000000001 1044 60 L 981 60 Q 991.05 140.25 951 153 Q 970.5 162.75 951 348 z" fill="rgb(255,217,194)" stroke="black"/>
  <text fill="rgb(9,33,173)" font-size="25" x="962.0" y="196.8">Lfront</text>
</svg>
