<?xml version="1.0" encoding="utf-8" ?>
<svg xmlns="http://www.w3.org/2000/svg" xmlns:ev="http://www.w3.org/2001/xml-events" xmlns:xlink="http://www.w3.org/1999/xlink" baseProfile="full" height="300px" version="1.1" width="1332.0px">
  <defs/>
  <path d="M 60 240 L 150 240 L 150 60 L 90 60 Q 103.5 139.5 60 150 Q 69.0 154.5 60 240 z" fill="rgb(255,217,194)" stroke="black"/>
  <text fill="rgb(9,33,173)" font-size="25" x="77.0" y="153.0">Rback</text>
  <text fill="rgb(245,96,66)" font-size="25" x="84.33918139954491" y="60.043860496586824">0</text>
  <text fill="rgb(245,96,66)" font-size="25" x="147.35294117647058" y="60.588235294117645">1</text>
  <text fill="rgb(245,96,66)" font-size="25" x="147.35294117647058" y="249.41176470588235">2</text>
  <text fill="rgb(245,96,66)" font-size="25" x="52.885572673344384" y="249.53091569997633">3</text>
  <text fill="rgb(245,96,66)" font-size="25" x="50.0" y="155.0">4</text>
  <text fill="rgb(50,179,101)" font-size="20" x="100.16657415116319" y="249.99722453489576">0</text>
  <text fill="rgb(50,179,101)" font-size="20" x="150.0" y="155.0">1</text>
  <text fill="rgb(50,179,101)" font-size="20" x="115.98058067569092" y="60.0970966215454">2</text>
  <text fill="rgb(50,179,101)" font-size="20" x="67.42752122286237" y="105.71253537143728">3</text>
  <text fill="rgb(50,179,101)" font-size="20" x="51.588408748199946" y="203.65527634121435">4</text>
  <path d="M 210 240 L 300 240 Q 291.0 154.5 300 150 Q 261.0 138.0 270 60 L 210 60 L 210 240 z" fill="rgb(255,217,194)" stroke="black"/>
  <text fill="rgb(9,33,173)" font-size="25" x="233.0" y="153.0">Rfront</text>
  <text fill="rgb(245,96,66)" font-size="25" x="265.6608186004551" y="60.043860496586824">0</text>
  <text fill="rgb(245,96,66)" font-size="25" x="202.64705882352942" y="60.588235294117645">1</text>
  <text fill="rgb(245,96,66)" font-size="25" x="202.64705882352942" y="249.41176470588235">2</text>
  <text fill="rgb(245,96,66)" font-size="25" x="297.11442732665563" y="249.53091569997633">3</text>
  <text fill="rgb(245,96,66)" font-size="25" x="300.0" y="155.0">4</text>
  <text fill="rgb(50,179,101)" font-size="20" x="249.8334258488368" y="249.99722453489576">0</text>
  <text fill="rgb(50,179,101)" font-size="20" x="298.4115912518001" y="203.65527634121435">1</text>
  <text fill="rgb(50,179,101)" font-size="20" x="282.57247877713763" y="105.71253537143728">2</text>
  <text fill="rgb(50,179,101)" font-size="20" x="234.01941932430907" y="60.0970966215454">3</text>
  <text fill="rgb(50,179,101)" font-size="20" x="200.0" y="155.0">4</text>
  <path d="M 360 72 L 399 72 L 438 72 L 438 60 L 360 60 L 360 72 z" fill="rgb(255,217,194)" stroke="black"/>
  <text fill="rgb(9,33,173)" font-size="25" x="374.0" y="70.2">wb_back</text>
  <text fill="rgb(245,96,66)" font-size="25" x="437.91691090193615" y="64.09226260271949">0</text>
  <text fill="rgb(245,96,66)" font-size="25" x="350.08308909806385" y="64.09226260271949">1</text>
  <text fill="rgb(245,96,66)" font-size="25" x="350.03744494543184" y="77.61077600671608">2</text>
  <text fill="rgb(245,96,66)" font-size="25" x="394.0" y="82.0">3</text>
  <text fill="rgb(245,96,66)" font-size="25" x="437.96255505456816" y="77.61077600671608">4</text>
  <text fill="rgb(50,179,101)" font-size="20" x="369.6449256053262" y="78.19509523561202">0</text>
  <text fill="rgb(50,179,101)" font-size="20" x="418.3550743946738" y="78.19509523561202">1</text>
  <text fill="rgb(50,179,101)" font-size="20" x="437.99763481538326" y="70.84622662106513">2</text>
  <text fill="rgb(50,179,101)" font-size="20" x="394.0" y="60.0">3</text>
  <text fill="rgb(50,179,101)" font-size="20" x="350.00236518461674" y="70.84622662106513">4</text>
  <path d="M 504.0 72.0 L 543.0 72.0 L 582.0 72.0 L 582.0 60.0 L 504.0 60.0 L 504.0 72.0 z" fill="rgb(255,217,194)" stroke="black"/>
  <text fill="rgb(9,33,173)" font-size="25" x="518.0" y="70.2">wb_front</text>
  <text fill="rgb(245,96,66)" font-size="25" x="494.08308909806385" y="64.09226260271949">0</text>
  <text fill="rgb(245,96,66)" font-size="25" x="581.9169109019361" y="64.09226260271949">1</text>
  <text fill="rgb(245,96,66)" font-size="25" x="581.9625550545682" y="77.61077600671608">2</text>
  <text fill="rgb(245,96,66)" font-size="25" x="538.0" y="82.0">3</text>
  <text fill="rgb(245,96,66)" font-size="25" x="494.03744494543184" y="77.61077600671608">4</text>
  <text fill="rgb(50,179,101)" font-size="20" x="513.6449256053262" y="78.19509523561202">0</text>
  <text fill="rgb(50,179,101)" font-size="20" x="562.3550743946738" y="78.19509523561202">1</text>
  <text fill="rgb(50,179,101)" font-size="20" x="581.9976348153833" y="70.84622662106513">2</text>
  <text fill="rgb(50,179,101)" font-size="20" x="538.0" y="60.0">3</text>
  <text fill="rgb(50,179,101)" font-size="20" x="494.00236518461674" y="70.84622662106513">4</text>
  <path d="M 658.0 168.0 L 784.0 168.0 L 784.0 111.0 Q 760.9 99.3 775.0 60.0 L 745.0 60.0 Q 721.0 74.4 697.0 60.0 L 667.0 60.0 Q 681.1 99.29999999999998 658.0 111.0 L 658.0 168.0 z" fill="rgb(255,217,194)" stroke="black"/>
  <text fill="rgb(9,33,173)" font-size="25" x="696.0" y="102.75">top_back</text>
  <text fill="rgb(245,96,66)" font-size="25" x="742.5843454951696" y="60.71967777362537">0</text>
  <text fill="rgb(245,96,66)" font-size="25" x="774.0266844194681" y="62.03591285789153">1</text>
  <text fill="rgb(245,96,66)" font-size="25" x="783.9221378775424" y="116.8789531924183">2</text>
  <text fill="rgb(245,96,66)" font-size="25" x="782.3914005136653" y="176.67401722313744">3</text>
  <text fill="rgb(245,96,66)" font-size="25" x="649.6085994863347" y="176.67401722313744">4</text>
  <text fill="rgb(245,96,66)" font-size="25" x="648.0778621224576" y="116.8789531924183">5</text>
  <text fill="rgb(245,96,66)" font-size="25" x="657.9733155805319" y="62.03591285789153">6</text>
  <text fill="rgb(245,96,66)" font-size="25" x="689.4156545048304" y="60.71967777362537">7</text>
  <text fill="rgb(50,179,101)" font-size="20" x="716.0" y="178.0">0</text>
  <text fill="rgb(50,179,101)" font-size="20" x="783.2286403116069" y="147.1680706727996">1</text>
  <text fill="rgb(50,179,101)" font-size="20" x="779.357951181509" y="89.31665291732475">2</text>
  <text fill="rgb(50,179,101)" font-size="20" x="758.5017033506404" y="61.43095620030884">3</text>
  <text fill="rgb(50,179,101)" font-size="20" x="716.0" y="60.0">4</text>
  <text fill="rgb(50,179,101)" font-size="20" x="673.4982966493596" y="61.43095620030884">5</text>
  <text fill="rgb(50,179,101)" font-size="20" x="652.642048818491" y="89.31665291732475">6</text>
  <text fill="rgb(50,179,101)" font-size="20" x="648.7713596883931" y="147.1680706727996">7</text>
  <path d="M 844.0 165.0 L 970.0 165.0 L 970.0 108.0 Q 948.0999999999999 97.19999999999999 961.0 60.0 L 931.0 60.0 L 907.0 93.0 L 883.0 60.0 L 853.0 60.0 Q 865.9000000000001 97.19999999999999 844.0 108.0 L 844.0 165.0 z" fill="rgb(255,217,194)" stroke="black"/>
  <text fill="rgb(9,33,173)" font-size="25" x="882.0" y="100.66666666666667">top_front</text>
  <text fill="rgb(245,96,66)" font-size="25" x="902.0" y="93.0">0</text>
  <text fill="rgb(245,96,66)" font-size="25" x="875.3132083784928" y="60.78322981624573">1</text>
  <text fill="rgb(245,96,66)" font-size="25" x="843.8990889915316" y="62.139488000265885">2</text>
  <text fill="rgb(245,96,66)" font-size="25" x="834.0659300150008" y="113.80929190230144">3</text>
  <text fill="rgb(245,96,66)" font-size="25" x="835.5839034294744" y="173.65106617590573">4</text>
  <text fill="rgb(245,96,66)" font-size="25" x="968.4160965705256" y="173.65106617590573">5</text>
  <text fill="rgb(245,96,66)" font-size="25" x="969.9340699849992" y="113.80929190230144">6</text>
  <text fill="rgb(245,96,66)" font-size="25" x="960.1009110084684" y="62.139488000265885">7</text>
  <text fill="rgb(245,96,66)" font-size="25" x="928.6867916215072" y="60.78322981624573">8</text>
  <text fill="rgb(50,179,101)" font-size="20" x="902.0" y="175.0">0</text>
  <text fill="rgb(50,179,101)" font-size="20" x="969.2563573425633" y="144.12362767411975">1</text>
  <text fill="rgb(50,179,101)" font-size="20" x="965.368898914577" y="87.86253643591078">2</text>
  <text fill="rgb(50,179,101)" font-size="20" x="944.5964776024898" y="61.52647889674056">3</text>
  <text fill="rgb(50,179,101)" font-size="20" x="916.4659269572429" y="77.15037883930765">4</text>
  <text fill="rgb(50,179,101)" font-size="20" x="887.5340730427571" y="77.15037883930765">5</text>
  <text fill="rgb(50,179,101)" font-size="20" x="859.4035223975102" y="61.52647889674056">6</text>
  <text fill="rgb(50,179,101)" font-size="20" x="838.631101085423" y="87.86253643591078">7</text>
  <text fill="rgb(50,179,101)" font-size="20" x="834.7436426574367" y="144.12362767411975">8</text>
  <path d="M 1032.0 240.0 L 1122.0 240.0 Q 1113.0 154.5 1122.0 150.0 Q 1078.5 139.5 1092.0 60.0 L 1032.0 60.0 L 1032.0 240.0 z" fill="rgb(255,217,194)" stroke="black"/>
  <text fill="rgb(9,33,173)" font-size="25" x="1055.0" y="153.0">Lback</text>
  <text fill="rgb(245,96,66)" font-size="25" x="1087.660818600455" y="60.043860496586824">0</text>
  <text fill="rgb(245,96,66)" font-size="25" x="1024.6470588235295" y="60.588235294117645">1</text>
  <text fill="rgb(245,96,66)" font-size="25" x="1024.6470588235295" y="249.41176470588235">2</text>
  <text fill="rgb(245,96,66)" font-size="25" x="1119.1144273266557" y="249.53091569997633">3</text>
  <text fill="rgb(245,96,66)" font-size="25" x="1122.0" y="155.0">4</text>
  <text fill="rgb(50,179,101)" font-size="20" x="1071.833425848837" y="249.99722453489576">0</text>
  <text fill="rgb(50,179,101)" font-size="20" x="1120.4115912518" y="203.65527634121435">1</text>
  <text fill="rgb(50,179,101)" font-size="20" x="1104.5724787771376" y="105.71253537143728">2</text>
  <text fill="rgb(50,179,101)" font-size="20" x="1056.0194193243092" y="60.0970966215454">3</text>
  <text fill="rgb(50,179,101)" font-size="20" x="1022.0" y="155.0">4</text>
  <path d="M 1182.0 240.0 L 1272.0 240.0 L 1272.0 60.0 L 1212.0 60.0 Q 1221.0 138.0 1182.0 150.0 Q 1191.0 154.5 1182.0 240.0 z" fill="rgb(255,217,194)" stroke="black"/>
  <text fill="rgb(9,33,173)" font-size="25" x="1199.0" y="153.0">Lfront</text>
  <text fill="rgb(245,96,66)" font-size="25" x="1206.339181399545" y="60.043860496586824">0</text>
  <text fill="rgb(245,96,66)" font-size="25" x="1269.3529411764705" y="60.588235294117645">1</text>
  <text fill="rgb(245,96,66)" font-size="25" x="1269.3529411764705" y="249.41176470588235">2</text>
  <text fill="rgb(245,96,66)" font-size="25" x="1174.8855726733443" y="249.53091569997633">3</text>
  <text fill="rgb(245,96,66)" font-size="25" x="1172.0" y="155.0">4</text>
  <text fill="rgb(50,179,101)" font-size="20" x="1222.166574151163" y="249.99722453489576">0</text>
  <text fill="rgb(50,179,101)" font-size="20" x="1272.0" y="155.0">1</text>
  <text fill="rgb(50,179,101)" font-size="20" x="1237.9805806756908" y="60.0970966215454">2</text>
  <text fill="rgb(50,179,101)" font-size="20" x="1189.4275212228624" y="105.71253537143728">3</text>
  <text fill="rgb(50,179,101)" font-size="20" x="1173.5884087482" y="203.65527634121435">4</text>
</svg>
