<?xml version="1.0" encoding="utf-8" ?>
<svg xmlns="http://www.w3.org/2000/svg" xmlns:ev="http://www.w3.org/2001/xml-events" xmlns:xlink="http://www.w3.org/1999/xlink" baseProfile="full" height="237.0px" version="1.1" width="1604.5px">
  <defs/>
  <path d="M 60 171 L 117 171 Q 153.0 88.50000000000001 105 60 L 60 114 L 60 171 z" fill="rgb(255,217,194)" stroke="black"/>
  <text fill="rgb(9,33,173)" font-size="25" x="60.5" y="132.0">rbsleeve</text>
  <path d="M 200.5 117.0 L 245.5 171.0 Q 293.5 142.5 257.5 60.0 L 200.5 60.0 L 200.5 117.0 z" fill="rgb(255,217,194)" stroke="black"/>
  <text fill="rgb(9,33,173)" font-size="25" x="201.0" y="105.0">rfsleeve</text>
  <path d="M 341.0 177.0 L 536.0 177.0 L 536.0 87.0 L 509.0 60.0 L 467.0 60.0 Q 500.9 143.7 452.0 171.0 L 341.0 177.0 z" fill="rgb(255,217,194)" stroke="black"/>
  <text fill="rgb(9,33,173)" font-size="25" x="448.5" y="125.0">front_right</text>
  <path d="M 618.5 177.0 L 1008.5 177.0 L 897.5 171.0 Q 848.6 143.7 882.5 60.0 L 840.5 60.0 Q 813.5 109.76409167754343 786.5 60.0 L 744.5 60.0 Q 778.4 143.7 729.5 171.0 L 618.5 177.0 z" fill="rgb(255,217,194)" stroke="black"/>
  <text fill="rgb(9,33,173)" font-size="25" x="788.5" y="120.0">back</text>
  <path d="M 1068.5 177.0 L 1263.5 177.0 L 1152.5 171.0 Q 1103.6 143.7 1137.5 60.0 L 1095.5 60.0 L 1068.5 87.0 L 1068.5 177.0 z" fill="rgb(255,217,194)" stroke="black"/>
  <text fill="rgb(9,33,173)" font-size="25" x="1106.0" y="125.0">front_left</text>
  <path d="M 1323.5 117.0 L 1368.5 171.0 Q 1416.5 142.5 1380.5 60.0 L 1323.5 60.0 L 1323.5 117.0 z" fill="rgb(255,217,194)" stroke="black"/>
  <text fill="rgb(9,33,173)" font-size="25" x="1324.0" y="105.0">lbsleeve</text>
  <path d="M 1464.0 171.0 L 1521.0 171.0 Q 1557.0 88.50000000000001 1509.0 60.0 L 1464.0 114.0 L 1464.0 171.0 z" fill="rgb(255,217,194)" stroke="black"/>
  <text fill="rgb(9,33,173)" font-size="25" x="1464.5" y="132.0">lfsleeve</text>
</svg>
