<?xml version="1.0" encoding="utf-8" ?>
<svg xmlns="http://www.w3.org/2000/svg" xmlns:ev="http://www.w3.org/2001/xml-events" xmlns:xlink="http://www.w3.org/1999/xlink" baseProfile="full" height="264px" version="1.1" width="1576.0px">
  <defs/>
  <path d="M 60 204 L 84 204 Q 96.0 163.5 72 153 L 60 60 L 60 204 z" fill="rgb(255,217,194)" stroke="black"/>
  <text fill="rgb(9,33,173)" font-size="25" x="44.0" y="158.25">rbsleeve</text>
  <path d="M 184.0 204.0 L 196.0 111.0 Q 220.0 100.5 208.0 60.0 L 184.0 60.0 L 184.0 204.0 z" fill="rgb(255,217,194)" stroke="black"/>
  <text fill="rgb(9,33,173)" font-size="25" x="168.0" y="111.75">rfsleeve</text>
  <path d="M 308.0 201.0 L 380.0 201.0 Q 402.35 82.05000000000001 398.0 60.0 L 338.0 60.0 Q 352.7 141.75 308.0 153.0 Q 312.8 155.4 308.0 201.0 z" fill="rgb(255,217,194)" stroke="black"/>
  <text fill="rgb(9,33,173)" font-size="25" x="321.4" y="138.0">Rback</text>
  <path d="M 476.0 201.0 L 548.0 201.0 Q 543.2 155.4 548.0 153.0 Q 507.95 140.25 518.0 60.0 L 458.0 60.0 Q 453.65 82.05000000000001 476.0 201.0 z" fill="rgb(255,217,194)" stroke="black"/>
  <text fill="rgb(9,33,173)" font-size="25" x="484.6" y="138.0">Rfront</text>
  <path d="M 623.0 168.0 L 683.0 168.0 L 743.0 168.0 L 758.0 114.0 Q 732.8 102.6 746.0 60.0 L 713.0 60.0 Q 683.0 117.67275166966242 653.0 60.0 L 620.0 60.0 Q 633.2 102.6 608.0 114.0 L 623.0 168.0 z" fill="rgb(255,217,194)" stroke="black"/>
  <text fill="rgb(9,33,173)" font-size="25" x="658.0" y="111.0">up_back</text>
  <path d="M 833.0 165.0 L 893.0 165.0 L 953.0 165.0 L 968.0 114.0 Q 942.8 102.6 956.0 60.0 L 923.0 60.0 L 893.0 63.0 L 863.0 60.0 L 830.0 60.0 Q 843.2 102.6 818.0 114.0 L 833.0 165.0 z" fill="rgb(255,217,194)" stroke="black"/>
  <text fill="rgb(9,33,173)" font-size="25" x="868.0" y="105.6">up_front</text>
  <path d="M 1046.0 201.0 L 1118.0 201.0 Q 1113.2 155.4 1118.0 153.0 Q 1073.3 141.75 1088.0 60.0 L 1028.0 60.0 Q 1023.6500000000001 82.05000000000001 1046.0 201.0 z" fill="rgb(255,217,194)" stroke="black"/>
  <text fill="rgb(9,33,173)" font-size="25" x="1054.6" y="138.0">Lback</text>
  <path d="M 1178.0 201.0 L 1250.0 201.0 Q 1272.35 82.05000000000001 1268.0 60.0 L 1208.0 60.0 Q 1218.05 140.25 1178.0 153.0 Q 1182.8 155.4 1178.0 201.0 z" fill="rgb(255,217,194)" stroke="black"/>
  <text fill="rgb(9,33,173)" font-size="25" x="1191.4" y="138.0">Lfront</text>
  <path d="M 1328.0 204.0 L 1340.0 111.0 Q 1364.0 100.5 1352.0 60.0 L 1328.0 60.0 L 1328.0 204.0 z" fill="rgb(255,217,194)" stroke="black"/>
  <text fill="rgb(9,33,173)" font-size="25" x="1312.0" y="111.75">lbsleeve</text>
  <path d="M 1452.0 204.0 L 1476.0 204.0 Q 1488.0 163.5 1464.0 153.0 L 1452.0 60.0 L 1452.0 204.0 z" fill="rgb(255,217,194)" stroke="black"/>
  <text fill="rgb(9,33,173)" font-size="25" x="1436.0" y="158.25">lfsleeve</text>
</svg>
