<?xml version="1.0" encoding="utf-8" ?>
<svg xmlns="http://www.w3.org/2000/svg" xmlns:ev="http://www.w3.org/2001/xml-events" xmlns:xlink="http://www.w3.org/1999/xlink" baseProfile="full" height="240px" version="1.1" width="1140px">
  <defs/>
  <path d="M 60 180 L 144 180 Q 162.75 78.75 159 60 L 90 60 Q 104.7 141.75 60 153 Q 62.7 154.35 60 180 z" fill="rgb(255,217,194)" stroke="black"/>
  <text fill="rgb(9,33,173)" font-size="25" x="77.6" y="129.6">Rback</text>
  <path d="M 234 180 L 318 180 Q 315.3 154.35 318 153 Q 277.95 140.25 288 60 L 219 60 Q 215.25 78.75 234 180 z" fill="rgb(255,217,194)" stroke="black"/>
  <text fill="rgb(9,33,173)" font-size="25" x="250.39999999999998" y="129.6">Rfront</text>
  <path d="M 387 168 L 459 168 L 531 168 L 540 132 Q 507.59999999999997 115.2 528 60 L 504 60 Q 459.0 115.17710643452057 414 60 L 390 60 Q 410.40000000000003 115.2 378 132 L 387 168 z" fill="rgb(255,217,194)" stroke="black"/>
  <text fill="rgb(9,33,173)" font-size="25" x="434.0" y="115.0">up_back</text>
  <path d="M 609 165 L 681 165 L 753 165 L 762 132 Q 729.6 115.2 750 60 L 726 60 L 681 129 L 636 60 L 612 60 Q 632.4 115.2 600 132 L 609 165 z" fill="rgb(255,217,194)" stroke="black"/>
  <text fill="rgb(9,33,173)" font-size="25" x="656.0" y="115.8">up_front</text>
  <path d="M 837 180 L 921 180 Q 918.3 154.35 921 153 Q 876.3 141.75 891 60 L 822 60 Q 818.25 78.75 837 180 z" fill="rgb(255,217,194)" stroke="black"/>
  <text fill="rgb(9,33,173)" font-size="25" x="853.4" y="129.6">Lback</text>
  <path d="M 981 180 L 1065 180 Q 1083.75 78.75 1080 60 L 1011 60 Q 1021.05 140.25 981 153 Q 983.7 154.35 981 180 z" fill="rgb(255,217,194)" stroke="black"/>
  <text fill="rgb(9,33,173)" font-size="25" x="998.6" y="129.6">Lfront</text>
</svg>
