<?xml version="1.0" encoding="utf-8" ?>
<svg xmlns="http://www.w3.org/2000/svg" xmlns:ev="http://www.w3.org/2001/xml-events" xmlns:xlink="http://www.w3.org/1999/xlink" baseProfile="full" height="279px" version="1.1" width="1828.0px">
  <defs/>
  <path d="M 60 219 L 156 219 Q 182.4 153.29999999999998 144 132 L 60 60 L 60 219 z" fill="rgb(255,217,194)" stroke="black"/>
  <text fill="rgb(9,33,173)" font-size="25" x="80.0" y="160.5">rbsleeve</text>
  <path d="M 220.0 219.0 L 304.0 147.0 Q 342.40000000000003 125.7 316.0 60.0 L 220.0 60.0 L 220.0 219.0 z" fill="rgb(255,217,194)" stroke="black"/>
  <text fill="rgb(9,33,173)" font-size="25" x="240.0" y="124.5">rfsleeve</text>
  <path d="M 380.0 210.0 L 476.0 210.0 Q 496.25 83.25 491.0 60.0 L 410.0 60.0 Q 424.7 141.75 380.0 153.0 Q 385.7 155.85 380.0 210.0 z" fill="rgb(255,217,194)" stroke="black"/>
  <text fill="rgb(9,33,173)" font-size="25" x="402.4" y="141.6">Rback</text>
  <path d="M 566.0 210.0 L 662.0 210.0 Q 656.3 155.85 662.0 153.0 Q 621.95 140.25 632.0 60.0 L 551.0 60.0 Q 545.75 83.25 566.0 210.0 z" fill="rgb(255,217,194)" stroke="black"/>
  <text fill="rgb(9,33,173)" font-size="25" x="589.6" y="141.6">Rfront</text>
  <path d="M 722.0 168.0 L 803.0 168.0 L 884.0 168.0 L 884.0 147.0 Q 845.6 125.7 872.0 60.0 L 830.0 60.0 Q 803.0 89.02703246603595 776.0 60.0 L 734.0 60.0 Q 760.4 125.7 722.0 147.0 L 722.0 168.0 z" fill="rgb(255,217,194)" stroke="black"/>
  <text fill="rgb(9,33,173)" font-size="25" x="778.0" y="118.33333333333333">up_back</text>
  <path d="M 944.0 165.0 L 1025.0 165.0 L 1106.0 165.0 L 1106.0 147.0 Q 1067.6000000000001 125.7 1094.0 60.0 L 1052.0 60.0 L 1025.0 138.0 L 998.0 60.0 L 956.0 60.0 Q 982.4 125.7 944.0 147.0 L 944.0 165.0 z" fill="rgb(255,217,194)" stroke="black"/>
  <text fill="rgb(9,33,173)" font-size="25" x="1000.0" y="119.7">up_front</text>
  <path d="M 1181.0 210.0 L 1277.0 210.0 Q 1271.3 155.85 1277.0 153.0 Q 1232.3 141.75 1247.0 60.0 L 1166.0 60.0 Q 1160.75 83.25 1181.0 210.0 z" fill="rgb(255,217,194)" stroke="black"/>
  <text fill="rgb(9,33,173)" font-size="25" x="1204.6" y="141.6">Lback</text>
  <path d="M 1337.0 210.0 L 1433.0 210.0 Q 1453.25 83.25 1448.0 60.0 L 1367.0 60.0 Q 1377.05 140.25 1337.0 153.0 Q 1342.7 155.85 1337.0 210.0 z" fill="rgb(255,217,194)" stroke="black"/>
  <text fill="rgb(9,33,173)" font-size="25" x="1359.4" y="141.6">Lfront</text>
  <path d="M 1508.0 219.0 L 1592.0 147.0 Q 1630.3999999999999 125.7 1604.0 60.0 L 1508.0 60.0 L 1508.0 219.0 z" fill="rgb(255,217,194)" stroke="black"/>
  <text fill="rgb(9,33,173)" font-size="25" x="1528.0" y="124.5">lbsleeve</text>
  <path d="M 1668.0 219.0 L 1764.0 219.0 Q 1790.3999999999999 153.29999999999998 1752.0 132.0 L 1668.0 60.0 L 1668.0 219.0 z" fill="rgb(255,217,194)" stroke="black"/>
  <text fill="rgb(9,33,173)" font-size="25" x="1688.0" y="160.5">lfsleeve</text>
</svg>
