<?xml version="1.0" encoding="utf-8" ?>
<svg xmlns="http://www.w3.org/2000/svg" xmlns:ev="http://www.w3.org/2001/xml-events" xmlns:xlink="http://www.w3.org/1999/xlink" baseProfile="full" height="255px" version="1.1" width="1572.0px">
  <defs/>
  <path d="M 60 195 L 210 195 L 201 60 L 90 60 Q 99.9 132.75 60 141 Q 65.4 143.7 60 195 z" fill="rgb(255,217,194)" stroke="black"/>
  <text fill="rgb(9,33,173)" font-size="25" x="99.2" y="133.2">Rback</text>
  <path d="M 270 195 L 420 195 Q 414.6 143.7 420 141 Q 384.15 131.25 390 60 L 279 60 L 270 195 z" fill="rgb(255,217,194)" stroke="black"/>
  <text fill="rgb(9,33,173)" font-size="25" x="330.8" y="133.2">Rfront</text>
  <path d="M 480 69 L 519 69 L 558 69 L 558 60 L 480 60 L 480 69 z" fill="rgb(255,217,194)" stroke="black"/>
  <text fill="rgb(9,33,173)" font-size="25" x="494.0" y="68.4">wb_back</text>
  <path d="M 624.0 69.0 L 663.0 69.0 L 702.0 69.0 L 702.0 60.0 L 624.0 60.0 L 624.0 69.0 z" fill="rgb(255,217,194)" stroke="black"/>
  <text fill="rgb(9,33,173)" font-size="25" x="638.0" y="68.4">wb_front</text>
  <path d="M 778.0 147.0 L 904.0 147.0 L 904.0 126.0 Q 874.9 109.8 895.0 60.0 L 856.0 60.0 Q 841.0 122.78455859511102 826.0 60.0 L 787.0 60.0 Q 807.1 109.79999999999998 778.0 126.0 L 778.0 147.0 z" fill="rgb(255,217,194)" stroke="black"/>
  <text fill="rgb(9,33,173)" font-size="25" x="816.0" y="101.25">top_back</text>
  <path d="M 964.0 147.0 L 1090.0 147.0 L 1090.0 126.0 Q 1060.8999999999999 109.8 1081.0 60.0 L 1042.0 60.0 L 1027.0 126.0 L 1012.0 60.0 L 973.0 60.0 Q 993.1 109.79999999999998 964.0 126.0 L 964.0 147.0 z" fill="rgb(255,217,194)" stroke="black"/>
  <text fill="rgb(9,33,173)" font-size="25" x="1002.0" y="104.33333333333333">top_front</text>
  <path d="M 1152.0 195.0 L 1302.0 195.0 Q 1296.6 143.7 1302.0 141.0 Q 1262.1 132.75 1272.0 60.0 L 1161.0 60.0 L 1152.0 195.0 z" fill="rgb(255,217,194)" stroke="black"/>
  <text fill="rgb(9,33,173)" font-size="25" x="1212.8" y="133.2">Lback</text>
  <path d="M 1362.0 195.0 L 1512.0 195.0 L 1503.0 60.0 L 1392.0 60.0 Q 1397.85 131.25 1362.0 141.0 Q 1367.4 143.7 1362.0 195.0 z" fill="rgb(255,217,194)" stroke="black"/>
  <text fill="rgb(9,33,173)" font-size="25" x="1401.2" y="133.2">Lfront</text>
</svg>
