<?xml version="1.0" encoding="utf-8" ?>
<svg xmlns="http://www.w3.org/2000/svg" xmlns:ev="http://www.w3.org/2001/xml-events" xmlns:xlink="http://www.w3.org/1999/xlink" baseProfile="full" height="384.0px" version="1.1" width="1822.0px">
  <defs/>
  <path d="M 60 225 L 159 225 Q 180.6 167.7 147 150 L 60 60 L 60 225 z" fill="rgb(255,217,194)" stroke="black"/>
  <text fill="rgb(9,33,173)" font-size="25" x="81.5" y="168.0">rbsleeve</text>
  <path d="M 221.5 225.0 L 308.5 135.0 Q 342.1 117.3 320.5 60.0 L 221.5 60.0 L 221.5 225.0 z" fill="rgb(255,217,194)" stroke="black"/>
  <text fill="rgb(9,33,173)" font-size="25" x="243.0" y="123.0">rfsleeve</text>
  <path d="M 383.0 324.0 L 458.0 324.0 Q 499.25 101.25 491.0 60.0 L 413.0 60.0 Q 427.7 141.75 383.0 153.0 Q 400.1 161.55 383.0 324.0 z" fill="rgb(255,217,194)" stroke="black"/>
  <text fill="rgb(9,33,173)" font-size="25" x="400.6" y="187.2">Rback</text>
  <path d="M 584.0 324.0 L 659.0 324.0 Q 641.9 161.55 659.0 153.0 Q 618.95 140.25 629.0 60.0 L 551.0 60.0 Q 542.75 101.25 584.0 324.0 z" fill="rgb(255,217,194)" stroke="black"/>
  <text fill="rgb(9,33,173)" font-size="25" x="591.4" y="187.2">Rfront</text>
  <path d="M 719.0 168.0 L 800.0 168.0 L 881.0 168.0 L 881.0 135.0 Q 847.4 117.3 869.0 60.0 L 821.0 60.0 Q 800.0 109.88164943126858 779.0 60.0 L 731.0 60.0 Q 752.6 117.3 719.0 135.0 L 719.0 168.0 z" fill="rgb(255,217,194)" stroke="black"/>
  <text fill="rgb(9,33,173)" font-size="25" x="775.0" y="115.66666666666667">up_back</text>
  <path d="M 941.0 165.0 L 1022.0 165.0 L 1103.0 165.0 L 1103.0 135.0 Q 1069.4 117.3 1091.0 60.0 L 1043.0 60.0 L 1022.0 81.0 L 1001.0 60.0 L 953.0 60.0 Q 974.6 117.3 941.0 135.0 L 941.0 165.0 z" fill="rgb(255,217,194)" stroke="black"/>
  <text fill="rgb(9,33,173)" font-size="25" x="997.0" y="111.6">up_front</text>
  <path d="M 1196.0 324.0 L 1271.0 324.0 Q 1253.9 161.55 1271.0 153.0 Q 1226.3 141.75 1241.0 60.0 L 1163.0 60.0 Q 1154.75 101.25 1196.0 324.0 z" fill="rgb(255,217,194)" stroke="black"/>
  <text fill="rgb(9,33,173)" font-size="25" x="1203.4" y="187.2">Lback</text>
  <path d="M 1331.0 324.0 L 1406.0 324.0 Q 1447.25 101.25 1439.0 60.0 L 1361.0 60.0 Q 1371.05 140.25 1331.0 153.0 Q 1348.1 161.55 1331.0 324.0 z" fill="rgb(255,217,194)" stroke="black"/>
  <text fill="rgb(9,33,173)" font-size="25" x="1348.6" y="187.2">Lfront</text>
  <path d="M 1499.0 225.0 L 1586.0 135.0 Q 1619.6 117.3 1598.0 60.0 L 1499.0 60.0 L 1499.0 225.0 z" fill="rgb(255,217,194)" stroke="black"/>
  <text fill="rgb(9,33,173)" font-size="25" x="1520.5" y="123.0">lbsleeve</text>
  <path d="M 1660.5 225.0 L 1759.5 225.0 Q 1781.1 167.7 1747.5 150.0 L 1660.5 60.0 L 1660.5 225.0 z" fill="rgb(255,217,194)" stroke="black"/>
  <text fill="rgb(9,33,173)" font-size="25" x="1682.0" y="168.0">lfsleeve</text>
</svg>
