<?xml version="1.0" encoding="utf-8" ?>
<svg xmlns="http://www.w3.org/2000/svg" xmlns:ev="http://www.w3.org/2001/xml-events" xmlns:xlink="http://www.w3.org/1999/xlink" baseProfile="full" height="432.0px" version="1.1" width="1570.0px">
  <defs/>
  <path d="M 60 156 L 81 156 Q 111.0 84.00000000000001 69 60 L 60 84 L 60 156 z" fill="rgb(255,217,194)" stroke="black"/>
  <text fill="rgb(9,33,173)" font-size="25" x="42.5" y="117.0">rbsleeve</text>
  <path d="M 182.5 132.0 L 191.5 156.0 Q 233.5 132.0 203.5 60.0 L 182.5 60.0 L 182.5 132.0 z" fill="rgb(255,217,194)" stroke="black"/>
  <text fill="rgb(9,33,173)" font-size="25" x="165.0" y="105.0">rfsleeve</text>
  <path d="M 305.0 372.0 L 365.0 372.0 Q 408.65000000000003 108.45000000000002 398.0 60.0 L 335.0 60.0 Q 349.7 141.75 305.0 153.0 Q 326.9 163.95 305.0 372.0 z" fill="rgb(255,217,194)" stroke="black"/>
  <text fill="rgb(9,33,173)" font-size="25" x="316.6" y="206.4">Rback</text>
  <path d="M 491.0 372.0 L 551.0 372.0 Q 529.1 163.95000000000002 551.0 153.0 Q 510.95 140.25 521.0 60.0 L 458.0 60.0 Q 447.34999999999997 108.45 491.0 372.0 z" fill="rgb(255,217,194)" stroke="black"/>
  <text fill="rgb(9,33,173)" font-size="25" x="489.4" y="206.4">Rfront</text>
  <path d="M 620.0 168.0 L 683.0 168.0 L 746.0 168.0 L 755.0 156.0 Q 713.9 130.8 746.0 60.0 L 701.0 60.0 Q 683.0 82.52184242963574 665.0 60.0 L 620.0 60.0 Q 652.1 130.79999999999998 611.0 156.0 L 620.0 168.0 z" fill="rgb(255,217,194)" stroke="black"/>
  <text fill="rgb(9,33,173)" font-size="25" x="658.0" y="120.33333333333333">up_back</text>
  <path d="M 824.0 165.0 L 887.0 165.0 L 950.0 165.0 L 959.0 156.0 Q 917.9 130.8 950.0 60.0 L 905.0 60.0 L 887.0 105.0 L 869.0 60.0 L 824.0 60.0 Q 856.1 130.79999999999998 815.0 156.0 L 824.0 165.0 z" fill="rgb(255,217,194)" stroke="black"/>
  <text fill="rgb(9,33,173)" font-size="25" x="862.0" y="118.2">up_front</text>
  <path d="M 1052.0 372.0 L 1112.0 372.0 Q 1090.1 163.95000000000002 1112.0 153.0 Q 1067.3 141.75 1082.0 60.0 L 1019.0 60.0 Q 1008.35 108.45 1052.0 372.0 z" fill="rgb(255,217,194)" stroke="black"/>
  <text fill="rgb(9,33,173)" font-size="25" x="1050.4" y="206.4">Lback</text>
  <path d="M 1172.0 372.0 L 1232.0 372.0 Q 1275.6499999999999 108.45000000000002 1265.0 60.0 L 1202.0 60.0 Q 1212.05 140.25 1172.0 153.0 Q 1193.9 163.95 1172.0 372.0 z" fill="rgb(255,217,194)" stroke="black"/>
  <text fill="rgb(9,33,173)" font-size="25" x="1183.6" y="206.4">Lfront</text>
  <path d="M 1325.0 132.0 L 1334.0 156.0 Q 1376.0 132.0 1346.0 60.0 L 1325.0 60.0 L 1325.0 132.0 z" fill="rgb(255,217,194)" stroke="black"/>
  <text fill="rgb(9,33,173)" font-size="25" x="1307.5" y="105.0">lbsleeve</text>
  <path d="M 1447.5 156.0 L 1468.5 156.0 Q 1498.5 84.00000000000001 1456.5 60.0 L 1447.5 84.0 L 1447.5 156.0 z" fill="rgb(255,217,194)" stroke="black"/>
  <text fill="rgb(9,33,173)" font-size="25" x="1430.0" y="117.0">lfsleeve</text>
</svg>
