<?xml version="1.0" encoding="utf-8" ?>
<svg xmlns="http://www.w3.org/2000/svg" xmlns:ev="http://www.w3.org/2001/xml-events" xmlns:xlink="http://www.w3.org/1999/xlink" baseProfile="full" height="393.0px" version="1.1" width="1681.0px">
  <defs/>
  <path d="M 60 108 L 99 108 Q 111.9 70.80000000000001 90 60 L 60 60 L 60 108 z" fill="rgb(255,217,194)" stroke="black"/>
  <text fill="rgb(9,33,173)" font-size="25" x="52.25" y="87.0">rbsleeve</text>
  <path d="M 192.25 108.0 L 222.25 108.0 Q 244.14999999999998 97.19999999999999 231.25 60.0 L 192.25 60.0 L 192.25 108.0 z" fill="rgb(255,217,194)" stroke="black"/>
  <text fill="rgb(9,33,173)" font-size="25" x="184.5" y="87.0">rfsleeve</text>
  <path d="M 324.5 333.0 L 390.5 333.0 Q 437.29999999999995 102.90000000000002 429.5 60.0 L 354.5 60.0 Q 369.2 141.75 324.5 153.0 Q 342.5 162.0 324.5 333.0 z" fill="rgb(255,217,194)" stroke="black"/>
  <text fill="rgb(9,33,173)" font-size="25" x="339.7" y="190.8">Rback</text>
  <path d="M 528.5 333.0 L 594.5 333.0 Q 576.5 162.0 594.5 153.0 Q 554.45 140.25 564.5 60.0 L 489.5 60.0 Q 481.70000000000005 102.89999999999999 528.5 333.0 z" fill="rgb(255,217,194)" stroke="black"/>
  <text fill="rgb(9,33,173)" font-size="25" x="529.3" y="190.8">Rfront</text>
  <path d="M 654.5 168.0 L 732.5 168.0 L 810.5 168.0 L 789.5 111.0 Q 766.4 99.3 780.5 60.0 L 744.5 60.0 Q 732.5 67.22509885230102 720.5 60.0 L 684.5 60.0 Q 698.6 99.29999999999998 675.5 111.0 L 654.5 168.0 z" fill="rgb(255,217,194)" stroke="black"/>
  <text fill="rgb(9,33,173)" font-size="25" x="707.5" y="110.33333333333333">up_back</text>
  <path d="M 870.5 165.0 L 948.5 165.0 L 1026.5 165.0 L 1005.5 111.0 Q 982.4 99.3 996.5 60.0 L 960.5 60.0 L 948.5 111.0 L 936.5 60.0 L 900.5 60.0 Q 914.6 99.29999999999998 891.5 111.0 L 870.5 165.0 z" fill="rgb(255,217,194)" stroke="black"/>
  <text fill="rgb(9,33,173)" font-size="25" x="923.5" y="109.8">up_front</text>
  <path d="M 1125.5 333.0 L 1191.5 333.0 Q 1173.5 162.0 1191.5 153.0 Q 1146.8 141.75 1161.5 60.0 L 1086.5 60.0 Q 1078.6999999999998 102.89999999999999 1125.5 333.0 z" fill="rgb(255,217,194)" stroke="black"/>
  <text fill="rgb(9,33,173)" font-size="25" x="1126.3" y="190.8">Lback</text>
  <path d="M 1251.5 333.0 L 1317.5 333.0 Q 1364.3000000000002 102.90000000000002 1356.5 60.0 L 1281.5 60.0 Q 1291.55 140.25 1251.5 153.0 Q 1269.5 162.0 1251.5 333.0 z" fill="rgb(255,217,194)" stroke="black"/>
  <text fill="rgb(9,33,173)" font-size="25" x="1266.7" y="190.8">Lfront</text>
  <path d="M 1416.5 108.0 L 1446.5 108.0 Q 1468.4 97.19999999999999 1455.5 60.0 L 1416.5 60.0 L 1416.5 108.0 z" fill="rgb(255,217,194)" stroke="black"/>
  <text fill="rgb(9,33,173)" font-size="25" x="1408.75" y="87.0">lbsleeve</text>
  <path d="M 1548.75 108.0 L 1587.75 108.0 Q 1600.65 70.80000000000001 1578.75 60.0 L 1548.75 60.0 L 1548.75 108.0 z" fill="rgb(255,217,194)" stroke="black"/>
  <text fill="rgb(9,33,173)" font-size="25" x="1541.0" y="87.0">lfsleeve</text>
</svg>
