<?xml version="1.0" encoding="utf-8" ?>
<svg xmlns="http://www.w3.org/2000/svg" xmlns:ev="http://www.w3.org/2001/xml-events" xmlns:xlink="http://www.w3.org/1999/xlink" baseProfile="full" height="261px" version="1.1" width="1212px">
  <defs/>
  <path d="M 60 201 Q 207.0 204.8789036350822 354 201 L 279 102 L 258 60 L 156 60 L 135 102 L 60 201 z" fill="rgb(255,217,194)" stroke="black"/>
  <text fill="rgb(9,33,173)" font-size="25" x="182.0" y="124.0">skirt_back</text>
  <path d="M 414 201 Q 561.0 189.19163354438848 708 201 L 633 102 L 612 60 L 510 60 L 489 102 L 414 201 z" fill="rgb(255,217,194)" stroke="black"/>
  <text fill="rgb(9,33,173)" font-size="25" x="536.0" y="124.0">skirt_front</text>
  <path d="M 798 168 L 900 168 L 930 132 Q 897.6 115.2 918 60 L 873 60 Q 849.0 68.6953491299509 825 60 L 780 60 Q 800.4 115.2 768 132 L 798 168 z" fill="rgb(255,217,194)" stroke="black"/>
  <text fill="rgb(9,33,173)" font-size="25" x="824.0" y="108.0">top_back</text>
  <path d="M 1020 165 L 1122 165 L 1152 132 Q 1119.6000000000001 115.2 1140 60 L 1095 60 L 1071 108 L 1047 60 L 1002 60 Q 1022.4 115.2 990 132 L 1020 165 z" fill="rgb(255,217,194)" stroke="black"/>
  <text fill="rgb(9,33,173)" font-size="25" x="1046.0" y="107.66666666666667">top_front</text>
</svg>
