<?xml version="1.0" encoding="utf-8" ?>
<svg xmlns="http://www.w3.org/2000/svg" xmlns:ev="http://www.w3.org/2001/xml-events" xmlns:xlink="http://www.w3.org/1999/xlink" baseProfile="full" height="306px" version="1.1" width="1104px">
  <defs/>
  <path d="M 60 246 L 114 246 Q 159.0 90.0 156 60 L 90 60 Q 104.7 141.75 60 153 Q 69.3 157.65 60 246 z" fill="rgb(255,217,194)" stroke="black"/>
  <text fill="rgb(9,33,173)" font-size="25" x="71.0" y="156.0">Rback</text>
  <path d="M 258 246 L 312 246 Q 302.7 157.65 312 153 Q 271.95 140.25 282 60 L 216 60 Q 213.0 90.0 258 246 z" fill="rgb(255,217,194)" stroke="black"/>
  <text fill="rgb(9,33,173)" font-size="25" x="251.0" y="156.0">Rfront</text>
  <path d="M 381 168 L 447 168 L 513 168 L 522 156 Q 480.0 132.0 510 60 L 468 60 Q 447.0 83.63130604033043 426 60 L 384 60 Q 414.0 132.0 372 156 L 381 168 z" fill="rgb(255,217,194)" stroke="black"/>
  <text fill="rgb(9,33,173)" font-size="25" x="422.0" y="120.33333333333333">up_back</text>
  <path d="M 591 165 L 657 165 L 723 165 L 732 156 Q 690.0 132.0 720 60 L 678 60 L 657 102 L 636 60 L 594 60 Q 624.0 132.0 582 156 L 591 165 z" fill="rgb(255,217,194)" stroke="black"/>
  <text fill="rgb(9,33,173)" font-size="25" x="632.0" y="117.9">up_front</text>
  <path d="M 834 246 L 888 246 Q 878.7 157.65 888 153 Q 843.3 141.75 858 60 L 792 60 Q 789.0 90.0 834 246 z" fill="rgb(255,217,194)" stroke="black"/>
  <text fill="rgb(9,33,173)" font-size="25" x="827.0" y="156.0">Lback</text>
  <path d="M 948 246 L 1002 246 Q 1047.0 90.0 1044 60 L 978 60 Q 988.05 140.25 948 153 Q 957.3 157.65 948 246 z" fill="rgb(255,217,194)" stroke="black"/>
  <text fill="rgb(9,33,173)" font-size="25" x="959.0" y="156.0">Lfront</text>
</svg>
