<?xml version="1.0" encoding="utf-8" ?>
<svg xmlns="http://www.w3.org/2000/svg" xmlns:ev="http://www.w3.org/2001/xml-events" xmlns:xlink="http://www.w3.org/1999/xlink" baseProfile="full" height="507px" version="1.1" width="589.0px">
  <defs/>
  <path d="M 69 447 L 123 447 L 123 126 L 102 60 L 69 60 Q 96.30000000000001 122.39999999999999 60 144 L 69 447 z" fill="rgb(255,217,194)" stroke="black"/>
  <text fill="rgb(9,33,173)" font-size="25" x="66.0" y="217.0">front_right</text>
  <path d="M 245.0 447.0 L 353.0 447.0 L 362.0 144.0 Q 325.7 122.39999999999999 353.0 60.0 L 320.0 60.0 Q 299.0 147.23526457444387 278.0 60.0 L 245.0 60.0 Q 272.3 122.39999999999999 236.0 144.0 L 245.0 447.0 z" fill="rgb(255,217,194)" stroke="black"/>
  <text fill="rgb(9,33,173)" font-size="25" x="274.0" y="180.75">back</text>
  <path d="M 422.0 447.0 L 476.0 447.0 L 485.0 144.0 Q 448.7 122.39999999999999 476.0 60.0 L 443.0 60.0 L 422.0 126.0 L 422.0 447.0 z" fill="rgb(255,217,194)" stroke="black"/>
  <text fill="rgb(9,33,173)" font-size="25" x="429.0" y="217.0">front_left</text>
</svg>
