<?xml version="1.0" encoding="utf-8" ?>
<svg xmlns="http://www.w3.org/2000/svg" xmlns:ev="http://www.w3.org/2001/xml-events" xmlns:xlink="http://www.w3.org/1999/xlink" baseProfile="full" height="324px" version="1.1" width="858.0px">
  <defs/>
  <path d="M 60 264 Q 132.0 324.28419808908257 204 264 L 201 102 L 195 60 L 69 60 L 63 102 L 60 264 z" fill="rgb(255,217,194)" stroke="black"/>
  <text fill="rgb(9,33,173)" font-size="25" x="107.0" y="145.0">skirt_back</text>
  <path d="M 267.0 264.0 Q 339.0 241.6820691147713 411.0 264.0 L 408.0 102.0 L 402.0 60.0 L 276.0 60.0 L 270.0 102.0 L 267.0 264.0 z" fill="rgb(255,217,194)" stroke="black"/>
  <text fill="rgb(9,33,173)" font-size="25" x="314.0" y="145.0">skirt_front</text>
  <path d="M 484.0 168.0 L 610.0 168.0 L 607.0 144.0 Q 570.6999999999999 122.39999999999999 598.0 60.0 L 568.0 60.0 Q 547.0 86.14783410908858 526.0 60.0 L 496.0 60.0 Q 523.3 122.39999999999999 487.0 144.0 L 484.0 168.0 z" fill="rgb(255,217,194)" stroke="black"/>
  <text fill="rgb(9,33,173)" font-size="25" x="522.0" y="111.0">top_back</text>
  <path d="M 670.0 165.0 L 796.0 165.0 L 793.0 144.0 Q 756.6999999999999 122.39999999999999 784.0 60.0 L 754.0 60.0 L 733.0 141.0 L 712.0 60.0 L 682.0 60.0 Q 709.3000000000001 122.39999999999999 673.0 144.0 L 670.0 165.0 z" fill="rgb(255,217,194)" stroke="black"/>
  <text fill="rgb(9,33,173)" font-size="25" x="708.0" y="114.0">top_front</text>
</svg>
