<?xml version="1.0" encoding="utf-8" ?>
<svg xmlns="http://www.w3.org/2000/svg" xmlns:ev="http://www.w3.org/2001/xml-events" xmlns:xlink="http://www.w3.org/1999/xlink" baseProfile="full" height="378.0px" version="1.1" width="751.5px">
  <defs/>
  <path d="M 60 315 L 177 315 L 177 81 L 165 60 L 123 60 Q 156.6 138.3 111 165 L 60 315 z" fill="rgb(255,217,194)" stroke="black"/>
  <text fill="rgb(9,33,173)" font-size="25" x="110.5" y="169.0">front_right</text>
  <path d="M 280.5 318.0 L 514.5 318.0 L 463.5 165.0 Q 417.9 138.3 451.5 60.0 L 409.5 60.0 Q 397.5 132.87662024556775 385.5 60.0 L 343.5 60.0 Q 377.1 138.3 331.5 165.0 L 280.5 318.0 z" fill="rgb(255,217,194)" stroke="black"/>
  <text fill="rgb(9,33,173)" font-size="25" x="372.5" y="153.75">back</text>
  <path d="M 574.5 315.0 L 691.5 315.0 L 640.5 165.0 Q 594.9 138.3 628.5 60.0 L 586.5 60.0 L 574.5 81.0 L 574.5 315.0 z" fill="rgb(255,217,194)" stroke="black"/>
  <text fill="rgb(9,33,173)" font-size="25" x="591.0" y="169.0">front_left</text>
</svg>
