<?xml version="1.0" encoding="utf-8" ?>
<svg xmlns="http://www.w3.org/2000/svg" xmlns:ev="http://www.w3.org/2001/xml-events" xmlns:xlink="http://www.w3.org/1999/xlink" baseProfile="full" height="468.0px" version="1.1" width="1238.0px">
  <defs/>
  <path d="M 60 150 L 84 150 Q 104.39999999999999 94.8 72 78 L 60 60 L 60 150 z" fill="rgb(255,217,194)" stroke="black"/>
  <text fill="rgb(9,33,173)" font-size="25" x="44.0" y="112.5">rbsleeve</text>
  <path d="M 184.0 150.0 L 196.0 132.0 Q 228.4 115.2 208.0 60.0 L 184.0 60.0 L 184.0 150.0 z" fill="rgb(255,217,194)" stroke="black"/>
  <text fill="rgb(9,33,173)" font-size="25" x="168.0" y="103.5">rfsleeve</text>
  <path d="M 308.0 408.0 L 422.0 408.0 L 422.0 123.0 L 383.0 60.0 L 365.0 60.0 Q 385.40000000000003 115.2 353.0 132.0 L 308.0 408.0 z" fill="rgb(255,217,194)" stroke="black"/>
  <text fill="rgb(9,33,173)" font-size="25" x="350.5" y="201.5">front_right</text>
  <path d="M 520.5 408.0 L 748.5 408.0 L 703.5 132.0 Q 671.1 115.2 691.5 60.0 L 673.5 60.0 Q 634.5 257.2252437675413 595.5 60.0 L 577.5 60.0 Q 597.9 115.2 565.5 132.0 L 520.5 408.0 z" fill="rgb(255,217,194)" stroke="black"/>
  <text fill="rgb(9,33,173)" font-size="25" x="609.5" y="168.0">back</text>
  <path d="M 808.5 408.0 L 922.5 408.0 L 877.5 132.0 Q 845.1 115.2 865.5 60.0 L 847.5 60.0 L 808.5 123.0 L 808.5 408.0 z" fill="rgb(255,217,194)" stroke="black"/>
  <text fill="rgb(9,33,173)" font-size="25" x="830.0" y="201.5">front_left</text>
  <path d="M 990.0 150.0 L 1002.0 132.0 Q 1034.4 115.2 1014.0 60.0 L 990.0 60.0 L 990.0 150.0 z" fill="rgb(255,217,194)" stroke="black"/>
  <text fill="rgb(9,33,173)" font-size="25" x="974.0" y="103.5">lbsleeve</text>
  <path d="M 1114.0 150.0 L 1138.0 150.0 Q 1158.3999999999999 94.8 1126.0 78.0 L 1114.0 60.0 L 1114.0 150.0 z" fill="rgb(255,217,194)" stroke="black"/>
  <text fill="rgb(9,33,173)" font-size="25" x="1098.0" y="112.5">lfsleeve</text>
</svg>
