<?xml version="1.0" encoding="utf-8" ?>
<svg xmlns="http://www.w3.org/2000/svg" xmlns:ev="http://www.w3.org/2001/xml-events" xmlns:xlink="http://www.w3.org/1999/xlink" baseProfile="full" height="297.0px" version="1.1" width="1642.0px">
  <defs/>
  <path d="M 60 114 L 81 114 Q 94.19999999999999 71.4 69 60 L 60 66 L 60 114 z" fill="rgb(255,217,194)" stroke="black"/>
  <text fill="rgb(9,33,173)" font-size="25" x="42.5" y="91.5">rbsleeve</text>
  <path d="M 182.5 108.0 L 191.5 114.0 Q 216.7 102.6 203.5 60.0 L 182.5 60.0 L 182.5 108.0 z" fill="rgb(255,217,194)" stroke="black"/>
  <text fill="rgb(9,33,173)" font-size="25" x="165.0" y="88.5">rfsleeve</text>
  <path d="M 305.0 237.0 L 356.0 237.0 Q 410.75 89.25000000000001 410.0 60.0 L 335.0 60.0 Q 349.7 141.75 305.0 153.0 Q 313.4 157.2 305.0 237.0 z" fill="rgb(255,217,194)" stroke="black"/>
  <text fill="rgb(9,33,173)" font-size="25" x="317.2" y="152.4">Rback</text>
  <path d="M 524.0 237.0 L 575.0 237.0 Q 566.6 157.2 575.0 153.0 Q 534.95 140.25 545.0 60.0 L 470.0 60.0 Q 469.25 89.25 524.0 237.0 z" fill="rgb(255,217,194)" stroke="black"/>
  <text fill="rgb(9,33,173)" font-size="25" x="512.8" y="152.4">Rfront</text>
  <path d="M 635.0 168.0 L 713.0 168.0 L 791.0 168.0 L 779.0 117.0 Q 752.6 104.7 767.0 60.0 L 740.0 60.0 Q 713.0 72.99339655049377 686.0 60.0 L 659.0 60.0 Q 673.4 104.7 647.0 117.0 L 635.0 168.0 z" fill="rgb(255,217,194)" stroke="black"/>
  <text fill="rgb(9,33,173)" font-size="25" x="688.0" y="111.66666666666667">up_back</text>
  <path d="M 851.0 165.0 L 929.0 165.0 L 1007.0 165.0 L 995.0 114.0 Q 969.8 102.6 983.0 60.0 L 956.0 60.0 L 929.0 81.0 L 902.0 60.0 L 875.0 60.0 Q 888.2 102.6 863.0 114.0 L 851.0 165.0 z" fill="rgb(255,217,194)" stroke="black"/>
  <text fill="rgb(9,33,173)" font-size="25" x="904.0" y="107.4">up_front</text>
  <path d="M 1121.0 237.0 L 1172.0 237.0 Q 1163.6 157.2 1172.0 153.0 Q 1127.3 141.75 1142.0 60.0 L 1067.0 60.0 Q 1066.25 89.25 1121.0 237.0 z" fill="rgb(255,217,194)" stroke="black"/>
  <text fill="rgb(9,33,173)" font-size="25" x="1109.8" y="152.4">Lback</text>
  <path d="M 1232.0 237.0 L 1283.0 237.0 Q 1337.75 89.25000000000001 1337.0 60.0 L 1262.0 60.0 Q 1272.05 140.25 1232.0 153.0 Q 1240.4 157.2 1232.0 237.0 z" fill="rgb(255,217,194)" stroke="black"/>
  <text fill="rgb(9,33,173)" font-size="25" x="1244.2" y="152.4">Lfront</text>
  <path d="M 1397.0 108.0 L 1406.0 114.0 Q 1431.1999999999998 102.6 1418.0 60.0 L 1397.0 60.0 L 1397.0 108.0 z" fill="rgb(255,217,194)" stroke="black"/>
  <text fill="rgb(9,33,173)" font-size="25" x="1379.5" y="88.5">lbsleeve</text>
  <path d="M 1519.5 114.0 L 1540.5 114.0 Q 1553.6999999999998 71.4 1528.5 60.0 L 1519.5 66.0 L 1519.5 114.0 z" fill="rgb(255,217,194)" stroke="black"/>
  <text fill="rgb(9,33,173)" font-size="25" x="1502.0" y="91.5">lfsleeve</text>
</svg>
