<?xml version="1.0" encoding="utf-8" ?>
<svg xmlns="http://www.w3.org/2000/svg" xmlns:ev="http://www.w3.org/2001/xml-events" xmlns:xlink="http://www.w3.org/1999/xlink" baseProfile="full" height="270.0px" version="1.1" width="1823.5px">
  <defs/>
  <path d="M 60 180 L 114 180 Q 152.4 93.30000000000001 102 63 L 60 60 L 60 180 z" fill="rgb(255,217,194)" stroke="black"/>
  <text fill="rgb(9,33,173)" font-size="25" x="59.0" y="123.75">rbsleeve</text>
  <path d="M 199.0 180.0 L 241.0 177.0 Q 291.4 146.70000000000002 253.0 60.0 L 199.0 60.0 L 199.0 180.0 z" fill="rgb(255,217,194)" stroke="black"/>
  <text fill="rgb(9,33,173)" font-size="25" x="198.0" y="122.25">rfsleeve</text>
  <path d="M 338.0 210.0 L 524.0 210.0 L 524.0 105.0 L 491.0 60.0 L 461.0 60.0 Q 498.20000000000005 144.60000000000002 449.0 174.0 L 338.0 210.0 z" fill="rgb(255,217,194)" stroke="black"/>
  <text fill="rgb(9,33,173)" font-size="25" x="439.5" y="139.5">front_right</text>
  <path d="M 609.5 189.0 L 633.5 189.0 Q 702.8 188.1 678.5 96.0 L 645.5 105.0 L 609.5 60.0 L 609.5 189.0 z" fill="rgb(255,217,194)" stroke="black"/>
  <text fill="rgb(9,33,173)" font-size="25" x="610.3" y="130.8">Rhood</text>
  <path d="M 738.5 210.0 L 1110.5 210.0 L 999.5 177.0 Q 949.1 146.70000000000002 987.5 60.0 L 957.5 60.0 L 924.5 69.0 L 891.5 60.0 L 861.5 60.0 Q 899.9 146.7 849.5 177.0 L 738.5 210.0 z" fill="rgb(255,217,194)" stroke="black"/>
  <text fill="rgb(9,33,173)" font-size="25" x="899.5" y="123.33333333333333">back</text>
  <path d="M 1170.5 189.0 L 1206.5 144.0 L 1239.5 153.0 Q 1263.8 60.900000000000006 1194.5 60.0 L 1170.5 60.0 L 1170.5 189.0 z" fill="rgb(255,217,194)" stroke="black"/>
  <text fill="rgb(9,33,173)" font-size="25" x="1171.3" y="124.2">Lhood</text>
  <path d="M 1299.5 210.0 L 1485.5 210.0 L 1374.5 174.0 Q 1325.3000000000002 144.60000000000002 1362.5 60.0 L 1332.5 60.0 L 1299.5 105.0 L 1299.5 210.0 z" fill="rgb(255,217,194)" stroke="black"/>
  <text fill="rgb(9,33,173)" font-size="25" x="1334.0" y="139.5">front_left</text>
  <path d="M 1545.5 180.0 L 1587.5 177.0 Q 1637.8999999999999 146.70000000000002 1599.5 60.0 L 1545.5 60.0 L 1545.5 180.0 z" fill="rgb(255,217,194)" stroke="black"/>
  <text fill="rgb(9,33,173)" font-size="25" x="1544.5" y="122.25">lbsleeve</text>
  <path d="M 1684.5 180.0 L 1738.5 180.0 Q 1776.8999999999999 93.30000000000001 1726.5 63.0 L 1684.5 60.0 L 1684.5 180.0 z" fill="rgb(255,217,194)" stroke="black"/>
  <text fill="rgb(9,33,173)" font-size="25" x="1683.5" y="123.75">lfsleeve</text>
</svg>
