<?xml version="1.0" encoding="utf-8" ?>
<svg xmlns="http://www.w3.org/2000/svg" xmlns:ev="http://www.w3.org/2001/xml-events" xmlns:xlink="http://www.w3.org/1999/xlink" baseProfile="full" height="399px" version="1.1" width="1932px">
  <defs/>
  <path d="M 60 138 L 201 138 Q 216.6 91.2 189 78 L 60 60 L 60 138 z" fill="rgb(255,217,194)" stroke="black"/>
  <text fill="rgb(9,33,173)" font-size="25" x="102.5" y="106.5">rbsleeve</text>
  <path d="M 261 138 L 390 120 Q 417.6 106.8 402 60 L 261 60 L 261 138 z" fill="rgb(255,217,194)" stroke="black"/>
  <text fill="rgb(9,33,173)" font-size="25" x="303.5" y="97.5">rfsleeve</text>
  <path d="M 462 339 L 537 339 Q 573.9000000000001 103.19999999999999 564 60 L 492 60 Q 506.7 141.75 462 153 Q 480.6 162.3 462 339 z" fill="rgb(255,217,194)" stroke="black"/>
  <text fill="rgb(9,33,173)" font-size="25" x="478.4" y="193.2">Rback</text>
  <path d="M 651 339 L 726 339 Q 707.4 162.3 726 153 Q 685.95 140.25 696 60 L 624 60 Q 614.0999999999999 103.19999999999999 651 339 z" fill="rgb(255,217,194)" stroke="black"/>
  <text fill="rgb(9,33,173)" font-size="25" x="659.6" y="193.2">Rfront</text>
  <path d="M 786 168 L 861 168 L 936 168 L 924 120 Q 897.3 105.6 915 60 L 882 60 Q 861.0 113.99516372884096 840 60 L 807 60 Q 824.7 105.6 798 120 L 786 168 z" fill="rgb(255,217,194)" stroke="black"/>
  <text fill="rgb(9,33,173)" font-size="25" x="836.0" y="112.33333333333333">up_back</text>
  <path d="M 996 165 L 1071 165 L 1146 165 L 1134 120 Q 1107.3 105.6 1125 60 L 1092 60 L 1071 66 L 1050 60 L 1017 60 Q 1034.7 105.6 1008 120 L 996 165 z" fill="rgb(255,217,194)" stroke="black"/>
  <text fill="rgb(9,33,173)" font-size="25" x="1046.0" y="107.1">up_front</text>
  <path d="M 1233 339 L 1308 339 Q 1289.4 162.3 1308 153 Q 1263.3 141.75 1278 60 L 1206 60 Q 1196.1 103.19999999999999 1233 339 z" fill="rgb(255,217,194)" stroke="black"/>
  <text fill="rgb(9,33,173)" font-size="25" x="1241.6" y="193.2">Lback</text>
  <path d="M 1368 339 L 1443 339 Q 1479.9 103.19999999999999 1470 60 L 1398 60 Q 1408.05 140.25 1368 153 Q 1386.6 162.3 1368 339 z" fill="rgb(255,217,194)" stroke="black"/>
  <text fill="rgb(9,33,173)" font-size="25" x="1384.4" y="193.2">Lfront</text>
  <path d="M 1530 138 L 1659 120 Q 1686.6 106.8 1671 60 L 1530 60 L 1530 138 z" fill="rgb(255,217,194)" stroke="black"/>
  <text fill="rgb(9,33,173)" font-size="25" x="1572.5" y="97.5">lbsleeve</text>
  <path d="M 1731 138 L 1872 138 Q 1887.6 91.2 1860 78 L 1731 60 L 1731 138 z" fill="rgb(255,217,194)" stroke="black"/>
  <text fill="rgb(9,33,173)" font-size="25" x="1773.5" y="106.5">lfsleeve</text>
</svg>
