<?xml version="1.0" encoding="utf-8" ?>
<svg xmlns="http://www.w3.org/2000/svg" xmlns:ev="http://www.w3.org/2001/xml-events" xmlns:xlink="http://www.w3.org/1999/xlink" baseProfile="full" height="486.0px" version="1.1" width="1238.0px">
  <defs/>
  <path d="M 60 177 L 93 177 Q 131.4 90.30000000000001 81 60 L 60 117 L 60 177 z" fill="rgb(255,217,194)" stroke="black"/>
  <text fill="rgb(9,33,173)" font-size="25" x="48.5" y="135.75">rbsleeve</text>
  <path d="M 188.5 120.0 L 209.5 177.0 Q 259.9 146.70000000000002 221.5 60.0 L 188.5 60.0 L 188.5 120.0 z" fill="rgb(255,217,194)" stroke="black"/>
  <text fill="rgb(9,33,173)" font-size="25" x="177.0" y="107.25">rfsleeve</text>
  <path d="M 317.0 426.0 L 425.0 426.0 L 425.0 138.0 L 383.0 60.0 L 359.0 60.0 Q 397.40000000000003 146.7 347.0 177.0 L 317.0 426.0 z" fill="rgb(255,217,194)" stroke="black"/>
  <text fill="rgb(9,33,173)" font-size="25" x="351.0" y="217.5">front_right</text>
  <path d="M 521.0 426.0 L 737.0 426.0 L 707.0 177.0 Q 656.6 146.70000000000002 695.0 60.0 L 671.0 60.0 Q 629.0 262.8501725197773 587.0 60.0 L 563.0 60.0 Q 601.4 146.7 551.0 177.0 L 521.0 426.0 z" fill="rgb(255,217,194)" stroke="black"/>
  <text fill="rgb(9,33,173)" font-size="25" x="604.0" y="183.75">back</text>
  <path d="M 797.0 426.0 L 905.0 426.0 L 875.0 177.0 Q 824.6 146.70000000000002 863.0 60.0 L 839.0 60.0 L 797.0 138.0 L 797.0 426.0 z" fill="rgb(255,217,194)" stroke="black"/>
  <text fill="rgb(9,33,173)" font-size="25" x="821.0" y="217.5">front_left</text>
  <path d="M 981.0 120.0 L 1002.0 177.0 Q 1052.4 146.70000000000002 1014.0 60.0 L 981.0 60.0 L 981.0 120.0 z" fill="rgb(255,217,194)" stroke="black"/>
  <text fill="rgb(9,33,173)" font-size="25" x="969.5" y="107.25">lbsleeve</text>
  <path d="M 1109.5 177.0 L 1142.5 177.0 Q 1180.8999999999999 90.30000000000001 1130.5 60.0 L 1109.5 117.0 L 1109.5 177.0 z" fill="rgb(255,217,194)" stroke="black"/>
  <text fill="rgb(9,33,173)" font-size="25" x="1098.0" y="135.75">lfsleeve</text>
</svg>
