<?xml version="1.0" encoding="utf-8" ?>
<svg xmlns="http://www.w3.org/2000/svg" xmlns:ev="http://www.w3.org/2001/xml-events" xmlns:xlink="http://www.w3.org/1999/xlink" baseProfile="full" height="507.0px" version="1.1" width="1348.0px">
  <defs/>
  <path d="M 60 132 L 132 132 Q 142.8 93.60000000000001 120 84 L 60 60 L 60 132 z" fill="rgb(255,217,194)" stroke="black"/>
  <text fill="rgb(9,33,173)" font-size="25" x="68.0" y="105.0">rbsleeve</text>
  <path d="M 208.0 132.0 L 268.0 108.0 Q 290.8 98.39999999999999 280.0 60.0 L 208.0 60.0 L 208.0 132.0 z" fill="rgb(255,217,194)" stroke="black"/>
  <text fill="rgb(9,33,173)" font-size="25" x="216.0" y="93.0">rfsleeve</text>
  <path d="M 356.0 447.0 L 644.0 447.0 L 572.0 111.0 Q 548.0 100.5 560.0 60.0 L 527.0 60.0 Q 500.0 138.26799017624342 473.0 60.0 L 440.0 60.0 Q 452.0 100.49999999999999 428.0 111.0 L 356.0 447.0 z" fill="rgb(255,217,194)" stroke="black"/>
  <text fill="rgb(9,33,173)" font-size="25" x="475.0" y="172.5">back</text>
  <path d="M 704.0 447.0 L 992.0 447.0 L 920.0 111.0 Q 896.0 100.5 908.0 60.0 L 875.0 60.0 L 848.0 81.0 L 821.0 60.0 L 788.0 60.0 Q 800.0 100.49999999999999 776.0 111.0 L 704.0 447.0 z" fill="rgb(255,217,194)" stroke="black"/>
  <text fill="rgb(9,33,173)" font-size="25" x="823.0" y="162.66666666666666">front</text>
  <path d="M 1052.0 132.0 L 1112.0 108.0 Q 1134.8 98.39999999999999 1124.0 60.0 L 1052.0 60.0 L 1052.0 132.0 z" fill="rgb(255,217,194)" stroke="black"/>
  <text fill="rgb(9,33,173)" font-size="25" x="1060.0" y="93.0">lbsleeve</text>
  <path d="M 1200.0 132.0 L 1272.0 132.0 Q 1282.8 93.60000000000001 1260.0 84.0 L 1200.0 60.0 L 1200.0 132.0 z" fill="rgb(255,217,194)" stroke="black"/>
  <text fill="rgb(9,33,173)" font-size="25" x="1208.0" y="105.0">lfsleeve</text>
</svg>
