<?xml version="1.0" encoding="utf-8" ?>
<svg xmlns="http://www.w3.org/2000/svg" xmlns:ev="http://www.w3.org/2001/xml-events" xmlns:xlink="http://www.w3.org/1999/xlink" baseProfile="full" height="240px" version="1.1" width="1498.0px">
  <defs/>
  <path d="M 60 180 L 372 180 L 372 60 L 60 60 L 60 180 z" fill="rgb(255,217,194)" stroke="black"/>
  <text fill="rgb(9,33,173)" font-size="25" x="191.0" y="123.0">skirt_back</text>
  <path d="M 432 69 L 522 69 L 522 60 L 432 60 L 432 69 z" fill="rgb(255,217,194)" stroke="black"/>
  <text fill="rgb(9,33,173)" font-size="25" x="452.0" y="67.5">wb_back</text>
  <path d="M 582 69 L 672 69 L 672 60 L 582 60 L 582 69 z" fill="rgb(255,217,194)" stroke="black"/>
  <text fill="rgb(9,33,173)" font-size="25" x="602.0" y="67.5">wb_front</text>
  <path d="M 742.0 180.0 L 1054.0 180.0 L 1054.0 60.0 L 742.0 60.0 L 742.0 180.0 z" fill="rgb(255,217,194)" stroke="black"/>
  <text fill="rgb(9,33,173)" font-size="25" x="873.0" y="123.0">skirt_front</text>
  <path d="M 1114.0 180.0 L 1246.0 180.0 L 1246.0 114.0 Q 1221.7 101.39999999999999 1237.0 60.0 L 1207.0 60.0 Q 1180.0 92.46966601215942 1153.0 60.0 L 1123.0 60.0 Q 1138.3 101.39999999999999 1114.0 114.0 L 1114.0 180.0 z" fill="rgb(255,217,194)" stroke="black"/>
  <text fill="rgb(9,33,173)" font-size="25" x="1155.0" y="106.5">top_back</text>
  <path d="M 1306.0 180.0 L 1438.0 180.0 L 1438.0 111.0 Q 1414.8999999999999 99.3 1429.0 60.0 L 1399.0 60.0 L 1372.0 81.0 L 1345.0 60.0 L 1315.0 60.0 Q 1329.1000000000001 99.29999999999998 1306.0 111.0 L 1306.0 180.0 z" fill="rgb(255,217,194)" stroke="black"/>
  <text fill="rgb(9,33,173)" font-size="25" x="1347.0" y="103.33333333333333">top_front</text>
</svg>
