<?xml version="1.0" encoding="utf-8" ?>
<svg xmlns="http://www.w3.org/2000/svg" xmlns:ev="http://www.w3.org/2001/xml-events" xmlns:xlink="http://www.w3.org/1999/xlink" baseProfile="full" height="282.0px" version="1.1" width="1684.2px">
  <defs/>
  <path d="M 60 198 L 138 198 Q 164.4 132.29999999999998 126 111 L 60 60 L 60 198 z" fill="rgb(255,217,194)" stroke="black"/>
  <text fill="rgb(9,33,173)" font-size="25" x="71.0" y="144.75">rbsleeve</text>
  <path d="M 211.0 198.0 L 277.0 147.0 Q 315.40000000000003 125.7 289.0 60.0 L 211.0 60.0 L 211.0 198.0 z" fill="rgb(255,217,194)" stroke="black"/>
  <text fill="rgb(9,33,173)" font-size="25" x="222.0" y="119.25">rfsleeve</text>
  <path d="M 362.0 222.0 L 410.0 222.0 Q 458.90000000000003 86.70000000000002 458.0 60.0 L 392.0 60.0 Q 406.7 141.75 362.0 153.0 Q 368.9 156.45 362.0 222.0 z" fill="rgb(255,217,194)" stroke="black"/>
  <text fill="rgb(9,33,173)" font-size="25" x="371.8" y="146.4">Rback</text>
  <path d="M 566.0 222.0 L 614.0 222.0 Q 607.1 156.45 614.0 153.0 Q 573.95 140.25 584.0 60.0 L 518.0 60.0 Q 517.1 86.7 566.0 222.0 z" fill="rgb(255,217,194)" stroke="black"/>
  <text fill="rgb(9,33,173)" font-size="25" x="554.2" y="146.4">Rfront</text>
  <path d="M 674.2 168.0 L 743.2 168.0 L 812.2 168.0 L 809.2 147.0 Q 770.8000000000001 125.7 797.2 60.0 L 764.2 60.0 Q 743.2 119.96331854864256 722.2 60.0 L 689.2 60.0 Q 715.6 125.7 677.2 147.0 L 674.2 168.0 z" fill="rgb(255,217,194)" stroke="black"/>
  <text fill="rgb(9,33,173)" font-size="25" x="718.1999999999999" y="118.33333333333333">up_back</text>
  <path d="M 872.2 165.0 L 941.2 165.0 L 1010.2 165.0 L 1007.2 147.0 Q 968.8000000000001 125.7 995.2 60.0 L 962.2 60.0 L 941.2 141.0 L 920.2 60.0 L 887.2 60.0 Q 913.6 125.7 875.2 147.0 L 872.2 165.0 z" fill="rgb(255,217,194)" stroke="black"/>
  <text fill="rgb(9,33,173)" font-size="25" x="916.2" y="120.0">up_front</text>
  <path d="M 1118.2 222.0 L 1166.2 222.0 Q 1159.3 156.45 1166.2 153.0 Q 1121.5 141.75 1136.2 60.0 L 1070.2 60.0 Q 1069.3000000000002 86.7 1118.2 222.0 z" fill="rgb(255,217,194)" stroke="black"/>
  <text fill="rgb(9,33,173)" font-size="25" x="1106.4" y="146.4">Lback</text>
  <path d="M 1226.2 222.0 L 1274.2 222.0 Q 1323.1 86.70000000000002 1322.2 60.0 L 1256.2 60.0 Q 1266.25 140.25 1226.2 153.0 Q 1233.1000000000001 156.45 1226.2 222.0 z" fill="rgb(255,217,194)" stroke="black"/>
  <text fill="rgb(9,33,173)" font-size="25" x="1236.0" y="146.4">Lfront</text>
  <path d="M 1382.2 198.0 L 1448.2 147.0 Q 1486.6 125.7 1460.2 60.0 L 1382.2 60.0 L 1382.2 198.0 z" fill="rgb(255,217,194)" stroke="black"/>
  <text fill="rgb(9,33,173)" font-size="25" x="1393.2" y="119.25">lbsleeve</text>
  <path d="M 1533.2 198.0 L 1611.2 198.0 Q 1637.6 132.29999999999998 1599.2 111.0 L 1533.2 60.0 L 1533.2 198.0 z" fill="rgb(255,217,194)" stroke="black"/>
  <text fill="rgb(9,33,173)" font-size="25" x="1544.2" y="144.75">lfsleeve</text>
</svg>
