<?xml version="1.0" encoding="utf-8" ?>
<svg xmlns="http://www.w3.org/2000/svg" xmlns:ev="http://www.w3.org/2001/xml-events" xmlns:xlink="http://www.w3.org/1999/xlink" baseProfile="full" height="246px" version="1.1" width="1056px">
  <defs/>
  <path d="M 60 186 L 153 186 Q 159.3 78.9 153 60 L 90 60 Q 104.7 141.75 60 153 Q 63.3 154.65 60 186 z" fill="rgb(255,217,194)" stroke="black"/>
  <text fill="rgb(9,33,173)" font-size="25" x="78.2" y="132.0">Rback</text>
  <path d="M 213 186 L 306 186 Q 302.7 154.65 306 153 Q 265.95 140.25 276 60 L 213 60 Q 206.7 78.9 213 186 z" fill="rgb(255,217,194)" stroke="black"/>
  <text fill="rgb(9,33,173)" font-size="25" x="237.8" y="132.0">Rfront</text>
  <path d="M 369 168 L 432 168 L 495 168 L 498 132 Q 466.5 114.0 489 60 L 447 60 Q 432.0 72.84397173068365 417 60 L 375 60 Q 397.5 114.0 366 132 L 369 168 z" fill="rgb(255,217,194)" stroke="black"/>
  <text fill="rgb(9,33,173)" font-size="25" x="407.0" y="115.0">up_back</text>
  <path d="M 561 165 L 624 165 L 687 165 L 690 132 Q 658.5 114.0 681 60 L 639 60 L 624 120 L 609 60 L 567 60 Q 589.5 114.0 558 132 L 561 165 z" fill="rgb(255,217,194)" stroke="black"/>
  <text fill="rgb(9,33,173)" font-size="25" x="599.0" y="114.9">up_front</text>
  <path d="M 750 186 L 843 186 Q 839.7 154.65 843 153 Q 798.3 141.75 813 60 L 750 60 Q 743.7 78.9 750 186 z" fill="rgb(255,217,194)" stroke="black"/>
  <text fill="rgb(9,33,173)" font-size="25" x="774.8" y="132.0">Lback</text>
  <path d="M 903 186 L 996 186 Q 1002.3 78.9 996 60 L 933 60 Q 943.05 140.25 903 153 Q 906.3 154.65 903 186 z" fill="rgb(255,217,194)" stroke="black"/>
  <text fill="rgb(9,33,173)" font-size="25" x="921.2" y="132.0">Lfront</text>
</svg>
