<?xml version="1.0" encoding="utf-8" ?>
<svg xmlns="http://www.w3.org/2000/svg" xmlns:ev="http://www.w3.org/2001/xml-events" xmlns:xlink="http://www.w3.org/1999/xlink" baseProfile="full" height="342.0px" version="1.1" width="1651.0px">
  <defs/>
  <path d="M 60 171 L 144 171 Q 164.1 121.20000000000002 135 105 L 60 60 L 60 171 z" fill="rgb(255,217,194)" stroke="black"/>
  <text fill="rgb(9,33,173)" font-size="25" x="74.75" y="129.75">rbsleeve</text>
  <path d="M 214.75 171.0 L 289.75 126.0 Q 318.84999999999997 109.8 298.75 60.0 L 214.75 60.0 L 214.75 171.0 z" fill="rgb(255,217,194)" stroke="black"/>
  <text fill="rgb(9,33,173)" font-size="25" x="229.5" y="107.25">rfsleeve</text>
  <path d="M 369.5 282.0 L 453.5 282.0 Q 469.70000000000005 93.60000000000001 459.5 60.0 L 399.5 60.0 Q 414.2 141.75 369.5 153.0 Q 382.4 159.45 369.5 282.0 z" fill="rgb(255,217,194)" stroke="black"/>
  <text fill="rgb(9,33,173)" font-size="25" x="385.3" y="170.4">Rback</text>
  <path d="M 525.5 282.0 L 609.5 282.0 Q 596.6 159.45 609.5 153.0 Q 569.45 140.25 579.5 60.0 L 519.5 60.0 Q 509.29999999999995 93.6 525.5 282.0 z" fill="rgb(255,217,194)" stroke="black"/>
  <text fill="rgb(9,33,173)" font-size="25" x="543.7" y="170.4">Rfront</text>
  <path d="M 675.5 168.0 L 732.5 168.0 L 789.5 168.0 L 795.5 126.0 Q 766.4 109.8 786.5 60.0 L 756.5 60.0 Q 732.5 108.8486157296841 708.5 60.0 L 678.5 60.0 Q 698.6 109.79999999999998 669.5 126.0 L 675.5 168.0 z" fill="rgb(255,217,194)" stroke="black"/>
  <text fill="rgb(9,33,173)" font-size="25" x="707.5" y="113.66666666666667">up_back</text>
  <path d="M 861.5 165.0 L 918.5 165.0 L 975.5 165.0 L 981.5 123.0 Q 953.5999999999999 107.69999999999999 972.5 60.0 L 942.5 60.0 L 918.5 78.0 L 894.5 60.0 L 864.5 60.0 Q 883.4000000000001 107.69999999999999 855.5 123.0 L 861.5 165.0 z" fill="rgb(255,217,194)" stroke="black"/>
  <text fill="rgb(9,33,173)" font-size="25" x="893.5" y="108.9">up_front</text>
  <path d="M 1047.5 282.0 L 1131.5 282.0 Q 1118.6 159.45 1131.5 153.0 Q 1086.8 141.75 1101.5 60.0 L 1041.5 60.0 Q 1031.3000000000002 93.6 1047.5 282.0 z" fill="rgb(255,217,194)" stroke="black"/>
  <text fill="rgb(9,33,173)" font-size="25" x="1065.7" y="170.4">Lback</text>
  <path d="M 1191.5 282.0 L 1275.5 282.0 Q 1291.6999999999998 93.60000000000001 1281.5 60.0 L 1221.5 60.0 Q 1231.55 140.25 1191.5 153.0 Q 1204.4 159.45 1191.5 282.0 z" fill="rgb(255,217,194)" stroke="black"/>
  <text fill="rgb(9,33,173)" font-size="25" x="1207.3" y="170.4">Lfront</text>
  <path d="M 1341.5 171.0 L 1416.5 126.0 Q 1445.6000000000001 109.8 1425.5 60.0 L 1341.5 60.0 L 1341.5 171.0 z" fill="rgb(255,217,194)" stroke="black"/>
  <text fill="rgb(9,33,173)" font-size="25" x="1356.25" y="107.25">lbsleeve</text>
  <path d="M 1496.25 171.0 L 1580.25 171.0 Q 1600.3500000000001 121.20000000000002 1571.25 105.0 L 1496.25 60.0 L 1496.25 171.0 z" fill="rgb(255,217,194)" stroke="black"/>
  <text fill="rgb(9,33,173)" font-size="25" x="1511.0" y="129.75">lfsleeve</text>
</svg>
