<?xml version="1.0" encoding="utf-8" ?>
<svg xmlns="http://www.w3.org/2000/svg" xmlns:ev="http://www.w3.org/2001/xml-events" xmlns:xlink="http://www.w3.org/1999/xlink" baseProfile="full" height="234.0px" version="1.1" width="1476.0px">
  <defs/>
  <path d="M 60 144 L 366 144 L 366 60 L 60 60 L 60 144 z" fill="rgb(255,217,194)" stroke="black"/>
  <text fill="rgb(9,33,173)" font-size="25" x="188.0" y="105.0">skirt_back</text>
  <path d="M 426 72 L 516 72 L 516 60 L 426 60 L 426 72 z" fill="rgb(255,217,194)" stroke="black"/>
  <text fill="rgb(9,33,173)" font-size="25" x="446.0" y="69.0">wb_back</text>
  <path d="M 576 72 L 666 72 L 666 60 L 576 60 L 576 72 z" fill="rgb(255,217,194)" stroke="black"/>
  <text fill="rgb(9,33,173)" font-size="25" x="596.0" y="69.0">wb_front</text>
  <path d="M 736.0 144.0 L 1042.0 144.0 L 1042.0 60.0 L 736.0 60.0 L 736.0 144.0 z" fill="rgb(255,217,194)" stroke="black"/>
  <text fill="rgb(9,33,173)" font-size="25" x="864.0" y="105.0">skirt_front</text>
  <path d="M 1102.0 174.0 L 1228.0 174.0 L 1228.0 117.0 Q 1202.5 103.5 1219.0 60.0 L 1180.0 60.0 Q 1165.0 84.80116733093756 1150.0 60.0 L 1111.0 60.0 Q 1127.5 103.5 1102.0 117.0 L 1102.0 174.0 z" fill="rgb(255,217,194)" stroke="black"/>
  <text fill="rgb(9,33,173)" font-size="25" x="1140.0" y="105.75">top_back</text>
  <path d="M 1288.0 174.0 L 1414.0 174.0 L 1414.0 114.0 Q 1389.7 101.39999999999999 1405.0 60.0 L 1366.0 60.0 L 1351.0 144.0 L 1336.0 60.0 L 1297.0 60.0 Q 1312.3 101.39999999999999 1288.0 114.0 L 1288.0 174.0 z" fill="rgb(255,217,194)" stroke="black"/>
  <text fill="rgb(9,33,173)" font-size="25" x="1326.0" y="109.66666666666667">top_front</text>
</svg>
