<?xml version="1.0" encoding="utf-8" ?>
<svg xmlns="http://www.w3.org/2000/svg" xmlns:ev="http://www.w3.org/2001/xml-events" xmlns:xlink="http://www.w3.org/1999/xlink" baseProfile="full" height="306.0px" version="1.1" width="1465.0px">
  <defs/>
  <path d="M 60 228 L 78 228 Q 90.3 182.1 63 171 L 60 60 L 60 228 z" fill="rgb(255,217,194)" stroke="black"/>
  <text fill="rgb(9,33,173)" font-size="25" x="40.25" y="174.75">rbsleeve</text>
  <path d="M 180.25 228.0 L 183.25 117.0 Q 210.55 105.9 198.25 60.0 L 180.25 60.0 L 180.25 228.0 z" fill="rgb(255,217,194)" stroke="black"/>
  <text fill="rgb(9,33,173)" font-size="25" x="160.5" y="119.25">rfsleeve</text>
  <path d="M 300.5 246.0 L 558.5 246.0 L 522.5 117.0 Q 495.2 105.9 507.5 60.0 L 471.5 60.0 L 429.5 69.0 L 387.5 60.0 L 351.5 60.0 Q 363.8 105.9 336.5 117.0 L 300.5 246.0 z" fill="rgb(255,217,194)" stroke="black"/>
  <text fill="rgb(9,33,173)" font-size="25" x="404.5" y="118.0">back</text>
  <path d="M 618.5 246.0 L 876.5 246.0 L 840.5 114.0 Q 814.4 103.8 825.5 60.0 L 789.5 60.0 L 747.5 69.0 L 705.5 60.0 L 669.5 60.0 Q 680.6 103.8 654.5 114.0 L 618.5 246.0 z" fill="rgb(255,217,194)" stroke="black"/>
  <text fill="rgb(9,33,173)" font-size="25" x="722.5" y="117.33333333333333">front</text>
  <path d="M 945.5 183.0 L 1014.5 174.0 Q 1079.3 146.1 1020.5 69.0 L 981.5 78.0 L 936.5 60.0 L 945.5 183.0 z" fill="rgb(255,217,194)" stroke="black"/>
  <text fill="rgb(9,33,173)" font-size="25" x="954.7" y="115.8">Rhood</text>
  <path d="M 1080.5 183.0 L 1125.5 165.0 L 1164.5 174.0 Q 1223.3 96.9 1158.5 69.0 L 1089.5 60.0 L 1080.5 183.0 z" fill="rgb(255,217,194)" stroke="black"/>
  <text fill="rgb(9,33,173)" font-size="25" x="1098.7" y="133.2">Lhood</text>
  <path d="M 1224.5 228.0 L 1227.5 117.0 Q 1254.8 105.9 1242.5 60.0 L 1224.5 60.0 L 1224.5 228.0 z" fill="rgb(255,217,194)" stroke="black"/>
  <text fill="rgb(9,33,173)" font-size="25" x="1204.75" y="119.25">lbsleeve</text>
  <path d="M 1344.75 228.0 L 1362.75 228.0 Q 1375.05 182.1 1347.75 171.0 L 1344.75 60.0 L 1344.75 228.0 z" fill="rgb(255,217,194)" stroke="black"/>
  <text fill="rgb(9,33,173)" font-size="25" x="1325.0" y="174.75">lfsleeve</text>
</svg>
