<?xml version="1.0" encoding="utf-8" ?>
<svg xmlns="http://www.w3.org/2000/svg" xmlns:ev="http://www.w3.org/2001/xml-events" xmlns:xlink="http://www.w3.org/1999/xlink" baseProfile="full" height="306.0px" version="1.1" width="1468.0px">
  <defs/>
  <path d="M 60 153 L 114 153 Q 142.8 83.10000000000001 102 60 L 60 93 L 60 153 z" fill="rgb(255,217,194)" stroke="black"/>
  <text fill="rgb(9,33,173)" font-size="25" x="59.0" y="117.75">rbsleeve</text>
  <path d="M 199.0 120.0 L 241.0 153.0 Q 281.8 129.9 253.0 60.0 L 199.0 60.0 L 199.0 120.0 z" fill="rgb(255,217,194)" stroke="black"/>
  <text fill="rgb(9,33,173)" font-size="25" x="198.0" y="101.25">rfsleeve</text>
  <path d="M 338.0 246.0 L 704.0 246.0 L 599.0 153.0 Q 558.1999999999999 129.9 587.0 60.0 L 542.0 60.0 Q 521.0 123.57919745728229 500.0 60.0 L 455.0 60.0 Q 483.8 129.9 443.0 153.0 L 338.0 246.0 z" fill="rgb(255,217,194)" stroke="black"/>
  <text fill="rgb(9,33,173)" font-size="25" x="496.0" y="132.75">back</text>
  <path d="M 764.0 246.0 L 1130.0 246.0 L 1025.0 153.0 Q 984.1999999999999 129.9 1013.0 60.0 L 968.0 60.0 L 947.0 78.0 L 926.0 60.0 L 881.0 60.0 Q 909.8000000000001 129.9 869.0 153.0 L 764.0 246.0 z" fill="rgb(255,217,194)" stroke="black"/>
  <text fill="rgb(9,33,173)" font-size="25" x="922.0" y="127.0">front</text>
  <path d="M 1190.0 120.0 L 1232.0 153.0 Q 1272.8 129.9 1244.0 60.0 L 1190.0 60.0 L 1190.0 120.0 z" fill="rgb(255,217,194)" stroke="black"/>
  <text fill="rgb(9,33,173)" font-size="25" x="1189.0" y="101.25">lbsleeve</text>
  <path d="M 1329.0 153.0 L 1383.0 153.0 Q 1411.8 83.10000000000001 1371.0 60.0 L 1329.0 93.0 L 1329.0 153.0 z" fill="rgb(255,217,194)" stroke="black"/>
  <text fill="rgb(9,33,173)" font-size="25" x="1328.0" y="117.75">lfsleeve</text>
</svg>
