<?xml version="1.0" encoding="utf-8" ?>
<svg xmlns="http://www.w3.org/2000/svg" xmlns:ev="http://www.w3.org/2001/xml-events" xmlns:xlink="http://www.w3.org/1999/xlink" baseProfile="full" height="390.0px" version="1.1" width="1066.0px">
  <defs/>
  <path d="M 60 219 L 111 219 Q 144.6 140.7 99 114 L 60 60 L 60 219 z" fill="rgb(255,217,194)" stroke="black"/>
  <text fill="rgb(9,33,173)" font-size="25" x="57.5" y="156.0">rbsleeve</text>
  <path d="M 197.5 219.0 L 236.5 165.0 Q 282.1 138.3 248.5 60.0 L 197.5 60.0 L 197.5 219.0 z" fill="rgb(255,217,194)" stroke="black"/>
  <text fill="rgb(9,33,173)" font-size="25" x="195.0" y="129.0">rfsleeve</text>
  <path d="M 347.0 330.0 L 491.0 330.0 L 503.0 162.0 Q 457.7 137.4 488.0 60.0 L 440.0 60.0 Q 419.0 113.92752423775619 398.0 60.0 L 350.0 60.0 Q 380.3 137.39999999999998 335.0 162.0 L 347.0 330.0 z" fill="rgb(255,217,194)" stroke="black"/>
  <text fill="rgb(9,33,173)" font-size="25" x="394.0" y="156.0">back</text>
  <path d="M 575.0 330.0 L 719.0 330.0 L 731.0 162.0 Q 685.7 137.4 716.0 60.0 L 668.0 60.0 L 647.0 138.0 L 626.0 60.0 L 578.0 60.0 Q 608.3 137.39999999999998 563.0 162.0 L 575.0 330.0 z" fill="rgb(255,217,194)" stroke="black"/>
  <text fill="rgb(9,33,173)" font-size="25" x="622.0" y="154.33333333333334">front</text>
  <path d="M 791.0 219.0 L 830.0 165.0 Q 875.6 138.3 842.0 60.0 L 791.0 60.0 L 791.0 219.0 z" fill="rgb(255,217,194)" stroke="black"/>
  <text fill="rgb(9,33,173)" font-size="25" x="788.5" y="129.0">lbsleeve</text>
  <path d="M 928.5 219.0 L 979.5 219.0 Q 1013.1 140.7 967.5 114.0 L 928.5 60.0 L 928.5 219.0 z" fill="rgb(255,217,194)" stroke="black"/>
  <text fill="rgb(9,33,173)" font-size="25" x="926.0" y="156.0">lfsleeve</text>
</svg>
