<?xml version="1.0" encoding="utf-8" ?>
<svg xmlns="http://www.w3.org/2000/svg" xmlns:ev="http://www.w3.org/2001/xml-events" xmlns:xlink="http://www.w3.org/1999/xlink" baseProfile="full" height="360px" version="1.1" width="882.0px">
  <defs/>
  <path d="M 60 300 Q 141.0 226.76856921850728 222 300 L 210 102 L 195 60 L 87 60 L 72 102 L 60 300 z" fill="rgb(255,217,194)" stroke="black"/>
  <text fill="rgb(9,33,173)" font-size="25" x="116.0" y="157.0">skirt_back</text>
  <path d="M 282 300 Q 363.0 354.4602930724061 444 300 L 432 102 L 417 60 L 309 60 L 294 102 L 282 300 z" fill="rgb(255,217,194)" stroke="black"/>
  <text fill="rgb(9,33,173)" font-size="25" x="338.0" y="157.0">skirt_front</text>
  <path d="M 517.0 168.0 L 625.0 168.0 L 634.0 144.0 Q 597.6999999999999 122.39999999999999 625.0 60.0 L 583.0 60.0 Q 571.0 74.93328903184475 559.0 60.0 L 517.0 60.0 Q 544.3 122.39999999999999 508.0 144.0 L 517.0 168.0 z" fill="rgb(255,217,194)" stroke="black"/>
  <text fill="rgb(9,33,173)" font-size="25" x="546.0" y="111.0">top_back</text>
  <path d="M 703.0 165.0 L 811.0 165.0 L 820.0 144.0 Q 783.6999999999999 122.39999999999999 811.0 60.0 L 769.0 60.0 L 757.0 114.0 L 745.0 60.0 L 703.0 60.0 Q 730.3000000000001 122.39999999999999 694.0 144.0 L 703.0 165.0 z" fill="rgb(255,217,194)" stroke="black"/>
  <text fill="rgb(9,33,173)" font-size="25" x="732.0" y="111.0">top_front</text>
</svg>
