<?xml version="1.0" encoding="utf-8" ?>
<svg xmlns="http://www.w3.org/2000/svg" xmlns:ev="http://www.w3.org/2001/xml-events" xmlns:xlink="http://www.w3.org/1999/xlink" baseProfile="full" height="402px" version="1.1" width="796.0px">
  <defs/>
  <path d="M 60 342 L 189 342 L 189 138 L 168 60 L 135 60 Q 173.4 146.7 123 177 L 60 342 z" fill="rgb(255,217,194)" stroke="black"/>
  <text fill="rgb(9,33,173)" font-size="25" x="119.0" y="189.5">front_right</text>
  <path d="M 289.0 342.0 L 547.0 342.0 L 484.0 177.0 Q 433.59999999999997 146.70000000000002 472.0 60.0 L 439.0 60.0 Q 418.0 79.68749191009323 397.0 60.0 L 364.0 60.0 Q 402.40000000000003 146.7 352.0 177.0 L 289.0 342.0 z" fill="rgb(255,217,194)" stroke="black"/>
  <text fill="rgb(9,33,173)" font-size="25" x="393.0" y="162.75">back</text>
  <path d="M 607.0 342.0 L 736.0 342.0 L 673.0 177.0 Q 622.6 146.70000000000002 661.0 60.0 L 628.0 60.0 L 607.0 138.0 L 607.0 342.0 z" fill="rgb(255,217,194)" stroke="black"/>
  <text fill="rgb(9,33,173)" font-size="25" x="627.0" y="189.5">front_left</text>
</svg>
