<?xml version="1.0" encoding="utf-8" ?>
<svg xmlns="http://www.w3.org/2000/svg" xmlns:ev="http://www.w3.org/2001/xml-events" xmlns:xlink="http://www.w3.org/1999/xlink" baseProfile="full" height="312.0px" version="1.1" width="1220.0px">
  <defs/>
  <path d="M 60 135 L 129 135 Q 141.0 94.50000000000001 117 84 L 60 60 L 60 135 z" fill="rgb(255,217,194)" stroke="black"/>
  <text fill="rgb(9,33,173)" font-size="25" x="66.5" y="106.5">rbsleeve</text>
  <path d="M 206.5 135.0 L 263.5 111.0 Q 287.5 100.5 275.5 60.0 L 206.5 60.0 L 206.5 135.0 z" fill="rgb(255,217,194)" stroke="black"/>
  <text fill="rgb(9,33,173)" font-size="25" x="213.0" y="94.5">rfsleeve</text>
  <path d="M 359.0 252.0 L 431.0 252.0 L 431.0 87.0 L 410.0 60.0 L 365.0 60.0 Q 378.20000000000005 102.6 353.0 114.0 L 359.0 252.0 z" fill="rgb(255,217,194)" stroke="black"/>
  <text fill="rgb(9,33,173)" font-size="25" x="366.5" y="140.5">front_right</text>
  <path d="M 542.5 252.0 L 686.5 252.0 L 692.5 114.0 Q 667.3 102.6 680.5 60.0 L 635.5 60.0 Q 614.5 187.27359141324808 593.5 60.0 L 548.5 60.0 Q 561.7 102.6 536.5 114.0 L 542.5 252.0 z" fill="rgb(255,217,194)" stroke="black"/>
  <text fill="rgb(9,33,173)" font-size="25" x="589.5" y="124.5">back</text>
  <path d="M 752.5 252.0 L 824.5 252.0 L 830.5 114.0 Q 805.3 102.6 818.5 60.0 L 773.5 60.0 L 752.5 87.0 L 752.5 252.0 z" fill="rgb(255,217,194)" stroke="black"/>
  <text fill="rgb(9,33,173)" font-size="25" x="767.0" y="140.5">front_left</text>
  <path d="M 927.0 135.0 L 984.0 111.0 Q 1008.0 100.5 996.0 60.0 L 927.0 60.0 L 927.0 135.0 z" fill="rgb(255,217,194)" stroke="black"/>
  <text fill="rgb(9,33,173)" font-size="25" x="933.5" y="94.5">lbsleeve</text>
  <path d="M 1073.5 135.0 L 1142.5 135.0 Q 1154.5 94.50000000000001 1130.5 84.0 L 1073.5 60.0 L 1073.5 135.0 z" fill="rgb(255,217,194)" stroke="black"/>
  <text fill="rgb(9,33,173)" font-size="25" x="1080.0" y="106.5">lfsleeve</text>
</svg>
