<?xml version="1.0" encoding="utf-8" ?>
<svg xmlns="http://www.w3.org/2000/svg" xmlns:ev="http://www.w3.org/2001/xml-events" xmlns:xlink="http://www.w3.org/1999/xlink" baseProfile="full" height="303px" version="1.1" width="1752px">
  <defs/>
  <path d="M 60 189 L 177 189 Q 197.1 139.20000000000002 168 123 L 60 60 L 60 189 z" fill="rgb(255,217,194)" stroke="black"/>
  <text fill="rgb(9,33,173)" font-size="25" x="91.25" y="143.25">rbsleeve</text>
  <path d="M 237 189 L 345 126 Q 374.09999999999997 109.8 354 60 L 237 60 L 237 189 z" fill="rgb(255,217,194)" stroke="black"/>
  <text fill="rgb(9,33,173)" font-size="25" x="268.25" y="111.75">rfsleeve</text>
  <path d="M 414 243 L 489 243 Q 513.45 88.35000000000002 507 60 L 444 60 Q 458.7 141.75 414 153 Q 423.0 157.5 414 243 z" fill="rgb(255,217,194)" stroke="black"/>
  <text fill="rgb(9,33,173)" font-size="25" x="428.6" y="154.8">Rback</text>
  <path d="M 585 243 L 660 243 Q 651.0 157.5 660 153 Q 619.95 140.25 630 60 L 567 60 Q 560.5500000000001 88.35000000000001 585 243 z" fill="rgb(255,217,194)" stroke="black"/>
  <text fill="rgb(9,33,173)" font-size="25" x="595.4" y="154.8">Rfront</text>
  <path d="M 720 168 L 783 168 L 846 168 L 843 126 Q 813.9 109.8 834 60 L 801 60 Q 783.0 84.83328135364957 765 60 L 732 60 Q 752.1 109.79999999999998 723 126 L 720 168 z" fill="rgb(255,217,194)" stroke="black"/>
  <text fill="rgb(9,33,173)" font-size="25" x="758.0" y="113.66666666666667">up_back</text>
  <path d="M 906 165 L 969 165 L 1032 165 L 1029 126 Q 999.9 109.8 1020 60 L 987 60 L 969 72 L 951 60 L 918 60 Q 938.1 109.79999999999998 909 126 L 906 165 z" fill="rgb(255,217,194)" stroke="black"/>
  <text fill="rgb(9,33,173)" font-size="25" x="944.0" y="108.9">up_front</text>
  <path d="M 1110 243 L 1185 243 Q 1176.0 157.5 1185 153 Q 1140.3 141.75 1155 60 L 1092 60 Q 1085.55 88.35000000000001 1110 243 z" fill="rgb(255,217,194)" stroke="black"/>
  <text fill="rgb(9,33,173)" font-size="25" x="1120.4" y="154.8">Lback</text>
  <path d="M 1245 243 L 1320 243 Q 1344.45 88.35000000000002 1338 60 L 1275 60 Q 1285.05 140.25 1245 153 Q 1254.0 157.5 1245 243 z" fill="rgb(255,217,194)" stroke="black"/>
  <text fill="rgb(9,33,173)" font-size="25" x="1259.6" y="154.8">Lfront</text>
  <path d="M 1398 189 L 1506 126 Q 1535.1000000000001 109.8 1515 60 L 1398 60 L 1398 189 z" fill="rgb(255,217,194)" stroke="black"/>
  <text fill="rgb(9,33,173)" font-size="25" x="1429.25" y="111.75">lbsleeve</text>
  <path d="M 1575 189 L 1692 189 Q 1712.1000000000001 139.20000000000002 1683 123 L 1575 60 L 1575 189 z" fill="rgb(255,217,194)" stroke="black"/>
  <text fill="rgb(9,33,173)" font-size="25" x="1606.25" y="143.25">lfsleeve</text>
</svg>
