<?xml version="1.0" encoding="utf-8" ?>
<svg xmlns="http://www.w3.org/2000/svg" xmlns:ev="http://www.w3.org/2001/xml-events" xmlns:xlink="http://www.w3.org/1999/xlink" baseProfile="full" height="234px" version="1.1" width="1570.0px">
  <defs/>
  <path d="M 60 174 L 126 174 L 201 60 L 90 60 Q 101.1 135.0 60 144 Q 63.0 145.5 60 174 z" fill="rgb(255,217,194)" stroke="black"/>
  <text fill="rgb(9,33,173)" font-size="25" x="82.4" y="125.4">Rback</text>
  <path d="M 336 174 L 402 174 Q 399.0 145.5 402 144 Q 365.1 133.5 372 60 L 261 60 L 336 174 z" fill="rgb(255,217,194)" stroke="black"/>
  <text fill="rgb(9,33,173)" font-size="25" x="329.6" y="125.4">Rfront</text>
  <path d="M 462 66 L 501 66 L 540 66 L 540 60 L 462 60 L 462 66 z" fill="rgb(255,217,194)" stroke="black"/>
  <text fill="rgb(9,33,173)" font-size="25" x="476.0" y="66.6">wb_back</text>
  <path d="M 606.0 66.0 L 645.0 66.0 L 684.0 66.0 L 684.0 60.0 L 606.0 60.0 L 606.0 66.0 z" fill="rgb(255,217,194)" stroke="black"/>
  <text fill="rgb(9,33,173)" font-size="25" x="620.0" y="66.6">wb_front</text>
  <path d="M 760.0 144.0 L 904.0 144.0 L 904.0 132.0 Q 871.6 115.2 892.0 60.0 L 856.0 60.0 Q 832.0 64.1204781000125 808.0 60.0 L 772.0 60.0 Q 792.4 115.2 760.0 132.0 L 760.0 144.0 z" fill="rgb(255,217,194)" stroke="black"/>
  <text fill="rgb(9,33,173)" font-size="25" x="807.0" y="102.0">top_back</text>
  <path d="M 964.0 144.0 L 1108.0 144.0 L 1108.0 132.0 Q 1075.6000000000001 115.2 1096.0 60.0 L 1060.0 60.0 L 1036.0 126.0 L 1012.0 60.0 L 976.0 60.0 Q 996.4 115.2 964.0 132.0 L 964.0 144.0 z" fill="rgb(255,217,194)" stroke="black"/>
  <text fill="rgb(9,33,173)" font-size="25" x="1011.0" y="105.0">top_front</text>
  <path d="M 1243.0 174.0 L 1309.0 174.0 Q 1306.0 145.5 1309.0 144.0 Q 1267.9 135.0 1279.0 60.0 L 1168.0 60.0 L 1243.0 174.0 z" fill="rgb(255,217,194)" stroke="black"/>
  <text fill="rgb(9,33,173)" font-size="25" x="1236.6" y="125.4">Lback</text>
  <path d="M 1369.0 174.0 L 1435.0 174.0 L 1510.0 60.0 L 1399.0 60.0 Q 1405.9 133.5 1369.0 144.0 Q 1372.0 145.5 1369.0 174.0 z" fill="rgb(255,217,194)" stroke="black"/>
  <text fill="rgb(9,33,173)" font-size="25" x="1391.4" y="125.4">Lfront</text>
</svg>
