<?xml version="1.0" encoding="utf-8" ?>
<svg xmlns="http://www.w3.org/2000/svg" xmlns:ev="http://www.w3.org/2001/xml-events" xmlns:xlink="http://www.w3.org/1999/xlink" baseProfile="full" height="297.0px" version="1.1" width="1906.0px">
  <defs/>
  <path d="M 60 162 L 135 162 Q 162.6 94.2 123 72 L 60 60 L 60 162 z" fill="rgb(255,217,194)" stroke="black"/>
  <text fill="rgb(9,33,173)" font-size="25" x="69.5" y="117.0">rbsleeve</text>
  <path d="M 209.5 162.0 L 272.5 150.0 Q 312.1 127.8 284.5 60.0 L 209.5 60.0 L 209.5 162.0 z" fill="rgb(255,217,194)" stroke="black"/>
  <text fill="rgb(9,33,173)" font-size="25" x="219.0" y="111.0">rfsleeve</text>
  <path d="M 359.0 237.0 Q 533.0 396.0734498914451 707.0 237.0 L 611.0 102.0 L 593.0 60.0 L 473.0 60.0 L 455.0 102.0 L 359.0 237.0 z" fill="rgb(255,217,194)" stroke="black"/>
  <text fill="rgb(9,33,173)" font-size="25" x="508.0" y="136.0">skirt_back</text>
  <path d="M 767.0 237.0 Q 941.0 132.79963793954738 1115.0 237.0 L 1019.0 102.0 L 1001.0 60.0 L 881.0 60.0 L 863.0 102.0 L 767.0 237.0 z" fill="rgb(255,217,194)" stroke="black"/>
  <text fill="rgb(9,33,173)" font-size="25" x="916.0" y="136.0">skirt_front</text>
  <path d="M 1193.0 168.0 L 1313.0 168.0 L 1331.0 147.0 Q 1292.6000000000001 125.7 1319.0 60.0 L 1271.0 60.0 Q 1253.0 125.58620360029398 1235.0 60.0 L 1187.0 60.0 Q 1213.3999999999999 125.7 1175.0 147.0 L 1193.0 168.0 z" fill="rgb(255,217,194)" stroke="black"/>
  <text fill="rgb(9,33,173)" font-size="25" x="1228.0" y="111.75">top_back</text>
  <path d="M 1409.0 165.0 L 1529.0 165.0 L 1547.0 147.0 Q 1508.6000000000001 125.7 1535.0 60.0 L 1487.0 60.0 L 1469.0 111.0 L 1451.0 60.0 L 1403.0 60.0 Q 1429.3999999999999 125.7 1391.0 147.0 L 1409.0 165.0 z" fill="rgb(255,217,194)" stroke="black"/>
  <text fill="rgb(9,33,173)" font-size="25" x="1444.0" y="111.33333333333333">top_front</text>
  <path d="M 1607.0 162.0 L 1670.0 150.0 Q 1709.6 127.8 1682.0 60.0 L 1607.0 60.0 L 1607.0 162.0 z" fill="rgb(255,217,194)" stroke="black"/>
  <text fill="rgb(9,33,173)" font-size="25" x="1616.5" y="111.0">lbsleeve</text>
  <path d="M 1756.5 162.0 L 1831.5 162.0 Q 1859.1 94.2 1819.5 72.0 L 1756.5 60.0 L 1756.5 162.0 z" fill="rgb(255,217,194)" stroke="black"/>
  <text fill="rgb(9,33,173)" font-size="25" x="1766.0" y="117.0">lfsleeve</text>
</svg>
