<?xml version="1.0" encoding="utf-8" ?>
<svg xmlns="http://www.w3.org/2000/svg" xmlns:ev="http://www.w3.org/2001/xml-events" xmlns:xlink="http://www.w3.org/1999/xlink" baseProfile="full" height="366.0px" version="1.1" width="1519.0px">
  <defs/>
  <path d="M 60 159 L 93 159 Q 118.5 90.0 78 69 L 60 60 L 60 159 z" fill="rgb(255,217,194)" stroke="black"/>
  <text fill="rgb(9,33,173)" font-size="25" x="47.75" y="114.75">rbsleeve</text>
  <path d="M 187.75 159.0 L 205.75 150.0 Q 246.25 129.0 220.75 60.0 L 187.75 60.0 L 187.75 159.0 z" fill="rgb(255,217,194)" stroke="black"/>
  <text fill="rgb(9,33,173)" font-size="25" x="175.5" y="110.25">rfsleeve</text>
  <path d="M 315.5 306.0 L 501.5 306.0 L 501.5 78.0 L 480.5 60.0 L 429.5 60.0 Q 455.0 129.0 414.5 150.0 L 315.5 306.0 z" fill="rgb(255,217,194)" stroke="black"/>
  <text fill="rgb(9,33,173)" font-size="25" x="415.5" y="163.0">front_right</text>
  <path d="M 585.5 306.0 L 957.5 306.0 L 858.5 150.0 Q 818.0 129.0 843.5 60.0 L 792.5 60.0 Q 771.5 143.14511801435768 750.5 60.0 L 699.5 60.0 Q 725.0 129.0 684.5 150.0 L 585.5 306.0 z" fill="rgb(255,217,194)" stroke="black"/>
  <text fill="rgb(9,33,173)" font-size="25" x="746.5" y="147.0">back</text>
  <path d="M 1017.5 306.0 L 1203.5 306.0 L 1104.5 150.0 Q 1064.0 129.0 1089.5 60.0 L 1038.5 60.0 L 1017.5 78.0 L 1017.5 306.0 z" fill="rgb(255,217,194)" stroke="black"/>
  <text fill="rgb(9,33,173)" font-size="25" x="1053.5" y="163.0">front_left</text>
  <path d="M 1263.5 159.0 L 1281.5 150.0 Q 1322.0 129.0 1296.5 60.0 L 1263.5 60.0 L 1263.5 159.0 z" fill="rgb(255,217,194)" stroke="black"/>
  <text fill="rgb(9,33,173)" font-size="25" x="1251.25" y="110.25">lbsleeve</text>
  <path d="M 1391.25 159.0 L 1424.25 159.0 Q 1449.75 90.0 1409.25 69.0 L 1391.25 60.0 L 1391.25 159.0 z" fill="rgb(255,217,194)" stroke="black"/>
  <text fill="rgb(9,33,173)" font-size="25" x="1379.0" y="114.75">lfsleeve</text>
</svg>
