<?xml version="1.0" encoding="utf-8" ?>
<svg xmlns="http://www.w3.org/2000/svg" xmlns:ev="http://www.w3.org/2001/xml-events" xmlns:xlink="http://www.w3.org/1999/xlink" baseProfile="full" height="345.0px" version="1.1" width="1750.0px">
  <defs/>
  <path d="M 60 123 L 123 123 Q 133.8 84.60000000000001 111 75 L 60 60 L 60 123 z" fill="rgb(255,217,194)" stroke="black"/>
  <text fill="rgb(9,33,173)" font-size="25" x="63.5" y="98.25">rbsleeve</text>
  <path d="M 203.5 123.0 L 254.5 108.0 Q 277.3 98.39999999999999 266.5 60.0 L 203.5 60.0 L 203.5 123.0 z" fill="rgb(255,217,194)" stroke="black"/>
  <text fill="rgb(9,33,173)" font-size="25" x="207.0" y="90.75">rfsleeve</text>
  <path d="M 347.0 285.0 L 428.0 285.0 Q 462.2 95.1 455.0 60.0 L 377.0 60.0 Q 391.7 141.75 347.0 153.0 Q 360.2 159.6 347.0 285.0 z" fill="rgb(255,217,194)" stroke="black"/>
  <text fill="rgb(9,33,173)" font-size="25" x="365.8" y="171.6">Rback</text>
  <path d="M 542.0 285.0 L 623.0 285.0 Q 609.8 159.60000000000002 623.0 153.0 Q 582.95 140.25 593.0 60.0 L 515.0 60.0 Q 507.79999999999995 95.1 542.0 285.0 z" fill="rgb(255,217,194)" stroke="black"/>
  <text fill="rgb(9,33,173)" font-size="25" x="554.2" y="171.6">Rfront</text>
  <path d="M 683.0 168.0 L 764.0 168.0 L 845.0 168.0 L 842.0 111.0 Q 818.0 100.5 830.0 60.0 L 779.0 60.0 Q 764.0 71.17997386054535 749.0 60.0 L 698.0 60.0 Q 710.0 100.49999999999999 686.0 111.0 L 683.0 168.0 z" fill="rgb(255,217,194)" stroke="black"/>
  <text fill="rgb(9,33,173)" font-size="25" x="739.0" y="110.33333333333333">up_back</text>
  <path d="M 905.0 165.0 L 986.0 165.0 L 1067.0 165.0 L 1064.0 111.0 Q 1040.0 100.5 1052.0 60.0 L 1001.0 60.0 L 986.0 99.0 L 971.0 60.0 L 920.0 60.0 Q 932.0 100.49999999999999 908.0 111.0 L 905.0 165.0 z" fill="rgb(255,217,194)" stroke="black"/>
  <text fill="rgb(9,33,173)" font-size="25" x="961.0" y="108.6">up_front</text>
  <path d="M 1154.0 285.0 L 1235.0 285.0 Q 1221.8 159.60000000000002 1235.0 153.0 Q 1190.3 141.75 1205.0 60.0 L 1127.0 60.0 Q 1119.8 95.1 1154.0 285.0 z" fill="rgb(255,217,194)" stroke="black"/>
  <text fill="rgb(9,33,173)" font-size="25" x="1166.2" y="171.6">Lback</text>
  <path d="M 1295.0 285.0 L 1376.0 285.0 Q 1410.2 95.1 1403.0 60.0 L 1325.0 60.0 Q 1335.05 140.25 1295.0 153.0 Q 1308.2 159.6 1295.0 285.0 z" fill="rgb(255,217,194)" stroke="black"/>
  <text fill="rgb(9,33,173)" font-size="25" x="1313.8" y="171.6">Lfront</text>
  <path d="M 1463.0 123.0 L 1514.0 108.0 Q 1536.8 98.39999999999999 1526.0 60.0 L 1463.0 60.0 L 1463.0 123.0 z" fill="rgb(255,217,194)" stroke="black"/>
  <text fill="rgb(9,33,173)" font-size="25" x="1466.5" y="90.75">lbsleeve</text>
  <path d="M 1606.5 123.0 L 1669.5 123.0 Q 1680.3 84.60000000000001 1657.5 75.0 L 1606.5 60.0 L 1606.5 123.0 z" fill="rgb(255,217,194)" stroke="black"/>
  <text fill="rgb(9,33,173)" font-size="25" x="1610.0" y="98.25">lfsleeve</text>
</svg>
