<?xml version="1.0" encoding="utf-8" ?>
<svg xmlns="http://www.w3.org/2000/svg" xmlns:ev="http://www.w3.org/2001/xml-events" xmlns:xlink="http://www.w3.org/1999/xlink" baseProfile="full" height="321.0px" version="1.1" width="1145.0px">
  <defs/>
  <path d="M 60 204 L 105 204 Q 129.0 142.5 93 123 L 60 60 L 60 204 z" fill="rgb(255,217,194)" stroke="black"/>
  <text fill="rgb(9,33,173)" font-size="25" x="54.5" y="150.75">rbsleeve</text>
  <path d="M 194.5 204.0 L 227.5 141.0 Q 263.5 121.5 239.5 60.0 L 194.5 60.0 L 194.5 204.0 z" fill="rgb(255,217,194)" stroke="black"/>
  <text fill="rgb(9,33,173)" font-size="25" x="189.0" y="119.25">rfsleeve</text>
  <path d="M 341.0 258.0 L 398.0 258.0 L 398.0 132.0 L 359.0 60.0 L 341.0 60.0 Q 365.0 121.49999999999999 329.0 141.0 L 341.0 258.0 z" fill="rgb(255,217,194)" stroke="black"/>
  <text fill="rgb(9,33,173)" font-size="25" x="336.0" y="154.5">front_right</text>
  <path d="M 518.0 261.0 L 632.0 261.0 L 644.0 141.0 Q 608.0 121.5 632.0 60.0 L 614.0 60.0 Q 575.0 239.86986917640655 536.0 60.0 L 518.0 60.0 Q 542.0 121.49999999999999 506.0 141.0 L 518.0 261.0 z" fill="rgb(255,217,194)" stroke="black"/>
  <text fill="rgb(9,33,173)" font-size="25" x="550.0" y="133.5">back</text>
  <path d="M 704.0 258.0 L 761.0 258.0 L 773.0 141.0 Q 737.0 121.5 761.0 60.0 L 743.0 60.0 L 704.0 132.0 L 704.0 258.0 z" fill="rgb(255,217,194)" stroke="black"/>
  <text fill="rgb(9,33,173)" font-size="25" x="716.0" y="154.5">front_left</text>
  <path d="M 876.0 204.0 L 909.0 141.0 Q 945.0 121.5 921.0 60.0 L 876.0 60.0 L 876.0 204.0 z" fill="rgb(255,217,194)" stroke="black"/>
  <text fill="rgb(9,33,173)" font-size="25" x="870.5" y="119.25">lbsleeve</text>
  <path d="M 1010.5 204.0 L 1055.5 204.0 Q 1079.5 142.5 1043.5 123.0 L 1010.5 60.0 L 1010.5 204.0 z" fill="rgb(255,217,194)" stroke="black"/>
  <text fill="rgb(9,33,173)" font-size="25" x="1005.0" y="150.75">lfsleeve</text>
</svg>
