<?xml version="1.0" encoding="utf-8" ?>
<svg xmlns="http://www.w3.org/2000/svg" xmlns:ev="http://www.w3.org/2001/xml-events" xmlns:xlink="http://www.w3.org/1999/xlink" baseProfile="full" height="405.0px" version="1.1" width="1513.0px">
  <defs/>
  <path d="M 60 165 L 141 165 Q 167.1 104.70000000000002 132 84 L 60 60 L 60 165 z" fill="rgb(255,217,194)" stroke="black"/>
  <text fill="rgb(9,33,173)" font-size="25" x="73.25" y="121.5">rbsleeve</text>
  <path d="M 213.25 165.0 L 285.25 141.0 Q 320.34999999999997 120.3 294.25 60.0 L 213.25 60.0 L 213.25 165.0 z" fill="rgb(255,217,194)" stroke="black"/>
  <text fill="rgb(9,33,173)" font-size="25" x="226.5" y="109.5">rfsleeve</text>
  <path d="M 366.5 345.0 L 600.5 345.0 L 546.5 141.0 Q 510.5 121.5 534.5 60.0 L 513.5 60.0 L 483.5 69.0 L 453.5 60.0 L 432.5 60.0 Q 456.5 121.49999999999999 420.5 141.0 L 366.5 345.0 z" fill="rgb(255,217,194)" stroke="black"/>
  <text fill="rgb(9,33,173)" font-size="25" x="458.5" y="145.33333333333334">back</text>
  <path d="M 660.5 345.0 L 894.5 345.0 L 840.5 141.0 Q 804.5 121.5 828.5 60.0 L 807.5 60.0 L 777.5 66.0 L 747.5 60.0 L 726.5 60.0 Q 750.5 121.49999999999999 714.5 141.0 L 660.5 345.0 z" fill="rgb(255,217,194)" stroke="black"/>
  <text fill="rgb(9,33,173)" font-size="25" x="752.5" y="145.0">front</text>
  <path d="M 954.5 174.0 L 1020.5 168.0 Q 1081.7 137.4 1020.5 66.0 L 990.5 75.0 L 960.5 60.0 L 954.5 174.0 z" fill="rgb(255,217,194)" stroke="black"/>
  <text fill="rgb(9,33,173)" font-size="25" x="964.3" y="111.6">Rhood</text>
  <path d="M 1086.5 174.0 L 1116.5 159.0 L 1146.5 168.0 Q 1207.7 96.60000000000001 1146.5 66.0 L 1080.5 60.0 L 1086.5 174.0 z" fill="rgb(255,217,194)" stroke="black"/>
  <text fill="rgb(9,33,173)" font-size="25" x="1090.3" y="128.4">Lhood</text>
  <path d="M 1206.5 165.0 L 1278.5 141.0 Q 1313.6000000000001 120.3 1287.5 60.0 L 1206.5 60.0 L 1206.5 165.0 z" fill="rgb(255,217,194)" stroke="black"/>
  <text fill="rgb(9,33,173)" font-size="25" x="1219.75" y="109.5">lbsleeve</text>
  <path d="M 1359.75 165.0 L 1440.75 165.0 Q 1466.8500000000001 104.70000000000002 1431.75 84.0 L 1359.75 60.0 L 1359.75 165.0 z" fill="rgb(255,217,194)" stroke="black"/>
  <text fill="rgb(9,33,173)" font-size="25" x="1373.0" y="121.5">lfsleeve</text>
</svg>
