<?xml version="1.0" encoding="utf-8" ?>
<svg xmlns="http://www.w3.org/2000/svg" xmlns:ev="http://www.w3.org/2001/xml-events" xmlns:xlink="http://www.w3.org/1999/xlink" baseProfile="full" height="375px" version="1.1" width="1524.0px">
  <defs/>
  <path d="M 60 315 L 390 315 L 390 60 L 60 60 L 60 315 z" fill="rgb(255,217,194)" stroke="black"/>
  <text fill="rgb(9,33,173)" font-size="25" x="200.0" y="190.5">skirt_back</text>
  <path d="M 450 81 L 540 81 L 540 60 L 450 60 L 450 81 z" fill="rgb(255,217,194)" stroke="black"/>
  <text fill="rgb(9,33,173)" font-size="25" x="470.0" y="73.5">wb_back</text>
  <path d="M 600 81 L 690 81 L 690 60 L 600 60 L 600 81 z" fill="rgb(255,217,194)" stroke="black"/>
  <text fill="rgb(9,33,173)" font-size="25" x="620.0" y="73.5">wb_front</text>
  <path d="M 760.0 315.0 L 1090.0 315.0 L 1090.0 60.0 L 760.0 60.0 L 760.0 315.0 z" fill="rgb(255,217,194)" stroke="black"/>
  <text fill="rgb(9,33,173)" font-size="25" x="900.0" y="190.5">skirt_front</text>
  <path d="M 1150.0 150.0 L 1276.0 150.0 L 1276.0 111.0 Q 1252.8999999999999 99.3 1267.0 60.0 L 1228.0 60.0 Q 1213.0 71.1328500083904 1198.0 60.0 L 1159.0 60.0 Q 1173.1000000000001 99.29999999999998 1150.0 111.0 L 1150.0 150.0 z" fill="rgb(255,217,194)" stroke="black"/>
  <text fill="rgb(9,33,173)" font-size="25" x="1188.0" y="98.25">top_back</text>
  <path d="M 1336.0 150.0 L 1462.0 150.0 L 1462.0 111.0 Q 1438.8999999999999 99.3 1453.0 60.0 L 1414.0 60.0 L 1399.0 105.0 L 1384.0 60.0 L 1345.0 60.0 Q 1359.1000000000001 99.29999999999998 1336.0 111.0 L 1336.0 150.0 z" fill="rgb(255,217,194)" stroke="black"/>
  <text fill="rgb(9,33,173)" font-size="25" x="1374.0" y="99.33333333333333">top_front</text>
</svg>
