<?xml version="1.0" encoding="utf-8" ?>
<svg xmlns="http://www.w3.org/2000/svg" xmlns:ev="http://www.w3.org/2001/xml-events" xmlns:xlink="http://www.w3.org/1999/xlink" baseProfile="full" height="450px" version="1.1" width="981.0px">
  <defs/>
  <path d="M 60 390 L 177 390 L 177 87 L 159 60 L 129 60 Q 146.7 105.6 120 120 L 60 390 z" fill="rgb(255,217,194)" stroke="black"/>
  <text fill="rgb(9,33,173)" font-size="25" x="112.0" y="187.5">front_right</text>
  <path d="M 282.0 192.0 L 303.0 189.0 Q 379.5 175.5 336.0 78.0 L 318.0 87.0 L 300.0 60.0 L 282.0 192.0 z" fill="rgb(255,217,194)" stroke="black"/>
  <text fill="rgb(9,33,173)" font-size="25" x="282.8" y="124.2">Rhood</text>
  <path d="M 396.0 390.0 L 630.0 390.0 L 570.0 123.0 Q 542.0999999999999 107.69999999999999 561.0 60.0 L 531.0 60.0 L 513.0 69.0 L 495.0 60.0 L 465.0 60.0 Q 483.9 107.69999999999999 456.0 123.0 L 396.0 390.0 z" fill="rgb(255,217,194)" stroke="black"/>
  <text fill="rgb(9,33,173)" font-size="25" x="488.0" y="151.33333333333334">back</text>
  <path d="M 708.0 192.0 L 726.0 165.0 L 744.0 174.0 Q 787.5 76.50000000000001 711.0 63.0 L 690.0 60.0 L 708.0 192.0 z" fill="rgb(255,217,194)" stroke="black"/>
  <text fill="rgb(9,33,173)" font-size="25" x="690.8" y="133.8">Lhood</text>
  <path d="M 804.0 390.0 L 921.0 390.0 L 861.0 120.0 Q 834.3 105.6 852.0 60.0 L 822.0 60.0 L 804.0 87.0 L 804.0 390.0 z" fill="rgb(255,217,194)" stroke="black"/>
  <text fill="rgb(9,33,173)" font-size="25" x="819.0" y="187.5">front_left</text>
</svg>
