<?xml version="1.0" encoding="utf-8" ?>
<svg xmlns="http://www.w3.org/2000/svg" xmlns:ev="http://www.w3.org/2001/xml-events" xmlns:xlink="http://www.w3.org/1999/xlink" baseProfile="full" height="333px" version="1.1" width="1522.0px">
  <defs/>
  <path d="M 60 273 L 153 273 L 189 60 L 90 60 Q 95.1 123.75 60 129 Q 74.4 136.2 60 273 z" fill="rgb(255,217,194)" stroke="black"/>
  <text fill="rgb(9,33,173)" font-size="25" x="85.4" y="162.0">Rback</text>
  <path d="M 285 273 L 378 273 Q 363.6 136.20000000000002 378 129 Q 346.35 122.25 348 60 L 249 60 L 285 273 z" fill="rgb(255,217,194)" stroke="black"/>
  <text fill="rgb(9,33,173)" font-size="25" x="302.6" y="162.0">Rfront</text>
  <path d="M 438 75 L 477 75 L 516 75 L 516 60 L 438 60 L 438 75 z" fill="rgb(255,217,194)" stroke="black"/>
  <text fill="rgb(9,33,173)" font-size="25" x="452.0" y="72.0">wb_back</text>
  <path d="M 582.0 75.0 L 621.0 75.0 L 660.0 75.0 L 660.0 60.0 L 582.0 60.0 L 582.0 75.0 z" fill="rgb(255,217,194)" stroke="black"/>
  <text fill="rgb(9,33,173)" font-size="25" x="596.0" y="72.0">wb_front</text>
  <path d="M 736.0 159.0 L 880.0 159.0 L 880.0 111.0 Q 856.0 100.5 868.0 60.0 L 844.0 60.0 Q 808.0 67.05859855671403 772.0 60.0 L 748.0 60.0 Q 760.0 100.49999999999999 736.0 111.0 L 736.0 159.0 z" fill="rgb(255,217,194)" stroke="black"/>
  <text fill="rgb(9,33,173)" font-size="25" x="783.0" y="100.5">top_back</text>
  <path d="M 940.0 159.0 L 1084.0 159.0 L 1084.0 111.0 Q 1060.0 100.5 1072.0 60.0 L 1048.0 60.0 L 1012.0 141.0 L 976.0 60.0 L 952.0 60.0 Q 964.0 100.49999999999999 940.0 111.0 L 940.0 159.0 z" fill="rgb(255,217,194)" stroke="black"/>
  <text fill="rgb(9,33,173)" font-size="25" x="987.0" y="105.33333333333333">top_front</text>
  <path d="M 1180.0 273.0 L 1273.0 273.0 Q 1258.6 136.20000000000002 1273.0 129.0 Q 1237.9 123.75 1243.0 60.0 L 1144.0 60.0 L 1180.0 273.0 z" fill="rgb(255,217,194)" stroke="black"/>
  <text fill="rgb(9,33,173)" font-size="25" x="1197.6" y="162.0">Lback</text>
  <path d="M 1333.0 273.0 L 1426.0 273.0 L 1462.0 60.0 L 1363.0 60.0 Q 1364.65 122.25 1333.0 129.0 Q 1347.4 136.2 1333.0 273.0 z" fill="rgb(255,217,194)" stroke="black"/>
  <text fill="rgb(9,33,173)" font-size="25" x="1358.4" y="162.0">Lfront</text>
</svg>
