<?xml version="1.0" encoding="utf-8" ?>
<svg xmlns="http://www.w3.org/2000/svg" xmlns:ev="http://www.w3.org/2001/xml-events" xmlns:xlink="http://www.w3.org/1999/xlink" baseProfile="full" height="372px" version="1.1" width="1431.0px">
  <defs/>
  <path d="M 60 312 L 174 312 L 177 60 L 90 60 Q 103.5 139.5 60 150 Q 76.2 158.1 60 312 z" fill="rgb(255,217,194)" stroke="black"/>
  <text fill="rgb(9,33,173)" font-size="25" x="87.2" y="181.8">Rback</text>
  <path d="M 240 312 L 354 312 Q 337.8 158.1 354 150 Q 315.0 138.0 324 60 L 237 60 L 240 312 z" fill="rgb(255,217,194)" stroke="black"/>
  <text fill="rgb(9,33,173)" font-size="25" x="276.8" y="181.8">Rfront</text>
  <path d="M 414 69 L 453 69 L 492 69 L 492 60 L 414 60 L 414 69 z" fill="rgb(255,217,194)" stroke="black"/>
  <text fill="rgb(9,33,173)" font-size="25" x="428.0" y="68.4">wb_back</text>
  <path d="M 558.0 69.0 L 597.0 69.0 L 636.0 69.0 L 636.0 60.0 L 558.0 60.0 L 558.0 69.0 z" fill="rgb(255,217,194)" stroke="black"/>
  <text fill="rgb(9,33,173)" font-size="25" x="572.0" y="68.4">wb_front</text>
  <path d="M 712.0 165.0 L 832.0 165.0 L 832.0 138.0 Q 798.0999999999999 118.19999999999999 823.0 60.0 L 787.0 60.0 Q 772.0 110.88428995575892 757.0 60.0 L 721.0 60.0 Q 745.9000000000001 118.19999999999999 712.0 138.0 L 712.0 165.0 z" fill="rgb(255,217,194)" stroke="black"/>
  <text fill="rgb(9,33,173)" font-size="25" x="747.0" y="108.75">top_back</text>
  <path d="M 892.0 165.0 L 1012.0 165.0 L 1012.0 138.0 Q 978.0999999999999 118.19999999999999 1003.0 60.0 L 967.0 60.0 L 952.0 75.0 L 937.0 60.0 L 901.0 60.0 Q 925.9000000000001 118.19999999999999 892.0 138.0 L 892.0 165.0 z" fill="rgb(255,217,194)" stroke="black"/>
  <text fill="rgb(9,33,173)" font-size="25" x="927.0" y="105.33333333333333">top_front</text>
  <path d="M 1080.0 312.0 L 1194.0 312.0 Q 1177.8 158.1 1194.0 150.0 Q 1150.5 139.5 1164.0 60.0 L 1077.0 60.0 L 1080.0 312.0 z" fill="rgb(255,217,194)" stroke="black"/>
  <text fill="rgb(9,33,173)" font-size="25" x="1116.8" y="181.8">Lback</text>
  <path d="M 1254.0 312.0 L 1368.0 312.0 L 1371.0 60.0 L 1284.0 60.0 Q 1293.0 138.0 1254.0 150.0 Q 1270.2 158.1 1254.0 312.0 z" fill="rgb(255,217,194)" stroke="black"/>
  <text fill="rgb(9,33,173)" font-size="25" x="1281.2" y="181.8">Lfront</text>
</svg>
