<?xml version="1.0" encoding="utf-8" ?>
<svg xmlns="http://www.w3.org/2000/svg" xmlns:ev="http://www.w3.org/2001/xml-events" xmlns:xlink="http://www.w3.org/1999/xlink" baseProfile="full" height="489px" version="1.1" width="1279.0px">
  <defs/>
  <path d="M 60 171 L 168 171 Q 178.8 132.6 156 123 L 60 60 L 60 171 z" fill="rgb(255,217,194)" stroke="black"/>
  <text fill="rgb(9,33,173)" font-size="25" x="86.0" y="134.25">rbsleeve</text>
  <path d="M 228 171 L 324 108 Q 346.8 98.39999999999999 336 60 L 228 60 L 228 171 z" fill="rgb(255,217,194)" stroke="black"/>
  <text fill="rgb(9,33,173)" font-size="25" x="254.0" y="102.75">rfsleeve</text>
  <path d="M 414 429 L 465 429 L 465 126 L 441 60 L 408 60 Q 420.0 100.49999999999999 396 111 L 414 429 z" fill="rgb(255,217,194)" stroke="black"/>
  <text fill="rgb(9,33,173)" font-size="25" x="406.5" y="205.5">front_right</text>
  <path d="M 594.5 429.0 L 696.5 429.0 L 714.5 111.0 Q 690.5 100.5 702.5 60.0 L 669.5 60.0 Q 645.5 130.54705638562461 621.5 60.0 L 588.5 60.0 Q 600.5 100.49999999999999 576.5 111.0 L 594.5 429.0 z" fill="rgb(255,217,194)" stroke="black"/>
  <text fill="rgb(9,33,173)" font-size="25" x="620.5" y="168.0">back</text>
  <path d="M 774.5 429.0 L 825.5 429.0 L 843.5 111.0 Q 819.5 100.5 831.5 60.0 L 798.5 60.0 L 774.5 126.0 L 774.5 429.0 z" fill="rgb(255,217,194)" stroke="black"/>
  <text fill="rgb(9,33,173)" font-size="25" x="783.0" y="205.5">front_left</text>
  <path d="M 943.0 171.0 L 1039.0 108.0 Q 1061.8 98.39999999999999 1051.0 60.0 L 943.0 60.0 L 943.0 171.0 z" fill="rgb(255,217,194)" stroke="black"/>
  <text fill="rgb(9,33,173)" font-size="25" x="969.0" y="102.75">lbsleeve</text>
  <path d="M 1111.0 171.0 L 1219.0 171.0 Q 1229.8 132.6 1207.0 123.0 L 1111.0 60.0 L 1111.0 171.0 z" fill="rgb(255,217,194)" stroke="black"/>
  <text fill="rgb(9,33,173)" font-size="25" x="1137.0" y="134.25">lfsleeve</text>
</svg>
