<?xml version="1.0" encoding="utf-8" ?>
<svg xmlns="http://www.w3.org/2000/svg" xmlns:ev="http://www.w3.org/2001/xml-events" xmlns:xlink="http://www.w3.org/1999/xlink" baseProfile="full" height="279px" version="1.1" width="871.0px">
  <defs/>
  <path d="M 60 219 L 210 219 L 210 96 L 174 60 L 147 60 Q 161.4 104.7 135 117 L 60 219 z" fill="rgb(255,217,194)" stroke="black"/>
  <text fill="rgb(9,33,173)" font-size="25" x="131.0" y="131.5">front_right</text>
  <path d="M 301.0 219.0 L 601.0 219.0 L 526.0 117.0 Q 499.59999999999997 104.7 514.0 60.0 L 487.0 60.0 Q 451.0 96.9796259586823 415.0 60.0 L 388.0 60.0 Q 402.40000000000003 104.7 376.0 117.0 L 301.0 219.0 z" fill="rgb(255,217,194)" stroke="black"/>
  <text fill="rgb(9,33,173)" font-size="25" x="426.0" y="117.0">back</text>
  <path d="M 661.0 219.0 L 811.0 219.0 L 736.0 117.0 Q 709.6 104.7 724.0 60.0 L 697.0 60.0 L 661.0 96.0 L 661.0 219.0 z" fill="rgb(255,217,194)" stroke="black"/>
  <text fill="rgb(9,33,173)" font-size="25" x="690.0" y="131.5">front_left</text>
</svg>
