<?xml version="1.0" encoding="utf-8" ?>
<svg xmlns="http://www.w3.org/2000/svg" xmlns:ev="http://www.w3.org/2001/xml-events" xmlns:xlink="http://www.w3.org/1999/xlink" baseProfile="full" height="288.0px" version="1.1" width="1666.0px">
  <defs/>
  <path d="M 60 213 L 111 213 Q 130.2 159.89999999999998 99 144 L 60 60 L 60 213 z" fill="rgb(255,217,194)" stroke="black"/>
  <text fill="rgb(9,33,173)" font-size="25" x="57.5" y="160.5">rbsleeve</text>
  <path d="M 197.5 213.0 L 236.5 129.0 Q 267.7 113.1 248.5 60.0 L 197.5 60.0 L 197.5 213.0 z" fill="rgb(255,217,194)" stroke="black"/>
  <text fill="rgb(9,33,173)" font-size="25" x="195.0" y="118.5">rfsleeve</text>
  <path d="M 335.0 228.0 Q 467.0 279.0357161520622 599.0 228.0 L 539.0 102.0 L 527.0 60.0 L 407.0 60.0 L 395.0 102.0 L 335.0 228.0 z" fill="rgb(255,217,194)" stroke="black"/>
  <text fill="rgb(9,33,173)" font-size="25" x="442.0" y="133.0">skirt_back</text>
  <path d="M 659.0 228.0 Q 791.0 258.6198709004499 923.0 228.0 L 863.0 102.0 L 851.0 60.0 L 731.0 60.0 L 719.0 102.0 L 659.0 228.0 z" fill="rgb(255,217,194)" stroke="black"/>
  <text fill="rgb(9,33,173)" font-size="25" x="766.0" y="133.0">skirt_front</text>
  <path d="M 995.0 168.0 L 1115.0 168.0 L 1127.0 129.0 Q 1095.8000000000002 113.1 1115.0 60.0 L 1073.0 60.0 Q 1055.0 93.61784474304982 1037.0 60.0 L 995.0 60.0 Q 1014.2 113.1 983.0 129.0 L 995.0 168.0 z" fill="rgb(255,217,194)" stroke="black"/>
  <text fill="rgb(9,33,173)" font-size="25" x="1030.0" y="107.25">top_back</text>
  <path d="M 1199.0 165.0 L 1319.0 165.0 L 1331.0 129.0 Q 1299.8000000000002 113.1 1319.0 60.0 L 1277.0 60.0 L 1259.0 117.0 L 1241.0 60.0 L 1199.0 60.0 Q 1218.1999999999998 113.1 1187.0 129.0 L 1199.0 165.0 z" fill="rgb(255,217,194)" stroke="black"/>
  <text fill="rgb(9,33,173)" font-size="25" x="1234.0" y="108.0">top_front</text>
  <path d="M 1391.0 213.0 L 1430.0 129.0 Q 1461.1999999999998 113.1 1442.0 60.0 L 1391.0 60.0 L 1391.0 213.0 z" fill="rgb(255,217,194)" stroke="black"/>
  <text fill="rgb(9,33,173)" font-size="25" x="1388.5" y="118.5">lbsleeve</text>
  <path d="M 1528.5 213.0 L 1579.5 213.0 Q 1598.6999999999998 159.89999999999998 1567.5 144.0 L 1528.5 60.0 L 1528.5 213.0 z" fill="rgb(255,217,194)" stroke="black"/>
  <text fill="rgb(9,33,173)" font-size="25" x="1526.0" y="160.5">lfsleeve</text>
</svg>
