<?xml version="1.0" encoding="utf-8" ?>
<svg xmlns="http://www.w3.org/2000/svg" xmlns:ev="http://www.w3.org/2001/xml-events" xmlns:xlink="http://www.w3.org/1999/xlink" baseProfile="full" height="306px" version="1.1" width="1714.0px">
  <defs/>
  <path d="M 60 216 L 201 216 Q 227.1 155.70000000000002 192 135 L 60 60 L 60 216 z" fill="rgb(255,217,194)" stroke="black"/>
  <text fill="rgb(9,33,173)" font-size="25" x="103.25" y="159.75">rbsleeve</text>
  <path d="M 261 216 L 393 141 Q 428.09999999999997 120.3 402 60 L 261 60 L 261 216 z" fill="rgb(255,217,194)" stroke="black"/>
  <text fill="rgb(9,33,173)" font-size="25" x="304.25" y="122.25">rfsleeve</text>
  <path d="M 462 246 L 552 246 L 552 63 L 528 60 L 501 60 Q 525.9 118.19999999999999 492 138 L 462 246 z" fill="rgb(255,217,194)" stroke="black"/>
  <text fill="rgb(9,33,173)" font-size="25" x="489.5" y="138.5">front_right</text>
  <path d="M 659.5 159.0 L 671.5 159.0 Q 745.3 158.10000000000002 719.5 60.0 L 695.5 69.0 L 668.5 66.0 L 659.5 159.0 z" fill="rgb(255,217,194)" stroke="black"/>
  <text fill="rgb(9,33,173)" font-size="25" x="657.9" y="105.6">Rhood</text>
  <path d="M 779.5 246.0 L 959.5 246.0 L 929.5 138.0 Q 895.5999999999999 118.19999999999999 920.5 60.0 L 893.5 60.0 L 869.5 69.0 L 845.5 60.0 L 818.5 60.0 Q 843.4000000000001 118.19999999999999 809.5 138.0 L 779.5 246.0 z" fill="rgb(255,217,194)" stroke="black"/>
  <text fill="rgb(9,33,173)" font-size="25" x="844.5" y="122.66666666666667">back</text>
  <path d="M 1028.5 153.0 L 1055.5 150.0 L 1079.5 159.0 Q 1105.3000000000002 60.900000000000006 1031.5 60.0 L 1019.5 60.0 L 1028.5 153.0 z" fill="rgb(255,217,194)" stroke="black"/>
  <text fill="rgb(9,33,173)" font-size="25" x="1017.9000000000001" y="119.4">Lhood</text>
  <path d="M 1139.5 246.0 L 1229.5 246.0 L 1199.5 138.0 Q 1165.6 118.19999999999999 1190.5 60.0 L 1163.5 60.0 L 1139.5 63.0 L 1139.5 246.0 z" fill="rgb(255,217,194)" stroke="black"/>
  <text fill="rgb(9,33,173)" font-size="25" x="1152.0" y="138.5">front_left</text>
  <path d="M 1312.0 216.0 L 1444.0 141.0 Q 1479.1000000000001 120.3 1453.0 60.0 L 1312.0 60.0 L 1312.0 216.0 z" fill="rgb(255,217,194)" stroke="black"/>
  <text fill="rgb(9,33,173)" font-size="25" x="1355.25" y="122.25">lbsleeve</text>
  <path d="M 1513.0 216.0 L 1654.0 216.0 Q 1680.1000000000001 155.70000000000002 1645.0 135.0 L 1513.0 60.0 L 1513.0 216.0 z" fill="rgb(255,217,194)" stroke="black"/>
  <text fill="rgb(9,33,173)" font-size="25" x="1556.25" y="159.75">lfsleeve</text>
</svg>
