<?xml version="1.0" encoding="utf-8" ?>
<svg xmlns="http://www.w3.org/2000/svg" xmlns:ev="http://www.w3.org/2001/xml-events" xmlns:xlink="http://www.w3.org/1999/xlink" baseProfile="full" height="468px" version="1.1" width="634.0px">
  <defs/>
  <path d="M 81 408 L 138 408 L 138 138 L 96 60 L 72 60 Q 93.6 117.3 60 135 L 81 408 z" fill="rgb(255,217,194)" stroke="black"/>
  <text fill="rgb(9,33,173)" font-size="25" x="72.5" y="204.5">front_right</text>
  <path d="M 263.5 408.0 L 377.5 408.0 L 398.5 135.0 Q 364.9 117.3 386.5 60.0 L 362.5 60.0 Q 320.5 346.1305562163376 278.5 60.0 L 254.5 60.0 Q 276.1 117.3 242.5 135.0 L 263.5 408.0 z" fill="rgb(255,217,194)" stroke="black"/>
  <text fill="rgb(9,33,173)" font-size="25" x="295.5" y="168.75">back</text>
  <path d="M 458.5 408.0 L 515.5 408.0 L 536.5 135.0 Q 502.9 117.3 524.5 60.0 L 500.5 60.0 L 458.5 138.0 L 458.5 408.0 z" fill="rgb(255,217,194)" stroke="black"/>
  <text fill="rgb(9,33,173)" font-size="25" x="474.0" y="204.5">front_left</text>
</svg>
