<?xml version="1.0" encoding="utf-8" ?>
<svg xmlns="http://www.w3.org/2000/svg" xmlns:ev="http://www.w3.org/2001/xml-events" xmlns:xlink="http://www.w3.org/1999/xlink" baseProfile="full" height="399px" version="1.1" width="1546.0px">
  <defs/>
  <path d="M 60 339 L 186 339 L 192 60 L 90 60 Q 105.9 144.0 60 156 Q 78.3 165.15 60 339 z" fill="rgb(255,217,194)" stroke="black"/>
  <text fill="rgb(9,33,173)" font-size="25" x="92.6" y="193.8">Rback</text>
  <path d="M 258 339 L 384 339 Q 365.7 165.15 384 156 Q 342.9 142.5 354 60 L 252 60 L 258 339 z" fill="rgb(255,217,194)" stroke="black"/>
  <text fill="rgb(9,33,173)" font-size="25" x="301.4" y="193.8">Rfront</text>
  <path d="M 444 69 L 483 69 L 522 69 L 522 60 L 444 60 L 444 69 z" fill="rgb(255,217,194)" stroke="black"/>
  <text fill="rgb(9,33,173)" font-size="25" x="458.0" y="68.4">wb_back</text>
  <path d="M 588.0 69.0 L 627.0 69.0 L 666.0 69.0 L 666.0 60.0 L 588.0 60.0 L 588.0 69.0 z" fill="rgb(255,217,194)" stroke="black"/>
  <text fill="rgb(9,33,173)" font-size="25" x="602.0" y="68.4">wb_front</text>
  <path d="M 742.0 138.0 L 892.0 138.0 L 892.0 105.0 Q 870.4 96.3 880.0 60.0 L 844.0 60.0 Q 817.0 133.69401920302005 790.0 60.0 L 754.0 60.0 Q 763.6 96.3 742.0 105.0 L 742.0 138.0 z" fill="rgb(255,217,194)" stroke="black"/>
  <text fill="rgb(9,33,173)" font-size="25" x="792.0" y="93.75">top_back</text>
  <path d="M 952.0 138.0 L 1102.0 138.0 L 1102.0 105.0 Q 1080.4 96.3 1090.0 60.0 L 1054.0 60.0 L 1027.0 129.0 L 1000.0 60.0 L 964.0 60.0 Q 973.6 96.3 952.0 105.0 L 952.0 138.0 z" fill="rgb(255,217,194)" stroke="black"/>
  <text fill="rgb(9,33,173)" font-size="25" x="1002.0" y="98.0">top_front</text>
  <path d="M 1168.0 339.0 L 1294.0 339.0 Q 1275.7 165.15 1294.0 156.0 Q 1248.1 144.0 1264.0 60.0 L 1162.0 60.0 L 1168.0 339.0 z" fill="rgb(255,217,194)" stroke="black"/>
  <text fill="rgb(9,33,173)" font-size="25" x="1211.4" y="193.8">Lback</text>
  <path d="M 1354.0 339.0 L 1480.0 339.0 L 1486.0 60.0 L 1384.0 60.0 Q 1395.1 142.5 1354.0 156.0 Q 1372.3 165.15 1354.0 339.0 z" fill="rgb(255,217,194)" stroke="black"/>
  <text fill="rgb(9,33,173)" font-size="25" x="1386.6" y="193.8">Lfront</text>
</svg>
