<?xml version="1.0" encoding="utf-8" ?>
<svg xmlns="http://www.w3.org/2000/svg" xmlns:ev="http://www.w3.org/2001/xml-events" xmlns:xlink="http://www.w3.org/1999/xlink" baseProfile="full" height="258px" version="1.1" width="1486.0px">
  <defs/>
  <path d="M 60 198 L 366 198 L 366 60 L 60 60 L 60 198 z" fill="rgb(255,217,194)" stroke="black"/>
  <text fill="rgb(9,33,173)" font-size="25" x="188.0" y="132.0">skirt_back</text>
  <path d="M 426 81 L 516 81 L 516 60 L 426 60 L 426 81 z" fill="rgb(255,217,194)" stroke="black"/>
  <text fill="rgb(9,33,173)" font-size="25" x="446.0" y="73.5">wb_back</text>
  <path d="M 576 81 L 666 81 L 666 60 L 576 60 L 576 81 z" fill="rgb(255,217,194)" stroke="black"/>
  <text fill="rgb(9,33,173)" font-size="25" x="596.0" y="73.5">wb_front</text>
  <path d="M 736.0 198.0 L 1042.0 198.0 L 1042.0 60.0 L 736.0 60.0 L 736.0 198.0 z" fill="rgb(255,217,194)" stroke="black"/>
  <text fill="rgb(9,33,173)" font-size="25" x="864.0" y="132.0">skirt_front</text>
  <path d="M 1102.0 186.0 L 1234.0 186.0 L 1234.0 150.0 Q 1195.3 126.6 1225.0 60.0 L 1198.0 60.0 Q 1168.0 137.6952221339452 1138.0 60.0 L 1111.0 60.0 Q 1140.7 126.6 1102.0 150.0 L 1102.0 186.0 z" fill="rgb(255,217,194)" stroke="black"/>
  <text fill="rgb(9,33,173)" font-size="25" x="1143.0" y="117.0">top_back</text>
  <path d="M 1294.0 183.0 L 1426.0 183.0 L 1426.0 150.0 Q 1387.3 126.6 1417.0 60.0 L 1390.0 60.0 L 1360.0 87.0 L 1330.0 60.0 L 1303.0 60.0 Q 1332.7 126.6 1294.0 150.0 L 1294.0 183.0 z" fill="rgb(255,217,194)" stroke="black"/>
  <text fill="rgb(9,33,173)" font-size="25" x="1335.0" y="113.33333333333333">top_front</text>
</svg>
