<?xml version="1.0" encoding="utf-8" ?>
<svg xmlns="http://www.w3.org/2000/svg" xmlns:ev="http://www.w3.org/2001/xml-events" xmlns:xlink="http://www.w3.org/1999/xlink" baseProfile="full" height="318.0px" version="1.1" width="1741.8px">
  <defs/>
  <path d="M 60 219 L 165 219 Q 182.7 173.4 156 159 L 60 60 L 60 219 z" fill="rgb(255,217,194)" stroke="black"/>
  <text fill="rgb(9,33,173)" font-size="25" x="85.25" y="167.25">rbsleeve</text>
  <path d="M 225.25 219.0 L 321.25 120.0 Q 347.95 105.6 330.25 60.0 L 225.25 60.0 L 225.25 219.0 z" fill="rgb(255,217,194)" stroke="black"/>
  <text fill="rgb(9,33,173)" font-size="25" x="250.5" y="117.75">rfsleeve</text>
  <path d="M 390.5 258.0 L 435.5 258.0 Q 488.75 92.25000000000001 486.5 60.0 L 420.5 60.0 Q 435.2 141.75 390.5 153.0 Q 401.0 158.25 390.5 258.0 z" fill="rgb(255,217,194)" stroke="black"/>
  <text fill="rgb(9,33,173)" font-size="25" x="399.7" y="160.8">Rback</text>
  <path d="M 597.5 258.0 L 642.5 258.0 Q 632.0 158.25 642.5 153.0 Q 602.45 140.25 612.5 60.0 L 546.5 60.0 Q 544.25 92.25 597.5 258.0 z" fill="rgb(255,217,194)" stroke="black"/>
  <text fill="rgb(9,33,173)" font-size="25" x="583.3" y="160.8">Rfront</text>
  <path d="M 703.3 168.0 L 772.3 168.0 L 841.3 168.0 L 829.3 120.0 Q 802.5999999999999 105.6 820.3 60.0 L 796.3 60.0 Q 772.3 102.35634141221844 748.3 60.0 L 724.3 60.0 Q 742.0 105.6 715.3 120.0 L 703.3 168.0 z" fill="rgb(255,217,194)" stroke="black"/>
  <text fill="rgb(9,33,173)" font-size="25" x="747.3000000000001" y="112.33333333333333">up_back</text>
  <path d="M 901.3 165.0 L 970.3 165.0 L 1039.3 165.0 L 1027.3 120.0 Q 1000.5999999999999 105.6 1018.3 60.0 L 994.3 60.0 L 970.3 75.0 L 946.3 60.0 L 922.3 60.0 Q 940.0 105.6 913.3 120.0 L 901.3 165.0 z" fill="rgb(255,217,194)" stroke="black"/>
  <text fill="rgb(9,33,173)" font-size="25" x="945.3" y="108.0">up_front</text>
  <path d="M 1150.3 258.0 L 1195.3 258.0 Q 1184.8 158.25 1195.3 153.0 Q 1150.6 141.75 1165.3 60.0 L 1099.3 60.0 Q 1097.05 92.25 1150.3 258.0 z" fill="rgb(255,217,194)" stroke="black"/>
  <text fill="rgb(9,33,173)" font-size="25" x="1136.1" y="160.8">Lback</text>
  <path d="M 1255.3 258.0 L 1300.3 258.0 Q 1353.55 92.25000000000001 1351.3 60.0 L 1285.3 60.0 Q 1295.35 140.25 1255.3 153.0 Q 1265.8 158.25 1255.3 258.0 z" fill="rgb(255,217,194)" stroke="black"/>
  <text fill="rgb(9,33,173)" font-size="25" x="1264.5" y="160.8">Lfront</text>
  <path d="M 1411.3 219.0 L 1507.3 120.0 Q 1534.0 105.6 1516.3 60.0 L 1411.3 60.0 L 1411.3 219.0 z" fill="rgb(255,217,194)" stroke="black"/>
  <text fill="rgb(9,33,173)" font-size="25" x="1436.55" y="117.75">lbsleeve</text>
  <path d="M 1576.55 219.0 L 1681.55 219.0 Q 1699.25 173.4 1672.55 159.0 L 1576.55 60.0 L 1576.55 219.0 z" fill="rgb(255,217,194)" stroke="black"/>
  <text fill="rgb(9,33,173)" font-size="25" x="1601.8" y="167.25">lfsleeve</text>
</svg>
