<?xml version="1.0" encoding="utf-8" ?>
<svg xmlns="http://www.w3.org/2000/svg" xmlns:ev="http://www.w3.org/2001/xml-events" xmlns:xlink="http://www.w3.org/1999/xlink" baseProfile="full" height="369.0px" version="1.1" width="1810.0px">
  <defs/>
  <path d="M 60 156 L 153 156 Q 166.2 113.4 141 102 L 60 60 L 60 156 z" fill="rgb(255,217,194)" stroke="black"/>
  <text fill="rgb(9,33,173)" font-size="25" x="78.5" y="121.5">rbsleeve</text>
  <path d="M 218.5 156.0 L 299.5 114.0 Q 324.70000000000005 102.6 311.5 60.0 L 218.5 60.0 L 218.5 156.0 z" fill="rgb(255,217,194)" stroke="black"/>
  <text fill="rgb(9,33,173)" font-size="25" x="237.0" y="100.5">rfsleeve</text>
  <path d="M 377.0 309.0 L 422.0 309.0 Q 488.0 100.5 485.0 60.0 L 407.0 60.0 Q 421.7 141.75 377.0 153.0 Q 392.6 160.8 377.0 309.0 z" fill="rgb(255,217,194)" stroke="black"/>
  <text fill="rgb(9,33,173)" font-size="25" x="388.6" y="181.2">Rback</text>
  <path d="M 608.0 309.0 L 653.0 309.0 Q 637.4 160.8 653.0 153.0 Q 612.95 140.25 623.0 60.0 L 545.0 60.0 Q 542.0 100.5 608.0 309.0 z" fill="rgb(255,217,194)" stroke="black"/>
  <text fill="rgb(9,33,173)" font-size="25" x="591.4" y="181.2">Rfront</text>
  <path d="M 713.0 168.0 L 794.0 168.0 L 875.0 168.0 L 875.0 117.0 Q 847.7 105.9 860.0 60.0 L 812.0 60.0 Q 794.0 62.59247928889717 776.0 60.0 L 728.0 60.0 Q 740.3 105.9 713.0 117.0 L 713.0 168.0 z" fill="rgb(255,217,194)" stroke="black"/>
  <text fill="rgb(9,33,173)" font-size="25" x="769.0" y="111.66666666666667">up_back</text>
  <path d="M 935.0 165.0 L 1016.0 165.0 L 1097.0 165.0 L 1097.0 114.0 Q 1070.9 103.8 1082.0 60.0 L 1034.0 60.0 L 1016.0 138.0 L 998.0 60.0 L 950.0 60.0 Q 961.1 103.8 935.0 114.0 L 935.0 165.0 z" fill="rgb(255,217,194)" stroke="black"/>
  <text fill="rgb(9,33,173)" font-size="25" x="991.0" y="113.1">up_front</text>
  <path d="M 1220.0 309.0 L 1265.0 309.0 Q 1249.4 160.8 1265.0 153.0 Q 1220.3 141.75 1235.0 60.0 L 1157.0 60.0 Q 1154.0 100.5 1220.0 309.0 z" fill="rgb(255,217,194)" stroke="black"/>
  <text fill="rgb(9,33,173)" font-size="25" x="1203.4" y="181.2">Lback</text>
  <path d="M 1325.0 309.0 L 1370.0 309.0 Q 1436.0 100.5 1433.0 60.0 L 1355.0 60.0 Q 1365.05 140.25 1325.0 153.0 Q 1340.6 160.8 1325.0 309.0 z" fill="rgb(255,217,194)" stroke="black"/>
  <text fill="rgb(9,33,173)" font-size="25" x="1336.6" y="181.2">Lfront</text>
  <path d="M 1493.0 156.0 L 1574.0 114.0 Q 1599.1999999999998 102.6 1586.0 60.0 L 1493.0 60.0 L 1493.0 156.0 z" fill="rgb(255,217,194)" stroke="black"/>
  <text fill="rgb(9,33,173)" font-size="25" x="1511.5" y="100.5">lbsleeve</text>
  <path d="M 1651.5 156.0 L 1744.5 156.0 Q 1757.6999999999998 113.4 1732.5 102.0 L 1651.5 60.0 L 1651.5 156.0 z" fill="rgb(255,217,194)" stroke="black"/>
  <text fill="rgb(9,33,173)" font-size="25" x="1670.0" y="121.5">lfsleeve</text>
</svg>
