<?xml version="1.0" encoding="utf-8" ?>
<svg xmlns="http://www.w3.org/2000/svg" xmlns:ev="http://www.w3.org/2001/xml-events" xmlns:xlink="http://www.w3.org/1999/xlink" baseProfile="full" height="339px" version="1.1" width="652.0px">
  <defs/>
  <path d="M 60 279 L 144 279 L 144 114 L 123 60 L 90 60 Q 124.5 134.99999999999997 81 162 L 60 279 z" fill="rgb(255,217,194)" stroke="black"/>
  <text fill="rgb(9,33,173)" font-size="25" x="82.0" y="162.0">front_right</text>
  <path d="M 252.0 279.0 L 420.0 279.0 L 399.0 162.0 Q 355.5 135.0 390.0 60.0 L 357.0 60.0 Q 336.0 168.2145194960618 315.0 60.0 L 282.0 60.0 Q 316.5 134.99999999999997 273.0 162.0 L 252.0 279.0 z" fill="rgb(255,217,194)" stroke="black"/>
  <text fill="rgb(9,33,173)" font-size="25" x="311.0" y="143.25">back</text>
  <path d="M 480.0 279.0 L 564.0 279.0 L 543.0 162.0 Q 499.49999999999994 135.0 534.0 60.0 L 501.0 60.0 L 480.0 114.0 L 480.0 279.0 z" fill="rgb(255,217,194)" stroke="black"/>
  <text fill="rgb(9,33,173)" font-size="25" x="492.0" y="162.0">front_left</text>
</svg>
