<?xml version="1.0" encoding="utf-8" ?>
<svg xmlns="http://www.w3.org/2000/svg" xmlns:ev="http://www.w3.org/2001/xml-events" xmlns:xlink="http://www.w3.org/1999/xlink" baseProfile="full" height="249px" version="1.1" width="1620px">
  <defs/>
  <path d="M 60 189 L 201 189 Q 231.3 111.60000000000001 186 87 L 60 60 L 60 189 z" fill="rgb(255,217,194)" stroke="black"/>
  <text fill="rgb(9,33,173)" font-size="25" x="101.75" y="134.25">rbsleeve</text>
  <path d="M 261 189 L 387 162 Q 432.3 137.4 402 60 L 261 60 L 261 189 z" fill="rgb(255,217,194)" stroke="black"/>
  <text fill="rgb(9,33,173)" font-size="25" x="302.75" y="120.75">rfsleeve</text>
  <path d="M 483 189 L 609 189 L 630 162 Q 584.7 137.4 615 60 L 591 60 L 546 69 L 501 60 L 477 60 Q 507.3 137.39999999999998 462 162 L 483 189 z" fill="rgb(255,217,194)" stroke="black"/>
  <text fill="rgb(9,33,173)" font-size="25" x="521.0" y="115.33333333333333">back</text>
  <path d="M 711 189 L 837 189 L 858 159 Q 813.9 135.3 843 60 L 819 60 L 774 81 L 729 60 L 705 60 Q 734.1 135.3 690 159 L 711 189 z" fill="rgb(255,217,194)" stroke="black"/>
  <text fill="rgb(9,33,173)" font-size="25" x="749.0" y="116.0">front</text>
  <path d="M 930 159 L 999 165 Q 1053.9 144.3 1008 78 L 966 87 L 918 60 L 930 159 z" fill="rgb(255,217,194)" stroke="black"/>
  <text fill="rgb(9,33,173)" font-size="25" x="939.2" y="112.8">Rhood</text>
  <path d="M 1068 165 L 1116 138 L 1158 147 Q 1203.9 80.69999999999999 1149 60 L 1080 66 L 1068 165 z" fill="rgb(255,217,194)" stroke="black"/>
  <text fill="rgb(9,33,173)" font-size="25" x="1089.2" y="118.2">Lhood</text>
  <path d="M 1218 189 L 1344 162 Q 1389.3 137.4 1359 60 L 1218 60 L 1218 189 z" fill="rgb(255,217,194)" stroke="black"/>
  <text fill="rgb(9,33,173)" font-size="25" x="1259.75" y="120.75">lbsleeve</text>
  <path d="M 1419 189 L 1560 189 Q 1590.3 111.60000000000001 1545 87 L 1419 60 L 1419 189 z" fill="rgb(255,217,194)" stroke="black"/>
  <text fill="rgb(9,33,173)" font-size="25" x="1460.75" y="134.25">lfsleeve</text>
</svg>
