<?xml version="1.0" encoding="utf-8" ?>
<svg xmlns="http://www.w3.org/2000/svg" xmlns:ev="http://www.w3.org/2001/xml-events" xmlns:xlink="http://www.w3.org/1999/xlink" baseProfile="full" height="381px" version="1.1" width="1558.0px">
  <defs/>
  <path d="M 60 321 L 138 321 L 201 60 L 90 60 Q 104.7 141.75 60 153 Q 76.8 161.4 60 321 z" fill="rgb(255,217,194)" stroke="black"/>
  <text fill="rgb(9,33,173)" font-size="25" x="84.8" y="186.0">Rback</text>
  <path d="M 324 321 L 402 321 Q 385.2 161.4 402 153 Q 361.95 140.25 372 60 L 261 60 L 324 321 z" fill="rgb(255,217,194)" stroke="black"/>
  <text fill="rgb(9,33,173)" font-size="25" x="327.2" y="186.0">Rfront</text>
  <path d="M 462 78 L 501 78 L 540 78 L 540 60 L 462 60 L 462 78 z" fill="rgb(255,217,194)" stroke="black"/>
  <text fill="rgb(9,33,173)" font-size="25" x="476.0" y="73.8">wb_back</text>
  <path d="M 606.0 78.0 L 645.0 78.0 L 684.0 78.0 L 684.0 60.0 L 606.0 60.0 L 606.0 78.0 z" fill="rgb(255,217,194)" stroke="black"/>
  <text fill="rgb(9,33,173)" font-size="25" x="620.0" y="73.8">wb_front</text>
  <path d="M 760.0 180.0 L 898.0 180.0 L 898.0 117.0 Q 871.6 104.7 886.0 60.0 L 865.0 60.0 Q 829.0 88.94972396065943 793.0 60.0 L 772.0 60.0 Q 786.4 104.7 760.0 117.0 L 760.0 180.0 z" fill="rgb(255,217,194)" stroke="black"/>
  <text fill="rgb(9,33,173)" font-size="25" x="804.0" y="107.25">top_back</text>
  <path d="M 958.0 180.0 L 1096.0 180.0 L 1096.0 114.0 Q 1070.8000000000002 102.6 1084.0 60.0 L 1063.0 60.0 L 1027.0 90.0 L 991.0 60.0 L 970.0 60.0 Q 983.2 102.6 958.0 114.0 L 958.0 180.0 z" fill="rgb(255,217,194)" stroke="black"/>
  <text fill="rgb(9,33,173)" font-size="25" x="1002.0" y="105.0">top_front</text>
  <path d="M 1219.0 321.0 L 1297.0 321.0 Q 1280.2 161.4 1297.0 153.0 Q 1252.3 141.75 1267.0 60.0 L 1156.0 60.0 L 1219.0 321.0 z" fill="rgb(255,217,194)" stroke="black"/>
  <text fill="rgb(9,33,173)" font-size="25" x="1222.2" y="186.0">Lback</text>
  <path d="M 1357.0 321.0 L 1435.0 321.0 L 1498.0 60.0 L 1387.0 60.0 Q 1397.05 140.25 1357.0 153.0 Q 1373.8 161.4 1357.0 321.0 z" fill="rgb(255,217,194)" stroke="black"/>
  <text fill="rgb(9,33,173)" font-size="25" x="1381.8" y="186.0">Lfront</text>
</svg>
