<?xml version="1.0" encoding="utf-8" ?>
<svg xmlns="http://www.w3.org/2000/svg" xmlns:ev="http://www.w3.org/2001/xml-events" xmlns:xlink="http://www.w3.org/1999/xlink" baseProfile="full" height="261px" version="1.1" width="1606.0px">
  <defs/>
  <path d="M 60 201 L 153 201 L 201 60 L 90 60 Q 99.9 132.75 60 141 Q 66.0 144.0 60 201 z" fill="rgb(255,217,194)" stroke="black"/>
  <text fill="rgb(9,33,173)" font-size="25" x="87.8" y="135.6">Rback</text>
  <path d="M 309 201 L 402 201 Q 396.0 144.0 402 141 Q 366.15 131.25 372 60 L 261 60 L 309 201 z" fill="rgb(255,217,194)" stroke="black"/>
  <text fill="rgb(9,33,173)" font-size="25" x="324.2" y="135.6">Rfront</text>
  <path d="M 462 72 L 501 72 L 540 72 L 540 60 L 462 60 L 462 72 z" fill="rgb(255,217,194)" stroke="black"/>
  <text fill="rgb(9,33,173)" font-size="25" x="476.0" y="70.2">wb_back</text>
  <path d="M 606.0 72.0 L 645.0 72.0 L 684.0 72.0 L 684.0 60.0 L 606.0 60.0 L 606.0 72.0 z" fill="rgb(255,217,194)" stroke="black"/>
  <text fill="rgb(9,33,173)" font-size="25" x="620.0" y="70.2">wb_front</text>
  <path d="M 760.0 150.0 L 922.0 150.0 L 922.0 132.0 Q 889.6 115.2 910.0 60.0 L 862.0 60.0 Q 841.0 116.9298818795993 820.0 60.0 L 772.0 60.0 Q 792.4 115.2 760.0 132.0 L 760.0 150.0 z" fill="rgb(255,217,194)" stroke="black"/>
  <text fill="rgb(9,33,173)" font-size="25" x="816.0" y="103.5">top_back</text>
  <path d="M 982.0 150.0 L 1144.0 150.0 L 1144.0 132.0 Q 1111.6000000000001 115.2 1132.0 60.0 L 1084.0 60.0 L 1063.0 144.0 L 1042.0 60.0 L 994.0 60.0 Q 1014.4 115.2 982.0 132.0 L 982.0 150.0 z" fill="rgb(255,217,194)" stroke="black"/>
  <text fill="rgb(9,33,173)" font-size="25" x="1038.0" y="108.33333333333333">top_front</text>
  <path d="M 1252.0 201.0 L 1345.0 201.0 Q 1339.0 144.0 1345.0 141.0 Q 1305.1 132.75 1315.0 60.0 L 1204.0 60.0 L 1252.0 201.0 z" fill="rgb(255,217,194)" stroke="black"/>
  <text fill="rgb(9,33,173)" font-size="25" x="1267.2" y="135.6">Lback</text>
  <path d="M 1405.0 201.0 L 1498.0 201.0 L 1546.0 60.0 L 1435.0 60.0 Q 1440.85 131.25 1405.0 141.0 Q 1411.0 144.0 1405.0 201.0 z" fill="rgb(255,217,194)" stroke="black"/>
  <text fill="rgb(9,33,173)" font-size="25" x="1432.8" y="135.6">Lfront</text>
</svg>
