<?xml version="1.0" encoding="utf-8" ?>
<svg xmlns="http://www.w3.org/2000/svg" xmlns:ev="http://www.w3.org/2001/xml-events" xmlns:xlink="http://www.w3.org/1999/xlink" baseProfile="full" height="258px" version="1.1" width="1128px">
  <defs/>
  <path d="M 60 198 L 138 198 Q 160.20000000000002 81.60000000000001 156 60 L 90 60 Q 104.7 141.75 60 153 Q 64.5 155.25 60 198 z" fill="rgb(255,217,194)" stroke="black"/>
  <text fill="rgb(9,33,173)" font-size="25" x="75.8" y="136.8">Rback</text>
  <path d="M 234 198 L 312 198 Q 307.5 155.25 312 153 Q 271.95 140.25 282 60 L 216 60 Q 211.79999999999998 81.60000000000001 234 198 z" fill="rgb(255,217,194)" stroke="black"/>
  <text fill="rgb(9,33,173)" font-size="25" x="246.2" y="136.8">Rfront</text>
  <path d="M 384 168 L 453 168 L 522 168 L 534 108 Q 511.2 98.39999999999999 522 60 L 489 60 Q 453.0 125.09568008121056 417 60 L 384 60 Q 394.8 98.39999999999999 372 108 L 384 168 z" fill="rgb(255,217,194)" stroke="black"/>
  <text fill="rgb(9,33,173)" font-size="25" x="428.0" y="109.66666666666667">up_back</text>
  <path d="M 606 165 L 675 165 L 744 165 L 756 108 Q 733.1999999999999 98.39999999999999 744 60 L 711 60 L 675 63 L 639 60 L 606 60 Q 616.8000000000001 98.39999999999999 594 108 L 606 165 z" fill="rgb(255,217,194)" stroke="black"/>
  <text fill="rgb(9,33,173)" font-size="25" x="650.0" y="104.4">up_front</text>
  <path d="M 834 198 L 912 198 Q 907.5 155.25 912 153 Q 867.3 141.75 882 60 L 816 60 Q 811.8000000000001 81.60000000000001 834 198 z" fill="rgb(255,217,194)" stroke="black"/>
  <text fill="rgb(9,33,173)" font-size="25" x="846.2" y="136.8">Lback</text>
  <path d="M 972 198 L 1050 198 Q 1072.2 81.60000000000001 1068 60 L 1002 60 Q 1012.05 140.25 972 153 Q 976.5 155.25 972 198 z" fill="rgb(255,217,194)" stroke="black"/>
  <text fill="rgb(9,33,173)" font-size="25" x="987.8" y="136.8">Lfront</text>
</svg>
