<?xml version="1.0" encoding="utf-8" ?>
<svg xmlns="http://www.w3.org/2000/svg" xmlns:ev="http://www.w3.org/2001/xml-events" xmlns:xlink="http://www.w3.org/1999/xlink" baseProfile="full" height="273.0px" version="1.1" width="1678.0px">
  <defs/>
  <path d="M 60 138 L 87 138 Q 109.8 78.60000000000001 75 60 L 60 60 L 60 138 z" fill="rgb(255,217,194)" stroke="black"/>
  <text fill="rgb(9,33,173)" font-size="25" x="45.5" y="102.0">rbsleeve</text>
  <path d="M 185.5 138.0 L 200.5 138.0 Q 235.3 119.39999999999999 212.5 60.0 L 185.5 60.0 L 185.5 138.0 z" fill="rgb(255,217,194)" stroke="black"/>
  <text fill="rgb(9,33,173)" font-size="25" x="171.0" y="102.0">rfsleeve</text>
  <path d="M 311.0 213.0 L 428.0 213.0 Q 412.7 81.60000000000002 401.0 60.0 L 341.0 60.0 Q 355.7 141.75 311.0 153.0 Q 317.0 156.0 311.0 213.0 z" fill="rgb(255,217,194)" stroke="black"/>
  <text fill="rgb(9,33,173)" font-size="25" x="333.4" y="142.8">Rback</text>
  <path d="M 488.0 213.0 L 605.0 213.0 Q 599.0 156.0 605.0 153.0 Q 564.95 140.25 575.0 60.0 L 515.0 60.0 Q 503.3 81.60000000000001 488.0 213.0 z" fill="rgb(255,217,194)" stroke="black"/>
  <text fill="rgb(9,33,173)" font-size="25" x="532.6" y="142.8">Rfront</text>
  <path d="M 677.0 168.0 L 737.0 168.0 L 797.0 168.0 L 809.0 138.0 Q 774.1999999999999 119.39999999999999 797.0 60.0 L 773.0 60.0 Q 737.0 152.09441419035736 701.0 60.0 L 677.0 60.0 Q 699.8000000000001 119.39999999999999 665.0 138.0 L 677.0 168.0 z" fill="rgb(255,217,194)" stroke="black"/>
  <text fill="rgb(9,33,173)" font-size="25" x="712.0" y="116.33333333333333">up_back</text>
  <path d="M 881.0 165.0 L 941.0 165.0 L 1001.0 165.0 L 1013.0 138.0 Q 978.1999999999999 119.39999999999999 1001.0 60.0 L 977.0 60.0 L 941.0 135.0 L 905.0 60.0 L 881.0 60.0 Q 903.8000000000001 119.39999999999999 869.0 138.0 L 881.0 165.0 z" fill="rgb(255,217,194)" stroke="black"/>
  <text fill="rgb(9,33,173)" font-size="25" x="916.0" y="117.6">up_front</text>
  <path d="M 1073.0 213.0 L 1190.0 213.0 Q 1184.0 156.0 1190.0 153.0 Q 1145.3 141.75 1160.0 60.0 L 1100.0 60.0 Q 1088.3 81.60000000000001 1073.0 213.0 z" fill="rgb(255,217,194)" stroke="black"/>
  <text fill="rgb(9,33,173)" font-size="25" x="1117.6" y="142.8">Lback</text>
  <path d="M 1250.0 213.0 L 1367.0 213.0 Q 1351.7 81.60000000000002 1340.0 60.0 L 1280.0 60.0 Q 1290.05 140.25 1250.0 153.0 Q 1256.0 156.0 1250.0 213.0 z" fill="rgb(255,217,194)" stroke="black"/>
  <text fill="rgb(9,33,173)" font-size="25" x="1272.4" y="142.8">Lfront</text>
  <path d="M 1427.0 138.0 L 1442.0 138.0 Q 1476.8 119.39999999999999 1454.0 60.0 L 1427.0 60.0 L 1427.0 138.0 z" fill="rgb(255,217,194)" stroke="black"/>
  <text fill="rgb(9,33,173)" font-size="25" x="1412.5" y="102.0">lbsleeve</text>
  <path d="M 1552.5 138.0 L 1579.5 138.0 Q 1602.3 78.60000000000001 1567.5 60.0 L 1552.5 60.0 L 1552.5 138.0 z" fill="rgb(255,217,194)" stroke="black"/>
  <text fill="rgb(9,33,173)" font-size="25" x="1538.0" y="102.0">lfsleeve</text>
</svg>
