<?xml version="1.0" encoding="utf-8" ?>
<svg xmlns="http://www.w3.org/2000/svg" xmlns:ev="http://www.w3.org/2001/xml-events" xmlns:xlink="http://www.w3.org/1999/xlink" baseProfile="full" height="405px" version="1.1" width="1570.0px">
  <defs/>
  <path d="M 60 345 L 372 345 L 372 60 L 60 60 L 60 345 z" fill="rgb(255,217,194)" stroke="black"/>
  <text fill="rgb(9,33,173)" font-size="25" x="191.0" y="205.5">skirt_back</text>
  <path d="M 432 78 L 522 78 L 522 60 L 432 60 L 432 78 z" fill="rgb(255,217,194)" stroke="black"/>
  <text fill="rgb(9,33,173)" font-size="25" x="452.0" y="72.0">wb_back</text>
  <path d="M 582 78 L 672 78 L 672 60 L 582 60 L 582 78 z" fill="rgb(255,217,194)" stroke="black"/>
  <text fill="rgb(9,33,173)" font-size="25" x="602.0" y="72.0">wb_front</text>
  <path d="M 742.0 345.0 L 1054.0 345.0 L 1054.0 60.0 L 742.0 60.0 L 742.0 345.0 z" fill="rgb(255,217,194)" stroke="black"/>
  <text fill="rgb(9,33,173)" font-size="25" x="873.0" y="205.5">skirt_front</text>
  <path d="M 1114.0 180.0 L 1282.0 180.0 L 1282.0 135.0 Q 1247.5 118.5 1267.0 60.0 L 1219.0 60.0 Q 1198.0 128.24155329560227 1177.0 60.0 L 1129.0 60.0 Q 1148.5 118.5 1114.0 135.0 L 1114.0 180.0 z" fill="rgb(255,217,194)" stroke="black"/>
  <text fill="rgb(9,33,173)" font-size="25" x="1173.0" y="111.75">top_back</text>
  <path d="M 1342.0 180.0 L 1510.0 180.0 L 1510.0 135.0 Q 1475.5 118.5 1495.0 60.0 L 1447.0 60.0 L 1426.0 114.0 L 1405.0 60.0 L 1357.0 60.0 Q 1376.5 118.5 1342.0 135.0 L 1342.0 180.0 z" fill="rgb(255,217,194)" stroke="black"/>
  <text fill="rgb(9,33,173)" font-size="25" x="1401.0" y="112.33333333333333">top_front</text>
</svg>
