<?xml version="1.0" encoding="utf-8" ?>
<svg xmlns="http://www.w3.org/2000/svg" xmlns:ev="http://www.w3.org/2001/xml-events" xmlns:xlink="http://www.w3.org/1999/xlink" baseProfile="full" height="294.0px" version="1.1" width="1750.0px">
  <defs/>
  <path d="M 60 180 L 135 180 Q 174.6 91.2 123 60 L 60 96 L 60 180 z" fill="rgb(255,217,194)" stroke="black"/>
  <text fill="rgb(9,33,173)" font-size="25" x="69.5" y="132.0">rbsleeve</text>
  <path d="M 209.5 144.0 L 272.5 180.0 Q 324.1 148.8 284.5 60.0 L 209.5 60.0 L 209.5 144.0 z" fill="rgb(255,217,194)" stroke="black"/>
  <text fill="rgb(9,33,173)" font-size="25" x="219.0" y="114.0">rfsleeve</text>
  <path d="M 359.0 234.0 L 701.0 234.0 L 611.0 180.0 Q 558.5 150.0 596.0 60.0 L 572.0 60.0 L 530.0 69.0 L 488.0 60.0 L 464.0 60.0 Q 501.5 150.0 449.0 180.0 L 359.0 234.0 z" fill="rgb(255,217,194)" stroke="black"/>
  <text fill="rgb(9,33,173)" font-size="25" x="505.0" y="129.33333333333331">back</text>
  <path d="M 761.0 234.0 L 1103.0 234.0 L 1013.0 180.0 Q 960.5 150.0 998.0 60.0 L 974.0 60.0 L 932.0 60.0 L 890.0 60.0 L 866.0 60.0 Q 903.5 150.0 851.0 180.0 L 761.0 234.0 z" fill="rgb(255,217,194)" stroke="black"/>
  <text fill="rgb(9,33,173)" font-size="25" x="907.0" y="128.33333333333331">front</text>
  <path d="M 1172.0 153.0 L 1223.0 153.0 Q 1286.0 139.5 1247.0 60.0 L 1208.0 69.0 L 1163.0 60.0 L 1172.0 153.0 z" fill="rgb(255,217,194)" stroke="black"/>
  <text fill="rgb(9,33,173)" font-size="25" x="1177.6" y="102.0">Rhood</text>
  <path d="M 1307.0 153.0 L 1352.0 144.0 L 1391.0 153.0 Q 1430.0 73.5 1367.0 60.0 L 1316.0 60.0 L 1307.0 153.0 z" fill="rgb(255,217,194)" stroke="black"/>
  <text fill="rgb(9,33,173)" font-size="25" x="1321.6" y="117.0">Lhood</text>
  <path d="M 1451.0 144.0 L 1514.0 180.0 Q 1565.6 148.8 1526.0 60.0 L 1451.0 60.0 L 1451.0 144.0 z" fill="rgb(255,217,194)" stroke="black"/>
  <text fill="rgb(9,33,173)" font-size="25" x="1460.5" y="114.0">lbsleeve</text>
  <path d="M 1600.5 180.0 L 1675.5 180.0 Q 1715.1 91.2 1663.5 60.0 L 1600.5 96.0 L 1600.5 180.0 z" fill="rgb(255,217,194)" stroke="black"/>
  <text fill="rgb(9,33,173)" font-size="25" x="1610.0" y="132.0">lfsleeve</text>
</svg>
