<?xml version="1.0" encoding="utf-8" ?>
<svg xmlns="http://www.w3.org/2000/svg" xmlns:ev="http://www.w3.org/2001/xml-events" xmlns:xlink="http://www.w3.org/1999/xlink" baseProfile="full" height="360.0px" version="1.1" width="1264.0px">
  <defs/>
  <path d="M 60 150 L 84 150 Q 93.6 113.7 72 105 L 60 60 L 60 150 z" fill="rgb(255,217,194)" stroke="black"/>
  <text fill="rgb(9,33,173)" font-size="25" x="44.0" y="119.25">rbsleeve</text>
  <path d="M 184.0 150.0 L 196.0 105.0 Q 217.6 96.3 208.0 60.0 L 184.0 60.0 L 184.0 150.0 z" fill="rgb(255,217,194)" stroke="black"/>
  <text fill="rgb(9,33,173)" font-size="25" x="168.0" y="96.75">rfsleeve</text>
  <path d="M 308.0 300.0 L 602.0 300.0 L 524.0 108.0 Q 502.09999999999997 97.19999999999999 515.0 60.0 L 479.0 60.0 Q 455.0 213.30072618985628 431.0 60.0 L 395.0 60.0 Q 407.9 97.19999999999999 386.0 108.0 L 308.0 300.0 z" fill="rgb(255,217,194)" stroke="black"/>
  <text fill="rgb(9,33,173)" font-size="25" x="430.0" y="135.0">back</text>
  <path d="M 662.0 300.0 L 956.0 300.0 L 878.0 108.0 Q 856.0999999999999 97.19999999999999 869.0 60.0 L 833.0 60.0 L 809.0 120.0 L 785.0 60.0 L 749.0 60.0 Q 761.9000000000001 97.19999999999999 740.0 108.0 L 662.0 300.0 z" fill="rgb(255,217,194)" stroke="black"/>
  <text fill="rgb(9,33,173)" font-size="25" x="784.0" y="133.66666666666666">front</text>
  <path d="M 1016.0 150.0 L 1028.0 105.0 Q 1049.6 96.3 1040.0 60.0 L 1016.0 60.0 L 1016.0 150.0 z" fill="rgb(255,217,194)" stroke="black"/>
  <text fill="rgb(9,33,173)" font-size="25" x="1000.0" y="96.75">lbsleeve</text>
  <path d="M 1140.0 150.0 L 1164.0 150.0 Q 1173.6 113.7 1152.0 105.0 L 1140.0 60.0 L 1140.0 150.0 z" fill="rgb(255,217,194)" stroke="black"/>
  <text fill="rgb(9,33,173)" font-size="25" x="1124.0" y="119.25">lfsleeve</text>
</svg>
