<?xml version="1.0" encoding="utf-8" ?>
<svg xmlns="http://www.w3.org/2000/svg" xmlns:ev="http://www.w3.org/2001/xml-events" xmlns:xlink="http://www.w3.org/1999/xlink" baseProfile="full" height="471.0px" version="1.1" width="1285.0px">
  <defs/>
  <path d="M 60 165 L 96 165 Q 127.5 85.5 81 60 L 60 114 L 60 165 z" fill="rgb(255,217,194)" stroke="black"/>
  <text fill="rgb(9,33,173)" font-size="25" x="49.25" y="129.0">rbsleeve</text>
  <path d="M 189.25 111.0 L 210.25 165.0 Q 256.75 139.5 225.25 60.0 L 189.25 60.0 L 189.25 111.0 z" fill="rgb(255,217,194)" stroke="black"/>
  <text fill="rgb(9,33,173)" font-size="25" x="178.5" y="102.0">rfsleeve</text>
  <path d="M 318.5 411.0 L 612.5 411.0 L 552.5 165.0 Q 506.9 138.3 540.5 60.0 L 498.5 60.0 Q 465.5 247.98963767438613 432.5 60.0 L 390.5 60.0 Q 424.1 138.3 378.5 165.0 L 318.5 411.0 z" fill="rgb(255,217,194)" stroke="black"/>
  <text fill="rgb(9,33,173)" font-size="25" x="440.5" y="177.0">back</text>
  <path d="M 672.5 411.0 L 966.5 411.0 L 906.5 165.0 Q 860.9 138.3 894.5 60.0 L 852.5 60.0 L 819.5 162.0 L 786.5 60.0 L 744.5 60.0 Q 778.1 138.3 732.5 165.0 L 672.5 411.0 z" fill="rgb(255,217,194)" stroke="black"/>
  <text fill="rgb(9,33,173)" font-size="25" x="794.5" y="175.66666666666666">front</text>
  <path d="M 1026.5 111.0 L 1047.5 165.0 Q 1094.0 139.5 1062.5 60.0 L 1026.5 60.0 L 1026.5 111.0 z" fill="rgb(255,217,194)" stroke="black"/>
  <text fill="rgb(9,33,173)" font-size="25" x="1015.75" y="102.0">lbsleeve</text>
  <path d="M 1155.75 165.0 L 1191.75 165.0 Q 1223.25 85.5 1176.75 60.0 L 1155.75 114.0 L 1155.75 165.0 z" fill="rgb(255,217,194)" stroke="black"/>
  <text fill="rgb(9,33,173)" font-size="25" x="1145.0" y="129.0">lfsleeve</text>
</svg>
