<?xml version="1.0" encoding="utf-8" ?>
<svg xmlns="http://www.w3.org/2000/svg" xmlns:ev="http://www.w3.org/2001/xml-events" xmlns:xlink="http://www.w3.org/1999/xlink" baseProfile="full" height="312.0px" version="1.1" width="1669.0px">
  <defs/>
  <path d="M 60 129 L 111 129 Q 121.5 96.0 102 87 L 60 60 L 60 129 z" fill="rgb(255,217,194)" stroke="black"/>
  <text fill="rgb(9,33,173)" font-size="25" x="58.25" y="104.25">rbsleeve</text>
  <path d="M 198.25 129.0 L 240.25 102.0 Q 259.75 93.0 249.25 60.0 L 198.25 60.0 L 198.25 129.0 z" fill="rgb(255,217,194)" stroke="black"/>
  <text fill="rgb(9,33,173)" font-size="25" x="196.5" y="90.75">rfsleeve</text>
  <path d="M 336.5 252.0 L 423.5 252.0 Q 445.85 89.55000000000001 438.5 60.0 L 366.5 60.0 Q 381.2 141.75 336.5 153.0 Q 346.4 157.95 336.5 252.0 z" fill="rgb(255,217,194)" stroke="black"/>
  <text fill="rgb(9,33,173)" font-size="25" x="355.3" y="158.4">Rback</text>
  <path d="M 513.5 252.0 L 600.5 252.0 Q 590.6 157.95 600.5 153.0 Q 560.45 140.25 570.5 60.0 L 498.5 60.0 Q 491.15 89.55 513.5 252.0 z" fill="rgb(255,217,194)" stroke="black"/>
  <text fill="rgb(9,33,173)" font-size="25" x="531.7" y="158.4">Rfront</text>
  <path d="M 660.5 168.0 L 732.5 168.0 L 804.5 168.0 L 795.5 102.0 Q 775.1 94.2 783.5 60.0 L 744.5 60.0 Q 732.5 74.57046779105647 720.5 60.0 L 681.5 60.0 Q 689.9 94.2 669.5 102.0 L 660.5 168.0 z" fill="rgb(255,217,194)" stroke="black"/>
  <text fill="rgb(9,33,173)" font-size="25" x="707.5" y="108.33333333333333">up_back</text>
  <path d="M 864.5 165.0 L 936.5 165.0 L 1008.5 165.0 L 999.5 102.0 Q 979.1 94.2 987.5 60.0 L 948.5 60.0 L 936.5 132.0 L 924.5 60.0 L 885.5 60.0 Q 893.9 94.2 873.5 102.0 L 864.5 165.0 z" fill="rgb(255,217,194)" stroke="black"/>
  <text fill="rgb(9,33,173)" font-size="25" x="911.5" y="110.1">up_front</text>
  <path d="M 1083.5 252.0 L 1170.5 252.0 Q 1160.6 157.95 1170.5 153.0 Q 1125.8 141.75 1140.5 60.0 L 1068.5 60.0 Q 1061.15 89.55 1083.5 252.0 z" fill="rgb(255,217,194)" stroke="black"/>
  <text fill="rgb(9,33,173)" font-size="25" x="1101.7" y="158.4">Lback</text>
  <path d="M 1230.5 252.0 L 1317.5 252.0 Q 1339.85 89.55000000000001 1332.5 60.0 L 1260.5 60.0 Q 1270.55 140.25 1230.5 153.0 Q 1240.4 157.95 1230.5 252.0 z" fill="rgb(255,217,194)" stroke="black"/>
  <text fill="rgb(9,33,173)" font-size="25" x="1249.3" y="158.4">Lfront</text>
  <path d="M 1392.5 129.0 L 1434.5 102.0 Q 1454.0 93.0 1443.5 60.0 L 1392.5 60.0 L 1392.5 129.0 z" fill="rgb(255,217,194)" stroke="black"/>
  <text fill="rgb(9,33,173)" font-size="25" x="1390.75" y="90.75">lbsleeve</text>
  <path d="M 1530.75 129.0 L 1581.75 129.0 Q 1592.25 96.0 1572.75 87.0 L 1530.75 60.0 L 1530.75 129.0 z" fill="rgb(255,217,194)" stroke="black"/>
  <text fill="rgb(9,33,173)" font-size="25" x="1529.0" y="104.25">lfsleeve</text>
</svg>
