<?xml version="1.0" encoding="utf-8" ?>
<svg xmlns="http://www.w3.org/2000/svg" xmlns:ev="http://www.w3.org/2001/xml-events" xmlns:xlink="http://www.w3.org/1999/xlink" baseProfile="full" height="381px" version="1.1" width="1510.0px">
  <defs/>
  <path d="M 60 321 L 348 321 L 348 60 L 60 60 L 60 321 z" fill="rgb(255,217,194)" stroke="black"/>
  <text fill="rgb(9,33,173)" font-size="25" x="179.0" y="193.5">skirt_back</text>
  <path d="M 408 78 L 498 78 L 498 60 L 408 60 L 408 78 z" fill="rgb(255,217,194)" stroke="black"/>
  <text fill="rgb(9,33,173)" font-size="25" x="428.0" y="72.0">wb_back</text>
  <path d="M 558 78 L 648 78 L 648 60 L 558 60 L 558 78 z" fill="rgb(255,217,194)" stroke="black"/>
  <text fill="rgb(9,33,173)" font-size="25" x="578.0" y="72.0">wb_front</text>
  <path d="M 718.0 321.0 L 1006.0 321.0 L 1006.0 60.0 L 718.0 60.0 L 718.0 321.0 z" fill="rgb(255,217,194)" stroke="black"/>
  <text fill="rgb(9,33,173)" font-size="25" x="837.0" y="193.5">skirt_front</text>
  <path d="M 1066.0 180.0 L 1228.0 180.0 L 1228.0 135.0 Q 1194.4 117.3 1216.0 60.0 L 1183.0 60.0 Q 1147.0 63.21264319101292 1111.0 60.0 L 1078.0 60.0 Q 1099.6 117.3 1066.0 135.0 L 1066.0 180.0 z" fill="rgb(255,217,194)" stroke="black"/>
  <text fill="rgb(9,33,173)" font-size="25" x="1122.0" y="111.75">top_back</text>
  <path d="M 1288.0 180.0 L 1450.0 180.0 L 1450.0 135.0 Q 1416.4 117.3 1438.0 60.0 L 1405.0 60.0 L 1369.0 117.0 L 1333.0 60.0 L 1300.0 60.0 Q 1321.6 117.3 1288.0 135.0 L 1288.0 180.0 z" fill="rgb(255,217,194)" stroke="black"/>
  <text fill="rgb(9,33,173)" font-size="25" x="1344.0" y="112.66666666666667">top_front</text>
</svg>
