<?xml version="1.0" encoding="utf-8" ?>
<svg xmlns="http://www.w3.org/2000/svg" xmlns:ev="http://www.w3.org/2001/xml-events" xmlns:xlink="http://www.w3.org/1999/xlink" baseProfile="full" height="525px" version="1.1" width="625.0px">
  <defs/>
  <path d="M 60 465 L 135 465 L 135 138 L 111 60 L 75 60 Q 105.9 128.7 66 153 L 60 465 z" fill="rgb(255,217,194)" stroke="black"/>
  <text fill="rgb(9,33,173)" font-size="25" x="72.0" y="226.5">front_right</text>
  <path d="M 242.0 465.0 L 392.0 465.0 L 386.0 153.0 Q 346.1 128.7 377.0 60.0 L 341.0 60.0 Q 317.0 130.88683315772022 293.0 60.0 L 257.0 60.0 Q 287.9 128.7 248.0 153.0 L 242.0 465.0 z" fill="rgb(255,217,194)" stroke="black"/>
  <text fill="rgb(9,33,173)" font-size="25" x="292.0" y="187.5">back</text>
  <path d="M 452.0 465.0 L 527.0 465.0 L 521.0 153.0 Q 481.09999999999997 128.7 512.0 60.0 L 476.0 60.0 L 452.0 138.0 L 452.0 465.0 z" fill="rgb(255,217,194)" stroke="black"/>
  <text fill="rgb(9,33,173)" font-size="25" x="465.0" y="226.5">front_left</text>
</svg>
