<?xml version="1.0" encoding="utf-8" ?>
<svg xmlns="http://www.w3.org/2000/svg" xmlns:ev="http://www.w3.org/2001/xml-events" xmlns:xlink="http://www.w3.org/1999/xlink" baseProfile="full" height="270.0px" version="1.1" width="1169.5px">
  <defs/>
  <path d="M 60 192 L 225 192 L 225 108 L 198 60 L 144 60 Q 158.7 110.1 129 123 L 60 192 z" fill="rgb(255,217,194)" stroke="black"/>
  <text fill="rgb(9,33,173)" font-size="25" x="138.5" y="125.5">front_right</text>
  <path d="M 308.5 210.0 L 350.5 207.0 Q 421.6 187.2 371.5 99.0 L 344.5 108.0 L 314.5 60.0 L 308.5 210.0 z" fill="rgb(255,217,194)" stroke="black"/>
  <text fill="rgb(9,33,173)" font-size="25" x="312.9" y="139.8">Rhood</text>
  <path d="M 431.5 192.0 L 761.5 192.0 L 692.5 126.0 Q 661.6 112.2 677.5 60.0 L 623.5 60.0 L 596.5 69.0 L 569.5 60.0 L 515.5 60.0 Q 531.4 112.19999999999999 500.5 126.0 L 431.5 192.0 z" fill="rgb(255,217,194)" stroke="black"/>
  <text fill="rgb(9,33,173)" font-size="25" x="571.5" y="108.0">back</text>
  <path d="M 827.5 210.0 L 857.5 162.0 L 884.5 171.0 Q 934.5999999999999 82.80000000000001 863.5 63.0 L 821.5 60.0 L 827.5 210.0 z" fill="rgb(255,217,194)" stroke="black"/>
  <text fill="rgb(9,33,173)" font-size="25" x="825.9" y="136.2">Lhood</text>
  <path d="M 944.5 192.0 L 1109.5 192.0 L 1040.5 123.0 Q 1010.8 110.1 1025.5 60.0 L 971.5 60.0 L 944.5 108.0 L 944.5 192.0 z" fill="rgb(255,217,194)" stroke="black"/>
  <text fill="rgb(9,33,173)" font-size="25" x="981.0" y="125.5">front_left</text>
</svg>
