<?xml version="1.0" encoding="utf-8" ?>
<svg xmlns="http://www.w3.org/2000/svg" xmlns:ev="http://www.w3.org/2001/xml-events" xmlns:xlink="http://www.w3.org/1999/xlink" baseProfile="full" height="240px" version="1.1" width="886.5px">
  <defs/>
  <path d="M 60 180 L 216 180 L 216 120 L 165 60 L 138 60 Q 164.4 125.7 126 147 L 60 180 z" fill="rgb(255,217,194)" stroke="black"/>
  <text fill="rgb(9,33,173)" font-size="25" x="128.5" y="127.5">front_right</text>
  <path d="M 298.5 180.0 L 610.5 180.0 L 544.5 147.0 Q 506.09999999999997 125.7 532.5 60.0 L 505.5 60.0 Q 454.5 101.84816078803405 403.5 60.0 L 376.5 60.0 Q 402.90000000000003 125.7 364.5 147.0 L 298.5 180.0 z" fill="rgb(255,217,194)" stroke="black"/>
  <text fill="rgb(9,33,173)" font-size="25" x="429.5" y="114.75">back</text>
  <path d="M 670.5 180.0 L 826.5 180.0 L 760.5 147.0 Q 722.1 125.7 748.5 60.0 L 721.5 60.0 L 670.5 120.0 L 670.5 180.0 z" fill="rgb(255,217,194)" stroke="black"/>
  <text fill="rgb(9,33,173)" font-size="25" x="708.0" y="127.5">front_left</text>
</svg>
