<?xml version="1.0" encoding="utf-8" ?>
<svg xmlns="http://www.w3.org/2000/svg" xmlns:ev="http://www.w3.org/2001/xml-events" xmlns:xlink="http://www.w3.org/1999/xlink" baseProfile="full" height="303px" version="1.1" width="1702.0px">
  <defs/>
  <path d="M 60 243 L 225 243 L 207 60 L 90 60 Q 104.7 141.75 60 153 Q 69.0 157.5 60 243 z" fill="rgb(255,217,194)" stroke="black"/>
  <text fill="rgb(9,33,173)" font-size="25" x="103.4" y="154.8">Rback</text>
  <path d="M 285 243 L 450 243 Q 441.0 157.5 450 153 Q 409.95 140.25 420 60 L 303 60 L 285 243 z" fill="rgb(255,217,194)" stroke="black"/>
  <text fill="rgb(9,33,173)" font-size="25" x="356.6" y="154.8">Rfront</text>
  <path d="M 510 72 L 549 72 L 588 72 L 588 60 L 510 60 L 510 72 z" fill="rgb(255,217,194)" stroke="black"/>
  <text fill="rgb(9,33,173)" font-size="25" x="524.0" y="70.2">wb_back</text>
  <path d="M 654.0 72.0 L 693.0 72.0 L 732.0 72.0 L 732.0 60.0 L 654.0 60.0 L 654.0 72.0 z" fill="rgb(255,217,194)" stroke="black"/>
  <text fill="rgb(9,33,173)" font-size="25" x="668.0" y="70.2">wb_front</text>
  <path d="M 808.0 183.0 L 970.0 183.0 L 970.0 117.0 Q 943.6 104.7 958.0 60.0 L 913.0 60.0 Q 889.0 62.57960409704417 865.0 60.0 L 820.0 60.0 Q 834.4 104.7 808.0 117.0 L 808.0 183.0 z" fill="rgb(255,217,194)" stroke="black"/>
  <text fill="rgb(9,33,173)" font-size="25" x="864.0" y="108.0">top_back</text>
  <path d="M 1030.0 183.0 L 1192.0 183.0 L 1192.0 114.0 Q 1166.8000000000002 102.6 1180.0 60.0 L 1135.0 60.0 L 1111.0 75.0 L 1087.0 60.0 L 1042.0 60.0 Q 1055.1999999999998 102.6 1030.0 114.0 L 1030.0 183.0 z" fill="rgb(255,217,194)" stroke="black"/>
  <text fill="rgb(9,33,173)" font-size="25" x="1086.0" y="104.0">top_front</text>
  <path d="M 1252.0 243.0 L 1417.0 243.0 Q 1408.0 157.5 1417.0 153.0 Q 1372.3 141.75 1387.0 60.0 L 1270.0 60.0 L 1252.0 243.0 z" fill="rgb(255,217,194)" stroke="black"/>
  <text fill="rgb(9,33,173)" font-size="25" x="1323.6" y="154.8">Lback</text>
  <path d="M 1477.0 243.0 L 1642.0 243.0 L 1624.0 60.0 L 1507.0 60.0 Q 1517.05 140.25 1477.0 153.0 Q 1486.0 157.5 1477.0 243.0 z" fill="rgb(255,217,194)" stroke="black"/>
  <text fill="rgb(9,33,173)" font-size="25" x="1520.4" y="154.8">Lfront</text>
</svg>
