<?xml version="1.0" encoding="utf-8" ?>
<svg xmlns="http://www.w3.org/2000/svg" xmlns:ev="http://www.w3.org/2001/xml-events" xmlns:xlink="http://www.w3.org/1999/xlink" baseProfile="full" height="291px" version="1.1" width="1812px">
  <defs/>
  <path d="M 60 150 L 165 150 Q 177.0 109.50000000000001 153 99 L 60 60 L 60 150 z" fill="rgb(255,217,194)" stroke="black"/>
  <text fill="rgb(9,33,173)" font-size="25" x="84.5" y="117.75">rbsleeve</text>
  <path d="M 225 150 L 318 111 Q 342.0 100.5 330 60 L 225 60 L 225 150 z" fill="rgb(255,217,194)" stroke="black"/>
  <text fill="rgb(9,33,173)" font-size="25" x="249.5" y="98.25">rfsleeve</text>
  <path d="M 390 231 L 465 231 Q 499.05 87.15 495 60 L 420 60 Q 434.7 141.75 390 153 Q 397.8 156.9 390 231 z" fill="rgb(255,217,194)" stroke="black"/>
  <text fill="rgb(9,33,173)" font-size="25" x="407.0" y="150.0">Rback</text>
  <path d="M 585 231 L 660 231 Q 652.2 156.9 660 153 Q 619.95 140.25 630 60 L 555 60 Q 550.95 87.15 585 231 z" fill="rgb(255,217,194)" stroke="black"/>
  <text fill="rgb(9,33,173)" font-size="25" x="593.0" y="150.0">Rfront</text>
  <path d="M 720 168 L 798 168 L 876 168 L 873 114 Q 847.8 102.6 861 60 L 825 60 Q 798.0 67.36230865932086 771 60 L 735 60 Q 748.2 102.6 723 114 L 720 168 z" fill="rgb(255,217,194)" stroke="black"/>
  <text fill="rgb(9,33,173)" font-size="25" x="773.0" y="111.0">up_back</text>
  <path d="M 936 165 L 1014 165 L 1092 165 L 1089 111 Q 1065.0 100.5 1077 60 L 1041 60 L 1014 72 L 987 60 L 951 60 Q 963.0 100.49999999999999 939 111 L 936 165 z" fill="rgb(255,217,194)" stroke="black"/>
  <text fill="rgb(9,33,173)" font-size="25" x="989.0" y="105.9">up_front</text>
  <path d="M 1182 231 L 1257 231 Q 1249.2 156.9 1257 153 Q 1212.3 141.75 1227 60 L 1152 60 Q 1147.95 87.15 1182 231 z" fill="rgb(255,217,194)" stroke="black"/>
  <text fill="rgb(9,33,173)" font-size="25" x="1190.0" y="150.0">Lback</text>
  <path d="M 1317 231 L 1392 231 Q 1426.05 87.15 1422 60 L 1347 60 Q 1357.05 140.25 1317 153 Q 1324.8 156.9 1317 231 z" fill="rgb(255,217,194)" stroke="black"/>
  <text fill="rgb(9,33,173)" font-size="25" x="1334.0" y="150.0">Lfront</text>
  <path d="M 1482 150 L 1575 111 Q 1599.0 100.5 1587 60 L 1482 60 L 1482 150 z" fill="rgb(255,217,194)" stroke="black"/>
  <text fill="rgb(9,33,173)" font-size="25" x="1506.5" y="98.25">lbsleeve</text>
  <path d="M 1647 150 L 1752 150 Q 1764.0 109.50000000000001 1740 99 L 1647 60 L 1647 150 z" fill="rgb(255,217,194)" stroke="black"/>
  <text fill="rgb(9,33,173)" font-size="25" x="1671.5" y="117.75">lfsleeve</text>
</svg>
