<?xml version="1.0" encoding="utf-8" ?>
<svg xmlns="http://www.w3.org/2000/svg" xmlns:ev="http://www.w3.org/2001/xml-events" xmlns:xlink="http://www.w3.org/1999/xlink" baseProfile="full" height="450.0px" version="1.1" width="1519.0px">
  <defs/>
  <path d="M 60 204 L 96 204 Q 104.7 164.4 81 156 L 60 60 L 60 204 z" fill="rgb(255,217,194)" stroke="black"/>
  <text fill="rgb(9,33,173)" font-size="25" x="49.25" y="159.0">rbsleeve</text>
  <path d="M 189.25 204.0 L 210.25 108.0 Q 233.95 99.6 225.25 60.0 L 189.25 60.0 L 189.25 204.0 z" fill="rgb(255,217,194)" stroke="black"/>
  <text fill="rgb(9,33,173)" font-size="25" x="178.5" y="111.0">rfsleeve</text>
  <path d="M 318.5 390.0 L 582.5 390.0 L 546.5 111.0 Q 521.6 101.7 531.5 60.0 L 492.5 60.0 L 450.5 69.0 L 408.5 60.0 L 369.5 60.0 Q 379.4 101.69999999999999 354.5 111.0 L 318.5 390.0 z" fill="rgb(255,217,194)" stroke="black"/>
  <text fill="rgb(9,33,173)" font-size="25" x="425.5" y="148.66666666666666">back</text>
  <path d="M 642.5 390.0 L 906.5 390.0 L 870.5 111.0 Q 845.6 101.7 855.5 60.0 L 816.5 60.0 L 774.5 84.0 L 732.5 60.0 L 693.5 60.0 Q 703.4 101.69999999999999 678.5 111.0 L 642.5 390.0 z" fill="rgb(255,217,194)" stroke="black"/>
  <text fill="rgb(9,33,173)" font-size="25" x="749.5" y="150.33333333333334">front</text>
  <path d="M 975.5 198.0 L 1035.5 189.0 Q 1107.5 166.5 1053.5 78.0 L 1011.5 87.0 L 966.5 60.0 L 975.5 198.0 z" fill="rgb(255,217,194)" stroke="black"/>
  <text fill="rgb(9,33,173)" font-size="25" x="983.5" y="125.4">Rhood</text>
  <path d="M 1113.5 198.0 L 1158.5 171.0 L 1200.5 180.0 Q 1254.5 91.50000000000001 1182.5 69.0 L 1122.5 60.0 L 1113.5 198.0 z" fill="rgb(255,217,194)" stroke="black"/>
  <text fill="rgb(9,33,173)" font-size="25" x="1130.5" y="138.6">Lhood</text>
  <path d="M 1260.5 204.0 L 1281.5 108.0 Q 1305.2 99.6 1296.5 60.0 L 1260.5 60.0 L 1260.5 204.0 z" fill="rgb(255,217,194)" stroke="black"/>
  <text fill="rgb(9,33,173)" font-size="25" x="1249.75" y="111.0">lbsleeve</text>
  <path d="M 1389.75 204.0 L 1425.75 204.0 Q 1434.45 164.4 1410.75 156.0 L 1389.75 60.0 L 1389.75 204.0 z" fill="rgb(255,217,194)" stroke="black"/>
  <text fill="rgb(9,33,173)" font-size="25" x="1379.0" y="159.0">lfsleeve</text>
</svg>
