<?xml version="1.0" encoding="utf-8" ?>
<svg xmlns="http://www.w3.org/2000/svg" xmlns:ev="http://www.w3.org/2001/xml-events" xmlns:xlink="http://www.w3.org/1999/xlink" baseProfile="full" height="384px" version="1.1" width="1474.0px">
  <defs/>
  <path d="M 60 324 L 159 324 L 183 60 L 90 60 Q 103.5 139.5 60 150 Q 77.4 158.7 60 324 z" fill="rgb(255,217,194)" stroke="black"/>
  <text fill="rgb(9,33,173)" font-size="25" x="85.4" y="186.6">Rback</text>
  <path d="M 267 324 L 366 324 Q 348.6 158.70000000000002 366 150 Q 327.0 138.0 336 60 L 243 60 L 267 324 z" fill="rgb(255,217,194)" stroke="black"/>
  <text fill="rgb(9,33,173)" font-size="25" x="290.6" y="186.6">Rfront</text>
  <path d="M 426 81 L 465 81 L 504 81 L 504 60 L 426 60 L 426 81 z" fill="rgb(255,217,194)" stroke="black"/>
  <text fill="rgb(9,33,173)" font-size="25" x="440.0" y="75.6">wb_back</text>
  <path d="M 570.0 81.0 L 609.0 81.0 L 648.0 81.0 L 648.0 60.0 L 570.0 60.0 L 570.0 81.0 z" fill="rgb(255,217,194)" stroke="black"/>
  <text fill="rgb(9,33,173)" font-size="25" x="584.0" y="75.6">wb_front</text>
  <path d="M 724.0 183.0 L 856.0 183.0 L 856.0 105.0 Q 834.4 96.3 844.0 60.0 L 808.0 60.0 Q 790.0 118.61532942231459 772.0 60.0 L 736.0 60.0 Q 745.6 96.3 724.0 105.0 L 724.0 183.0 z" fill="rgb(255,217,194)" stroke="black"/>
  <text fill="rgb(9,33,173)" font-size="25" x="765.0" y="105.0">top_back</text>
  <path d="M 916.0 183.0 L 1048.0 183.0 L 1048.0 105.0 Q 1026.4 96.3 1036.0 60.0 L 1000.0 60.0 L 982.0 66.0 L 964.0 60.0 L 928.0 60.0 Q 937.6 96.3 916.0 105.0 L 916.0 183.0 z" fill="rgb(255,217,194)" stroke="black"/>
  <text fill="rgb(9,33,173)" font-size="25" x="957.0" y="101.0">top_front</text>
  <path d="M 1132.0 324.0 L 1231.0 324.0 Q 1213.6 158.70000000000002 1231.0 150.0 Q 1187.5 139.5 1201.0 60.0 L 1108.0 60.0 L 1132.0 324.0 z" fill="rgb(255,217,194)" stroke="black"/>
  <text fill="rgb(9,33,173)" font-size="25" x="1155.6" y="186.6">Lback</text>
  <path d="M 1291.0 324.0 L 1390.0 324.0 L 1414.0 60.0 L 1321.0 60.0 Q 1330.0 138.0 1291.0 150.0 Q 1308.4 158.7 1291.0 324.0 z" fill="rgb(255,217,194)" stroke="black"/>
  <text fill="rgb(9,33,173)" font-size="25" x="1316.4" y="186.6">Lfront</text>
</svg>
