<?xml version="1.0" encoding="utf-8" ?>
<svg xmlns="http://www.w3.org/2000/svg" xmlns:ev="http://www.w3.org/2001/xml-events" xmlns:xlink="http://www.w3.org/1999/xlink" baseProfile="full" height="285px" version="1.1" width="1624.0px">
  <defs/>
  <path d="M 60 225 L 120 225 Q 140.4 169.79999999999998 108 153 L 60 60 L 60 225 z" fill="rgb(255,217,194)" stroke="black"/>
  <text fill="rgb(9,33,173)" font-size="25" x="62.0" y="168.75">rbsleeve</text>
  <path d="M 202.0 225.0 L 250.0 132.0 Q 282.4 115.2 262.0 60.0 L 202.0 60.0 L 202.0 225.0 z" fill="rgb(255,217,194)" stroke="black"/>
  <text fill="rgb(9,33,173)" font-size="25" x="204.0" y="122.25">rfsleeve</text>
  <path d="M 344.0 201.0 Q 458.0 257.57296630827307 572.0 201.0 L 536.0 102.0 L 533.0 60.0 L 383.0 60.0 L 380.0 102.0 L 344.0 201.0 z" fill="rgb(255,217,194)" stroke="black"/>
  <text fill="rgb(9,33,173)" font-size="25" x="433.0" y="124.0">skirt_back</text>
  <path d="M 632.0 201.0 Q 746.0 304.10487815085077 860.0 201.0 L 824.0 102.0 L 821.0 60.0 L 671.0 60.0 L 668.0 102.0 L 632.0 201.0 z" fill="rgb(255,217,194)" stroke="black"/>
  <text fill="rgb(9,33,173)" font-size="25" x="721.0" y="124.0">skirt_front</text>
  <path d="M 920.0 168.0 L 1070.0 168.0 L 1067.0 129.0 Q 1035.8000000000002 113.1 1055.0 60.0 L 1034.0 60.0 Q 995.0 165.9670114617419 956.0 60.0 L 935.0 60.0 Q 954.2 113.1 923.0 129.0 L 920.0 168.0 z" fill="rgb(255,217,194)" stroke="black"/>
  <text fill="rgb(9,33,173)" font-size="25" x="970.0" y="107.25">top_back</text>
  <path d="M 1130.0 165.0 L 1280.0 165.0 L 1277.0 129.0 Q 1245.8000000000002 113.1 1265.0 60.0 L 1244.0 60.0 L 1205.0 99.0 L 1166.0 60.0 L 1145.0 60.0 Q 1164.1999999999998 113.1 1133.0 129.0 L 1130.0 165.0 z" fill="rgb(255,217,194)" stroke="black"/>
  <text fill="rgb(9,33,173)" font-size="25" x="1180.0" y="106.0">top_front</text>
  <path d="M 1340.0 225.0 L 1388.0 132.0 Q 1420.3999999999999 115.2 1400.0 60.0 L 1340.0 60.0 L 1340.0 225.0 z" fill="rgb(255,217,194)" stroke="black"/>
  <text fill="rgb(9,33,173)" font-size="25" x="1342.0" y="122.25">lbsleeve</text>
  <path d="M 1482.0 225.0 L 1542.0 225.0 Q 1562.3999999999999 169.79999999999998 1530.0 153.0 L 1482.0 60.0 L 1482.0 225.0 z" fill="rgb(255,217,194)" stroke="black"/>
  <text fill="rgb(9,33,173)" font-size="25" x="1484.0" y="168.75">lfsleeve</text>
</svg>
