<?xml version="1.0" encoding="utf-8" ?>
<svg xmlns="http://www.w3.org/2000/svg" xmlns:ev="http://www.w3.org/2001/xml-events" xmlns:xlink="http://www.w3.org/1999/xlink" baseProfile="full" height="312px" version="1.1" width="1378.0px">
  <defs/>
  <path d="M 60 252 L 288 252 L 288 60 L 60 60 L 60 252 z" fill="rgb(255,217,194)" stroke="black"/>
  <text fill="rgb(9,33,173)" font-size="25" x="149.0" y="159.0">skirt_back</text>
  <path d="M 348 75 L 438 75 L 438 60 L 348 60 L 348 75 z" fill="rgb(255,217,194)" stroke="black"/>
  <text fill="rgb(9,33,173)" font-size="25" x="368.0" y="70.5">wb_back</text>
  <path d="M 498 75 L 588 75 L 588 60 L 498 60 L 498 75 z" fill="rgb(255,217,194)" stroke="black"/>
  <text fill="rgb(9,33,173)" font-size="25" x="518.0" y="70.5">wb_front</text>
  <path d="M 658.0 252.0 L 886.0 252.0 L 886.0 60.0 L 658.0 60.0 L 658.0 252.0 z" fill="rgb(255,217,194)" stroke="black"/>
  <text fill="rgb(9,33,173)" font-size="25" x="747.0" y="159.0">skirt_front</text>
  <path d="M 946.0 150.0 L 1102.0 150.0 L 1102.0 141.0 Q 1066.0 121.5 1090.0 60.0 L 1054.0 60.0 Q 1024.0 65.68178872973331 994.0 60.0 L 958.0 60.0 Q 982.0 121.49999999999999 946.0 141.0 L 946.0 150.0 z" fill="rgb(255,217,194)" stroke="black"/>
  <text fill="rgb(9,33,173)" font-size="25" x="999.0" y="105.75">top_back</text>
  <path d="M 1162.0 150.0 L 1318.0 150.0 L 1318.0 141.0 Q 1282.0 121.5 1306.0 60.0 L 1270.0 60.0 L 1240.0 78.0 L 1210.0 60.0 L 1174.0 60.0 Q 1198.0 121.49999999999999 1162.0 141.0 L 1162.0 150.0 z" fill="rgb(255,217,194)" stroke="black"/>
  <text fill="rgb(9,33,173)" font-size="25" x="1215.0" y="103.0">top_front</text>
</svg>
