<?xml version="1.0" encoding="utf-8" ?>
<svg xmlns="http://www.w3.org/2000/svg" xmlns:ev="http://www.w3.org/2001/xml-events" xmlns:xlink="http://www.w3.org/1999/xlink" baseProfile="full" height="378.0px" version="1.1" width="1810.0px">
  <defs/>
  <path d="M 60 129 L 147 129 Q 166.2 75.9 135 60 L 60 78 L 60 129 z" fill="rgb(255,217,194)" stroke="black"/>
  <text fill="rgb(9,33,173)" font-size="25" x="75.5" y="102.0">rbsleeve</text>
  <path d="M 215.5 111.0 L 290.5 129.0 Q 321.70000000000005 113.1 302.5 60.0 L 215.5 60.0 L 215.5 111.0 z" fill="rgb(255,217,194)" stroke="black"/>
  <text fill="rgb(9,33,173)" font-size="25" x="231.0" y="93.0">rfsleeve</text>
  <path d="M 371.0 318.0 L 410.0 318.0 Q 484.09999999999997 102.30000000000001 482.0 60.0 L 401.0 60.0 Q 415.7 141.75 371.0 153.0 Q 387.5 161.25 371.0 318.0 z" fill="rgb(255,217,194)" stroke="black"/>
  <text fill="rgb(9,33,173)" font-size="25" x="382.0" y="184.8">Rback</text>
  <path d="M 614.0 318.0 L 653.0 318.0 Q 636.5 161.25 653.0 153.0 Q 612.95 140.25 623.0 60.0 L 542.0 60.0 Q 539.9 102.29999999999998 614.0 318.0 z" fill="rgb(255,217,194)" stroke="black"/>
  <text fill="rgb(9,33,173)" font-size="25" x="592.0" y="184.8">Rfront</text>
  <path d="M 713.0 168.0 L 794.0 168.0 L 875.0 168.0 L 869.0 126.0 Q 839.0 111.0 857.0 60.0 L 827.0 60.0 Q 794.0 138.16115703360376 761.0 60.0 L 731.0 60.0 Q 749.0 110.99999999999999 719.0 126.0 L 713.0 168.0 z" fill="rgb(255,217,194)" stroke="black"/>
  <text fill="rgb(9,33,173)" font-size="25" x="769.0" y="113.66666666666667">up_back</text>
  <path d="M 935.0 165.0 L 1016.0 165.0 L 1097.0 165.0 L 1091.0 126.0 Q 1061.0 111.0 1079.0 60.0 L 1049.0 60.0 L 1016.0 96.0 L 983.0 60.0 L 953.0 60.0 Q 971.0 110.99999999999999 941.0 126.0 L 935.0 165.0 z" fill="rgb(255,217,194)" stroke="black"/>
  <text fill="rgb(9,33,173)" font-size="25" x="991.0" y="111.3">up_front</text>
  <path d="M 1229.0 318.0 L 1268.0 318.0 Q 1251.5 161.25 1268.0 153.0 Q 1223.3 141.75 1238.0 60.0 L 1157.0 60.0 Q 1154.8999999999999 102.29999999999998 1229.0 318.0 z" fill="rgb(255,217,194)" stroke="black"/>
  <text fill="rgb(9,33,173)" font-size="25" x="1207.0" y="184.8">Lback</text>
  <path d="M 1328.0 318.0 L 1367.0 318.0 Q 1441.1000000000001 102.30000000000001 1439.0 60.0 L 1358.0 60.0 Q 1368.05 140.25 1328.0 153.0 Q 1344.5 161.25 1328.0 318.0 z" fill="rgb(255,217,194)" stroke="black"/>
  <text fill="rgb(9,33,173)" font-size="25" x="1339.0" y="184.8">Lfront</text>
  <path d="M 1499.0 111.0 L 1574.0 129.0 Q 1605.1999999999998 113.1 1586.0 60.0 L 1499.0 60.0 L 1499.0 111.0 z" fill="rgb(255,217,194)" stroke="black"/>
  <text fill="rgb(9,33,173)" font-size="25" x="1514.5" y="93.0">lbsleeve</text>
  <path d="M 1654.5 129.0 L 1741.5 129.0 Q 1760.6999999999998 75.9 1729.5 60.0 L 1654.5 78.0 L 1654.5 129.0 z" fill="rgb(255,217,194)" stroke="black"/>
  <text fill="rgb(9,33,173)" font-size="25" x="1670.0" y="102.0">lfsleeve</text>
</svg>
