<?xml version="1.0" encoding="utf-8" ?>
<svg xmlns="http://www.w3.org/2000/svg" xmlns:ev="http://www.w3.org/2001/xml-events" xmlns:xlink="http://www.w3.org/1999/xlink" baseProfile="full" height="516px" version="1.1" width="1075.0px">
  <defs/>
  <path d="M 60 456 L 198 456 L 198 102 L 171 60 L 141 60 Q 165.89999999999998 118.19999999999999 132 138 L 60 456 z" fill="rgb(255,217,194)" stroke="black"/>
  <text fill="rgb(9,33,173)" font-size="25" x="125.0" y="215.0">front_right</text>
  <path d="M 295.0 210.0 L 319.0 207.0 Q 399.09999999999997 196.20000000000002 358.0 93.0 L 331.0 102.0 L 304.0 60.0 L 295.0 210.0 z" fill="rgb(255,217,194)" stroke="black"/>
  <text fill="rgb(9,33,173)" font-size="25" x="296.4" y="137.4">Rhood</text>
  <path d="M 418.0 456.0 L 694.0 456.0 L 622.0 138.0 Q 588.0999999999999 118.19999999999999 613.0 60.0 L 583.0 60.0 L 556.0 69.0 L 529.0 60.0 L 499.0 60.0 Q 523.9 118.19999999999999 490.0 138.0 L 418.0 456.0 z" fill="rgb(255,217,194)" stroke="black"/>
  <text fill="rgb(9,33,173)" font-size="25" x="531.0" y="169.33333333333334">back</text>
  <path d="M 763.0 210.0 L 790.0 168.0 L 817.0 177.0 Q 858.1 73.80000000000001 778.0 63.0 L 754.0 60.0 L 763.0 210.0 z" fill="rgb(255,217,194)" stroke="black"/>
  <text fill="rgb(9,33,173)" font-size="25" x="755.4" y="138.6">Lhood</text>
  <path d="M 877.0 456.0 L 1015.0 456.0 L 943.0 138.0 Q 909.0999999999999 118.19999999999999 934.0 60.0 L 904.0 60.0 L 877.0 102.0 L 877.0 456.0 z" fill="rgb(255,217,194)" stroke="black"/>
  <text fill="rgb(9,33,173)" font-size="25" x="900.0" y="215.0">front_left</text>
</svg>
