<?xml version="1.0" encoding="utf-8" ?>
<svg xmlns="http://www.w3.org/2000/svg" xmlns:ev="http://www.w3.org/2001/xml-events" xmlns:xlink="http://www.w3.org/1999/xlink" baseProfile="full" height="216px" version="1.1" width="980.5px">
  <defs/>
  <path d="M 60 156 L 240 156 L 240 138 L 204 60 L 162 60 Q 169.5 97.5 147 105 L 60 156 z" fill="rgb(255,217,194)" stroke="black"/>
  <text fill="rgb(9,33,173)" font-size="25" x="150.5" y="115.5">front_right</text>
  <path d="M 320.5 156.0 L 680.5 156.0 L 593.5 105.0 Q 571.0 97.5 578.5 60.0 L 536.5 60.0 Q 500.5 114.46126384731603 464.5 60.0 L 422.5 60.0 Q 430.0 97.5 407.5 105.0 L 320.5 156.0 z" fill="rgb(255,217,194)" stroke="black"/>
  <text fill="rgb(9,33,173)" font-size="25" x="475.5" y="98.25">back</text>
  <path d="M 740.5 156.0 L 920.5 156.0 L 833.5 105.0 Q 811.0 97.5 818.5 60.0 L 776.5 60.0 L 740.5 138.0 L 740.5 156.0 z" fill="rgb(255,217,194)" stroke="black"/>
  <text fill="rgb(9,33,173)" font-size="25" x="780.0" y="115.5">front_left</text>
</svg>
