<?xml version="1.0" encoding="utf-8" ?>
<svg xmlns="http://www.w3.org/2000/svg" xmlns:ev="http://www.w3.org/2001/xml-events" xmlns:xlink="http://www.w3.org/1999/xlink" baseProfile="full" height="354.0px" version="1.1" width="1702.0px">
  <defs/>
  <path d="M 60 138 L 111 138 Q 133.8 78.60000000000001 99 60 L 60 75 L 60 138 z" fill="rgb(255,217,194)" stroke="black"/>
  <text fill="rgb(9,33,173)" font-size="25" x="57.5" y="105.75">rbsleeve</text>
  <path d="M 197.5 123.0 L 236.5 138.0 Q 271.3 119.39999999999999 248.5 60.0 L 197.5 60.0 L 197.5 123.0 z" fill="rgb(255,217,194)" stroke="black"/>
  <text fill="rgb(9,33,173)" font-size="25" x="195.0" y="98.25">rfsleeve</text>
  <path d="M 335.0 294.0 L 389.0 294.0 Q 444.05 97.64999999999999 440.0 60.0 L 365.0 60.0 Q 379.7 141.75 335.0 153.0 Q 349.1 160.05 335.0 294.0 z" fill="rgb(255,217,194)" stroke="black"/>
  <text fill="rgb(9,33,173)" font-size="25" x="347.8" y="175.2">Rback</text>
  <path d="M 551.0 294.0 L 605.0 294.0 Q 590.9 160.05 605.0 153.0 Q 564.95 140.25 575.0 60.0 L 500.0 60.0 Q 495.95 97.64999999999999 551.0 294.0 z" fill="rgb(255,217,194)" stroke="black"/>
  <text fill="rgb(9,33,173)" font-size="25" x="542.2" y="175.2">Rfront</text>
  <path d="M 665.0 168.0 L 743.0 168.0 L 821.0 168.0 L 818.0 138.0 Q 783.1999999999999 119.39999999999999 806.0 60.0 L 770.0 60.0 Q 743.0 113.66280549065502 716.0 60.0 L 680.0 60.0 Q 702.8000000000001 119.39999999999999 668.0 138.0 L 665.0 168.0 z" fill="rgb(255,217,194)" stroke="black"/>
  <text fill="rgb(9,33,173)" font-size="25" x="718.0" y="116.33333333333333">up_back</text>
  <path d="M 881.0 165.0 L 959.0 165.0 L 1037.0 165.0 L 1034.0 138.0 Q 999.2 119.39999999999999 1022.0 60.0 L 986.0 60.0 L 959.0 129.0 L 932.0 60.0 L 896.0 60.0 Q 918.8000000000001 119.39999999999999 884.0 138.0 L 881.0 165.0 z" fill="rgb(255,217,194)" stroke="black"/>
  <text fill="rgb(9,33,173)" font-size="25" x="934.0" y="117.0">up_front</text>
  <path d="M 1148.0 294.0 L 1202.0 294.0 Q 1187.9 160.05 1202.0 153.0 Q 1157.3 141.75 1172.0 60.0 L 1097.0 60.0 Q 1092.95 97.64999999999999 1148.0 294.0 z" fill="rgb(255,217,194)" stroke="black"/>
  <text fill="rgb(9,33,173)" font-size="25" x="1139.2" y="175.2">Lback</text>
  <path d="M 1262.0 294.0 L 1316.0 294.0 Q 1371.05 97.64999999999999 1367.0 60.0 L 1292.0 60.0 Q 1302.05 140.25 1262.0 153.0 Q 1276.1 160.05 1262.0 294.0 z" fill="rgb(255,217,194)" stroke="black"/>
  <text fill="rgb(9,33,173)" font-size="25" x="1274.8" y="175.2">Lfront</text>
  <path d="M 1427.0 123.0 L 1466.0 138.0 Q 1500.8 119.39999999999999 1478.0 60.0 L 1427.0 60.0 L 1427.0 123.0 z" fill="rgb(255,217,194)" stroke="black"/>
  <text fill="rgb(9,33,173)" font-size="25" x="1424.5" y="98.25">lbsleeve</text>
  <path d="M 1564.5 138.0 L 1615.5 138.0 Q 1638.3 78.60000000000001 1603.5 60.0 L 1564.5 75.0 L 1564.5 138.0 z" fill="rgb(255,217,194)" stroke="black"/>
  <text fill="rgb(9,33,173)" font-size="25" x="1562.0" y="105.75">lfsleeve</text>
</svg>
