<?xml version="1.0" encoding="utf-8" ?>
<svg xmlns="http://www.w3.org/2000/svg" xmlns:ev="http://www.w3.org/2001/xml-events" xmlns:xlink="http://www.w3.org/1999/xlink" baseProfile="full" height="366px" version="1.1" width="1176px">
  <defs/>
  <path d="M 60 306 L 165 306 Q 164.55 96.15 150 60 L 90 60 Q 104.7 141.75 60 153 Q 75.3 160.65 60 306 z" fill="rgb(255,217,194)" stroke="black"/>
  <text fill="rgb(9,33,173)" font-size="25" x="80.0" y="180.0">Rback</text>
  <path d="M 225 306 L 330 306 Q 314.7 160.65 330 153 Q 289.95 140.25 300 60 L 240 60 Q 225.45 96.15 225 306 z" fill="rgb(255,217,194)" stroke="black"/>
  <text fill="rgb(9,33,173)" font-size="25" x="260.0" y="180.0">Rfront</text>
  <path d="M 414 168 L 474 168 L 534 168 L 558 132 Q 524.7 116.4 543 60 L 489 60 Q 474.0 65.59713978509659 459 60 L 405 60 Q 423.3 116.4 390 132 L 414 168 z" fill="rgb(255,217,194)" stroke="black"/>
  <text fill="rgb(9,33,173)" font-size="25" x="449.0" y="115.0">up_back</text>
  <path d="M 642 165 L 702 165 L 762 165 L 786 132 Q 752.7 116.4 771 60 L 717 60 L 702 114 L 687 60 L 633 60 Q 651.3 116.4 618 132 L 642 165 z" fill="rgb(255,217,194)" stroke="black"/>
  <text fill="rgb(9,33,173)" font-size="25" x="677.0" y="114.3">up_front</text>
  <path d="M 846 306 L 951 306 Q 935.7 160.65 951 153 Q 906.3 141.75 921 60 L 861 60 Q 846.45 96.15 846 306 z" fill="rgb(255,217,194)" stroke="black"/>
  <text fill="rgb(9,33,173)" font-size="25" x="881.0" y="180.0">Lback</text>
  <path d="M 1011 306 L 1116 306 Q 1115.55 96.15 1101 60 L 1041 60 Q 1051.05 140.25 1011 153 Q 1026.3 160.65 1011 306 z" fill="rgb(255,217,194)" stroke="black"/>
  <text fill="rgb(9,33,173)" font-size="25" x="1031.0" y="180.0">Lfront</text>
</svg>
