<?xml version="1.0" encoding="utf-8" ?>
<svg xmlns="http://www.w3.org/2000/svg" xmlns:ev="http://www.w3.org/2001/xml-events" xmlns:xlink="http://www.w3.org/1999/xlink" baseProfile="full" height="222px" version="1.1" width="1582.0px">
  <defs/>
  <path d="M 60 162 L 396 162 L 396 60 L 60 60 L 60 162 z" fill="rgb(255,217,194)" stroke="black"/>
  <text fill="rgb(9,33,173)" font-size="25" x="203.0" y="114.0">skirt_back</text>
  <path d="M 456 72 L 546 72 L 546 60 L 456 60 L 456 72 z" fill="rgb(255,217,194)" stroke="black"/>
  <text fill="rgb(9,33,173)" font-size="25" x="476.0" y="69.0">wb_back</text>
  <path d="M 606 72 L 696 72 L 696 60 L 606 60 L 606 72 z" fill="rgb(255,217,194)" stroke="black"/>
  <text fill="rgb(9,33,173)" font-size="25" x="626.0" y="69.0">wb_front</text>
  <path d="M 766.0 162.0 L 1102.0 162.0 L 1102.0 60.0 L 766.0 60.0 L 766.0 162.0 z" fill="rgb(255,217,194)" stroke="black"/>
  <text fill="rgb(9,33,173)" font-size="25" x="909.0" y="114.0">skirt_front</text>
  <path d="M 1162.0 147.0 L 1312.0 147.0 L 1312.0 120.0 Q 1284.4 106.8 1300.0 60.0 L 1258.0 60.0 Q 1237.0 110.88186440109823 1216.0 60.0 L 1174.0 60.0 Q 1189.6 106.8 1162.0 120.0 L 1162.0 147.0 z" fill="rgb(255,217,194)" stroke="black"/>
  <text fill="rgb(9,33,173)" font-size="25" x="1212.0" y="99.75">top_back</text>
  <path d="M 1372.0 147.0 L 1522.0 147.0 L 1522.0 120.0 Q 1494.4 106.8 1510.0 60.0 L 1468.0 60.0 L 1447.0 123.0 L 1426.0 60.0 L 1384.0 60.0 Q 1399.6 106.8 1372.0 120.0 L 1372.0 147.0 z" fill="rgb(255,217,194)" stroke="black"/>
  <text fill="rgb(9,33,173)" font-size="25" x="1422.0" y="102.66666666666667">top_front</text>
</svg>
