<?xml version="1.0" encoding="utf-8" ?>
<svg xmlns="http://www.w3.org/2000/svg" xmlns:ev="http://www.w3.org/2001/xml-events" xmlns:xlink="http://www.w3.org/1999/xlink" baseProfile="full" height="420px" version="1.1" width="607.0px">
  <defs/>
  <path d="M 60 360 L 129 360 L 129 147 L 117 60 L 78 60 Q 110.10000000000001 130.79999999999998 69 156 L 60 360 z" fill="rgb(255,217,194)" stroke="black"/>
  <text fill="rgb(9,33,173)" font-size="25" x="72.0" y="193.5">front_right</text>
  <path d="M 242.0 360.0 L 380.0 360.0 L 371.0 156.0 Q 329.9 130.8 362.0 60.0 L 323.0 60.0 Q 311.0 109.09688676663322 299.0 60.0 L 260.0 60.0 Q 292.1 130.79999999999998 251.0 156.0 L 242.0 360.0 z" fill="rgb(255,217,194)" stroke="black"/>
  <text fill="rgb(9,33,173)" font-size="25" x="286.0" y="162.0">back</text>
  <path d="M 440.0 360.0 L 509.0 360.0 L 500.0 156.0 Q 458.9 130.8 491.0 60.0 L 452.0 60.0 L 440.0 147.0 L 440.0 360.0 z" fill="rgb(255,217,194)" stroke="black"/>
  <text fill="rgb(9,33,173)" font-size="25" x="447.0" y="193.5">front_left</text>
</svg>
