<?xml version="1.0" encoding="utf-8" ?>
<svg xmlns="http://www.w3.org/2000/svg" xmlns:ev="http://www.w3.org/2001/xml-events" xmlns:xlink="http://www.w3.org/1999/xlink" baseProfile="full" height="414px" version="1.1" width="1128px">
  <defs/>
  <path d="M 60 354 L 141 354 Q 173.54999999999998 105.14999999999999 162 60 L 90 60 Q 104.7 141.75 60 153 Q 80.1 163.05 60 354 z" fill="rgb(255,217,194)" stroke="black"/>
  <text fill="rgb(9,33,173)" font-size="25" x="77.6" y="199.2">Rback</text>
  <path d="M 243 354 L 324 354 Q 303.9 163.05 324 153 Q 283.95 140.25 294 60 L 222 60 Q 210.45000000000002 105.14999999999999 243 354 z" fill="rgb(255,217,194)" stroke="black"/>
  <text fill="rgb(9,33,173)" font-size="25" x="256.4" y="199.2">Rfront</text>
  <path d="M 384 168 L 459 168 L 534 168 L 528 114 Q 502.79999999999995 102.6 516 60 L 492 60 Q 459.0 105.59414219011671 426 60 L 402 60 Q 415.20000000000005 102.6 390 114 L 384 168 z" fill="rgb(255,217,194)" stroke="black"/>
  <text fill="rgb(9,33,173)" font-size="25" x="434.0" y="111.0">up_back</text>
  <path d="M 594 165 L 669 165 L 744 165 L 738 111 Q 714.0 100.5 726 60 L 702 60 L 669 90 L 636 60 L 612 60 Q 624.0 100.49999999999999 600 111 L 594 165 z" fill="rgb(255,217,194)" stroke="black"/>
  <text fill="rgb(9,33,173)" font-size="25" x="644.0" y="107.7">up_front</text>
  <path d="M 825 354 L 906 354 Q 885.9 163.05 906 153 Q 861.3 141.75 876 60 L 804 60 Q 792.4499999999999 105.14999999999999 825 354 z" fill="rgb(255,217,194)" stroke="black"/>
  <text fill="rgb(9,33,173)" font-size="25" x="838.4" y="199.2">Lback</text>
  <path d="M 966 354 L 1047 354 Q 1079.55 105.14999999999999 1068 60 L 996 60 Q 1006.05 140.25 966 153 Q 986.1 163.05 966 354 z" fill="rgb(255,217,194)" stroke="black"/>
  <text fill="rgb(9,33,173)" font-size="25" x="983.6" y="199.2">Lfront</text>
</svg>
