<?xml version="1.0" encoding="utf-8" ?>
<svg xmlns="http://www.w3.org/2000/svg" xmlns:ev="http://www.w3.org/2001/xml-events" xmlns:xlink="http://www.w3.org/1999/xlink" baseProfile="full" height="393px" version="1.1" width="1232.0px">
  <defs/>
  <path d="M 60 333 L 210 333 L 210 60 L 60 60 L 60 333 z" fill="rgb(255,217,194)" stroke="black"/>
  <text fill="rgb(9,33,173)" font-size="25" x="110.0" y="199.5">skirt_back</text>
  <path d="M 270 66 L 360 66 L 360 60 L 270 60 L 270 66 z" fill="rgb(255,217,194)" stroke="black"/>
  <text fill="rgb(9,33,173)" font-size="25" x="290.0" y="66.0">wb_back</text>
  <path d="M 420 66 L 510 66 L 510 60 L 420 60 L 420 66 z" fill="rgb(255,217,194)" stroke="black"/>
  <text fill="rgb(9,33,173)" font-size="25" x="440.0" y="66.0">wb_front</text>
  <path d="M 580.0 333.0 L 730.0 333.0 L 730.0 60.0 L 580.0 60.0 L 580.0 333.0 z" fill="rgb(255,217,194)" stroke="black"/>
  <text fill="rgb(9,33,173)" font-size="25" x="630.0" y="199.5">skirt_front</text>
  <path d="M 800.0 144.0 L 956.0 144.0 L 956.0 120.0 Q 928.4 106.8 944.0 60.0 L 899.0 60.0 Q 878.0 137.715020536854 857.0 60.0 L 812.0 60.0 Q 827.6 106.8 800.0 120.0 L 800.0 144.0 z" fill="rgb(255,217,194)" stroke="black"/>
  <text fill="rgb(9,33,173)" font-size="25" x="853.0" y="99.0">top_back</text>
  <path d="M 1016.0 144.0 L 1172.0 144.0 L 1172.0 120.0 Q 1144.4 106.8 1160.0 60.0 L 1115.0 60.0 L 1094.0 75.0 L 1073.0 60.0 L 1028.0 60.0 Q 1043.6 106.8 1016.0 120.0 L 1016.0 144.0 z" fill="rgb(255,217,194)" stroke="black"/>
  <text fill="rgb(9,33,173)" font-size="25" x="1069.0" y="96.66666666666667">top_front</text>
</svg>
