<?xml version="1.0" encoding="utf-8" ?>
<svg xmlns="http://www.w3.org/2000/svg" xmlns:ev="http://www.w3.org/2001/xml-events" xmlns:xlink="http://www.w3.org/1999/xlink" baseProfile="full" height="324px" version="1.1" width="1289.4px">
  <defs/>
  <path d="M 60 264 L 258 264 L 258 102 L 240 60 L 192 60 Q 213.6 117.3 180 135 L 60 264 z" fill="rgb(255,217,194)" stroke="black"/>
  <text fill="rgb(9,33,173)" font-size="25" x="173.0" y="150.5">front_right</text>
  <path d="M 343.0 198.0 L 394.0 195.0 Q 456.09999999999997 166.20000000000002 397.0 93.0 L 379.0 102.0 L 358.0 60.0 L 343.0 198.0 z" fill="rgb(255,217,194)" stroke="black"/>
  <text fill="rgb(9,33,173)" font-size="25" x="349.2" y="132.6">Rhood</text>
  <path d="M 459.2 264.0 L 855.2 264.0 L 735.2 135.0 Q 701.6 117.3 723.2 60.0 L 675.2 60.0 L 657.2 69.0 L 639.2 60.0 L 591.2 60.0 Q 612.8000000000001 117.3 579.2 135.0 L 459.2 264.0 z" fill="rgb(255,217,194)" stroke="black"/>
  <text fill="rgb(9,33,173)" font-size="25" x="632.1999999999999" y="126.0">back</text>
  <path d="M 930.2 198.0 L 951.2 156.0 L 969.2 165.0 Q 1028.3 91.80000000000001 966.2 63.0 L 915.2 60.0 L 930.2 198.0 z" fill="rgb(255,217,194)" stroke="black"/>
  <text fill="rgb(9,33,173)" font-size="25" x="921.4" y="131.4">Lhood</text>
  <path d="M 1031.4 264.0 L 1229.4 264.0 L 1109.4 135.0 Q 1075.8000000000002 117.3 1097.4 60.0 L 1049.4 60.0 L 1031.4 102.0 L 1031.4 264.0 z" fill="rgb(255,217,194)" stroke="black"/>
  <text fill="rgb(9,33,173)" font-size="25" x="1066.3999999999999" y="150.5">front_left</text>
</svg>
