<?xml version="1.0" encoding="utf-8" ?>
<svg xmlns="http://www.w3.org/2000/svg" xmlns:ev="http://www.w3.org/2001/xml-events" xmlns:xlink="http://www.w3.org/1999/xlink" baseProfile="full" height="339px" version="1.1" width="1104px">
  <defs/>
  <path d="M 60 279 L 141 279 Q 164.7 93.6 156 60 L 90 60 Q 104.7 141.75 60 153 Q 72.6 159.3 60 279 z" fill="rgb(255,217,194)" stroke="black"/>
  <text fill="rgb(9,33,173)" font-size="25" x="76.4" y="169.2">Rback</text>
  <path d="M 231 279 L 312 279 Q 299.4 159.3 312 153 Q 271.95 140.25 282 60 L 216 60 Q 207.3 93.6 231 279 z" fill="rgb(255,217,194)" stroke="black"/>
  <text fill="rgb(9,33,173)" font-size="25" x="245.60000000000002" y="169.2">Rfront</text>
  <path d="M 378 168 L 447 168 L 516 168 L 522 117 Q 495.59999999999997 104.7 510 60 L 477 60 Q 447.0 74.3133398702021 417 60 L 384 60 Q 398.40000000000003 104.7 372 117 L 378 168 z" fill="rgb(255,217,194)" stroke="black"/>
  <text fill="rgb(9,33,173)" font-size="25" x="422.0" y="111.66666666666667">up_back</text>
  <path d="M 588 165 L 657 165 L 726 165 L 732 117 Q 705.6 104.7 720 60 L 687 60 L 657 105 L 627 60 L 594 60 Q 608.4 104.7 582 117 L 588 165 z" fill="rgb(255,217,194)" stroke="black"/>
  <text fill="rgb(9,33,173)" font-size="25" x="632.0" y="110.4">up_front</text>
  <path d="M 807 279 L 888 279 Q 875.4 159.3 888 153 Q 843.3 141.75 858 60 L 792 60 Q 783.3 93.6 807 279 z" fill="rgb(255,217,194)" stroke="black"/>
  <text fill="rgb(9,33,173)" font-size="25" x="821.6" y="169.2">Lback</text>
  <path d="M 948 279 L 1029 279 Q 1052.7 93.6 1044 60 L 978 60 Q 988.05 140.25 948 153 Q 960.6 159.3 948 279 z" fill="rgb(255,217,194)" stroke="black"/>
  <text fill="rgb(9,33,173)" font-size="25" x="964.4" y="169.2">Lfront</text>
</svg>
