<?xml version="1.0" encoding="utf-8" ?>
<svg xmlns="http://www.w3.org/2000/svg" xmlns:ev="http://www.w3.org/2001/xml-events" xmlns:xlink="http://www.w3.org/1999/xlink" baseProfile="full" height="315px" version="1.1" width="1558.0px">
  <defs/>
  <path d="M 60 255 L 198 255 L 180 60 L 90 60 Q 97.5 128.25 60 135 Q 72.0 141.0 60 255 z" fill="rgb(255,217,194)" stroke="black"/>
  <text fill="rgb(9,33,173)" font-size="25" x="92.6" y="156.0">Rback</text>
  <path d="M 258 255 L 396 255 Q 384.0 141.0 396 135 Q 362.25 126.75 366 60 L 276 60 L 258 255 z" fill="rgb(255,217,194)" stroke="black"/>
  <text fill="rgb(9,33,173)" font-size="25" x="313.4" y="156.0">Rfront</text>
  <path d="M 456 69 L 495 69 L 534 69 L 534 60 L 456 60 L 456 69 z" fill="rgb(255,217,194)" stroke="black"/>
  <text fill="rgb(9,33,173)" font-size="25" x="470.0" y="68.4">wb_back</text>
  <path d="M 600.0 69.0 L 639.0 69.0 L 678.0 69.0 L 678.0 60.0 L 600.0 60.0 L 600.0 69.0 z" fill="rgb(255,217,194)" stroke="black"/>
  <text fill="rgb(9,33,173)" font-size="25" x="614.0" y="68.4">wb_front</text>
  <path d="M 754.0 174.0 L 898.0 174.0 L 898.0 135.0 Q 864.4 117.3 886.0 60.0 L 859.0 60.0 Q 826.0 136.53421339553844 793.0 60.0 L 766.0 60.0 Q 787.6 117.3 754.0 135.0 L 754.0 174.0 z" fill="rgb(255,217,194)" stroke="black"/>
  <text fill="rgb(9,33,173)" font-size="25" x="801.0" y="110.25">top_back</text>
  <path d="M 958.0 174.0 L 1102.0 174.0 L 1102.0 132.0 Q 1069.6000000000001 115.2 1090.0 60.0 L 1063.0 60.0 L 1030.0 66.0 L 997.0 60.0 L 970.0 60.0 Q 990.4 115.2 958.0 132.0 L 958.0 174.0 z" fill="rgb(255,217,194)" stroke="black"/>
  <text fill="rgb(9,33,173)" font-size="25" x="1005.0" y="105.0">top_front</text>
  <path d="M 1162.0 255.0 L 1300.0 255.0 Q 1288.0 141.0 1300.0 135.0 Q 1262.5 128.25 1270.0 60.0 L 1180.0 60.0 L 1162.0 255.0 z" fill="rgb(255,217,194)" stroke="black"/>
  <text fill="rgb(9,33,173)" font-size="25" x="1217.4" y="156.0">Lback</text>
  <path d="M 1360.0 255.0 L 1498.0 255.0 L 1480.0 60.0 L 1390.0 60.0 Q 1393.75 126.75 1360.0 135.0 Q 1372.0 141.0 1360.0 255.0 z" fill="rgb(255,217,194)" stroke="black"/>
  <text fill="rgb(9,33,173)" font-size="25" x="1392.6" y="156.0">Lfront</text>
</svg>
