<?xml version="1.0" encoding="utf-8" ?>
<svg xmlns="http://www.w3.org/2000/svg" xmlns:ev="http://www.w3.org/2001/xml-events" xmlns:xlink="http://www.w3.org/1999/xlink" baseProfile="full" height="402.0px" version="1.1" width="1688.0px">
  <defs/>
  <path d="M 60 204 L 99 204 Q 122.1 139.2 84 120 L 60 60 L 60 204 z" fill="rgb(255,217,194)" stroke="black"/>
  <text fill="rgb(9,33,173)" font-size="25" x="50.75" y="150.0">rbsleeve</text>
  <path d="M 190.75 204.0 L 214.75 144.0 Q 252.85 124.8 229.75 60.0 L 190.75 60.0 L 190.75 204.0 z" fill="rgb(255,217,194)" stroke="black"/>
  <text fill="rgb(9,33,173)" font-size="25" x="181.5" y="120.0">rfsleeve</text>
  <path d="M 321.5 342.0 L 549.5 342.0 L 549.5 150.0 L 513.5 60.0 L 471.5 60.0 Q 496.70000000000005 123.6 459.5 144.0 L 321.5 342.0 z" fill="rgb(255,217,194)" stroke="black"/>
  <text fill="rgb(9,33,173)" font-size="25" x="452.5" y="186.0">front_right</text>
  <path d="M 622.5 342.0 L 1078.5 342.0 L 940.5 144.0 Q 903.3 123.6 928.5 60.0 L 886.5 60.0 Q 850.5 85.98838405083067 814.5 60.0 L 772.5 60.0 Q 797.7 123.6 760.5 144.0 L 622.5 342.0 z" fill="rgb(255,217,194)" stroke="black"/>
  <text fill="rgb(9,33,173)" font-size="25" x="825.5" y="154.5">back</text>
  <path d="M 1138.5 342.0 L 1366.5 342.0 L 1228.5 144.0 Q 1191.3000000000002 123.6 1216.5 60.0 L 1174.5 60.0 L 1138.5 150.0 L 1138.5 342.0 z" fill="rgb(255,217,194)" stroke="black"/>
  <text fill="rgb(9,33,173)" font-size="25" x="1185.5" y="186.0">front_left</text>
  <path d="M 1426.5 204.0 L 1450.5 144.0 Q 1488.6 124.8 1465.5 60.0 L 1426.5 60.0 L 1426.5 204.0 z" fill="rgb(255,217,194)" stroke="black"/>
  <text fill="rgb(9,33,173)" font-size="25" x="1417.25" y="120.0">lbsleeve</text>
  <path d="M 1557.25 204.0 L 1596.25 204.0 Q 1619.35 139.2 1581.25 120.0 L 1557.25 60.0 L 1557.25 204.0 z" fill="rgb(255,217,194)" stroke="black"/>
  <text fill="rgb(9,33,173)" font-size="25" x="1548.0" y="150.0">lfsleeve</text>
</svg>
