<?xml version="1.0" encoding="utf-8" ?>
<svg xmlns="http://www.w3.org/2000/svg" xmlns:ev="http://www.w3.org/2001/xml-events" xmlns:xlink="http://www.w3.org/1999/xlink" baseProfile="full" height="417.0px" version="1.1" width="1387.0px">
  <defs/>
  <path d="M 60 135 L 84 135 Q 102.9 87.30000000000001 75 72 L 60 60 L 60 135 z" fill="rgb(255,217,194)" stroke="black"/>
  <text fill="rgb(9,33,173)" font-size="25" x="44.75" y="103.5">rbsleeve</text>
  <path d="M 184.75 135.0 L 199.75 123.0 Q 227.64999999999998 107.69999999999999 208.75 60.0 L 184.75 60.0 L 184.75 135.0 z" fill="rgb(255,217,194)" stroke="black"/>
  <text fill="rgb(9,33,173)" font-size="25" x="169.5" y="97.5">rfsleeve</text>
  <path d="M 309.5 357.0 L 537.5 357.0 L 483.5 120.0 Q 456.8 105.6 474.5 60.0 L 453.5 60.0 L 423.5 69.0 L 393.5 60.0 L 372.5 60.0 Q 390.2 105.6 363.5 120.0 L 309.5 357.0 z" fill="rgb(255,217,194)" stroke="black"/>
  <text fill="rgb(9,33,173)" font-size="25" x="398.5" y="143.33333333333334">back</text>
  <path d="M 597.5 357.0 L 825.5 357.0 L 771.5 120.0 Q 744.8 105.6 762.5 60.0 L 741.5 60.0 L 711.5 60.0 L 681.5 60.0 L 660.5 60.0 Q 678.2 105.6 651.5 120.0 L 597.5 357.0 z" fill="rgb(255,217,194)" stroke="black"/>
  <text fill="rgb(9,33,173)" font-size="25" x="686.5" y="142.33333333333334">front</text>
  <path d="M 885.5 147.0 L 927.5 150.0 Q 988.7 137.4 951.5 60.0 L 921.5 69.0 L 888.5 63.0 L 885.5 147.0 z" fill="rgb(255,217,194)" stroke="black"/>
  <text fill="rgb(9,33,173)" font-size="25" x="889.9" y="100.8">Rhood</text>
  <path d="M 1014.5 147.0 L 1047.5 141.0 L 1077.5 150.0 Q 1114.7 72.6 1053.5 60.0 L 1011.5 63.0 L 1014.5 147.0 z" fill="rgb(255,217,194)" stroke="black"/>
  <text fill="rgb(9,33,173)" font-size="25" x="1015.9000000000001" y="115.2">Lhood</text>
  <path d="M 1137.5 135.0 L 1152.5 123.0 Q 1180.4 107.69999999999999 1161.5 60.0 L 1137.5 60.0 L 1137.5 135.0 z" fill="rgb(255,217,194)" stroke="black"/>
  <text fill="rgb(9,33,173)" font-size="25" x="1122.25" y="97.5">lbsleeve</text>
  <path d="M 1262.25 135.0 L 1286.25 135.0 Q 1305.15 87.30000000000001 1277.25 72.0 L 1262.25 60.0 L 1262.25 135.0 z" fill="rgb(255,217,194)" stroke="black"/>
  <text fill="rgb(9,33,173)" font-size="25" x="1247.0" y="103.5">lfsleeve</text>
</svg>
