<?xml version="1.0" encoding="utf-8" ?>
<svg xmlns="http://www.w3.org/2000/svg" xmlns:ev="http://www.w3.org/2001/xml-events" xmlns:xlink="http://www.w3.org/1999/xlink" baseProfile="full" height="360px" version="1.1" width="1116px">
  <defs/>
  <path d="M 60 300 Q 192.0 302.9550971634558 324 300 L 264 102 L 261 60 L 123 60 L 120 102 L 60 300 z" fill="rgb(255,217,194)" stroke="black"/>
  <text fill="rgb(9,33,173)" font-size="25" x="167.0" y="157.0">skirt_back</text>
  <path d="M 384 300 Q 516.0 174.90723044997392 648 300 L 588 102 L 585 60 L 447 60 L 444 102 L 384 300 z" fill="rgb(255,217,194)" stroke="black"/>
  <text fill="rgb(9,33,173)" font-size="25" x="491.0" y="157.0">skirt_front</text>
  <path d="M 711 168 L 849 168 L 852 102 Q 831.6 94.2 840 60 L 813 60 Q 780.0 111.76249959462385 747 60 L 720 60 Q 728.4 94.2 708 102 L 711 168 z" fill="rgb(255,217,194)" stroke="black"/>
  <text fill="rgb(9,33,173)" font-size="25" x="755.0" y="100.5">top_back</text>
  <path d="M 915 165 L 1053 165 L 1056 102 Q 1035.6000000000001 94.2 1044 60 L 1017 60 L 984 141 L 951 60 L 924 60 Q 932.4 94.2 912 102 L 915 165 z" fill="rgb(255,217,194)" stroke="black"/>
  <text fill="rgb(9,33,173)" font-size="25" x="959.0" y="104.66666666666667">top_front</text>
</svg>
