<?xml version="1.0" encoding="utf-8" ?>
<svg xmlns="http://www.w3.org/2000/svg" xmlns:ev="http://www.w3.org/2001/xml-events" xmlns:xlink="http://www.w3.org/1999/xlink" baseProfile="full" height="228.0px" version="1.1" width="907.0px">
  <defs/>
  <path d="M 75 165 Q 138.0 144.16659159332698 201 165 L 216 102 L 210 60 L 66 60 L 60 102 L 75 165 z" fill="rgb(255,217,194)" stroke="black"/>
  <text fill="rgb(9,33,173)" font-size="25" x="113.0" y="112.0">skirt_back</text>
  <path d="M 291 165 Q 354.0 123.15616831044017 417 165 L 432 102 L 426 60 L 282 60 L 276 102 L 291 165 z" fill="rgb(255,217,194)" stroke="black"/>
  <text fill="rgb(9,33,173)" font-size="25" x="329.0" y="112.0">skirt_front</text>
  <path d="M 499.0 168.0 L 643.0 168.0 L 640.0 138.0 Q 605.1999999999999 119.39999999999999 628.0 60.0 L 604.0 60.0 Q 571.0 119.36756768662424 538.0 60.0 L 514.0 60.0 Q 536.8000000000001 119.39999999999999 502.0 138.0 L 499.0 168.0 z" fill="rgb(255,217,194)" stroke="black"/>
  <text fill="rgb(9,33,173)" font-size="25" x="546.0" y="109.5">top_back</text>
  <path d="M 703.0 165.0 L 847.0 165.0 L 844.0 138.0 Q 809.1999999999999 119.39999999999999 832.0 60.0 L 808.0 60.0 L 775.0 138.0 L 742.0 60.0 L 718.0 60.0 Q 740.8000000000001 119.39999999999999 706.0 138.0 L 703.0 165.0 z" fill="rgb(255,217,194)" stroke="black"/>
  <text fill="rgb(9,33,173)" font-size="25" x="750.0" y="112.33333333333333">top_front</text>
</svg>
