<?xml version="1.0" encoding="utf-8" ?>
<svg xmlns="http://www.w3.org/2000/svg" xmlns:ev="http://www.w3.org/2001/xml-events" xmlns:xlink="http://www.w3.org/1999/xlink" baseProfile="full" height="360px" version="1.1" width="1474.0px">
  <defs/>
  <path d="M 60 300 L 120 300 L 171 60 L 90 60 Q 103.5 139.5 60 150 Q 75.0 157.5 60 300 z" fill="rgb(255,217,194)" stroke="black"/>
  <text fill="rgb(9,33,173)" font-size="25" x="75.2" y="177.0">Rback</text>
  <path d="M 282 300 L 342 300 Q 327.0 157.5 342 150 Q 303.0 138.0 312 60 L 231 60 L 282 300 z" fill="rgb(255,217,194)" stroke="black"/>
  <text fill="rgb(9,33,173)" font-size="25" x="276.8" y="177.0">Rfront</text>
  <path d="M 402 75 L 441 75 L 480 75 L 480 60 L 402 60 L 402 75 z" fill="rgb(255,217,194)" stroke="black"/>
  <text fill="rgb(9,33,173)" font-size="25" x="416.0" y="72.0">wb_back</text>
  <path d="M 546.0 75.0 L 585.0 75.0 L 624.0 75.0 L 624.0 60.0 L 546.0 60.0 L 546.0 75.0 z" fill="rgb(255,217,194)" stroke="black"/>
  <text fill="rgb(9,33,173)" font-size="25" x="560.0" y="72.0">wb_front</text>
  <path d="M 700.0 144.0 L 856.0 144.0 L 856.0 117.0 Q 829.6 104.7 844.0 60.0 L 799.0 60.0 Q 778.0 134.69655828706246 757.0 60.0 L 712.0 60.0 Q 726.4 104.7 700.0 117.0 L 700.0 144.0 z" fill="rgb(255,217,194)" stroke="black"/>
  <text fill="rgb(9,33,173)" font-size="25" x="753.0" y="98.25">top_back</text>
  <path d="M 916.0 144.0 L 1072.0 144.0 L 1072.0 114.0 Q 1046.8000000000002 102.6 1060.0 60.0 L 1015.0 60.0 L 994.0 108.0 L 973.0 60.0 L 928.0 60.0 Q 941.2 102.6 916.0 114.0 L 916.0 144.0 z" fill="rgb(255,217,194)" stroke="black"/>
  <text fill="rgb(9,33,173)" font-size="25" x="969.0" y="99.0">top_front</text>
  <path d="M 1183.0 300.0 L 1243.0 300.0 Q 1228.0 157.5 1243.0 150.0 Q 1199.5 139.5 1213.0 60.0 L 1132.0 60.0 L 1183.0 300.0 z" fill="rgb(255,217,194)" stroke="black"/>
  <text fill="rgb(9,33,173)" font-size="25" x="1177.8" y="177.0">Lback</text>
  <path d="M 1303.0 300.0 L 1363.0 300.0 L 1414.0 60.0 L 1333.0 60.0 Q 1342.0 138.0 1303.0 150.0 Q 1318.0 157.5 1303.0 300.0 z" fill="rgb(255,217,194)" stroke="black"/>
  <text fill="rgb(9,33,173)" font-size="25" x="1318.2" y="177.0">Lfront</text>
</svg>
