<?xml version="1.0" encoding="utf-8" ?>
<svg xmlns="http://www.w3.org/2000/svg" xmlns:ev="http://www.w3.org/2001/xml-events" xmlns:xlink="http://www.w3.org/1999/xlink" baseProfile="full" height="348.0px" version="1.1" width="1633.0px">
  <defs/>
  <path d="M 60 198 L 102 198 Q 127.5 129.0 87 108 L 60 60 L 60 198 z" fill="rgb(255,217,194)" stroke="black"/>
  <text fill="rgb(9,33,173)" font-size="25" x="52.25" y="144.0">rbsleeve</text>
  <path d="M 192.25 198.0 L 219.25 150.0 Q 259.75 129.0 234.25 60.0 L 192.25 60.0 L 192.25 198.0 z" fill="rgb(255,217,194)" stroke="black"/>
  <text fill="rgb(9,33,173)" font-size="25" x="184.5" y="120.0">rfsleeve</text>
  <path d="M 324.5 288.0 Q 426.5 271.54191297168074 528.5 288.0 L 507.5 102.0 L 498.5 60.0 L 354.5 60.0 L 345.5 102.0 L 324.5 288.0 z" fill="rgb(255,217,194)" stroke="black"/>
  <text fill="rgb(9,33,173)" font-size="25" x="401.5" y="153.0">skirt_back</text>
  <path d="M 588.5 288.0 Q 690.5 223.7075231614479 792.5 288.0 L 771.5 102.0 L 762.5 60.0 L 618.5 60.0 L 609.5 102.0 L 588.5 288.0 z" fill="rgb(255,217,194)" stroke="black"/>
  <text fill="rgb(9,33,173)" font-size="25" x="665.5" y="153.0">skirt_front</text>
  <path d="M 879.5 168.0 L 1023.5 168.0 L 1050.5 150.0 Q 1010.0 129.0 1035.5 60.0 L 1002.5 60.0 Q 951.5 148.15319967196828 900.5 60.0 L 867.5 60.0 Q 893.0 129.0 852.5 150.0 L 879.5 168.0 z" fill="rgb(255,217,194)" stroke="black"/>
  <text fill="rgb(9,33,173)" font-size="25" x="926.5" y="112.5">top_back</text>
  <path d="M 1137.5 165.0 L 1281.5 165.0 L 1308.5 150.0 Q 1268.0 129.0 1293.5 60.0 L 1260.5 60.0 L 1209.5 120.0 L 1158.5 60.0 L 1125.5 60.0 Q 1151.0 129.0 1110.5 150.0 L 1137.5 165.0 z" fill="rgb(255,217,194)" stroke="black"/>
  <text fill="rgb(9,33,173)" font-size="25" x="1184.5" y="113.0">top_front</text>
  <path d="M 1368.5 198.0 L 1395.5 150.0 Q 1436.0 129.0 1410.5 60.0 L 1368.5 60.0 L 1368.5 198.0 z" fill="rgb(255,217,194)" stroke="black"/>
  <text fill="rgb(9,33,173)" font-size="25" x="1360.75" y="120.0">lbsleeve</text>
  <path d="M 1500.75 198.0 L 1542.75 198.0 Q 1568.25 129.0 1527.75 108.0 L 1500.75 60.0 L 1500.75 198.0 z" fill="rgb(255,217,194)" stroke="black"/>
  <text fill="rgb(9,33,173)" font-size="25" x="1493.0" y="144.0">lfsleeve</text>
</svg>
