<?xml version="1.0" encoding="utf-8" ?>
<svg xmlns="http://www.w3.org/2000/svg" xmlns:ev="http://www.w3.org/2001/xml-events" xmlns:xlink="http://www.w3.org/1999/xlink" baseProfile="full" height="354px" version="1.1" width="1151.0px">
  <defs/>
  <path d="M 60 294 L 207 294 L 207 114 L 162 60 L 141 60 Q 178.2 144.60000000000002 129 174 L 60 294 z" fill="rgb(255,217,194)" stroke="black"/>
  <text fill="rgb(9,33,173)" font-size="25" x="126.0" y="169.0">front_right</text>
  <path d="M 305.0 189.0 L 323.0 192.0 Q 391.4 202.8 383.0 108.0 L 341.0 117.0 L 296.0 60.0 L 305.0 189.0 z" fill="rgb(255,217,194)" stroke="black"/>
  <text fill="rgb(9,33,173)" font-size="25" x="304.6" y="136.2">Rhood</text>
  <path d="M 443.0 294.0 L 737.0 294.0 L 668.0 174.0 Q 618.8 144.60000000000002 656.0 60.0 L 635.0 60.0 L 590.0 69.0 L 545.0 60.0 L 524.0 60.0 Q 561.2 144.60000000000002 512.0 174.0 L 443.0 294.0 z" fill="rgb(255,217,194)" stroke="black"/>
  <text fill="rgb(9,33,173)" font-size="25" x="565.0" y="141.33333333333334">back</text>
  <path d="M 797.0 192.0 L 842.0 135.0 L 884.0 144.0 Q 892.4 49.2 824.0 60.0 L 806.0 63.0 L 797.0 192.0 z" fill="rgb(255,217,194)" stroke="black"/>
  <text fill="rgb(9,33,173)" font-size="25" x="805.6" y="121.8">Lhood</text>
  <path d="M 944.0 294.0 L 1091.0 294.0 L 1022.0 174.0 Q 972.8 144.60000000000002 1010.0 60.0 L 989.0 60.0 L 944.0 114.0 L 944.0 294.0 z" fill="rgb(255,217,194)" stroke="black"/>
  <text fill="rgb(9,33,173)" font-size="25" x="975.0" y="169.0">front_left</text>
</svg>
