<?xml version="1.0" encoding="utf-8" ?>
<svg xmlns="http://www.w3.org/2000/svg" xmlns:ev="http://www.w3.org/2001/xml-events" xmlns:xlink="http://www.w3.org/1999/xlink" baseProfile="full" height="297px" version="1.1" width="910.0px">
  <defs/>
  <path d="M 84 237 L 138 237 L 138 96 L 99 60 L 72 60 Q 87.6 106.8 60 120 L 84 237 z" fill="rgb(255,217,194)" stroke="black"/>
  <text fill="rgb(9,33,173)" font-size="25" x="73.5" y="138.0">front_right</text>
  <path d="M 249.5 189.0 L 267.5 189.0 Q 344.9 190.8 321.5 87.0 L 285.5 96.0 L 243.5 60.0 L 249.5 189.0 z" fill="rgb(255,217,194)" stroke="black"/>
  <text fill="rgb(9,33,173)" font-size="25" x="248.5" y="127.2">Rhood</text>
  <path d="M 405.5 237.0 L 513.5 237.0 L 537.5 120.0 Q 509.9 106.8 525.5 60.0 L 498.5 60.0 L 459.5 69.0 L 420.5 60.0 L 393.5 60.0 Q 409.1 106.8 381.5 120.0 L 405.5 237.0 z" fill="rgb(255,217,194)" stroke="black"/>
  <text fill="rgb(9,33,173)" font-size="25" x="434.5" y="116.66666666666667">back</text>
  <path d="M 597.5 189.0 L 639.5 153.0 L 675.5 162.0 Q 698.9000000000001 58.20000000000001 621.5 60.0 L 603.5 60.0 L 597.5 189.0 z" fill="rgb(255,217,194)" stroke="black"/>
  <text fill="rgb(9,33,173)" font-size="25" x="602.5" y="127.8">Lhood</text>
  <path d="M 735.5 237.0 L 789.5 237.0 L 813.5 120.0 Q 785.9 106.8 801.5 60.0 L 774.5 60.0 L 735.5 96.0 L 735.5 237.0 z" fill="rgb(255,217,194)" stroke="black"/>
  <text fill="rgb(9,33,173)" font-size="25" x="750.0" y="138.0">front_left</text>
</svg>
