<?xml version="1.0" encoding="utf-8" ?>
<svg xmlns="http://www.w3.org/2000/svg" xmlns:ev="http://www.w3.org/2001/xml-events" xmlns:xlink="http://www.w3.org/1999/xlink" baseProfile="full" height="282px" version="1.1" width="1474.0px">
  <defs/>
  <path d="M 60 222 L 138 222 L 177 60 L 90 60 Q 95.1 123.75 60 129 Q 69.3 133.65 60 222 z" fill="rgb(255,217,194)" stroke="black"/>
  <text fill="rgb(9,33,173)" font-size="25" x="80.0" y="141.6">Rback</text>
  <path d="M 276 222 L 354 222 Q 344.7 133.65 354 129 Q 322.35 122.25 324 60 L 237 60 L 276 222 z" fill="rgb(255,217,194)" stroke="black"/>
  <text fill="rgb(9,33,173)" font-size="25" x="284.0" y="141.6">Rfront</text>
  <path d="M 414 78 L 453 78 L 492 78 L 492 60 L 414 60 L 414 78 z" fill="rgb(255,217,194)" stroke="black"/>
  <text fill="rgb(9,33,173)" font-size="25" x="428.0" y="73.8">wb_back</text>
  <path d="M 558.0 78.0 L 597.0 78.0 L 636.0 78.0 L 636.0 60.0 L 558.0 60.0 L 558.0 78.0 z" fill="rgb(255,217,194)" stroke="black"/>
  <text fill="rgb(9,33,173)" font-size="25" x="572.0" y="73.8">wb_front</text>
  <path d="M 712.0 159.0 L 856.0 159.0 L 856.0 105.0 Q 834.4 96.3 844.0 60.0 L 799.0 60.0 Q 784.0 118.43966535367376 769.0 60.0 L 724.0 60.0 Q 733.6 96.3 712.0 105.0 L 712.0 159.0 z" fill="rgb(255,217,194)" stroke="black"/>
  <text fill="rgb(9,33,173)" font-size="25" x="759.0" y="99.0">top_back</text>
  <path d="M 916.0 159.0 L 1060.0 159.0 L 1060.0 105.0 Q 1038.4 96.3 1048.0 60.0 L 1003.0 60.0 L 988.0 72.0 L 973.0 60.0 L 928.0 60.0 Q 937.6 96.3 916.0 105.0 L 916.0 159.0 z" fill="rgb(255,217,194)" stroke="black"/>
  <text fill="rgb(9,33,173)" font-size="25" x="963.0" y="96.33333333333333">top_front</text>
  <path d="M 1159.0 222.0 L 1237.0 222.0 Q 1227.7 133.65 1237.0 129.0 Q 1201.9 123.75 1207.0 60.0 L 1120.0 60.0 L 1159.0 222.0 z" fill="rgb(255,217,194)" stroke="black"/>
  <text fill="rgb(9,33,173)" font-size="25" x="1167.0" y="141.6">Lback</text>
  <path d="M 1297.0 222.0 L 1375.0 222.0 L 1414.0 60.0 L 1327.0 60.0 Q 1328.65 122.25 1297.0 129.0 Q 1306.3 133.65 1297.0 222.0 z" fill="rgb(255,217,194)" stroke="black"/>
  <text fill="rgb(9,33,173)" font-size="25" x="1317.0" y="141.6">Lfront</text>
</svg>
