<?xml version="1.0" encoding="utf-8" ?>
<svg xmlns="http://www.w3.org/2000/svg" xmlns:ev="http://www.w3.org/2001/xml-events" xmlns:xlink="http://www.w3.org/1999/xlink" baseProfile="full" height="378.0px" version="1.1" width="1228.0px">
  <defs/>
  <path d="M 60 201 L 132 201 Q 150.0 150.0 120 135 L 60 60 L 60 201 z" fill="rgb(255,217,194)" stroke="black"/>
  <text fill="rgb(9,33,173)" font-size="25" x="68.0" y="152.25">rbsleeve</text>
  <path d="M 208.0 201.0 L 268.0 126.0 Q 298.0 111.0 280.0 60.0 L 208.0 60.0 L 208.0 201.0 z" fill="rgb(255,217,194)" stroke="black"/>
  <text fill="rgb(9,33,173)" font-size="25" x="216.0" y="114.75">rfsleeve</text>
  <path d="M 356.0 318.0 L 584.0 318.0 L 545.0 126.0 Q 515.0 111.0 533.0 60.0 L 512.0 60.0 Q 470.0 311.4999644765793 428.0 60.0 L 407.0 60.0 Q 425.0 110.99999999999999 395.0 126.0 L 356.0 318.0 z" fill="rgb(255,217,194)" stroke="black"/>
  <text fill="rgb(9,33,173)" font-size="25" x="445.0" y="144.0">back</text>
  <path d="M 644.0 315.0 L 872.0 315.0 L 833.0 126.0 Q 803.0 111.0 821.0 60.0 L 800.0 60.0 L 758.0 153.0 L 716.0 60.0 L 695.0 60.0 Q 713.0 110.99999999999999 683.0 126.0 L 644.0 315.0 z" fill="rgb(255,217,194)" stroke="black"/>
  <text fill="rgb(9,33,173)" font-size="25" x="733.0" y="144.66666666666666">front</text>
  <path d="M 932.0 201.0 L 992.0 126.0 Q 1022.0 111.0 1004.0 60.0 L 932.0 60.0 L 932.0 201.0 z" fill="rgb(255,217,194)" stroke="black"/>
  <text fill="rgb(9,33,173)" font-size="25" x="940.0" y="114.75">lbsleeve</text>
  <path d="M 1080.0 201.0 L 1152.0 201.0 Q 1170.0 150.0 1140.0 135.0 L 1080.0 60.0 L 1080.0 201.0 z" fill="rgb(255,217,194)" stroke="black"/>
  <text fill="rgb(9,33,173)" font-size="25" x="1088.0" y="152.25">lfsleeve</text>
</svg>
