<?xml version="1.0" encoding="utf-8" ?>
<svg xmlns="http://www.w3.org/2000/svg" xmlns:ev="http://www.w3.org/2001/xml-events" xmlns:xlink="http://www.w3.org/1999/xlink" baseProfile="full" height="246px" version="1.1" width="1422.0px">
  <defs/>
  <path d="M 60 186 L 348 186 L 348 60 L 60 60 L 60 186 z" fill="rgb(255,217,194)" stroke="black"/>
  <text fill="rgb(9,33,173)" font-size="25" x="179.0" y="126.0">skirt_back</text>
  <path d="M 408 81 L 498 81 L 498 60 L 408 60 L 408 81 z" fill="rgb(255,217,194)" stroke="black"/>
  <text fill="rgb(9,33,173)" font-size="25" x="428.0" y="73.5">wb_back</text>
  <path d="M 558 81 L 648 81 L 648 60 L 558 60 L 558 81 z" fill="rgb(255,217,194)" stroke="black"/>
  <text fill="rgb(9,33,173)" font-size="25" x="578.0" y="73.5">wb_front</text>
  <path d="M 718.0 186.0 L 1006.0 186.0 L 1006.0 60.0 L 718.0 60.0 L 718.0 186.0 z" fill="rgb(255,217,194)" stroke="black"/>
  <text fill="rgb(9,33,173)" font-size="25" x="837.0" y="126.0">skirt_front</text>
  <path d="M 1066.0 174.0 L 1180.0 174.0 L 1180.0 117.0 Q 1154.5 103.5 1171.0 60.0 L 1135.0 60.0 Q 1123.0 99.23706097065636 1111.0 60.0 L 1075.0 60.0 Q 1091.5 103.5 1066.0 117.0 L 1066.0 174.0 z" fill="rgb(255,217,194)" stroke="black"/>
  <text fill="rgb(9,33,173)" font-size="25" x="1098.0" y="105.75">top_back</text>
  <path d="M 1240.0 174.0 L 1354.0 174.0 L 1354.0 114.0 Q 1329.7 101.39999999999999 1345.0 60.0 L 1309.0 60.0 L 1297.0 90.0 L 1285.0 60.0 L 1249.0 60.0 Q 1264.3 101.39999999999999 1240.0 114.0 L 1240.0 174.0 z" fill="rgb(255,217,194)" stroke="black"/>
  <text fill="rgb(9,33,173)" font-size="25" x="1272.0" y="103.66666666666667">top_front</text>
</svg>
