<?xml version="1.0" encoding="utf-8" ?>
<svg xmlns="http://www.w3.org/2000/svg" xmlns:ev="http://www.w3.org/2001/xml-events" xmlns:xlink="http://www.w3.org/1999/xlink" baseProfile="full" height="369.0px" version="1.1" width="1780.0px">
  <defs/>
  <path d="M 60 201 L 150 201 Q 172.8 141.6 138 123 L 60 60 L 60 201 z" fill="rgb(255,217,194)" stroke="black"/>
  <text fill="rgb(9,33,173)" font-size="25" x="77.0" y="149.25">rbsleeve</text>
  <path d="M 217.0 201.0 L 295.0 138.0 Q 329.8 119.39999999999999 307.0 60.0 L 217.0 60.0 L 217.0 201.0 z" fill="rgb(255,217,194)" stroke="black"/>
  <text fill="rgb(9,33,173)" font-size="25" x="234.0" y="117.75">rfsleeve</text>
  <path d="M 374.0 309.0 L 440.0 306.0 Q 485.45 98.85000000000001 479.0 60.0 L 404.0 60.0 Q 418.7 141.75 374.0 153.0 Q 389.6 160.8 374.0 309.0 z" fill="rgb(255,217,194)" stroke="black"/>
  <text fill="rgb(9,33,173)" font-size="25" x="389.2" y="180.6">Rback</text>
  <path d="M 578.0 306.0 L 644.0 309.0 Q 628.4 160.8 644.0 153.0 Q 603.95 140.25 614.0 60.0 L 539.0 60.0 Q 532.5500000000001 98.85000000000001 578.0 306.0 z" fill="rgb(255,217,194)" stroke="black"/>
  <text fill="rgb(9,33,173)" font-size="25" x="578.8" y="180.6">Rfront</text>
  <path d="M 704.0 168.0 L 782.0 168.0 L 860.0 168.0 L 860.0 138.0 Q 825.1999999999999 119.39999999999999 848.0 60.0 L 818.0 60.0 Q 782.0 153.07282815722323 746.0 60.0 L 716.0 60.0 Q 738.8000000000001 119.39999999999999 704.0 138.0 L 704.0 168.0 z" fill="rgb(255,217,194)" stroke="black"/>
  <text fill="rgb(9,33,173)" font-size="25" x="757.0" y="116.33333333333333">up_back</text>
  <path d="M 920.0 165.0 L 998.0 165.0 L 1076.0 165.0 L 1076.0 138.0 Q 1041.2 119.39999999999999 1064.0 60.0 L 1034.0 60.0 L 998.0 102.0 L 962.0 60.0 L 932.0 60.0 Q 954.8000000000001 119.39999999999999 920.0 138.0 L 920.0 165.0 z" fill="rgb(255,217,194)" stroke="black"/>
  <text fill="rgb(9,33,173)" font-size="25" x="973.0" y="114.3">up_front</text>
  <path d="M 1175.0 306.0 L 1241.0 309.0 Q 1225.4 160.8 1241.0 153.0 Q 1196.3 141.75 1211.0 60.0 L 1136.0 60.0 Q 1129.55 98.85000000000001 1175.0 306.0 z" fill="rgb(255,217,194)" stroke="black"/>
  <text fill="rgb(9,33,173)" font-size="25" x="1175.8" y="180.6">Lback</text>
  <path d="M 1301.0 309.0 L 1367.0 306.0 Q 1412.45 98.85000000000001 1406.0 60.0 L 1331.0 60.0 Q 1341.05 140.25 1301.0 153.0 Q 1316.6 160.8 1301.0 309.0 z" fill="rgb(255,217,194)" stroke="black"/>
  <text fill="rgb(9,33,173)" font-size="25" x="1316.2" y="180.6">Lfront</text>
  <path d="M 1466.0 201.0 L 1544.0 138.0 Q 1578.8 119.39999999999999 1556.0 60.0 L 1466.0 60.0 L 1466.0 201.0 z" fill="rgb(255,217,194)" stroke="black"/>
  <text fill="rgb(9,33,173)" font-size="25" x="1483.0" y="117.75">lbsleeve</text>
  <path d="M 1623.0 201.0 L 1713.0 201.0 Q 1735.8 141.6 1701.0 123.0 L 1623.0 60.0 L 1623.0 201.0 z" fill="rgb(255,217,194)" stroke="black"/>
  <text fill="rgb(9,33,173)" font-size="25" x="1640.0" y="149.25">lfsleeve</text>
</svg>
