<?xml version="1.0" encoding="utf-8" ?>
<svg xmlns="http://www.w3.org/2000/svg" xmlns:ev="http://www.w3.org/2001/xml-events" xmlns:xlink="http://www.w3.org/1999/xlink" baseProfile="full" height="345.0px" version="1.1" width="1675.0px">
  <defs/>
  <path d="M 60 228 L 120 228 Q 149.7 161.4 111 138 L 60 60 L 60 228 z" fill="rgb(255,217,194)" stroke="black"/>
  <text fill="rgb(9,33,173)" font-size="25" x="62.75" y="166.5">rbsleeve</text>
  <path d="M 202.75 228.0 L 253.75 150.0 Q 292.45 126.6 262.75 60.0 L 202.75 60.0 L 202.75 228.0 z" fill="rgb(255,217,194)" stroke="black"/>
  <text fill="rgb(9,33,173)" font-size="25" x="205.5" y="127.5">rfsleeve</text>
  <path d="M 345.5 285.0 L 414.5 285.0 Q 451.25 95.25 444.5 60.0 L 375.5 60.0 Q 390.2 141.75 345.5 153.0 Q 358.7 159.6 345.5 285.0 z" fill="rgb(255,217,194)" stroke="black"/>
  <text fill="rgb(9,33,173)" font-size="25" x="360.1" y="171.6">Rback</text>
  <path d="M 534.5 285.0 L 603.5 285.0 Q 590.3 159.60000000000002 603.5 153.0 Q 563.45 140.25 573.5 60.0 L 504.5 60.0 Q 497.75 95.25 534.5 285.0 z" fill="rgb(255,217,194)" stroke="black"/>
  <text fill="rgb(9,33,173)" font-size="25" x="538.9" y="171.6">Rfront</text>
  <path d="M 663.5 168.0 L 735.5 168.0 L 807.5 168.0 L 792.5 150.0 Q 753.8 126.6 783.5 60.0 L 750.5 60.0 Q 735.5 99.08943332606688 720.5 60.0 L 687.5 60.0 Q 717.2 126.6 678.5 150.0 L 663.5 168.0 z" fill="rgb(255,217,194)" stroke="black"/>
  <text fill="rgb(9,33,173)" font-size="25" x="710.5" y="119.0">up_back</text>
  <path d="M 867.5 165.0 L 939.5 165.0 L 1011.5 165.0 L 996.5 150.0 Q 957.8 126.6 987.5 60.0 L 954.5 60.0 L 939.5 81.0 L 924.5 60.0 L 891.5 60.0 Q 921.2 126.6 882.5 150.0 L 867.5 165.0 z" fill="rgb(255,217,194)" stroke="black"/>
  <text fill="rgb(9,33,173)" font-size="25" x="914.5" y="114.6">up_front</text>
  <path d="M 1101.5 285.0 L 1170.5 285.0 Q 1157.3 159.60000000000002 1170.5 153.0 Q 1125.8 141.75 1140.5 60.0 L 1071.5 60.0 Q 1064.75 95.25 1101.5 285.0 z" fill="rgb(255,217,194)" stroke="black"/>
  <text fill="rgb(9,33,173)" font-size="25" x="1105.9" y="171.6">Lback</text>
  <path d="M 1230.5 285.0 L 1299.5 285.0 Q 1336.25 95.25 1329.5 60.0 L 1260.5 60.0 Q 1270.55 140.25 1230.5 153.0 Q 1243.7 159.6 1230.5 285.0 z" fill="rgb(255,217,194)" stroke="black"/>
  <text fill="rgb(9,33,173)" font-size="25" x="1245.1" y="171.6">Lfront</text>
  <path d="M 1389.5 228.0 L 1440.5 150.0 Q 1479.2 126.6 1449.5 60.0 L 1389.5 60.0 L 1389.5 228.0 z" fill="rgb(255,217,194)" stroke="black"/>
  <text fill="rgb(9,33,173)" font-size="25" x="1392.25" y="127.5">lbsleeve</text>
  <path d="M 1532.25 228.0 L 1592.25 228.0 Q 1621.95 161.4 1583.25 138.0 L 1532.25 60.0 L 1532.25 228.0 z" fill="rgb(255,217,194)" stroke="black"/>
  <text fill="rgb(9,33,173)" font-size="25" x="1535.0" y="166.5">lfsleeve</text>
</svg>
