<?xml version="1.0" encoding="utf-8" ?>
<svg xmlns="http://www.w3.org/2000/svg" xmlns:ev="http://www.w3.org/2001/xml-events" xmlns:xlink="http://www.w3.org/1999/xlink" baseProfile="full" height="435.0px" version="1.1" width="1285.0px">
  <defs/>
  <path d="M 60 177 L 135 177 Q 152.7 131.4 126 117 L 60 60 L 60 177 z" fill="rgb(255,217,194)" stroke="black"/>
  <text fill="rgb(9,33,173)" font-size="25" x="70.25" y="135.75">rbsleeve</text>
  <path d="M 210.25 177.0 L 276.25 120.0 Q 302.95 105.6 285.25 60.0 L 210.25 60.0 L 210.25 177.0 z" fill="rgb(255,217,194)" stroke="black"/>
  <text fill="rgb(9,33,173)" font-size="25" x="220.5" y="107.25">rfsleeve</text>
  <path d="M 360.5 375.0 L 612.5 375.0 L 543.5 120.0 Q 516.8 105.6 534.5 60.0 L 498.5 60.0 Q 486.5 137.6823461068608 474.5 60.0 L 438.5 60.0 Q 456.2 105.6 429.5 120.0 L 360.5 375.0 z" fill="rgb(255,217,194)" stroke="black"/>
  <text fill="rgb(9,33,173)" font-size="25" x="461.5" y="156.75">back</text>
  <path d="M 672.5 372.0 L 924.5 372.0 L 855.5 120.0 Q 828.8 105.6 846.5 60.0 L 810.5 60.0 L 798.5 72.0 L 786.5 60.0 L 750.5 60.0 Q 768.2 105.6 741.5 120.0 L 672.5 372.0 z" fill="rgb(255,217,194)" stroke="black"/>
  <text fill="rgb(9,33,173)" font-size="25" x="773.5" y="147.0">front</text>
  <path d="M 984.5 177.0 L 1050.5 120.0 Q 1077.2 105.6 1059.5 60.0 L 984.5 60.0 L 984.5 177.0 z" fill="rgb(255,217,194)" stroke="black"/>
  <text fill="rgb(9,33,173)" font-size="25" x="994.75" y="107.25">lbsleeve</text>
  <path d="M 1134.75 177.0 L 1209.75 177.0 Q 1227.45 131.4 1200.75 117.0 L 1134.75 60.0 L 1134.75 177.0 z" fill="rgb(255,217,194)" stroke="black"/>
  <text fill="rgb(9,33,173)" font-size="25" x="1145.0" y="135.75">lfsleeve</text>
</svg>
