<?xml version="1.0" encoding="utf-8" ?>
<svg xmlns="http://www.w3.org/2000/svg" xmlns:ev="http://www.w3.org/2001/xml-events" xmlns:xlink="http://www.w3.org/1999/xlink" baseProfile="full" height="285.0px" version="1.1" width="1645.0px">
  <defs/>
  <path d="M 60 180 L 105 180 Q 137.10000000000002 109.20000000000002 96 84 L 60 60 L 60 180 z" fill="rgb(255,217,194)" stroke="black"/>
  <text fill="rgb(9,33,173)" font-size="25" x="55.25" y="129.0">rbsleeve</text>
  <path d="M 195.25 180.0 L 231.25 156.0 Q 272.35 130.8 240.25 60.0 L 195.25 60.0 L 195.25 180.0 z" fill="rgb(255,217,194)" stroke="black"/>
  <text fill="rgb(9,33,173)" font-size="25" x="190.5" y="117.0">rfsleeve</text>
  <path d="M 330.5 225.0 L 393.5 225.0 Q 432.35 86.55 429.5 60.0 L 360.5 60.0 Q 375.2 141.75 330.5 153.0 Q 337.7 156.6 330.5 225.0 z" fill="rgb(255,217,194)" stroke="black"/>
  <text fill="rgb(9,33,173)" font-size="25" x="343.9" y="147.6">Rback</text>
  <path d="M 525.5 225.0 L 588.5 225.0 Q 581.3 156.60000000000002 588.5 153.0 Q 548.45 140.25 558.5 60.0 L 489.5 60.0 Q 486.65 86.55 525.5 225.0 z" fill="rgb(255,217,194)" stroke="black"/>
  <text fill="rgb(9,33,173)" font-size="25" x="525.1" y="147.6">Rfront</text>
  <path d="M 648.5 168.0 L 720.5 168.0 L 792.5 168.0 L 777.5 156.0 Q 736.4 130.8 768.5 60.0 L 735.5 60.0 Q 720.5 104.23376583349518 705.5 60.0 L 672.5 60.0 Q 704.6 130.79999999999998 663.5 156.0 L 648.5 168.0 z" fill="rgb(255,217,194)" stroke="black"/>
  <text fill="rgb(9,33,173)" font-size="25" x="695.5" y="120.33333333333333">up_back</text>
  <path d="M 852.5 165.0 L 924.5 165.0 L 996.5 165.0 L 981.5 156.0 Q 940.4 130.8 972.5 60.0 L 939.5 60.0 L 924.5 66.0 L 909.5 60.0 L 876.5 60.0 Q 908.6 130.79999999999998 867.5 156.0 L 852.5 165.0 z" fill="rgb(255,217,194)" stroke="black"/>
  <text fill="rgb(9,33,173)" font-size="25" x="899.5" y="114.3">up_front</text>
  <path d="M 1092.5 225.0 L 1155.5 225.0 Q 1148.3 156.60000000000002 1155.5 153.0 Q 1110.8 141.75 1125.5 60.0 L 1056.5 60.0 Q 1053.65 86.55 1092.5 225.0 z" fill="rgb(255,217,194)" stroke="black"/>
  <text fill="rgb(9,33,173)" font-size="25" x="1092.1" y="147.6">Lback</text>
  <path d="M 1215.5 225.0 L 1278.5 225.0 Q 1317.35 86.55 1314.5 60.0 L 1245.5 60.0 Q 1255.55 140.25 1215.5 153.0 Q 1222.7 156.6 1215.5 225.0 z" fill="rgb(255,217,194)" stroke="black"/>
  <text fill="rgb(9,33,173)" font-size="25" x="1228.9" y="147.6">Lfront</text>
  <path d="M 1374.5 180.0 L 1410.5 156.0 Q 1451.6000000000001 130.8 1419.5 60.0 L 1374.5 60.0 L 1374.5 180.0 z" fill="rgb(255,217,194)" stroke="black"/>
  <text fill="rgb(9,33,173)" font-size="25" x="1369.75" y="117.0">lbsleeve</text>
  <path d="M 1509.75 180.0 L 1554.75 180.0 Q 1586.8500000000001 109.20000000000002 1545.75 84.0 L 1509.75 60.0 L 1509.75 180.0 z" fill="rgb(255,217,194)" stroke="black"/>
  <text fill="rgb(9,33,173)" font-size="25" x="1505.0" y="129.0">lfsleeve</text>
</svg>
