<?xml version="1.0" encoding="utf-8" ?>
<svg xmlns="http://www.w3.org/2000/svg" xmlns:ev="http://www.w3.org/2001/xml-events" xmlns:xlink="http://www.w3.org/1999/xlink" baseProfile="full" height="396px" version="1.1" width="1486.0px">
  <defs/>
  <path d="M 60 336 L 336 336 L 336 60 L 60 60 L 60 336 z" fill="rgb(255,217,194)" stroke="black"/>
  <text fill="rgb(9,33,173)" font-size="25" x="173.0" y="201.0">skirt_back</text>
  <path d="M 396 66 L 486 66 L 486 60 L 396 60 L 396 66 z" fill="rgb(255,217,194)" stroke="black"/>
  <text fill="rgb(9,33,173)" font-size="25" x="416.0" y="66.0">wb_back</text>
  <path d="M 546 66 L 636 66 L 636 60 L 546 60 L 546 66 z" fill="rgb(255,217,194)" stroke="black"/>
  <text fill="rgb(9,33,173)" font-size="25" x="566.0" y="66.0">wb_front</text>
  <path d="M 706.0 336.0 L 982.0 336.0 L 982.0 60.0 L 706.0 60.0 L 706.0 336.0 z" fill="rgb(255,217,194)" stroke="black"/>
  <text fill="rgb(9,33,173)" font-size="25" x="819.0" y="201.0">skirt_front</text>
  <path d="M 1042.0 168.0 L 1204.0 168.0 L 1204.0 108.0 Q 1181.2 98.39999999999999 1192.0 60.0 L 1156.0 60.0 Q 1123.0 101.71523142003836 1090.0 60.0 L 1054.0 60.0 Q 1064.8 98.39999999999999 1042.0 108.0 L 1042.0 168.0 z" fill="rgb(255,217,194)" stroke="black"/>
  <text fill="rgb(9,33,173)" font-size="25" x="1098.0" y="102.0">top_back</text>
  <path d="M 1264.0 168.0 L 1426.0 168.0 L 1426.0 108.0 Q 1403.2 98.39999999999999 1414.0 60.0 L 1378.0 60.0 L 1345.0 138.0 L 1312.0 60.0 L 1276.0 60.0 Q 1286.8 98.39999999999999 1264.0 108.0 L 1264.0 168.0 z" fill="rgb(255,217,194)" stroke="black"/>
  <text fill="rgb(9,33,173)" font-size="25" x="1320.0" y="106.33333333333333">top_front</text>
</svg>
