<?xml version="1.0" encoding="utf-8" ?>
<svg xmlns="http://www.w3.org/2000/svg" xmlns:ev="http://www.w3.org/2001/xml-events" xmlns:xlink="http://www.w3.org/1999/xlink" baseProfile="full" height="459.0px" version="1.1" width="1328.0px">
  <defs/>
  <path d="M 60 222 L 117 222 Q 129.3 176.1 102 165 L 60 60 L 60 222 z" fill="rgb(255,217,194)" stroke="black"/>
  <text fill="rgb(9,33,173)" font-size="25" x="59.75" y="170.25">rbsleeve</text>
  <path d="M 199.75 222.0 L 241.75 117.0 Q 269.05 105.9 256.75 60.0 L 199.75 60.0 L 199.75 222.0 z" fill="rgb(255,217,194)" stroke="black"/>
  <text fill="rgb(9,33,173)" font-size="25" x="199.5" y="117.75">rfsleeve</text>
  <path d="M 339.5 399.0 L 462.5 399.0 L 462.5 81.0 L 441.5 60.0 L 387.5 60.0 Q 398.6 103.8 372.5 114.0 L 339.5 399.0 z" fill="rgb(255,217,194)" stroke="black"/>
  <text fill="rgb(9,33,173)" font-size="25" x="386.0" y="188.5">front_right</text>
  <path d="M 556.0 399.0 L 802.0 399.0 L 769.0 117.0 Q 741.7 105.9 754.0 60.0 L 700.0 60.0 Q 679.0 126.46103397654662 658.0 60.0 L 604.0 60.0 Q 616.3 105.9 589.0 117.0 L 556.0 399.0 z" fill="rgb(255,217,194)" stroke="black"/>
  <text fill="rgb(9,33,173)" font-size="25" x="654.0" y="162.0">back</text>
  <path d="M 862.0 399.0 L 985.0 399.0 L 952.0 114.0 Q 925.9 103.8 937.0 60.0 L 883.0 60.0 L 862.0 81.0 L 862.0 399.0 z" fill="rgb(255,217,194)" stroke="black"/>
  <text fill="rgb(9,33,173)" font-size="25" x="888.5" y="188.5">front_left</text>
  <path d="M 1048.5 222.0 L 1090.5 117.0 Q 1117.8 105.9 1105.5 60.0 L 1048.5 60.0 L 1048.5 222.0 z" fill="rgb(255,217,194)" stroke="black"/>
  <text fill="rgb(9,33,173)" font-size="25" x="1048.25" y="117.75">lbsleeve</text>
  <path d="M 1188.25 222.0 L 1245.25 222.0 Q 1257.55 176.1 1230.25 165.0 L 1188.25 60.0 L 1188.25 222.0 z" fill="rgb(255,217,194)" stroke="black"/>
  <text fill="rgb(9,33,173)" font-size="25" x="1188.0" y="170.25">lfsleeve</text>
</svg>
