<?xml version="1.0" encoding="utf-8" ?>
<svg xmlns="http://www.w3.org/2000/svg" xmlns:ev="http://www.w3.org/2001/xml-events" xmlns:xlink="http://www.w3.org/1999/xlink" baseProfile="full" height="384px" version="1.1" width="1140px">
  <defs/>
  <path d="M 60 324 L 162 324 Q 177.75 99.75 165 60 L 90 60 Q 104.7 141.75 60 153 Q 77.1 161.55 60 324 z" fill="rgb(255,217,194)" stroke="black"/>
  <text fill="rgb(9,33,173)" font-size="25" x="82.4" y="187.2">Rback</text>
  <path d="M 228 324 L 330 324 Q 312.9 161.55 330 153 Q 289.95 140.25 300 60 L 225 60 Q 212.25 99.75 228 324 z" fill="rgb(255,217,194)" stroke="black"/>
  <text fill="rgb(9,33,173)" font-size="25" x="257.6" y="187.2">Rfront</text>
  <path d="M 390 168 L 465 168 L 540 168 L 525 141 Q 489.9 120.3 516 60 L 483 60 Q 465.0 106.77900802073188 447 60 L 414 60 Q 440.09999999999997 120.29999999999998 405 141 L 390 168 z" fill="rgb(255,217,194)" stroke="black"/>
  <text fill="rgb(9,33,173)" font-size="25" x="440.0" y="117.0">up_back</text>
  <path d="M 600 165 L 675 165 L 750 165 L 735 141 Q 699.9 120.3 726 60 L 693 60 L 675 135 L 657 60 L 624 60 Q 650.1 120.29999999999998 615 141 L 600 165 z" fill="rgb(255,217,194)" stroke="black"/>
  <text fill="rgb(9,33,173)" font-size="25" x="650.0" y="118.2">up_front</text>
  <path d="M 813 324 L 915 324 Q 897.9 161.55 915 153 Q 870.3 141.75 885 60 L 810 60 Q 797.25 99.75 813 324 z" fill="rgb(255,217,194)" stroke="black"/>
  <text fill="rgb(9,33,173)" font-size="25" x="842.6" y="187.2">Lback</text>
  <path d="M 975 324 L 1077 324 Q 1092.75 99.75 1080 60 L 1005 60 Q 1015.05 140.25 975 153 Q 992.1 161.55 975 324 z" fill="rgb(255,217,194)" stroke="black"/>
  <text fill="rgb(9,33,173)" font-size="25" x="997.4" y="187.2">Lfront</text>
</svg>
