<?xml version="1.0" encoding="utf-8" ?>
<svg xmlns="http://www.w3.org/2000/svg" xmlns:ev="http://www.w3.org/2001/xml-events" xmlns:xlink="http://www.w3.org/1999/xlink" baseProfile="full" height="384px" version="1.1" width="1006.0px">
  <defs/>
  <path d="M 60 324 L 174 324 L 174 111 L 147 60 L 114 60 Q 141.3 122.39999999999999 105 144 L 60 324 z" fill="rgb(255,217,194)" stroke="black"/>
  <text fill="rgb(9,33,173)" font-size="25" x="104.0" y="173.5">front_right</text>
  <path d="M 274.0 189.0 L 346.0 195.0 Q 399.1 161.7 337.0 102.0 L 310.0 111.0 L 283.0 60.0 L 274.0 189.0 z" fill="rgb(255,217,194)" stroke="black"/>
  <text fill="rgb(9,33,173)" font-size="25" x="285.0" y="134.4">Rhood</text>
  <path d="M 406.0 324.0 L 634.0 324.0 L 589.0 144.0 Q 552.6999999999999 122.39999999999999 580.0 60.0 L 547.0 60.0 L 520.0 69.0 L 493.0 60.0 L 460.0 60.0 Q 487.3 122.39999999999999 451.0 144.0 L 406.0 324.0 z" fill="rgb(255,217,194)" stroke="black"/>
  <text fill="rgb(9,33,173)" font-size="25" x="495.0" y="141.33333333333334">back</text>
  <path d="M 703.0 195.0 L 730.0 144.0 L 757.0 153.0 Q 819.0999999999999 93.30000000000001 766.0 60.0 L 694.0 66.0 L 703.0 195.0 z" fill="rgb(255,217,194)" stroke="black"/>
  <text fill="rgb(9,33,173)" font-size="25" x="705.0" y="126.6">Lhood</text>
  <path d="M 826.0 324.0 L 940.0 324.0 L 895.0 144.0 Q 858.6999999999999 122.39999999999999 886.0 60.0 L 853.0 60.0 L 826.0 111.0 L 826.0 324.0 z" fill="rgb(255,217,194)" stroke="black"/>
  <text fill="rgb(9,33,173)" font-size="25" x="846.0" y="173.5">front_left</text>
</svg>
