<?xml version="1.0" encoding="utf-8" ?>
<svg xmlns="http://www.w3.org/2000/svg" xmlns:ev="http://www.w3.org/2001/xml-events" xmlns:xlink="http://www.w3.org/1999/xlink" baseProfile="full" height="366px" version="1.1" width="865.0px">
  <defs/>
  <path d="M 60 306 L 141 306 L 141 105 L 126 60 L 75 60 Q 103.8 129.9 63 153 L 60 306 z" fill="rgb(255,217,194)" stroke="black"/>
  <text fill="rgb(9,33,173)" font-size="25" x="76.0" y="168.0">front_right</text>
  <path d="M 246.0 207.0 L 258.0 207.0 Q 336.29999999999995 197.1 297.0 96.0 L 282.0 105.0 L 264.0 60.0 L 246.0 207.0 z" fill="rgb(255,217,194)" stroke="black"/>
  <text fill="rgb(9,33,173)" font-size="25" x="244.39999999999998" y="138.0">Rhood</text>
  <path d="M 357.0 306.0 L 519.0 306.0 L 516.0 153.0 Q 475.2 129.9 504.0 60.0 L 453.0 60.0 L 438.0 69.0 L 423.0 60.0 L 372.0 60.0 Q 400.8 129.9 360.0 153.0 L 357.0 306.0 z" fill="rgb(255,217,194)" stroke="black"/>
  <text fill="rgb(9,33,173)" font-size="25" x="413.0" y="139.33333333333334">back</text>
  <path d="M 597.0 207.0 L 615.0 162.0 L 630.0 171.0 Q 669.3000000000001 69.9 591.0 60.0 L 579.0 60.0 L 597.0 207.0 z" fill="rgb(255,217,194)" stroke="black"/>
  <text fill="rgb(9,33,173)" font-size="25" x="577.4" y="135.0">Lhood</text>
  <path d="M 690.0 306.0 L 771.0 306.0 L 768.0 153.0 Q 727.1999999999999 129.9 756.0 60.0 L 705.0 60.0 L 690.0 105.0 L 690.0 306.0 z" fill="rgb(255,217,194)" stroke="black"/>
  <text fill="rgb(9,33,173)" font-size="25" x="705.0" y="168.0">front_left</text>
</svg>
