<?xml version="1.0" encoding="utf-8" ?>
<svg xmlns="http://www.w3.org/2000/svg" xmlns:ev="http://www.w3.org/2001/xml-events" xmlns:xlink="http://www.w3.org/1999/xlink" baseProfile="full" height="378px" version="1.1" width="1092px">
  <defs/>
  <path d="M 60 318 Q 171.0 401.6170135527851 282 318 L 240 102 L 237 60 L 105 60 L 102 102 L 60 318 z" fill="rgb(255,217,194)" stroke="black"/>
  <text fill="rgb(9,33,173)" font-size="25" x="146.0" y="163.0">skirt_back</text>
  <path d="M 342 318 Q 453.0 373.8356250173727 564 318 L 522 102 L 519 60 L 387 60 L 384 102 L 342 318 z" fill="rgb(255,217,194)" stroke="black"/>
  <text fill="rgb(9,33,173)" font-size="25" x="428.0" y="163.0">skirt_front</text>
  <path d="M 645 168 L 777 168 L 798 150 Q 758.4 127.8 786 60 L 732 60 Q 711.0 140.93010880972497 690 60 L 636 60 Q 663.6 127.8 624 150 L 645 168 z" fill="rgb(255,217,194)" stroke="black"/>
  <text fill="rgb(9,33,173)" font-size="25" x="686.0" y="112.5">top_back</text>
  <path d="M 879 165 L 1011 165 L 1032 150 Q 992.4000000000001 127.8 1020 60 L 966 60 L 945 129 L 924 60 L 870 60 Q 897.6 127.8 858 150 L 879 165 z" fill="rgb(255,217,194)" stroke="black"/>
  <text fill="rgb(9,33,173)" font-size="25" x="920.0" y="114.0">top_front</text>
</svg>
