<?xml version="1.0" encoding="utf-8" ?>
<svg xmlns="http://www.w3.org/2000/svg" xmlns:ev="http://www.w3.org/2001/xml-events" xmlns:xlink="http://www.w3.org/1999/xlink" baseProfile="full" height="285px" version="1.1" width="1152px">
  <defs/>
  <path d="M 60 225 Q 192.0 121.97214860279031 324 225 L 264 102 L 264 60 L 120 60 L 120 102 L 60 225 z" fill="rgb(255,217,194)" stroke="black"/>
  <text fill="rgb(9,33,173)" font-size="25" x="167.0" y="132.0">skirt_back</text>
  <path d="M 384 225 Q 516.0 267.3267736669084 648 225 L 588 102 L 588 60 L 444 60 L 444 102 L 384 225 z" fill="rgb(255,217,194)" stroke="black"/>
  <text fill="rgb(9,33,173)" font-size="25" x="491.0" y="132.0">skirt_front</text>
  <path d="M 717 168 L 861 168 L 870 147 Q 831.6 125.7 858 60 L 813 60 Q 789.0 130.92365134165004 765 60 L 720 60 Q 746.4 125.7 708 147 L 717 168 z" fill="rgb(255,217,194)" stroke="black"/>
  <text fill="rgb(9,33,173)" font-size="25" x="764.0" y="111.75">top_back</text>
  <path d="M 939 165 L 1083 165 L 1092 147 Q 1053.6000000000001 125.7 1080 60 L 1035 60 L 1011 96 L 987 60 L 942 60 Q 968.4 125.7 930 147 L 939 165 z" fill="rgb(255,217,194)" stroke="black"/>
  <text fill="rgb(9,33,173)" font-size="25" x="986.0" y="109.66666666666667">top_front</text>
</svg>
