<?xml version="1.0" encoding="utf-8" ?>
<svg xmlns="http://www.w3.org/2000/svg" xmlns:ev="http://www.w3.org/2001/xml-events" xmlns:xlink="http://www.w3.org/1999/xlink" baseProfile="full" height="405.0px" version="1.1" width="1708.0px">
  <defs/>
  <path d="M 60 222 L 114 222 Q 126.0 181.5 102 171 L 60 60 L 60 222 z" fill="rgb(255,217,194)" stroke="black"/>
  <text fill="rgb(9,33,173)" font-size="25" x="59.0" y="171.75">rbsleeve</text>
  <path d="M 199.0 222.0 L 241.0 111.0 Q 265.0 100.5 253.0 60.0 L 199.0 60.0 L 199.0 222.0 z" fill="rgb(255,217,194)" stroke="black"/>
  <text fill="rgb(9,33,173)" font-size="25" x="198.0" y="116.25">rfsleeve</text>
  <path d="M 338.0 345.0 L 392.0 342.0 Q 449.45000000000005 104.85000000000001 443.0 60.0 L 368.0 60.0 Q 382.7 141.75 338.0 153.0 Q 357.2 162.6 338.0 345.0 z" fill="rgb(255,217,194)" stroke="black"/>
  <text fill="rgb(9,33,173)" font-size="25" x="350.8" y="195.0">Rback</text>
  <path d="M 554.0 342.0 L 608.0 345.0 Q 588.8 162.60000000000002 608.0 153.0 Q 567.95 140.25 578.0 60.0 L 503.0 60.0 Q 496.54999999999995 104.85 554.0 342.0 z" fill="rgb(255,217,194)" stroke="black"/>
  <text fill="rgb(9,33,173)" font-size="25" x="545.2" y="195.0">Rfront</text>
  <path d="M 671.0 168.0 L 746.0 168.0 L 821.0 168.0 L 824.0 111.0 Q 800.0 100.5 812.0 60.0 L 767.0 60.0 Q 746.0 73.63413878207675 725.0 60.0 L 680.0 60.0 Q 692.0 100.49999999999999 668.0 111.0 L 671.0 168.0 z" fill="rgb(255,217,194)" stroke="black"/>
  <text fill="rgb(9,33,173)" font-size="25" x="721.0" y="110.33333333333333">up_back</text>
  <path d="M 887.0 165.0 L 962.0 165.0 L 1037.0 165.0 L 1040.0 111.0 Q 1016.0000000000001 100.5 1028.0 60.0 L 983.0 60.0 L 962.0 117.0 L 941.0 60.0 L 896.0 60.0 Q 908.0 100.49999999999999 884.0 111.0 L 887.0 165.0 z" fill="rgb(255,217,194)" stroke="black"/>
  <text fill="rgb(9,33,173)" font-size="25" x="937.0" y="110.4">up_front</text>
  <path d="M 1151.0 342.0 L 1205.0 345.0 Q 1185.8 162.60000000000002 1205.0 153.0 Q 1160.3 141.75 1175.0 60.0 L 1100.0 60.0 Q 1093.5500000000002 104.85 1151.0 342.0 z" fill="rgb(255,217,194)" stroke="black"/>
  <text fill="rgb(9,33,173)" font-size="25" x="1142.2" y="195.0">Lback</text>
  <path d="M 1265.0 345.0 L 1319.0 342.0 Q 1376.4499999999998 104.85000000000001 1370.0 60.0 L 1295.0 60.0 Q 1305.05 140.25 1265.0 153.0 Q 1284.2 162.6 1265.0 345.0 z" fill="rgb(255,217,194)" stroke="black"/>
  <text fill="rgb(9,33,173)" font-size="25" x="1277.8" y="195.0">Lfront</text>
  <path d="M 1430.0 222.0 L 1472.0 111.0 Q 1496.0 100.5 1484.0 60.0 L 1430.0 60.0 L 1430.0 222.0 z" fill="rgb(255,217,194)" stroke="black"/>
  <text fill="rgb(9,33,173)" font-size="25" x="1429.0" y="116.25">lbsleeve</text>
  <path d="M 1569.0 222.0 L 1623.0 222.0 Q 1635.0 181.5 1611.0 171.0 L 1569.0 60.0 L 1569.0 222.0 z" fill="rgb(255,217,194)" stroke="black"/>
  <text fill="rgb(9,33,173)" font-size="25" x="1568.0" y="171.75">lfsleeve</text>
</svg>
