<?xml version="1.0" encoding="utf-8" ?>
<svg xmlns="http://www.w3.org/2000/svg" xmlns:ev="http://www.w3.org/2001/xml-events" xmlns:xlink="http://www.w3.org/1999/xlink" baseProfile="full" height="264px" version="1.1" width="1666.0px">
  <defs/>
  <path d="M 60 204 L 132 204 Q 170.4 117.30000000000001 120 87 L 60 60 L 60 204 z" fill="rgb(255,217,194)" stroke="black"/>
  <text fill="rgb(9,33,173)" font-size="25" x="68.0" y="141.75">rbsleeve</text>
  <path d="M 208.0 204.0 L 268.0 177.0 Q 318.40000000000003 146.70000000000002 280.0 60.0 L 208.0 60.0 L 208.0 204.0 z" fill="rgb(255,217,194)" stroke="black"/>
  <text fill="rgb(9,33,173)" font-size="25" x="216.0" y="128.25">rfsleeve</text>
  <path d="M 356.0 201.0 L 674.0 201.0 L 590.0 177.0 Q 539.6 146.70000000000002 578.0 60.0 L 545.0 60.0 L 515.0 69.0 L 485.0 60.0 L 452.0 60.0 Q 490.40000000000003 146.7 440.0 177.0 L 356.0 201.0 z" fill="rgb(255,217,194)" stroke="black"/>
  <text fill="rgb(9,33,173)" font-size="25" x="490.0" y="121.33333333333333">back</text>
  <path d="M 734.0 201.0 L 1052.0 201.0 L 968.0 177.0 Q 917.6 146.70000000000002 956.0 60.0 L 923.0 60.0 L 893.0 63.0 L 863.0 60.0 L 830.0 60.0 Q 868.4 146.7 818.0 177.0 L 734.0 201.0 z" fill="rgb(255,217,194)" stroke="black"/>
  <text fill="rgb(9,33,173)" font-size="25" x="868.0" y="120.66666666666667">front</text>
  <path d="M 1112.0 141.0 L 1181.0 150.0 Q 1234.1 121.2 1178.0 60.0 L 1148.0 69.0 L 1118.0 60.0 L 1112.0 141.0 z" fill="rgb(255,217,194)" stroke="black"/>
  <text fill="rgb(9,33,173)" font-size="25" x="1122.4" y="99.0">Rhood</text>
  <path d="M 1247.0 150.0 L 1277.0 141.0 L 1307.0 150.0 Q 1363.1 88.8 1310.0 60.0 L 1241.0 69.0 L 1247.0 150.0 z" fill="rgb(255,217,194)" stroke="black"/>
  <text fill="rgb(9,33,173)" font-size="25" x="1251.4" y="117.0">Lhood</text>
  <path d="M 1370.0 204.0 L 1430.0 177.0 Q 1480.3999999999999 146.70000000000002 1442.0 60.0 L 1370.0 60.0 L 1370.0 204.0 z" fill="rgb(255,217,194)" stroke="black"/>
  <text fill="rgb(9,33,173)" font-size="25" x="1378.0" y="128.25">lbsleeve</text>
  <path d="M 1518.0 204.0 L 1590.0 204.0 Q 1628.3999999999999 117.30000000000001 1578.0 87.0 L 1518.0 60.0 L 1518.0 204.0 z" fill="rgb(255,217,194)" stroke="black"/>
  <text fill="rgb(9,33,173)" font-size="25" x="1526.0" y="141.75">lfsleeve</text>
</svg>
