<?xml version="1.0" encoding="utf-8" ?>
<svg xmlns="http://www.w3.org/2000/svg" xmlns:ev="http://www.w3.org/2001/xml-events" xmlns:xlink="http://www.w3.org/1999/xlink" baseProfile="full" height="267px" version="1.1" width="1008px">
  <defs/>
  <path d="M 60 207 Q 162.0 110.94732416020646 264 207 L 234 102 L 210 60 L 114 60 L 90 102 L 60 207 z" fill="rgb(255,217,194)" stroke="black"/>
  <text fill="rgb(9,33,173)" font-size="25" x="137.0" y="126.0">skirt_back</text>
  <path d="M 324 207 Q 426.0 256.42157294433764 528 207 L 498 102 L 474 60 L 378 60 L 354 102 L 324 207 z" fill="rgb(255,217,194)" stroke="black"/>
  <text fill="rgb(9,33,173)" font-size="25" x="401.0" y="126.0">skirt_front</text>
  <path d="M 615 168 L 711 168 L 738 117 Q 711.6 104.7 726 60 L 696 60 Q 663.0 137.18643041488454 630 60 L 600 60 Q 614.4 104.7 588 117 L 615 168 z" fill="rgb(255,217,194)" stroke="black"/>
  <text fill="rgb(9,33,173)" font-size="25" x="638.0" y="104.25">top_back</text>
  <path d="M 825 165 L 921 165 L 948 117 Q 921.6 104.7 936 60 L 906 60 L 873 93 L 840 60 L 810 60 Q 824.4 104.7 798 117 L 825 165 z" fill="rgb(255,217,194)" stroke="black"/>
  <text fill="rgb(9,33,173)" font-size="25" x="848.0" y="102.66666666666667">top_front</text>
</svg>
