<?xml version="1.0" encoding="utf-8" ?>
<svg xmlns="http://www.w3.org/2000/svg" xmlns:ev="http://www.w3.org/2001/xml-events" xmlns:xlink="http://www.w3.org/1999/xlink" baseProfile="full" height="255px" version="1.1" width="1579.0px">
  <defs/>
  <path d="M 60 186 L 168 186 Q 196.8 116.10000000000001 156 93 L 60 60 L 60 186 z" fill="rgb(255,217,194)" stroke="black"/>
  <text fill="rgb(9,33,173)" font-size="25" x="86.0" y="134.25">rbsleeve</text>
  <path d="M 228 186 L 324 153 Q 364.8 129.9 336 60 L 228 60 L 228 186 z" fill="rgb(255,217,194)" stroke="black"/>
  <text fill="rgb(9,33,173)" font-size="25" x="254.0" y="117.75">rfsleeve</text>
  <path d="M 396 195 Q 474.0 272.3415281557071 552 195 L 549 102 L 540 60 L 408 60 L 399 102 L 396 195 z" fill="rgb(255,217,194)" stroke="black"/>
  <text fill="rgb(9,33,173)" font-size="25" x="449.0" y="122.0">skirt_back</text>
  <path d="M 612 195 Q 690.0 137.93345777958191 768 195 L 765 102 L 756 60 L 624 60 L 615 102 L 612 195 z" fill="rgb(255,217,194)" stroke="black"/>
  <text fill="rgb(9,33,173)" font-size="25" x="665.0" y="122.0">skirt_front</text>
  <path d="M 841.0 168.0 L 973.0 168.0 L 979.0 150.0 Q 939.4 127.8 967.0 60.0 L 937.0 60.0 Q 907.0 160.36170210233337 877.0 60.0 L 847.0 60.0 Q 874.6 127.8 835.0 150.0 L 841.0 168.0 z" fill="rgb(255,217,194)" stroke="black"/>
  <text fill="rgb(9,33,173)" font-size="25" x="882.0" y="112.5">top_back</text>
  <path d="M 1045.0 165.0 L 1177.0 165.0 L 1183.0 150.0 Q 1143.4 127.8 1171.0 60.0 L 1141.0 60.0 L 1111.0 114.0 L 1081.0 60.0 L 1051.0 60.0 Q 1078.6 127.8 1039.0 150.0 L 1045.0 165.0 z" fill="rgb(255,217,194)" stroke="black"/>
  <text fill="rgb(9,33,173)" font-size="25" x="1086.0" y="112.33333333333333">top_front</text>
  <path d="M 1243.0 186.0 L 1339.0 153.0 Q 1379.8 129.9 1351.0 60.0 L 1243.0 60.0 L 1243.0 186.0 z" fill="rgb(255,217,194)" stroke="black"/>
  <text fill="rgb(9,33,173)" font-size="25" x="1269.0" y="117.75">lbsleeve</text>
  <path d="M 1411.0 186.0 L 1519.0 186.0 Q 1547.8 116.10000000000001 1507.0 93.0 L 1411.0 60.0 L 1411.0 186.0 z" fill="rgb(255,217,194)" stroke="black"/>
  <text fill="rgb(9,33,173)" font-size="25" x="1437.0" y="134.25">lfsleeve</text>
</svg>
