<?xml version="1.0" encoding="utf-8" ?>
<svg xmlns="http://www.w3.org/2000/svg" xmlns:ev="http://www.w3.org/2001/xml-events" xmlns:xlink="http://www.w3.org/1999/xlink" baseProfile="full" height="342px" version="1.1" width="1354.0px">
  <defs/>
  <path d="M 60 282 L 288 282 L 288 60 L 60 60 L 60 282 z" fill="rgb(255,217,194)" stroke="black"/>
  <text fill="rgb(9,33,173)" font-size="25" x="149.0" y="174.0">skirt_back</text>
  <path d="M 348 69 L 438 69 L 438 60 L 348 60 L 348 69 z" fill="rgb(255,217,194)" stroke="black"/>
  <text fill="rgb(9,33,173)" font-size="25" x="368.0" y="67.5">wb_back</text>
  <path d="M 498 69 L 588 69 L 588 60 L 498 60 L 498 69 z" fill="rgb(255,217,194)" stroke="black"/>
  <text fill="rgb(9,33,173)" font-size="25" x="518.0" y="67.5">wb_front</text>
  <path d="M 658.0 282.0 L 886.0 282.0 L 886.0 60.0 L 658.0 60.0 L 658.0 282.0 z" fill="rgb(255,217,194)" stroke="black"/>
  <text fill="rgb(9,33,173)" font-size="25" x="747.0" y="174.0">skirt_front</text>
  <path d="M 946.0 150.0 L 1090.0 150.0 L 1090.0 111.0 Q 1066.0 100.5 1078.0 60.0 L 1039.0 60.0 Q 1018.0 67.44521860525589 997.0 60.0 L 958.0 60.0 Q 970.0 100.49999999999999 946.0 111.0 L 946.0 150.0 z" fill="rgb(255,217,194)" stroke="black"/>
  <text fill="rgb(9,33,173)" font-size="25" x="993.0" y="98.25">top_back</text>
  <path d="M 1150.0 150.0 L 1294.0 150.0 L 1294.0 111.0 Q 1270.0 100.5 1282.0 60.0 L 1243.0 60.0 L 1222.0 126.0 L 1201.0 60.0 L 1162.0 60.0 Q 1174.0 100.49999999999999 1150.0 111.0 L 1150.0 150.0 z" fill="rgb(255,217,194)" stroke="black"/>
  <text fill="rgb(9,33,173)" font-size="25" x="1197.0" y="101.66666666666667">top_front</text>
</svg>
