<?xml version="1.0" encoding="utf-8" ?>
<svg xmlns="http://www.w3.org/2000/svg" xmlns:ev="http://www.w3.org/2001/xml-events" xmlns:xlink="http://www.w3.org/1999/xlink" baseProfile="full" height="276px" version="1.1" width="1226.0px">
  <defs/>
  <path d="M 60 216 L 222 216 L 222 60 L 60 60 L 60 216 z" fill="rgb(255,217,194)" stroke="black"/>
  <text fill="rgb(9,33,173)" font-size="25" x="116.0" y="141.0">skirt_back</text>
  <path d="M 282 78 L 372 78 L 372 60 L 282 60 L 282 78 z" fill="rgb(255,217,194)" stroke="black"/>
  <text fill="rgb(9,33,173)" font-size="25" x="302.0" y="72.0">wb_back</text>
  <path d="M 432 78 L 522 78 L 522 60 L 432 60 L 432 78 z" fill="rgb(255,217,194)" stroke="black"/>
  <text fill="rgb(9,33,173)" font-size="25" x="452.0" y="72.0">wb_front</text>
  <path d="M 592.0 216.0 L 754.0 216.0 L 754.0 60.0 L 592.0 60.0 L 592.0 216.0 z" fill="rgb(255,217,194)" stroke="black"/>
  <text fill="rgb(9,33,173)" font-size="25" x="648.0" y="141.0">skirt_front</text>
  <path d="M 818.0 177.0 L 962.0 177.0 L 962.0 126.0 Q 932.0 111.0 950.0 60.0 L 905.0 60.0 Q 890.0 89.927753370138 875.0 60.0 L 830.0 60.0 Q 848.0 110.99999999999999 818.0 126.0 L 818.0 177.0 z" fill="rgb(255,217,194)" stroke="black"/>
  <text fill="rgb(9,33,173)" font-size="25" x="865.0" y="108.75">top_back</text>
  <path d="M 1022.0 177.0 L 1166.0 177.0 L 1166.0 123.0 Q 1137.2 108.89999999999999 1154.0 60.0 L 1109.0 60.0 L 1094.0 105.0 L 1079.0 60.0 L 1034.0 60.0 Q 1050.8 108.89999999999999 1022.0 123.0 L 1022.0 177.0 z" fill="rgb(255,217,194)" stroke="black"/>
  <text fill="rgb(9,33,173)" font-size="25" x="1069.0" y="108.0">top_front</text>
</svg>
