<?xml version="1.0" encoding="utf-8" ?>
<svg xmlns="http://www.w3.org/2000/svg" xmlns:ev="http://www.w3.org/2001/xml-events" xmlns:xlink="http://www.w3.org/1999/xlink" baseProfile="full" height="333px" version="1.1" width="1368px">
  <defs/>
  <path d="M 60 273 Q 249.0 364.2624829849694 438 273 L 318 102 L 315 60 L 183 60 L 180 102 L 60 273 z" fill="rgb(255,217,194)" stroke="black"/>
  <text fill="rgb(9,33,173)" font-size="25" x="224.0" y="148.0">skirt_back</text>
  <path d="M 498 273 Q 687.0 123.92739065008257 876 273 L 756 102 L 753 60 L 621 60 L 618 102 L 498 273 z" fill="rgb(255,217,194)" stroke="black"/>
  <text fill="rgb(9,33,173)" font-size="25" x="662.0" y="148.0">skirt_front</text>
  <path d="M 948 168 L 1080 168 L 1092 111 Q 1068.0 100.5 1080 60 L 1041 60 Q 1014.0 85.76630662009886 987 60 L 948 60 Q 960.0 100.49999999999999 936 111 L 948 168 z" fill="rgb(255,217,194)" stroke="black"/>
  <text fill="rgb(9,33,173)" font-size="25" x="989.0" y="102.75">top_back</text>
  <path d="M 1164 165 L 1296 165 L 1308 111 Q 1284.0 100.5 1296 60 L 1257 60 L 1230 72 L 1203 60 L 1164 60 Q 1176.0 100.49999999999999 1152 111 L 1164 165 z" fill="rgb(255,217,194)" stroke="black"/>
  <text fill="rgb(9,33,173)" font-size="25" x="1205.0" y="99.0">top_front</text>
</svg>
