<?xml version="1.0" encoding="utf-8" ?>
<svg xmlns="http://www.w3.org/2000/svg" xmlns:ev="http://www.w3.org/2001/xml-events" xmlns:xlink="http://www.w3.org/1999/xlink" baseProfile="full" height="270px" version="1.1" width="1474.0px">
  <defs/>
  <path d="M 60 210 L 135 210 L 171 60 L 90 60 Q 103.5 139.5 60 150 Q 66.0 153.0 60 210 z" fill="rgb(255,217,194)" stroke="black"/>
  <text fill="rgb(9,33,173)" font-size="25" x="78.2" y="141.0">Rback</text>
  <path d="M 267 210 L 342 210 Q 336.0 153.0 342 150 Q 303.0 138.0 312 60 L 231 60 L 267 210 z" fill="rgb(255,217,194)" stroke="black"/>
  <text fill="rgb(9,33,173)" font-size="25" x="273.8" y="141.0">Rfront</text>
  <path d="M 402 75 L 441 75 L 480 75 L 480 60 L 402 60 L 402 75 z" fill="rgb(255,217,194)" stroke="black"/>
  <text fill="rgb(9,33,173)" font-size="25" x="416.0" y="72.0">wb_back</text>
  <path d="M 546.0 75.0 L 585.0 75.0 L 624.0 75.0 L 624.0 60.0 L 546.0 60.0 L 546.0 75.0 z" fill="rgb(255,217,194)" stroke="black"/>
  <text fill="rgb(9,33,173)" font-size="25" x="560.0" y="72.0">wb_front</text>
  <path d="M 700.0 168.0 L 856.0 168.0 L 856.0 108.0 Q 833.1999999999999 98.39999999999999 844.0 60.0 L 817.0 60.0 Q 778.0 161.56172657260524 739.0 60.0 L 712.0 60.0 Q 722.8000000000001 98.39999999999999 700.0 108.0 L 700.0 168.0 z" fill="rgb(255,217,194)" stroke="black"/>
  <text fill="rgb(9,33,173)" font-size="25" x="753.0" y="102.0">top_back</text>
  <path d="M 916.0 168.0 L 1072.0 168.0 L 1072.0 105.0 Q 1050.4 96.3 1060.0 60.0 L 1033.0 60.0 L 994.0 117.0 L 955.0 60.0 L 928.0 60.0 Q 937.6 96.3 916.0 105.0 L 916.0 168.0 z" fill="rgb(255,217,194)" stroke="black"/>
  <text fill="rgb(9,33,173)" font-size="25" x="969.0" y="103.33333333333333">top_front</text>
  <path d="M 1168.0 210.0 L 1243.0 210.0 Q 1237.0 153.0 1243.0 150.0 Q 1199.5 139.5 1213.0 60.0 L 1132.0 60.0 L 1168.0 210.0 z" fill="rgb(255,217,194)" stroke="black"/>
  <text fill="rgb(9,33,173)" font-size="25" x="1174.8" y="141.0">Lback</text>
  <path d="M 1303.0 210.0 L 1378.0 210.0 L 1414.0 60.0 L 1333.0 60.0 Q 1342.0 138.0 1303.0 150.0 Q 1309.0 153.0 1303.0 210.0 z" fill="rgb(255,217,194)" stroke="black"/>
  <text fill="rgb(9,33,173)" font-size="25" x="1321.2" y="141.0">Lfront</text>
</svg>
