<?xml version="1.0" encoding="utf-8" ?>
<svg xmlns="http://www.w3.org/2000/svg" xmlns:ev="http://www.w3.org/2001/xml-events" xmlns:xlink="http://www.w3.org/1999/xlink" baseProfile="full" height="315px" version="1.1" width="1068px">
  <defs/>
  <path d="M 60 255 L 141 255 Q 160.95 89.85 153 60 L 90 60 Q 104.7 141.75 60 153 Q 70.2 158.1 60 255 z" fill="rgb(255,217,194)" stroke="black"/>
  <text fill="rgb(9,33,173)" font-size="25" x="75.8" y="159.6">Rback</text>
  <path d="M 225 255 L 306 255 Q 295.8 158.10000000000002 306 153 Q 265.95 140.25 276 60 L 213 60 Q 205.05 89.85 225 255 z" fill="rgb(255,217,194)" stroke="black"/>
  <text fill="rgb(9,33,173)" font-size="25" x="240.2" y="159.6">Rfront</text>
  <path d="M 372 168 L 435 168 L 498 168 L 504 102 Q 483.59999999999997 94.2 492 60 L 456 60 Q 435.0 85.18238542364234 414 60 L 378 60 Q 386.40000000000003 94.2 366 102 L 372 168 z" fill="rgb(255,217,194)" stroke="black"/>
  <text fill="rgb(9,33,173)" font-size="25" x="410.0" y="108.33333333333333">up_back</text>
  <path d="M 570 165 L 633 165 L 696 165 L 702 102 Q 681.6 94.2 690 60 L 654 60 L 633 72 L 612 60 L 576 60 Q 584.4 94.2 564 102 L 570 165 z" fill="rgb(255,217,194)" stroke="black"/>
  <text fill="rgb(9,33,173)" font-size="25" x="608.0" y="104.1">up_front</text>
  <path d="M 774 255 L 855 255 Q 844.8 158.10000000000002 855 153 Q 810.3 141.75 825 60 L 762 60 Q 754.05 89.85 774 255 z" fill="rgb(255,217,194)" stroke="black"/>
  <text fill="rgb(9,33,173)" font-size="25" x="789.2" y="159.6">Lback</text>
  <path d="M 915 255 L 996 255 Q 1015.95 89.85 1008 60 L 945 60 Q 955.05 140.25 915 153 Q 925.2 158.1 915 255 z" fill="rgb(255,217,194)" stroke="black"/>
  <text fill="rgb(9,33,173)" font-size="25" x="930.8" y="159.6">Lfront</text>
</svg>
