<?xml version="1.0" encoding="utf-8" ?>
<svg xmlns="http://www.w3.org/2000/svg" xmlns:ev="http://www.w3.org/2001/xml-events" xmlns:xlink="http://www.w3.org/1999/xlink" baseProfile="full" height="384px" version="1.1" width="1039.0px">
  <defs/>
  <path d="M 60 324 L 171 324 L 171 72 L 126 60 L 93 60 Q 106.5 108.0 78 120 L 60 324 z" fill="rgb(255,217,194)" stroke="black"/>
  <text fill="rgb(9,33,173)" font-size="25" x="91.5" y="163.0">front_right</text>
  <path d="M 273.5 174.0 L 336.5 168.0 Q 404.9 147.3 354.5 63.0 L 309.5 72.0 L 261.5 60.0 L 273.5 174.0 z" fill="rgb(255,217,194)" stroke="black"/>
  <text fill="rgb(9,33,173)" font-size="25" x="282.1" y="110.4">Rhood</text>
  <path d="M 414.5 324.0 L 636.5 324.0 L 618.5 120.0 Q 590.0 108.0 603.5 60.0 L 570.5 60.0 L 525.5 69.0 L 480.5 60.0 L 447.5 60.0 Q 461.0 108.0 432.5 120.0 L 414.5 324.0 z" fill="rgb(255,217,194)" stroke="black"/>
  <text fill="rgb(9,33,173)" font-size="25" x="500.5" y="136.0">back</text>
  <path d="M 696.5 174.0 L 744.5 162.0 L 789.5 171.0 Q 839.9 86.7 771.5 66.0 L 708.5 60.0 L 696.5 174.0 z" fill="rgb(255,217,194)" stroke="black"/>
  <text fill="rgb(9,33,173)" font-size="25" x="717.1" y="129.6">Lhood</text>
  <path d="M 849.5 324.0 L 960.5 324.0 L 942.5 120.0 Q 914.0 108.0 927.5 60.0 L 894.5 60.0 L 849.5 72.0 L 849.5 324.0 z" fill="rgb(255,217,194)" stroke="black"/>
  <text fill="rgb(9,33,173)" font-size="25" x="879.0" y="163.0">front_left</text>
</svg>
