<?xml version="1.0" encoding="utf-8" ?>
<svg xmlns="http://www.w3.org/2000/svg" xmlns:ev="http://www.w3.org/2001/xml-events" xmlns:xlink="http://www.w3.org/1999/xlink" baseProfile="full" height="228px" version="1.1" width="871.0px">
  <defs/>
  <path d="M 63 168 L 141 168 L 141 90 L 123 60 L 72 60 Q 85.2 102.6 60 114 L 63 168 z" fill="rgb(255,217,194)" stroke="black"/>
  <text fill="rgb(9,33,173)" font-size="25" x="75.0" y="113.0">front_right</text>
  <path d="M 245.0 162.0 L 257.0 165.0 Q 318.20000000000005 165.89999999999998 299.0 84.0 L 281.0 93.0 L 263.0 60.0 L 245.0 162.0 z" fill="rgb(255,217,194)" stroke="black"/>
  <text fill="rgb(9,33,173)" font-size="25" x="244.0" y="115.8">Rhood</text>
  <path d="M 362.0 168.0 L 518.0 168.0 L 521.0 114.0 Q 495.79999999999995 102.6 509.0 60.0 L 458.0 60.0 L 440.0 69.0 L 422.0 60.0 L 371.0 60.0 Q 384.20000000000005 102.6 359.0 114.0 L 362.0 168.0 z" fill="rgb(255,217,194)" stroke="black"/>
  <text fill="rgb(9,33,173)" font-size="25" x="415.0" y="100.0">back</text>
  <path d="M 599.0 165.0 L 617.0 132.0 L 635.0 141.0 Q 654.2 59.10000000000001 593.0 60.0 L 581.0 63.0 L 599.0 165.0 z" fill="rgb(255,217,194)" stroke="black"/>
  <text fill="rgb(9,33,173)" font-size="25" x="580.0" y="115.2">Lhood</text>
  <path d="M 695.0 168.0 L 773.0 168.0 L 776.0 114.0 Q 750.8 102.6 764.0 60.0 L 713.0 60.0 L 695.0 90.0 L 695.0 168.0 z" fill="rgb(255,217,194)" stroke="black"/>
  <text fill="rgb(9,33,173)" font-size="25" x="711.0" y="113.0">front_left</text>
</svg>
