<?xml version="1.0" encoding="utf-8" ?>
<svg xmlns="http://www.w3.org/2000/svg" xmlns:ev="http://www.w3.org/2001/xml-events" xmlns:xlink="http://www.w3.org/1999/xlink" baseProfile="full" height="228.0px" version="1.1" width="1069.0px">
  <defs/>
  <path d="M 60 165 L 195 165 L 195 63 L 180 60 L 132 60 Q 146.4 104.7 120 117 L 60 165 z" fill="rgb(255,217,194)" stroke="black"/>
  <text fill="rgb(9,33,173)" font-size="25" x="122.0" y="108.0">front_right</text>
  <path d="M 292.0 138.0 L 358.0 147.0 Q 406.59999999999997 113.7 346.0 60.0 L 328.0 69.0 L 310.0 66.0 L 292.0 138.0 z" fill="rgb(255,217,194)" stroke="black"/>
  <text fill="rgb(9,33,173)" font-size="25" x="301.8" y="99.0">Rhood</text>
  <path d="M 418.0 168.0 L 688.0 168.0 L 628.0 117.0 Q 601.6 104.7 616.0 60.0 L 568.0 60.0 L 553.0 69.0 L 538.0 60.0 L 490.0 60.0 Q 504.40000000000003 104.7 478.0 117.0 L 418.0 168.0 z" fill="rgb(255,217,194)" stroke="black"/>
  <text fill="rgb(9,33,173)" font-size="25" x="528.0" y="100.66666666666667">back</text>
  <path d="M 766.0 141.0 L 784.0 138.0 L 802.0 147.0 Q 862.6 93.3 814.0 60.0 L 748.0 69.0 L 766.0 141.0 z" fill="rgb(255,217,194)" stroke="black"/>
  <text fill="rgb(9,33,173)" font-size="25" x="757.8" y="114.0">Lhood</text>
  <path d="M 874.0 165.0 L 1009.0 165.0 L 949.0 117.0 Q 922.6 104.7 937.0 60.0 L 889.0 60.0 L 874.0 63.0 L 874.0 165.0 z" fill="rgb(255,217,194)" stroke="black"/>
  <text fill="rgb(9,33,173)" font-size="25" x="897.0" y="108.0">front_left</text>
</svg>
