<?xml version="1.0" encoding="utf-8" ?>
<svg xmlns="http://www.w3.org/2000/svg" xmlns:ev="http://www.w3.org/2001/xml-events" xmlns:xlink="http://www.w3.org/1999/xlink" baseProfile="full" height="324.0px" version="1.1" width="1663.0px">
  <defs/>
  <path d="M 60 132 L 90 132 Q 112.5 78.0 81 60 L 60 60 L 60 132 z" fill="rgb(255,217,194)" stroke="black"/>
  <text fill="rgb(9,33,173)" font-size="25" x="47.75" y="99.0">rbsleeve</text>
  <path d="M 187.75 132.0 L 208.75 132.0 Q 240.25 114.0 217.75 60.0 L 187.75 60.0 L 187.75 132.0 z" fill="rgb(255,217,194)" stroke="black"/>
  <text fill="rgb(9,33,173)" font-size="25" x="175.5" y="99.0">rfsleeve</text>
  <path d="M 315.5 264.0 L 402.5 264.0 Q 428.0 91.5 420.5 60.0 L 345.5 60.0 Q 360.2 141.75 315.5 153.0 Q 326.6 158.55 315.5 264.0 z" fill="rgb(255,217,194)" stroke="black"/>
  <text fill="rgb(9,33,173)" font-size="25" x="334.9" y="163.2">Rback</text>
  <path d="M 498.5 264.0 L 585.5 264.0 Q 574.4 158.55 585.5 153.0 Q 545.45 140.25 555.5 60.0 L 480.5 60.0 Q 473.0 91.5 498.5 264.0 z" fill="rgb(255,217,194)" stroke="black"/>
  <text fill="rgb(9,33,173)" font-size="25" x="516.1" y="163.2">Rfront</text>
  <path d="M 645.5 168.0 L 723.5 168.0 L 801.5 168.0 L 786.5 132.0 Q 754.1 115.2 774.5 60.0 L 735.5 60.0 Q 723.5 80.76651727795966 711.5 60.0 L 672.5 60.0 Q 692.9 115.2 660.5 132.0 L 645.5 168.0 z" fill="rgb(255,217,194)" stroke="black"/>
  <text fill="rgb(9,33,173)" font-size="25" x="698.5" y="115.0">up_back</text>
  <path d="M 861.5 165.0 L 939.5 165.0 L 1017.5 165.0 L 1002.5 132.0 Q 970.1 115.2 990.5 60.0 L 951.5 60.0 L 939.5 72.0 L 927.5 60.0 L 888.5 60.0 Q 908.9 115.2 876.5 132.0 L 861.5 165.0 z" fill="rgb(255,217,194)" stroke="black"/>
  <text fill="rgb(9,33,173)" font-size="25" x="914.5" y="110.1">up_front</text>
  <path d="M 1095.5 264.0 L 1182.5 264.0 Q 1171.4 158.55 1182.5 153.0 Q 1137.8 141.75 1152.5 60.0 L 1077.5 60.0 Q 1070.0 91.5 1095.5 264.0 z" fill="rgb(255,217,194)" stroke="black"/>
  <text fill="rgb(9,33,173)" font-size="25" x="1113.1" y="163.2">Lback</text>
  <path d="M 1242.5 264.0 L 1329.5 264.0 Q 1355.0 91.5 1347.5 60.0 L 1272.5 60.0 Q 1282.55 140.25 1242.5 153.0 Q 1253.6 158.55 1242.5 264.0 z" fill="rgb(255,217,194)" stroke="black"/>
  <text fill="rgb(9,33,173)" font-size="25" x="1261.9" y="163.2">Lfront</text>
  <path d="M 1407.5 132.0 L 1428.5 132.0 Q 1460.0 114.0 1437.5 60.0 L 1407.5 60.0 L 1407.5 132.0 z" fill="rgb(255,217,194)" stroke="black"/>
  <text fill="rgb(9,33,173)" font-size="25" x="1395.25" y="99.0">lbsleeve</text>
  <path d="M 1535.25 132.0 L 1565.25 132.0 Q 1587.75 78.0 1556.25 60.0 L 1535.25 60.0 L 1535.25 132.0 z" fill="rgb(255,217,194)" stroke="black"/>
  <text fill="rgb(9,33,173)" font-size="25" x="1523.0" y="99.0">lfsleeve</text>
</svg>
