<?xml version="1.0" encoding="utf-8" ?>
<svg xmlns="http://www.w3.org/2000/svg" xmlns:ev="http://www.w3.org/2001/xml-events" xmlns:xlink="http://www.w3.org/1999/xlink" baseProfile="full" height="528px" version="1.1" width="800.0px">
  <defs/>
  <path d="M 60 468 L 192 468 L 192 153 L 156 60 L 123 60 Q 136.2 102.6 111 114 L 60 468 z" fill="rgb(255,217,194)" stroke="black"/>
  <text fill="rgb(9,33,173)" font-size="25" x="114.0" y="223.5">front_right</text>
  <path d="M 284.0 468.0 L 548.0 468.0 L 497.0 114.0 Q 471.79999999999995 102.6 485.0 60.0 L 452.0 60.0 Q 416.0 97.94209926535628 380.0 60.0 L 347.0 60.0 Q 360.20000000000005 102.6 335.0 114.0 L 284.0 468.0 z" fill="rgb(255,217,194)" stroke="black"/>
  <text fill="rgb(9,33,173)" font-size="25" x="391.0" y="178.5">back</text>
  <path d="M 608.0 468.0 L 740.0 468.0 L 689.0 114.0 Q 663.8 102.6 677.0 60.0 L 644.0 60.0 L 608.0 153.0 L 608.0 468.0 z" fill="rgb(255,217,194)" stroke="black"/>
  <text fill="rgb(9,33,173)" font-size="25" x="636.0" y="223.5">front_left</text>
</svg>
