<?xml version="1.0" encoding="utf-8" ?>
<svg xmlns="http://www.w3.org/2000/svg" xmlns:ev="http://www.w3.org/2001/xml-events" xmlns:xlink="http://www.w3.org/1999/xlink" baseProfile="full" height="354.0px" version="1.1" width="1699.0px">
  <defs/>
  <path d="M 60 207 L 102 207 Q 119.7 161.4 93 147 L 60 60 L 60 207 z" fill="rgb(255,217,194)" stroke="black"/>
  <text fill="rgb(9,33,173)" font-size="25" x="53.75" y="158.25">rbsleeve</text>
  <path d="M 193.75 207.0 L 226.75 120.0 Q 253.45 105.6 235.75 60.0 L 193.75 60.0 L 193.75 207.0 z" fill="rgb(255,217,194)" stroke="black"/>
  <text fill="rgb(9,33,173)" font-size="25" x="187.5" y="114.75">rfsleeve</text>
  <path d="M 327.5 294.0 L 435.5 294.0 Q 447.2 95.1 435.5 60.0 L 357.5 60.0 Q 372.2 141.75 327.5 153.0 Q 341.6 160.05 327.5 294.0 z" fill="rgb(255,217,194)" stroke="black"/>
  <text fill="rgb(9,33,173)" font-size="25" x="351.7" y="175.2">Rback</text>
  <path d="M 495.5 294.0 L 603.5 294.0 Q 589.4 160.05 603.5 153.0 Q 563.45 140.25 573.5 60.0 L 495.5 60.0 Q 483.8 95.1 495.5 294.0 z" fill="rgb(255,217,194)" stroke="black"/>
  <text fill="rgb(9,33,173)" font-size="25" x="529.3" y="175.2">Rfront</text>
  <path d="M 663.5 168.0 L 741.5 168.0 L 819.5 168.0 L 804.5 120.0 Q 777.8 105.6 795.5 60.0 L 762.5 60.0 Q 741.5 76.32067883609548 720.5 60.0 L 687.5 60.0 Q 705.2 105.6 678.5 120.0 L 663.5 168.0 z" fill="rgb(255,217,194)" stroke="black"/>
  <text fill="rgb(9,33,173)" font-size="25" x="716.5" y="112.33333333333333">up_back</text>
  <path d="M 879.5 165.0 L 957.5 165.0 L 1035.5 165.0 L 1020.5 120.0 Q 993.8 105.6 1011.5 60.0 L 978.5 60.0 L 957.5 126.0 L 936.5 60.0 L 903.5 60.0 Q 921.2 105.6 894.5 120.0 L 879.5 165.0 z" fill="rgb(255,217,194)" stroke="black"/>
  <text fill="rgb(9,33,173)" font-size="25" x="932.5" y="113.1">up_front</text>
  <path d="M 1095.5 294.0 L 1203.5 294.0 Q 1189.4 160.05 1203.5 153.0 Q 1158.8 141.75 1173.5 60.0 L 1095.5 60.0 Q 1083.8 95.1 1095.5 294.0 z" fill="rgb(255,217,194)" stroke="black"/>
  <text fill="rgb(9,33,173)" font-size="25" x="1129.3" y="175.2">Lback</text>
  <path d="M 1263.5 294.0 L 1371.5 294.0 Q 1383.2 95.1 1371.5 60.0 L 1293.5 60.0 Q 1303.55 140.25 1263.5 153.0 Q 1277.6 160.05 1263.5 294.0 z" fill="rgb(255,217,194)" stroke="black"/>
  <text fill="rgb(9,33,173)" font-size="25" x="1287.7" y="175.2">Lfront</text>
  <path d="M 1431.5 207.0 L 1464.5 120.0 Q 1491.2 105.6 1473.5 60.0 L 1431.5 60.0 L 1431.5 207.0 z" fill="rgb(255,217,194)" stroke="black"/>
  <text fill="rgb(9,33,173)" font-size="25" x="1425.25" y="114.75">lbsleeve</text>
  <path d="M 1565.25 207.0 L 1607.25 207.0 Q 1624.95 161.4 1598.25 147.0 L 1565.25 60.0 L 1565.25 207.0 z" fill="rgb(255,217,194)" stroke="black"/>
  <text fill="rgb(9,33,173)" font-size="25" x="1559.0" y="158.25">lfsleeve</text>
</svg>
