<?xml version="1.0" encoding="utf-8" ?>
<svg xmlns="http://www.w3.org/2000/svg" xmlns:ev="http://www.w3.org/2001/xml-events" xmlns:xlink="http://www.w3.org/1999/xlink" baseProfile="full" height="315px" version="1.1" width="1510.0px">
  <defs/>
  <path d="M 60 255 L 186 255 L 180 60 L 90 60 Q 98.7 130.5 60 138 Q 71.7 143.85 60 255 z" fill="rgb(255,217,194)" stroke="black"/>
  <text fill="rgb(9,33,173)" font-size="25" x="90.2" y="156.6">Rback</text>
  <path d="M 246 255 L 372 255 Q 360.3 143.85000000000002 372 138 Q 337.2 129.0 342 60 L 252 60 L 246 255 z" fill="rgb(255,217,194)" stroke="black"/>
  <text fill="rgb(9,33,173)" font-size="25" x="291.8" y="156.6">Rfront</text>
  <path d="M 432 78 L 471 78 L 510 78 L 510 60 L 432 60 L 432 78 z" fill="rgb(255,217,194)" stroke="black"/>
  <text fill="rgb(9,33,173)" font-size="25" x="446.0" y="73.8">wb_back</text>
  <path d="M 576.0 78.0 L 615.0 78.0 L 654.0 78.0 L 654.0 60.0 L 576.0 60.0 L 576.0 78.0 z" fill="rgb(255,217,194)" stroke="black"/>
  <text fill="rgb(9,33,173)" font-size="25" x="590.0" y="73.8">wb_front</text>
  <path d="M 730.0 165.0 L 874.0 165.0 L 874.0 108.0 Q 852.0999999999999 97.19999999999999 865.0 60.0 L 832.0 60.0 Q 802.0 114.0304848397472 772.0 60.0 L 739.0 60.0 Q 751.9000000000001 97.19999999999999 730.0 108.0 L 730.0 165.0 z" fill="rgb(255,217,194)" stroke="black"/>
  <text fill="rgb(9,33,173)" font-size="25" x="777.0" y="101.25">top_back</text>
  <path d="M 934.0 165.0 L 1078.0 165.0 L 1078.0 108.0 Q 1056.1 97.19999999999999 1069.0 60.0 L 1036.0 60.0 L 1006.0 138.0 L 976.0 60.0 L 943.0 60.0 Q 955.9000000000001 97.19999999999999 934.0 108.0 L 934.0 165.0 z" fill="rgb(255,217,194)" stroke="black"/>
  <text fill="rgb(9,33,173)" font-size="25" x="981.0" y="105.66666666666667">top_front</text>
  <path d="M 1138.0 255.0 L 1264.0 255.0 Q 1252.3 143.85000000000002 1264.0 138.0 Q 1225.3 130.5 1234.0 60.0 L 1144.0 60.0 L 1138.0 255.0 z" fill="rgb(255,217,194)" stroke="black"/>
  <text fill="rgb(9,33,173)" font-size="25" x="1183.8" y="156.6">Lback</text>
  <path d="M 1324.0 255.0 L 1450.0 255.0 L 1444.0 60.0 L 1354.0 60.0 Q 1358.8 129.0 1324.0 138.0 Q 1335.7 143.85 1324.0 255.0 z" fill="rgb(255,217,194)" stroke="black"/>
  <text fill="rgb(9,33,173)" font-size="25" x="1354.2" y="156.6">Lfront</text>
</svg>
