<?xml version="1.0" encoding="utf-8" ?>
<svg xmlns="http://www.w3.org/2000/svg" xmlns:ev="http://www.w3.org/2001/xml-events" xmlns:xlink="http://www.w3.org/1999/xlink" baseProfile="full" height="333px" version="1.1" width="1416.0px">
  <defs/>
  <path d="M 60 273 L 336 273 L 336 60 L 60 60 L 60 273 z" fill="rgb(255,217,194)" stroke="black"/>
  <text fill="rgb(9,33,173)" font-size="25" x="173.0" y="169.5">skirt_back</text>
  <path d="M 396 78 L 486 78 L 486 60 L 396 60 L 396 78 z" fill="rgb(255,217,194)" stroke="black"/>
  <text fill="rgb(9,33,173)" font-size="25" x="416.0" y="72.0">wb_back</text>
  <path d="M 546 78 L 636 78 L 636 60 L 546 60 L 546 78 z" fill="rgb(255,217,194)" stroke="black"/>
  <text fill="rgb(9,33,173)" font-size="25" x="566.0" y="72.0">wb_front</text>
  <path d="M 706.0 273.0 L 982.0 273.0 L 982.0 60.0 L 706.0 60.0 L 706.0 273.0 z" fill="rgb(255,217,194)" stroke="black"/>
  <text fill="rgb(9,33,173)" font-size="25" x="819.0" y="169.5">skirt_front</text>
  <path d="M 1042.0 138.0 L 1168.0 138.0 L 1168.0 123.0 Q 1140.1 107.69999999999999 1159.0 60.0 L 1123.0 60.0 Q 1105.0 126.8574774586767 1087.0 60.0 L 1051.0 60.0 Q 1069.9 107.69999999999999 1042.0 123.0 L 1042.0 138.0 z" fill="rgb(255,217,194)" stroke="black"/>
  <text fill="rgb(9,33,173)" font-size="25" x="1080.0" y="98.25">top_back</text>
  <path d="M 1228.0 138.0 L 1354.0 138.0 L 1354.0 123.0 Q 1326.1 107.69999999999999 1345.0 60.0 L 1309.0 60.0 L 1291.0 66.0 L 1273.0 60.0 L 1237.0 60.0 Q 1255.9 107.69999999999999 1228.0 123.0 L 1228.0 138.0 z" fill="rgb(255,217,194)" stroke="black"/>
  <text fill="rgb(9,33,173)" font-size="25" x="1266.0" y="95.0">top_front</text>
</svg>
