<?xml version="1.0" encoding="utf-8" ?>
<svg xmlns="http://www.w3.org/2000/svg" xmlns:ev="http://www.w3.org/2001/xml-events" xmlns:xlink="http://www.w3.org/1999/xlink" baseProfile="full" height="270px" version="1.1" width="1056px">
  <defs/>
  <path d="M 60 210 L 147 210 Q 159.6 82.8 153 60 L 90 60 Q 104.7 141.75 60 153 Q 65.7 155.85 60 210 z" fill="rgb(255,217,194)" stroke="black"/>
  <text fill="rgb(9,33,173)" font-size="25" x="77.0" y="141.6">Rback</text>
  <path d="M 219 210 L 306 210 Q 300.3 155.85 306 153 Q 265.95 140.25 276 60 L 213 60 Q 206.4 82.8 219 210 z" fill="rgb(255,217,194)" stroke="black"/>
  <text fill="rgb(9,33,173)" font-size="25" x="239.0" y="141.6">Rfront</text>
  <path d="M 369 168 L 432 168 L 495 168 L 498 144 Q 461.7 122.39999999999999 489 60 L 456 60 Q 432.0 112.91933921433201 408 60 L 375 60 Q 402.3 122.39999999999999 366 144 L 369 168 z" fill="rgb(255,217,194)" stroke="black"/>
  <text fill="rgb(9,33,173)" font-size="25" x="407.0" y="117.66666666666667">up_back</text>
  <path d="M 561 165 L 624 165 L 687 165 L 690 144 Q 653.6999999999999 122.39999999999999 681 60 L 648 60 L 624 117 L 600 60 L 567 60 Q 594.3000000000001 122.39999999999999 558 144 L 561 165 z" fill="rgb(255,217,194)" stroke="black"/>
  <text fill="rgb(9,33,173)" font-size="25" x="599.0" y="117.0">up_front</text>
  <path d="M 756 210 L 843 210 Q 837.3 155.85 843 153 Q 798.3 141.75 813 60 L 750 60 Q 743.4 82.8 756 210 z" fill="rgb(255,217,194)" stroke="black"/>
  <text fill="rgb(9,33,173)" font-size="25" x="776.0" y="141.6">Lback</text>
  <path d="M 903 210 L 990 210 Q 1002.6 82.8 996 60 L 933 60 Q 943.05 140.25 903 153 Q 908.7 155.85 903 210 z" fill="rgb(255,217,194)" stroke="black"/>
  <text fill="rgb(9,33,173)" font-size="25" x="920.0" y="141.6">Lfront</text>
</svg>
