<?xml version="1.0" encoding="utf-8" ?>
<svg xmlns="http://www.w3.org/2000/svg" xmlns:ev="http://www.w3.org/2001/xml-events" xmlns:xlink="http://www.w3.org/1999/xlink" baseProfile="full" height="258.0px" version="1.1" width="1486.0px">
  <defs/>
  <path d="M 60 192 L 135 192 Q 160.2 128.39999999999998 123 108 L 60 60 L 60 192 z" fill="rgb(255,217,194)" stroke="black"/>
  <text fill="rgb(9,33,173)" font-size="25" x="69.5" y="141.0">rbsleeve</text>
  <path d="M 209.5 192.0 L 272.5 144.0 Q 309.70000000000005 123.6 284.5 60.0 L 209.5 60.0 L 209.5 192.0 z" fill="rgb(255,217,194)" stroke="black"/>
  <text fill="rgb(9,33,173)" font-size="25" x="219.0" y="117.0">rfsleeve</text>
  <path d="M 359.0 198.0 L 713.0 198.0 L 614.0 144.0 Q 576.8 123.6 602.0 60.0 L 569.0 60.0 Q 536.0 135.84469950097034 503.0 60.0 L 470.0 60.0 Q 495.20000000000005 123.6 458.0 144.0 L 359.0 198.0 z" fill="rgb(255,217,194)" stroke="black"/>
  <text fill="rgb(9,33,173)" font-size="25" x="511.0" y="118.5">back</text>
  <path d="M 773.0 195.0 L 1127.0 195.0 L 1028.0 141.0 Q 992.0000000000001 121.5 1016.0 60.0 L 983.0 60.0 L 950.0 147.0 L 917.0 60.0 L 884.0 60.0 Q 908.0 121.49999999999999 872.0 141.0 L 773.0 195.0 z" fill="rgb(255,217,194)" stroke="black"/>
  <text fill="rgb(9,33,173)" font-size="25" x="925.0" y="120.66666666666667">front</text>
  <path d="M 1187.0 192.0 L 1250.0 144.0 Q 1287.1999999999998 123.6 1262.0 60.0 L 1187.0 60.0 L 1187.0 192.0 z" fill="rgb(255,217,194)" stroke="black"/>
  <text fill="rgb(9,33,173)" font-size="25" x="1196.5" y="117.0">lbsleeve</text>
  <path d="M 1336.5 192.0 L 1411.5 192.0 Q 1436.6999999999998 128.39999999999998 1399.5 108.0 L 1336.5 60.0 L 1336.5 192.0 z" fill="rgb(255,217,194)" stroke="black"/>
  <text fill="rgb(9,33,173)" font-size="25" x="1346.0" y="141.0">lfsleeve</text>
</svg>
