<?xml version="1.0" encoding="utf-8" ?>
<svg xmlns="http://www.w3.org/2000/svg" xmlns:ev="http://www.w3.org/2001/xml-events" xmlns:xlink="http://www.w3.org/1999/xlink" baseProfile="full" height="327px" version="1.1" width="1152px">
  <defs/>
  <path d="M 60 267 L 123 267 Q 169.04999999999998 93.15 165 60 L 90 60 Q 104.7 141.75 60 153 Q 71.4 158.7 60 267 z" fill="rgb(255,217,194)" stroke="black"/>
  <text fill="rgb(9,33,173)" font-size="25" x="74.6" y="164.4">Rback</text>
  <path d="M 267 267 L 330 267 Q 318.6 158.7 330 153 Q 289.95 140.25 300 60 L 225 60 Q 220.95000000000002 93.14999999999999 267 267 z" fill="rgb(255,217,194)" stroke="black"/>
  <text fill="rgb(9,33,173)" font-size="25" x="265.4" y="164.4">Rfront</text>
  <path d="M 390 168 L 468 168 L 546 168 L 531 117 Q 505.49999999999994 103.5 522 60 L 492 60 Q 468.0 130.70762198856482 444 60 L 414 60 Q 430.5 103.5 405 117 L 390 168 z" fill="rgb(255,217,194)" stroke="black"/>
  <text fill="rgb(9,33,173)" font-size="25" x="443.0" y="111.66666666666667">up_back</text>
  <path d="M 606 165 L 684 165 L 762 165 L 747 117 Q 721.5 103.5 738 60 L 708 60 L 684 132 L 660 60 L 630 60 Q 646.5 103.5 621 117 L 606 165 z" fill="rgb(255,217,194)" stroke="black"/>
  <text fill="rgb(9,33,173)" font-size="25" x="659.0" y="113.1">up_front</text>
  <path d="M 864 267 L 927 267 Q 915.6 158.7 927 153 Q 882.3 141.75 897 60 L 822 60 Q 817.9499999999999 93.14999999999999 864 267 z" fill="rgb(255,217,194)" stroke="black"/>
  <text fill="rgb(9,33,173)" font-size="25" x="862.4" y="164.4">Lback</text>
  <path d="M 987 267 L 1050 267 Q 1096.05 93.15 1092 60 L 1017 60 Q 1027.05 140.25 987 153 Q 998.4 158.7 987 267 z" fill="rgb(255,217,194)" stroke="black"/>
  <text fill="rgb(9,33,173)" font-size="25" x="1001.5999999999999" y="164.4">Lfront</text>
</svg>
