<?xml version="1.0" encoding="utf-8" ?>
<svg xmlns="http://www.w3.org/2000/svg" xmlns:ev="http://www.w3.org/2001/xml-events" xmlns:xlink="http://www.w3.org/1999/xlink" baseProfile="full" height="390px" version="1.1" width="1510.0px">
  <defs/>
  <path d="M 60 330 L 120 330 L 189 60 L 90 60 Q 104.7 141.75 60 153 Q 77.7 161.85 60 330 z" fill="rgb(255,217,194)" stroke="black"/>
  <text fill="rgb(9,33,173)" font-size="25" x="78.8" y="189.6">Rback</text>
  <path d="M 318 330 L 378 330 Q 360.3 161.85 378 153 Q 337.95 140.25 348 60 L 249 60 L 318 330 z" fill="rgb(255,217,194)" stroke="black"/>
  <text fill="rgb(9,33,173)" font-size="25" x="309.2" y="189.6">Rfront</text>
  <path d="M 438 69 L 477 69 L 516 69 L 516 60 L 438 60 L 438 69 z" fill="rgb(255,217,194)" stroke="black"/>
  <text fill="rgb(9,33,173)" font-size="25" x="452.0" y="68.4">wb_back</text>
  <path d="M 582.0 69.0 L 621.0 69.0 L 660.0 69.0 L 660.0 60.0 L 582.0 60.0 L 582.0 69.0 z" fill="rgb(255,217,194)" stroke="black"/>
  <text fill="rgb(9,33,173)" font-size="25" x="596.0" y="68.4">wb_front</text>
  <path d="M 736.0 174.0 L 874.0 174.0 L 874.0 111.0 Q 850.0 100.5 862.0 60.0 L 841.0 60.0 Q 805.0 142.16762801187804 769.0 60.0 L 748.0 60.0 Q 760.0 100.49999999999999 736.0 111.0 L 736.0 174.0 z" fill="rgb(255,217,194)" stroke="black"/>
  <text fill="rgb(9,33,173)" font-size="25" x="780.0" y="104.25">top_back</text>
  <path d="M 934.0 174.0 L 1072.0 174.0 L 1072.0 111.0 Q 1048.0 100.5 1060.0 60.0 L 1039.0 60.0 L 1003.0 105.0 L 967.0 60.0 L 946.0 60.0 Q 958.0 100.49999999999999 934.0 111.0 L 934.0 174.0 z" fill="rgb(255,217,194)" stroke="black"/>
  <text fill="rgb(9,33,173)" font-size="25" x="978.0" y="104.66666666666667">top_front</text>
  <path d="M 1201.0 330.0 L 1261.0 330.0 Q 1243.3 161.85 1261.0 153.0 Q 1216.3 141.75 1231.0 60.0 L 1132.0 60.0 L 1201.0 330.0 z" fill="rgb(255,217,194)" stroke="black"/>
  <text fill="rgb(9,33,173)" font-size="25" x="1192.2" y="189.6">Lback</text>
  <path d="M 1321.0 330.0 L 1381.0 330.0 L 1450.0 60.0 L 1351.0 60.0 Q 1361.05 140.25 1321.0 153.0 Q 1338.7 161.85 1321.0 330.0 z" fill="rgb(255,217,194)" stroke="black"/>
  <text fill="rgb(9,33,173)" font-size="25" x="1339.8" y="189.6">Lfront</text>
</svg>
