<?xml version="1.0" encoding="utf-8" ?>
<svg xmlns="http://www.w3.org/2000/svg" xmlns:ev="http://www.w3.org/2001/xml-events" xmlns:xlink="http://www.w3.org/1999/xlink" baseProfile="full" height="252.0px" version="1.1" width="940.8000000000001px">
  <defs/>
  <path d="M 60 189 L 162 189 L 162 72 L 147 60 L 99 60 Q 133.8 140.4 87 168 L 60 189 z" fill="rgb(255,217,194)" stroke="black"/>
  <text fill="rgb(9,33,173)" font-size="25" x="94.5" y="126.0">front_right</text>
  <path d="M 264.5 153.0 L 321.5 156.0 Q 375.5 124.5 315.5 63.0 L 300.5 72.0 L 282.5 60.0 L 264.5 153.0 z" fill="rgb(255,217,194)" stroke="black"/>
  <text fill="rgb(9,33,173)" font-size="25" x="271.9" y="103.8">Rhood</text>
  <path d="M 381.9 192.0 L 585.9 192.0 L 558.9 168.0 Q 512.0999999999999 140.4 546.9 60.0 L 498.9 60.0 L 483.9 69.0 L 468.9 60.0 L 420.9 60.0 Q 455.7 140.4 408.9 168.0 L 381.9 192.0 z" fill="rgb(255,217,194)" stroke="black"/>
  <text fill="rgb(9,33,173)" font-size="25" x="458.90000000000003" y="117.33333333333333">back</text>
  <path d="M 663.9 156.0 L 681.9 144.0 L 696.9 153.0 Q 756.9 91.5 702.9 60.0 L 645.9 63.0 L 663.9 156.0 z" fill="rgb(255,217,194)" stroke="black"/>
  <text fill="rgb(9,33,173)" font-size="25" x="653.3" y="118.2">Lhood</text>
  <path d="M 763.3 189.0 L 865.3 189.0 L 838.3 168.0 Q 791.4999999999999 140.4 826.3 60.0 L 778.3 60.0 L 763.3 72.0 L 763.3 189.0 z" fill="rgb(255,217,194)" stroke="black"/>
  <text fill="rgb(9,33,173)" font-size="25" x="780.8000000000001" y="126.0">front_left</text>
</svg>
