<?xml version="1.0" encoding="utf-8" ?>
<svg xmlns="http://www.w3.org/2000/svg" xmlns:ev="http://www.w3.org/2001/xml-events" xmlns:xlink="http://www.w3.org/1999/xlink" baseProfile="full" height="255px" version="1.1" width="1104px">
  <defs/>
  <path d="M 60 141 L 171 141 Q 181.5 108.0 162 99 L 60 60 L 60 141 z" fill="rgb(255,217,194)" stroke="black"/>
  <text fill="rgb(9,33,173)" font-size="25" x="88.25" y="113.25">rbsleeve</text>
  <path d="M 231 141 L 333 102 Q 352.5 93.0 342 60 L 231 60 L 231 141 z" fill="rgb(255,217,194)" stroke="black"/>
  <text fill="rgb(9,33,173)" font-size="25" x="259.25" y="93.75">rfsleeve</text>
  <path d="M 405 195 L 519 195 L 522 105 Q 501.29999999999995 95.1 513 60 L 480 60 Q 462.0 157.2279778515599 444 60 L 411 60 Q 422.7 95.1 402 105 L 405 195 z" fill="rgb(255,217,194)" stroke="black"/>
  <text fill="rgb(9,33,173)" font-size="25" x="437.0" y="108.0">back</text>
  <path d="M 585 195 L 699 195 L 702 105 Q 681.3 95.1 693 60 L 660 60 L 642 156 L 624 60 L 591 60 Q 602.7 95.1 582 105 L 585 195 z" fill="rgb(255,217,194)" stroke="black"/>
  <text fill="rgb(9,33,173)" font-size="25" x="617.0" y="113.66666666666667">front</text>
  <path d="M 762 141 L 864 102 Q 883.5 93.0 873 60 L 762 60 L 762 141 z" fill="rgb(255,217,194)" stroke="black"/>
  <text fill="rgb(9,33,173)" font-size="25" x="790.25" y="93.75">lbsleeve</text>
  <path d="M 933 141 L 1044 141 Q 1054.5 108.0 1035 99 L 933 60 L 933 141 z" fill="rgb(255,217,194)" stroke="black"/>
  <text fill="rgb(9,33,173)" font-size="25" x="961.25" y="113.25">lfsleeve</text>
</svg>
