<?xml version="1.0" encoding="utf-8" ?>
<svg xmlns="http://www.w3.org/2000/svg" xmlns:ev="http://www.w3.org/2001/xml-events" xmlns:xlink="http://www.w3.org/1999/xlink" baseProfile="full" height="369px" version="1.1" width="1104px">
  <defs/>
  <path d="M 60 309 L 159 309 Q 171.45 97.35 159 60 L 90 60 Q 104.7 141.75 60 153 Q 75.6 160.8 60 309 z" fill="rgb(255,217,194)" stroke="black"/>
  <text fill="rgb(9,33,173)" font-size="25" x="80.6" y="181.2">Rback</text>
  <path d="M 219 309 L 318 309 Q 302.4 160.8 318 153 Q 277.95 140.25 288 60 L 219 60 Q 206.55 97.35 219 309 z" fill="rgb(255,217,194)" stroke="black"/>
  <text fill="rgb(9,33,173)" font-size="25" x="247.39999999999998" y="181.2">Rfront</text>
  <path d="M 378 168 L 450 168 L 522 168 L 519 147 Q 481.49999999999994 124.5 510 60 L 477 60 Q 450.0 132.7018365935519 423 60 L 390 60 Q 418.5 124.5 381 147 L 378 168 z" fill="rgb(255,217,194)" stroke="black"/>
  <text fill="rgb(9,33,173)" font-size="25" x="425.0" y="118.33333333333333">up_back</text>
  <path d="M 582 165 L 654 165 L 726 165 L 723 147 Q 685.5 124.5 714 60 L 681 60 L 654 66 L 627 60 L 594 60 Q 622.5 124.5 585 147 L 582 165 z" fill="rgb(255,217,194)" stroke="black"/>
  <text fill="rgb(9,33,173)" font-size="25" x="629.0" y="112.5">up_front</text>
  <path d="M 786 309 L 885 309 Q 869.4 160.8 885 153 Q 840.3 141.75 855 60 L 786 60 Q 773.55 97.35 786 309 z" fill="rgb(255,217,194)" stroke="black"/>
  <text fill="rgb(9,33,173)" font-size="25" x="814.4" y="181.2">Lback</text>
  <path d="M 945 309 L 1044 309 Q 1056.45 97.35 1044 60 L 975 60 Q 985.05 140.25 945 153 Q 960.6 160.8 945 309 z" fill="rgb(255,217,194)" stroke="black"/>
  <text fill="rgb(9,33,173)" font-size="25" x="965.6" y="181.2">Lfront</text>
</svg>
