<?xml version="1.0" encoding="utf-8" ?>
<svg xmlns="http://www.w3.org/2000/svg" xmlns:ev="http://www.w3.org/2001/xml-events" xmlns:xlink="http://www.w3.org/1999/xlink" baseProfile="full" height="243px" version="1.1" width="1498.0px">
  <defs/>
  <path d="M 60 183 L 183 183 L 174 60 L 90 60 Q 96.3 126.0 60 132 Q 65.1 134.55 60 183 z" fill="rgb(255,217,194)" stroke="black"/>
  <text fill="rgb(9,33,173)" font-size="25" x="88.4" y="126.6">Rback</text>
  <path d="M 243 183 L 366 183 Q 360.9 134.55 366 132 Q 333.3 124.5 336 60 L 252 60 L 243 183 z" fill="rgb(255,217,194)" stroke="black"/>
  <text fill="rgb(9,33,173)" font-size="25" x="287.6" y="126.6">Rfront</text>
  <path d="M 426 78 L 465 78 L 504 78 L 504 60 L 426 60 L 426 78 z" fill="rgb(255,217,194)" stroke="black"/>
  <text fill="rgb(9,33,173)" font-size="25" x="440.0" y="73.8">wb_back</text>
  <path d="M 570.0 78.0 L 609.0 78.0 L 648.0 78.0 L 648.0 60.0 L 570.0 60.0 L 570.0 78.0 z" fill="rgb(255,217,194)" stroke="black"/>
  <text fill="rgb(9,33,173)" font-size="25" x="584.0" y="73.8">wb_front</text>
  <path d="M 724.0 159.0 L 868.0 159.0 L 868.0 126.0 Q 838.0 111.0 856.0 60.0 L 826.0 60.0 Q 796.0 107.37332976141245 766.0 60.0 L 736.0 60.0 Q 754.0 110.99999999999999 724.0 126.0 L 724.0 159.0 z" fill="rgb(255,217,194)" stroke="black"/>
  <text fill="rgb(9,33,173)" font-size="25" x="771.0" y="104.25">top_back</text>
  <path d="M 928.0 159.0 L 1072.0 159.0 L 1072.0 126.0 Q 1042.0 111.0 1060.0 60.0 L 1030.0 60.0 L 1000.0 135.0 L 970.0 60.0 L 940.0 60.0 Q 958.0 110.99999999999999 928.0 126.0 L 928.0 159.0 z" fill="rgb(255,217,194)" stroke="black"/>
  <text fill="rgb(9,33,173)" font-size="25" x="975.0" y="108.0">top_front</text>
  <path d="M 1132.0 183.0 L 1255.0 183.0 Q 1249.9 134.55 1255.0 132.0 Q 1218.7 126.0 1225.0 60.0 L 1141.0 60.0 L 1132.0 183.0 z" fill="rgb(255,217,194)" stroke="black"/>
  <text fill="rgb(9,33,173)" font-size="25" x="1176.6" y="126.6">Lback</text>
  <path d="M 1315.0 183.0 L 1438.0 183.0 L 1429.0 60.0 L 1345.0 60.0 Q 1347.7 124.5 1315.0 132.0 Q 1320.1 134.55 1315.0 183.0 z" fill="rgb(255,217,194)" stroke="black"/>
  <text fill="rgb(9,33,173)" font-size="25" x="1343.4" y="126.6">Lfront</text>
</svg>
