<?xml version="1.0" encoding="utf-8" ?>
<svg xmlns="http://www.w3.org/2000/svg" xmlns:ev="http://www.w3.org/2001/xml-events" xmlns:xlink="http://www.w3.org/1999/xlink" baseProfile="full" height="357px" version="1.1" width="1092px">
  <defs/>
  <path d="M 60 297 Q 162.0 218.93828189967633 264 297 L 246 102 L 234 60 L 90 60 L 78 102 L 60 297 z" fill="rgb(255,217,194)" stroke="black"/>
  <text fill="rgb(9,33,173)" font-size="25" x="137.0" y="156.0">skirt_back</text>
  <path d="M 324 297 Q 426.0 392.64165627866385 528 297 L 510 102 L 498 60 L 354 60 L 342 102 L 324 297 z" fill="rgb(255,217,194)" stroke="black"/>
  <text fill="rgb(9,33,173)" font-size="25" x="401.0" y="156.0">skirt_front</text>
  <path d="M 612 168 L 756 168 L 780 117 Q 752.7 105.9 765 60 L 726 60 Q 684.0 111.04536346458113 642 60 L 603 60 Q 615.3 105.9 588 117 L 612 168 z" fill="rgb(255,217,194)" stroke="black"/>
  <text fill="rgb(9,33,173)" font-size="25" x="659.0" y="104.25">top_back</text>
  <path d="M 864 165 L 1008 165 L 1032 114 Q 1005.9 103.8 1017 60 L 978 60 L 936 123 L 894 60 L 855 60 Q 866.1 103.8 840 114 L 864 165 z" fill="rgb(255,217,194)" stroke="black"/>
  <text fill="rgb(9,33,173)" font-size="25" x="911.0" y="105.33333333333333">top_front</text>
</svg>
