<?xml version="1.0" encoding="utf-8" ?>
<svg xmlns="http://www.w3.org/2000/svg" xmlns:ev="http://www.w3.org/2001/xml-events" xmlns:xlink="http://www.w3.org/1999/xlink" baseProfile="full" height="390px" version="1.1" width="1354.0px">
  <defs/>
  <path d="M 60 330 L 276 330 L 276 60 L 60 60 L 60 330 z" fill="rgb(255,217,194)" stroke="black"/>
  <text fill="rgb(9,33,173)" font-size="25" x="143.0" y="198.0">skirt_back</text>
  <path d="M 336 72 L 426 72 L 426 60 L 336 60 L 336 72 z" fill="rgb(255,217,194)" stroke="black"/>
  <text fill="rgb(9,33,173)" font-size="25" x="356.0" y="69.0">wb_back</text>
  <path d="M 486 72 L 576 72 L 576 60 L 486 60 L 486 72 z" fill="rgb(255,217,194)" stroke="black"/>
  <text fill="rgb(9,33,173)" font-size="25" x="506.0" y="69.0">wb_front</text>
  <path d="M 646.0 330.0 L 862.0 330.0 L 862.0 60.0 L 646.0 60.0 L 646.0 330.0 z" fill="rgb(255,217,194)" stroke="black"/>
  <text fill="rgb(9,33,173)" font-size="25" x="729.0" y="198.0">skirt_front</text>
  <path d="M 922.0 195.0 L 1078.0 195.0 L 1078.0 102.0 Q 1057.6000000000001 94.2 1066.0 60.0 L 1027.0 60.0 Q 1000.0 68.45756762326756 973.0 60.0 L 934.0 60.0 Q 942.4 94.2 922.0 102.0 L 922.0 195.0 z" fill="rgb(255,217,194)" stroke="black"/>
  <text fill="rgb(9,33,173)" font-size="25" x="975.0" y="107.25">top_back</text>
  <path d="M 1138.0 195.0 L 1294.0 195.0 L 1294.0 102.0 Q 1273.6000000000001 94.2 1282.0 60.0 L 1243.0 60.0 L 1216.0 87.0 L 1189.0 60.0 L 1150.0 60.0 Q 1158.3999999999999 94.2 1138.0 102.0 L 1138.0 195.0 z" fill="rgb(255,217,194)" stroke="black"/>
  <text fill="rgb(9,33,173)" font-size="25" x="1191.0" y="105.33333333333333">top_front</text>
</svg>
