<?xml version="1.0" encoding="utf-8" ?>
<svg xmlns="http://www.w3.org/2000/svg" xmlns:ev="http://www.w3.org/2001/xml-events" xmlns:xlink="http://www.w3.org/1999/xlink" baseProfile="full" height="408px" version="1.1" width="1330.0px">
  <defs/>
  <path d="M 60 348 L 264 348 L 264 60 L 60 60 L 60 348 z" fill="rgb(255,217,194)" stroke="black"/>
  <text fill="rgb(9,33,173)" font-size="25" x="137.0" y="207.0">skirt_back</text>
  <path d="M 324 81 L 414 81 L 414 60 L 324 60 L 324 81 z" fill="rgb(255,217,194)" stroke="black"/>
  <text fill="rgb(9,33,173)" font-size="25" x="344.0" y="73.5">wb_back</text>
  <path d="M 474 81 L 564 81 L 564 60 L 474 60 L 474 81 z" fill="rgb(255,217,194)" stroke="black"/>
  <text fill="rgb(9,33,173)" font-size="25" x="494.0" y="73.5">wb_front</text>
  <path d="M 634.0 348.0 L 838.0 348.0 L 838.0 60.0 L 634.0 60.0 L 634.0 348.0 z" fill="rgb(255,217,194)" stroke="black"/>
  <text fill="rgb(9,33,173)" font-size="25" x="711.0" y="207.0">skirt_front</text>
  <path d="M 898.0 186.0 L 1054.0 186.0 L 1054.0 126.0 Q 1024.0 111.0 1042.0 60.0 L 991.0 60.0 Q 976.0 106.04638506500615 961.0 60.0 L 910.0 60.0 Q 928.0 110.99999999999999 898.0 126.0 L 898.0 186.0 z" fill="rgb(255,217,194)" stroke="black"/>
  <text fill="rgb(9,33,173)" font-size="25" x="951.0" y="111.0">top_back</text>
  <path d="M 1114.0 186.0 L 1270.0 186.0 L 1270.0 126.0 Q 1240.0 111.0 1258.0 60.0 L 1207.0 60.0 L 1192.0 102.0 L 1177.0 60.0 L 1126.0 60.0 Q 1144.0 110.99999999999999 1114.0 126.0 L 1114.0 186.0 z" fill="rgb(255,217,194)" stroke="black"/>
  <text fill="rgb(9,33,173)" font-size="25" x="1167.0" y="110.33333333333333">top_front</text>
</svg>
