<?xml version="1.0" encoding="utf-8" ?>
<svg xmlns="http://www.w3.org/2000/svg" xmlns:ev="http://www.w3.org/2001/xml-events" xmlns:xlink="http://www.w3.org/1999/xlink" baseProfile="full" height="318px" version="1.1" width="1536.0px">
  <defs/>
  <path d="M 60 258 L 120 258 L 201 60 L 90 60 Q 103.5 139.5 60 150 Q 70.8 155.4 60 258 z" fill="rgb(255,217,194)" stroke="black"/>
  <text fill="rgb(9,33,173)" font-size="25" x="81.2" y="160.2">Rback</text>
  <path d="M 342 258 L 402 258 Q 391.2 155.4 402 150 Q 363.0 138.0 372 60 L 261 60 L 342 258 z" fill="rgb(255,217,194)" stroke="black"/>
  <text fill="rgb(9,33,173)" font-size="25" x="330.8" y="160.2">Rfront</text>
  <path d="M 462 78 L 501 78 L 540 78 L 540 60 L 462 60 L 462 78 z" fill="rgb(255,217,194)" stroke="black"/>
  <text fill="rgb(9,33,173)" font-size="25" x="476.0" y="73.8">wb_back</text>
  <path d="M 606.0 78.0 L 645.0 78.0 L 684.0 78.0 L 684.0 60.0 L 606.0 60.0 L 606.0 78.0 z" fill="rgb(255,217,194)" stroke="black"/>
  <text fill="rgb(9,33,173)" font-size="25" x="620.0" y="73.8">wb_front</text>
  <path d="M 760.0 180.0 L 886.0 180.0 L 886.0 138.0 Q 852.0999999999999 118.19999999999999 877.0 60.0 L 838.0 60.0 Q 823.0 96.20185960267948 808.0 60.0 L 769.0 60.0 Q 793.9000000000001 118.19999999999999 760.0 138.0 L 760.0 180.0 z" fill="rgb(255,217,194)" stroke="black"/>
  <text fill="rgb(9,33,173)" font-size="25" x="798.0" y="112.5">top_back</text>
  <path d="M 946.0 180.0 L 1072.0 180.0 L 1072.0 138.0 Q 1038.1 118.19999999999999 1063.0 60.0 L 1024.0 60.0 L 1009.0 102.0 L 994.0 60.0 L 955.0 60.0 Q 979.9000000000001 118.19999999999999 946.0 138.0 L 946.0 180.0 z" fill="rgb(255,217,194)" stroke="black"/>
  <text fill="rgb(9,33,173)" font-size="25" x="984.0" y="111.66666666666667">top_front</text>
  <path d="M 1215.0 258.0 L 1275.0 258.0 Q 1264.2 155.4 1275.0 150.0 Q 1231.5 139.5 1245.0 60.0 L 1134.0 60.0 L 1215.0 258.0 z" fill="rgb(255,217,194)" stroke="black"/>
  <text fill="rgb(9,33,173)" font-size="25" x="1203.8" y="160.2">Lback</text>
  <path d="M 1335.0 258.0 L 1395.0 258.0 L 1476.0 60.0 L 1365.0 60.0 Q 1374.0 138.0 1335.0 150.0 Q 1345.8 155.4 1335.0 258.0 z" fill="rgb(255,217,194)" stroke="black"/>
  <text fill="rgb(9,33,173)" font-size="25" x="1356.2" y="160.2">Lfront</text>
</svg>
