<?xml version="1.0" encoding="utf-8" ?>
<svg xmlns="http://www.w3.org/2000/svg" xmlns:ev="http://www.w3.org/2001/xml-events" xmlns:xlink="http://www.w3.org/1999/xlink" baseProfile="full" height="495px" version="1.1" width="925.0px">
  <defs/>
  <path d="M 60 435 L 147 435 L 147 114 L 111 60 L 87 60 Q 122.7 137.1 78 165 L 60 435 z" fill="rgb(255,217,194)" stroke="black"/>
  <text fill="rgb(9,33,173)" font-size="25" x="80.0" y="214.5">front_right</text>
  <path d="M 253.0 189.0 L 271.0 192.0 Q 336.7 197.4 322.0 108.0 L 289.0 117.0 L 250.0 60.0 L 253.0 189.0 z" fill="rgb(255,217,194)" stroke="black"/>
  <text fill="rgb(9,33,173)" font-size="25" x="252.0" y="136.2">Rhood</text>
  <path d="M 382.0 435.0 L 556.0 435.0 L 538.0 165.0 Q 493.29999999999995 137.1 529.0 60.0 L 505.0 60.0 L 469.0 69.0 L 433.0 60.0 L 409.0 60.0 Q 444.7 137.1 400.0 165.0 L 382.0 435.0 z" fill="rgb(255,217,194)" stroke="black"/>
  <text fill="rgb(9,33,173)" font-size="25" x="444.0" y="170.66666666666666">back</text>
  <path d="M 616.0 192.0 L 655.0 135.0 L 688.0 144.0 Q 702.6999999999999 54.60000000000001 637.0 60.0 L 619.0 63.0 L 616.0 192.0 z" fill="rgb(255,217,194)" stroke="black"/>
  <text fill="rgb(9,33,173)" font-size="25" x="618.0" y="121.8">Lhood</text>
  <path d="M 748.0 435.0 L 835.0 435.0 L 817.0 165.0 Q 772.3 137.1 808.0 60.0 L 784.0 60.0 L 748.0 114.0 L 748.0 435.0 z" fill="rgb(255,217,194)" stroke="black"/>
  <text fill="rgb(9,33,173)" font-size="25" x="765.0" y="214.5">front_left</text>
</svg>
