<?xml version="1.0" encoding="utf-8" ?>
<svg xmlns="http://www.w3.org/2000/svg" xmlns:ev="http://www.w3.org/2001/xml-events" xmlns:xlink="http://www.w3.org/1999/xlink" baseProfile="full" height="339px" version="1.1" width="1116px">
  <defs/>
  <path d="M 60 279 Q 186.0 181.1893014690371 312 279 L 270 102 L 243 60 L 129 60 L 102 102 L 60 279 z" fill="rgb(255,217,194)" stroke="black"/>
  <text fill="rgb(9,33,173)" font-size="25" x="161.0" y="150.0">skirt_back</text>
  <path d="M 372 279 Q 498.0 379.4458811657453 624 279 L 582 102 L 555 60 L 441 60 L 414 102 L 372 279 z" fill="rgb(255,217,194)" stroke="black"/>
  <text fill="rgb(9,33,173)" font-size="25" x="473.0" y="150.0">skirt_front</text>
  <path d="M 705 168 L 819 168 L 840 138 Q 805.1999999999999 119.39999999999999 828 60 L 789 60 Q 762.0 75.75303303716348 735 60 L 696 60 Q 718.8000000000001 119.39999999999999 684 138 L 705 168 z" fill="rgb(255,217,194)" stroke="black"/>
  <text fill="rgb(9,33,173)" font-size="25" x="737.0" y="109.5">top_back</text>
  <path d="M 921 165 L 1035 165 L 1056 138 Q 1021.2 119.39999999999999 1044 60 L 1005 60 L 978 105 L 951 60 L 912 60 Q 934.8000000000001 119.39999999999999 900 138 L 921 165 z" fill="rgb(255,217,194)" stroke="black"/>
  <text fill="rgb(9,33,173)" font-size="25" x="953.0" y="108.66666666666667">top_front</text>
</svg>
