<?xml version="1.0" encoding="utf-8" ?>
<svg xmlns="http://www.w3.org/2000/svg" xmlns:ev="http://www.w3.org/2001/xml-events" xmlns:xlink="http://www.w3.org/1999/xlink" baseProfile="full" height="528px" version="1.1" width="1839.5px">
  <defs/>
  <path d="M 60 120 L 198 120 Q 213.6 73.2 186 60 L 60 69 L 60 120 z" fill="rgb(255,217,194)" stroke="black"/>
  <text fill="rgb(9,33,173)" font-size="25" x="101.0" y="95.25">rbsleeve</text>
  <path d="M 258 111 L 384 120 Q 411.6 106.8 396 60 L 258 60 L 258 111 z" fill="rgb(255,217,194)" stroke="black"/>
  <text fill="rgb(9,33,173)" font-size="25" x="299.0" y="90.75">rfsleeve</text>
  <path d="M 456 468 L 585 468 L 585 99 L 555 60 L 516 60 Q 531.6 106.8 504 120 L 456 468 z" fill="rgb(255,217,194)" stroke="black"/>
  <text fill="rgb(9,33,173)" font-size="25" x="508.5" y="215.5">front_right</text>
  <path d="M 678.5 189.0 L 708.5 189.0 Q 779.6 182.70000000000002 747.5 90.0 L 714.5 99.0 L 681.5 60.0 L 678.5 189.0 z" fill="rgb(255,217,194)" stroke="black"/>
  <text fill="rgb(9,33,173)" font-size="25" x="681.1" y="128.4">Rhood</text>
  <path d="M 807.5 468.0 L 1065.5 468.0 L 1017.5 120.0 Q 989.9 106.8 1005.5 60.0 L 966.5 60.0 L 936.5 69.0 L 906.5 60.0 L 867.5 60.0 Q 883.1 106.8 855.5 120.0 L 807.5 468.0 z" fill="rgb(255,217,194)" stroke="black"/>
  <text fill="rgb(9,33,173)" font-size="25" x="911.5" y="168.0">back</text>
  <path d="M 1128.5 189.0 L 1161.5 150.0 L 1194.5 159.0 Q 1226.6000000000001 66.30000000000001 1155.5 60.0 L 1125.5 60.0 L 1128.5 189.0 z" fill="rgb(255,217,194)" stroke="black"/>
  <text fill="rgb(9,33,173)" font-size="25" x="1128.1" y="126.6">Lhood</text>
  <path d="M 1254.5 468.0 L 1383.5 468.0 L 1335.5 120.0 Q 1307.9 106.8 1323.5 60.0 L 1284.5 60.0 L 1254.5 99.0 L 1254.5 468.0 z" fill="rgb(255,217,194)" stroke="black"/>
  <text fill="rgb(9,33,173)" font-size="25" x="1281.0" y="215.5">front_left</text>
  <path d="M 1443.5 111.0 L 1569.5 120.0 Q 1597.1 106.8 1581.5 60.0 L 1443.5 60.0 L 1443.5 111.0 z" fill="rgb(255,217,194)" stroke="black"/>
  <text fill="rgb(9,33,173)" font-size="25" x="1484.5" y="90.75">lbsleeve</text>
  <path d="M 1641.5 120.0 L 1779.5 120.0 Q 1795.1 73.2 1767.5 60.0 L 1641.5 69.0 L 1641.5 120.0 z" fill="rgb(255,217,194)" stroke="black"/>
  <text fill="rgb(9,33,173)" font-size="25" x="1682.5" y="95.25">lfsleeve</text>
</svg>
