<?xml version="1.0" encoding="utf-8" ?>
<svg xmlns="http://www.w3.org/2000/svg" xmlns:ev="http://www.w3.org/2001/xml-events" xmlns:xlink="http://www.w3.org/1999/xlink" baseProfile="full" height="351.0px" version="1.1" width="1768.0px">
  <defs/>
  <path d="M 60 228 L 144 228 Q 158.4 183.29999999999998 132 171 L 60 60 L 60 228 z" fill="rgb(255,217,194)" stroke="black"/>
  <text fill="rgb(9,33,173)" font-size="25" x="74.0" y="174.75">rbsleeve</text>
  <path d="M 214.0 228.0 L 286.0 117.0 Q 312.40000000000003 104.7 298.0 60.0 L 214.0 60.0 L 214.0 228.0 z" fill="rgb(255,217,194)" stroke="black"/>
  <text fill="rgb(9,33,173)" font-size="25" x="228.0" y="119.25">rfsleeve</text>
  <path d="M 368.0 291.0 L 467.0 291.0 Q 481.1 94.80000000000001 470.0 60.0 L 398.0 60.0 Q 412.7 141.75 368.0 153.0 Q 381.8 159.9 368.0 291.0 z" fill="rgb(255,217,194)" stroke="black"/>
  <text fill="rgb(9,33,173)" font-size="25" x="389.2" y="174.0">Rback</text>
  <path d="M 533.0 291.0 L 632.0 291.0 Q 618.2 159.9 632.0 153.0 Q 591.95 140.25 602.0 60.0 L 530.0 60.0 Q 518.9000000000001 94.80000000000001 533.0 291.0 z" fill="rgb(255,217,194)" stroke="black"/>
  <text fill="rgb(9,33,173)" font-size="25" x="560.8" y="174.0">Rfront</text>
  <path d="M 701.0 168.0 L 773.0 168.0 L 845.0 168.0 L 854.0 117.0 Q 827.6 104.7 842.0 60.0 L 809.0 60.0 Q 773.0 75.73976617871054 737.0 60.0 L 704.0 60.0 Q 718.4 104.7 692.0 117.0 L 701.0 168.0 z" fill="rgb(255,217,194)" stroke="black"/>
  <text fill="rgb(9,33,173)" font-size="25" x="748.0" y="111.66666666666667">up_back</text>
  <path d="M 923.0 165.0 L 995.0 165.0 L 1067.0 165.0 L 1076.0 117.0 Q 1049.6000000000001 104.7 1064.0 60.0 L 1031.0 60.0 L 995.0 108.0 L 959.0 60.0 L 926.0 60.0 Q 940.4 104.7 914.0 117.0 L 923.0 165.0 z" fill="rgb(255,217,194)" stroke="black"/>
  <text fill="rgb(9,33,173)" font-size="25" x="970.0" y="110.7">up_front</text>
  <path d="M 1139.0 291.0 L 1238.0 291.0 Q 1224.2 159.9 1238.0 153.0 Q 1193.3 141.75 1208.0 60.0 L 1136.0 60.0 Q 1124.9 94.80000000000001 1139.0 291.0 z" fill="rgb(255,217,194)" stroke="black"/>
  <text fill="rgb(9,33,173)" font-size="25" x="1166.8" y="174.0">Lback</text>
  <path d="M 1298.0 291.0 L 1397.0 291.0 Q 1411.1 94.80000000000001 1400.0 60.0 L 1328.0 60.0 Q 1338.05 140.25 1298.0 153.0 Q 1311.8 159.9 1298.0 291.0 z" fill="rgb(255,217,194)" stroke="black"/>
  <text fill="rgb(9,33,173)" font-size="25" x="1319.2" y="174.0">Lfront</text>
  <path d="M 1460.0 228.0 L 1532.0 117.0 Q 1558.3999999999999 104.7 1544.0 60.0 L 1460.0 60.0 L 1460.0 228.0 z" fill="rgb(255,217,194)" stroke="black"/>
  <text fill="rgb(9,33,173)" font-size="25" x="1474.0" y="119.25">lbsleeve</text>
  <path d="M 1614.0 228.0 L 1698.0 228.0 Q 1712.3999999999999 183.29999999999998 1686.0 171.0 L 1614.0 60.0 L 1614.0 228.0 z" fill="rgb(255,217,194)" stroke="black"/>
  <text fill="rgb(9,33,173)" font-size="25" x="1628.0" y="174.75">lfsleeve</text>
</svg>
