<?xml version="1.0" encoding="utf-8" ?>
<svg xmlns="http://www.w3.org/2000/svg" xmlns:ev="http://www.w3.org/2001/xml-events" xmlns:xlink="http://www.w3.org/1999/xlink" baseProfile="full" height="273px" version="1.1" width="1299.0px">
  <defs/>
  <path d="M 60 213 L 282 213 L 282 60 L 60 60 L 60 213 z" fill="rgb(255,217,194)" stroke="black"/>
  <text fill="rgb(9,33,173)" font-size="25" x="146.0" y="139.5">skirt_back</text>
  <path d="M 342 69 L 432 69 L 432 60 L 342 60 L 342 69 z" fill="rgb(255,217,194)" stroke="black"/>
  <text fill="rgb(9,33,173)" font-size="25" x="362.0" y="67.5">wb_back</text>
  <path d="M 492 69 L 582 69 L 582 60 L 492 60 L 492 69 z" fill="rgb(255,217,194)" stroke="black"/>
  <text fill="rgb(9,33,173)" font-size="25" x="512.0" y="67.5">wb_front</text>
  <path d="M 652.0 213.0 L 874.0 213.0 L 874.0 60.0 L 652.0 60.0 L 652.0 213.0 z" fill="rgb(255,217,194)" stroke="black"/>
  <text fill="rgb(9,33,173)" font-size="25" x="738.0" y="139.5">skirt_front</text>
  <path d="M 934.0 159.0 L 1054.0 159.0 L 1054.0 117.0 Q 1028.5 103.5 1045.0 60.0 L 1027.0 60.0 Q 994.0 120.48431407448112 961.0 60.0 L 943.0 60.0 Q 959.5 103.5 934.0 117.0 L 934.0 159.0 z" fill="rgb(255,217,194)" stroke="black"/>
  <text fill="rgb(9,33,173)" font-size="25" x="969.0" y="102.0">top_back</text>
  <path d="M 1114.0 159.0 L 1234.0 159.0 L 1234.0 117.0 Q 1208.5 103.5 1225.0 60.0 L 1207.0 60.0 L 1174.0 99.0 L 1141.0 60.0 L 1123.0 60.0 Q 1139.5 103.5 1114.0 117.0 L 1114.0 159.0 z" fill="rgb(255,217,194)" stroke="black"/>
  <text fill="rgb(9,33,173)" font-size="25" x="1149.0" y="102.0">top_front</text>
</svg>
