<?xml version="1.0" encoding="utf-8" ?>
<svg xmlns="http://www.w3.org/2000/svg" xmlns:ev="http://www.w3.org/2001/xml-events" xmlns:xlink="http://www.w3.org/1999/xlink" baseProfile="full" height="495.0px" version="1.1" width="1264.0px">
  <defs/>
  <path d="M 60 168 L 84 168 Q 118.8 87.60000000000001 72 60 L 60 75 L 60 168 z" fill="rgb(255,217,194)" stroke="black"/>
  <text fill="rgb(9,33,173)" font-size="25" x="44.0" y="120.75">rbsleeve</text>
  <path d="M 184.0 153.0 L 196.0 168.0 Q 242.8 140.4 208.0 60.0 L 184.0 60.0 L 184.0 153.0 z" fill="rgb(255,217,194)" stroke="black"/>
  <text fill="rgb(9,33,173)" font-size="25" x="168.0" y="113.25">rfsleeve</text>
  <path d="M 308.0 435.0 L 602.0 435.0 L 533.0 168.0 Q 486.2 140.4 521.0 60.0 L 488.0 60.0 Q 455.0 125.41161444104065 422.0 60.0 L 389.0 60.0 Q 423.8 140.4 377.0 168.0 L 308.0 435.0 z" fill="rgb(255,217,194)" stroke="black"/>
  <text fill="rgb(9,33,173)" font-size="25" x="430.0" y="183.75">back</text>
  <path d="M 662.0 435.0 L 956.0 435.0 L 887.0 168.0 Q 840.1999999999999 140.4 875.0 60.0 L 842.0 60.0 L 809.0 120.0 L 776.0 60.0 L 743.0 60.0 Q 777.8000000000001 140.4 731.0 168.0 L 662.0 435.0 z" fill="rgb(255,217,194)" stroke="black"/>
  <text fill="rgb(9,33,173)" font-size="25" x="784.0" y="177.0">front</text>
  <path d="M 1016.0 153.0 L 1028.0 168.0 Q 1074.8 140.4 1040.0 60.0 L 1016.0 60.0 L 1016.0 153.0 z" fill="rgb(255,217,194)" stroke="black"/>
  <text fill="rgb(9,33,173)" font-size="25" x="1000.0" y="113.25">lbsleeve</text>
  <path d="M 1140.0 168.0 L 1164.0 168.0 Q 1198.8 87.60000000000001 1152.0 60.0 L 1140.0 75.0 L 1140.0 168.0 z" fill="rgb(255,217,194)" stroke="black"/>
  <text fill="rgb(9,33,173)" font-size="25" x="1124.0" y="120.75">lfsleeve</text>
</svg>
