<?xml version="1.0" encoding="utf-8" ?>
<svg xmlns="http://www.w3.org/2000/svg" xmlns:ev="http://www.w3.org/2001/xml-events" xmlns:xlink="http://www.w3.org/1999/xlink" baseProfile="full" height="393px" version="1.1" width="913.0px">
  <defs/>
  <path d="M 60 333 L 153 333 L 153 90 L 132 60 L 93 60 Q 125.4 136.2 81 162 L 60 333 z" fill="rgb(255,217,194)" stroke="black"/>
  <text fill="rgb(9,33,173)" font-size="25" x="87.0" y="176.0">front_right</text>
  <path d="M 257.0 189.0 L 284.0 189.0 Q 357.8 174.6 314.0 81.0 L 293.0 90.0 L 269.0 60.0 L 257.0 189.0 z" fill="rgb(255,217,194)" stroke="black"/>
  <text fill="rgb(9,33,173)" font-size="25" x="258.4" y="124.8">Rhood</text>
  <path d="M 374.0 333.0 L 560.0 333.0 L 539.0 162.0 Q 494.59999999999997 136.20000000000002 527.0 60.0 L 488.0 60.0 L 467.0 69.0 L 446.0 60.0 L 407.0 60.0 Q 439.40000000000003 136.2 395.0 162.0 L 374.0 333.0 z" fill="rgb(255,217,194)" stroke="black"/>
  <text fill="rgb(9,33,173)" font-size="25" x="442.0" y="147.33333333333334">back</text>
  <path d="M 632.0 189.0 L 656.0 159.0 L 677.0 168.0 Q 720.8 74.4 647.0 60.0 L 620.0 60.0 L 632.0 189.0 z" fill="rgb(255,217,194)" stroke="black"/>
  <text fill="rgb(9,33,173)" font-size="25" x="621.4" y="130.2">Lhood</text>
  <path d="M 737.0 333.0 L 830.0 333.0 L 809.0 162.0 Q 764.6 136.20000000000002 797.0 60.0 L 758.0 60.0 L 737.0 90.0 L 737.0 333.0 z" fill="rgb(255,217,194)" stroke="black"/>
  <text fill="rgb(9,33,173)" font-size="25" x="753.0" y="176.0">front_left</text>
</svg>
