<?xml version="1.0" encoding="utf-8" ?>
<svg xmlns="http://www.w3.org/2000/svg" xmlns:ev="http://www.w3.org/2001/xml-events" xmlns:xlink="http://www.w3.org/1999/xlink" baseProfile="full" height="327px" version="1.1" width="1618.0px">
  <defs/>
  <path d="M 60 267 L 204 267 L 183 60 L 90 60 Q 98.7 130.5 60 138 Q 72.9 144.45 60 267 z" fill="rgb(255,217,194)" stroke="black"/>
  <text fill="rgb(9,33,173)" font-size="25" x="94.4" y="161.4">Rback</text>
  <path d="M 264 267 L 408 267 Q 395.1 144.45 408 138 Q 373.2 129.0 378 60 L 285 60 L 264 267 z" fill="rgb(255,217,194)" stroke="black"/>
  <text fill="rgb(9,33,173)" font-size="25" x="323.6" y="161.4">Rfront</text>
  <path d="M 468 69 L 507 69 L 546 69 L 546 60 L 468 60 L 468 69 z" fill="rgb(255,217,194)" stroke="black"/>
  <text fill="rgb(9,33,173)" font-size="25" x="482.0" y="68.4">wb_back</text>
  <path d="M 612.0 69.0 L 651.0 69.0 L 690.0 69.0 L 690.0 60.0 L 612.0 60.0 L 612.0 69.0 z" fill="rgb(255,217,194)" stroke="black"/>
  <text fill="rgb(9,33,173)" font-size="25" x="626.0" y="68.4">wb_front</text>
  <path d="M 766.0 168.0 L 928.0 168.0 L 928.0 114.0 Q 902.8 102.6 916.0 60.0 L 895.0 60.0 Q 847.0 146.25752955977794 799.0 60.0 L 778.0 60.0 Q 791.2 102.6 766.0 114.0 L 766.0 168.0 z" fill="rgb(255,217,194)" stroke="black"/>
  <text fill="rgb(9,33,173)" font-size="25" x="822.0" y="103.5">top_back</text>
  <path d="M 988.0 168.0 L 1150.0 168.0 L 1150.0 114.0 Q 1124.8000000000002 102.6 1138.0 60.0 L 1117.0 60.0 L 1069.0 120.0 L 1021.0 60.0 L 1000.0 60.0 Q 1013.2 102.6 988.0 114.0 L 988.0 168.0 z" fill="rgb(255,217,194)" stroke="black"/>
  <text fill="rgb(9,33,173)" font-size="25" x="1044.0" y="105.66666666666667">top_front</text>
  <path d="M 1210.0 267.0 L 1354.0 267.0 Q 1341.1 144.45 1354.0 138.0 Q 1315.3 130.5 1324.0 60.0 L 1231.0 60.0 L 1210.0 267.0 z" fill="rgb(255,217,194)" stroke="black"/>
  <text fill="rgb(9,33,173)" font-size="25" x="1269.6" y="161.4">Lback</text>
  <path d="M 1414.0 267.0 L 1558.0 267.0 L 1537.0 60.0 L 1444.0 60.0 Q 1448.8 129.0 1414.0 138.0 Q 1426.9 144.45 1414.0 267.0 z" fill="rgb(255,217,194)" stroke="black"/>
  <text fill="rgb(9,33,173)" font-size="25" x="1448.4" y="161.4">Lfront</text>
</svg>
