<?xml version="1.0" encoding="utf-8" ?>
<svg xmlns="http://www.w3.org/2000/svg" xmlns:ev="http://www.w3.org/2001/xml-events" xmlns:xlink="http://www.w3.org/1999/xlink" baseProfile="full" height="225px" version="1.1" width="1522.0px">
  <defs/>
  <path d="M 60 165 L 366 165 L 366 60 L 60 60 L 60 165 z" fill="rgb(255,217,194)" stroke="black"/>
  <text fill="rgb(9,33,173)" font-size="25" x="188.0" y="115.5">skirt_back</text>
  <path d="M 426 69 L 516 69 L 516 60 L 426 60 L 426 69 z" fill="rgb(255,217,194)" stroke="black"/>
  <text fill="rgb(9,33,173)" font-size="25" x="446.0" y="67.5">wb_back</text>
  <path d="M 576 69 L 666 69 L 666 60 L 576 60 L 576 69 z" fill="rgb(255,217,194)" stroke="black"/>
  <text fill="rgb(9,33,173)" font-size="25" x="596.0" y="67.5">wb_front</text>
  <path d="M 736.0 165.0 L 1042.0 165.0 L 1042.0 60.0 L 736.0 60.0 L 736.0 165.0 z" fill="rgb(255,217,194)" stroke="black"/>
  <text fill="rgb(9,33,173)" font-size="25" x="864.0" y="115.5">skirt_front</text>
  <path d="M 1102.0 162.0 L 1252.0 162.0 L 1252.0 126.0 Q 1222.0 111.0 1240.0 60.0 L 1219.0 60.0 Q 1177.0 163.12941330604593 1135.0 60.0 L 1114.0 60.0 Q 1132.0 110.99999999999999 1102.0 126.0 L 1102.0 162.0 z" fill="rgb(255,217,194)" stroke="black"/>
  <text fill="rgb(9,33,173)" font-size="25" x="1152.0" y="105.0">top_back</text>
  <path d="M 1312.0 162.0 L 1462.0 162.0 L 1462.0 126.0 Q 1432.0 111.0 1450.0 60.0 L 1429.0 60.0 L 1387.0 69.0 L 1345.0 60.0 L 1324.0 60.0 Q 1342.0 110.99999999999999 1312.0 126.0 L 1312.0 162.0 z" fill="rgb(255,217,194)" stroke="black"/>
  <text fill="rgb(9,33,173)" font-size="25" x="1362.0" y="101.33333333333333">top_front</text>
</svg>
