<?xml version="1.0" encoding="utf-8" ?>
<svg xmlns="http://www.w3.org/2000/svg" xmlns:ev="http://www.w3.org/2001/xml-events" xmlns:xlink="http://www.w3.org/1999/xlink" baseProfile="full" height="381px" version="1.1" width="751.0px">
  <defs/>
  <path d="M 60 321 L 177 321 L 177 90 L 153 60 L 96 60 Q 109.19999999999999 102.6 84 114 L 60 321 z" fill="rgb(255,217,194)" stroke="black"/>
  <text fill="rgb(9,33,173)" font-size="25" x="99.5" y="164.0">front_right</text>
  <path d="M 269.5 321.0 L 503.5 321.0 L 479.5 117.0 Q 453.09999999999997 104.7 467.5 60.0 L 410.5 60.0 Q 386.5 209.63753226912084 362.5 60.0 L 305.5 60.0 Q 319.90000000000003 104.7 293.5 117.0 L 269.5 321.0 z" fill="rgb(255,217,194)" stroke="black"/>
  <text fill="rgb(9,33,173)" font-size="25" x="361.5" y="142.5">back</text>
  <path d="M 563.5 321.0 L 680.5 321.0 L 656.5 114.0 Q 631.3 102.6 644.5 60.0 L 587.5 60.0 L 563.5 90.0 L 563.5 321.0 z" fill="rgb(255,217,194)" stroke="black"/>
  <text fill="rgb(9,33,173)" font-size="25" x="591.0" y="164.0">front_left</text>
</svg>
