<?xml version="1.0" encoding="utf-8" ?>
<svg xmlns="http://www.w3.org/2000/svg" xmlns:ev="http://www.w3.org/2001/xml-events" xmlns:xlink="http://www.w3.org/1999/xlink" baseProfile="full" height="300px" version="1.1" width="1044px">
  <defs/>
  <path d="M 60 240 L 153 240 Q 162.0 87.0 153 60 L 90 60 Q 104.7 141.75 60 153 Q 68.7 157.35 60 240 z" fill="rgb(255,217,194)" stroke="black"/>
  <text fill="rgb(9,33,173)" font-size="25" x="78.2" y="153.6">Rback</text>
  <text fill="rgb(245,96,66)" font-size="25" x="84.27913396393065" y="60.05223766152398">0</text>
  <text fill="rgb(245,96,66)" font-size="25" x="150.4084797428267" y="60.618307937749">1</text>
  <text fill="rgb(245,96,66)" font-size="25" x="150.43319119431783" y="249.36801792714888">2</text>
  <text fill="rgb(245,96,66)" font-size="25" x="52.82456491668534" y="249.50194204741507">3</text>
  <text fill="rgb(245,96,66)" font-size="25" x="50.00769823397294" y="158.2773500981126">4</text>
  <text fill="rgb(50,179,101)" font-size="20" x="101.6844381479491" y="249.99659709898458">0</text>
  <text fill="rgb(50,179,101)" font-size="20" x="152.99963714213095" y="154.93976340792614">1</text>
  <text fill="rgb(50,179,101)" font-size="20" x="117.48994151243954" y="60.09897808595504">2</text>
  <text fill="rgb(50,179,101)" font-size="20" x="67.3063580392625" y="107.28760246565518">3</text>
  <text fill="rgb(50,179,101)" font-size="20" x="51.573176504975045" y="205.14099996346403">4</text>
  <path d="M 213 240 L 306 240 Q 297.3 157.35000000000002 306 153 Q 265.95 140.25 276 60 L 213 60 Q 204.0 87.0 213 240 z" fill="rgb(255,217,194)" stroke="black"/>
  <text fill="rgb(9,33,173)" font-size="25" x="237.8" y="153.6">Rfront</text>
  <text fill="rgb(245,96,66)" font-size="25" x="271.72086603606937" y="60.05223766152398">0</text>
  <text fill="rgb(245,96,66)" font-size="25" x="205.5915202571733" y="60.618307937749">1</text>
  <text fill="rgb(245,96,66)" font-size="25" x="205.56680880568217" y="249.36801792714888">2</text>
  <text fill="rgb(245,96,66)" font-size="25" x="303.17543508331465" y="249.50194204741507">3</text>
  <text fill="rgb(245,96,66)" font-size="25" x="305.9923017660271" y="158.2773500981126">4</text>
  <text fill="rgb(50,179,101)" font-size="20" x="254.3155618520509" y="249.99659709898458">0</text>
  <text fill="rgb(50,179,101)" font-size="20" x="304.42682349502496" y="205.14099996346403">1</text>
  <text fill="rgb(50,179,101)" font-size="20" x="288.6936419607375" y="107.28760246565518">2</text>
  <text fill="rgb(50,179,101)" font-size="20" x="238.51005848756046" y="60.09897808595504">3</text>
  <text fill="rgb(50,179,101)" font-size="20" x="203.00036285786905" y="154.93976340792614">4</text>
  <path d="M 366 168 L 429 168 L 492 168 L 492 111 Q 468.90000000000003 99.3 483 60 L 453 60 Q 429.0 74.4 405 60 L 375 60 Q 389.09999999999997 99.29999999999998 366 111 L 366 168 z" fill="rgb(255,217,194)" stroke="black"/>
  <text fill="rgb(9,33,173)" font-size="25" x="404.0" y="110.33333333333333">up_back</text>
  <text fill="rgb(245,96,66)" font-size="25" x="450.2611566541373" y="60.540496598784735">0</text>
  <text fill="rgb(245,96,66)" font-size="25" x="481.7600064735665" y="61.704191856503456">1</text>
  <text fill="rgb(245,96,66)" font-size="25" x="491.9915530456898" y="116.29051366932586">2</text>
  <text fill="rgb(245,96,66)" font-size="25" x="490.6016010674574" y="176.46820843532936">3</text>
  <text fill="rgb(245,96,66)" font-size="25" x="424.0" y="178.0">4</text>
  <text fill="rgb(245,96,66)" font-size="25" x="357.3983989325426" y="176.46820843532936">5</text>
  <text fill="rgb(245,96,66)" font-size="25" x="356.0084469543102" y="116.29051366932586">6</text>
  <text fill="rgb(245,96,66)" font-size="25" x="366.2399935264335" y="61.704191856503456">7</text>
  <text fill="rgb(245,96,66)" font-size="25" x="397.7388433458627" y="60.540496598784735">8</text>
  <text fill="rgb(50,179,101)" font-size="20" x="390.1959236467647" y="177.4374803840087">0</text>
  <text fill="rgb(50,179,101)" font-size="20" x="457.8040763532353" y="177.4374803840087">1</text>
  <text fill="rgb(50,179,101)" font-size="20" x="491.45312784192333" y="146.77368696690795">2</text>
  <text fill="rgb(50,179,101)" font-size="20" x="487.18438246810086" y="88.75169771133558">3</text>
  <text fill="rgb(50,179,101)" font-size="20" x="466.17948869738603" y="61.141133375822065">4</text>
  <text fill="rgb(50,179,101)" font-size="20" x="424.0" y="60.0">5</text>
  <text fill="rgb(50,179,101)" font-size="20" x="381.82051130261397" y="61.141133375822065">6</text>
  <text fill="rgb(50,179,101)" font-size="20" x="360.81561753189914" y="88.75169771133558">7</text>
  <text fill="rgb(50,179,101)" font-size="20" x="356.54687215807667" y="146.77368696690795">8</text>
  <path d="M 552 165 L 615 165 L 678 165 L 678 108 Q 656.0999999999999 97.19999999999999 669 60 L 639 60 L 615 93 L 591 60 L 561 60 Q 573.9000000000001 97.19999999999999 552 108 L 552 165 z" fill="rgb(255,217,194)" stroke="black"/>
  <text fill="rgb(9,33,173)" font-size="25" x="590.0" y="107.4">up_front</text>
  <text fill="rgb(245,96,66)" font-size="25" x="610.0" y="93.0">0</text>
  <text fill="rgb(245,96,66)" font-size="25" x="583.6224148281726" y="60.601467432119364">1</text>
  <text fill="rgb(245,96,66)" font-size="25" x="552.1378725700453" y="61.82447300203717">2</text>
  <text fill="rgb(245,96,66)" font-size="25" x="542.0081433278801" y="113.28524895269257">3</text>
  <text fill="rgb(245,96,66)" font-size="25" x="543.3964942162036" y="173.4662293729852">4</text>
  <text fill="rgb(245,96,66)" font-size="25" x="610.0" y="175.0">5</text>
  <text fill="rgb(245,96,66)" font-size="25" x="676.6035057837964" y="173.4662293729852">6</text>
  <text fill="rgb(245,96,66)" font-size="25" x="677.9918566721199" y="113.28524895269257">7</text>
  <text fill="rgb(245,96,66)" font-size="25" x="667.8621274299547" y="61.82447300203717">8</text>
  <text fill="rgb(245,96,66)" font-size="25" x="636.3775851718274" y="60.601467432119364">9</text>
  <text fill="rgb(50,179,101)" font-size="20" x="576.193927862191" y="174.43644354130882">0</text>
  <text fill="rgb(50,179,101)" font-size="20" x="643.806072137809" y="174.43644354130882">1</text>
  <text fill="rgb(50,179,101)" font-size="20" x="677.4550355763287" y="143.7699466984151">2</text>
  <text fill="rgb(50,179,101)" font-size="20" x="673.2211759853564" y="87.3536411948501">3</text>
  <text fill="rgb(50,179,101)" font-size="20" x="652.2997049531836" y="61.243412822529486">4</text>
  <text fill="rgb(50,179,101)" font-size="20" x="623.9755555642139" y="76.90683331320278">5</text>
  <text fill="rgb(50,179,101)" font-size="20" x="596.0244444357861" y="76.90683331320278">6</text>
  <text fill="rgb(50,179,101)" font-size="20" x="567.7002950468164" y="61.243412822529486">7</text>
  <text fill="rgb(50,179,101)" font-size="20" x="546.7788240146436" y="87.3536411948501">8</text>
  <text fill="rgb(50,179,101)" font-size="20" x="542.5449644236713" y="143.7699466984151">9</text>
  <path d="M 738 240 L 831 240 Q 822.3 157.35000000000002 831 153 Q 786.3 141.75 801 60 L 738 60 Q 729.0 87.0 738 240 z" fill="rgb(255,217,194)" stroke="black"/>
  <text fill="rgb(9,33,173)" font-size="25" x="762.8" y="153.6">Lback</text>
  <text fill="rgb(245,96,66)" font-size="25" x="796.7208660360693" y="60.05223766152398">0</text>
  <text fill="rgb(245,96,66)" font-size="25" x="730.5915202571733" y="60.618307937749">1</text>
  <text fill="rgb(245,96,66)" font-size="25" x="730.5668088056822" y="249.36801792714888">2</text>
  <text fill="rgb(245,96,66)" font-size="25" x="828.1754350833147" y="249.50194204741507">3</text>
  <text fill="rgb(245,96,66)" font-size="25" x="830.992301766027" y="158.2773500981126">4</text>
  <text fill="rgb(50,179,101)" font-size="20" x="779.3155618520509" y="249.99659709898458">0</text>
  <text fill="rgb(50,179,101)" font-size="20" x="829.4268234950249" y="205.14099996346403">1</text>
  <text fill="rgb(50,179,101)" font-size="20" x="813.6936419607375" y="107.2876024656552">2</text>
  <text fill="rgb(50,179,101)" font-size="20" x="763.5100584875605" y="60.09897808595504">3</text>
  <text fill="rgb(50,179,101)" font-size="20" x="728.000362857869" y="154.93976340792614">4</text>
  <path d="M 891 240 L 984 240 Q 993.0 87.0 984 60 L 921 60 Q 931.05 140.25 891 153 Q 899.7 157.35 891 240 z" fill="rgb(255,217,194)" stroke="black"/>
  <text fill="rgb(9,33,173)" font-size="25" x="909.2" y="153.6">Lfront</text>
  <text fill="rgb(245,96,66)" font-size="25" x="915.2791339639307" y="60.05223766152398">0</text>
  <text fill="rgb(245,96,66)" font-size="25" x="981.4084797428267" y="60.618307937749">1</text>
  <text fill="rgb(245,96,66)" font-size="25" x="981.4331911943178" y="249.36801792714888">2</text>
  <text fill="rgb(245,96,66)" font-size="25" x="883.8245649166853" y="249.50194204741507">3</text>
  <text fill="rgb(245,96,66)" font-size="25" x="881.007698233973" y="158.2773500981126">4</text>
  <text fill="rgb(50,179,101)" font-size="20" x="932.6844381479491" y="249.99659709898458">0</text>
  <text fill="rgb(50,179,101)" font-size="20" x="983.999637142131" y="154.93976340792614">1</text>
  <text fill="rgb(50,179,101)" font-size="20" x="948.4899415124395" y="60.09897808595504">2</text>
  <text fill="rgb(50,179,101)" font-size="20" x="898.3063580392625" y="107.2876024656552">3</text>
  <text fill="rgb(50,179,101)" font-size="20" x="882.5731765049751" y="205.14099996346403">4</text>
</svg>
