<?xml version="1.0" encoding="utf-8" ?>
<svg xmlns="http://www.w3.org/2000/svg" xmlns:ev="http://www.w3.org/2001/xml-events" xmlns:xlink="http://www.w3.org/1999/xlink" baseProfile="full" height="315px" version="1.1" width="1608.0px">
  <defs/>
  <path d="M 60 255 L 219 255 L 201 60 L 90 60 Q 103.5 139.5 60 150 Q 70.5 155.25 60 255 z" fill="rgb(255,217,194)" stroke="black"/>
  <text fill="rgb(9,33,173)" font-size="25" x="101.0" y="159.0">Rback</text>
  <path d="M 279 255 L 438 255 Q 427.5 155.25 438 150 Q 399.0 138.0 408 60 L 297 60 L 279 255 z" fill="rgb(255,217,194)" stroke="black"/>
  <text fill="rgb(9,33,173)" font-size="25" x="347.0" y="159.0">Rfront</text>
  <path d="M 498 81 L 537 81 L 576 81 L 576 60 L 498 60 L 498 81 z" fill="rgb(255,217,194)" stroke="black"/>
  <text fill="rgb(9,33,173)" font-size="25" x="512.0" y="75.6">wb_back</text>
  <path d="M 642.0 81.0 L 681.0 81.0 L 720.0 81.0 L 720.0 60.0 L 642.0 60.0 L 642.0 81.0 z" fill="rgb(255,217,194)" stroke="black"/>
  <text fill="rgb(9,33,173)" font-size="25" x="656.0" y="75.6">wb_front</text>
  <path d="M 796.0 138.0 L 922.0 138.0 L 922.0 129.0 Q 891.6999999999999 111.89999999999999 913.0 60.0 L 874.0 60.0 Q 859.0 76.34001880944254 844.0 60.0 L 805.0 60.0 Q 826.3000000000001 111.89999999999999 796.0 129.0 L 796.0 138.0 z" fill="rgb(255,217,194)" stroke="black"/>
  <text fill="rgb(9,33,173)" font-size="25" x="834.0" y="99.75">top_back</text>
  <path d="M 982.0 138.0 L 1108.0 138.0 L 1108.0 129.0 Q 1077.7 111.89999999999999 1099.0 60.0 L 1060.0 60.0 L 1045.0 135.0 L 1030.0 60.0 L 991.0 60.0 Q 1012.3000000000001 111.89999999999999 982.0 129.0 L 982.0 138.0 z" fill="rgb(255,217,194)" stroke="black"/>
  <text fill="rgb(9,33,173)" font-size="25" x="1020.0" y="104.0">top_front</text>
  <path d="M 1170.0 255.0 L 1329.0 255.0 Q 1318.5 155.25 1329.0 150.0 Q 1285.5 139.5 1299.0 60.0 L 1188.0 60.0 L 1170.0 255.0 z" fill="rgb(255,217,194)" stroke="black"/>
  <text fill="rgb(9,33,173)" font-size="25" x="1238.0" y="159.0">Lback</text>
  <path d="M 1389.0 255.0 L 1548.0 255.0 L 1530.0 60.0 L 1419.0 60.0 Q 1428.0 138.0 1389.0 150.0 Q 1399.5 155.25 1389.0 255.0 z" fill="rgb(255,217,194)" stroke="black"/>
  <text fill="rgb(9,33,173)" font-size="25" x="1430.0" y="159.0">Lfront</text>
</svg>
