<?xml version="1.0" encoding="utf-8" ?>
<svg xmlns="http://www.w3.org/2000/svg" xmlns:ev="http://www.w3.org/2001/xml-events" xmlns:xlink="http://www.w3.org/1999/xlink" baseProfile="full" height="366px" version="1.1" width="1140px">
  <defs/>
  <path d="M 60 306 Q 195.0 382.3707719733711 330 306 L 276 102 L 261 60 L 129 60 L 114 102 L 60 306 z" fill="rgb(255,217,194)" stroke="black"/>
  <text fill="rgb(9,33,173)" font-size="25" x="170.0" y="159.0">skirt_back</text>
  <path d="M 390 306 Q 525.0 220.08144869559214 660 306 L 606 102 L 591 60 L 459 60 L 444 102 L 390 306 z" fill="rgb(255,217,194)" stroke="black"/>
  <text fill="rgb(9,33,173)" font-size="25" x="500.0" y="159.0">skirt_front</text>
  <path d="M 729 168 L 861 168 L 870 105 Q 848.4 96.3 858 60 L 810 60 Q 795.0 84.64399255651897 780 60 L 732 60 Q 741.6 96.3 720 105 L 729 168 z" fill="rgb(255,217,194)" stroke="black"/>
  <text fill="rgb(9,33,173)" font-size="25" x="770.0" y="101.25">top_back</text>
  <path d="M 939 165 L 1071 165 L 1080 105 Q 1058.4 96.3 1068 60 L 1020 60 L 1005 81 L 990 60 L 942 60 Q 951.6 96.3 930 105 L 939 165 z" fill="rgb(255,217,194)" stroke="black"/>
  <text fill="rgb(9,33,173)" font-size="25" x="980.0" y="98.66666666666667">top_front</text>
</svg>
