<?xml version="1.0" encoding="utf-8" ?>
<svg xmlns="http://www.w3.org/2000/svg" xmlns:ev="http://www.w3.org/2001/xml-events" xmlns:xlink="http://www.w3.org/1999/xlink" baseProfile="full" height="435.0px" version="1.1" width="1576.5px">
  <defs/>
  <path d="M 60 123 L 90 123 Q 106.5 79.5 81 66 L 60 60 L 60 123 z" fill="rgb(255,217,194)" stroke="black"/>
  <text fill="rgb(9,33,173)" font-size="25" x="47.75" y="96.0">rbsleeve</text>
  <path d="M 187.75 123.0 L 208.75 117.0 Q 234.25 103.5 217.75 60.0 L 187.75 60.0 L 187.75 123.0 z" fill="rgb(255,217,194)" stroke="black"/>
  <text fill="rgb(9,33,173)" font-size="25" x="175.5" y="93.0">rfsleeve</text>
  <path d="M 315.5 375.0 L 450.5 375.0 L 450.5 102.0 L 423.5 60.0 L 399.5 60.0 Q 416.0 103.5 390.5 117.0 L 315.5 375.0 z" fill="rgb(255,217,194)" stroke="black"/>
  <text fill="rgb(9,33,173)" font-size="25" x="380.0" y="184.5">front_right</text>
  <path d="M 550.0 171.0 L 577.0 174.0 Q 636.4 171.29999999999998 613.0 93.0 L 586.0 102.0 L 556.0 60.0 L 550.0 171.0 z" fill="rgb(255,217,194)" stroke="black"/>
  <text fill="rgb(9,33,173)" font-size="25" x="551.4" y="123.0">Rhood</text>
  <path d="M 673.0 375.0 L 943.0 375.0 L 868.0 117.0 Q 842.5 103.5 859.0 60.0 L 835.0 60.0 L 808.0 69.0 L 781.0 60.0 L 757.0 60.0 Q 773.5 103.5 748.0 117.0 L 673.0 375.0 z" fill="rgb(255,217,194)" stroke="black"/>
  <text fill="rgb(9,33,173)" font-size="25" x="783.0" y="146.66666666666666">back</text>
  <path d="M 1009.0 174.0 L 1039.0 132.0 L 1066.0 141.0 Q 1089.3999999999999 62.70000000000002 1030.0 60.0 L 1003.0 63.0 L 1009.0 174.0 z" fill="rgb(255,217,194)" stroke="black"/>
  <text fill="rgb(9,33,173)" font-size="25" x="1004.4000000000001" y="117.0">Lhood</text>
  <path d="M 1126.0 375.0 L 1261.0 375.0 L 1186.0 117.0 Q 1160.5 103.5 1177.0 60.0 L 1153.0 60.0 L 1126.0 102.0 L 1126.0 375.0 z" fill="rgb(255,217,194)" stroke="black"/>
  <text fill="rgb(9,33,173)" font-size="25" x="1146.5" y="184.5">front_left</text>
  <path d="M 1321.0 123.0 L 1342.0 117.0 Q 1367.5 103.5 1351.0 60.0 L 1321.0 60.0 L 1321.0 123.0 z" fill="rgb(255,217,194)" stroke="black"/>
  <text fill="rgb(9,33,173)" font-size="25" x="1308.75" y="93.0">lbsleeve</text>
  <path d="M 1448.75 123.0 L 1478.75 123.0 Q 1495.25 79.5 1469.75 66.0 L 1448.75 60.0 L 1448.75 123.0 z" fill="rgb(255,217,194)" stroke="black"/>
  <text fill="rgb(9,33,173)" font-size="25" x="1436.5" y="96.0">lfsleeve</text>
</svg>
