<?xml version="1.0" encoding="utf-8" ?>
<svg xmlns="http://www.w3.org/2000/svg" xmlns:ev="http://www.w3.org/2001/xml-events" xmlns:xlink="http://www.w3.org/1999/xlink" baseProfile="full" height="228px" version="1.1" width="1080px">
  <defs/>
  <path d="M 60 159 Q 156.0 98.2956421917308 252 159 L 240 102 L 225 60 L 87 60 L 72 102 L 60 159 z" fill="rgb(255,217,194)" stroke="black"/>
  <text fill="rgb(9,33,173)" font-size="25" x="131.0" y="110.0">skirt_back</text>
  <path d="M 312 159 Q 408.0 64.50137287249784 504 159 L 492 102 L 477 60 L 339 60 L 324 102 L 312 159 z" fill="rgb(255,217,194)" stroke="black"/>
  <text fill="rgb(9,33,173)" font-size="25" x="383.0" y="110.0">skirt_front</text>
  <path d="M 594 168 L 732 168 L 762 108 Q 738.3 99.6 747 60 L 717 60 Q 663.0 109.18566535613888 609 60 L 579 60 Q 587.7 99.6 564 108 L 594 168 z" fill="rgb(255,217,194)" stroke="black"/>
  <text fill="rgb(9,33,173)" font-size="25" x="638.0" y="102.0">top_back</text>
  <path d="M 852 165 L 990 165 L 1020 105 Q 997.5 97.5 1005 60 L 975 60 L 921 75 L 867 60 L 837 60 Q 844.5 97.5 822 105 L 852 165 z" fill="rgb(255,217,194)" stroke="black"/>
  <text fill="rgb(9,33,173)" font-size="25" x="896.0" y="98.0">top_front</text>
</svg>
