<?xml version="1.0" encoding="utf-8" ?>
<svg xmlns="http://www.w3.org/2000/svg" xmlns:ev="http://www.w3.org/2001/xml-events" xmlns:xlink="http://www.w3.org/1999/xlink" baseProfile="full" height="288px" version="1.1" width="1896.0px">
  <defs/>
  <path d="M 60 228 L 171 228 Q 204.9 144.3 156 117 L 60 60 L 60 228 z" fill="rgb(255,217,194)" stroke="black"/>
  <text fill="rgb(9,33,173)" font-size="25" x="86.75" y="161.25">rbsleeve</text>
  <path d="M 231 228 L 327 171 Q 375.9 143.7 342 60 L 231 60 L 231 228 z" fill="rgb(255,217,194)" stroke="black"/>
  <text fill="rgb(9,33,173)" font-size="25" x="257.75" y="132.75">rfsleeve</text>
  <path d="M 402 189 L 579 189 L 579 84 L 555 60 L 504 60 Q 536.7 141.6 489 168 L 402 189 z" fill="rgb(255,217,194)" stroke="black"/>
  <text fill="rgb(9,33,173)" font-size="25" x="493.0" y="128.0">front_right</text>
  <path d="M 663.0 189.0 L 693.0 183.0 Q 766.8 168.6 723.0 75.0 L 699.0 84.0 L 675.0 60.0 L 663.0 189.0 z" fill="rgb(255,217,194)" stroke="black"/>
  <text fill="rgb(9,33,173)" font-size="25" x="665.6" y="121.2">Rhood</text>
  <path d="M 783.0 189.0 L 1137.0 189.0 L 1050.0 171.0 Q 1001.1 143.7 1035.0 60.0 L 984.0 60.0 L 960.0 69.0 L 936.0 60.0 L 885.0 60.0 Q 918.9 143.7 870.0 171.0 L 783.0 189.0 z" fill="rgb(255,217,194)" stroke="black"/>
  <text fill="rgb(9,33,173)" font-size="25" x="935.0" y="117.33333333333333">back</text>
  <path d="M 1209.0 189.0 L 1233.0 165.0 L 1257.0 174.0 Q 1300.8 80.4 1227.0 66.0 L 1197.0 60.0 L 1209.0 189.0 z" fill="rgb(255,217,194)" stroke="black"/>
  <text fill="rgb(9,33,173)" font-size="25" x="1199.6" y="133.8">Lhood</text>
  <path d="M 1317.0 189.0 L 1494.0 189.0 L 1407.0 168.0 Q 1359.3 141.6 1392.0 60.0 L 1341.0 60.0 L 1317.0 84.0 L 1317.0 189.0 z" fill="rgb(255,217,194)" stroke="black"/>
  <text fill="rgb(9,33,173)" font-size="25" x="1353.0" y="128.0">front_left</text>
  <path d="M 1554.0 228.0 L 1650.0 171.0 Q 1698.9 143.7 1665.0 60.0 L 1554.0 60.0 L 1554.0 228.0 z" fill="rgb(255,217,194)" stroke="black"/>
  <text fill="rgb(9,33,173)" font-size="25" x="1580.75" y="132.75">lbsleeve</text>
  <path d="M 1725.0 228.0 L 1836.0 228.0 Q 1869.9 144.3 1821.0 117.0 L 1725.0 60.0 L 1725.0 228.0 z" fill="rgb(255,217,194)" stroke="black"/>
  <text fill="rgb(9,33,173)" font-size="25" x="1751.75" y="161.25">lfsleeve</text>
</svg>
