<?xml version="1.0" encoding="utf-8" ?>
<svg xmlns="http://www.w3.org/2000/svg" xmlns:ev="http://www.w3.org/2001/xml-events" xmlns:xlink="http://www.w3.org/1999/xlink" baseProfile="full" height="294px" version="1.1" width="1164px">
  <defs/>
  <path d="M 60 234 L 114 234 Q 166.04999999999998 88.64999999999999 165 60 L 90 60 Q 104.7 141.75 60 153 Q 68.1 157.05 60 234 z" fill="rgb(255,217,194)" stroke="black"/>
  <text fill="rgb(9,33,173)" font-size="25" x="72.8" y="151.2">Rback</text>
  <path d="M 276 234 L 330 234 Q 321.9 157.05 330 153 Q 289.95 140.25 300 60 L 225 60 Q 223.95000000000002 88.64999999999999 276 234 z" fill="rgb(255,217,194)" stroke="black"/>
  <text fill="rgb(9,33,173)" font-size="25" x="267.2" y="151.2">Rfront</text>
  <path d="M 396 168 L 471 168 L 546 168 L 552 123 Q 523.1999999999999 108.89999999999999 540 60 L 498 60 Q 471.0 73.76941431224053 444 60 L 402 60 Q 418.8 108.89999999999999 390 123 L 396 168 z" fill="rgb(255,217,194)" stroke="black"/>
  <text fill="rgb(9,33,173)" font-size="25" x="446.0" y="113.0">up_back</text>
  <path d="M 618 165 L 693 165 L 768 165 L 774 123 Q 745.1999999999999 108.89999999999999 762 60 L 720 60 L 693 129 L 666 60 L 624 60 Q 640.8000000000001 108.89999999999999 612 123 L 618 165 z" fill="rgb(255,217,194)" stroke="black"/>
  <text fill="rgb(9,33,173)" font-size="25" x="668.0" y="114.0">up_front</text>
  <path d="M 885 234 L 939 234 Q 930.9 157.05 939 153 Q 894.3 141.75 909 60 L 834 60 Q 832.9499999999999 88.64999999999999 885 234 z" fill="rgb(255,217,194)" stroke="black"/>
  <text fill="rgb(9,33,173)" font-size="25" x="876.2" y="151.2">Lback</text>
  <path d="M 999 234 L 1053 234 Q 1105.05 88.64999999999999 1104 60 L 1029 60 Q 1039.05 140.25 999 153 Q 1007.1 157.05 999 234 z" fill="rgb(255,217,194)" stroke="black"/>
  <text fill="rgb(9,33,173)" font-size="25" x="1011.8" y="151.2">Lfront</text>
</svg>
