<?xml version="1.0" encoding="utf-8" ?>
<svg xmlns="http://www.w3.org/2000/svg" xmlns:ev="http://www.w3.org/2001/xml-events" xmlns:xlink="http://www.w3.org/1999/xlink" baseProfile="full" height="369px" version="1.1" width="1395.0px">
  <defs/>
  <path d="M 60 309 L 111 309 L 168 60 L 90 60 Q 98.7 130.5 60 138 Q 77.1 146.55 60 309 z" fill="rgb(255,217,194)" stroke="black"/>
  <text fill="rgb(9,33,173)" font-size="25" x="72.8" y="178.2">Rback</text>
  <path d="M 285 309 L 336 309 Q 318.9 146.55 336 138 Q 301.2 129.0 306 60 L 228 60 L 285 309 z" fill="rgb(255,217,194)" stroke="black"/>
  <text fill="rgb(9,33,173)" font-size="25" x="273.2" y="178.2">Rfront</text>
  <path d="M 396 69 L 435 69 L 474 69 L 474 60 L 396 60 L 396 69 z" fill="rgb(255,217,194)" stroke="black"/>
  <text fill="rgb(9,33,173)" font-size="25" x="410.0" y="68.4">wb_back</text>
  <path d="M 540.0 69.0 L 579.0 69.0 L 618.0 69.0 L 618.0 60.0 L 540.0 60.0 L 540.0 69.0 z" fill="rgb(255,217,194)" stroke="black"/>
  <text fill="rgb(9,33,173)" font-size="25" x="554.0" y="68.4">wb_front</text>
  <path d="M 694.0 156.0 L 814.0 156.0 L 814.0 141.0 Q 778.9 120.3 805.0 60.0 L 775.0 60.0 Q 754.0 74.81066495906904 733.0 60.0 L 703.0 60.0 Q 729.1 120.29999999999998 694.0 141.0 L 694.0 156.0 z" fill="rgb(255,217,194)" stroke="black"/>
  <text fill="rgb(9,33,173)" font-size="25" x="729.0" y="107.25">top_back</text>
  <path d="M 874.0 156.0 L 994.0 156.0 L 994.0 141.0 Q 958.9 120.3 985.0 60.0 L 955.0 60.0 L 934.0 138.0 L 913.0 60.0 L 883.0 60.0 Q 909.1 120.29999999999998 874.0 141.0 L 874.0 156.0 z" fill="rgb(255,217,194)" stroke="black"/>
  <text fill="rgb(9,33,173)" font-size="25" x="909.0" y="111.0">top_front</text>
  <path d="M 1116.0 309.0 L 1167.0 309.0 Q 1149.9 146.55 1167.0 138.0 Q 1128.3 130.5 1137.0 60.0 L 1059.0 60.0 L 1116.0 309.0 z" fill="rgb(255,217,194)" stroke="black"/>
  <text fill="rgb(9,33,173)" font-size="25" x="1104.2" y="178.2">Lback</text>
  <path d="M 1227.0 309.0 L 1278.0 309.0 L 1335.0 60.0 L 1257.0 60.0 Q 1261.8 129.0 1227.0 138.0 Q 1244.1 146.55 1227.0 309.0 z" fill="rgb(255,217,194)" stroke="black"/>
  <text fill="rgb(9,33,173)" font-size="25" x="1239.8" y="178.2">Lfront</text>
</svg>
