<?xml version="1.0" encoding="utf-8" ?>
<svg xmlns="http://www.w3.org/2000/svg" xmlns:ev="http://www.w3.org/2001/xml-events" xmlns:xlink="http://www.w3.org/1999/xlink" baseProfile="full" height="393px" version="1.1" width="1294.0px">
  <defs/>
  <path d="M 60 333 L 270 333 L 270 60 L 60 60 L 60 333 z" fill="rgb(255,217,194)" stroke="black"/>
  <text fill="rgb(9,33,173)" font-size="25" x="140.0" y="199.5">skirt_back</text>
  <path d="M 330 75 L 420 75 L 420 60 L 330 60 L 330 75 z" fill="rgb(255,217,194)" stroke="black"/>
  <text fill="rgb(9,33,173)" font-size="25" x="350.0" y="70.5">wb_back</text>
  <path d="M 480 75 L 570 75 L 570 60 L 480 60 L 480 75 z" fill="rgb(255,217,194)" stroke="black"/>
  <text fill="rgb(9,33,173)" font-size="25" x="500.0" y="70.5">wb_front</text>
  <path d="M 640.0 333.0 L 850.0 333.0 L 850.0 60.0 L 640.0 60.0 L 640.0 333.0 z" fill="rgb(255,217,194)" stroke="black"/>
  <text fill="rgb(9,33,173)" font-size="25" x="720.0" y="199.5">skirt_front</text>
  <path d="M 910.0 186.0 L 1042.0 186.0 L 1042.0 117.0 Q 1016.5 103.5 1033.0 60.0 L 997.0 60.0 Q 976.0 128.83446712090034 955.0 60.0 L 919.0 60.0 Q 935.5 103.5 910.0 117.0 L 910.0 186.0 z" fill="rgb(255,217,194)" stroke="black"/>
  <text fill="rgb(9,33,173)" font-size="25" x="951.0" y="108.75">top_back</text>
  <path d="M 1102.0 183.0 L 1234.0 183.0 L 1234.0 117.0 Q 1208.5 103.5 1225.0 60.0 L 1189.0 60.0 L 1168.0 84.0 L 1147.0 60.0 L 1111.0 60.0 Q 1127.5 103.5 1102.0 117.0 L 1102.0 183.0 z" fill="rgb(255,217,194)" stroke="black"/>
  <text fill="rgb(9,33,173)" font-size="25" x="1143.0" y="105.66666666666667">top_front</text>
</svg>
