<?xml version="1.0" encoding="utf-8" ?>
<svg xmlns="http://www.w3.org/2000/svg" xmlns:ev="http://www.w3.org/2001/xml-events" xmlns:xlink="http://www.w3.org/1999/xlink" baseProfile="full" height="387.0px" version="1.1" width="1402.0px">
  <defs/>
  <path d="M 60 189 L 117 189 Q 150.6 110.7 105 84 L 60 60 L 60 189 z" fill="rgb(255,217,194)" stroke="black"/>
  <text fill="rgb(9,33,173)" font-size="25" x="60.5" y="133.5">rbsleeve</text>
  <path d="M 200.5 189.0 L 245.5 165.0 Q 291.1 138.3 257.5 60.0 L 200.5 60.0 L 200.5 189.0 z" fill="rgb(255,217,194)" stroke="black"/>
  <text fill="rgb(9,33,173)" font-size="25" x="201.0" y="121.5">rfsleeve</text>
  <path d="M 341.0 327.0 L 671.0 327.0 L 575.0 165.0 Q 529.4 138.3 563.0 60.0 L 518.0 60.0 Q 506.0 86.40895976029523 494.0 60.0 L 449.0 60.0 Q 482.6 138.3 437.0 165.0 L 341.0 327.0 z" fill="rgb(255,217,194)" stroke="black"/>
  <text fill="rgb(9,33,173)" font-size="25" x="481.0" y="156.0">back</text>
  <path d="M 731.0 327.0 L 1061.0 327.0 L 965.0 165.0 Q 919.4 138.3 953.0 60.0 L 908.0 60.0 L 896.0 99.0 L 884.0 60.0 L 839.0 60.0 Q 872.6 138.3 827.0 165.0 L 731.0 327.0 z" fill="rgb(255,217,194)" stroke="black"/>
  <text fill="rgb(9,33,173)" font-size="25" x="871.0" y="150.0">front</text>
  <path d="M 1121.0 189.0 L 1166.0 165.0 Q 1211.6 138.3 1178.0 60.0 L 1121.0 60.0 L 1121.0 189.0 z" fill="rgb(255,217,194)" stroke="black"/>
  <text fill="rgb(9,33,173)" font-size="25" x="1121.5" y="121.5">lbsleeve</text>
  <path d="M 1261.5 189.0 L 1318.5 189.0 Q 1352.1 110.7 1306.5 84.0 L 1261.5 60.0 L 1261.5 189.0 z" fill="rgb(255,217,194)" stroke="black"/>
  <text fill="rgb(9,33,173)" font-size="25" x="1262.0" y="133.5">lfsleeve</text>
</svg>
