<?xml version="1.0" encoding="utf-8" ?>
<svg xmlns="http://www.w3.org/2000/svg" xmlns:ev="http://www.w3.org/2001/xml-events" xmlns:xlink="http://www.w3.org/1999/xlink" baseProfile="full" height="432.0px" version="1.1" width="871.0px">
  <defs/>
  <path d="M 60 369 L 129 369 L 129 75 L 102 60 L 78 60 Q 115.19999999999999 144.60000000000002 66 174 L 60 369 z" fill="rgb(255,217,194)" stroke="black"/>
  <text fill="rgb(9,33,173)" font-size="25" x="69.0" y="187.5">front_right</text>
  <path d="M 239.0 186.0 L 311.0 174.0 Q 373.1 136.2 302.0 66.0 L 275.0 75.0 L 245.0 60.0 L 239.0 186.0 z" fill="rgb(255,217,194)" stroke="black"/>
  <text fill="rgb(9,33,173)" font-size="25" x="249.39999999999998" y="115.2">Rhood</text>
  <path d="M 371.0 372.0 L 509.0 372.0 L 503.0 177.0 Q 452.59999999999997 146.70000000000002 491.0 60.0 L 467.0 60.0 L 440.0 69.0 L 413.0 60.0 L 389.0 60.0 Q 427.40000000000003 146.7 377.0 177.0 L 371.0 372.0 z" fill="rgb(255,217,194)" stroke="black"/>
  <text fill="rgb(9,33,173)" font-size="25" x="415.0" y="159.33333333333334">back</text>
  <path d="M 575.0 186.0 L 605.0 171.0 L 632.0 180.0 Q 703.0999999999999 109.80000000000001 641.0 72.0 L 569.0 60.0 L 575.0 186.0 z" fill="rgb(255,217,194)" stroke="black"/>
  <text fill="rgb(9,33,173)" font-size="25" x="579.4" y="136.8">Lhood</text>
  <path d="M 701.0 369.0 L 770.0 369.0 L 764.0 174.0 Q 714.8 144.60000000000002 752.0 60.0 L 728.0 60.0 L 701.0 75.0 L 701.0 369.0 z" fill="rgb(255,217,194)" stroke="black"/>
  <text fill="rgb(9,33,173)" font-size="25" x="711.0" y="187.5">front_left</text>
</svg>
