<?xml version="1.0" encoding="utf-8" ?>
<svg xmlns="http://www.w3.org/2000/svg" xmlns:ev="http://www.w3.org/2001/xml-events" xmlns:xlink="http://www.w3.org/1999/xlink" baseProfile="full" height="414.0px" version="1.1" width="1771.0px">
  <defs/>
  <path d="M 60 168 L 144 168 Q 160.5 124.5 135 111 L 60 60 L 60 168 z" fill="rgb(255,217,194)" stroke="black"/>
  <text fill="rgb(9,33,173)" font-size="25" x="74.75" y="129.75">rbsleeve</text>
  <path d="M 214.75 168.0 L 289.75 117.0 Q 315.25 103.5 298.75 60.0 L 214.75 60.0 L 214.75 168.0 z" fill="rgb(255,217,194)" stroke="black"/>
  <text fill="rgb(9,33,173)" font-size="25" x="229.5" y="104.25">rfsleeve</text>
  <path d="M 369.5 354.0 L 462.5 354.0 Q 487.4 104.69999999999999 474.5 60.0 L 399.5 60.0 Q 414.2 141.75 369.5 153.0 Q 389.6 163.05 369.5 354.0 z" fill="rgb(255,217,194)" stroke="black"/>
  <text fill="rgb(9,33,173)" font-size="25" x="390.1" y="199.2">Rback</text>
  <path d="M 546.5 354.0 L 639.5 354.0 Q 619.4 163.05 639.5 153.0 Q 599.45 140.25 609.5 60.0 L 534.5 60.0 Q 521.5999999999999 104.69999999999999 546.5 354.0 z" fill="rgb(255,217,194)" stroke="black"/>
  <text fill="rgb(9,33,173)" font-size="25" x="568.9" y="199.2">Rfront</text>
  <path d="M 699.5 168.0 L 777.5 168.0 L 855.5 168.0 L 837.5 117.0 Q 812.0 103.5 828.5 60.0 L 792.5 60.0 Q 777.5 75.96497843754491 762.5 60.0 L 726.5 60.0 Q 743.0 103.5 717.5 117.0 L 699.5 168.0 z" fill="rgb(255,217,194)" stroke="black"/>
  <text fill="rgb(9,33,173)" font-size="25" x="752.5" y="111.66666666666667">up_back</text>
  <path d="M 915.5 165.0 L 993.5 165.0 L 1071.5 165.0 L 1053.5 117.0 Q 1028.0 103.5 1044.5 60.0 L 1008.5 60.0 L 993.5 84.0 L 978.5 60.0 L 942.5 60.0 Q 959.0 103.5 933.5 117.0 L 915.5 165.0 z" fill="rgb(255,217,194)" stroke="black"/>
  <text fill="rgb(9,33,173)" font-size="25" x="968.5" y="108.3">up_front</text>
  <path d="M 1143.5 354.0 L 1236.5 354.0 Q 1216.4 163.05 1236.5 153.0 Q 1191.8 141.75 1206.5 60.0 L 1131.5 60.0 Q 1118.6 104.69999999999999 1143.5 354.0 z" fill="rgb(255,217,194)" stroke="black"/>
  <text fill="rgb(9,33,173)" font-size="25" x="1165.9" y="199.2">Lback</text>
  <path d="M 1296.5 354.0 L 1389.5 354.0 Q 1414.4 104.69999999999999 1401.5 60.0 L 1326.5 60.0 Q 1336.55 140.25 1296.5 153.0 Q 1316.6 163.05 1296.5 354.0 z" fill="rgb(255,217,194)" stroke="black"/>
  <text fill="rgb(9,33,173)" font-size="25" x="1317.1" y="199.2">Lfront</text>
  <path d="M 1461.5 168.0 L 1536.5 117.0 Q 1562.0 103.5 1545.5 60.0 L 1461.5 60.0 L 1461.5 168.0 z" fill="rgb(255,217,194)" stroke="black"/>
  <text fill="rgb(9,33,173)" font-size="25" x="1476.25" y="104.25">lbsleeve</text>
  <path d="M 1616.25 168.0 L 1700.25 168.0 Q 1716.75 124.5 1691.25 111.0 L 1616.25 60.0 L 1616.25 168.0 z" fill="rgb(255,217,194)" stroke="black"/>
  <text fill="rgb(9,33,173)" font-size="25" x="1631.0" y="129.75">lfsleeve</text>
</svg>
