<?xml version="1.0" encoding="utf-8" ?>
<svg xmlns="http://www.w3.org/2000/svg" xmlns:ev="http://www.w3.org/2001/xml-events" xmlns:xlink="http://www.w3.org/1999/xlink" baseProfile="full" height="384px" version="1.1" width="1039.5px">
  <defs/>
  <path d="M 60 324 L 255 324 L 255 72 L 234 60 L 174 60 Q 191.1 114.3 159 129 L 60 324 z" fill="rgb(255,217,194)" stroke="black"/>
  <text fill="rgb(9,33,173)" font-size="25" x="164.5" y="164.5">front_right</text>
  <path d="M 334.5 324.0 L 724.5 324.0 L 625.5 129.0 Q 593.4 114.3 610.5 60.0 L 550.5 60.0 Q 529.5 131.1201689617643 508.5 60.0 L 448.5 60.0 Q 465.6 114.3 433.5 129.0 L 334.5 324.0 z" fill="rgb(255,217,194)" stroke="black"/>
  <text fill="rgb(9,33,173)" font-size="25" x="504.5" y="146.25">back</text>
  <path d="M 784.5 324.0 L 979.5 324.0 L 880.5 129.0 Q 848.4 114.3 865.5 60.0 L 805.5 60.0 L 784.5 72.0 L 784.5 324.0 z" fill="rgb(255,217,194)" stroke="black"/>
  <text fill="rgb(9,33,173)" font-size="25" x="825.0" y="164.5">front_left</text>
</svg>
