<?xml version="1.0" encoding="utf-8" ?>
<svg xmlns="http://www.w3.org/2000/svg" xmlns:ev="http://www.w3.org/2001/xml-events" xmlns:xlink="http://www.w3.org/1999/xlink" baseProfile="full" height="279px" version="1.1" width="1450.0px">
  <defs/>
  <path d="M 60 219 L 147 219 L 171 60 L 90 60 Q 104.7 141.75 60 153 Q 66.6 156.3 60 219 z" fill="rgb(255,217,194)" stroke="black"/>
  <text fill="rgb(9,33,173)" font-size="25" x="80.6" y="145.2">Rback</text>
  <path d="M 255 219 L 342 219 Q 335.4 156.3 342 153 Q 301.95 140.25 312 60 L 231 60 L 255 219 z" fill="rgb(255,217,194)" stroke="black"/>
  <text fill="rgb(9,33,173)" font-size="25" x="271.4" y="145.2">Rfront</text>
  <path d="M 402 69 L 441 69 L 480 69 L 480 60 L 402 60 L 402 69 z" fill="rgb(255,217,194)" stroke="black"/>
  <text fill="rgb(9,33,173)" font-size="25" x="416.0" y="68.4">wb_back</text>
  <path d="M 546.0 69.0 L 585.0 69.0 L 624.0 69.0 L 624.0 60.0 L 546.0 60.0 L 546.0 69.0 z" fill="rgb(255,217,194)" stroke="black"/>
  <text fill="rgb(9,33,173)" font-size="25" x="560.0" y="68.4">wb_front</text>
  <path d="M 700.0 177.0 L 844.0 177.0 L 844.0 144.0 Q 806.8 123.6 832.0 60.0 L 790.0 60.0 Q 772.0 119.0746729071586 754.0 60.0 L 712.0 60.0 Q 737.2 123.6 700.0 144.0 L 700.0 177.0 z" fill="rgb(255,217,194)" stroke="black"/>
  <text fill="rgb(9,33,173)" font-size="25" x="747.0" y="113.25">top_back</text>
  <path d="M 904.0 177.0 L 1048.0 177.0 L 1048.0 141.0 Q 1012.0000000000001 121.5 1036.0 60.0 L 994.0 60.0 L 976.0 108.0 L 958.0 60.0 L 916.0 60.0 Q 940.0 121.49999999999999 904.0 141.0 L 904.0 177.0 z" fill="rgb(255,217,194)" stroke="black"/>
  <text fill="rgb(9,33,173)" font-size="25" x="951.0" y="112.33333333333333">top_front</text>
  <path d="M 1132.0 219.0 L 1219.0 219.0 Q 1212.4 156.3 1219.0 153.0 Q 1174.3 141.75 1189.0 60.0 L 1108.0 60.0 L 1132.0 219.0 z" fill="rgb(255,217,194)" stroke="black"/>
  <text fill="rgb(9,33,173)" font-size="25" x="1148.4" y="145.2">Lback</text>
  <path d="M 1279.0 219.0 L 1366.0 219.0 L 1390.0 60.0 L 1309.0 60.0 Q 1319.05 140.25 1279.0 153.0 Q 1285.6 156.3 1279.0 219.0 z" fill="rgb(255,217,194)" stroke="black"/>
  <text fill="rgb(9,33,173)" font-size="25" x="1299.6" y="145.2">Lfront</text>
</svg>
