<?xml version="1.0" encoding="utf-8" ?>
<svg xmlns="http://www.w3.org/2000/svg" xmlns:ev="http://www.w3.org/2001/xml-events" xmlns:xlink="http://www.w3.org/1999/xlink" baseProfile="full" height="288px" version="1.1" width="1356px">
  <defs/>
  <path d="M 60 228 Q 219.0 158.28290095423358 378 228 L 306 102 L 279 60 L 159 60 L 132 102 L 60 228 z" fill="rgb(255,217,194)" stroke="black"/>
  <text fill="rgb(9,33,173)" font-size="25" x="194.0" y="133.0">skirt_back</text>
  <path d="M 438 228 Q 597.0 175.6224936058883 756 228 L 684 102 L 657 60 L 537 60 L 510 102 L 438 228 z" fill="rgb(255,217,194)" stroke="black"/>
  <text fill="rgb(9,33,173)" font-size="25" x="572.0" y="133.0">skirt_front</text>
  <path d="M 861 168 L 981 168 L 1026 114 Q 999.9 103.8 1011 60 L 978 60 Q 921.0 139.47979649225869 864 60 L 831 60 Q 842.1 103.8 816 114 L 861 168 z" fill="rgb(255,217,194)" stroke="black"/>
  <text fill="rgb(9,33,173)" font-size="25" x="896.0" y="103.5">top_back</text>
  <path d="M 1131 165 L 1251 165 L 1296 114 Q 1269.9 103.8 1281 60 L 1248 60 L 1191 132 L 1134 60 L 1101 60 Q 1112.1 103.8 1086 114 L 1131 165 z" fill="rgb(255,217,194)" stroke="black"/>
  <text fill="rgb(9,33,173)" font-size="25" x="1166.0" y="106.33333333333333">top_front</text>
</svg>
