<?xml version="1.0" encoding="utf-8" ?>
<svg xmlns="http://www.w3.org/2000/svg" xmlns:ev="http://www.w3.org/2001/xml-events" xmlns:xlink="http://www.w3.org/1999/xlink" baseProfile="full" height="303.0px" version="1.1" width="1756.0px">
  <defs/>
  <path d="M 60 153 L 162 153 Q 186.0 91.50000000000001 150 72 L 60 60 L 60 153 z" fill="rgb(255,217,194)" stroke="black"/>
  <text fill="rgb(9,33,173)" font-size="25" x="83.0" y="112.5">rbsleeve</text>
  <path d="M 223.0 153.0 L 313.0 141.0 Q 349.0 121.5 325.0 60.0 L 223.0 60.0 L 223.0 153.0 z" fill="rgb(255,217,194)" stroke="black"/>
  <text fill="rgb(9,33,173)" font-size="25" x="246.0" y="106.5">rfsleeve</text>
  <path d="M 386.0 243.0 Q 521.0 188.46459047856442 656.0 243.0 L 593.0 102.0 L 575.0 60.0 L 467.0 60.0 L 449.0 102.0 L 386.0 243.0 z" fill="rgb(255,217,194)" stroke="black"/>
  <text fill="rgb(9,33,173)" font-size="25" x="496.0" y="138.0">skirt_back</text>
  <path d="M 716.0 243.0 Q 851.0 133.89474059125837 986.0 243.0 L 923.0 102.0 L 905.0 60.0 L 797.0 60.0 L 779.0 102.0 L 716.0 243.0 z" fill="rgb(255,217,194)" stroke="black"/>
  <text fill="rgb(9,33,173)" font-size="25" x="826.0" y="138.0">skirt_front</text>
  <path d="M 1058.0 168.0 L 1166.0 168.0 L 1178.0 141.0 Q 1142.0 121.5 1166.0 60.0 L 1139.0 60.0 Q 1112.0 81.74434391893021 1085.0 60.0 L 1058.0 60.0 Q 1082.0 121.49999999999999 1046.0 141.0 L 1058.0 168.0 z" fill="rgb(255,217,194)" stroke="black"/>
  <text fill="rgb(9,33,173)" font-size="25" x="1087.0" y="110.25">top_back</text>
  <path d="M 1250.0 165.0 L 1358.0 165.0 L 1370.0 138.0 Q 1335.2 119.39999999999999 1358.0 60.0 L 1331.0 60.0 L 1304.0 105.0 L 1277.0 60.0 L 1250.0 60.0 Q 1272.8 119.39999999999999 1238.0 138.0 L 1250.0 165.0 z" fill="rgb(255,217,194)" stroke="black"/>
  <text fill="rgb(9,33,173)" font-size="25" x="1279.0" y="108.66666666666667">top_front</text>
  <path d="M 1430.0 153.0 L 1520.0 141.0 Q 1556.0 121.5 1532.0 60.0 L 1430.0 60.0 L 1430.0 153.0 z" fill="rgb(255,217,194)" stroke="black"/>
  <text fill="rgb(9,33,173)" font-size="25" x="1453.0" y="106.5">lbsleeve</text>
  <path d="M 1593.0 153.0 L 1695.0 153.0 Q 1719.0 91.50000000000001 1683.0 72.0 L 1593.0 60.0 L 1593.0 153.0 z" fill="rgb(255,217,194)" stroke="black"/>
  <text fill="rgb(9,33,173)" font-size="25" x="1616.0" y="112.5">lfsleeve</text>
</svg>
