<?xml version="1.0" encoding="utf-8" ?>
<svg xmlns="http://www.w3.org/2000/svg" xmlns:ev="http://www.w3.org/2001/xml-events" xmlns:xlink="http://www.w3.org/1999/xlink" baseProfile="full" height="243px" version="1.1" width="1314.0px">
  <defs/>
  <path d="M 60 183 L 294 183 L 294 60 L 60 60 L 60 183 z" fill="rgb(255,217,194)" stroke="black"/>
  <text fill="rgb(9,33,173)" font-size="25" x="152.0" y="124.5">skirt_back</text>
  <path d="M 354 66 L 444 66 L 444 60 L 354 60 L 354 66 z" fill="rgb(255,217,194)" stroke="black"/>
  <text fill="rgb(9,33,173)" font-size="25" x="374.0" y="66.0">wb_back</text>
  <path d="M 504 66 L 594 66 L 594 60 L 504 60 L 504 66 z" fill="rgb(255,217,194)" stroke="black"/>
  <text fill="rgb(9,33,173)" font-size="25" x="524.0" y="66.0">wb_front</text>
  <path d="M 664.0 183.0 L 898.0 183.0 L 898.0 60.0 L 664.0 60.0 L 664.0 183.0 z" fill="rgb(255,217,194)" stroke="black"/>
  <text fill="rgb(9,33,173)" font-size="25" x="756.0" y="124.5">skirt_front</text>
  <path d="M 958.0 144.0 L 1072.0 144.0 L 1072.0 141.0 Q 1036.8999999999999 120.3 1063.0 60.0 L 1045.0 60.0 Q 1015.0 105.54565670607082 985.0 60.0 L 967.0 60.0 Q 993.1 120.29999999999998 958.0 141.0 L 958.0 144.0 z" fill="rgb(255,217,194)" stroke="black"/>
  <text fill="rgb(9,33,173)" font-size="25" x="990.0" y="104.25">top_back</text>
  <path d="M 1132.0 144.0 L 1246.0 144.0 L 1246.0 141.0 Q 1210.8999999999999 120.3 1237.0 60.0 L 1219.0 60.0 L 1189.0 114.0 L 1159.0 60.0 L 1141.0 60.0 Q 1167.1000000000001 120.29999999999998 1132.0 141.0 L 1132.0 144.0 z" fill="rgb(255,217,194)" stroke="black"/>
  <text fill="rgb(9,33,173)" font-size="25" x="1164.0" y="105.66666666666667">top_front</text>
</svg>
