<?xml version="1.0" encoding="utf-8" ?>
<svg xmlns="http://www.w3.org/2000/svg" xmlns:ev="http://www.w3.org/2001/xml-events" xmlns:xlink="http://www.w3.org/1999/xlink" baseProfile="full" height="315px" version="1.1" width="1201.5px">
  <defs/>
  <path d="M 60 255 L 231 255 L 231 114 L 213 60 L 153 60 Q 168.6 106.8 141 120 L 60 255 z" fill="rgb(255,217,194)" stroke="black"/>
  <text fill="rgb(9,33,173)" font-size="25" x="146.5" y="147.0">front_right</text>
  <path d="M 316.5 189.0 L 382.5 195.0 Q 432.9 160.8 370.5 105.0 L 352.5 114.0 L 334.5 60.0 L 316.5 189.0 z" fill="rgb(255,217,194)" stroke="black"/>
  <text fill="rgb(9,33,173)" font-size="25" x="326.3" y="135.6">Rhood</text>
  <path d="M 442.5 255.0 L 784.5 255.0 L 703.5 120.0 Q 675.9 106.8 691.5 60.0 L 631.5 60.0 L 613.5 69.0 L 595.5 60.0 L 535.5 60.0 Q 551.1 106.8 523.5 120.0 L 442.5 255.0 z" fill="rgb(255,217,194)" stroke="black"/>
  <text fill="rgb(9,33,173)" font-size="25" x="588.5" y="120.66666666666667">back</text>
  <path d="M 862.5 195.0 L 880.5 141.0 L 898.5 150.0 Q 960.9 94.2 910.5 60.0 L 844.5 66.0 L 862.5 195.0 z" fill="rgb(255,217,194)" stroke="black"/>
  <text fill="rgb(9,33,173)" font-size="25" x="854.3" y="125.4">Lhood</text>
  <path d="M 970.5 255.0 L 1141.5 255.0 L 1060.5 120.0 Q 1032.9 106.8 1048.5 60.0 L 988.5 60.0 L 970.5 114.0 L 970.5 255.0 z" fill="rgb(255,217,194)" stroke="black"/>
  <text fill="rgb(9,33,173)" font-size="25" x="1005.0" y="147.0">front_left</text>
</svg>
