<?xml version="1.0" encoding="utf-8" ?>
<svg xmlns="http://www.w3.org/2000/svg" xmlns:ev="http://www.w3.org/2001/xml-events" xmlns:xlink="http://www.w3.org/1999/xlink" baseProfile="full" height="402px" version="1.1" width="679.0px">
  <defs/>
  <path d="M 60 342 L 153 342 L 153 78 L 126 60 L 87 60 Q 123.0 142.5 75 171 L 60 342 z" fill="rgb(255,217,194)" stroke="black"/>
  <text fill="rgb(9,33,173)" font-size="25" x="84.0" y="178.5">front_right</text>
  <path d="M 254.0 342.0 L 440.0 342.0 L 425.0 174.0 Q 375.79999999999995 144.60000000000002 413.0 60.0 L 374.0 60.0 Q 347.0 130.3670077635433 320.0 60.0 L 281.0 60.0 Q 318.20000000000005 144.60000000000002 269.0 174.0 L 254.0 342.0 z" fill="rgb(255,217,194)" stroke="black"/>
  <text fill="rgb(9,33,173)" font-size="25" x="322.0" y="162.0">back</text>
  <path d="M 500.0 342.0 L 593.0 342.0 L 578.0 171.0 Q 530.0 142.5 566.0 60.0 L 527.0 60.0 L 500.0 78.0 L 500.0 342.0 z" fill="rgb(255,217,194)" stroke="black"/>
  <text fill="rgb(9,33,173)" font-size="25" x="519.0" y="178.5">front_left</text>
</svg>
