<?xml version="1.0" encoding="utf-8" ?>
<svg xmlns="http://www.w3.org/2000/svg" xmlns:ev="http://www.w3.org/2001/xml-events" xmlns:xlink="http://www.w3.org/1999/xlink" baseProfile="full" height="258.0px" version="1.1" width="1022.5px">
  <defs/>
  <path d="M 60 195 L 252 195 L 252 81 L 198 60 L 171 60 Q 206.1 145.8 156 174 L 60 195 z" fill="rgb(255,217,194)" stroke="black"/>
  <text fill="rgb(9,33,173)" font-size="25" x="156.5" y="130.5">front_right</text>
  <path d="M 326.5 198.0 L 710.5 198.0 L 614.5 174.0 Q 564.4 145.8 599.5 60.0 L 572.5 60.0 Q 518.5 157.54098407176795 464.5 60.0 L 437.5 60.0 Q 472.6 145.8 422.5 174.0 L 326.5 198.0 z" fill="rgb(255,217,194)" stroke="black"/>
  <text fill="rgb(9,33,173)" font-size="25" x="493.5" y="126.0">back</text>
  <path d="M 770.5 195.0 L 962.5 195.0 L 866.5 174.0 Q 816.4 145.8 851.5 60.0 L 824.5 60.0 L 770.5 81.0 L 770.5 195.0 z" fill="rgb(255,217,194)" stroke="black"/>
  <text fill="rgb(9,33,173)" font-size="25" x="816.0" y="130.5">front_left</text>
</svg>
