<?xml version="1.0" encoding="utf-8" ?>
<svg xmlns="http://www.w3.org/2000/svg" xmlns:ev="http://www.w3.org/2001/xml-events" xmlns:xlink="http://www.w3.org/1999/xlink" baseProfile="full" height="435px" version="1.1" width="1488px">
  <defs/>
  <path d="M 60 222 L 180 222 Q 213.29999999999998 149.1 171 123 L 60 60 L 60 222 z" fill="rgb(255,217,194)" stroke="black"/>
  <text fill="rgb(9,33,173)" font-size="25" x="92.75" y="159.75">rbsleeve</text>
  <path d="M 240 222 L 351 159 Q 393.3 132.9 360 60 L 240 60 L 240 222 z" fill="rgb(255,217,194)" stroke="black"/>
  <text fill="rgb(9,33,173)" font-size="25" x="272.75" y="128.25">rfsleeve</text>
  <path d="M 420 375 L 714 375 L 630 159 Q 586.8 134.10000000000002 618 60 L 591 60 Q 567.0 119.54585907941139 543 60 L 516 60 Q 547.2 134.10000000000002 504 159 L 420 375 z" fill="rgb(255,217,194)" stroke="black"/>
  <text fill="rgb(9,33,173)" font-size="25" x="542.0" y="166.5">back</text>
  <path d="M 774 375 L 1068 375 L 984 159 Q 940.8 134.10000000000002 972 60 L 945 60 L 921 159 L 897 60 L 870 60 Q 901.2 134.10000000000002 858 159 L 774 375 z" fill="rgb(255,217,194)" stroke="black"/>
  <text fill="rgb(9,33,173)" font-size="25" x="896.0" y="166.0">front</text>
  <path d="M 1128 222 L 1239 159 Q 1281.3 132.9 1248 60 L 1128 60 L 1128 222 z" fill="rgb(255,217,194)" stroke="black"/>
  <text fill="rgb(9,33,173)" font-size="25" x="1160.75" y="128.25">lbsleeve</text>
  <path d="M 1308 222 L 1428 222 Q 1461.3 149.1 1419 123 L 1308 60 L 1308 222 z" fill="rgb(255,217,194)" stroke="black"/>
  <text fill="rgb(9,33,173)" font-size="25" x="1340.75" y="159.75">lfsleeve</text>
</svg>
