<?xml version="1.0" encoding="utf-8" ?>
<svg xmlns="http://www.w3.org/2000/svg" xmlns:ev="http://www.w3.org/2001/xml-events" xmlns:xlink="http://www.w3.org/1999/xlink" baseProfile="full" height="345.0px" version="1.1" width="1690.0px">
  <defs/>
  <path d="M 60 189 L 186 189 Q 210.3 122.1 171 102 L 60 60 L 60 189 z" fill="rgb(255,217,194)" stroke="black"/>
  <text fill="rgb(9,33,173)" font-size="25" x="94.25" y="138.0">rbsleeve</text>
  <path d="M 246 189 L 357 147 Q 396.3 126.9 372 60 L 246 60 L 246 189 z" fill="rgb(255,217,194)" stroke="black"/>
  <text fill="rgb(9,33,173)" font-size="25" x="280.25" y="117.0">rfsleeve</text>
  <path d="M 453 282 L 516 282 L 516 87 L 474 60 L 447 60 Q 471.3 126.9 432 147 L 453 282 z" fill="rgb(255,217,194)" stroke="black"/>
  <text fill="rgb(9,33,173)" font-size="25" x="448.0" y="156.0">front_right</text>
  <path d="M 627.0 198.0 L 657.0 192.0 Q 739.8 186.60000000000002 705.0 78.0 L 663.0 87.0 L 618.0 60.0 L 627.0 198.0 z" fill="rgb(255,217,194)" stroke="black"/>
  <text fill="rgb(9,33,173)" font-size="25" x="629.0" y="126.0">Rhood</text>
  <path d="M 786.0 285.0 L 912.0 285.0 L 933.0 147.0 Q 893.7 126.9 918.0 60.0 L 891.0 60.0 L 849.0 69.0 L 807.0 60.0 L 780.0 60.0 Q 804.3 126.9 765.0 147.0 L 786.0 285.0 z" fill="rgb(255,217,194)" stroke="black"/>
  <text fill="rgb(9,33,173)" font-size="25" x="824.0" y="133.33333333333334">back</text>
  <path d="M 993.0 198.0 L 1038.0 171.0 L 1080.0 180.0 Q 1114.8000000000002 71.4 1032.0 66.0 L 1002.0 60.0 L 993.0 198.0 z" fill="rgb(255,217,194)" stroke="black"/>
  <text fill="rgb(9,33,173)" font-size="25" x="1004.0" y="138.0">Lhood</text>
  <path d="M 1140.0 282.0 L 1203.0 282.0 L 1224.0 147.0 Q 1184.7 126.9 1209.0 60.0 L 1182.0 60.0 L 1140.0 87.0 L 1140.0 282.0 z" fill="rgb(255,217,194)" stroke="black"/>
  <text fill="rgb(9,33,173)" font-size="25" x="1158.0" y="156.0">front_left</text>
  <path d="M 1318.0 189.0 L 1429.0 147.0 Q 1468.3 126.9 1444.0 60.0 L 1318.0 60.0 L 1318.0 189.0 z" fill="rgb(255,217,194)" stroke="black"/>
  <text fill="rgb(9,33,173)" font-size="25" x="1352.25" y="117.0">lbsleeve</text>
  <path d="M 1504.0 189.0 L 1630.0 189.0 Q 1654.3 122.1 1615.0 102.0 L 1504.0 60.0 L 1504.0 189.0 z" fill="rgb(255,217,194)" stroke="black"/>
  <text fill="rgb(9,33,173)" font-size="25" x="1538.25" y="138.0">lfsleeve</text>
</svg>
