<?xml version="1.0" encoding="utf-8" ?>
<svg xmlns="http://www.w3.org/2000/svg" xmlns:ev="http://www.w3.org/2001/xml-events" xmlns:xlink="http://www.w3.org/1999/xlink" baseProfile="full" height="315px" version="1.1" width="1498.0px">
  <defs/>
  <path d="M 60 255 L 189 255 L 171 60 L 90 60 Q 95.1 123.75 60 129 Q 72.6 135.3 60 255 z" fill="rgb(255,217,194)" stroke="black"/>
  <text fill="rgb(9,33,173)" font-size="25" x="89.0" y="154.8">Rback</text>
  <path d="M 249 255 L 378 255 Q 365.4 135.3 378 129 Q 346.35 122.25 348 60 L 267 60 L 249 255 z" fill="rgb(255,217,194)" stroke="black"/>
  <text fill="rgb(9,33,173)" font-size="25" x="299.0" y="154.8">Rfront</text>
  <path d="M 438 78 L 477 78 L 516 78 L 516 60 L 438 60 L 438 78 z" fill="rgb(255,217,194)" stroke="black"/>
  <text fill="rgb(9,33,173)" font-size="25" x="452.0" y="73.8">wb_back</text>
  <path d="M 582.0 78.0 L 621.0 78.0 L 660.0 78.0 L 660.0 60.0 L 582.0 60.0 L 582.0 78.0 z" fill="rgb(255,217,194)" stroke="black"/>
  <text fill="rgb(9,33,173)" font-size="25" x="596.0" y="73.8">wb_front</text>
  <path d="M 736.0 138.0 L 868.0 138.0 L 868.0 117.0 Q 842.5 103.5 859.0 60.0 L 835.0 60.0 Q 802.0 86.18795203895019 769.0 60.0 L 745.0 60.0 Q 761.5 103.5 736.0 117.0 L 736.0 138.0 z" fill="rgb(255,217,194)" stroke="black"/>
  <text fill="rgb(9,33,173)" font-size="25" x="777.0" y="96.75">top_back</text>
  <path d="M 928.0 138.0 L 1060.0 138.0 L 1060.0 117.0 Q 1034.5 103.5 1051.0 60.0 L 1027.0 60.0 L 994.0 117.0 L 961.0 60.0 L 937.0 60.0 Q 953.5 103.5 928.0 117.0 L 928.0 138.0 z" fill="rgb(255,217,194)" stroke="black"/>
  <text fill="rgb(9,33,173)" font-size="25" x="969.0" y="99.33333333333333">top_front</text>
  <path d="M 1120.0 255.0 L 1249.0 255.0 Q 1236.4 135.3 1249.0 129.0 Q 1213.9 123.75 1219.0 60.0 L 1138.0 60.0 L 1120.0 255.0 z" fill="rgb(255,217,194)" stroke="black"/>
  <text fill="rgb(9,33,173)" font-size="25" x="1170.0" y="154.8">Lback</text>
  <path d="M 1309.0 255.0 L 1438.0 255.0 L 1420.0 60.0 L 1339.0 60.0 Q 1340.65 122.25 1309.0 129.0 Q 1321.6 135.3 1309.0 255.0 z" fill="rgb(255,217,194)" stroke="black"/>
  <text fill="rgb(9,33,173)" font-size="25" x="1338.0" y="154.8">Lfront</text>
</svg>
