<?xml version="1.0" encoding="utf-8" ?>
<svg xmlns="http://www.w3.org/2000/svg" xmlns:ev="http://www.w3.org/2001/xml-events" xmlns:xlink="http://www.w3.org/1999/xlink" baseProfile="full" height="426.0px" version="1.1" width="1481.0px">
  <defs/>
  <path d="M 60 120 L 126 120 Q 141.6 73.2 114 60 L 60 60 L 60 120 z" fill="rgb(255,217,194)" stroke="black"/>
  <text fill="rgb(9,33,173)" font-size="25" x="65.0" y="93.0">rbsleeve</text>
  <path d="M 205.0 120.0 L 259.0 120.0 Q 286.6 106.8 271.0 60.0 L 205.0 60.0 L 205.0 120.0 z" fill="rgb(255,217,194)" stroke="black"/>
  <text fill="rgb(9,33,173)" font-size="25" x="210.0" y="93.0">rfsleeve</text>
  <path d="M 350.0 366.0 L 437.0 366.0 L 437.0 114.0 L 413.0 60.0 L 371.0 60.0 Q 386.6 106.8 359.0 120.0 L 350.0 366.0 z" fill="rgb(255,217,194)" stroke="black"/>
  <text fill="rgb(9,33,173)" font-size="25" x="369.5" y="184.0">front_right</text>
  <path d="M 539.5 219.0 L 575.5 216.0 Q 647.5 198.0 599.5 108.0 L 575.5 117.0 L 548.5 60.0 L 539.5 219.0 z" fill="rgb(255,217,194)" stroke="black"/>
  <text fill="rgb(9,33,173)" font-size="25" x="542.7" y="147.0">Rhood</text>
  <path d="M 659.5 366.0 L 833.5 366.0 L 824.5 120.0 Q 796.9 106.8 812.5 60.0 L 770.5 60.0 L 746.5 69.0 L 722.5 60.0 L 680.5 60.0 Q 696.1 106.8 668.5 120.0 L 659.5 366.0 z" fill="rgb(255,217,194)" stroke="black"/>
  <text fill="rgb(9,33,173)" font-size="25" x="721.5" y="145.33333333333334">back</text>
  <path d="M 902.5 219.0 L 929.5 162.0 L 953.5 171.0 Q 1001.5 81.0 929.5 63.0 L 893.5 60.0 L 902.5 219.0 z" fill="rgb(255,217,194)" stroke="black"/>
  <text fill="rgb(9,33,173)" font-size="25" x="896.7" y="138.0">Lhood</text>
  <path d="M 1013.5 366.0 L 1100.5 366.0 L 1091.5 120.0 Q 1063.9 106.8 1079.5 60.0 L 1037.5 60.0 L 1013.5 114.0 L 1013.5 366.0 z" fill="rgb(255,217,194)" stroke="black"/>
  <text fill="rgb(9,33,173)" font-size="25" x="1031.0" y="184.0">front_left</text>
  <path d="M 1191.0 120.0 L 1245.0 120.0 Q 1272.6 106.8 1257.0 60.0 L 1191.0 60.0 L 1191.0 120.0 z" fill="rgb(255,217,194)" stroke="black"/>
  <text fill="rgb(9,33,173)" font-size="25" x="1196.0" y="93.0">lbsleeve</text>
  <path d="M 1336.0 120.0 L 1402.0 120.0 Q 1417.6 73.2 1390.0 60.0 L 1336.0 60.0 L 1336.0 120.0 z" fill="rgb(255,217,194)" stroke="black"/>
  <text fill="rgb(9,33,173)" font-size="25" x="1341.0" y="93.0">lfsleeve</text>
</svg>
