<?xml version="1.0" encoding="utf-8" ?>
<svg xmlns="http://www.w3.org/2000/svg" xmlns:ev="http://www.w3.org/2001/xml-events" xmlns:xlink="http://www.w3.org/1999/xlink" baseProfile="full" height="432.0px" version="1.1" width="1294.0px">
  <defs/>
  <path d="M 60 183 L 96 183 Q 136.8 92.10000000000001 84 60 L 60 135 L 60 183 z" fill="rgb(255,217,194)" stroke="black"/>
  <text fill="rgb(9,33,173)" font-size="25" x="50.0" y="143.25">rbsleeve</text>
  <path d="M 190.0 108.0 L 214.0 183.0 Q 266.8 150.9 226.0 60.0 L 190.0 60.0 L 190.0 108.0 z" fill="rgb(255,217,194)" stroke="black"/>
  <text fill="rgb(9,33,173)" font-size="25" x="180.0" y="105.75">rfsleeve</text>
  <path d="M 320.0 372.0 L 488.0 372.0 L 476.0 180.0 Q 424.4 148.8 464.0 60.0 L 437.0 60.0 L 404.0 69.0 L 371.0 60.0 L 344.0 60.0 Q 383.6 148.8 332.0 180.0 L 320.0 372.0 z" fill="rgb(255,217,194)" stroke="black"/>
  <text fill="rgb(9,33,173)" font-size="25" x="379.0" y="160.0">back</text>
  <path d="M 548.0 369.0 L 716.0 369.0 L 704.0 180.0 Q 652.4 148.8 692.0 60.0 L 665.0 60.0 L 632.0 90.0 L 599.0 60.0 L 572.0 60.0 Q 611.6 148.8 560.0 180.0 L 548.0 369.0 z" fill="rgb(255,217,194)" stroke="black"/>
  <text fill="rgb(9,33,173)" font-size="25" x="607.0" y="161.66666666666666">front</text>
  <path d="M 776.0 192.0 L 794.0 192.0 Q 874.0999999999999 190.2 845.0 84.0 L 812.0 93.0 L 779.0 60.0 L 776.0 192.0 z" fill="rgb(255,217,194)" stroke="black"/>
  <text fill="rgb(9,33,173)" font-size="25" x="776.2" y="127.2">Rhood</text>
  <path d="M 908.0 192.0 L 941.0 159.0 L 974.0 168.0 Q 1003.0999999999999 61.80000000000001 923.0 60.0 L 905.0 60.0 L 908.0 192.0 z" fill="rgb(255,217,194)" stroke="black"/>
  <text fill="rgb(9,33,173)" font-size="25" x="905.2" y="130.8">Lhood</text>
  <path d="M 1034.0 108.0 L 1058.0 183.0 Q 1110.8 150.9 1070.0 60.0 L 1034.0 60.0 L 1034.0 108.0 z" fill="rgb(255,217,194)" stroke="black"/>
  <text fill="rgb(9,33,173)" font-size="25" x="1024.0" y="105.75">lbsleeve</text>
  <path d="M 1164.0 183.0 L 1200.0 183.0 Q 1240.8 92.10000000000001 1188.0 60.0 L 1164.0 135.0 L 1164.0 183.0 z" fill="rgb(255,217,194)" stroke="black"/>
  <text fill="rgb(9,33,173)" font-size="25" x="1154.0" y="143.25">lfsleeve</text>
</svg>
