<?xml version="1.0" encoding="utf-8" ?>
<svg xmlns="http://www.w3.org/2000/svg" xmlns:ev="http://www.w3.org/2001/xml-events" xmlns:xlink="http://www.w3.org/1999/xlink" baseProfile="full" height="414.0px" version="1.1" width="1669.0px">
  <defs/>
  <path d="M 60 156 L 81 156 Q 95.10000000000001 116.70000000000002 72 105 L 60 60 L 60 156 z" fill="rgb(255,217,194)" stroke="black"/>
  <text fill="rgb(9,33,173)" font-size="25" x="43.25" y="122.25">rbsleeve</text>
  <path d="M 183.25 156.0 L 195.25 111.0 Q 218.35 99.3 204.25 60.0 L 183.25 60.0 L 183.25 156.0 z" fill="rgb(255,217,194)" stroke="black"/>
  <text fill="rgb(9,33,173)" font-size="25" x="166.5" y="99.75">rfsleeve</text>
  <path d="M 306.5 354.0 L 399.5 354.0 Q 426.95 104.85 414.5 60.0 L 336.5 60.0 Q 351.2 141.75 306.5 153.0 Q 326.6 163.05 306.5 354.0 z" fill="rgb(255,217,194)" stroke="black"/>
  <text fill="rgb(9,33,173)" font-size="25" x="327.7" y="199.2">Rback</text>
  <path d="M 489.5 354.0 L 582.5 354.0 Q 562.4 163.05 582.5 153.0 Q 542.45 140.25 552.5 60.0 L 474.5 60.0 Q 462.05 104.85 489.5 354.0 z" fill="rgb(255,217,194)" stroke="black"/>
  <text fill="rgb(9,33,173)" font-size="25" x="511.29999999999995" y="199.2">Rfront</text>
  <path d="M 642.5 168.0 L 723.5 168.0 L 804.5 168.0 L 786.5 114.0 Q 762.1999999999999 101.39999999999999 777.5 60.0 L 759.5 60.0 Q 723.5 97.8428258453712 687.5 60.0 L 669.5 60.0 Q 684.8000000000001 101.39999999999999 660.5 114.0 L 642.5 168.0 z" fill="rgb(255,217,194)" stroke="black"/>
  <text fill="rgb(9,33,173)" font-size="25" x="698.5" y="111.0">up_back</text>
  <path d="M 864.5 165.0 L 945.5 165.0 L 1026.5 165.0 L 1008.5 114.0 Q 984.1999999999999 101.39999999999999 999.5 60.0 L 981.5 60.0 L 945.5 78.0 L 909.5 60.0 L 891.5 60.0 Q 906.8000000000001 101.39999999999999 882.5 114.0 L 864.5 165.0 z" fill="rgb(255,217,194)" stroke="black"/>
  <text fill="rgb(9,33,173)" font-size="25" x="920.5" y="107.1">up_front</text>
  <path d="M 1101.5 354.0 L 1194.5 354.0 Q 1174.4 163.05 1194.5 153.0 Q 1149.8 141.75 1164.5 60.0 L 1086.5 60.0 Q 1074.05 104.85 1101.5 354.0 z" fill="rgb(255,217,194)" stroke="black"/>
  <text fill="rgb(9,33,173)" font-size="25" x="1123.3" y="199.2">Lback</text>
  <path d="M 1254.5 354.0 L 1347.5 354.0 Q 1374.95 104.85 1362.5 60.0 L 1284.5 60.0 Q 1294.55 140.25 1254.5 153.0 Q 1274.6 163.05 1254.5 354.0 z" fill="rgb(255,217,194)" stroke="black"/>
  <text fill="rgb(9,33,173)" font-size="25" x="1275.7" y="199.2">Lfront</text>
  <path d="M 1422.5 156.0 L 1434.5 111.0 Q 1457.6000000000001 99.3 1443.5 60.0 L 1422.5 60.0 L 1422.5 156.0 z" fill="rgb(255,217,194)" stroke="black"/>
  <text fill="rgb(9,33,173)" font-size="25" x="1405.75" y="99.75">lbsleeve</text>
  <path d="M 1545.75 156.0 L 1566.75 156.0 Q 1580.8500000000001 116.70000000000002 1557.75 105.0 L 1545.75 60.0 L 1545.75 156.0 z" fill="rgb(255,217,194)" stroke="black"/>
  <text fill="rgb(9,33,173)" font-size="25" x="1529.0" y="122.25">lfsleeve</text>
</svg>
