<?xml version="1.0" encoding="utf-8" ?>
<svg xmlns="http://www.w3.org/2000/svg" xmlns:ev="http://www.w3.org/2001/xml-events" xmlns:xlink="http://www.w3.org/1999/xlink" baseProfile="full" height="315px" version="1.1" width="1248px">
  <defs/>
  <path d="M 60 177 L 189 177 Q 227.4 90.30000000000001 177 60 L 60 72 L 60 177 z" fill="rgb(255,217,194)" stroke="black"/>
  <text fill="rgb(9,33,173)" font-size="25" x="96.5" y="124.5">rbsleeve</text>
  <path d="M 249 165 L 366 177 Q 416.40000000000003 146.70000000000002 378 60 L 249 60 L 249 165 z" fill="rgb(255,217,194)" stroke="black"/>
  <text fill="rgb(9,33,173)" font-size="25" x="285.5" y="118.5">rfsleeve</text>
  <path d="M 444 255 L 588 255 L 594 174 Q 544.8 144.60000000000002 582 60 L 549 60 Q 516.0 67.12384878009476 483 60 L 450 60 Q 487.20000000000005 144.60000000000002 438 174 L 444 255 z" fill="rgb(255,217,194)" stroke="black"/>
  <text fill="rgb(9,33,173)" font-size="25" x="491.0" y="140.25">back</text>
  <path d="M 660 252 L 804 252 L 810 174 Q 760.8 144.60000000000002 798 60 L 765 60 L 732 72 L 699 60 L 666 60 Q 703.2 144.60000000000002 654 174 L 660 252 z" fill="rgb(255,217,194)" stroke="black"/>
  <text fill="rgb(9,33,173)" font-size="25" x="707.0" y="132.33333333333334">front</text>
  <path d="M 870 165 L 987 177 Q 1037.4 146.70000000000002 999 60 L 870 60 L 870 165 z" fill="rgb(255,217,194)" stroke="black"/>
  <text fill="rgb(9,33,173)" font-size="25" x="906.5" y="118.5">lbsleeve</text>
  <path d="M 1059 177 L 1188 177 Q 1226.3999999999999 90.30000000000001 1176 60 L 1059 72 L 1059 177 z" fill="rgb(255,217,194)" stroke="black"/>
  <text fill="rgb(9,33,173)" font-size="25" x="1095.5" y="124.5">lfsleeve</text>
</svg>
