<?xml version="1.0" encoding="utf-8" ?>
<svg xmlns="http://www.w3.org/2000/svg" xmlns:ev="http://www.w3.org/2001/xml-events" xmlns:xlink="http://www.w3.org/1999/xlink" baseProfile="full" height="393.0px" version="1.1" width="1657.0px">
  <defs/>
  <path d="M 60 129 L 99 129 Q 120.30000000000001 77.10000000000001 90 60 L 60 60 L 60 129 z" fill="rgb(255,217,194)" stroke="black"/>
  <text fill="rgb(9,33,173)" font-size="25" x="52.25" y="97.5">rbsleeve</text>
  <path d="M 192.25 129.0 L 222.25 129.0 Q 252.54999999999998 111.89999999999999 231.25 60.0 L 192.25 60.0 L 192.25 129.0 z" fill="rgb(255,217,194)" stroke="black"/>
  <text fill="rgb(9,33,173)" font-size="25" x="184.5" y="97.5">rfsleeve</text>
  <path d="M 324.5 333.0 L 423.5 333.0 Q 439.7 101.10000000000002 426.5 60.0 L 354.5 60.0 Q 369.2 141.75 324.5 153.0 Q 342.5 162.0 324.5 333.0 z" fill="rgb(255,217,194)" stroke="black"/>
  <text fill="rgb(9,33,173)" font-size="25" x="345.7" y="190.8">Rback</text>
  <path d="M 489.5 333.0 L 588.5 333.0 Q 570.5 162.0 588.5 153.0 Q 548.45 140.25 558.5 60.0 L 486.5 60.0 Q 473.3 101.1 489.5 333.0 z" fill="rgb(255,217,194)" stroke="black"/>
  <text fill="rgb(9,33,173)" font-size="25" x="517.3" y="190.8">Rfront</text>
  <path d="M 648.5 168.0 L 723.5 168.0 L 798.5 168.0 L 783.5 129.0 Q 753.1999999999999 111.89999999999999 774.5 60.0 L 744.5 60.0 Q 723.5 99.25399057135846 702.5 60.0 L 672.5 60.0 Q 693.8000000000001 111.89999999999999 663.5 129.0 L 648.5 168.0 z" fill="rgb(255,217,194)" stroke="black"/>
  <text fill="rgb(9,33,173)" font-size="25" x="698.5" y="114.33333333333333">up_back</text>
  <path d="M 858.5 165.0 L 933.5 165.0 L 1008.5 165.0 L 993.5 129.0 Q 963.1999999999999 111.89999999999999 984.5 60.0 L 954.5 60.0 L 933.5 117.0 L 912.5 60.0 L 882.5 60.0 Q 903.8000000000001 111.89999999999999 873.5 129.0 L 858.5 165.0 z" fill="rgb(255,217,194)" stroke="black"/>
  <text fill="rgb(9,33,173)" font-size="25" x="908.5" y="114.0">up_front</text>
  <path d="M 1071.5 333.0 L 1170.5 333.0 Q 1152.5 162.0 1170.5 153.0 Q 1125.8 141.75 1140.5 60.0 L 1068.5 60.0 Q 1055.3 101.1 1071.5 333.0 z" fill="rgb(255,217,194)" stroke="black"/>
  <text fill="rgb(9,33,173)" font-size="25" x="1099.3" y="190.8">Lback</text>
  <path d="M 1230.5 333.0 L 1329.5 333.0 Q 1345.7 101.10000000000002 1332.5 60.0 L 1260.5 60.0 Q 1270.55 140.25 1230.5 153.0 Q 1248.5 162.0 1230.5 333.0 z" fill="rgb(255,217,194)" stroke="black"/>
  <text fill="rgb(9,33,173)" font-size="25" x="1251.7" y="190.8">Lfront</text>
  <path d="M 1392.5 129.0 L 1422.5 129.0 Q 1452.8 111.89999999999999 1431.5 60.0 L 1392.5 60.0 L 1392.5 129.0 z" fill="rgb(255,217,194)" stroke="black"/>
  <text fill="rgb(9,33,173)" font-size="25" x="1384.75" y="97.5">lbsleeve</text>
  <path d="M 1524.75 129.0 L 1563.75 129.0 Q 1585.05 77.10000000000001 1554.75 60.0 L 1524.75 60.0 L 1524.75 129.0 z" fill="rgb(255,217,194)" stroke="black"/>
  <text fill="rgb(9,33,173)" font-size="25" x="1517.0" y="97.5">lfsleeve</text>
</svg>
