<?xml version="1.0" encoding="utf-8" ?>
<svg xmlns="http://www.w3.org/2000/svg" xmlns:ev="http://www.w3.org/2001/xml-events" xmlns:xlink="http://www.w3.org/1999/xlink" baseProfile="full" height="315px" version="1.1" width="1450.0px">
  <defs/>
  <path d="M 60 255 L 120 255 L 171 60 L 90 60 Q 96.3 126.0 60 132 Q 72.3 138.15 60 255 z" fill="rgb(255,217,194)" stroke="black"/>
  <text fill="rgb(9,33,173)" font-size="25" x="75.2" y="155.4">Rback</text>
  <path d="M 282 255 L 342 255 Q 329.7 138.15 342 132 Q 309.3 124.5 312 60 L 231 60 L 282 255 z" fill="rgb(255,217,194)" stroke="black"/>
  <text fill="rgb(9,33,173)" font-size="25" x="276.8" y="155.4">Rfront</text>
  <path d="M 402 69 L 441 69 L 480 69 L 480 60 L 402 60 L 402 69 z" fill="rgb(255,217,194)" stroke="black"/>
  <text fill="rgb(9,33,173)" font-size="25" x="416.0" y="68.4">wb_back</text>
  <path d="M 546.0 69.0 L 585.0 69.0 L 624.0 69.0 L 624.0 60.0 L 546.0 60.0 L 546.0 69.0 z" fill="rgb(255,217,194)" stroke="black"/>
  <text fill="rgb(9,33,173)" font-size="25" x="560.0" y="68.4">wb_front</text>
  <path d="M 700.0 153.0 L 844.0 153.0 L 844.0 114.0 Q 818.8 102.6 832.0 60.0 L 787.0 60.0 Q 772.0 81.84269043473081 757.0 60.0 L 712.0 60.0 Q 725.2 102.6 700.0 114.0 L 700.0 153.0 z" fill="rgb(255,217,194)" stroke="black"/>
  <text fill="rgb(9,33,173)" font-size="25" x="747.0" y="99.75">top_back</text>
  <path d="M 904.0 153.0 L 1048.0 153.0 L 1048.0 114.0 Q 1022.8000000000001 102.6 1036.0 60.0 L 991.0 60.0 L 976.0 75.0 L 961.0 60.0 L 916.0 60.0 Q 929.2 102.6 904.0 114.0 L 904.0 153.0 z" fill="rgb(255,217,194)" stroke="black"/>
  <text fill="rgb(9,33,173)" font-size="25" x="951.0" y="97.33333333333333">top_front</text>
  <path d="M 1159.0 255.0 L 1219.0 255.0 Q 1206.7 138.15 1219.0 132.0 Q 1182.7 126.0 1189.0 60.0 L 1108.0 60.0 L 1159.0 255.0 z" fill="rgb(255,217,194)" stroke="black"/>
  <text fill="rgb(9,33,173)" font-size="25" x="1153.8" y="155.4">Lback</text>
  <path d="M 1279.0 255.0 L 1339.0 255.0 L 1390.0 60.0 L 1309.0 60.0 Q 1311.7 124.5 1279.0 132.0 Q 1291.3 138.15 1279.0 255.0 z" fill="rgb(255,217,194)" stroke="black"/>
  <text fill="rgb(9,33,173)" font-size="25" x="1294.2" y="155.4">Lfront</text>
</svg>
