<?xml version="1.0" encoding="utf-8" ?>
<svg xmlns="http://www.w3.org/2000/svg" xmlns:ev="http://www.w3.org/2001/xml-events" xmlns:xlink="http://www.w3.org/1999/xlink" baseProfile="full" height="390.0px" version="1.1" width="1636.0px">
  <defs/>
  <path d="M 60 201 L 90 201 Q 114.0 139.5 78 120 L 60 60 L 60 201 z" fill="rgb(255,217,194)" stroke="black"/>
  <text fill="rgb(9,33,173)" font-size="25" x="47.0" y="148.5">rbsleeve</text>
  <path d="M 187.0 201.0 L 205.0 141.0 Q 241.0 121.5 217.0 60.0 L 187.0 60.0 L 187.0 201.0 z" fill="rgb(255,217,194)" stroke="black"/>
  <text fill="rgb(9,33,173)" font-size="25" x="174.0" y="118.5">rfsleeve</text>
  <path d="M 314.0 330.0 L 383.0 330.0 Q 422.0 102.0 413.0 60.0 L 344.0 60.0 Q 358.7 141.75 314.0 153.0 Q 331.7 161.85 314.0 330.0 z" fill="rgb(255,217,194)" stroke="black"/>
  <text fill="rgb(9,33,173)" font-size="25" x="328.6" y="189.6">Rback</text>
  <path d="M 503.0 330.0 L 572.0 330.0 Q 554.3 161.85 572.0 153.0 Q 531.95 140.25 542.0 60.0 L 473.0 60.0 Q 464.0 102.0 503.0 330.0 z" fill="rgb(255,217,194)" stroke="black"/>
  <text fill="rgb(9,33,173)" font-size="25" x="507.4" y="189.6">Rfront</text>
  <path d="M 641.0 168.0 L 710.0 168.0 L 779.0 168.0 L 788.0 141.0 Q 752.0 121.5 776.0 60.0 L 737.0 60.0 Q 710.0 125.58614214068986 683.0 60.0 L 644.0 60.0 Q 668.0 121.49999999999999 632.0 141.0 L 641.0 168.0 z" fill="rgb(255,217,194)" stroke="black"/>
  <text fill="rgb(9,33,173)" font-size="25" x="685.0" y="117.0">up_back</text>
  <path d="M 857.0 165.0 L 926.0 165.0 L 995.0 165.0 L 1004.0 141.0 Q 968.0 121.5 992.0 60.0 L 953.0 60.0 L 926.0 96.0 L 899.0 60.0 L 860.0 60.0 Q 884.0 121.49999999999999 848.0 141.0 L 857.0 165.0 z" fill="rgb(255,217,194)" stroke="black"/>
  <text fill="rgb(9,33,173)" font-size="25" x="901.0" y="114.3">up_front</text>
  <path d="M 1094.0 330.0 L 1163.0 330.0 Q 1145.3 161.85 1163.0 153.0 Q 1118.3 141.75 1133.0 60.0 L 1064.0 60.0 Q 1055.0 102.0 1094.0 330.0 z" fill="rgb(255,217,194)" stroke="black"/>
  <text fill="rgb(9,33,173)" font-size="25" x="1098.4" y="189.6">Lback</text>
  <path d="M 1223.0 330.0 L 1292.0 330.0 Q 1331.0 102.0 1322.0 60.0 L 1253.0 60.0 Q 1263.05 140.25 1223.0 153.0 Q 1240.7 161.85 1223.0 330.0 z" fill="rgb(255,217,194)" stroke="black"/>
  <text fill="rgb(9,33,173)" font-size="25" x="1237.6" y="189.6">Lfront</text>
  <path d="M 1382.0 201.0 L 1400.0 141.0 Q 1436.0 121.5 1412.0 60.0 L 1382.0 60.0 L 1382.0 201.0 z" fill="rgb(255,217,194)" stroke="black"/>
  <text fill="rgb(9,33,173)" font-size="25" x="1369.0" y="118.5">lbsleeve</text>
  <path d="M 1509.0 201.0 L 1539.0 201.0 Q 1563.0 139.5 1527.0 120.0 L 1509.0 60.0 L 1509.0 201.0 z" fill="rgb(255,217,194)" stroke="black"/>
  <text fill="rgb(9,33,173)" font-size="25" x="1496.0" y="148.5">lfsleeve</text>
</svg>
