<?xml version="1.0" encoding="utf-8" ?>
<svg xmlns="http://www.w3.org/2000/svg" xmlns:ev="http://www.w3.org/2001/xml-events" xmlns:xlink="http://www.w3.org/1999/xlink" baseProfile="full" height="309px" version="1.1" width="1582.0px">
  <defs/>
  <path d="M 60 249 L 129 249 L 201 60 L 90 60 Q 103.5 139.5 60 150 Q 69.9 154.95 60 249 z" fill="rgb(255,217,194)" stroke="black"/>
  <text fill="rgb(9,33,173)" font-size="25" x="83.0" y="156.6">Rback</text>
  <path d="M 333 249 L 402 249 Q 392.1 154.95 402 150 Q 363.0 138.0 372 60 L 261 60 L 333 249 z" fill="rgb(255,217,194)" stroke="black"/>
  <text fill="rgb(9,33,173)" font-size="25" x="329.0" y="156.6">Rfront</text>
  <path d="M 462 69 L 501 69 L 540 69 L 540 60 L 462 60 L 462 69 z" fill="rgb(255,217,194)" stroke="black"/>
  <text fill="rgb(9,33,173)" font-size="25" x="476.0" y="68.4">wb_back</text>
  <path d="M 606.0 69.0 L 645.0 69.0 L 684.0 69.0 L 684.0 60.0 L 606.0 60.0 L 606.0 69.0 z" fill="rgb(255,217,194)" stroke="black"/>
  <text fill="rgb(9,33,173)" font-size="25" x="620.0" y="68.4">wb_front</text>
  <path d="M 760.0 183.0 L 910.0 183.0 L 910.0 138.0 Q 875.1999999999999 119.39999999999999 898.0 60.0 L 865.0 60.0 Q 835.0 80.59223911553468 805.0 60.0 L 772.0 60.0 Q 794.8000000000001 119.39999999999999 760.0 138.0 L 760.0 183.0 z" fill="rgb(255,217,194)" stroke="black"/>
  <text fill="rgb(9,33,173)" font-size="25" x="810.0" y="113.25">top_back</text>
  <path d="M 970.0 183.0 L 1120.0 183.0 L 1120.0 138.0 Q 1085.2 119.39999999999999 1108.0 60.0 L 1075.0 60.0 L 1045.0 84.0 L 1015.0 60.0 L 982.0 60.0 Q 1004.8000000000001 119.39999999999999 970.0 138.0 L 970.0 183.0 z" fill="rgb(255,217,194)" stroke="black"/>
  <text fill="rgb(9,33,173)" font-size="25" x="1020.0" y="110.33333333333333">top_front</text>
  <path d="M 1252.0 249.0 L 1321.0 249.0 Q 1311.1 154.95 1321.0 150.0 Q 1277.5 139.5 1291.0 60.0 L 1180.0 60.0 L 1252.0 249.0 z" fill="rgb(255,217,194)" stroke="black"/>
  <text fill="rgb(9,33,173)" font-size="25" x="1248.0" y="156.6">Lback</text>
  <path d="M 1381.0 249.0 L 1450.0 249.0 L 1522.0 60.0 L 1411.0 60.0 Q 1420.0 138.0 1381.0 150.0 Q 1390.9 154.95 1381.0 249.0 z" fill="rgb(255,217,194)" stroke="black"/>
  <text fill="rgb(9,33,173)" font-size="25" x="1404.0" y="156.6">Lfront</text>
</svg>
