<?xml version="1.0" encoding="utf-8" ?>
<svg xmlns="http://www.w3.org/2000/svg" xmlns:ev="http://www.w3.org/2001/xml-events" xmlns:xlink="http://www.w3.org/1999/xlink" baseProfile="full" height="252.0px" version="1.1" width="1225.0px">
  <defs/>
  <path d="M 60 150 L 123 150 Q 152.7 83.4 114 60 L 60 90 L 60 150 z" fill="rgb(255,217,194)" stroke="black"/>
  <text fill="rgb(9,33,173)" font-size="25" x="64.25" y="115.5">rbsleeve</text>
  <path d="M 204.25 120.0 L 258.25 150.0 Q 296.95 126.6 267.25 60.0 L 204.25 60.0 L 204.25 120.0 z" fill="rgb(255,217,194)" stroke="black"/>
  <text fill="rgb(9,33,173)" font-size="25" x="208.5" y="100.5">rfsleeve</text>
  <path d="M 348.5 186.0 L 462.5 186.0 L 462.5 150.0 Q 423.8 126.6 453.5 60.0 L 429.5 60.0 L 405.5 69.0 L 381.5 60.0 L 357.5 60.0 Q 387.2 126.6 348.5 150.0 L 348.5 186.0 z" fill="rgb(255,217,194)" stroke="black"/>
  <text fill="rgb(9,33,173)" font-size="25" x="380.5" y="112.0">back</text>
  <path d="M 522.5 183.0 L 636.5 183.0 L 636.5 150.0 Q 597.8 126.6 627.5 60.0 L 603.5 60.0 L 579.5 93.0 L 555.5 60.0 L 531.5 60.0 Q 561.2 126.6 522.5 150.0 L 522.5 183.0 z" fill="rgb(255,217,194)" stroke="black"/>
  <text fill="rgb(9,33,173)" font-size="25" x="554.5" y="114.0">front</text>
  <path d="M 696.5 192.0 L 753.5 186.0 Q 815.6 157.20000000000002 756.5 84.0 L 732.5 93.0 L 708.5 60.0 L 696.5 192.0 z" fill="rgb(255,217,194)" stroke="black"/>
  <text fill="rgb(9,33,173)" font-size="25" x="704.5" y="126.0">Rhood</text>
  <path d="M 828.5 192.0 L 852.5 159.0 L 876.5 168.0 Q 935.6 94.80000000000001 873.5 66.0 L 816.5 60.0 L 828.5 192.0 z" fill="rgb(255,217,194)" stroke="black"/>
  <text fill="rgb(9,33,173)" font-size="25" x="824.5" y="132.0">Lhood</text>
  <path d="M 936.5 120.0 L 990.5 150.0 Q 1029.2 126.6 999.5 60.0 L 936.5 60.0 L 936.5 120.0 z" fill="rgb(255,217,194)" stroke="black"/>
  <text fill="rgb(9,33,173)" font-size="25" x="940.75" y="100.5">lbsleeve</text>
  <path d="M 1080.75 150.0 L 1143.75 150.0 Q 1173.45 83.4 1134.75 60.0 L 1080.75 90.0 L 1080.75 150.0 z" fill="rgb(255,217,194)" stroke="black"/>
  <text fill="rgb(9,33,173)" font-size="25" x="1085.0" y="115.5">lfsleeve</text>
</svg>
