<?xml version="1.0" encoding="utf-8" ?>
<svg xmlns="http://www.w3.org/2000/svg" xmlns:ev="http://www.w3.org/2001/xml-events" xmlns:xlink="http://www.w3.org/1999/xlink" baseProfile="full" height="345px" version="1.1" width="886.0px">
  <defs/>
  <path d="M 60 285 L 138 285 L 138 78 L 111 60 L 72 60 Q 102.0 132.0 60 156 L 60 285 z" fill="rgb(255,217,194)" stroke="black"/>
  <text fill="rgb(9,33,173)" font-size="25" x="71.5" y="157.0">front_right</text>
  <path d="M 241.5 186.0 L 286.5 180.0 Q 359.4 159.29999999999998 307.5 69.0 L 277.5 78.0 L 247.5 60.0 L 241.5 186.0 z" fill="rgb(255,217,194)" stroke="black"/>
  <text fill="rgb(9,33,173)" font-size="25" x="247.10000000000002" y="117.6">Rhood</text>
  <path d="M 367.5 285.0 L 523.5 285.0 L 523.5 156.0 Q 481.5 132.0 511.5 60.0 L 472.5 60.0 L 445.5 69.0 L 418.5 60.0 L 379.5 60.0 Q 409.5 132.0 367.5 156.0 L 367.5 285.0 z" fill="rgb(255,217,194)" stroke="black"/>
  <text fill="rgb(9,33,173)" font-size="25" x="420.5" y="135.33333333333334">back</text>
  <path d="M 589.5 186.0 L 619.5 168.0 L 649.5 177.0 Q 701.4 86.70000000000002 628.5 66.0 L 583.5 60.0 L 589.5 186.0 z" fill="rgb(255,217,194)" stroke="black"/>
  <text fill="rgb(9,33,173)" font-size="25" x="589.1" y="134.4">Lhood</text>
  <path d="M 709.5 285.0 L 787.5 285.0 L 787.5 156.0 Q 745.5 132.0 775.5 60.0 L 736.5 60.0 L 709.5 78.0 L 709.5 285.0 z" fill="rgb(255,217,194)" stroke="black"/>
  <text fill="rgb(9,33,173)" font-size="25" x="726.0" y="157.0">front_left</text>
</svg>
