<?xml version="1.0" encoding="utf-8" ?>
<svg xmlns="http://www.w3.org/2000/svg" xmlns:ev="http://www.w3.org/2001/xml-events" xmlns:xlink="http://www.w3.org/1999/xlink" baseProfile="full" height="252px" version="1.1" width="1152px">
  <defs/>
  <path d="M 60 192 L 156 192 Q 167.7 80.1 162 60 L 90 60 Q 104.7 141.75 60 153 Q 63.9 154.95 60 192 z" fill="rgb(255,217,194)" stroke="black"/>
  <text fill="rgb(9,33,173)" font-size="25" x="80.6" y="134.4">Rback</text>
  <path d="M 228 192 L 324 192 Q 320.1 154.95 324 153 Q 283.95 140.25 294 60 L 222 60 Q 216.3 80.1 228 192 z" fill="rgb(255,217,194)" stroke="black"/>
  <text fill="rgb(9,33,173)" font-size="25" x="253.39999999999998" y="134.4">Rfront</text>
  <path d="M 393 168 L 465 168 L 537 168 L 546 117 Q 518.7 105.9 531 60 L 489 60 Q 465.0 122.84754932296144 441 60 L 399 60 Q 411.3 105.9 384 117 L 393 168 z" fill="rgb(255,217,194)" stroke="black"/>
  <text fill="rgb(9,33,173)" font-size="25" x="440.0" y="111.66666666666667">up_back</text>
  <path d="M 615 165 L 687 165 L 759 165 L 768 114 Q 741.9 103.8 753 60 L 711 60 L 687 78 L 663 60 L 621 60 Q 632.1 103.8 606 114 L 615 165 z" fill="rgb(255,217,194)" stroke="black"/>
  <text fill="rgb(9,33,173)" font-size="25" x="662.0" y="107.1">up_front</text>
  <path d="M 834 192 L 930 192 Q 926.1 154.95 930 153 Q 885.3 141.75 900 60 L 828 60 Q 822.3 80.1 834 192 z" fill="rgb(255,217,194)" stroke="black"/>
  <text fill="rgb(9,33,173)" font-size="25" x="859.4" y="134.4">Lback</text>
  <path d="M 990 192 L 1086 192 Q 1097.6999999999998 80.1 1092 60 L 1020 60 Q 1030.05 140.25 990 153 Q 993.9 154.95 990 192 z" fill="rgb(255,217,194)" stroke="black"/>
  <text fill="rgb(9,33,173)" font-size="25" x="1010.5999999999999" y="134.4">Lfront</text>
</svg>
