<?xml version="1.0" encoding="utf-8" ?>
<svg xmlns="http://www.w3.org/2000/svg" xmlns:ev="http://www.w3.org/2001/xml-events" xmlns:xlink="http://www.w3.org/1999/xlink" baseProfile="full" height="270px" version="1.1" width="1308.5px">
  <defs/>
  <path d="M 60 210 L 252 210 L 252 102 L 213 60 L 174 60 Q 212.4 146.7 162 177 L 60 210 z" fill="rgb(255,217,194)" stroke="black"/>
  <text fill="rgb(9,33,173)" font-size="25" x="160.5" y="139.5">front_right</text>
  <path d="M 336.5 204.0 L 381.5 198.0 Q 453.5 184.5 411.5 93.0 L 372.5 102.0 L 330.5 60.0 L 336.5 204.0 z" fill="rgb(255,217,194)" stroke="black"/>
  <text fill="rgb(9,33,173)" font-size="25" x="341.5" y="134.4">Rhood</text>
  <path d="M 471.5 210.0 L 855.5 210.0 L 753.5 177.0 Q 703.1 146.70000000000002 741.5 60.0 L 702.5 60.0 L 663.5 69.0 L 624.5 60.0 L 585.5 60.0 Q 623.9 146.7 573.5 177.0 L 471.5 210.0 z" fill="rgb(255,217,194)" stroke="black"/>
  <text fill="rgb(9,33,173)" font-size="25" x="638.5" y="123.33333333333333">back</text>
  <path d="M 915.5 204.0 L 957.5 162.0 L 996.5 171.0 Q 1038.5 79.5 966.5 66.0 L 921.5 60.0 L 915.5 204.0 z" fill="rgb(255,217,194)" stroke="black"/>
  <text fill="rgb(9,33,173)" font-size="25" x="926.5" y="135.6">Lhood</text>
  <path d="M 1056.5 210.0 L 1248.5 210.0 L 1146.5 177.0 Q 1096.1000000000001 146.70000000000002 1134.5 60.0 L 1095.5 60.0 L 1056.5 102.0 L 1056.5 210.0 z" fill="rgb(255,217,194)" stroke="black"/>
  <text fill="rgb(9,33,173)" font-size="25" x="1098.0" y="139.5">front_left</text>
</svg>
