<?xml version="1.0" encoding="utf-8" ?>
<svg xmlns="http://www.w3.org/2000/svg" xmlns:ev="http://www.w3.org/2001/xml-events" xmlns:xlink="http://www.w3.org/1999/xlink" baseProfile="full" height="225px" version="1.1" width="1124.0px">
  <defs/>
  <path d="M 60 165 L 75 165 Q 95.10000000000001 115.20000000000002 66 99 L 60 60 L 60 165 z" fill="rgb(255,217,194)" stroke="black"/>
  <text fill="rgb(9,33,173)" font-size="25" x="40.25" y="125.25">rbsleeve</text>
  <path d="M 180.25 165.0 L 186.25 126.0 Q 215.35 109.8 195.25 60.0 L 180.25 60.0 L 180.25 165.0 z" fill="rgb(255,217,194)" stroke="black"/>
  <text fill="rgb(9,33,173)" font-size="25" x="160.5" y="105.75">rfsleeve</text>
  <path d="M 300.5 159.0 L 381.5 159.0 L 381.5 93.0 L 366.5 60.0 L 327.5 60.0 Q 347.59999999999997 109.79999999999998 318.5 126.0 L 300.5 159.0 z" fill="rgb(255,217,194)" stroke="black"/>
  <text fill="rgb(9,33,173)" font-size="25" x="321.0" y="112.5">front_right</text>
  <path d="M 491.0 159.0 L 653.0 159.0 L 635.0 126.0 Q 605.9 109.8 626.0 60.0 L 587.0 60.0 Q 572.0 68.90739339296718 557.0 60.0 L 518.0 60.0 Q 538.1 109.79999999999998 509.0 126.0 L 491.0 159.0 z" fill="rgb(255,217,194)" stroke="black"/>
  <text fill="rgb(9,33,173)" font-size="25" x="547.0" y="104.25">back</text>
  <path d="M 713.0 159.0 L 794.0 159.0 L 776.0 126.0 Q 746.9 109.8 767.0 60.0 L 728.0 60.0 L 713.0 93.0 L 713.0 159.0 z" fill="rgb(255,217,194)" stroke="black"/>
  <text fill="rgb(9,33,173)" font-size="25" x="723.5" y="112.5">front_left</text>
  <path d="M 883.5 165.0 L 889.5 126.0 Q 918.6 109.8 898.5 60.0 L 883.5 60.0 L 883.5 165.0 z" fill="rgb(255,217,194)" stroke="black"/>
  <text fill="rgb(9,33,173)" font-size="25" x="863.75" y="105.75">lbsleeve</text>
  <path d="M 1003.75 165.0 L 1018.75 165.0 Q 1038.8500000000001 115.20000000000002 1009.75 99.0 L 1003.75 60.0 L 1003.75 165.0 z" fill="rgb(255,217,194)" stroke="black"/>
  <text fill="rgb(9,33,173)" font-size="25" x="984.0" y="125.25">lfsleeve</text>
</svg>
