<?xml version="1.0" encoding="utf-8" ?>
<svg xmlns="http://www.w3.org/2000/svg" xmlns:ev="http://www.w3.org/2001/xml-events" xmlns:xlink="http://www.w3.org/1999/xlink" baseProfile="full" height="318px" version="1.1" width="914.0px">
  <defs/>
  <path d="M 60 258 Q 150.0 325.6684334283397 240 258 L 222 102 L 204 60 L 96 60 L 78 102 L 60 258 z" fill="rgb(255,217,194)" stroke="black"/>
  <text fill="rgb(9,33,173)" font-size="25" x="125.0" y="143.0">skirt_back</text>
  <path d="M 300 258 Q 390.0 249.80199392084458 480 258 L 462 102 L 444 60 L 336 60 L 318 102 L 300 258 z" fill="rgb(255,217,194)" stroke="black"/>
  <text fill="rgb(9,33,173)" font-size="25" x="365.0" y="143.0">skirt_front</text>
  <path d="M 549 168 L 657 168 L 666 108 Q 644.0999999999999 97.19999999999999 657 60 L 615 60 Q 603.0 60.87923048149429 591 60 L 549 60 Q 561.9000000000001 97.19999999999999 540 108 L 549 168 z" fill="rgb(255,217,194)" stroke="black"/>
  <text fill="rgb(9,33,173)" font-size="25" x="578.0" y="102.0">top_back</text>
  <path d="M 735 165 L 843 165 L 852 108 Q 830.0999999999999 97.19999999999999 843 60 L 801 60 L 789 135 L 777 60 L 735 60 Q 747.9000000000001 97.19999999999999 726 108 L 735 165 z" fill="rgb(255,217,194)" stroke="black"/>
  <text fill="rgb(9,33,173)" font-size="25" x="764.0" y="105.33333333333333">top_front</text>
</svg>
