<?xml version="1.0" encoding="utf-8" ?>
<svg xmlns="http://www.w3.org/2000/svg" xmlns:ev="http://www.w3.org/2001/xml-events" xmlns:xlink="http://www.w3.org/1999/xlink" baseProfile="full" height="246.0px" version="1.1" width="952.8000000000001px">
  <defs/>
  <path d="M 60 180 L 168 180 L 168 93 L 150 60 L 96 60 Q 111.6 106.8 84 120 L 60 180 z" fill="rgb(255,217,194)" stroke="black"/>
  <text fill="rgb(9,33,173)" font-size="25" x="96.0" y="118.5">front_right</text>
  <path d="M 266.0 186.0 L 305.0 186.0 Q 370.7 164.4 320.0 84.0 L 302.0 93.0 L 284.0 60.0 L 266.0 186.0 z" fill="rgb(255,217,194)" stroke="black"/>
  <text fill="rgb(9,33,173)" font-size="25" x="270.4" y="124.8">Rhood</text>
  <path d="M 380.4 180.0 L 596.4 180.0 L 572.4 123.0 Q 543.5999999999999 108.89999999999999 560.4 60.0 L 506.4 60.0 L 488.4 69.0 L 470.4 60.0 L 416.4 60.0 Q 433.2 108.89999999999999 404.4 123.0 L 380.4 180.0 z" fill="rgb(255,217,194)" stroke="black"/>
  <text fill="rgb(9,33,173)" font-size="25" x="463.40000000000003" y="104.66666666666667">back</text>
  <path d="M 674.4 186.0 L 692.4 153.0 L 710.4 162.0 Q 761.1 81.60000000000001 695.4 60.0 L 656.4 60.0 L 674.4 186.0 z" fill="rgb(255,217,194)" stroke="black"/>
  <text fill="rgb(9,33,173)" font-size="25" x="660.8" y="127.2">Lhood</text>
  <path d="M 770.8 180.0 L 878.8 180.0 L 854.8 120.0 Q 827.1999999999999 106.8 842.8 60.0 L 788.8 60.0 L 770.8 93.0 L 770.8 180.0 z" fill="rgb(255,217,194)" stroke="black"/>
  <text fill="rgb(9,33,173)" font-size="25" x="792.8000000000001" y="118.5">front_left</text>
</svg>
