<?xml version="1.0" encoding="utf-8" ?>
<svg xmlns="http://www.w3.org/2000/svg" xmlns:ev="http://www.w3.org/2001/xml-events" xmlns:xlink="http://www.w3.org/1999/xlink" baseProfile="full" height="246px" version="1.1" width="1164px">
  <defs/>
  <path d="M 60 186 Q 198.0 174.5981747065303 336 186 L 279 102 L 255 60 L 141 60 L 117 102 L 60 186 z" fill="rgb(255,217,194)" stroke="black"/>
  <text fill="rgb(9,33,173)" font-size="25" x="173.0" y="119.0">skirt_back</text>
  <path d="M 396 186 Q 534.0 229.5283218844832 672 186 L 615 102 L 591 60 L 477 60 L 453 102 L 396 186 z" fill="rgb(255,217,194)" stroke="black"/>
  <text fill="rgb(9,33,173)" font-size="25" x="509.0" y="119.0">skirt_front</text>
  <path d="M 753 168 L 867 168 L 888 150 Q 848.4 127.8 876 60 L 825 60 Q 810.0 69.08860811320906 795 60 L 744 60 Q 771.6 127.8 732 150 L 753 168 z" fill="rgb(255,217,194)" stroke="black"/>
  <text fill="rgb(9,33,173)" font-size="25" x="785.0" y="112.5">top_back</text>
  <path d="M 969 165 L 1083 165 L 1104 150 Q 1064.4 127.8 1092 60 L 1041 60 L 1026 93 L 1011 60 L 960 60 Q 987.6 127.8 948 150 L 969 165 z" fill="rgb(255,217,194)" stroke="black"/>
  <text fill="rgb(9,33,173)" font-size="25" x="1001.0" y="110.0">top_front</text>
</svg>
