<?xml version="1.0" encoding="utf-8" ?>
<svg xmlns="http://www.w3.org/2000/svg" xmlns:ev="http://www.w3.org/2001/xml-events" xmlns:xlink="http://www.w3.org/1999/xlink" baseProfile="full" height="330px" version="1.1" width="760.5px">
  <defs/>
  <path d="M 60 270 L 180 270 L 180 90 L 156 60 L 123 60 Q 163.5 145.49999999999997 114 177 L 60 270 z" fill="rgb(255,217,194)" stroke="black"/>
  <text fill="rgb(9,33,173)" font-size="25" x="110.5" y="157.5">front_right</text>
  <path d="M 280.5 270.0 L 520.5 270.0 L 466.5 177.0 Q 417.0 145.5 457.5 60.0 L 424.5 60.0 Q 400.5 117.06590684403564 376.5 60.0 L 343.5 60.0 Q 384.0 145.49999999999997 334.5 177.0 L 280.5 270.0 z" fill="rgb(255,217,194)" stroke="black"/>
  <text fill="rgb(9,33,173)" font-size="25" x="375.5" y="144.75">back</text>
  <path d="M 580.5 270.0 L 700.5 270.0 L 646.5 177.0 Q 597.0 145.5 637.5 60.0 L 604.5 60.0 L 580.5 90.0 L 580.5 270.0 z" fill="rgb(255,217,194)" stroke="black"/>
  <text fill="rgb(9,33,173)" font-size="25" x="600.0" y="157.5">front_left</text>
</svg>
