<?xml version="1.0" encoding="utf-8" ?>
<svg xmlns="http://www.w3.org/2000/svg" xmlns:ev="http://www.w3.org/2001/xml-events" xmlns:xlink="http://www.w3.org/1999/xlink" baseProfile="full" height="369px" version="1.1" width="1282.0px">
  <defs/>
  <path d="M 60 309 L 240 309 L 240 60 L 60 60 L 60 309 z" fill="rgb(255,217,194)" stroke="black"/>
  <text fill="rgb(9,33,173)" font-size="25" x="125.0" y="187.5">skirt_back</text>
  <path d="M 300 75 L 390 75 L 390 60 L 300 60 L 300 75 z" fill="rgb(255,217,194)" stroke="black"/>
  <text fill="rgb(9,33,173)" font-size="25" x="320.0" y="70.5">wb_back</text>
  <path d="M 450 75 L 540 75 L 540 60 L 450 60 L 450 75 z" fill="rgb(255,217,194)" stroke="black"/>
  <text fill="rgb(9,33,173)" font-size="25" x="470.0" y="70.5">wb_front</text>
  <path d="M 610.0 309.0 L 790.0 309.0 L 790.0 60.0 L 610.0 60.0 L 610.0 309.0 z" fill="rgb(255,217,194)" stroke="black"/>
  <text fill="rgb(9,33,173)" font-size="25" x="675.0" y="187.5">skirt_front</text>
  <path d="M 850.0 183.0 L 1006.0 183.0 L 1006.0 117.0 Q 979.6 104.7 994.0 60.0 L 943.0 60.0 Q 928.0 73.64665865952963 913.0 60.0 L 862.0 60.0 Q 876.4 104.7 850.0 117.0 L 850.0 183.0 z" fill="rgb(255,217,194)" stroke="black"/>
  <text fill="rgb(9,33,173)" font-size="25" x="903.0" y="108.0">top_back</text>
  <path d="M 1066.0 183.0 L 1222.0 183.0 L 1222.0 117.0 Q 1195.6000000000001 104.7 1210.0 60.0 L 1159.0 60.0 L 1144.0 81.0 L 1129.0 60.0 L 1078.0 60.0 Q 1092.3999999999999 104.7 1066.0 117.0 L 1066.0 183.0 z" fill="rgb(255,217,194)" stroke="black"/>
  <text fill="rgb(9,33,173)" font-size="25" x="1119.0" y="105.33333333333333">top_front</text>
</svg>
