<?xml version="1.0" encoding="utf-8" ?>
<svg xmlns="http://www.w3.org/2000/svg" xmlns:ev="http://www.w3.org/2001/xml-events" xmlns:xlink="http://www.w3.org/1999/xlink" baseProfile="full" height="267.0px" version="1.1" width="1660.0px">
  <defs/>
  <path d="M 60 150 L 114 150 Q 141.6 82.2 102 60 L 60 96 L 60 150 z" fill="rgb(255,217,194)" stroke="black"/>
  <text fill="rgb(9,33,173)" font-size="25" x="59.0" y="117.0">rbsleeve</text>
  <path d="M 199.0 114.0 L 241.0 150.0 Q 280.6 127.8 253.0 60.0 L 199.0 60.0 L 199.0 114.0 z" fill="rgb(255,217,194)" stroke="black"/>
  <text fill="rgb(9,33,173)" font-size="25" x="198.0" y="99.0">rfsleeve</text>
  <path d="M 338.0 207.0 L 440.0 207.0 Q 439.70000000000005 81.6 431.0 60.0 L 368.0 60.0 Q 382.7 141.75 338.0 153.0 Q 343.4 155.7 338.0 207.0 z" fill="rgb(255,217,194)" stroke="black"/>
  <text fill="rgb(9,33,173)" font-size="25" x="358.0" y="140.4">Rback</text>
  <path d="M 500.0 207.0 L 602.0 207.0 Q 596.6 155.7 602.0 153.0 Q 561.95 140.25 572.0 60.0 L 509.0 60.0 Q 500.29999999999995 81.6 500.0 207.0 z" fill="rgb(255,217,194)" stroke="black"/>
  <text fill="rgb(9,33,173)" font-size="25" x="532.0" y="140.4">Rfront</text>
  <path d="M 671.0 168.0 L 731.0 168.0 L 791.0 168.0 L 800.0 150.0 Q 760.4 127.8 788.0 60.0 L 749.0 60.0 Q 731.0 108.70330421859535 713.0 60.0 L 674.0 60.0 Q 701.6 127.8 662.0 150.0 L 671.0 168.0 z" fill="rgb(255,217,194)" stroke="black"/>
  <text fill="rgb(9,33,173)" font-size="25" x="706.0" y="119.0">up_back</text>
  <path d="M 869.0 165.0 L 929.0 165.0 L 989.0 165.0 L 998.0 150.0 Q 958.4 127.8 986.0 60.0 L 947.0 60.0 L 929.0 81.0 L 911.0 60.0 L 872.0 60.0 Q 899.6 127.8 860.0 150.0 L 869.0 165.0 z" fill="rgb(255,217,194)" stroke="black"/>
  <text fill="rgb(9,33,173)" font-size="25" x="904.0" y="114.6">up_front</text>
  <path d="M 1058.0 207.0 L 1160.0 207.0 Q 1154.6 155.7 1160.0 153.0 Q 1115.3 141.75 1130.0 60.0 L 1067.0 60.0 Q 1058.3000000000002 81.6 1058.0 207.0 z" fill="rgb(255,217,194)" stroke="black"/>
  <text fill="rgb(9,33,173)" font-size="25" x="1090.0" y="140.4">Lback</text>
  <path d="M 1220.0 207.0 L 1322.0 207.0 Q 1321.6999999999998 81.6 1313.0 60.0 L 1250.0 60.0 Q 1260.05 140.25 1220.0 153.0 Q 1225.4 155.7 1220.0 207.0 z" fill="rgb(255,217,194)" stroke="black"/>
  <text fill="rgb(9,33,173)" font-size="25" x="1240.0" y="140.4">Lfront</text>
  <path d="M 1382.0 114.0 L 1424.0 150.0 Q 1463.6 127.8 1436.0 60.0 L 1382.0 60.0 L 1382.0 114.0 z" fill="rgb(255,217,194)" stroke="black"/>
  <text fill="rgb(9,33,173)" font-size="25" x="1381.0" y="99.0">lbsleeve</text>
  <path d="M 1521.0 150.0 L 1575.0 150.0 Q 1602.6 82.2 1563.0 60.0 L 1521.0 96.0 L 1521.0 150.0 z" fill="rgb(255,217,194)" stroke="black"/>
  <text fill="rgb(9,33,173)" font-size="25" x="1520.0" y="117.0">lfsleeve</text>
</svg>
