<?xml version="1.0" encoding="utf-8" ?>
<svg xmlns="http://www.w3.org/2000/svg" xmlns:ev="http://www.w3.org/2001/xml-events" xmlns:xlink="http://www.w3.org/1999/xlink" baseProfile="full" height="321px" version="1.1" width="919.0px">
  <defs/>
  <path d="M 75 261 L 147 261 L 147 114 L 114 60 L 75 60 Q 99.30000000000001 126.9 60 147 L 75 261 z" fill="rgb(255,217,194)" stroke="black"/>
  <text fill="rgb(9,33,173)" font-size="25" x="78.0" y="153.5">front_right</text>
  <path d="M 248.0 189.0 L 317.0 195.0 Q 369.2 168.9 317.0 108.0 L 284.0 117.0 L 248.0 60.0 L 248.0 189.0 z" fill="rgb(255,217,194)" stroke="black"/>
  <text fill="rgb(9,33,173)" font-size="25" x="257.8" y="136.8">Rhood</text>
  <path d="M 392.0 261.0 L 536.0 261.0 L 551.0 147.0 Q 511.7 126.9 536.0 60.0 L 497.0 60.0 L 464.0 69.0 L 431.0 60.0 L 392.0 60.0 Q 416.3 126.9 377.0 147.0 L 392.0 261.0 z" fill="rgb(255,217,194)" stroke="black"/>
  <text fill="rgb(9,33,173)" font-size="25" x="439.0" y="128.0">back</text>
  <path d="M 611.0 195.0 L 647.0 138.0 L 680.0 147.0 Q 732.2 86.1 680.0 60.0 L 611.0 66.0 L 611.0 195.0 z" fill="rgb(255,217,194)" stroke="black"/>
  <text fill="rgb(9,33,173)" font-size="25" x="620.8" y="124.2">Lhood</text>
  <path d="M 740.0 261.0 L 812.0 261.0 L 827.0 147.0 Q 787.7 126.9 812.0 60.0 L 773.0 60.0 L 740.0 114.0 L 740.0 261.0 z" fill="rgb(255,217,194)" stroke="black"/>
  <text fill="rgb(9,33,173)" font-size="25" x="759.0" y="153.5">front_left</text>
</svg>
