<?xml version="1.0" encoding="utf-8" ?>
<svg xmlns="http://www.w3.org/2000/svg" xmlns:ev="http://www.w3.org/2001/xml-events" xmlns:xlink="http://www.w3.org/1999/xlink" baseProfile="full" height="297px" version="1.1" width="1534.0px">
  <defs/>
  <path d="M 60 237 L 183 237 L 183 60 L 90 60 Q 99.9 132.75 60 141 Q 69.6 145.8 60 237 z" fill="rgb(255,217,194)" stroke="black"/>
  <text fill="rgb(9,33,173)" font-size="25" x="90.2" y="150.0">Rback</text>
  <path d="M 243 237 L 366 237 Q 356.4 145.8 366 141 Q 330.15 131.25 336 60 L 243 60 L 243 237 z" fill="rgb(255,217,194)" stroke="black"/>
  <text fill="rgb(9,33,173)" font-size="25" x="285.8" y="150.0">Rfront</text>
  <path d="M 426 72 L 465 72 L 504 72 L 504 60 L 426 60 L 426 72 z" fill="rgb(255,217,194)" stroke="black"/>
  <text fill="rgb(9,33,173)" font-size="25" x="440.0" y="70.2">wb_back</text>
  <path d="M 570.0 72.0 L 609.0 72.0 L 648.0 72.0 L 648.0 60.0 L 570.0 60.0 L 570.0 72.0 z" fill="rgb(255,217,194)" stroke="black"/>
  <text fill="rgb(9,33,173)" font-size="25" x="584.0" y="70.2">wb_front</text>
  <path d="M 724.0 147.0 L 886.0 147.0 L 886.0 117.0 Q 859.6 104.7 874.0 60.0 L 850.0 60.0 Q 805.0 69.77914888425285 760.0 60.0 L 736.0 60.0 Q 750.4 104.7 724.0 117.0 L 724.0 147.0 z" fill="rgb(255,217,194)" stroke="black"/>
  <text fill="rgb(9,33,173)" font-size="25" x="780.0" y="99.0">top_back</text>
  <path d="M 946.0 147.0 L 1108.0 147.0 L 1108.0 114.0 Q 1082.8000000000002 102.6 1096.0 60.0 L 1072.0 60.0 L 1027.0 84.0 L 982.0 60.0 L 958.0 60.0 Q 971.2 102.6 946.0 114.0 L 946.0 147.0 z" fill="rgb(255,217,194)" stroke="black"/>
  <text fill="rgb(9,33,173)" font-size="25" x="1002.0" y="97.0">top_front</text>
  <path d="M 1168.0 237.0 L 1291.0 237.0 Q 1281.4 145.8 1291.0 141.0 Q 1251.1 132.75 1261.0 60.0 L 1168.0 60.0 L 1168.0 237.0 z" fill="rgb(255,217,194)" stroke="black"/>
  <text fill="rgb(9,33,173)" font-size="25" x="1210.8" y="150.0">Lback</text>
  <path d="M 1351.0 237.0 L 1474.0 237.0 L 1474.0 60.0 L 1381.0 60.0 Q 1386.85 131.25 1351.0 141.0 Q 1360.6 145.8 1351.0 237.0 z" fill="rgb(255,217,194)" stroke="black"/>
  <text fill="rgb(9,33,173)" font-size="25" x="1381.2" y="150.0">Lfront</text>
</svg>
