<?xml version="1.0" encoding="utf-8" ?>
<svg xmlns="http://www.w3.org/2000/svg" xmlns:ev="http://www.w3.org/2001/xml-events" xmlns:xlink="http://www.w3.org/1999/xlink" baseProfile="full" height="264.0px" version="1.1" width="1355.0px">
  <defs/>
  <path d="M 60 168 L 138 168 Q 171.6 89.7 126 63 L 60 60 L 60 168 z" fill="rgb(255,217,194)" stroke="black"/>
  <text fill="rgb(9,33,173)" font-size="25" x="71.0" y="117.75">rbsleeve</text>
  <path d="M 211.0 168.0 L 277.0 165.0 Q 322.6 138.3 289.0 60.0 L 211.0 60.0 L 211.0 168.0 z" fill="rgb(255,217,194)" stroke="black"/>
  <text fill="rgb(9,33,173)" font-size="25" x="222.0" y="116.25">rfsleeve</text>
  <path d="M 362.0 204.0 L 479.0 204.0 L 479.0 96.0 L 467.0 60.0 L 422.0 60.0 Q 457.7 137.1 413.0 165.0 L 362.0 204.0 z" fill="rgb(255,217,194)" stroke="black"/>
  <text fill="rgb(9,33,173)" font-size="25" x="412.0" y="134.5">front_right</text>
  <path d="M 582.0 204.0 L 816.0 204.0 L 765.0 165.0 Q 720.3 137.1 756.0 60.0 L 711.0 60.0 Q 699.0 145.84649528659855 687.0 60.0 L 642.0 60.0 Q 677.7 137.1 633.0 165.0 L 582.0 204.0 z" fill="rgb(255,217,194)" stroke="black"/>
  <text fill="rgb(9,33,173)" font-size="25" x="674.0" y="125.25">back</text>
  <path d="M 876.0 204.0 L 993.0 204.0 L 942.0 165.0 Q 897.3 137.1 933.0 60.0 L 888.0 60.0 L 876.0 96.0 L 876.0 204.0 z" fill="rgb(255,217,194)" stroke="black"/>
  <text fill="rgb(9,33,173)" font-size="25" x="893.0" y="134.5">front_left</text>
  <path d="M 1053.0 168.0 L 1119.0 165.0 Q 1164.6 138.3 1131.0 60.0 L 1053.0 60.0 L 1053.0 168.0 z" fill="rgb(255,217,194)" stroke="black"/>
  <text fill="rgb(9,33,173)" font-size="25" x="1064.0" y="116.25">lbsleeve</text>
  <path d="M 1204.0 168.0 L 1282.0 168.0 Q 1315.6 89.7 1270.0 63.0 L 1204.0 60.0 L 1204.0 168.0 z" fill="rgb(255,217,194)" stroke="black"/>
  <text fill="rgb(9,33,173)" font-size="25" x="1215.0" y="117.75">lfsleeve</text>
</svg>
