<?xml version="1.0" encoding="utf-8" ?>
<svg xmlns="http://www.w3.org/2000/svg" xmlns:ev="http://www.w3.org/2001/xml-events" xmlns:xlink="http://www.w3.org/1999/xlink" baseProfile="full" height="456px" version="1.1" width="1629.5px">
  <defs/>
  <path d="M 60 195 L 174 195 Q 212.4 108.30000000000001 162 78 L 60 60 L 60 195 z" fill="rgb(255,217,194)" stroke="black"/>
  <text fill="rgb(9,33,173)" font-size="25" x="89.0" y="135.0">rbsleeve</text>
  <path d="M 234 195 L 336 177 Q 386.40000000000003 146.70000000000002 348 60 L 234 60 L 234 195 z" fill="rgb(255,217,194)" stroke="black"/>
  <text fill="rgb(9,33,173)" font-size="25" x="263.0" y="126.0">rfsleeve</text>
  <path d="M 408 396 L 573 396 L 573 156 L 561 60 L 513 60 Q 551.4 146.7 501 177 L 408 396 z" fill="rgb(255,217,194)" stroke="black"/>
  <text fill="rgb(9,33,173)" font-size="25" x="496.5" y="210.5">front_right</text>
  <path d="M 666.5 396.0 L 996.5 396.0 L 903.5 177.0 Q 853.1 146.70000000000002 891.5 60.0 L 843.5 60.0 Q 831.5 124.64841957519062 819.5 60.0 L 771.5 60.0 Q 809.9 146.7 759.5 177.0 L 666.5 396.0 z" fill="rgb(255,217,194)" stroke="black"/>
  <text fill="rgb(9,33,173)" font-size="25" x="806.5" y="176.25">back</text>
  <path d="M 1056.5 396.0 L 1221.5 396.0 L 1128.5 177.0 Q 1078.1000000000001 146.70000000000002 1116.5 60.0 L 1068.5 60.0 L 1056.5 156.0 L 1056.5 396.0 z" fill="rgb(255,217,194)" stroke="black"/>
  <text fill="rgb(9,33,173)" font-size="25" x="1083.0" y="210.5">front_left</text>
  <path d="M 1281.5 195.0 L 1383.5 177.0 Q 1433.8999999999999 146.70000000000002 1395.5 60.0 L 1281.5 60.0 L 1281.5 195.0 z" fill="rgb(255,217,194)" stroke="black"/>
  <text fill="rgb(9,33,173)" font-size="25" x="1310.5" y="126.0">lbsleeve</text>
  <path d="M 1455.5 195.0 L 1569.5 195.0 Q 1607.8999999999999 108.30000000000001 1557.5 78.0 L 1455.5 60.0 L 1455.5 195.0 z" fill="rgb(255,217,194)" stroke="black"/>
  <text fill="rgb(9,33,173)" font-size="25" x="1484.5" y="135.0">lfsleeve</text>
</svg>
