<?xml version="1.0" encoding="utf-8" ?>
<svg xmlns="http://www.w3.org/2000/svg" xmlns:ev="http://www.w3.org/2001/xml-events" xmlns:xlink="http://www.w3.org/1999/xlink" baseProfile="full" height="237px" version="1.1" width="1516.0px">
  <defs/>
  <path d="M 60 177 L 78 177 Q 91.19999999999999 134.39999999999998 66 123 L 60 60 L 60 177 z" fill="rgb(255,217,194)" stroke="black"/>
  <text fill="rgb(9,33,173)" font-size="25" x="41.0" y="137.25">rbsleeve</text>
  <path d="M 181.0 177.0 L 187.0 114.0 Q 212.2 102.6 199.0 60.0 L 181.0 60.0 L 181.0 177.0 z" fill="rgb(255,217,194)" stroke="black"/>
  <text fill="rgb(9,33,173)" font-size="25" x="162.0" y="105.75">rfsleeve</text>
  <path d="M 302.0 165.0 L 602.0 165.0 L 518.0 117.0 Q 492.49999999999994 103.5 509.0 60.0 L 482.0 60.0 L 452.0 69.0 L 422.0 60.0 L 395.0 60.0 Q 411.5 103.5 386.0 117.0 L 302.0 165.0 z" fill="rgb(255,217,194)" stroke="black"/>
  <text fill="rgb(9,33,173)" font-size="25" x="427.0" y="100.0">back</text>
  <path d="M 662.0 165.0 L 962.0 165.0 L 878.0 114.0 Q 853.6999999999999 101.39999999999999 869.0 60.0 L 842.0 60.0 L 812.0 63.0 L 782.0 60.0 L 755.0 60.0 Q 770.3000000000001 101.39999999999999 746.0 114.0 L 662.0 165.0 z" fill="rgb(255,217,194)" stroke="black"/>
  <text fill="rgb(9,33,173)" font-size="25" x="787.0" y="98.66666666666667">front</text>
  <path d="M 1022.0 165.0 L 1049.0 162.0 Q 1121.9 154.8 1088.0 60.0 L 1058.0 69.0 L 1028.0 60.0 L 1022.0 165.0 z" fill="rgb(255,217,194)" stroke="black"/>
  <text fill="rgb(9,33,173)" font-size="25" x="1024.0" y="106.2">Rhood</text>
  <path d="M 1154.0 165.0 L 1184.0 156.0 L 1214.0 165.0 Q 1247.9 70.20000000000002 1175.0 63.0 L 1148.0 60.0 L 1154.0 165.0 z" fill="rgb(255,217,194)" stroke="black"/>
  <text fill="rgb(9,33,173)" font-size="25" x="1150.0" y="124.8">Lhood</text>
  <path d="M 1274.0 177.0 L 1280.0 114.0 Q 1305.1999999999998 102.6 1292.0 60.0 L 1274.0 60.0 L 1274.0 177.0 z" fill="rgb(255,217,194)" stroke="black"/>
  <text fill="rgb(9,33,173)" font-size="25" x="1255.0" y="105.75">lbsleeve</text>
  <path d="M 1395.0 177.0 L 1413.0 177.0 Q 1426.1999999999998 134.39999999999998 1401.0 123.0 L 1395.0 60.0 L 1395.0 177.0 z" fill="rgb(255,217,194)" stroke="black"/>
  <text fill="rgb(9,33,173)" font-size="25" x="1376.0" y="137.25">lfsleeve</text>
</svg>
