<?xml version="1.0" encoding="utf-8" ?>
<svg xmlns="http://www.w3.org/2000/svg" xmlns:ev="http://www.w3.org/2001/xml-events" xmlns:xlink="http://www.w3.org/1999/xlink" baseProfile="full" height="240px" version="1.1" width="1188px">
  <defs/>
  <path d="M 60 180 Q 204.0 249.47850197210164 348 180 L 285 102 L 282 60 L 126 60 L 123 102 L 60 180 z" fill="rgb(255,217,194)" stroke="black"/>
  <text fill="rgb(9,33,173)" font-size="25" x="179.0" y="117.0">skirt_back</text>
  <path d="M 408 180 Q 552.0 183.11296476599534 696 180 L 633 102 L 630 60 L 474 60 L 471 102 L 408 180 z" fill="rgb(255,217,194)" stroke="black"/>
  <text fill="rgb(9,33,173)" font-size="25" x="527.0" y="117.0">skirt_front</text>
  <path d="M 756 168 L 912 168 L 906 132 Q 874.5 114.0 897 60 L 867 60 Q 834.0 135.87446358133872 801 60 L 771 60 Q 793.5 114.0 762 132 L 756 168 z" fill="rgb(255,217,194)" stroke="black"/>
  <text fill="rgb(9,33,173)" font-size="25" x="809.0" y="108.0">top_back</text>
  <path d="M 972 165 L 1128 165 L 1122 129 Q 1091.7 111.89999999999999 1113 60 L 1083 60 L 1050 141 L 1017 60 L 987 60 Q 1008.3000000000001 111.89999999999999 978 129 L 972 165 z" fill="rgb(255,217,194)" stroke="black"/>
  <text fill="rgb(9,33,173)" font-size="25" x="1025.0" y="110.66666666666667">top_front</text>
</svg>
