<?xml version="1.0" encoding="utf-8" ?>
<svg xmlns="http://www.w3.org/2000/svg" xmlns:ev="http://www.w3.org/2001/xml-events" xmlns:xlink="http://www.w3.org/1999/xlink" baseProfile="full" height="210px" version="1.1" width="598.0px">
  <defs/>
  <path d="M 60 150 L 126 150 L 126 69 L 105 60 L 72 60 Q 87.6 106.8 60 120 L 60 150 z" fill="rgb(255,217,194)" stroke="black"/>
  <text fill="rgb(9,33,173)" font-size="25" x="66.5" y="104.5">front_right</text>
  <path d="M 236.5 150.0 L 368.5 150.0 L 368.5 120.0 Q 340.9 106.8 356.5 60.0 L 323.5 60.0 Q 302.5 129.6889868160398 281.5 60.0 L 248.5 60.0 Q 264.1 106.8 236.5 120.0 L 236.5 150.0 z" fill="rgb(255,217,194)" stroke="black"/>
  <text fill="rgb(9,33,173)" font-size="25" x="277.5" y="100.5">back</text>
  <path d="M 428.5 150.0 L 494.5 150.0 L 494.5 120.0 Q 466.9 106.8 482.5 60.0 L 449.5 60.0 L 428.5 69.0 L 428.5 150.0 z" fill="rgb(255,217,194)" stroke="black"/>
  <text fill="rgb(9,33,173)" font-size="25" x="438.0" y="104.5">front_left</text>
</svg>
