<?xml version="1.0" encoding="utf-8" ?>
<svg xmlns="http://www.w3.org/2000/svg" xmlns:ev="http://www.w3.org/2001/xml-events" xmlns:xlink="http://www.w3.org/1999/xlink" baseProfile="full" height="504px" version="1.1" width="835.0px">
  <defs/>
  <path d="M 60 444 L 123 444 L 123 75 L 96 60 L 75 60 Q 93.9 107.69999999999999 66 123 L 60 444 z" fill="rgb(255,217,194)" stroke="black"/>
  <text fill="rgb(9,33,173)" font-size="25" x="65.5" y="204.0">front_right</text>
  <path d="M 235.5 186.0 L 244.5 186.0 Q 332.7 182.4 298.5 66.0 L 271.5 75.0 L 244.5 60.0 L 235.5 186.0 z" fill="rgb(255,217,194)" stroke="black"/>
  <text fill="rgb(9,33,173)" font-size="25" x="233.89999999999998" y="117.6">Rhood</text>
  <path d="M 358.5 444.0 L 484.5 444.0 L 478.5 123.0 Q 450.6 107.69999999999999 469.5 60.0 L 448.5 60.0 L 421.5 69.0 L 394.5 60.0 L 373.5 60.0 Q 392.4 107.69999999999999 364.5 123.0 L 358.5 444.0 z" fill="rgb(255,217,194)" stroke="black"/>
  <text fill="rgb(9,33,173)" font-size="25" x="396.5" y="163.33333333333334">back</text>
  <path d="M 553.5 186.0 L 580.5 171.0 L 607.5 180.0 Q 641.7 63.6 553.5 60.0 L 544.5 60.0 L 553.5 186.0 z" fill="rgb(255,217,194)" stroke="black"/>
  <text fill="rgb(9,33,173)" font-size="25" x="542.9" y="134.4">Lhood</text>
  <path d="M 667.5 444.0 L 730.5 444.0 L 724.5 123.0 Q 696.5999999999999 107.69999999999999 715.5 60.0 L 694.5 60.0 L 667.5 75.0 L 667.5 444.0 z" fill="rgb(255,217,194)" stroke="black"/>
  <text fill="rgb(9,33,173)" font-size="25" x="675.0" y="204.0">front_left</text>
</svg>
