<?xml version="1.0" encoding="utf-8" ?>
<svg xmlns="http://www.w3.org/2000/svg" xmlns:ev="http://www.w3.org/2001/xml-events" xmlns:xlink="http://www.w3.org/1999/xlink" baseProfile="full" height="276px" version="1.1" width="921.5px">
  <defs/>
  <path d="M 60 216 L 222 216 L 222 138 L 195 60 L 168 60 Q 189.6 117.3 156 135 L 60 216 z" fill="rgb(255,217,194)" stroke="black"/>
  <text fill="rgb(9,33,173)" font-size="25" x="145.5" y="140.5">front_right</text>
  <path d="M 315.5 216.0 L 639.5 216.0 L 543.5 135.0 Q 509.9 117.3 531.5 60.0 L 504.5 60.0 Q 477.5 106.11011664193268 450.5 60.0 L 423.5 60.0 Q 445.1 117.3 411.5 135.0 L 315.5 216.0 z" fill="rgb(255,217,194)" stroke="black"/>
  <text fill="rgb(9,33,173)" font-size="25" x="452.5" y="120.75">back</text>
  <path d="M 699.5 216.0 L 861.5 216.0 L 765.5 135.0 Q 731.9 117.3 753.5 60.0 L 726.5 60.0 L 699.5 138.0 L 699.5 216.0 z" fill="rgb(255,217,194)" stroke="black"/>
  <text fill="rgb(9,33,173)" font-size="25" x="726.0" y="140.5">front_left</text>
</svg>
