<?xml version="1.0" encoding="utf-8" ?>
<svg xmlns="http://www.w3.org/2000/svg" xmlns:ev="http://www.w3.org/2001/xml-events" xmlns:xlink="http://www.w3.org/1999/xlink" baseProfile="full" height="234.0px" version="1.1" width="1300.0px">
  <defs/>
  <path d="M 60 147 L 162 147 Q 172.8 108.60000000000001 150 99 L 60 60 L 60 147 z" fill="rgb(255,217,194)" stroke="black"/>
  <text fill="rgb(9,33,173)" font-size="25" x="83.0" y="116.25">rbsleeve</text>
  <path d="M 223.0 147.0 L 313.0 108.0 Q 335.8 98.39999999999999 325.0 60.0 L 223.0 60.0 L 223.0 147.0 z" fill="rgb(255,217,194)" stroke="black"/>
  <text fill="rgb(9,33,173)" font-size="25" x="246.0" y="96.75">rfsleeve</text>
  <path d="M 386.0 174.0 L 620.0 174.0 L 569.0 111.0 Q 545.0 100.5 557.0 60.0 L 521.0 60.0 Q 503.0 82.44640423210274 485.0 60.0 L 449.0 60.0 Q 461.0 100.49999999999999 437.0 111.0 L 386.0 174.0 z" fill="rgb(255,217,194)" stroke="black"/>
  <text fill="rgb(9,33,173)" font-size="25" x="478.0" y="104.25">back</text>
  <path d="M 680.0 174.0 L 914.0 174.0 L 863.0 111.0 Q 839.0 100.5 851.0 60.0 L 815.0 60.0 L 797.0 66.0 L 779.0 60.0 L 743.0 60.0 Q 755.0 100.49999999999999 731.0 111.0 L 680.0 174.0 z" fill="rgb(255,217,194)" stroke="black"/>
  <text fill="rgb(9,33,173)" font-size="25" x="772.0" y="100.33333333333333">front</text>
  <path d="M 974.0 147.0 L 1064.0 108.0 Q 1086.8 98.39999999999999 1076.0 60.0 L 974.0 60.0 L 974.0 147.0 z" fill="rgb(255,217,194)" stroke="black"/>
  <text fill="rgb(9,33,173)" font-size="25" x="997.0" y="96.75">lbsleeve</text>
  <path d="M 1137.0 147.0 L 1239.0 147.0 Q 1249.8 108.60000000000001 1227.0 99.0 L 1137.0 60.0 L 1137.0 147.0 z" fill="rgb(255,217,194)" stroke="black"/>
  <text fill="rgb(9,33,173)" font-size="25" x="1160.0" y="116.25">lfsleeve</text>
</svg>
