<?xml version="1.0" encoding="utf-8" ?>
<svg xmlns="http://www.w3.org/2000/svg" xmlns:ev="http://www.w3.org/2001/xml-events" xmlns:xlink="http://www.w3.org/1999/xlink" baseProfile="full" height="234.0px" version="1.1" width="1419.0px">
  <defs/>
  <path d="M 60 159 L 342 159 L 342 60 L 60 60 L 60 159 z" fill="rgb(255,217,194)" stroke="black"/>
  <text fill="rgb(9,33,173)" font-size="25" x="176.0" y="112.5">skirt_back</text>
  <path d="M 402 69 L 492 69 L 492 60 L 402 60 L 402 69 z" fill="rgb(255,217,194)" stroke="black"/>
  <text fill="rgb(9,33,173)" font-size="25" x="422.0" y="67.5">wb_back</text>
  <path d="M 552 69 L 642 69 L 642 60 L 552 60 L 552 69 z" fill="rgb(255,217,194)" stroke="black"/>
  <text fill="rgb(9,33,173)" font-size="25" x="572.0" y="67.5">wb_front</text>
  <path d="M 712.0 159.0 L 994.0 159.0 L 994.0 60.0 L 712.0 60.0 L 712.0 159.0 z" fill="rgb(255,217,194)" stroke="black"/>
  <text fill="rgb(9,33,173)" font-size="25" x="828.0" y="112.5">skirt_front</text>
  <path d="M 1054.0 174.0 L 1174.0 174.0 L 1174.0 150.0 Q 1135.3 126.6 1165.0 60.0 L 1141.0 60.0 Q 1114.0 151.90078097825733 1087.0 60.0 L 1063.0 60.0 Q 1092.7 126.6 1054.0 150.0 L 1054.0 174.0 z" fill="rgb(255,217,194)" stroke="black"/>
  <text fill="rgb(9,33,173)" font-size="25" x="1089.0" y="114.0">top_back</text>
  <path d="M 1234.0 174.0 L 1354.0 174.0 L 1354.0 150.0 Q 1315.3 126.6 1345.0 60.0 L 1321.0 60.0 L 1294.0 87.0 L 1267.0 60.0 L 1243.0 60.0 Q 1272.7 126.6 1234.0 150.0 L 1234.0 174.0 z" fill="rgb(255,217,194)" stroke="black"/>
  <text fill="rgb(9,33,173)" font-size="25" x="1269.0" y="111.33333333333333">top_front</text>
</svg>
