<?xml version="1.0" encoding="utf-8" ?>
<svg xmlns="http://www.w3.org/2000/svg" xmlns:ev="http://www.w3.org/2001/xml-events" xmlns:xlink="http://www.w3.org/1999/xlink" baseProfile="full" height="453.0px" version="1.1" width="1690.0px">
  <defs/>
  <path d="M 60 213 L 162 213 Q 176.4 168.29999999999998 150 156 L 60 60 L 60 213 z" fill="rgb(255,217,194)" stroke="black"/>
  <text fill="rgb(9,33,173)" font-size="25" x="83.0" y="163.5">rbsleeve</text>
  <path d="M 223.0 213.0 L 313.0 117.0 Q 339.40000000000003 104.7 325.0 60.0 L 223.0 60.0 L 223.0 213.0 z" fill="rgb(255,217,194)" stroke="black"/>
  <text fill="rgb(9,33,173)" font-size="25" x="246.0" y="115.5">rfsleeve</text>
  <path d="M 386.0 393.0 L 512.0 393.0 L 512.0 99.0 L 479.0 60.0 L 449.0 60.0 Q 465.5 103.5 440.0 117.0 L 386.0 393.0 z" fill="rgb(255,217,194)" stroke="black"/>
  <text fill="rgb(9,33,173)" font-size="25" x="438.0" y="190.0">front_right</text>
  <path d="M 608.0 189.0 L 650.0 189.0 Q 715.7 176.39999999999998 677.0 93.0 L 644.0 102.0 L 608.0 60.0 L 608.0 189.0 z" fill="rgb(255,217,194)" stroke="black"/>
  <text fill="rgb(9,33,173)" font-size="25" x="612.4" y="129.6">Rhood</text>
  <path d="M 737.0 393.0 L 989.0 393.0 L 935.0 117.0 Q 909.5 103.5 926.0 60.0 L 896.0 60.0 L 863.0 69.0 L 830.0 60.0 L 800.0 60.0 Q 816.5 103.5 791.0 117.0 L 737.0 393.0 z" fill="rgb(255,217,194)" stroke="black"/>
  <text fill="rgb(9,33,173)" font-size="25" x="838.0" y="150.66666666666666">back</text>
  <path d="M 1049.0 189.0 L 1085.0 147.0 L 1118.0 156.0 Q 1156.6999999999998 72.60000000000001 1091.0 60.0 L 1049.0 60.0 L 1049.0 189.0 z" fill="rgb(255,217,194)" stroke="black"/>
  <text fill="rgb(9,33,173)" font-size="25" x="1053.4" y="125.4">Lhood</text>
  <path d="M 1178.0 393.0 L 1304.0 393.0 L 1250.0 117.0 Q 1224.5 103.5 1241.0 60.0 L 1211.0 60.0 L 1178.0 99.0 L 1178.0 393.0 z" fill="rgb(255,217,194)" stroke="black"/>
  <text fill="rgb(9,33,173)" font-size="25" x="1202.0" y="190.0">front_left</text>
  <path d="M 1364.0 213.0 L 1454.0 117.0 Q 1480.3999999999999 104.7 1466.0 60.0 L 1364.0 60.0 L 1364.0 213.0 z" fill="rgb(255,217,194)" stroke="black"/>
  <text fill="rgb(9,33,173)" font-size="25" x="1387.0" y="115.5">lbsleeve</text>
  <path d="M 1527.0 213.0 L 1629.0 213.0 Q 1643.3999999999999 168.29999999999998 1617.0 156.0 L 1527.0 60.0 L 1527.0 213.0 z" fill="rgb(255,217,194)" stroke="black"/>
  <text fill="rgb(9,33,173)" font-size="25" x="1550.0" y="163.5">lfsleeve</text>
</svg>
