<?xml version="1.0" encoding="utf-8" ?>
<svg xmlns="http://www.w3.org/2000/svg" xmlns:ev="http://www.w3.org/2001/xml-events" xmlns:xlink="http://www.w3.org/1999/xlink" baseProfile="full" height="261px" version="1.1" width="918.0px">
  <defs/>
  <path d="M 60 201 L 222 201 L 222 84 L 192 60 L 159 60 Q 196.2 144.60000000000002 147 174 L 60 201 z" fill="rgb(255,217,194)" stroke="black"/>
  <text fill="rgb(9,33,173)" font-size="25" x="142.0" y="133.0">front_right</text>
  <path d="M 312.0 201.0 L 636.0 201.0 L 549.0 174.0 Q 499.79999999999995 144.60000000000002 537.0 60.0 L 504.0 60.0 Q 474.0 92.40197018925792 444.0 60.0 L 411.0 60.0 Q 448.20000000000005 144.60000000000002 399.0 174.0 L 312.0 201.0 z" fill="rgb(255,217,194)" stroke="black"/>
  <text fill="rgb(9,33,173)" font-size="25" x="449.0" y="126.75">back</text>
  <path d="M 696.0 201.0 L 858.0 201.0 L 771.0 174.0 Q 721.8 144.60000000000002 759.0 60.0 L 726.0 60.0 L 696.0 84.0 L 696.0 201.0 z" fill="rgb(255,217,194)" stroke="black"/>
  <text fill="rgb(9,33,173)" font-size="25" x="726.0" y="133.0">front_left</text>
</svg>
