<?xml version="1.0" encoding="utf-8" ?>
<svg xmlns="http://www.w3.org/2000/svg" xmlns:ev="http://www.w3.org/2001/xml-events" xmlns:xlink="http://www.w3.org/1999/xlink" baseProfile="full" height="510px" version="1.1" width="1284px">
  <defs/>
  <path d="M 60 123 L 183 123 Q 197.7 72.9 168 60 L 60 63 L 60 123 z" fill="rgb(255,217,194)" stroke="black"/>
  <text fill="rgb(9,33,173)" font-size="25" x="92.75" y="95.25">rbsleeve</text>
  <path d="M 243 120 L 351 123 Q 380.7 110.1 366 60 L 243 60 L 243 120 z" fill="rgb(255,217,194)" stroke="black"/>
  <text fill="rgb(9,33,173)" font-size="25" x="275.75" y="93.75">rfsleeve</text>
  <path d="M 426 450 L 612 450 L 606 123 Q 577.1999999999999 108.89999999999999 594 60 L 546 60 Q 519.0 82.44643442822168 492 60 L 444 60 Q 460.8 108.89999999999999 432 123 L 426 450 z" fill="rgb(255,217,194)" stroke="black"/>
  <text fill="rgb(9,33,173)" font-size="25" x="494.0" y="176.25">back</text>
  <path d="M 672 450 L 858 450 L 852 123 Q 823.1999999999999 108.89999999999999 840 60 L 792 60 L 765 87 L 738 60 L 690 60 Q 706.8000000000001 108.89999999999999 678 123 L 672 450 z" fill="rgb(255,217,194)" stroke="black"/>
  <text fill="rgb(9,33,173)" font-size="25" x="740.0" y="166.66666666666666">front</text>
  <path d="M 918 120 L 1026 123 Q 1055.7 110.1 1041 60 L 918 60 L 918 120 z" fill="rgb(255,217,194)" stroke="black"/>
  <text fill="rgb(9,33,173)" font-size="25" x="950.75" y="93.75">lbsleeve</text>
  <path d="M 1101 123 L 1224 123 Q 1238.7 72.9 1209 60 L 1101 63 L 1101 123 z" fill="rgb(255,217,194)" stroke="black"/>
  <text fill="rgb(9,33,173)" font-size="25" x="1133.75" y="95.25">lfsleeve</text>
</svg>
