<?xml version="1.0" encoding="utf-8" ?>
<svg xmlns="http://www.w3.org/2000/svg" xmlns:ev="http://www.w3.org/2001/xml-events" xmlns:xlink="http://www.w3.org/1999/xlink" baseProfile="full" height="225px" version="1.1" width="706.0px">
  <defs/>
  <path d="M 60 165 L 162 165 L 162 114 L 144 60 L 87 60 Q 105.3 116.4 72 132 L 60 165 z" fill="rgb(255,217,194)" stroke="black"/>
  <text fill="rgb(9,33,173)" font-size="25" x="89.5" y="119.0">front_right</text>
  <path d="M 259.5 165.0 L 463.5 165.0 L 451.5 135.0 Q 417.0 118.5 436.5 60.0 L 379.5 60.0 Q 361.5 120.09289947072993 343.5 60.0 L 286.5 60.0 Q 306.0 118.5 271.5 135.0 L 259.5 165.0 z" fill="rgb(255,217,194)" stroke="black"/>
  <text fill="rgb(9,33,173)" font-size="25" x="336.5" y="108.0">back</text>
  <path d="M 523.5 165.0 L 625.5 165.0 L 613.5 132.0 Q 580.2 116.4 598.5 60.0 L 541.5 60.0 L 523.5 114.0 L 523.5 165.0 z" fill="rgb(255,217,194)" stroke="black"/>
  <text fill="rgb(9,33,173)" font-size="25" x="546.0" y="119.0">front_left</text>
</svg>
