<?xml version="1.0" encoding="utf-8" ?>
<svg xmlns="http://www.w3.org/2000/svg" xmlns:ev="http://www.w3.org/2001/xml-events" xmlns:xlink="http://www.w3.org/1999/xlink" baseProfile="full" height="300px" version="1.1" width="1177.5px">
  <defs/>
  <path d="M 60 240 L 291 240 L 291 90 L 264 60 L 213 60 Q 239.7 131.1 198 153 L 60 240 z" fill="rgb(255,217,194)" stroke="black"/>
  <text fill="rgb(9,33,173)" font-size="25" x="194.5" y="143.5">front_right</text>
  <path d="M 364.5 240.0 L 826.5 240.0 L 688.5 153.0 Q 646.8 131.1 673.5 60.0 L 622.5 60.0 Q 595.5 120.99639213273242 568.5 60.0 L 517.5 60.0 Q 544.2 131.1 502.5 153.0 L 364.5 240.0 z" fill="rgb(255,217,194)" stroke="black"/>
  <text fill="rgb(9,33,173)" font-size="25" x="570.5" y="131.25">back</text>
  <path d="M 886.5 240.0 L 1117.5 240.0 L 979.5 153.0 Q 937.8 131.1 964.5 60.0 L 913.5 60.0 L 886.5 90.0 L 886.5 240.0 z" fill="rgb(255,217,194)" stroke="black"/>
  <text fill="rgb(9,33,173)" font-size="25" x="933.0" y="143.5">front_left</text>
</svg>
