<?xml version="1.0" encoding="utf-8" ?>
<svg xmlns="http://www.w3.org/2000/svg" xmlns:ev="http://www.w3.org/2001/xml-events" xmlns:xlink="http://www.w3.org/1999/xlink" baseProfile="full" height="375px" version="1.1" width="1534.0px">
  <defs/>
  <path d="M 60 315 L 126 315 L 189 60 L 90 60 Q 98.7 130.5 60 138 Q 77.7 146.85 60 315 z" fill="rgb(255,217,194)" stroke="black"/>
  <text fill="rgb(9,33,173)" font-size="25" x="80.0" y="180.6">Rback</text>
  <path d="M 312 315 L 378 315 Q 360.3 146.85 378 138 Q 343.2 129.0 348 60 L 249 60 L 312 315 z" fill="rgb(255,217,194)" stroke="black"/>
  <text fill="rgb(9,33,173)" font-size="25" x="308.0" y="180.6">Rfront</text>
  <path d="M 438 72 L 477 72 L 516 72 L 516 60 L 438 60 L 438 72 z" fill="rgb(255,217,194)" stroke="black"/>
  <text fill="rgb(9,33,173)" font-size="25" x="452.0" y="70.2">wb_back</text>
  <path d="M 582.0 72.0 L 621.0 72.0 L 660.0 72.0 L 660.0 60.0 L 582.0 60.0 L 582.0 72.0 z" fill="rgb(255,217,194)" stroke="black"/>
  <text fill="rgb(9,33,173)" font-size="25" x="596.0" y="70.2">wb_front</text>
  <path d="M 736.0 162.0 L 886.0 162.0 L 886.0 147.0 Q 847.6 125.7 874.0 60.0 L 832.0 60.0 Q 811.0 109.86723486815013 790.0 60.0 L 748.0 60.0 Q 774.4 125.7 736.0 147.0 L 736.0 162.0 z" fill="rgb(255,217,194)" stroke="black"/>
  <text fill="rgb(9,33,173)" font-size="25" x="786.0" y="110.25">top_back</text>
  <path d="M 946.0 162.0 L 1096.0 162.0 L 1096.0 144.0 Q 1058.8000000000002 123.6 1084.0 60.0 L 1042.0 60.0 L 1021.0 105.0 L 1000.0 60.0 L 958.0 60.0 Q 983.2 123.6 946.0 144.0 L 946.0 162.0 z" fill="rgb(255,217,194)" stroke="black"/>
  <text fill="rgb(9,33,173)" font-size="25" x="996.0" y="109.33333333333333">top_front</text>
  <path d="M 1219.0 315.0 L 1285.0 315.0 Q 1267.3 146.85 1285.0 138.0 Q 1246.3 130.5 1255.0 60.0 L 1156.0 60.0 L 1219.0 315.0 z" fill="rgb(255,217,194)" stroke="black"/>
  <text fill="rgb(9,33,173)" font-size="25" x="1215.0" y="180.6">Lback</text>
  <path d="M 1345.0 315.0 L 1411.0 315.0 L 1474.0 60.0 L 1375.0 60.0 Q 1379.8 129.0 1345.0 138.0 Q 1362.7 146.85 1345.0 315.0 z" fill="rgb(255,217,194)" stroke="black"/>
  <text fill="rgb(9,33,173)" font-size="25" x="1365.0" y="180.6">Lfront</text>
</svg>
