<?xml version="1.0" encoding="utf-8" ?>
<svg xmlns="http://www.w3.org/2000/svg" xmlns:ev="http://www.w3.org/2001/xml-events" xmlns:xlink="http://www.w3.org/1999/xlink" baseProfile="full" height="267px" version="1.1" width="1572.5px">
  <defs/>
  <path d="M 60 141 L 174 141 Q 195.6 83.7 162 66 L 60 60 L 60 141 z" fill="rgb(255,217,194)" stroke="black"/>
  <text fill="rgb(9,33,173)" font-size="25" x="89.0" y="105.0">rbsleeve</text>
  <path d="M 234 141 L 336 135 Q 369.6 117.3 348 60 L 234 60 L 234 141 z" fill="rgb(255,217,194)" stroke="black"/>
  <text fill="rgb(9,33,173)" font-size="25" x="263.0" y="102.0">rfsleeve</text>
  <path d="M 408 207 L 558 207 L 558 66 L 537 60 L 504 60 Q 525.6 117.3 492 135 L 408 207 z" fill="rgb(255,217,194)" stroke="black"/>
  <text fill="rgb(9,33,173)" font-size="25" x="484.5" y="125.5">front_right</text>
  <path d="M 654.5 207.0 L 954.5 207.0 L 870.5 135.0 Q 836.9 117.3 858.5 60.0 L 825.5 60.0 Q 804.5 121.63057020352107 783.5 60.0 L 750.5 60.0 Q 772.1 117.3 738.5 135.0 L 654.5 207.0 z" fill="rgb(255,217,194)" stroke="black"/>
  <text fill="rgb(9,33,173)" font-size="25" x="779.5" y="118.5">back</text>
  <path d="M 1014.5 207.0 L 1164.5 207.0 L 1080.5 135.0 Q 1046.9 117.3 1068.5 60.0 L 1035.5 60.0 L 1014.5 66.0 L 1014.5 207.0 z" fill="rgb(255,217,194)" stroke="black"/>
  <text fill="rgb(9,33,173)" font-size="25" x="1038.0" y="125.5">front_left</text>
  <path d="M 1224.5 141.0 L 1326.5 135.0 Q 1360.1 117.3 1338.5 60.0 L 1224.5 60.0 L 1224.5 141.0 z" fill="rgb(255,217,194)" stroke="black"/>
  <text fill="rgb(9,33,173)" font-size="25" x="1253.5" y="102.0">lbsleeve</text>
  <path d="M 1398.5 141.0 L 1512.5 141.0 Q 1534.1 83.7 1500.5 66.0 L 1398.5 60.0 L 1398.5 141.0 z" fill="rgb(255,217,194)" stroke="black"/>
  <text fill="rgb(9,33,173)" font-size="25" x="1427.5" y="105.0">lfsleeve</text>
</svg>
