<?xml version="1.0" encoding="utf-8" ?>
<svg xmlns="http://www.w3.org/2000/svg" xmlns:ev="http://www.w3.org/2001/xml-events" xmlns:xlink="http://www.w3.org/1999/xlink" baseProfile="full" height="288px" version="1.1" width="1486.0px">
  <defs/>
  <path d="M 60 228 L 354 228 L 354 60 L 60 60 L 60 228 z" fill="rgb(255,217,194)" stroke="black"/>
  <text fill="rgb(9,33,173)" font-size="25" x="182.0" y="147.0">skirt_back</text>
  <path d="M 414 72 L 504 72 L 504 60 L 414 60 L 414 72 z" fill="rgb(255,217,194)" stroke="black"/>
  <text fill="rgb(9,33,173)" font-size="25" x="434.0" y="69.0">wb_back</text>
  <path d="M 564 72 L 654 72 L 654 60 L 564 60 L 564 72 z" fill="rgb(255,217,194)" stroke="black"/>
  <text fill="rgb(9,33,173)" font-size="25" x="584.0" y="69.0">wb_front</text>
  <path d="M 724.0 228.0 L 1018.0 228.0 L 1018.0 60.0 L 724.0 60.0 L 724.0 228.0 z" fill="rgb(255,217,194)" stroke="black"/>
  <text fill="rgb(9,33,173)" font-size="25" x="846.0" y="147.0">skirt_front</text>
  <path d="M 1078.0 168.0 L 1222.0 168.0 L 1222.0 117.0 Q 1195.6000000000001 104.7 1210.0 60.0 L 1168.0 60.0 Q 1150.0 126.8665893158591 1132.0 60.0 L 1090.0 60.0 Q 1104.3999999999999 104.7 1078.0 117.0 L 1078.0 168.0 z" fill="rgb(255,217,194)" stroke="black"/>
  <text fill="rgb(9,33,173)" font-size="25" x="1125.0" y="104.25">top_back</text>
  <path d="M 1282.0 165.0 L 1426.0 165.0 L 1426.0 117.0 Q 1399.6000000000001 104.7 1414.0 60.0 L 1372.0 60.0 L 1354.0 114.0 L 1336.0 60.0 L 1294.0 60.0 Q 1308.3999999999999 104.7 1282.0 117.0 L 1282.0 165.0 z" fill="rgb(255,217,194)" stroke="black"/>
  <text fill="rgb(9,33,173)" font-size="25" x="1329.0" y="105.0">top_front</text>
</svg>
