<?xml version="1.0" encoding="utf-8" ?>
<svg xmlns="http://www.w3.org/2000/svg" xmlns:ev="http://www.w3.org/2001/xml-events" xmlns:xlink="http://www.w3.org/1999/xlink" baseProfile="full" height="447.0px" version="1.1" width="1737.5px">
  <defs/>
  <path d="M 60 150 L 132 150 Q 159.6 82.2 120 60 L 60 66 L 60 150 z" fill="rgb(255,217,194)" stroke="black"/>
  <text fill="rgb(9,33,173)" font-size="25" x="68.0" y="109.5">rbsleeve</text>
  <path d="M 208.0 144.0 L 268.0 150.0 Q 307.6 127.8 280.0 60.0 L 208.0 60.0 L 208.0 144.0 z" fill="rgb(255,217,194)" stroke="black"/>
  <text fill="rgb(9,33,173)" font-size="25" x="216.0" y="106.5">rfsleeve</text>
  <path d="M 356.0 387.0 L 515.0 387.0 L 515.0 90.0 L 491.0 60.0 L 446.0 60.0 Q 473.6 127.8 434.0 150.0 L 356.0 387.0 z" fill="rgb(255,217,194)" stroke="black"/>
  <text fill="rgb(9,33,173)" font-size="25" x="434.5" y="192.0">front_right</text>
  <path d="M 604.5 192.0 L 649.5 186.0 Q 717.0 163.5 664.5 81.0 L 640.5 90.0 L 616.5 60.0 L 604.5 192.0 z" fill="rgb(255,217,194)" stroke="black"/>
  <text fill="rgb(9,33,173)" font-size="25" x="610.1" y="124.8">Rhood</text>
  <path d="M 724.5 387.0 L 1042.5 387.0 L 964.5 150.0 Q 924.9 127.8 952.5 60.0 L 907.5 60.0 L 883.5 69.0 L 859.5 60.0 L 814.5 60.0 Q 842.1 127.8 802.5 150.0 L 724.5 387.0 z" fill="rgb(255,217,194)" stroke="black"/>
  <text fill="rgb(9,33,173)" font-size="25" x="858.5" y="156.66666666666666">back</text>
  <path d="M 1114.5 192.0 L 1138.5 162.0 L 1162.5 171.0 Q 1215.0 88.5 1147.5 66.0 L 1102.5 60.0 L 1114.5 192.0 z" fill="rgb(255,217,194)" stroke="black"/>
  <text fill="rgb(9,33,173)" font-size="25" x="1108.1" y="133.2">Lhood</text>
  <path d="M 1222.5 387.0 L 1381.5 387.0 L 1303.5 150.0 Q 1263.9 127.8 1291.5 60.0 L 1246.5 60.0 L 1222.5 90.0 L 1222.5 387.0 z" fill="rgb(255,217,194)" stroke="black"/>
  <text fill="rgb(9,33,173)" font-size="25" x="1253.0" y="192.0">front_left</text>
  <path d="M 1441.5 144.0 L 1501.5 150.0 Q 1541.1 127.8 1513.5 60.0 L 1441.5 60.0 L 1441.5 144.0 z" fill="rgb(255,217,194)" stroke="black"/>
  <text fill="rgb(9,33,173)" font-size="25" x="1449.5" y="106.5">lbsleeve</text>
  <path d="M 1589.5 150.0 L 1661.5 150.0 Q 1689.1 82.2 1649.5 60.0 L 1589.5 66.0 L 1589.5 150.0 z" fill="rgb(255,217,194)" stroke="black"/>
  <text fill="rgb(9,33,173)" font-size="25" x="1597.5" y="109.5">lfsleeve</text>
</svg>
