<?xml version="1.0" encoding="utf-8" ?>
<svg xmlns="http://www.w3.org/2000/svg" xmlns:ev="http://www.w3.org/2001/xml-events" xmlns:xlink="http://www.w3.org/1999/xlink" baseProfile="full" height="303.0px" version="1.1" width="1578.5px">
  <defs/>
  <path d="M 60 177 L 153 177 Q 166.2 134.39999999999998 141 123 L 60 60 L 60 177 z" fill="rgb(255,217,194)" stroke="black"/>
  <text fill="rgb(9,33,173)" font-size="25" x="78.5" y="137.25">rbsleeve</text>
  <path d="M 218.5 177.0 L 299.5 114.0 Q 324.70000000000005 102.6 311.5 60.0 L 218.5 60.0 L 218.5 177.0 z" fill="rgb(255,217,194)" stroke="black"/>
  <text fill="rgb(9,33,173)" font-size="25" x="237.0" y="105.75">rfsleeve</text>
  <path d="M 377.0 243.0 L 545.0 243.0 L 545.0 111.0 L 521.0 60.0 L 488.0 60.0 Q 503.3 101.39999999999999 479.0 114.0 L 377.0 243.0 z" fill="rgb(255,217,194)" stroke="black"/>
  <text fill="rgb(9,33,173)" font-size="25" x="467.5" y="141.5">front_right</text>
  <path d="M 637.5 243.0 L 973.5 243.0 L 871.5 114.0 Q 847.1999999999999 101.39999999999999 862.5 60.0 L 829.5 60.0 Q 805.5 218.4951741475761 781.5 60.0 L 748.5 60.0 Q 763.8000000000001 101.39999999999999 739.5 114.0 L 637.5 243.0 z" fill="rgb(255,217,194)" stroke="black"/>
  <text fill="rgb(9,33,173)" font-size="25" x="780.5" y="122.25">back</text>
  <path d="M 1033.5 243.0 L 1201.5 243.0 L 1099.5 114.0 Q 1075.2 101.39999999999999 1090.5 60.0 L 1057.5 60.0 L 1033.5 111.0 L 1033.5 243.0 z" fill="rgb(255,217,194)" stroke="black"/>
  <text fill="rgb(9,33,173)" font-size="25" x="1061.0" y="141.5">front_left</text>
  <path d="M 1261.5 177.0 L 1342.5 114.0 Q 1367.6999999999998 102.6 1354.5 60.0 L 1261.5 60.0 L 1261.5 177.0 z" fill="rgb(255,217,194)" stroke="black"/>
  <text fill="rgb(9,33,173)" font-size="25" x="1280.0" y="105.75">lbsleeve</text>
  <path d="M 1420.0 177.0 L 1513.0 177.0 Q 1526.1999999999998 134.39999999999998 1501.0 123.0 L 1420.0 60.0 L 1420.0 177.0 z" fill="rgb(255,217,194)" stroke="black"/>
  <text fill="rgb(9,33,173)" font-size="25" x="1438.5" y="137.25">lfsleeve</text>
</svg>
