<?xml version="1.0" encoding="utf-8" ?>
<svg xmlns="http://www.w3.org/2000/svg" xmlns:ev="http://www.w3.org/2001/xml-events" xmlns:xlink="http://www.w3.org/1999/xlink" baseProfile="full" height="348px" version="1.1" width="1068px">
  <defs/>
  <path d="M 60 288 L 138 288 Q 159.6 94.80000000000001 150 60 L 90 60 Q 104.7 141.75 60 153 Q 73.5 159.75 60 288 z" fill="rgb(255,217,194)" stroke="black"/>
  <text fill="rgb(9,33,173)" font-size="25" x="74.6" y="172.8">Rback</text>
  <path d="M 222 288 L 300 288 Q 286.5 159.75 300 153 Q 259.95 140.25 270 60 L 210 60 Q 200.4 94.79999999999998 222 288 z" fill="rgb(255,217,194)" stroke="black"/>
  <text fill="rgb(9,33,173)" font-size="25" x="235.39999999999998" y="172.8">Rfront</text>
  <path d="M 375 168 L 432 168 L 489 168 L 504 105 Q 482.4 96.3 492 60 L 456 60 Q 432.0 114.37454462354485 408 60 L 372 60 Q 381.6 96.3 360 105 L 375 168 z" fill="rgb(255,217,194)" stroke="black"/>
  <text fill="rgb(9,33,173)" font-size="25" x="407.0" y="109.0">up_back</text>
  <path d="M 579 165 L 636 165 L 693 165 L 708 102 Q 687.6 94.2 696 60 L 660 60 L 636 114 L 612 60 L 576 60 Q 584.4 94.2 564 102 L 579 165 z" fill="rgb(255,217,194)" stroke="black"/>
  <text fill="rgb(9,33,173)" font-size="25" x="611.0" y="108.3">up_front</text>
  <path d="M 780 288 L 858 288 Q 844.5 159.75 858 153 Q 813.3 141.75 828 60 L 768 60 Q 758.4 94.79999999999998 780 288 z" fill="rgb(255,217,194)" stroke="black"/>
  <text fill="rgb(9,33,173)" font-size="25" x="793.4" y="172.8">Lback</text>
  <path d="M 918 288 L 996 288 Q 1017.6 94.80000000000001 1008 60 L 948 60 Q 958.05 140.25 918 153 Q 931.5 159.75 918 288 z" fill="rgb(255,217,194)" stroke="black"/>
  <text fill="rgb(9,33,173)" font-size="25" x="932.6" y="172.8">Lfront</text>
</svg>
