<?xml version="1.0" encoding="utf-8" ?>
<svg xmlns="http://www.w3.org/2000/svg" xmlns:ev="http://www.w3.org/2001/xml-events" xmlns:xlink="http://www.w3.org/1999/xlink" baseProfile="full" height="327px" version="1.1" width="1140px">
  <defs/>
  <path d="M 60 267 L 102 267 Q 165.9 94.20000000000002 165 60 L 90 60 Q 104.7 141.75 60 153 Q 71.4 158.7 60 267 z" fill="rgb(255,217,194)" stroke="black"/>
  <text fill="rgb(9,33,173)" font-size="25" x="70.4" y="164.4">Rback</text>
  <path d="M 288 267 L 330 267 Q 318.6 158.7 330 153 Q 289.95 140.25 300 60 L 225 60 Q 224.1 94.2 288 267 z" fill="rgb(255,217,194)" stroke="black"/>
  <text fill="rgb(9,33,173)" font-size="25" x="269.6" y="164.4">Rfront</text>
  <path d="M 390 168 L 465 168 L 540 168 L 522 108 Q 500.09999999999997 97.19999999999999 513 60 L 486 60 Q 465.0 89.55506862472144 444 60 L 417 60 Q 429.9 97.19999999999999 408 108 L 390 168 z" fill="rgb(255,217,194)" stroke="black"/>
  <text fill="rgb(9,33,173)" font-size="25" x="440.0" y="109.66666666666667">up_back</text>
  <path d="M 600 165 L 675 165 L 750 165 L 732 108 Q 710.0999999999999 97.19999999999999 723 60 L 696 60 L 675 135 L 654 60 L 627 60 Q 639.9000000000001 97.19999999999999 618 108 L 600 165 z" fill="rgb(255,217,194)" stroke="black"/>
  <text fill="rgb(9,33,173)" font-size="25" x="650.0" y="111.6">up_front</text>
  <path d="M 873 267 L 915 267 Q 903.6 158.7 915 153 Q 870.3 141.75 885 60 L 810 60 Q 809.1 94.2 873 267 z" fill="rgb(255,217,194)" stroke="black"/>
  <text fill="rgb(9,33,173)" font-size="25" x="854.6" y="164.4">Lback</text>
  <path d="M 975 267 L 1017 267 Q 1080.8999999999999 94.20000000000002 1080 60 L 1005 60 Q 1015.05 140.25 975 153 Q 986.4 158.7 975 267 z" fill="rgb(255,217,194)" stroke="black"/>
  <text fill="rgb(9,33,173)" font-size="25" x="985.4" y="164.4">Lfront</text>
</svg>
