<?xml version="1.0" encoding="utf-8" ?>
<svg xmlns="http://www.w3.org/2000/svg" xmlns:ev="http://www.w3.org/2001/xml-events" xmlns:xlink="http://www.w3.org/1999/xlink" baseProfile="full" height="318px" version="1.1" width="1116px">
  <defs/>
  <path d="M 60 258 L 105 258 Q 163.35 92.55000000000001 162 60 L 90 60 Q 104.7 141.75 60 153 Q 70.5 158.25 60 258 z" fill="rgb(255,217,194)" stroke="black"/>
  <text fill="rgb(9,33,173)" font-size="25" x="70.4" y="160.8">Rback</text>
  <path d="M 279 258 L 324 258 Q 313.5 158.25 324 153 Q 283.95 140.25 294 60 L 222 60 Q 220.65 92.55 279 258 z" fill="rgb(255,217,194)" stroke="black"/>
  <text fill="rgb(9,33,173)" font-size="25" x="263.6" y="160.8">Rfront</text>
  <path d="M 384 168 L 456 168 L 528 168 L 516 105 Q 495.29999999999995 95.1 507 60 L 480 60 Q 456.0 116.9563977267832 432 60 L 405 60 Q 416.7 95.1 396 105 L 384 168 z" fill="rgb(255,217,194)" stroke="black"/>
  <text fill="rgb(9,33,173)" font-size="25" x="431.0" y="109.0">up_back</text>
  <path d="M 588 165 L 660 165 L 732 165 L 720 105 Q 699.3 95.1 711 60 L 684 60 L 660 126 L 636 60 L 609 60 Q 620.7 95.1 600 105 L 588 165 z" fill="rgb(255,217,194)" stroke="black"/>
  <text fill="rgb(9,33,173)" font-size="25" x="635.0" y="110.1">up_front</text>
  <path d="M 849 258 L 894 258 Q 883.5 158.25 894 153 Q 849.3 141.75 864 60 L 792 60 Q 790.65 92.55 849 258 z" fill="rgb(255,217,194)" stroke="black"/>
  <text fill="rgb(9,33,173)" font-size="25" x="833.6" y="160.8">Lback</text>
  <path d="M 954 258 L 999 258 Q 1057.3500000000001 92.55000000000001 1056 60 L 984 60 Q 994.05 140.25 954 153 Q 964.5 158.25 954 258 z" fill="rgb(255,217,194)" stroke="black"/>
  <text fill="rgb(9,33,173)" font-size="25" x="964.4" y="160.8">Lfront</text>
</svg>
