<?xml version="1.0" encoding="utf-8" ?>
<svg xmlns="http://www.w3.org/2000/svg" xmlns:ev="http://www.w3.org/2001/xml-events" xmlns:xlink="http://www.w3.org/1999/xlink" baseProfile="full" height="246px" version="1.1" width="1582.0px">
  <defs/>
  <path d="M 60 186 L 402 186 L 402 60 L 60 60 L 60 186 z" fill="rgb(255,217,194)" stroke="black"/>
  <text fill="rgb(9,33,173)" font-size="25" x="206.0" y="126.0">skirt_back</text>
  <path d="M 462 81 L 552 81 L 552 60 L 462 60 L 462 81 z" fill="rgb(255,217,194)" stroke="black"/>
  <text fill="rgb(9,33,173)" font-size="25" x="482.0" y="73.5">wb_back</text>
  <path d="M 612 81 L 702 81 L 702 60 L 612 60 L 612 81 z" fill="rgb(255,217,194)" stroke="black"/>
  <text fill="rgb(9,33,173)" font-size="25" x="632.0" y="73.5">wb_front</text>
  <path d="M 772.0 186.0 L 1114.0 186.0 L 1114.0 60.0 L 772.0 60.0 L 772.0 186.0 z" fill="rgb(255,217,194)" stroke="black"/>
  <text fill="rgb(9,33,173)" font-size="25" x="918.0" y="126.0">skirt_front</text>
  <path d="M 1174.0 186.0 L 1318.0 186.0 L 1318.0 150.0 Q 1278.4 127.8 1306.0 60.0 L 1270.0 60.0 Q 1246.0 107.1581076157438 1222.0 60.0 L 1186.0 60.0 Q 1213.6 127.8 1174.0 150.0 L 1174.0 186.0 z" fill="rgb(255,217,194)" stroke="black"/>
  <text fill="rgb(9,33,173)" font-size="25" x="1221.0" y="117.0">top_back</text>
  <path d="M 1378.0 186.0 L 1522.0 186.0 L 1522.0 150.0 Q 1482.4 127.8 1510.0 60.0 L 1474.0 60.0 L 1450.0 117.0 L 1426.0 60.0 L 1390.0 60.0 Q 1417.6 127.8 1378.0 150.0 L 1378.0 186.0 z" fill="rgb(255,217,194)" stroke="black"/>
  <text fill="rgb(9,33,173)" font-size="25" x="1425.0" y="117.33333333333333">top_front</text>
</svg>
