<?xml version="1.0" encoding="utf-8" ?>
<svg xmlns="http://www.w3.org/2000/svg" xmlns:ev="http://www.w3.org/2001/xml-events" xmlns:xlink="http://www.w3.org/1999/xlink" baseProfile="full" height="324.0px" version="1.1" width="1558.0px">
  <defs/>
  <path d="M 60 168 L 129 168 Q 154.2 104.4 117 84 L 60 60 L 60 168 z" fill="rgb(255,217,194)" stroke="black"/>
  <text fill="rgb(9,33,173)" font-size="25" x="66.5" y="123.0">rbsleeve</text>
  <path d="M 206.5 168.0 L 263.5 144.0 Q 300.70000000000005 123.6 275.5 60.0 L 206.5 60.0 L 206.5 168.0 z" fill="rgb(255,217,194)" stroke="black"/>
  <text fill="rgb(9,33,173)" font-size="25" x="213.0" y="111.0">rfsleeve</text>
  <path d="M 353.0 264.0 Q 455.0 301.54824897698165 557.0 264.0 L 527.0 102.0 L 518.0 60.0 L 392.0 60.0 L 383.0 102.0 L 353.0 264.0 z" fill="rgb(255,217,194)" stroke="black"/>
  <text fill="rgb(9,33,173)" font-size="25" x="430.0" y="145.0">skirt_back</text>
  <path d="M 617.0 264.0 Q 719.0 301.7692649460822 821.0 264.0 L 791.0 102.0 L 782.0 60.0 L 656.0 60.0 L 647.0 102.0 L 617.0 264.0 z" fill="rgb(255,217,194)" stroke="black"/>
  <text fill="rgb(9,33,173)" font-size="25" x="694.0" y="145.0">skirt_front</text>
  <path d="M 884.0 168.0 L 1010.0 168.0 L 1013.0 144.0 Q 976.6999999999999 122.39999999999999 1004.0 60.0 L 962.0 60.0 Q 947.0 117.05242596319766 932.0 60.0 L 890.0 60.0 Q 917.3000000000001 122.39999999999999 881.0 144.0 L 884.0 168.0 z" fill="rgb(255,217,194)" stroke="black"/>
  <text fill="rgb(9,33,173)" font-size="25" x="922.0" y="111.0">top_back</text>
  <path d="M 1076.0 165.0 L 1202.0 165.0 L 1205.0 144.0 Q 1168.7 122.39999999999999 1196.0 60.0 L 1154.0 60.0 L 1139.0 81.0 L 1124.0 60.0 L 1082.0 60.0 Q 1109.3 122.39999999999999 1073.0 144.0 L 1076.0 165.0 z" fill="rgb(255,217,194)" stroke="black"/>
  <text fill="rgb(9,33,173)" font-size="25" x="1114.0" y="107.33333333333333">top_front</text>
  <path d="M 1265.0 168.0 L 1322.0 144.0 Q 1359.1999999999998 123.6 1334.0 60.0 L 1265.0 60.0 L 1265.0 168.0 z" fill="rgb(255,217,194)" stroke="black"/>
  <text fill="rgb(9,33,173)" font-size="25" x="1271.5" y="111.0">lbsleeve</text>
  <path d="M 1411.5 168.0 L 1480.5 168.0 Q 1505.6999999999998 104.4 1468.5 84.0 L 1411.5 60.0 L 1411.5 168.0 z" fill="rgb(255,217,194)" stroke="black"/>
  <text fill="rgb(9,33,173)" font-size="25" x="1418.0" y="123.0">lfsleeve</text>
</svg>
