<?xml version="1.0" encoding="utf-8" ?>
<svg xmlns="http://www.w3.org/2000/svg" xmlns:ev="http://www.w3.org/2001/xml-events" xmlns:xlink="http://www.w3.org/1999/xlink" baseProfile="full" height="330.0px" version="1.1" width="1384.0px">
  <defs/>
  <path d="M 60 174 L 114 174 Q 142.8 104.10000000000001 102 81 L 60 60 L 60 174 z" fill="rgb(255,217,194)" stroke="black"/>
  <text fill="rgb(9,33,173)" font-size="25" x="59.0" y="125.25">rbsleeve</text>
  <path d="M 199.0 174.0 L 241.0 153.0 Q 281.8 129.9 253.0 60.0 L 199.0 60.0 L 199.0 174.0 z" fill="rgb(255,217,194)" stroke="black"/>
  <text fill="rgb(9,33,173)" font-size="25" x="198.0" y="114.75">rfsleeve</text>
  <path d="M 338.0 270.0 L 530.0 270.0 L 497.0 153.0 Q 457.1 128.7 488.0 60.0 L 470.0 60.0 L 434.0 69.0 L 398.0 60.0 L 380.0 60.0 Q 410.9 128.7 371.0 153.0 L 338.0 270.0 z" fill="rgb(255,217,194)" stroke="black"/>
  <text fill="rgb(9,33,173)" font-size="25" x="409.0" y="131.33333333333334">back</text>
  <path d="M 590.0 270.0 L 782.0 270.0 L 749.0 153.0 Q 709.0999999999999 128.7 740.0 60.0 L 722.0 60.0 L 686.0 93.0 L 650.0 60.0 L 632.0 60.0 Q 662.9000000000001 128.7 623.0 153.0 L 590.0 270.0 z" fill="rgb(255,217,194)" stroke="black"/>
  <text fill="rgb(9,33,173)" font-size="25" x="661.0" y="134.0">front</text>
  <path d="M 845.0 180.0 L 857.0 180.0 Q 931.7 185.39999999999998 914.0 84.0 L 881.0 93.0 L 842.0 60.0 L 845.0 180.0 z" fill="rgb(255,217,194)" stroke="black"/>
  <text fill="rgb(9,33,173)" font-size="25" x="842.8" y="122.4">Rhood</text>
  <path d="M 974.0 180.0 L 1013.0 147.0 L 1046.0 156.0 Q 1063.7 54.600000000000016 989.0 60.0 L 977.0 60.0 L 974.0 180.0 z" fill="rgb(255,217,194)" stroke="black"/>
  <text fill="rgb(9,33,173)" font-size="25" x="974.8" y="123.6">Lhood</text>
  <path d="M 1106.0 174.0 L 1148.0 153.0 Q 1188.8 129.9 1160.0 60.0 L 1106.0 60.0 L 1106.0 174.0 z" fill="rgb(255,217,194)" stroke="black"/>
  <text fill="rgb(9,33,173)" font-size="25" x="1105.0" y="114.75">lbsleeve</text>
  <path d="M 1245.0 174.0 L 1299.0 174.0 Q 1327.8 104.10000000000001 1287.0 81.0 L 1245.0 60.0 L 1245.0 174.0 z" fill="rgb(255,217,194)" stroke="black"/>
  <text fill="rgb(9,33,173)" font-size="25" x="1244.0" y="125.25">lfsleeve</text>
</svg>
