<?xml version="1.0" encoding="utf-8" ?>
<svg xmlns="http://www.w3.org/2000/svg" xmlns:ev="http://www.w3.org/2001/xml-events" xmlns:xlink="http://www.w3.org/1999/xlink" baseProfile="full" height="459px" version="1.1" width="871.0px">
  <defs/>
  <path d="M 63 399 L 141 399 L 141 99 L 123 60 L 72 60 Q 84.0 100.49999999999999 60 111 L 63 399 z" fill="rgb(255,217,194)" stroke="black"/>
  <text fill="rgb(9,33,173)" font-size="25" x="75.0" y="191.0">front_right</text>
  <path d="M 245.0 201.0 L 281.0 198.0 Q 351.2 176.4 299.0 90.0 L 281.0 99.0 L 263.0 60.0 L 245.0 201.0 z" fill="rgb(255,217,194)" stroke="black"/>
  <text fill="rgb(9,33,173)" font-size="25" x="248.8" y="132.6">Rhood</text>
  <path d="M 362.0 399.0 L 518.0 399.0 L 521.0 111.0 Q 497.0 100.5 509.0 60.0 L 458.0 60.0 L 440.0 69.0 L 422.0 60.0 L 371.0 60.0 Q 383.0 100.49999999999999 359.0 111.0 L 362.0 399.0 z" fill="rgb(255,217,194)" stroke="black"/>
  <text fill="rgb(9,33,173)" font-size="25" x="415.0" y="150.66666666666666">back</text>
  <path d="M 599.0 201.0 L 617.0 162.0 L 635.0 171.0 Q 687.1999999999999 84.60000000000001 617.0 63.0 L 581.0 60.0 L 599.0 201.0 z" fill="rgb(255,217,194)" stroke="black"/>
  <text fill="rgb(9,33,173)" font-size="25" x="584.8" y="134.4">Lhood</text>
  <path d="M 695.0 399.0 L 773.0 399.0 L 776.0 111.0 Q 752.0 100.5 764.0 60.0 L 713.0 60.0 L 695.0 99.0 L 695.0 399.0 z" fill="rgb(255,217,194)" stroke="black"/>
  <text fill="rgb(9,33,173)" font-size="25" x="711.0" y="191.0">front_left</text>
</svg>
