<?xml version="1.0" encoding="utf-8" ?>
<svg xmlns="http://www.w3.org/2000/svg" xmlns:ev="http://www.w3.org/2001/xml-events" xmlns:xlink="http://www.w3.org/1999/xlink" baseProfile="full" height="315px" version="1.1" width="1378.0px">
  <defs/>
  <path d="M 60 255 L 312 255 L 312 60 L 60 60 L 60 255 z" fill="rgb(255,217,194)" stroke="black"/>
  <text fill="rgb(9,33,173)" font-size="25" x="161.0" y="160.5">skirt_back</text>
  <path d="M 372 66 L 462 66 L 462 60 L 372 60 L 372 66 z" fill="rgb(255,217,194)" stroke="black"/>
  <text fill="rgb(9,33,173)" font-size="25" x="392.0" y="66.0">wb_back</text>
  <path d="M 522 66 L 612 66 L 612 60 L 522 60 L 522 66 z" fill="rgb(255,217,194)" stroke="black"/>
  <text fill="rgb(9,33,173)" font-size="25" x="542.0" y="66.0">wb_front</text>
  <path d="M 682.0 255.0 L 934.0 255.0 L 934.0 60.0 L 682.0 60.0 L 682.0 255.0 z" fill="rgb(255,217,194)" stroke="black"/>
  <text fill="rgb(9,33,173)" font-size="25" x="783.0" y="160.5">skirt_front</text>
  <path d="M 994.0 189.0 L 1126.0 189.0 L 1126.0 117.0 Q 1099.6000000000001 104.7 1114.0 60.0 L 1093.0 60.0 Q 1060.0 150.91378554347088 1027.0 60.0 L 1006.0 60.0 Q 1020.4 104.7 994.0 117.0 L 994.0 189.0 z" fill="rgb(255,217,194)" stroke="black"/>
  <text fill="rgb(9,33,173)" font-size="25" x="1035.0" y="109.5">top_back</text>
  <path d="M 1186.0 189.0 L 1318.0 189.0 L 1318.0 114.0 Q 1292.8000000000002 102.6 1306.0 60.0 L 1285.0 60.0 L 1252.0 99.0 L 1219.0 60.0 L 1198.0 60.0 Q 1211.1999999999998 102.6 1186.0 114.0 L 1186.0 189.0 z" fill="rgb(255,217,194)" stroke="black"/>
  <text fill="rgb(9,33,173)" font-size="25" x="1227.0" y="108.0">top_front</text>
</svg>
