<?xml version="1.0" encoding="utf-8" ?>
<svg xmlns="http://www.w3.org/2000/svg" xmlns:ev="http://www.w3.org/2001/xml-events" xmlns:xlink="http://www.w3.org/1999/xlink" baseProfile="full" height="414px" version="1.1" width="1176px">
  <defs/>
  <path d="M 60 354 L 147 351 Q 179.4 104.7 168 60 L 90 60 Q 104.7 141.75 60 153 Q 80.1 163.05 60 354 z" fill="rgb(255,217,194)" stroke="black"/>
  <text fill="rgb(9,33,173)" font-size="25" x="80.0" y="198.6">Rback</text>
  <path d="M 249 351 L 336 354 Q 315.9 163.05 336 153 Q 295.95 140.25 306 60 L 228 60 Q 216.6 104.7 249 351 z" fill="rgb(255,217,194)" stroke="black"/>
  <text fill="rgb(9,33,173)" font-size="25" x="266.0" y="198.6">Rfront</text>
  <path d="M 396 168 L 477 168 L 558 168 L 546 132 Q 513.6 115.2 534 60 L 510 60 Q 477.0 86.44935595035187 444 60 L 420 60 Q 440.40000000000003 115.2 408 132 L 396 168 z" fill="rgb(255,217,194)" stroke="black"/>
  <text fill="rgb(9,33,173)" font-size="25" x="452.0" y="115.0">up_back</text>
  <path d="M 618 165 L 699 165 L 780 165 L 768 132 Q 735.6 115.2 756 60 L 732 60 L 699 132 L 666 60 L 642 60 Q 662.4 115.2 630 132 L 618 165 z" fill="rgb(255,217,194)" stroke="black"/>
  <text fill="rgb(9,33,173)" font-size="25" x="674.0" y="116.1">up_front</text>
  <path d="M 861 351 L 948 354 Q 927.9 163.05 948 153 Q 903.3 141.75 918 60 L 840 60 Q 828.6 104.7 861 351 z" fill="rgb(255,217,194)" stroke="black"/>
  <text fill="rgb(9,33,173)" font-size="25" x="878.0" y="198.6">Lback</text>
  <path d="M 1008 354 L 1095 351 Q 1127.3999999999999 104.7 1116 60 L 1038 60 Q 1048.05 140.25 1008 153 Q 1028.1 163.05 1008 354 z" fill="rgb(255,217,194)" stroke="black"/>
  <text fill="rgb(9,33,173)" font-size="25" x="1028.0" y="198.6">Lfront</text>
</svg>
