<?xml version="1.0" encoding="utf-8" ?>
<svg xmlns="http://www.w3.org/2000/svg" xmlns:ev="http://www.w3.org/2001/xml-events" xmlns:xlink="http://www.w3.org/1999/xlink" baseProfile="full" height="300.0px" version="1.1" width="1666.0px">
  <defs/>
  <path d="M 60 177 L 105 177 Q 124.19999999999999 123.89999999999999 93 108 L 60 60 L 60 177 z" fill="rgb(255,217,194)" stroke="black"/>
  <text fill="rgb(9,33,173)" font-size="25" x="54.5" y="133.5">rbsleeve</text>
  <path d="M 194.5 177.0 L 227.5 129.0 Q 258.7 113.1 239.5 60.0 L 194.5 60.0 L 194.5 177.0 z" fill="rgb(255,217,194)" stroke="black"/>
  <text fill="rgb(9,33,173)" font-size="25" x="189.0" y="109.5">rfsleeve</text>
  <path d="M 329.0 240.0 L 410.0 240.0 Q 434.3 87.9 428.0 60.0 L 359.0 60.0 Q 373.7 141.75 329.0 153.0 Q 337.7 157.35 329.0 240.0 z" fill="rgb(255,217,194)" stroke="black"/>
  <text fill="rgb(9,33,173)" font-size="25" x="346.0" y="153.6">Rback</text>
  <path d="M 506.0 240.0 L 587.0 240.0 Q 578.3 157.35000000000002 587.0 153.0 Q 546.95 140.25 557.0 60.0 L 488.0 60.0 Q 481.7 87.9 506.0 240.0 z" fill="rgb(255,217,194)" stroke="black"/>
  <text fill="rgb(9,33,173)" font-size="25" x="520.0" y="153.6">Rfront</text>
  <path d="M 653.0 168.0 L 725.0 168.0 L 797.0 168.0 L 803.0 126.0 Q 773.0 111.0 791.0 60.0 L 755.0 60.0 Q 725.0 148.65714012542622 695.0 60.0 L 659.0 60.0 Q 677.0 110.99999999999999 647.0 126.0 L 653.0 168.0 z" fill="rgb(255,217,194)" stroke="black"/>
  <text fill="rgb(9,33,173)" font-size="25" x="700.0" y="113.66666666666667">up_back</text>
  <path d="M 869.0 165.0 L 941.0 165.0 L 1013.0 165.0 L 1019.0 126.0 Q 989.0 111.0 1007.0 60.0 L 971.0 60.0 L 941.0 99.0 L 911.0 60.0 L 875.0 60.0 Q 893.0 110.99999999999999 863.0 126.0 L 869.0 165.0 z" fill="rgb(255,217,194)" stroke="black"/>
  <text fill="rgb(9,33,173)" font-size="25" x="916.0" y="111.6">up_front</text>
  <path d="M 1097.0 240.0 L 1178.0 240.0 Q 1169.3 157.35000000000002 1178.0 153.0 Q 1133.3 141.75 1148.0 60.0 L 1079.0 60.0 Q 1072.7 87.9 1097.0 240.0 z" fill="rgb(255,217,194)" stroke="black"/>
  <text fill="rgb(9,33,173)" font-size="25" x="1111.0" y="153.6">Lback</text>
  <path d="M 1238.0 240.0 L 1319.0 240.0 Q 1343.3 87.9 1337.0 60.0 L 1268.0 60.0 Q 1278.05 140.25 1238.0 153.0 Q 1246.7 157.35 1238.0 240.0 z" fill="rgb(255,217,194)" stroke="black"/>
  <text fill="rgb(9,33,173)" font-size="25" x="1255.0" y="153.6">Lfront</text>
  <path d="M 1397.0 177.0 L 1430.0 129.0 Q 1461.1999999999998 113.1 1442.0 60.0 L 1397.0 60.0 L 1397.0 177.0 z" fill="rgb(255,217,194)" stroke="black"/>
  <text fill="rgb(9,33,173)" font-size="25" x="1391.5" y="109.5">lbsleeve</text>
  <path d="M 1531.5 177.0 L 1576.5 177.0 Q 1595.6999999999998 123.89999999999999 1564.5 108.0 L 1531.5 60.0 L 1531.5 177.0 z" fill="rgb(255,217,194)" stroke="black"/>
  <text fill="rgb(9,33,173)" font-size="25" x="1526.0" y="133.5">lfsleeve</text>
</svg>
