<?xml version="1.0" encoding="utf-8" ?>
<svg xmlns="http://www.w3.org/2000/svg" xmlns:ev="http://www.w3.org/2001/xml-events" xmlns:xlink="http://www.w3.org/1999/xlink" baseProfile="full" height="225px" version="1.1" width="1426.0px">
  <defs/>
  <path d="M 60 165 L 318 165 L 318 60 L 60 60 L 60 165 z" fill="rgb(255,217,194)" stroke="black"/>
  <text fill="rgb(9,33,173)" font-size="25" x="164.0" y="115.5">skirt_back</text>
  <path d="M 378 75 L 468 75 L 468 60 L 378 60 L 378 75 z" fill="rgb(255,217,194)" stroke="black"/>
  <text fill="rgb(9,33,173)" font-size="25" x="398.0" y="70.5">wb_back</text>
  <path d="M 528 75 L 618 75 L 618 60 L 528 60 L 528 75 z" fill="rgb(255,217,194)" stroke="black"/>
  <text fill="rgb(9,33,173)" font-size="25" x="548.0" y="70.5">wb_front</text>
  <path d="M 688.0 165.0 L 946.0 165.0 L 946.0 60.0 L 688.0 60.0 L 688.0 165.0 z" fill="rgb(255,217,194)" stroke="black"/>
  <text fill="rgb(9,33,173)" font-size="25" x="792.0" y="115.5">skirt_front</text>
  <path d="M 1006.0 138.0 L 1156.0 138.0 L 1156.0 132.0 Q 1123.6000000000001 115.2 1144.0 60.0 L 1099.0 60.0 Q 1081.0 109.91008162943177 1063.0 60.0 L 1018.0 60.0 Q 1038.4 115.2 1006.0 132.0 L 1006.0 138.0 z" fill="rgb(255,217,194)" stroke="black"/>
  <text fill="rgb(9,33,173)" font-size="25" x="1056.0" y="100.5">top_back</text>
  <path d="M 1216.0 138.0 L 1366.0 138.0 L 1366.0 132.0 Q 1333.6000000000001 115.2 1354.0 60.0 L 1309.0 60.0 L 1291.0 129.0 L 1273.0 60.0 L 1228.0 60.0 Q 1248.3999999999999 115.2 1216.0 132.0 L 1216.0 138.0 z" fill="rgb(255,217,194)" stroke="black"/>
  <text fill="rgb(9,33,173)" font-size="25" x="1266.0" y="104.0">top_front</text>
</svg>
