<?xml version="1.0" encoding="utf-8" ?>
<svg xmlns="http://www.w3.org/2000/svg" xmlns:ev="http://www.w3.org/2001/xml-events" xmlns:xlink="http://www.w3.org/1999/xlink" baseProfile="full" height="342px" version="1.1" width="1152px">
  <defs/>
  <path d="M 60 282 L 180 282 Q 165.6 91.80000000000001 150 60 L 90 60 Q 104.7 141.75 60 153 Q 72.9 159.45 60 282 z" fill="rgb(255,217,194)" stroke="black"/>
  <text fill="rgb(9,33,173)" font-size="25" x="83.0" y="170.4">Rback</text>
  <path d="M 240 282 L 360 282 Q 347.1 159.45 360 153 Q 319.95 140.25 330 60 L 270 60 Q 254.4 91.8 240 282 z" fill="rgb(255,217,194)" stroke="black"/>
  <text fill="rgb(9,33,173)" font-size="25" x="287.0" y="170.4">Rfront</text>
  <path d="M 423 168 L 483 168 L 543 168 L 546 114 Q 521.6999999999999 101.39999999999999 537 60 L 501 60 Q 483.0 97.80879014398468 465 60 L 429 60 Q 444.3 101.39999999999999 420 114 L 423 168 z" fill="rgb(255,217,194)" stroke="black"/>
  <text fill="rgb(9,33,173)" font-size="25" x="458.0" y="111.0">up_back</text>
  <path d="M 609 165 L 669 165 L 729 165 L 732 114 Q 707.6999999999999 101.39999999999999 723 60 L 687 60 L 669 75 L 651 60 L 615 60 Q 630.3000000000001 101.39999999999999 606 114 L 609 165 z" fill="rgb(255,217,194)" stroke="black"/>
  <text fill="rgb(9,33,173)" font-size="25" x="644.0" y="106.8">up_front</text>
  <path d="M 792 282 L 912 282 Q 899.1 159.45 912 153 Q 867.3 141.75 882 60 L 822 60 Q 806.4 91.8 792 282 z" fill="rgb(255,217,194)" stroke="black"/>
  <text fill="rgb(9,33,173)" font-size="25" x="839.0" y="170.4">Lback</text>
  <path d="M 972 282 L 1092 282 Q 1077.6 91.80000000000001 1062 60 L 1002 60 Q 1012.05 140.25 972 153 Q 984.9 159.45 972 282 z" fill="rgb(255,217,194)" stroke="black"/>
  <text fill="rgb(9,33,173)" font-size="25" x="995.0" y="170.4">Lfront</text>
</svg>
