<?xml version="1.0" encoding="utf-8" ?>
<svg xmlns="http://www.w3.org/2000/svg" xmlns:ev="http://www.w3.org/2001/xml-events" xmlns:xlink="http://www.w3.org/1999/xlink" baseProfile="full" height="489.0px" version="1.1" width="1591.0px">
  <defs/>
  <path d="M 60 147 L 153 147 Q 174.9 84.30000000000001 138 66 L 60 60 L 60 147 z" fill="rgb(255,217,194)" stroke="black"/>
  <text fill="rgb(9,33,173)" font-size="25" x="77.75" y="108.0">rbsleeve</text>
  <path d="M 217.75 147.0 L 295.75 141.0 Q 332.65 122.7 310.75 60.0 L 217.75 60.0 L 217.75 147.0 z" fill="rgb(255,217,194)" stroke="black"/>
  <text fill="rgb(9,33,173)" font-size="25" x="235.5" y="105.0">rfsleeve</text>
  <path d="M 375.5 429.0 L 765.5 429.0 L 657.5 141.0 Q 621.5 121.5 645.5 60.0 L 597.5 60.0 Q 570.5 217.42065527883403 543.5 60.0 L 495.5 60.0 Q 519.5 121.49999999999999 483.5 141.0 L 375.5 429.0 z" fill="rgb(255,217,194)" stroke="black"/>
  <text fill="rgb(9,33,173)" font-size="25" x="545.5" y="175.5">back</text>
  <path d="M 825.5 429.0 L 1215.5 429.0 L 1107.5 141.0 Q 1071.5 121.5 1095.5 60.0 L 1047.5 60.0 L 1020.5 162.0 L 993.5 60.0 L 945.5 60.0 Q 969.5 121.49999999999999 933.5 141.0 L 825.5 429.0 z" fill="rgb(255,217,194)" stroke="black"/>
  <text fill="rgb(9,33,173)" font-size="25" x="995.5" y="174.33333333333334">front</text>
  <path d="M 1275.5 147.0 L 1353.5 141.0 Q 1390.4 122.7 1368.5 60.0 L 1275.5 60.0 L 1275.5 147.0 z" fill="rgb(255,217,194)" stroke="black"/>
  <text fill="rgb(9,33,173)" font-size="25" x="1293.25" y="105.0">lbsleeve</text>
  <path d="M 1433.25 147.0 L 1526.25 147.0 Q 1548.15 84.30000000000001 1511.25 66.0 L 1433.25 60.0 L 1433.25 147.0 z" fill="rgb(255,217,194)" stroke="black"/>
  <text fill="rgb(9,33,173)" font-size="25" x="1451.0" y="108.0">lfsleeve</text>
</svg>
