<?xml version="1.0" encoding="utf-8" ?>
<svg xmlns="http://www.w3.org/2000/svg" xmlns:ev="http://www.w3.org/2001/xml-events" xmlns:xlink="http://www.w3.org/1999/xlink" baseProfile="full" height="249.0px" version="1.1" width="1879.5px">
  <defs/>
  <path d="M 60 177 L 159 177 Q 195.3 89.10000000000001 144 60 L 60 120 L 60 177 z" fill="rgb(255,217,194)" stroke="black"/>
  <text fill="rgb(9,33,173)" font-size="25" x="80.75" y="136.5">rbsleeve</text>
  <path d="M 220.75 117.0 L 304.75 177.0 Q 356.05 147.9 319.75 60.0 L 220.75 60.0 L 220.75 117.0 z" fill="rgb(255,217,194)" stroke="black"/>
  <text fill="rgb(9,33,173)" font-size="25" x="241.5" y="106.5">rfsleeve</text>
  <path d="M 381.5 189.0 L 561.5 189.0 L 561.5 81.0 L 534.5 60.0 L 489.5 60.0 Q 527.9 146.7 477.5 177.0 L 381.5 189.0 z" fill="rgb(255,217,194)" stroke="black"/>
  <text fill="rgb(9,33,173)" font-size="25" x="476.0" y="129.0">front_right</text>
  <path d="M 646.0 162.0 L 709.0 168.0 Q 765.6999999999999 141.9 712.0 75.0 L 682.0 84.0 L 652.0 60.0 L 646.0 162.0 z" fill="rgb(255,217,194)" stroke="black"/>
  <text fill="rgb(9,33,173)" font-size="25" x="655.2" y="112.8">Rhood</text>
  <path d="M 772.0 189.0 L 1132.0 189.0 L 1036.0 177.0 Q 985.6000000000001 146.70000000000002 1024.0 60.0 L 979.0 60.0 L 952.0 69.0 L 925.0 60.0 L 880.0 60.0 Q 918.4 146.7 868.0 177.0 L 772.0 189.0 z" fill="rgb(255,217,194)" stroke="black"/>
  <text fill="rgb(9,33,173)" font-size="25" x="927.0" y="118.66666666666667">back</text>
  <path d="M 1198.0 168.0 L 1228.0 144.0 L 1258.0 153.0 Q 1311.7 86.10000000000001 1255.0 60.0 L 1192.0 66.0 L 1198.0 168.0 z" fill="rgb(255,217,194)" stroke="black"/>
  <text fill="rgb(9,33,173)" font-size="25" x="1201.2" y="121.2">Lhood</text>
  <path d="M 1318.0 189.0 L 1498.0 189.0 L 1402.0 177.0 Q 1351.6000000000001 146.70000000000002 1390.0 60.0 L 1345.0 60.0 L 1318.0 81.0 L 1318.0 189.0 z" fill="rgb(255,217,194)" stroke="black"/>
  <text fill="rgb(9,33,173)" font-size="25" x="1353.5" y="129.0">front_left</text>
  <path d="M 1558.0 117.0 L 1642.0 177.0 Q 1693.3 147.9 1657.0 60.0 L 1558.0 60.0 L 1558.0 117.0 z" fill="rgb(255,217,194)" stroke="black"/>
  <text fill="rgb(9,33,173)" font-size="25" x="1578.75" y="106.5">lbsleeve</text>
  <path d="M 1718.75 177.0 L 1817.75 177.0 Q 1854.05 89.10000000000001 1802.75 60.0 L 1718.75 120.0 L 1718.75 177.0 z" fill="rgb(255,217,194)" stroke="black"/>
  <text fill="rgb(9,33,173)" font-size="25" x="1739.5" y="136.5">lfsleeve</text>
</svg>
