<?xml version="1.0" encoding="utf-8" ?>
<svg xmlns="http://www.w3.org/2000/svg" xmlns:ev="http://www.w3.org/2001/xml-events" xmlns:xlink="http://www.w3.org/1999/xlink" baseProfile="full" height="330.0px" version="1.1" width="1528.0px">
  <defs/>
  <path d="M 60 162 L 162 162 Q 175.2 119.4 150 108 L 60 60 L 60 162 z" fill="rgb(255,217,194)" stroke="black"/>
  <text fill="rgb(9,33,173)" font-size="25" x="83.0" y="126.0">rbsleeve</text>
  <path d="M 223.0 162.0 L 313.0 114.0 Q 338.20000000000005 102.6 325.0 60.0 L 223.0 60.0 L 223.0 162.0 z" fill="rgb(255,217,194)" stroke="black"/>
  <text fill="rgb(9,33,173)" font-size="25" x="246.0" y="102.0">rfsleeve</text>
  <path d="M 386.0 270.0 L 734.0 270.0 L 635.0 117.0 Q 608.6 104.7 623.0 60.0 L 578.0 60.0 Q 560.0 127.59981243420317 542.0 60.0 L 497.0 60.0 Q 511.40000000000003 104.7 485.0 117.0 L 386.0 270.0 z" fill="rgb(255,217,194)" stroke="black"/>
  <text fill="rgb(9,33,173)" font-size="25" x="535.0" y="129.75">back</text>
  <path d="M 794.0 270.0 L 1142.0 270.0 L 1043.0 114.0 Q 1017.8000000000001 102.6 1031.0 60.0 L 986.0 60.0 L 968.0 141.0 L 950.0 60.0 L 905.0 60.0 Q 918.2 102.6 893.0 114.0 L 794.0 270.0 z" fill="rgb(255,217,194)" stroke="black"/>
  <text fill="rgb(9,33,173)" font-size="25" x="943.0" y="130.66666666666669">front</text>
  <path d="M 1202.0 162.0 L 1292.0 114.0 Q 1317.1999999999998 102.6 1304.0 60.0 L 1202.0 60.0 L 1202.0 162.0 z" fill="rgb(255,217,194)" stroke="black"/>
  <text fill="rgb(9,33,173)" font-size="25" x="1225.0" y="102.0">lbsleeve</text>
  <path d="M 1365.0 162.0 L 1467.0 162.0 Q 1480.1999999999998 119.4 1455.0 108.0 L 1365.0 60.0 L 1365.0 162.0 z" fill="rgb(255,217,194)" stroke="black"/>
  <text fill="rgb(9,33,173)" font-size="25" x="1388.0" y="126.0">lfsleeve</text>
</svg>
