<?xml version="1.0" encoding="utf-8" ?>
<svg xmlns="http://www.w3.org/2000/svg" xmlns:ev="http://www.w3.org/2001/xml-events" xmlns:xlink="http://www.w3.org/1999/xlink" baseProfile="full" height="411.0px" version="1.1" width="1012.0px">
  <defs/>
  <path d="M 60 138 L 90 138 Q 97.19999999999999 105.9 78 99 L 60 60 L 60 138 z" fill="rgb(255,217,194)" stroke="black"/>
  <text fill="rgb(9,33,173)" font-size="25" x="47.0" y="111.75">rbsleeve</text>
  <path d="M 187.0 138.0 L 205.0 99.0 Q 224.2 92.1 217.0 60.0 L 187.0 60.0 L 187.0 138.0 z" fill="rgb(255,217,194)" stroke="black"/>
  <text fill="rgb(9,33,173)" font-size="25" x="174.0" y="92.25">rfsleeve</text>
  <path d="M 314.0 351.0 L 476.0 351.0 L 476.0 102.0 Q 455.59999999999997 94.2 464.0 60.0 L 440.0 60.0 Q 395.0 302.4839737365569 350.0 60.0 L 326.0 60.0 Q 334.40000000000003 94.2 314.0 102.0 L 314.0 351.0 z" fill="rgb(255,217,194)" stroke="black"/>
  <text fill="rgb(9,33,173)" font-size="25" x="370.0" y="146.25">back</text>
  <path d="M 536.0 351.0 L 698.0 351.0 L 698.0 102.0 Q 677.6 94.2 686.0 60.0 L 662.0 60.0 L 617.0 126.0 L 572.0 60.0 L 548.0 60.0 Q 556.4 94.2 536.0 102.0 L 536.0 351.0 z" fill="rgb(255,217,194)" stroke="black"/>
  <text fill="rgb(9,33,173)" font-size="25" x="592.0" y="144.33333333333334">front</text>
  <path d="M 758.0 138.0 L 776.0 99.0 Q 795.2 92.1 788.0 60.0 L 758.0 60.0 L 758.0 138.0 z" fill="rgb(255,217,194)" stroke="black"/>
  <text fill="rgb(9,33,173)" font-size="25" x="745.0" y="92.25">lbsleeve</text>
  <path d="M 885.0 138.0 L 915.0 138.0 Q 922.2 105.9 903.0 99.0 L 885.0 60.0 L 885.0 138.0 z" fill="rgb(255,217,194)" stroke="black"/>
  <text fill="rgb(9,33,173)" font-size="25" x="872.0" y="111.75">lfsleeve</text>
</svg>
