<?xml version="1.0" encoding="utf-8" ?>
<svg xmlns="http://www.w3.org/2000/svg" xmlns:ev="http://www.w3.org/2001/xml-events" xmlns:xlink="http://www.w3.org/1999/xlink" baseProfile="full" height="261px" version="1.1" width="901.0px">
  <defs/>
  <path d="M 66 201 L 141 201 L 141 81 L 126 60 L 75 60 Q 89.7 110.1 60 123 L 66 201 z" fill="rgb(255,217,194)" stroke="black"/>
  <text fill="rgb(9,33,173)" font-size="25" x="76.5" y="124.0">front_right</text>
  <path d="M 246.5 192.0 L 315.5 180.0 Q 374.90000000000003 136.79999999999998 297.5 72.0 L 282.5 81.0 L 264.5 60.0 L 246.5 192.0 z" fill="rgb(255,217,194)" stroke="black"/>
  <text fill="rgb(9,33,173)" font-size="25" x="256.3" y="120.0">Rhood</text>
  <path d="M 381.5 201.0 L 531.5 201.0 L 537.5 123.0 Q 507.8 110.1 522.5 60.0 L 471.5 60.0 L 456.5 69.0 L 441.5 60.0 L 390.5 60.0 Q 405.2 110.1 375.5 123.0 L 381.5 201.0 z" fill="rgb(255,217,194)" stroke="black"/>
  <text fill="rgb(9,33,173)" font-size="25" x="431.5" y="109.33333333333333">back</text>
  <path d="M 615.5 192.0 L 633.5 171.0 L 648.5 180.0 Q 725.9 115.2 666.5 72.0 L 597.5 60.0 L 615.5 192.0 z" fill="rgb(255,217,194)" stroke="black"/>
  <text fill="rgb(9,33,173)" font-size="25" x="607.3" y="138.0">Lhood</text>
  <path d="M 726.5 201.0 L 801.5 201.0 L 807.5 123.0 Q 777.8 110.1 792.5 60.0 L 741.5 60.0 L 726.5 81.0 L 726.5 201.0 z" fill="rgb(255,217,194)" stroke="black"/>
  <text fill="rgb(9,33,173)" font-size="25" x="741.0" y="124.0">front_left</text>
</svg>
