<?xml version="1.0" encoding="utf-8" ?>
<svg xmlns="http://www.w3.org/2000/svg" xmlns:ev="http://www.w3.org/2001/xml-events" xmlns:xlink="http://www.w3.org/1999/xlink" baseProfile="full" height="249.0px" version="1.1" width="1603.0px">
  <defs/>
  <path d="M 60 177 L 78 177 Q 105.30000000000001 114.60000000000001 69 93 L 60 60 L 60 177 z" fill="rgb(255,217,194)" stroke="black"/>
  <text fill="rgb(9,33,173)" font-size="25" x="41.75" y="129.75">rbsleeve</text>
  <path d="M 181.75 177.0 L 190.75 144.0 Q 227.04999999999998 122.39999999999999 199.75 60.0 L 181.75 60.0 L 181.75 177.0 z" fill="rgb(255,217,194)" stroke="black"/>
  <text fill="rgb(9,33,173)" font-size="25" x="163.5" y="113.25">rfsleeve</text>
  <path d="M 303.5 189.0 L 408.5 189.0 Q 407.3 78.9 399.5 60.0 L 333.5 60.0 Q 348.2 141.75 303.5 153.0 Q 307.1 154.8 303.5 189.0 z" fill="rgb(255,217,194)" stroke="black"/>
  <text fill="rgb(9,33,173)" font-size="25" x="324.7" y="133.2">Rback</text>
  <path d="M 468.5 189.0 L 573.5 189.0 Q 569.9 154.8 573.5 153.0 Q 533.45 140.25 543.5 60.0 L 477.5 60.0 Q 469.7 78.89999999999999 468.5 189.0 z" fill="rgb(255,217,194)" stroke="black"/>
  <text fill="rgb(9,33,173)" font-size="25" x="502.29999999999995" y="133.2">Rfront</text>
  <path d="M 633.5 168.0 L 702.5 168.0 L 771.5 168.0 L 762.5 144.0 Q 726.1999999999999 122.39999999999999 753.5 60.0 L 720.5 60.0 Q 702.5 112.6332707064449 684.5 60.0 L 651.5 60.0 Q 678.8000000000001 122.39999999999999 642.5 144.0 L 633.5 168.0 z" fill="rgb(255,217,194)" stroke="black"/>
  <text fill="rgb(9,33,173)" font-size="25" x="677.5" y="117.66666666666667">up_back</text>
  <path d="M 831.5 165.0 L 900.5 165.0 L 969.5 165.0 L 960.5 141.0 Q 925.4 120.3 951.5 60.0 L 918.5 60.0 L 900.5 144.0 L 882.5 60.0 L 849.5 60.0 Q 875.6 120.29999999999998 840.5 141.0 L 831.5 165.0 z" fill="rgb(255,217,194)" stroke="black"/>
  <text fill="rgb(9,33,173)" font-size="25" x="875.5" y="119.1">up_front</text>
  <path d="M 1029.5 189.0 L 1134.5 189.0 Q 1130.9 154.8 1134.5 153.0 Q 1089.8 141.75 1104.5 60.0 L 1038.5 60.0 Q 1030.7 78.89999999999999 1029.5 189.0 z" fill="rgb(255,217,194)" stroke="black"/>
  <text fill="rgb(9,33,173)" font-size="25" x="1063.3" y="133.2">Lback</text>
  <path d="M 1194.5 189.0 L 1299.5 189.0 Q 1298.3 78.9 1290.5 60.0 L 1224.5 60.0 Q 1234.55 140.25 1194.5 153.0 Q 1198.1 154.8 1194.5 189.0 z" fill="rgb(255,217,194)" stroke="black"/>
  <text fill="rgb(9,33,173)" font-size="25" x="1215.7" y="133.2">Lfront</text>
  <path d="M 1359.5 177.0 L 1368.5 144.0 Q 1404.8 122.39999999999999 1377.5 60.0 L 1359.5 60.0 L 1359.5 177.0 z" fill="rgb(255,217,194)" stroke="black"/>
  <text fill="rgb(9,33,173)" font-size="25" x="1341.25" y="113.25">lbsleeve</text>
  <path d="M 1481.25 177.0 L 1499.25 177.0 Q 1526.55 114.60000000000001 1490.25 93.0 L 1481.25 60.0 L 1481.25 177.0 z" fill="rgb(255,217,194)" stroke="black"/>
  <text fill="rgb(9,33,173)" font-size="25" x="1463.0" y="129.75">lfsleeve</text>
</svg>
