<?xml version="1.0" encoding="utf-8" ?>
<svg xmlns="http://www.w3.org/2000/svg" xmlns:ev="http://www.w3.org/2001/xml-events" xmlns:xlink="http://www.w3.org/1999/xlink" baseProfile="full" height="237px" version="1.1" width="616.0px">
  <defs/>
  <path d="M 78 177 L 132 177 L 132 147 L 108 60 L 72 60 Q 81.6 96.3 60 105 L 78 177 z" fill="rgb(255,217,194)" stroke="black"/>
  <text fill="rgb(9,33,173)" font-size="25" x="72.0" y="124.0">front_right</text>
  <path d="M 260.0 177.0 L 368.0 177.0 L 386.0 105.0 Q 364.4 96.3 374.0 60.0 L 338.0 60.0 Q 314.0 139.06834070331496 290.0 60.0 L 254.0 60.0 Q 263.6 96.3 242.0 105.0 L 260.0 177.0 z" fill="rgb(255,217,194)" stroke="black"/>
  <text fill="rgb(9,33,173)" font-size="25" x="289.0" y="103.5">back</text>
  <path d="M 446.0 177.0 L 500.0 177.0 L 518.0 105.0 Q 496.4 96.3 506.0 60.0 L 470.0 60.0 L 446.0 147.0 L 446.0 177.0 z" fill="rgb(255,217,194)" stroke="black"/>
  <text fill="rgb(9,33,173)" font-size="25" x="456.0" y="124.0">front_left</text>
</svg>
