<?xml version="1.0" encoding="utf-8" ?>
<svg xmlns="http://www.w3.org/2000/svg" xmlns:ev="http://www.w3.org/2001/xml-events" xmlns:xlink="http://www.w3.org/1999/xlink" baseProfile="full" height="492.0px" version="1.1" width="1708.0px">
  <defs/>
  <path d="M 60 219 L 75 219 Q 113.4 132.3 63 102 L 60 60 L 60 219 z" fill="rgb(255,217,194)" stroke="black"/>
  <text fill="rgb(9,33,173)" font-size="25" x="39.5" y="153.0">rbsleeve</text>
  <path d="M 179.5 219.0 L 182.5 177.0 Q 232.9 146.70000000000002 194.5 60.0 L 179.5 60.0 L 179.5 219.0 z" fill="rgb(255,217,194)" stroke="black"/>
  <text fill="rgb(9,33,173)" font-size="25" x="159.0" y="132.0">rfsleeve</text>
  <path d="M 299.0 432.0 L 689.0 432.0 L 572.0 174.0 Q 522.8 144.60000000000002 560.0 60.0 L 533.0 60.0 L 494.0 69.0 L 455.0 60.0 L 428.0 60.0 Q 465.20000000000005 144.60000000000002 416.0 174.0 L 299.0 432.0 z" fill="rgb(255,217,194)" stroke="black"/>
  <text fill="rgb(9,33,173)" font-size="25" x="469.0" y="172.0">back</text>
  <path d="M 749.0 432.0 L 1139.0 432.0 L 1022.0 174.0 Q 972.8 144.60000000000002 1010.0 60.0 L 983.0 60.0 L 944.0 66.0 L 905.0 60.0 L 878.0 60.0 Q 915.2 144.60000000000002 866.0 174.0 L 749.0 432.0 z" fill="rgb(255,217,194)" stroke="black"/>
  <text fill="rgb(9,33,173)" font-size="25" x="919.0" y="171.66666666666666">front</text>
  <path d="M 1202.0 159.0 L 1226.0 159.0 Q 1296.2 159.89999999999998 1274.0 66.0 L 1238.0 75.0 L 1199.0 60.0 L 1202.0 159.0 z" fill="rgb(255,217,194)" stroke="black"/>
  <text fill="rgb(9,33,173)" font-size="25" x="1202.8" y="106.8">Rhood</text>
  <path d="M 1334.0 159.0 L 1373.0 144.0 L 1409.0 153.0 Q 1431.2 59.10000000000001 1361.0 60.0 L 1337.0 60.0 L 1334.0 159.0 z" fill="rgb(255,217,194)" stroke="black"/>
  <text fill="rgb(9,33,173)" font-size="25" x="1337.8" y="118.2">Lhood</text>
  <path d="M 1469.0 219.0 L 1472.0 177.0 Q 1522.3999999999999 146.70000000000002 1484.0 60.0 L 1469.0 60.0 L 1469.0 219.0 z" fill="rgb(255,217,194)" stroke="black"/>
  <text fill="rgb(9,33,173)" font-size="25" x="1448.5" y="132.0">lbsleeve</text>
  <path d="M 1588.5 219.0 L 1603.5 219.0 Q 1641.8999999999999 132.3 1591.5 102.0 L 1588.5 60.0 L 1588.5 219.0 z" fill="rgb(255,217,194)" stroke="black"/>
  <text fill="rgb(9,33,173)" font-size="25" x="1568.0" y="153.0">lfsleeve</text>
</svg>
