<?xml version="1.0" encoding="utf-8" ?>
<svg xmlns="http://www.w3.org/2000/svg" xmlns:ev="http://www.w3.org/2001/xml-events" xmlns:xlink="http://www.w3.org/1999/xlink" baseProfile="full" height="336.0px" version="1.1" width="1312.0px">
  <defs/>
  <path d="M 60 195 L 120 195 Q 133.2 152.39999999999998 108 141 L 60 60 L 60 195 z" fill="rgb(255,217,194)" stroke="black"/>
  <text fill="rgb(9,33,173)" font-size="25" x="62.0" y="150.75">rbsleeve</text>
  <path d="M 202.0 195.0 L 250.0 114.0 Q 275.2 102.6 262.0 60.0 L 202.0 60.0 L 202.0 195.0 z" fill="rgb(255,217,194)" stroke="black"/>
  <text fill="rgb(9,33,173)" font-size="25" x="204.0" y="110.25">rfsleeve</text>
  <path d="M 347.0 276.0 L 497.0 276.0 L 500.0 117.0 Q 473.59999999999997 104.7 488.0 60.0 L 452.0 60.0 L 422.0 69.0 L 392.0 60.0 L 356.0 60.0 Q 370.40000000000003 104.7 344.0 117.0 L 347.0 276.0 z" fill="rgb(255,217,194)" stroke="black"/>
  <text fill="rgb(9,33,173)" font-size="25" x="397.0" y="124.66666666666667">back</text>
  <path d="M 563.0 273.0 L 713.0 273.0 L 716.0 114.0 Q 690.8 102.6 704.0 60.0 L 668.0 60.0 L 638.0 69.0 L 608.0 60.0 L 572.0 60.0 Q 585.2 102.6 560.0 114.0 L 563.0 273.0 z" fill="rgb(255,217,194)" stroke="black"/>
  <text fill="rgb(9,33,173)" font-size="25" x="613.0" y="123.33333333333333">front</text>
  <path d="M 776.0 180.0 L 794.0 177.0 Q 873.1999999999999 173.39999999999998 842.0 69.0 L 812.0 78.0 L 782.0 60.0 L 776.0 180.0 z" fill="rgb(255,217,194)" stroke="black"/>
  <text fill="rgb(9,33,173)" font-size="25" x="776.2" y="115.8">Rhood</text>
  <path d="M 908.0 180.0 L 938.0 162.0 L 968.0 171.0 Q 999.1999999999999 66.60000000000001 920.0 63.0 L 902.0 60.0 L 908.0 180.0 z" fill="rgb(255,217,194)" stroke="black"/>
  <text fill="rgb(9,33,173)" font-size="25" x="902.2" y="130.2">Lhood</text>
  <path d="M 1028.0 195.0 L 1076.0 114.0 Q 1101.1999999999998 102.6 1088.0 60.0 L 1028.0 60.0 L 1028.0 195.0 z" fill="rgb(255,217,194)" stroke="black"/>
  <text fill="rgb(9,33,173)" font-size="25" x="1030.0" y="110.25">lbsleeve</text>
  <path d="M 1170.0 195.0 L 1230.0 195.0 Q 1243.1999999999998 152.39999999999998 1218.0 141.0 L 1170.0 60.0 L 1170.0 195.0 z" fill="rgb(255,217,194)" stroke="black"/>
  <text fill="rgb(9,33,173)" font-size="25" x="1172.0" y="150.75">lfsleeve</text>
</svg>
