<?xml version="1.0" encoding="utf-8" ?>
<svg xmlns="http://www.w3.org/2000/svg" xmlns:ev="http://www.w3.org/2001/xml-events" xmlns:xlink="http://www.w3.org/1999/xlink" baseProfile="full" height="405px" version="1.1" width="688.0px">
  <defs/>
  <path d="M 60 345 L 156 345 L 156 66 L 129 60 L 102 60 Q 117.6 106.8 90 120 L 60 345 z" fill="rgb(255,217,194)" stroke="black"/>
  <text fill="rgb(9,33,173)" font-size="25" x="90.5" y="169.0">front_right</text>
  <path d="M 260.5 345.0 L 452.5 345.0 L 422.5 120.0 Q 394.9 106.8 410.5 60.0 L 383.5 60.0 Q 356.5 241.4138144287913 329.5 60.0 L 302.5 60.0 Q 318.1 106.8 290.5 120.0 L 260.5 345.0 z" fill="rgb(255,217,194)" stroke="black"/>
  <text fill="rgb(9,33,173)" font-size="25" x="331.5" y="149.25">back</text>
  <path d="M 512.5 345.0 L 608.5 345.0 L 578.5 120.0 Q 550.9 106.8 566.5 60.0 L 539.5 60.0 L 512.5 66.0 L 512.5 345.0 z" fill="rgb(255,217,194)" stroke="black"/>
  <text fill="rgb(9,33,173)" font-size="25" x="528.0" y="169.0">front_left</text>
</svg>
