<?xml version="1.0" encoding="utf-8" ?>
<svg xmlns="http://www.w3.org/2000/svg" xmlns:ev="http://www.w3.org/2001/xml-events" xmlns:xlink="http://www.w3.org/1999/xlink" baseProfile="full" height="462.0px" version="1.1" width="1379.0px">
  <defs/>
  <path d="M 60 138 L 84 138 Q 97.19999999999999 95.4 72 84 L 60 60 L 60 138 z" fill="rgb(255,217,194)" stroke="black"/>
  <text fill="rgb(9,33,173)" font-size="25" x="44.0" y="108.0">rbsleeve</text>
  <path d="M 184.0 138.0 L 196.0 114.0 Q 221.2 102.6 208.0 60.0 L 184.0 60.0 L 184.0 138.0 z" fill="rgb(255,217,194)" stroke="black"/>
  <text fill="rgb(9,33,173)" font-size="25" x="168.0" y="96.0">rfsleeve</text>
  <path d="M 308.0 402.0 L 461.0 402.0 L 461.0 117.0 L 440.0 60.0 L 392.0 60.0 Q 405.20000000000005 102.6 380.0 114.0 L 308.0 402.0 z" fill="rgb(255,217,194)" stroke="black"/>
  <text fill="rgb(9,33,173)" font-size="25" x="382.0" y="195.5">front_right</text>
  <path d="M 552.0 402.0 L 858.0 402.0 L 786.0 114.0 Q 760.8 102.6 774.0 60.0 L 726.0 60.0 Q 705.0 149.57814953383763 684.0 60.0 L 636.0 60.0 Q 649.2 102.6 624.0 114.0 L 552.0 402.0 z" fill="rgb(255,217,194)" stroke="black"/>
  <text fill="rgb(9,33,173)" font-size="25" x="680.0" y="162.0">back</text>
  <path d="M 918.0 402.0 L 1071.0 402.0 L 999.0 114.0 Q 973.8 102.6 987.0 60.0 L 939.0 60.0 L 918.0 117.0 L 918.0 402.0 z" fill="rgb(255,217,194)" stroke="black"/>
  <text fill="rgb(9,33,173)" font-size="25" x="947.0" y="195.5">front_left</text>
  <path d="M 1131.0 138.0 L 1143.0 114.0 Q 1168.1999999999998 102.6 1155.0 60.0 L 1131.0 60.0 L 1131.0 138.0 z" fill="rgb(255,217,194)" stroke="black"/>
  <text fill="rgb(9,33,173)" font-size="25" x="1115.0" y="96.0">lbsleeve</text>
  <path d="M 1255.0 138.0 L 1279.0 138.0 Q 1292.1999999999998 95.4 1267.0 84.0 L 1255.0 60.0 L 1255.0 138.0 z" fill="rgb(255,217,194)" stroke="black"/>
  <text fill="rgb(9,33,173)" font-size="25" x="1239.0" y="108.0">lfsleeve</text>
</svg>
