<?xml version="1.0" encoding="utf-8" ?>
<svg xmlns="http://www.w3.org/2000/svg" xmlns:ev="http://www.w3.org/2001/xml-events" xmlns:xlink="http://www.w3.org/1999/xlink" baseProfile="full" height="264px" version="1.1" width="1479.0px">
  <defs/>
  <path d="M 60 204 L 132 204 L 189 60 L 90 60 Q 97.5 128.25 60 135 Q 66.9 138.45 60 204 z" fill="rgb(255,217,194)" stroke="black"/>
  <text fill="rgb(9,33,173)" font-size="25" x="81.2" y="135.6">Rback</text>
  <path d="M 306 204 L 378 204 Q 371.1 138.45 378 135 Q 344.25 126.75 348 60 L 249 60 L 306 204 z" fill="rgb(255,217,194)" stroke="black"/>
  <text fill="rgb(9,33,173)" font-size="25" x="306.8" y="135.6">Rfront</text>
  <path d="M 438 78 L 477 78 L 516 78 L 516 60 L 438 60 L 438 78 z" fill="rgb(255,217,194)" stroke="black"/>
  <text fill="rgb(9,33,173)" font-size="25" x="452.0" y="73.8">wb_back</text>
  <path d="M 582.0 78.0 L 621.0 78.0 L 660.0 78.0 L 660.0 60.0 L 582.0 60.0 L 582.0 78.0 z" fill="rgb(255,217,194)" stroke="black"/>
  <text fill="rgb(9,33,173)" font-size="25" x="596.0" y="73.8">wb_front</text>
  <path d="M 736.0 165.0 L 856.0 165.0 L 856.0 105.0 Q 834.4 96.3 844.0 60.0 L 808.0 60.0 Q 796.0 81.62859329241076 784.0 60.0 L 748.0 60.0 Q 757.6 96.3 736.0 105.0 L 736.0 165.0 z" fill="rgb(255,217,194)" stroke="black"/>
  <text fill="rgb(9,33,173)" font-size="25" x="771.0" y="100.5">top_back</text>
  <path d="M 916.0 165.0 L 1036.0 165.0 L 1036.0 105.0 Q 1014.4000000000001 96.3 1024.0 60.0 L 988.0 60.0 L 976.0 114.0 L 964.0 60.0 L 928.0 60.0 Q 937.6 96.3 916.0 105.0 L 916.0 165.0 z" fill="rgb(255,217,194)" stroke="black"/>
  <text fill="rgb(9,33,173)" font-size="25" x="951.0" y="102.33333333333333">top_front</text>
  <path d="M 1158.0 204.0 L 1230.0 204.0 Q 1223.1 138.45 1230.0 135.0 Q 1192.5 128.25 1200.0 60.0 L 1101.0 60.0 L 1158.0 204.0 z" fill="rgb(255,217,194)" stroke="black"/>
  <text fill="rgb(9,33,173)" font-size="25" x="1158.8" y="135.6">Lback</text>
  <path d="M 1290.0 204.0 L 1362.0 204.0 L 1419.0 60.0 L 1320.0 60.0 Q 1323.75 126.75 1290.0 135.0 Q 1296.9 138.45 1290.0 204.0 z" fill="rgb(255,217,194)" stroke="black"/>
  <text fill="rgb(9,33,173)" font-size="25" x="1311.2" y="135.6">Lfront</text>
</svg>
