<?xml version="1.0" encoding="utf-8" ?>
<svg xmlns="http://www.w3.org/2000/svg" xmlns:ev="http://www.w3.org/2001/xml-events" xmlns:xlink="http://www.w3.org/1999/xlink" baseProfile="full" height="366.0px" version="1.1" width="1690.0px">
  <defs/>
  <path d="M 60 192 L 141 192 Q 163.8 132.6 129 114 L 60 60 L 60 192 z" fill="rgb(255,217,194)" stroke="black"/>
  <text fill="rgb(9,33,173)" font-size="25" x="72.5" y="142.5">rbsleeve</text>
  <path d="M 212.5 192.0 L 281.5 138.0 Q 316.3 119.39999999999999 293.5 60.0 L 212.5 60.0 L 212.5 192.0 z" fill="rgb(255,217,194)" stroke="black"/>
  <text fill="rgb(9,33,173)" font-size="25" x="225.0" y="115.5">rfsleeve</text>
  <path d="M 365.0 306.0 L 455.0 306.0 Q 469.85 97.05000000000001 458.0 60.0 L 395.0 60.0 Q 409.7 141.75 365.0 153.0 Q 380.3 160.65 365.0 306.0 z" fill="rgb(255,217,194)" stroke="black"/>
  <text fill="rgb(9,33,173)" font-size="25" x="382.6" y="180.0">Rback</text>
  <path d="M 521.0 306.0 L 611.0 306.0 Q 595.7 160.65 611.0 153.0 Q 570.95 140.25 581.0 60.0 L 518.0 60.0 Q 506.15000000000003 97.05000000000001 521.0 306.0 z" fill="rgb(255,217,194)" stroke="black"/>
  <text fill="rgb(9,33,173)" font-size="25" x="543.4" y="180.0">Rfront</text>
  <path d="M 680.0 168.0 L 743.0 168.0 L 806.0 168.0 L 815.0 138.0 Q 781.0999999999999 118.19999999999999 806.0 60.0 L 758.0 60.0 Q 743.0 100.03875065329383 728.0 60.0 L 680.0 60.0 Q 704.9000000000001 118.19999999999999 671.0 138.0 L 680.0 168.0 z" fill="rgb(255,217,194)" stroke="black"/>
  <text fill="rgb(9,33,173)" font-size="25" x="718.0" y="116.33333333333333">up_back</text>
  <path d="M 884.0 165.0 L 947.0 165.0 L 1010.0 165.0 L 1019.0 138.0 Q 985.0999999999999 118.19999999999999 1010.0 60.0 L 962.0 60.0 L 947.0 111.0 L 932.0 60.0 L 884.0 60.0 Q 908.9000000000001 118.19999999999999 875.0 138.0 L 884.0 165.0 z" fill="rgb(255,217,194)" stroke="black"/>
  <text fill="rgb(9,33,173)" font-size="25" x="922.0" y="115.2">up_front</text>
  <path d="M 1082.0 306.0 L 1172.0 306.0 Q 1156.7 160.65 1172.0 153.0 Q 1127.3 141.75 1142.0 60.0 L 1079.0 60.0 Q 1067.15 97.05000000000001 1082.0 306.0 z" fill="rgb(255,217,194)" stroke="black"/>
  <text fill="rgb(9,33,173)" font-size="25" x="1104.4" y="180.0">Lback</text>
  <path d="M 1232.0 306.0 L 1322.0 306.0 Q 1336.85 97.05000000000001 1325.0 60.0 L 1262.0 60.0 Q 1272.05 140.25 1232.0 153.0 Q 1247.3 160.65 1232.0 306.0 z" fill="rgb(255,217,194)" stroke="black"/>
  <text fill="rgb(9,33,173)" font-size="25" x="1249.6" y="180.0">Lfront</text>
  <path d="M 1385.0 192.0 L 1454.0 138.0 Q 1488.8 119.39999999999999 1466.0 60.0 L 1385.0 60.0 L 1385.0 192.0 z" fill="rgb(255,217,194)" stroke="black"/>
  <text fill="rgb(9,33,173)" font-size="25" x="1397.5" y="115.5">lbsleeve</text>
  <path d="M 1537.5 192.0 L 1618.5 192.0 Q 1641.3 132.6 1606.5 114.0 L 1537.5 60.0 L 1537.5 192.0 z" fill="rgb(255,217,194)" stroke="black"/>
  <text fill="rgb(9,33,173)" font-size="25" x="1550.0" y="142.5">lfsleeve</text>
</svg>
