<?xml version="1.0" encoding="utf-8" ?>
<svg xmlns="http://www.w3.org/2000/svg" xmlns:ev="http://www.w3.org/2001/xml-events" xmlns:xlink="http://www.w3.org/1999/xlink" baseProfile="full" height="441.0px" version="1.1" width="1135.0px">
  <defs/>
  <path d="M 60 213 L 93 213 Q 100.5 175.5 78 168 L 60 60 L 60 213 z" fill="rgb(255,217,194)" stroke="black"/>
  <text fill="rgb(9,33,173)" font-size="25" x="47.75" y="166.5">rbsleeve</text>
  <path d="M 187.75 213.0 L 205.75 105.0 Q 228.25 97.5 220.75 60.0 L 187.75 60.0 L 187.75 213.0 z" fill="rgb(255,217,194)" stroke="black"/>
  <text fill="rgb(9,33,173)" font-size="25" x="175.5" y="112.5">rfsleeve</text>
  <path d="M 315.5 381.0 L 537.5 381.0 L 513.5 108.0 Q 490.7 98.39999999999999 501.5 60.0 L 441.5 60.0 Q 426.5 116.25868426865965 411.5 60.0 L 351.5 60.0 Q 362.3 98.39999999999999 339.5 108.0 L 315.5 381.0 z" fill="rgb(255,217,194)" stroke="black"/>
  <text fill="rgb(9,33,173)" font-size="25" x="401.5" y="155.25">back</text>
  <path d="M 597.5 381.0 L 819.5 381.0 L 795.5 105.0 Q 773.9 96.3 783.5 60.0 L 723.5 60.0 L 708.5 81.0 L 693.5 60.0 L 633.5 60.0 Q 643.1 96.3 621.5 105.0 L 597.5 381.0 z" fill="rgb(255,217,194)" stroke="black"/>
  <text fill="rgb(9,33,173)" font-size="25" x="683.5" y="146.66666666666666">front</text>
  <path d="M 879.5 213.0 L 897.5 105.0 Q 920.0 97.5 912.5 60.0 L 879.5 60.0 L 879.5 213.0 z" fill="rgb(255,217,194)" stroke="black"/>
  <text fill="rgb(9,33,173)" font-size="25" x="867.25" y="112.5">lbsleeve</text>
  <path d="M 1007.25 213.0 L 1040.25 213.0 Q 1047.75 175.5 1025.25 168.0 L 1007.25 60.0 L 1007.25 213.0 z" fill="rgb(255,217,194)" stroke="black"/>
  <text fill="rgb(9,33,173)" font-size="25" x="995.0" y="166.5">lfsleeve</text>
</svg>
