<?xml version="1.0" encoding="utf-8" ?>
<svg xmlns="http://www.w3.org/2000/svg" xmlns:ev="http://www.w3.org/2001/xml-events" xmlns:xlink="http://www.w3.org/1999/xlink" baseProfile="full" height="252px" version="1.1" width="1216.0px">
  <defs/>
  <path d="M 60 192 L 132 192 Q 146.4 147.29999999999998 120 135 L 60 60 L 60 192 z" fill="rgb(255,217,194)" stroke="black"/>
  <text fill="rgb(9,33,173)" font-size="25" x="68.0" y="147.75">rbsleeve</text>
  <path d="M 208.0 192.0 L 268.0 117.0 Q 294.40000000000003 104.7 280.0 60.0 L 208.0 60.0 L 208.0 192.0 z" fill="rgb(255,217,194)" stroke="black"/>
  <text fill="rgb(9,33,173)" font-size="25" x="216.0" y="110.25">rfsleeve</text>
  <path d="M 356.0 171.0 L 578.0 171.0 L 530.0 117.0 Q 504.49999999999994 103.5 521.0 60.0 L 503.0 60.0 Q 467.0 90.05924608009087 431.0 60.0 L 413.0 60.0 Q 429.5 103.5 404.0 117.0 L 356.0 171.0 z" fill="rgb(255,217,194)" stroke="black"/>
  <text fill="rgb(9,33,173)" font-size="25" x="442.0" y="105.0">back</text>
  <path d="M 638.0 171.0 L 860.0 171.0 L 812.0 114.0 Q 787.6999999999999 101.39999999999999 803.0 60.0 L 785.0 60.0 L 749.0 150.0 L 713.0 60.0 L 695.0 60.0 Q 710.3000000000001 101.39999999999999 686.0 114.0 L 638.0 171.0 z" fill="rgb(255,217,194)" stroke="black"/>
  <text fill="rgb(9,33,173)" font-size="25" x="724.0" y="109.66666666666667">front</text>
  <path d="M 920.0 192.0 L 980.0 117.0 Q 1006.4 104.7 992.0 60.0 L 920.0 60.0 L 920.0 192.0 z" fill="rgb(255,217,194)" stroke="black"/>
  <text fill="rgb(9,33,173)" font-size="25" x="928.0" y="110.25">lbsleeve</text>
  <path d="M 1068.0 192.0 L 1140.0 192.0 Q 1154.3999999999999 147.29999999999998 1128.0 135.0 L 1068.0 60.0 L 1068.0 192.0 z" fill="rgb(255,217,194)" stroke="black"/>
  <text fill="rgb(9,33,173)" font-size="25" x="1076.0" y="147.75">lfsleeve</text>
</svg>
