<?xml version="1.0" encoding="utf-8" ?>
<svg xmlns="http://www.w3.org/2000/svg" xmlns:ev="http://www.w3.org/2001/xml-events" xmlns:xlink="http://www.w3.org/1999/xlink" baseProfile="full" height="429px" version="1.1" width="1016.5px">
  <defs/>
  <path d="M 60 369 L 186 369 L 186 108 L 165 60 L 126 60 Q 147.6 117.3 114 135 L 60 369 z" fill="rgb(255,217,194)" stroke="black"/>
  <text fill="rgb(9,33,173)" font-size="25" x="114.5" y="186.5">front_right</text>
  <path d="M 284.5 219.0 L 296.5 219.0 Q 382.0 210.0 341.5 99.0 L 320.5 108.0 L 296.5 60.0 L 284.5 219.0 z" fill="rgb(255,217,194)" stroke="black"/>
  <text fill="rgb(9,33,173)" font-size="25" x="282.9" y="144.0">Rhood</text>
  <path d="M 401.5 369.0 L 653.5 369.0 L 599.5 138.0 Q 564.6999999999999 119.39999999999999 587.5 60.0 L 548.5 60.0 L 527.5 69.0 L 506.5 60.0 L 467.5 60.0 Q 490.3 119.39999999999999 455.5 138.0 L 401.5 369.0 z" fill="rgb(255,217,194)" stroke="black"/>
  <text fill="rgb(9,33,173)" font-size="25" x="502.5" y="150.0">back</text>
  <path d="M 725.5 219.0 L 749.5 171.0 L 770.5 180.0 Q 811.0 69.0 725.5 60.0 L 713.5 60.0 L 725.5 219.0 z" fill="rgb(255,217,194)" stroke="black"/>
  <text fill="rgb(9,33,173)" font-size="25" x="711.9" y="141.0">Lhood</text>
  <path d="M 830.5 369.0 L 956.5 369.0 L 902.5 135.0 Q 868.9 117.3 890.5 60.0 L 851.5 60.0 L 830.5 108.0 L 830.5 369.0 z" fill="rgb(255,217,194)" stroke="black"/>
  <text fill="rgb(9,33,173)" font-size="25" x="852.0" y="186.5">front_left</text>
</svg>
