<?xml version="1.0" encoding="utf-8" ?>
<svg xmlns="http://www.w3.org/2000/svg" xmlns:ev="http://www.w3.org/2001/xml-events" xmlns:xlink="http://www.w3.org/1999/xlink" baseProfile="full" height="267px" version="1.1" width="1375.0px">
  <defs/>
  <path d="M 60 207 L 84 207 Q 97.5 159.0 69 147 L 60 60 L 60 207 z" fill="rgb(255,217,194)" stroke="black"/>
  <text fill="rgb(9,33,173)" font-size="25" x="43.25" y="158.25">rbsleeve</text>
  <path d="M 183.25 207.0 L 192.25 120.0 Q 220.75 108.0 207.25 60.0 L 183.25 60.0 L 183.25 207.0 z" fill="rgb(255,217,194)" stroke="black"/>
  <text fill="rgb(9,33,173)" font-size="25" x="166.5" y="114.75">rfsleeve</text>
  <path d="M 306.5 162.0 L 516.5 162.0 L 498.5 120.0 Q 470.9 106.8 486.5 60.0 L 453.5 60.0 L 411.5 69.0 L 369.5 60.0 L 336.5 60.0 Q 352.1 106.8 324.5 120.0 L 306.5 162.0 z" fill="rgb(255,217,194)" stroke="black"/>
  <text fill="rgb(9,33,173)" font-size="25" x="386.5" y="100.0">back</text>
  <path d="M 576.5 162.0 L 786.5 162.0 L 768.5 120.0 Q 740.9 106.8 756.5 60.0 L 723.5 60.0 L 681.5 66.0 L 639.5 60.0 L 606.5 60.0 Q 622.1 106.8 594.5 120.0 L 576.5 162.0 z" fill="rgb(255,217,194)" stroke="black"/>
  <text fill="rgb(9,33,173)" font-size="25" x="656.5" y="99.66666666666667">front</text>
  <path d="M 852.5 153.0 L 924.5 159.0 Q 981.1999999999999 132.9 927.5 66.0 L 888.5 75.0 L 846.5 60.0 L 852.5 153.0 z" fill="rgb(255,217,194)" stroke="black"/>
  <text fill="rgb(9,33,173)" font-size="25" x="862.9" y="105.6">Rhood</text>
  <path d="M 987.5 159.0 L 1029.5 144.0 L 1068.5 153.0 Q 1122.2 86.10000000000001 1065.5 60.0 L 993.5 66.0 L 987.5 159.0 z" fill="rgb(255,217,194)" stroke="black"/>
  <text fill="rgb(9,33,173)" font-size="25" x="1003.9000000000001" y="119.4">Lhood</text>
  <path d="M 1128.5 207.0 L 1137.5 120.0 Q 1166.0 108.0 1152.5 60.0 L 1128.5 60.0 L 1128.5 207.0 z" fill="rgb(255,217,194)" stroke="black"/>
  <text fill="rgb(9,33,173)" font-size="25" x="1111.75" y="114.75">lbsleeve</text>
  <path d="M 1251.75 207.0 L 1275.75 207.0 Q 1289.25 159.0 1260.75 147.0 L 1251.75 60.0 L 1251.75 207.0 z" fill="rgb(255,217,194)" stroke="black"/>
  <text fill="rgb(9,33,173)" font-size="25" x="1235.0" y="158.25">lfsleeve</text>
</svg>
