<?xml version="1.0" encoding="utf-8" ?>
<svg xmlns="http://www.w3.org/2000/svg" xmlns:ev="http://www.w3.org/2001/xml-events" xmlns:xlink="http://www.w3.org/1999/xlink" baseProfile="full" height="345.0px" version="1.1" width="1433.8px">
  <defs/>
  <path d="M 60 126 L 84 126 Q 102.0 75.00000000000001 72 60 L 60 60 L 60 126 z" fill="rgb(255,217,194)" stroke="black"/>
  <text fill="rgb(9,33,173)" font-size="25" x="44.0" y="96.0">rbsleeve</text>
  <path d="M 184.0 126.0 L 196.0 126.0 Q 226.0 111.0 208.0 60.0 L 184.0 60.0 L 184.0 126.0 z" fill="rgb(255,217,194)" stroke="black"/>
  <text fill="rgb(9,33,173)" font-size="25" x="168.0" y="96.0">rfsleeve</text>
  <path d="M 308.0 285.0 L 413.0 285.0 L 413.0 81.0 L 398.0 60.0 L 359.0 60.0 Q 377.9 107.69999999999999 350.0 123.0 L 308.0 285.0 z" fill="rgb(255,217,194)" stroke="black"/>
  <text fill="rgb(9,33,173)" font-size="25" x="348.5" y="152.0">front_right</text>
  <path d="M 518.5 162.0 L 542.5 165.0 Q 606.4 153.29999999999998 569.5 72.0 L 554.5 81.0 L 539.5 60.0 L 518.5 162.0 z" fill="rgb(255,217,194)" stroke="black"/>
  <text fill="rgb(9,33,173)" font-size="25" x="519.9" y="111.0">Rhood</text>
  <path d="M 629.9 285.0 L 839.9 285.0 L 797.9 126.0 Q 768.8 109.8 788.9 60.0 L 749.9 60.0 L 734.9 69.0 L 719.9 60.0 L 680.9 60.0 Q 701.0 109.79999999999998 671.9 126.0 L 629.9 285.0 z" fill="rgb(255,217,194)" stroke="black"/>
  <text fill="rgb(9,33,173)" font-size="25" x="709.8999999999999" y="128.66666666666669">back</text>
  <path d="M 920.9 165.0 L 935.9 144.0 L 950.9 153.0 Q 987.8 71.7 923.9 60.0 L 899.9 63.0 L 920.9 165.0 z" fill="rgb(255,217,194)" stroke="black"/>
  <text fill="rgb(9,33,173)" font-size="25" x="901.3" y="120.0">Lhood</text>
  <path d="M 1011.3 285.0 L 1116.3 285.0 L 1074.3 123.0 Q 1046.3999999999999 107.69999999999999 1065.3 60.0 L 1026.3 60.0 L 1011.3 81.0 L 1011.3 285.0 z" fill="rgb(255,217,194)" stroke="black"/>
  <text fill="rgb(9,33,173)" font-size="25" x="1025.8" y="152.0">front_left</text>
  <path d="M 1185.8 126.0 L 1197.8 126.0 Q 1227.8 111.0 1209.8 60.0 L 1185.8 60.0 L 1185.8 126.0 z" fill="rgb(255,217,194)" stroke="black"/>
  <text fill="rgb(9,33,173)" font-size="25" x="1169.8" y="96.0">lbsleeve</text>
  <path d="M 1309.8 126.0 L 1333.8 126.0 Q 1351.8 75.00000000000001 1321.8 60.0 L 1309.8 60.0 L 1309.8 126.0 z" fill="rgb(255,217,194)" stroke="black"/>
  <text fill="rgb(9,33,173)" font-size="25" x="1293.8" y="96.0">lfsleeve</text>
</svg>
