<?xml version="1.0" encoding="utf-8" ?>
<svg xmlns="http://www.w3.org/2000/svg" xmlns:ev="http://www.w3.org/2001/xml-events" xmlns:xlink="http://www.w3.org/1999/xlink" baseProfile="full" height="384px" version="1.1" width="1128px">
  <defs/>
  <path d="M 60 324 L 111 324 Q 167.54999999999998 102.14999999999999 162 60 L 90 60 Q 104.7 141.75 60 153 Q 77.1 161.55 60 324 z" fill="rgb(255,217,194)" stroke="black"/>
  <text fill="rgb(9,33,173)" font-size="25" x="71.6" y="187.2">Rback</text>
  <path d="M 273 324 L 324 324 Q 306.9 161.55 324 153 Q 283.95 140.25 294 60 L 222 60 Q 216.45000000000002 102.14999999999999 273 324 z" fill="rgb(255,217,194)" stroke="black"/>
  <text fill="rgb(9,33,173)" font-size="25" x="262.4" y="187.2">Rfront</text>
  <path d="M 384 168 L 459 168 L 534 168 L 519 153 Q 479.09999999999997 128.7 510 60 L 483 60 Q 459.0 96.93887589852214 435 60 L 408 60 Q 438.9 128.7 399 153 L 384 168 z" fill="rgb(255,217,194)" stroke="black"/>
  <text fill="rgb(9,33,173)" font-size="25" x="434.0" y="119.66666666666667">up_back</text>
  <path d="M 594 165 L 669 165 L 744 165 L 729 153 Q 689.0999999999999 128.7 720 60 L 693 60 L 669 81 L 645 60 L 618 60 Q 648.9000000000001 128.7 609 153 L 594 165 z" fill="rgb(255,217,194)" stroke="black"/>
  <text fill="rgb(9,33,173)" font-size="25" x="644.0" y="115.2">up_front</text>
  <path d="M 855 324 L 906 324 Q 888.9 161.55 906 153 Q 861.3 141.75 876 60 L 804 60 Q 798.4499999999999 102.14999999999999 855 324 z" fill="rgb(255,217,194)" stroke="black"/>
  <text fill="rgb(9,33,173)" font-size="25" x="844.4" y="187.2">Lback</text>
  <path d="M 966 324 L 1017 324 Q 1073.55 102.14999999999999 1068 60 L 996 60 Q 1006.05 140.25 966 153 Q 983.1 161.55 966 324 z" fill="rgb(255,217,194)" stroke="black"/>
  <text fill="rgb(9,33,173)" font-size="25" x="977.6" y="187.2">Lfront</text>
</svg>
