<?xml version="1.0" encoding="utf-8" ?>
<svg xmlns="http://www.w3.org/2000/svg" xmlns:ev="http://www.w3.org/2001/xml-events" xmlns:xlink="http://www.w3.org/1999/xlink" baseProfile="full" height="267px" version="1.1" width="1588.0px">
  <defs/>
  <path d="M 60 174 L 168 174 Q 186.3 117.6 153 102 L 60 60 L 60 174 z" fill="rgb(255,217,194)" stroke="black"/>
  <text fill="rgb(9,33,173)" font-size="25" x="85.25" y="130.5">rbsleeve</text>
  <path d="M 228 174 L 321 132 Q 354.3 116.4 336 60 L 228 60 L 228 174 z" fill="rgb(255,217,194)" stroke="black"/>
  <text fill="rgb(9,33,173)" font-size="25" x="253.25" y="109.5">rfsleeve</text>
  <path d="M 399 207 L 486 207 L 486 81 L 459 60 L 411 60 Q 429.3 116.4 396 132 L 399 207 z" fill="rgb(255,217,194)" stroke="black"/>
  <text fill="rgb(9,33,173)" font-size="25" x="414.5" y="127.5">front_right</text>
  <path d="M 584.5 165.0 L 614.5 165.0 Q 680.1999999999999 156.9 647.5 72.0 L 620.5 81.0 L 590.5 60.0 L 584.5 165.0 z" fill="rgb(255,217,194)" stroke="black"/>
  <text fill="rgb(9,33,173)" font-size="25" x="586.5" y="111.6">Rhood</text>
  <path d="M 710.5 207.0 L 884.5 207.0 L 887.5 132.0 Q 854.2 116.4 872.5 60.0 L 824.5 60.0 L 797.5 69.0 L 770.5 60.0 L 722.5 60.0 Q 740.8 116.4 707.5 132.0 L 710.5 207.0 z" fill="rgb(255,217,194)" stroke="black"/>
  <text fill="rgb(9,33,173)" font-size="25" x="772.5" y="112.66666666666667">back</text>
  <path d="M 953.5 165.0 L 983.5 144.0 L 1010.5 153.0 Q 1043.2 68.10000000000001 977.5 60.0 L 947.5 60.0 L 953.5 165.0 z" fill="rgb(255,217,194)" stroke="black"/>
  <text fill="rgb(9,33,173)" font-size="25" x="949.5" y="119.4">Lhood</text>
  <path d="M 1070.5 207.0 L 1157.5 207.0 L 1160.5 132.0 Q 1127.2 116.4 1145.5 60.0 L 1097.5 60.0 L 1070.5 81.0 L 1070.5 207.0 z" fill="rgb(255,217,194)" stroke="black"/>
  <text fill="rgb(9,33,173)" font-size="25" x="1092.0" y="127.5">front_left</text>
  <path d="M 1252.0 174.0 L 1345.0 132.0 Q 1378.3 116.4 1360.0 60.0 L 1252.0 60.0 L 1252.0 174.0 z" fill="rgb(255,217,194)" stroke="black"/>
  <text fill="rgb(9,33,173)" font-size="25" x="1277.25" y="109.5">lbsleeve</text>
  <path d="M 1420.0 174.0 L 1528.0 174.0 Q 1546.3 117.6 1513.0 102.0 L 1420.0 60.0 L 1420.0 174.0 z" fill="rgb(255,217,194)" stroke="black"/>
  <text fill="rgb(9,33,173)" font-size="25" x="1445.25" y="130.5">lfsleeve</text>
</svg>
