<?xml version="1.0" encoding="utf-8" ?>
<svg xmlns="http://www.w3.org/2000/svg" xmlns:ev="http://www.w3.org/2001/xml-events" xmlns:xlink="http://www.w3.org/1999/xlink" baseProfile="full" height="252.0px" version="1.1" width="1192.0px">
  <defs/>
  <path d="M 60 168 L 222 168 L 222 60 L 60 60 L 60 168 z" fill="rgb(255,217,194)" stroke="black"/>
  <text fill="rgb(9,33,173)" font-size="25" x="116.0" y="117.0">skirt_back</text>
  <path d="M 282 81 L 372 81 L 372 60 L 282 60 L 282 81 z" fill="rgb(255,217,194)" stroke="black"/>
  <text fill="rgb(9,33,173)" font-size="25" x="302.0" y="73.5">wb_back</text>
  <path d="M 432 81 L 522 81 L 522 60 L 432 60 L 432 81 z" fill="rgb(255,217,194)" stroke="black"/>
  <text fill="rgb(9,33,173)" font-size="25" x="452.0" y="73.5">wb_front</text>
  <path d="M 592.0 168.0 L 754.0 168.0 L 754.0 60.0 L 592.0 60.0 L 592.0 168.0 z" fill="rgb(255,217,194)" stroke="black"/>
  <text fill="rgb(9,33,173)" font-size="25" x="648.0" y="117.0">skirt_front</text>
  <path d="M 818.0 192.0 L 944.0 192.0 L 944.0 117.0 Q 918.5 103.5 935.0 60.0 L 905.0 60.0 Q 881.0 144.0451597962516 857.0 60.0 L 827.0 60.0 Q 843.5 103.5 818.0 117.0 L 818.0 192.0 z" fill="rgb(255,217,194)" stroke="black"/>
  <text fill="rgb(9,33,173)" font-size="25" x="856.0" y="110.25">top_back</text>
  <path d="M 1004.0 192.0 L 1130.0 192.0 L 1130.0 117.0 Q 1104.5 103.5 1121.0 60.0 L 1091.0 60.0 L 1067.0 93.0 L 1043.0 60.0 L 1013.0 60.0 Q 1029.5 103.5 1004.0 117.0 L 1004.0 192.0 z" fill="rgb(255,217,194)" stroke="black"/>
  <text fill="rgb(9,33,173)" font-size="25" x="1042.0" y="108.66666666666667">top_front</text>
</svg>
