<?xml version="1.0" encoding="utf-8" ?>
<svg xmlns="http://www.w3.org/2000/svg" xmlns:ev="http://www.w3.org/2001/xml-events" xmlns:xlink="http://www.w3.org/1999/xlink" baseProfile="full" height="318.0px" version="1.1" width="1597.0px">
  <defs/>
  <path d="M 60 225 L 84 225 Q 115.5 145.5 69 120 L 60 60 L 60 225 z" fill="rgb(255,217,194)" stroke="black"/>
  <text fill="rgb(9,33,173)" font-size="25" x="43.25" y="160.5">rbsleeve</text>
  <path d="M 183.25 225.0 L 192.25 165.0 Q 238.75 139.5 207.25 60.0 L 183.25 60.0 L 183.25 225.0 z" fill="rgb(255,217,194)" stroke="black"/>
  <text fill="rgb(9,33,173)" font-size="25" x="166.5" y="130.5">rfsleeve</text>
  <path d="M 306.5 258.0 L 636.5 258.0 L 558.5 165.0 Q 512.9 138.3 546.5 60.0 L 507.5 60.0 L 471.5 69.0 L 435.5 60.0 L 396.5 60.0 Q 430.1 138.3 384.5 165.0 L 306.5 258.0 z" fill="rgb(255,217,194)" stroke="black"/>
  <text fill="rgb(9,33,173)" font-size="25" x="446.5" y="131.33333333333334">back</text>
  <path d="M 696.5 258.0 L 1026.5 258.0 L 948.5 165.0 Q 902.9 138.3 936.5 60.0 L 897.5 60.0 L 861.5 72.0 L 825.5 60.0 L 786.5 60.0 Q 820.1 138.3 774.5 165.0 L 696.5 258.0 z" fill="rgb(255,217,194)" stroke="black"/>
  <text fill="rgb(9,33,173)" font-size="25" x="836.5" y="131.66666666666666">front</text>
  <path d="M 1089.5 189.0 L 1125.5 186.0 Q 1203.8000000000002 171.60000000000002 1158.5 72.0 L 1125.5 81.0 L 1086.5 60.0 L 1089.5 189.0 z" fill="rgb(255,217,194)" stroke="black"/>
  <text fill="rgb(9,33,173)" font-size="25" x="1092.1" y="120.6">Rhood</text>
  <path d="M 1218.5 189.0 L 1257.5 168.0 L 1290.5 177.0 Q 1335.8000000000002 77.4 1257.5 63.0 L 1221.5 60.0 L 1218.5 189.0 z" fill="rgb(255,217,194)" stroke="black"/>
  <text fill="rgb(9,33,173)" font-size="25" x="1224.1" y="134.4">Lhood</text>
  <path d="M 1350.5 225.0 L 1359.5 165.0 Q 1406.0 139.5 1374.5 60.0 L 1350.5 60.0 L 1350.5 225.0 z" fill="rgb(255,217,194)" stroke="black"/>
  <text fill="rgb(9,33,173)" font-size="25" x="1333.75" y="130.5">lbsleeve</text>
  <path d="M 1473.75 225.0 L 1497.75 225.0 Q 1529.25 145.5 1482.75 120.0 L 1473.75 60.0 L 1473.75 225.0 z" fill="rgb(255,217,194)" stroke="black"/>
  <text fill="rgb(9,33,173)" font-size="25" x="1457.0" y="160.5">lfsleeve</text>
</svg>
