<?xml version="1.0" encoding="utf-8" ?>
<svg xmlns="http://www.w3.org/2000/svg" xmlns:ev="http://www.w3.org/2001/xml-events" xmlns:xlink="http://www.w3.org/1999/xlink" baseProfile="full" height="240px" version="1.1" width="1212px">
  <defs/>
  <path d="M 60 180 L 177 180 Q 175.35 77.55 168 60 L 90 60 Q 104.7 141.75 60 153 Q 62.7 154.35 60 180 z" fill="rgb(255,217,194)" stroke="black"/>
  <text fill="rgb(9,33,173)" font-size="25" x="86.0" y="129.6">Rback</text>
  <path d="M 237 180 L 354 180 Q 351.3 154.35 354 153 Q 313.95 140.25 324 60 L 246 60 Q 238.65 77.55 237 180 z" fill="rgb(255,217,194)" stroke="black"/>
  <text fill="rgb(9,33,173)" font-size="25" x="278.0" y="129.6">Rfront</text>
  <path d="M 414 168 L 495 168 L 576 168 L 570 153 Q 529.1999999999999 129.9 558 60 L 513 60 Q 495.0 62.14752388419453 477 60 L 432 60 Q 460.8 129.9 420 153 L 414 168 z" fill="rgb(255,217,194)" stroke="black"/>
  <text fill="rgb(9,33,173)" font-size="25" x="470.0" y="119.66666666666667">up_back</text>
  <path d="M 636 165 L 717 165 L 798 165 L 792 153 Q 751.1999999999999 129.9 780 60 L 735 60 L 717 75 L 699 60 L 654 60 Q 682.8000000000001 129.9 642 153 L 636 165 z" fill="rgb(255,217,194)" stroke="black"/>
  <text fill="rgb(9,33,173)" font-size="25" x="692.0" y="114.6">up_front</text>
  <path d="M 858 180 L 975 180 Q 972.3 154.35 975 153 Q 930.3 141.75 945 60 L 867 60 Q 859.65 77.55 858 180 z" fill="rgb(255,217,194)" stroke="black"/>
  <text fill="rgb(9,33,173)" font-size="25" x="899.0" y="129.6">Lback</text>
  <path d="M 1035 180 L 1152 180 Q 1150.35 77.55 1143 60 L 1065 60 Q 1075.05 140.25 1035 153 Q 1037.7 154.35 1035 180 z" fill="rgb(255,217,194)" stroke="black"/>
  <text fill="rgb(9,33,173)" font-size="25" x="1061.0" y="129.6">Lfront</text>
</svg>
