<?xml version="1.0" encoding="utf-8" ?>
<svg xmlns="http://www.w3.org/2000/svg" xmlns:ev="http://www.w3.org/2001/xml-events" xmlns:xlink="http://www.w3.org/1999/xlink" baseProfile="full" height="393.0px" version="1.1" width="1132.0px">
  <defs/>
  <path d="M 60 156 L 108 156 Q 138.0 84.00000000000001 96 60 L 60 87 L 60 156 z" fill="rgb(255,217,194)" stroke="black"/>
  <text fill="rgb(9,33,173)" font-size="25" x="56.0" y="117.75">rbsleeve</text>
  <path d="M 196.0 129.0 L 232.0 156.0 Q 274.0 132.0 244.0 60.0 L 196.0 60.0 L 196.0 129.0 z" fill="rgb(255,217,194)" stroke="black"/>
  <text fill="rgb(9,33,173)" font-size="25" x="192.0" y="104.25">rfsleeve</text>
  <path d="M 332.0 333.0 L 536.0 333.0 L 500.0 156.0 Q 458.0 132.0 488.0 60.0 L 458.0 60.0 Q 434.0 109.48893471729421 410.0 60.0 L 380.0 60.0 Q 410.0 132.0 368.0 156.0 L 332.0 333.0 z" fill="rgb(255,217,194)" stroke="black"/>
  <text fill="rgb(9,33,173)" font-size="25" x="409.0" y="155.25">back</text>
  <path d="M 596.0 333.0 L 800.0 333.0 L 764.0 156.0 Q 722.0 132.0 752.0 60.0 L 722.0 60.0 L 698.0 78.0 L 674.0 60.0 L 644.0 60.0 Q 674.0 132.0 632.0 156.0 L 596.0 333.0 z" fill="rgb(255,217,194)" stroke="black"/>
  <text fill="rgb(9,33,173)" font-size="25" x="673.0" y="147.0">front</text>
  <path d="M 860.0 129.0 L 896.0 156.0 Q 938.0 132.0 908.0 60.0 L 860.0 60.0 L 860.0 129.0 z" fill="rgb(255,217,194)" stroke="black"/>
  <text fill="rgb(9,33,173)" font-size="25" x="856.0" y="104.25">lbsleeve</text>
  <path d="M 996.0 156.0 L 1044.0 156.0 Q 1074.0 84.00000000000001 1032.0 60.0 L 996.0 87.0 L 996.0 156.0 z" fill="rgb(255,217,194)" stroke="black"/>
  <text fill="rgb(9,33,173)" font-size="25" x="992.0" y="117.75">lfsleeve</text>
</svg>
