<?xml version="1.0" encoding="utf-8" ?>
<svg xmlns="http://www.w3.org/2000/svg" xmlns:ev="http://www.w3.org/2001/xml-events" xmlns:xlink="http://www.w3.org/1999/xlink" baseProfile="full" height="249px" version="1.1" width="1474.0px">
  <defs/>
  <path d="M 60 189 L 150 189 L 183 60 L 90 60 Q 96.3 126.0 60 132 Q 65.7 134.85 60 189 z" fill="rgb(255,217,194)" stroke="black"/>
  <text fill="rgb(9,33,173)" font-size="25" x="83.6" y="129.0">Rback</text>
  <path d="M 276 189 L 366 189 Q 360.3 134.85 366 132 Q 333.3 124.5 336 60 L 243 60 L 276 189 z" fill="rgb(255,217,194)" stroke="black"/>
  <text fill="rgb(9,33,173)" font-size="25" x="292.4" y="129.0">Rfront</text>
  <path d="M 426 69 L 465 69 L 504 69 L 504 60 L 426 60 L 426 69 z" fill="rgb(255,217,194)" stroke="black"/>
  <text fill="rgb(9,33,173)" font-size="25" x="440.0" y="68.4">wb_back</text>
  <path d="M 570.0 69.0 L 609.0 69.0 L 648.0 69.0 L 648.0 60.0 L 570.0 60.0 L 570.0 69.0 z" fill="rgb(255,217,194)" stroke="black"/>
  <text fill="rgb(9,33,173)" font-size="25" x="584.0" y="68.4">wb_front</text>
  <path d="M 724.0 159.0 L 856.0 159.0 L 856.0 117.0 Q 830.5 103.5 847.0 60.0 L 817.0 60.0 Q 790.0 92.1363227776642 763.0 60.0 L 733.0 60.0 Q 749.5 103.5 724.0 117.0 L 724.0 159.0 z" fill="rgb(255,217,194)" stroke="black"/>
  <text fill="rgb(9,33,173)" font-size="25" x="765.0" y="102.0">top_back</text>
  <path d="M 916.0 159.0 L 1048.0 159.0 L 1048.0 114.0 Q 1023.6999999999999 101.39999999999999 1039.0 60.0 L 1009.0 60.0 L 982.0 132.0 L 955.0 60.0 L 925.0 60.0 Q 940.3000000000001 101.39999999999999 916.0 114.0 L 916.0 159.0 z" fill="rgb(255,217,194)" stroke="black"/>
  <text fill="rgb(9,33,173)" font-size="25" x="957.0" y="105.0">top_front</text>
  <path d="M 1141.0 189.0 L 1231.0 189.0 Q 1225.3 134.85 1231.0 132.0 Q 1194.7 126.0 1201.0 60.0 L 1108.0 60.0 L 1141.0 189.0 z" fill="rgb(255,217,194)" stroke="black"/>
  <text fill="rgb(9,33,173)" font-size="25" x="1157.4" y="129.0">Lback</text>
  <path d="M 1291.0 189.0 L 1381.0 189.0 L 1414.0 60.0 L 1321.0 60.0 Q 1323.7 124.5 1291.0 132.0 Q 1296.7 134.85 1291.0 189.0 z" fill="rgb(255,217,194)" stroke="black"/>
  <text fill="rgb(9,33,173)" font-size="25" x="1314.6" y="129.0">Lfront</text>
</svg>
