<?xml version="1.0" encoding="utf-8" ?>
<svg xmlns="http://www.w3.org/2000/svg" xmlns:ev="http://www.w3.org/2001/xml-events" xmlns:xlink="http://www.w3.org/1999/xlink" baseProfile="full" height="327px" version="1.1" width="1522.0px">
  <defs/>
  <path d="M 60 267 L 165 267 L 192 60 L 90 60 Q 99.9 132.75 60 141 Q 72.6 147.3 60 267 z" fill="rgb(255,217,194)" stroke="black"/>
  <text fill="rgb(9,33,173)" font-size="25" x="88.4" y="162.0">Rback</text>
  <path d="M 279 267 L 384 267 Q 371.4 147.3 384 141 Q 348.15 131.25 354 60 L 252 60 L 279 267 z" fill="rgb(255,217,194)" stroke="black"/>
  <text fill="rgb(9,33,173)" font-size="25" x="305.6" y="162.0">Rfront</text>
  <path d="M 444 81 L 483 81 L 522 81 L 522 60 L 444 60 L 444 81 z" fill="rgb(255,217,194)" stroke="black"/>
  <text fill="rgb(9,33,173)" font-size="25" x="458.0" y="75.6">wb_back</text>
  <path d="M 588.0 81.0 L 627.0 81.0 L 666.0 81.0 L 666.0 60.0 L 588.0 60.0 L 588.0 81.0 z" fill="rgb(255,217,194)" stroke="black"/>
  <text fill="rgb(9,33,173)" font-size="25" x="602.0" y="75.6">wb_front</text>
  <path d="M 742.0 141.0 L 880.0 141.0 L 880.0 138.0 Q 845.1999999999999 119.39999999999999 868.0 60.0 L 829.0 60.0 Q 811.0 93.79799072762333 793.0 60.0 L 754.0 60.0 Q 776.8000000000001 119.39999999999999 742.0 138.0 L 742.0 141.0 z" fill="rgb(255,217,194)" stroke="black"/>
  <text fill="rgb(9,33,173)" font-size="25" x="786.0" y="102.75">top_back</text>
  <path d="M 940.0 141.0 L 1078.0 141.0 L 1078.0 138.0 Q 1043.2 119.39999999999999 1066.0 60.0 L 1027.0 60.0 L 1009.0 126.0 L 991.0 60.0 L 952.0 60.0 Q 974.8000000000001 119.39999999999999 940.0 138.0 L 940.0 141.0 z" fill="rgb(255,217,194)" stroke="black"/>
  <text fill="rgb(9,33,173)" font-size="25" x="984.0" y="105.66666666666667">top_front</text>
  <path d="M 1165.0 267.0 L 1270.0 267.0 Q 1257.4 147.3 1270.0 141.0 Q 1230.1 132.75 1240.0 60.0 L 1138.0 60.0 L 1165.0 267.0 z" fill="rgb(255,217,194)" stroke="black"/>
  <text fill="rgb(9,33,173)" font-size="25" x="1191.6" y="162.0">Lback</text>
  <path d="M 1330.0 267.0 L 1435.0 267.0 L 1462.0 60.0 L 1360.0 60.0 Q 1365.85 131.25 1330.0 141.0 Q 1342.6 147.3 1330.0 267.0 z" fill="rgb(255,217,194)" stroke="black"/>
  <text fill="rgb(9,33,173)" font-size="25" x="1358.4" y="162.0">Lfront</text>
</svg>
