<?xml version="1.0" encoding="utf-8" ?>
<svg xmlns="http://www.w3.org/2000/svg" xmlns:ev="http://www.w3.org/2001/xml-events" xmlns:xlink="http://www.w3.org/1999/xlink" baseProfile="full" height="273px" version="1.1" width="1128px">
  <defs/>
  <path d="M 60 213 L 135 213 Q 165.6 84.30000000000001 162 60 L 90 60 Q 104.7 141.75 60 153 Q 66.0 156.0 60 213 z" fill="rgb(255,217,194)" stroke="black"/>
  <text fill="rgb(9,33,173)" font-size="25" x="76.4" y="142.8">Rback</text>
  <path d="M 249 213 L 324 213 Q 318.0 156.0 324 153 Q 283.95 140.25 294 60 L 222 60 Q 218.4 84.3 249 213 z" fill="rgb(255,217,194)" stroke="black"/>
  <text fill="rgb(9,33,173)" font-size="25" x="257.6" y="142.8">Rfront</text>
  <path d="M 384 168 L 459 168 L 534 168 L 528 120 Q 501.29999999999995 105.6 519 60 L 486 60 Q 459.0 137.07546000416988 432 60 L 399 60 Q 416.7 105.6 390 120 L 384 168 z" fill="rgb(255,217,194)" stroke="black"/>
  <text fill="rgb(9,33,173)" font-size="25" x="434.0" y="112.33333333333333">up_back</text>
  <path d="M 594 165 L 669 165 L 744 165 L 738 120 Q 711.3 105.6 729 60 L 696 60 L 669 93 L 642 60 L 609 60 Q 626.7 105.6 600 120 L 594 165 z" fill="rgb(255,217,194)" stroke="black"/>
  <text fill="rgb(9,33,173)" font-size="25" x="644.0" y="109.8">up_front</text>
  <path d="M 831 213 L 906 213 Q 900.0 156.0 906 153 Q 861.3 141.75 876 60 L 804 60 Q 800.4 84.3 831 213 z" fill="rgb(255,217,194)" stroke="black"/>
  <text fill="rgb(9,33,173)" font-size="25" x="839.6" y="142.8">Lback</text>
  <path d="M 966 213 L 1041 213 Q 1071.6000000000001 84.30000000000001 1068 60 L 996 60 Q 1006.05 140.25 966 153 Q 972.0 156.0 966 213 z" fill="rgb(255,217,194)" stroke="black"/>
  <text fill="rgb(9,33,173)" font-size="25" x="982.4" y="142.8">Lfront</text>
</svg>
