<?xml version="1.0" encoding="utf-8" ?>
<svg xmlns="http://www.w3.org/2000/svg" xmlns:ev="http://www.w3.org/2001/xml-events" xmlns:xlink="http://www.w3.org/1999/xlink" baseProfile="full" height="285px" version="1.1" width="1176px">
  <defs/>
  <path d="M 60 225 L 141 225 Q 172.2 86.1 168 60 L 90 60 Q 104.7 141.75 60 153 Q 67.2 156.6 60 225 z" fill="rgb(255,217,194)" stroke="black"/>
  <text fill="rgb(9,33,173)" font-size="25" x="78.8" y="147.6">Rback</text>
  <path d="M 255 225 L 336 225 Q 328.8 156.60000000000002 336 153 Q 295.95 140.25 306 60 L 228 60 Q 223.8 86.1 255 225 z" fill="rgb(255,217,194)" stroke="black"/>
  <text fill="rgb(9,33,173)" font-size="25" x="267.2" y="147.6">Rfront</text>
  <path d="M 399 168 L 477 168 L 555 168 L 558 144 Q 519.9 124.8 543 60 L 495 60 Q 477.0 100.43450145882417 459 60 L 411 60 Q 434.1 124.8 396 144 L 399 168 z" fill="rgb(255,217,194)" stroke="black"/>
  <text fill="rgb(9,33,173)" font-size="25" x="452.0" y="117.66666666666667">up_back</text>
  <path d="M 621 165 L 699 165 L 777 165 L 780 144 Q 741.9 124.8 765 60 L 717 60 L 699 90 L 681 60 L 633 60 Q 656.1 124.8 618 144 L 621 165 z" fill="rgb(255,217,194)" stroke="black"/>
  <text fill="rgb(9,33,173)" font-size="25" x="674.0" y="114.3">up_front</text>
  <path d="M 867 225 L 948 225 Q 940.8 156.60000000000002 948 153 Q 903.3 141.75 918 60 L 840 60 Q 835.8 86.1 867 225 z" fill="rgb(255,217,194)" stroke="black"/>
  <text fill="rgb(9,33,173)" font-size="25" x="879.2" y="147.6">Lback</text>
  <path d="M 1008 225 L 1089 225 Q 1120.2 86.1 1116 60 L 1038 60 Q 1048.05 140.25 1008 153 Q 1015.2 156.6 1008 225 z" fill="rgb(255,217,194)" stroke="black"/>
  <text fill="rgb(9,33,173)" font-size="25" x="1026.8" y="147.6">Lfront</text>
</svg>
