<?xml version="1.0" encoding="utf-8" ?>
<svg xmlns="http://www.w3.org/2000/svg" xmlns:ev="http://www.w3.org/2001/xml-events" xmlns:xlink="http://www.w3.org/1999/xlink" baseProfile="full" height="336.0px" version="1.1" width="1555.8px">
  <defs/>
  <path d="M 60 162 L 102 162 Q 114.9 124.80000000000001 93 114 L 60 60 L 60 162 z" fill="rgb(255,217,194)" stroke="black"/>
  <text fill="rgb(9,33,173)" font-size="25" x="53.75" y="127.5">rbsleeve</text>
  <path d="M 193.75 162.0 L 226.75 108.0 Q 248.64999999999998 97.19999999999999 235.75 60.0 L 193.75 60.0 L 193.75 162.0 z" fill="rgb(255,217,194)" stroke="black"/>
  <text fill="rgb(9,33,173)" font-size="25" x="187.5" y="100.5">rfsleeve</text>
  <path d="M 327.5 276.0 L 378.5 276.0 Q 422.45 94.35000000000001 417.5 60.0 L 357.5 60.0 Q 372.2 141.75 327.5 153.0 Q 339.8 159.15 327.5 276.0 z" fill="rgb(255,217,194)" stroke="black"/>
  <text fill="rgb(9,33,173)" font-size="25" x="336.7" y="168.0">Rback</text>
  <path d="M 516.5 276.0 L 567.5 276.0 Q 555.2 159.15 567.5 153.0 Q 527.45 140.25 537.5 60.0 L 477.5 60.0 Q 472.55 94.35000000000001 516.5 276.0 z" fill="rgb(255,217,194)" stroke="black"/>
  <text fill="rgb(9,33,173)" font-size="25" x="508.29999999999995" y="168.0">Rfront</text>
  <path d="M 628.3 168.0 L 688.3 168.0 L 748.3 168.0 L 745.3 108.0 Q 723.3999999999999 97.19999999999999 736.3 60.0 L 706.3 60.0 Q 688.3 100.9121719118603 670.3 60.0 L 640.3 60.0 Q 653.2 97.19999999999999 631.3 108.0 L 628.3 168.0 z" fill="rgb(255,217,194)" stroke="black"/>
  <text fill="rgb(9,33,173)" font-size="25" x="663.3000000000001" y="109.66666666666667">up_back</text>
  <path d="M 808.3 165.0 L 868.3 165.0 L 928.3 165.0 L 925.3 108.0 Q 903.3999999999999 97.19999999999999 916.3 60.0 L 886.3 60.0 L 868.3 117.0 L 850.3 60.0 L 820.3 60.0 Q 833.2 97.19999999999999 811.3 108.0 L 808.3 165.0 z" fill="rgb(255,217,194)" stroke="black"/>
  <text fill="rgb(9,33,173)" font-size="25" x="843.3" y="109.8">up_front</text>
  <path d="M 1027.3 276.0 L 1078.3 276.0 Q 1066.0 159.15 1078.3 153.0 Q 1033.6 141.75 1048.3 60.0 L 988.3 60.0 Q 983.35 94.35000000000001 1027.3 276.0 z" fill="rgb(255,217,194)" stroke="black"/>
  <text fill="rgb(9,33,173)" font-size="25" x="1019.0999999999999" y="168.0">Lback</text>
  <path d="M 1138.3 276.0 L 1189.3 276.0 Q 1233.25 94.35000000000001 1228.3 60.0 L 1168.3 60.0 Q 1178.35 140.25 1138.3 153.0 Q 1150.6 159.15 1138.3 276.0 z" fill="rgb(255,217,194)" stroke="black"/>
  <text fill="rgb(9,33,173)" font-size="25" x="1147.5" y="168.0">Lfront</text>
  <path d="M 1288.3 162.0 L 1321.3 108.0 Q 1343.2 97.19999999999999 1330.3 60.0 L 1288.3 60.0 L 1288.3 162.0 z" fill="rgb(255,217,194)" stroke="black"/>
  <text fill="rgb(9,33,173)" font-size="25" x="1282.05" y="100.5">lbsleeve</text>
  <path d="M 1422.05 162.0 L 1464.05 162.0 Q 1476.95 124.80000000000001 1455.05 114.0 L 1422.05 60.0 L 1422.05 162.0 z" fill="rgb(255,217,194)" stroke="black"/>
  <text fill="rgb(9,33,173)" font-size="25" x="1415.8" y="127.5">lfsleeve</text>
</svg>
