<?xml version="1.0" encoding="utf-8" ?>
<svg xmlns="http://www.w3.org/2000/svg" xmlns:ev="http://www.w3.org/2001/xml-events" xmlns:xlink="http://www.w3.org/1999/xlink" baseProfile="full" height="297px" version="1.1" width="798.5px">
  <defs/>
  <path d="M 60 237 L 192 237 L 192 114 L 159 60 L 117 60 Q 155.4 146.7 105 177 L 60 237 z" fill="rgb(255,217,194)" stroke="black"/>
  <text fill="rgb(9,33,173)" font-size="25" x="112.5" y="150.5">front_right</text>
  <path d="M 282.5 237.0 L 546.5 237.0 L 501.5 177.0 Q 451.09999999999997 146.70000000000002 489.5 60.0 L 447.5 60.0 Q 414.5 142.14078035556724 381.5 60.0 L 339.5 60.0 Q 377.90000000000003 146.7 327.5 177.0 L 282.5 237.0 z" fill="rgb(255,217,194)" stroke="black"/>
  <text fill="rgb(9,33,173)" font-size="25" x="389.5" y="136.5">back</text>
  <path d="M 606.5 237.0 L 738.5 237.0 L 693.5 177.0 Q 643.1 146.70000000000002 681.5 60.0 L 639.5 60.0 L 606.5 114.0 L 606.5 237.0 z" fill="rgb(255,217,194)" stroke="black"/>
  <text fill="rgb(9,33,173)" font-size="25" x="636.0" y="150.5">front_left</text>
</svg>
