<?xml version="1.0" encoding="utf-8" ?>
<svg xmlns="http://www.w3.org/2000/svg" xmlns:ev="http://www.w3.org/2001/xml-events" xmlns:xlink="http://www.w3.org/1999/xlink" baseProfile="full" height="393.0px" version="1.1" width="1463.0px">
  <defs/>
  <path d="M 60 192 L 132 192 Q 146.1 152.70000000000002 123 141 L 60 60 L 60 192 z" fill="rgb(255,217,194)" stroke="black"/>
  <text fill="rgb(9,33,173)" font-size="25" x="68.75" y="149.25">rbsleeve</text>
  <path d="M 208.75 192.0 L 271.75 111.0 Q 294.84999999999997 99.3 280.75 60.0 L 208.75 60.0 L 208.75 192.0 z" fill="rgb(255,217,194)" stroke="black"/>
  <text fill="rgb(9,33,173)" font-size="25" x="217.5" y="108.75">rfsleeve</text>
  <path d="M 357.5 330.0 L 429.5 330.0 L 429.5 114.0 L 399.5 60.0 L 381.5 60.0 Q 396.8 101.39999999999999 372.5 114.0 L 357.5 330.0 z" fill="rgb(255,217,194)" stroke="black"/>
  <text fill="rgb(9,33,173)" font-size="25" x="370.0" y="171.0">front_right</text>
  <path d="M 540.0 225.0 L 585.0 216.0 Q 657.9 195.29999999999998 606.0 105.0 L 576.0 114.0 L 546.0 60.0 L 540.0 225.0 z" fill="rgb(255,217,194)" stroke="black"/>
  <text fill="rgb(9,33,173)" font-size="25" x="545.6" y="147.0">Rhood</text>
  <path d="M 666.0 333.0 L 810.0 333.0 L 795.0 114.0 Q 770.6999999999999 101.39999999999999 786.0 60.0 L 768.0 60.0 L 738.0 69.0 L 708.0 60.0 L 690.0 60.0 Q 705.3000000000001 101.39999999999999 681.0 114.0 L 666.0 333.0 z" fill="rgb(255,217,194)" stroke="black"/>
  <text fill="rgb(9,33,173)" font-size="25" x="713.0" y="136.66666666666666">back</text>
  <path d="M 876.0 225.0 L 906.0 171.0 L 936.0 180.0 Q 987.9 89.70000000000002 915.0 69.0 L 870.0 60.0 L 876.0 225.0 z" fill="rgb(255,217,194)" stroke="black"/>
  <text fill="rgb(9,33,173)" font-size="25" x="875.6" y="144.0">Lhood</text>
  <path d="M 996.0 330.0 L 1068.0 330.0 L 1053.0 114.0 Q 1028.7 101.39999999999999 1044.0 60.0 L 1026.0 60.0 L 996.0 114.0 L 996.0 330.0 z" fill="rgb(255,217,194)" stroke="black"/>
  <text fill="rgb(9,33,173)" font-size="25" x="1005.5" y="171.0">front_left</text>
  <path d="M 1165.5 192.0 L 1228.5 111.0 Q 1251.6000000000001 99.3 1237.5 60.0 L 1165.5 60.0 L 1165.5 192.0 z" fill="rgb(255,217,194)" stroke="black"/>
  <text fill="rgb(9,33,173)" font-size="25" x="1174.25" y="108.75">lbsleeve</text>
  <path d="M 1314.25 192.0 L 1386.25 192.0 Q 1400.3500000000001 152.70000000000002 1377.25 141.0 L 1314.25 60.0 L 1314.25 192.0 z" fill="rgb(255,217,194)" stroke="black"/>
  <text fill="rgb(9,33,173)" font-size="25" x="1323.0" y="149.25">lfsleeve</text>
</svg>
