<?xml version="1.0" encoding="utf-8" ?>
<svg xmlns="http://www.w3.org/2000/svg" xmlns:ev="http://www.w3.org/2001/xml-events" xmlns:xlink="http://www.w3.org/1999/xlink" baseProfile="full" height="330px" version="1.1" width="1450.0px">
  <defs/>
  <path d="M 60 270 L 162 270 L 168 60 L 90 60 Q 103.5 139.5 60 150 Q 72.0 156.0 60 270 z" fill="rgb(255,217,194)" stroke="black"/>
  <text fill="rgb(9,33,173)" font-size="25" x="83.0" y="165.0">Rback</text>
  <path d="M 234 270 L 336 270 Q 324.0 156.0 336 150 Q 297.0 138.0 306 60 L 228 60 L 234 270 z" fill="rgb(255,217,194)" stroke="black"/>
  <text fill="rgb(9,33,173)" font-size="25" x="263.0" y="165.0">Rfront</text>
  <path d="M 396 69 L 435 69 L 474 69 L 474 60 L 396 60 L 396 69 z" fill="rgb(255,217,194)" stroke="black"/>
  <text fill="rgb(9,33,173)" font-size="25" x="410.0" y="68.4">wb_back</text>
  <path d="M 540.0 69.0 L 579.0 69.0 L 618.0 69.0 L 618.0 60.0 L 540.0 60.0 L 540.0 69.0 z" fill="rgb(255,217,194)" stroke="black"/>
  <text fill="rgb(9,33,173)" font-size="25" x="554.0" y="68.4">wb_front</text>
  <path d="M 694.0 144.0 L 844.0 144.0 L 844.0 105.0 Q 822.4 96.3 832.0 60.0 L 790.0 60.0 Q 769.0 68.41835833175479 748.0 60.0 L 706.0 60.0 Q 715.6 96.3 694.0 105.0 L 694.0 144.0 z" fill="rgb(255,217,194)" stroke="black"/>
  <text fill="rgb(9,33,173)" font-size="25" x="744.0" y="95.25">top_back</text>
  <path d="M 904.0 144.0 L 1054.0 144.0 L 1054.0 105.0 Q 1032.4 96.3 1042.0 60.0 L 1000.0 60.0 L 979.0 135.0 L 958.0 60.0 L 916.0 60.0 Q 925.6 96.3 904.0 105.0 L 904.0 144.0 z" fill="rgb(255,217,194)" stroke="black"/>
  <text fill="rgb(9,33,173)" font-size="25" x="954.0" y="100.0">top_front</text>
  <path d="M 1120.0 270.0 L 1222.0 270.0 Q 1210.0 156.0 1222.0 150.0 Q 1178.5 139.5 1192.0 60.0 L 1114.0 60.0 L 1120.0 270.0 z" fill="rgb(255,217,194)" stroke="black"/>
  <text fill="rgb(9,33,173)" font-size="25" x="1149.0" y="165.0">Lback</text>
  <path d="M 1282.0 270.0 L 1384.0 270.0 L 1390.0 60.0 L 1312.0 60.0 Q 1321.0 138.0 1282.0 150.0 Q 1294.0 156.0 1282.0 270.0 z" fill="rgb(255,217,194)" stroke="black"/>
  <text fill="rgb(9,33,173)" font-size="25" x="1305.0" y="165.0">Lfront</text>
</svg>
