<?xml version="1.0" encoding="utf-8" ?>
<svg xmlns="http://www.w3.org/2000/svg" xmlns:ev="http://www.w3.org/2001/xml-events" xmlns:xlink="http://www.w3.org/1999/xlink" baseProfile="full" height="342.0px" version="1.1" width="1411.0px">
  <defs/>
  <path d="M 60 126 L 81 126 Q 99.9 78.30000000000001 72 63 L 60 60 L 60 126 z" fill="rgb(255,217,194)" stroke="black"/>
  <text fill="rgb(9,33,173)" font-size="25" x="43.25" y="96.75">rbsleeve</text>
  <path d="M 183.25 126.0 L 195.25 123.0 Q 223.14999999999998 107.69999999999999 204.25 60.0 L 183.25 60.0 L 183.25 126.0 z" fill="rgb(255,217,194)" stroke="black"/>
  <text fill="rgb(9,33,173)" font-size="25" x="166.5" y="95.25">rfsleeve</text>
  <path d="M 306.5 282.0 L 552.5 282.0 L 489.5 123.0 Q 461.6 107.69999999999999 480.5 60.0 L 456.5 60.0 L 429.5 69.0 L 402.5 60.0 L 378.5 60.0 Q 397.4 107.69999999999999 369.5 123.0 L 306.5 282.0 z" fill="rgb(255,217,194)" stroke="black"/>
  <text fill="rgb(9,33,173)" font-size="25" x="404.5" y="127.33333333333333">back</text>
  <path d="M 612.5 282.0 L 858.5 282.0 L 795.5 123.0 Q 767.5999999999999 107.69999999999999 786.5 60.0 L 762.5 60.0 L 735.5 63.0 L 708.5 60.0 L 684.5 60.0 Q 703.4000000000001 107.69999999999999 675.5 123.0 L 612.5 282.0 z" fill="rgb(255,217,194)" stroke="black"/>
  <text fill="rgb(9,33,173)" font-size="25" x="710.5" y="126.66666666666667">front</text>
  <path d="M 918.5 141.0 L 978.5 147.0 Q 1031.6 122.7 981.5 60.0 L 954.5 69.0 L 924.5 60.0 L 918.5 141.0 z" fill="rgb(255,217,194)" stroke="black"/>
  <text fill="rgb(9,33,173)" font-size="25" x="926.5" y="98.4">Rhood</text>
  <path d="M 1047.5 147.0 L 1077.5 138.0 L 1104.5 147.0 Q 1154.6000000000001 84.3 1101.5 60.0 L 1041.5 66.0 L 1047.5 147.0 z" fill="rgb(255,217,194)" stroke="black"/>
  <text fill="rgb(9,33,173)" font-size="25" x="1049.5" y="114.6">Lhood</text>
  <path d="M 1164.5 126.0 L 1176.5 123.0 Q 1204.4 107.69999999999999 1185.5 60.0 L 1164.5 60.0 L 1164.5 126.0 z" fill="rgb(255,217,194)" stroke="black"/>
  <text fill="rgb(9,33,173)" font-size="25" x="1147.75" y="95.25">lbsleeve</text>
  <path d="M 1287.75 126.0 L 1308.75 126.0 Q 1327.65 78.30000000000001 1299.75 63.0 L 1287.75 60.0 L 1287.75 126.0 z" fill="rgb(255,217,194)" stroke="black"/>
  <text fill="rgb(9,33,173)" font-size="25" x="1271.0" y="96.75">lfsleeve</text>
</svg>
