<?xml version="1.0" encoding="utf-8" ?>
<svg xmlns="http://www.w3.org/2000/svg" xmlns:ev="http://www.w3.org/2001/xml-events" xmlns:xlink="http://www.w3.org/1999/xlink" baseProfile="full" height="417.0px" version="1.1" width="1798.0px">
  <defs/>
  <path d="M 60 216 L 141 216 Q 169.8 146.1 129 123 L 60 60 L 60 216 z" fill="rgb(255,217,194)" stroke="black"/>
  <text fill="rgb(9,33,173)" font-size="25" x="72.5" y="156.75">rbsleeve</text>
  <path d="M 212.5 216.0 L 281.5 153.0 Q 322.3 129.9 293.5 60.0 L 212.5 60.0 L 212.5 216.0 z" fill="rgb(255,217,194)" stroke="black"/>
  <text fill="rgb(9,33,173)" font-size="25" x="225.0" y="125.25">rfsleeve</text>
  <path d="M 365.0 357.0 L 440.0 354.0 Q 482.75 105.75 473.0 60.0 L 395.0 60.0 Q 409.7 141.75 365.0 153.0 Q 385.4 163.2 365.0 357.0 z" fill="rgb(255,217,194)" stroke="black"/>
  <text fill="rgb(9,33,173)" font-size="25" x="382.6" y="199.8">Rback</text>
  <path d="M 566.0 354.0 L 641.0 357.0 Q 620.6 163.20000000000002 641.0 153.0 Q 600.95 140.25 611.0 60.0 L 533.0 60.0 Q 523.25 105.75 566.0 354.0 z" fill="rgb(255,217,194)" stroke="black"/>
  <text fill="rgb(9,33,173)" font-size="25" x="573.4" y="199.8">Rfront</text>
  <path d="M 707.0 168.0 L 785.0 168.0 L 863.0 168.0 L 869.0 153.0 Q 827.3 131.1 854.0 60.0 L 812.0 60.0 Q 785.0 91.97935769014941 758.0 60.0 L 716.0 60.0 Q 742.7 131.1 701.0 153.0 L 707.0 168.0 z" fill="rgb(255,217,194)" stroke="black"/>
  <text fill="rgb(9,33,173)" font-size="25" x="760.0" y="119.66666666666667">up_back</text>
  <path d="M 935.0 165.0 L 1013.0 165.0 L 1091.0 165.0 L 1097.0 153.0 Q 1055.3 131.1 1082.0 60.0 L 1040.0 60.0 L 1013.0 129.0 L 986.0 60.0 L 944.0 60.0 Q 970.7 131.1 929.0 153.0 L 935.0 165.0 z" fill="rgb(255,217,194)" stroke="black"/>
  <text fill="rgb(9,33,173)" font-size="25" x="988.0" y="120.0">up_front</text>
  <path d="M 1190.0 354.0 L 1265.0 357.0 Q 1244.6 163.20000000000002 1265.0 153.0 Q 1220.3 141.75 1235.0 60.0 L 1157.0 60.0 Q 1147.25 105.75 1190.0 354.0 z" fill="rgb(255,217,194)" stroke="black"/>
  <text fill="rgb(9,33,173)" font-size="25" x="1197.4" y="199.8">Lback</text>
  <path d="M 1325.0 357.0 L 1400.0 354.0 Q 1442.75 105.75 1433.0 60.0 L 1355.0 60.0 Q 1365.05 140.25 1325.0 153.0 Q 1345.4 163.2 1325.0 357.0 z" fill="rgb(255,217,194)" stroke="black"/>
  <text fill="rgb(9,33,173)" font-size="25" x="1342.6" y="199.8">Lfront</text>
  <path d="M 1493.0 216.0 L 1562.0 153.0 Q 1602.8 129.9 1574.0 60.0 L 1493.0 60.0 L 1493.0 216.0 z" fill="rgb(255,217,194)" stroke="black"/>
  <text fill="rgb(9,33,173)" font-size="25" x="1505.5" y="125.25">lbsleeve</text>
  <path d="M 1645.5 216.0 L 1726.5 216.0 Q 1755.3 146.1 1714.5 123.0 L 1645.5 60.0 L 1645.5 216.0 z" fill="rgb(255,217,194)" stroke="black"/>
  <text fill="rgb(9,33,173)" font-size="25" x="1658.0" y="156.75">lfsleeve</text>
</svg>
