<?xml version="1.0" encoding="utf-8" ?>
<svg xmlns="http://www.w3.org/2000/svg" xmlns:ev="http://www.w3.org/2001/xml-events" xmlns:xlink="http://www.w3.org/1999/xlink" baseProfile="full" height="486.0px" version="1.1" width="1535.0px">
  <defs/>
  <path d="M 60 216 L 108 216 Q 116.39999999999999 181.79999999999998 96 174 L 60 60 L 60 216 z" fill="rgb(255,217,194)" stroke="black"/>
  <text fill="rgb(9,33,173)" font-size="25" x="56.0" y="169.5">rbsleeve</text>
  <path d="M 196.0 216.0 L 232.0 102.0 Q 252.4 94.2 244.0 60.0 L 196.0 60.0 L 196.0 216.0 z" fill="rgb(255,217,194)" stroke="black"/>
  <text fill="rgb(9,33,173)" font-size="25" x="192.0" y="112.5">rfsleeve</text>
  <path d="M 332.0 426.0 L 449.0 426.0 L 449.0 111.0 L 425.0 60.0 L 386.0 60.0 Q 395.6 96.3 374.0 105.0 L 332.0 426.0 z" fill="rgb(255,217,194)" stroke="black"/>
  <text fill="rgb(9,33,173)" font-size="25" x="377.5" y="201.0">front_right</text>
  <path d="M 547.5 192.0 L 568.5 192.0 Q 634.2 188.4 607.5 102.0 L 583.5 111.0 L 556.5 60.0 L 547.5 192.0 z" fill="rgb(255,217,194)" stroke="black"/>
  <text fill="rgb(9,33,173)" font-size="25" x="547.7" y="134.4">Rhood</text>
  <path d="M 667.5 426.0 L 901.5 426.0 L 859.5 105.0 Q 837.9 96.3 847.5 60.0 L 808.5 60.0 L 784.5 69.0 L 760.5 60.0 L 721.5 60.0 Q 731.1 96.3 709.5 105.0 L 667.5 426.0 z" fill="rgb(255,217,194)" stroke="black"/>
  <text fill="rgb(9,33,173)" font-size="25" x="759.5" y="155.33333333333334">back</text>
  <path d="M 970.5 192.0 L 997.5 141.0 L 1021.5 150.0 Q 1048.2 63.6 982.5 60.0 L 961.5 60.0 L 970.5 192.0 z" fill="rgb(255,217,194)" stroke="black"/>
  <text fill="rgb(9,33,173)" font-size="25" x="961.7" y="123.6">Lhood</text>
  <path d="M 1081.5 426.0 L 1198.5 426.0 L 1156.5 105.0 Q 1134.9 96.3 1144.5 60.0 L 1105.5 60.0 L 1081.5 111.0 L 1081.5 426.0 z" fill="rgb(255,217,194)" stroke="black"/>
  <text fill="rgb(9,33,173)" font-size="25" x="1103.0" y="201.0">front_left</text>
  <path d="M 1263.0 216.0 L 1299.0 102.0 Q 1319.3999999999999 94.2 1311.0 60.0 L 1263.0 60.0 L 1263.0 216.0 z" fill="rgb(255,217,194)" stroke="black"/>
  <text fill="rgb(9,33,173)" font-size="25" x="1259.0" y="112.5">lbsleeve</text>
  <path d="M 1399.0 216.0 L 1447.0 216.0 Q 1455.3999999999999 181.79999999999998 1435.0 174.0 L 1399.0 60.0 L 1399.0 216.0 z" fill="rgb(255,217,194)" stroke="black"/>
  <text fill="rgb(9,33,173)" font-size="25" x="1395.0" y="169.5">lfsleeve</text>
</svg>
