<?xml version="1.0" encoding="utf-8" ?>
<svg xmlns="http://www.w3.org/2000/svg" xmlns:ev="http://www.w3.org/2001/xml-events" xmlns:xlink="http://www.w3.org/1999/xlink" baseProfile="full" height="351px" version="1.1" width="972px">
  <defs/>
  <path d="M 60 291 Q 147.0 250.2507890181138 234 291 L 222 102 L 219 60 L 75 60 L 72 102 L 60 291 z" fill="rgb(255,217,194)" stroke="black"/>
  <text fill="rgb(9,33,173)" font-size="25" x="122.0" y="154.0">skirt_back</text>
  <path d="M 294 291 Q 381.0 300.09408007894433 468 291 L 456 102 L 453 60 L 309 60 L 306 102 L 294 291 z" fill="rgb(255,217,194)" stroke="black"/>
  <text fill="rgb(9,33,173)" font-size="25" x="356.0" y="154.0">skirt_front</text>
  <path d="M 537 168 L 681 168 L 690 132 Q 657.6 115.2 678 60 L 624 60 Q 609.0 96.22344006258831 594 60 L 540 60 Q 560.4 115.2 528 132 L 537 168 z" fill="rgb(255,217,194)" stroke="black"/>
  <text fill="rgb(9,33,173)" font-size="25" x="584.0" y="108.0">top_back</text>
  <path d="M 759 165 L 903 165 L 912 132 Q 879.6 115.2 900 60 L 846 60 L 831 90 L 816 60 L 762 60 Q 782.4 115.2 750 132 L 759 165 z" fill="rgb(255,217,194)" stroke="black"/>
  <text fill="rgb(9,33,173)" font-size="25" x="806.0" y="105.66666666666667">top_front</text>
</svg>
