<?xml version="1.0" encoding="utf-8" ?>
<svg xmlns="http://www.w3.org/2000/svg" xmlns:ev="http://www.w3.org/2001/xml-events" xmlns:xlink="http://www.w3.org/1999/xlink" baseProfile="full" height="459px" version="1.1" width="873.0px">
  <defs/>
  <path d="M 60 399 L 210 399 L 210 105 L 174 60 L 153 60 Q 178.2 123.6 141 144 L 60 399 z" fill="rgb(255,217,194)" stroke="black"/>
  <text fill="rgb(9,33,173)" font-size="25" x="133.0" y="197.5">front_right</text>
  <path d="M 303.0 399.0 L 603.0 399.0 L 522.0 144.0 Q 484.79999999999995 123.6 510.0 60.0 L 489.0 60.0 Q 453.0 194.74868712352162 417.0 60.0 L 396.0 60.0 Q 421.20000000000005 123.6 384.0 144.0 L 303.0 399.0 z" fill="rgb(255,217,194)" stroke="black"/>
  <text fill="rgb(9,33,173)" font-size="25" x="428.0" y="168.75">back</text>
  <path d="M 663.0 399.0 L 813.0 399.0 L 732.0 144.0 Q 694.8 123.6 720.0 60.0 L 699.0 60.0 L 663.0 105.0 L 663.0 399.0 z" fill="rgb(255,217,194)" stroke="black"/>
  <text fill="rgb(9,33,173)" font-size="25" x="690.0" y="197.5">front_left</text>
</svg>
