<?xml version="1.0" encoding="utf-8" ?>
<svg xmlns="http://www.w3.org/2000/svg" xmlns:ev="http://www.w3.org/2001/xml-events" xmlns:xlink="http://www.w3.org/1999/xlink" baseProfile="full" height="225px" version="1.1" width="1240.0px">
  <defs/>
  <path d="M 60 165 L 225 165 L 225 66 L 177 60 L 150 60 Q 158.7 99.6 135 108 L 60 165 z" fill="rgb(255,217,194)" stroke="black"/>
  <text fill="rgb(9,33,173)" font-size="25" x="137.0" y="107.0">front_right</text>
  <path d="M 322.0 150.0 L 379.0 153.0 Q 442.90000000000003 141.29999999999998 406.0 60.0 L 358.0 69.0 L 307.0 63.0 L 322.0 150.0 z" fill="rgb(255,217,194)" stroke="black"/>
  <text fill="rgb(9,33,173)" font-size="25" x="329.4" y="102.0">Rhood</text>
  <path d="M 466.0 165.0 L 796.0 165.0 L 721.0 108.0 Q 697.3 99.6 706.0 60.0 L 679.0 60.0 L 631.0 69.0 L 583.0 60.0 L 556.0 60.0 Q 564.7 99.6 541.0 108.0 L 466.0 165.0 z" fill="rgb(255,217,194)" stroke="black"/>
  <text fill="rgb(9,33,173)" font-size="25" x="606.0" y="98.0">back</text>
  <path d="M 856.0 150.0 L 907.0 144.0 L 955.0 153.0 Q 991.9 71.7 928.0 60.0 L 871.0 63.0 L 856.0 150.0 z" fill="rgb(255,217,194)" stroke="black"/>
  <text fill="rgb(9,33,173)" font-size="25" x="878.4" y="117.0">Lhood</text>
  <path d="M 1015.0 165.0 L 1180.0 165.0 L 1105.0 108.0 Q 1081.3 99.6 1090.0 60.0 L 1063.0 60.0 L 1015.0 66.0 L 1015.0 165.0 z" fill="rgb(255,217,194)" stroke="black"/>
  <text fill="rgb(9,33,173)" font-size="25" x="1053.0" y="107.0">front_left</text>
</svg>
