<?xml version="1.0" encoding="utf-8" ?>
<svg xmlns="http://www.w3.org/2000/svg" xmlns:ev="http://www.w3.org/2001/xml-events" xmlns:xlink="http://www.w3.org/1999/xlink" baseProfile="full" height="306px" version="1.1" width="1020px">
  <defs/>
  <path d="M 60 246 Q 171.0 307.54654770782486 282 246 L 249 102 L 240 60 L 102 60 L 93 102 L 60 246 z" fill="rgb(255,217,194)" stroke="black"/>
  <text fill="rgb(9,33,173)" font-size="25" x="146.0" y="139.0">skirt_back</text>
  <path d="M 342 246 Q 453.0 178.6985839179818 564 246 L 531 102 L 522 60 L 384 60 L 375 102 L 342 246 z" fill="rgb(255,217,194)" stroke="black"/>
  <text fill="rgb(9,33,173)" font-size="25" x="428.0" y="139.0">skirt_front</text>
  <path d="M 624 168 L 762 168 L 762 135 Q 728.4 117.3 750 60 L 717 60 Q 693.0 111.50901169403369 669 60 L 636 60 Q 657.6 117.3 624 135 L 624 168 z" fill="rgb(255,217,194)" stroke="black"/>
  <text fill="rgb(9,33,173)" font-size="25" x="668.0" y="108.75">top_back</text>
  <path d="M 822 165 L 960 165 L 960 132 Q 927.6 115.2 948 60 L 915 60 L 891 96 L 867 60 L 834 60 Q 854.4 115.2 822 132 L 822 165 z" fill="rgb(255,217,194)" stroke="black"/>
  <text fill="rgb(9,33,173)" font-size="25" x="866.0" y="106.33333333333333">top_front</text>
</svg>
