<?xml version="1.0" encoding="utf-8" ?>
<svg xmlns="http://www.w3.org/2000/svg" xmlns:ev="http://www.w3.org/2001/xml-events" xmlns:xlink="http://www.w3.org/1999/xlink" baseProfile="full" height="315px" version="1.1" width="1366.0px">
  <defs/>
  <path d="M 60 255 L 300 255 L 300 60 L 60 60 L 60 255 z" fill="rgb(255,217,194)" stroke="black"/>
  <text fill="rgb(9,33,173)" font-size="25" x="155.0" y="160.5">skirt_back</text>
  <path d="M 360 78 L 450 78 L 450 60 L 360 60 L 360 78 z" fill="rgb(255,217,194)" stroke="black"/>
  <text fill="rgb(9,33,173)" font-size="25" x="380.0" y="72.0">wb_back</text>
  <path d="M 510 78 L 600 78 L 600 60 L 510 60 L 510 78 z" fill="rgb(255,217,194)" stroke="black"/>
  <text fill="rgb(9,33,173)" font-size="25" x="530.0" y="72.0">wb_front</text>
  <path d="M 670.0 255.0 L 910.0 255.0 L 910.0 60.0 L 670.0 60.0 L 670.0 255.0 z" fill="rgb(255,217,194)" stroke="black"/>
  <text fill="rgb(9,33,173)" font-size="25" x="765.0" y="160.5">skirt_front</text>
  <path d="M 970.0 189.0 L 1108.0 189.0 L 1108.0 126.0 Q 1078.0 111.0 1096.0 60.0 L 1078.0 60.0 Q 1039.0 143.88741050286478 1000.0 60.0 L 982.0 60.0 Q 1000.0 110.99999999999999 970.0 126.0 L 970.0 189.0 z" fill="rgb(255,217,194)" stroke="black"/>
  <text fill="rgb(9,33,173)" font-size="25" x="1014.0" y="111.75">top_back</text>
  <path d="M 1168.0 189.0 L 1306.0 189.0 L 1306.0 126.0 Q 1276.0 111.0 1294.0 60.0 L 1276.0 60.0 L 1237.0 123.0 L 1198.0 60.0 L 1180.0 60.0 Q 1198.0 110.99999999999999 1168.0 126.0 L 1168.0 189.0 z" fill="rgb(255,217,194)" stroke="black"/>
  <text fill="rgb(9,33,173)" font-size="25" x="1212.0" y="113.33333333333333">top_front</text>
</svg>
