<?xml version="1.0" encoding="utf-8" ?>
<svg xmlns="http://www.w3.org/2000/svg" xmlns:ev="http://www.w3.org/2001/xml-events" xmlns:xlink="http://www.w3.org/1999/xlink" baseProfile="full" height="276px" version="1.1" width="1534.0px">
  <defs/>
  <path d="M 60 216 L 150 216 L 183 60 L 90 60 Q 103.5 139.5 60 150 Q 66.6 153.3 60 216 z" fill="rgb(255,217,194)" stroke="black"/>
  <text fill="rgb(9,33,173)" font-size="25" x="83.6" y="143.4">Rback</text>
  <path d="M 276 216 L 366 216 Q 359.4 153.3 366 150 Q 327.0 138.0 336 60 L 243 60 L 276 216 z" fill="rgb(255,217,194)" stroke="black"/>
  <text fill="rgb(9,33,173)" font-size="25" x="292.4" y="143.4">Rfront</text>
  <path d="M 426 72 L 465 72 L 504 72 L 504 60 L 426 60 L 426 72 z" fill="rgb(255,217,194)" stroke="black"/>
  <text fill="rgb(9,33,173)" font-size="25" x="440.0" y="70.2">wb_back</text>
  <path d="M 570.0 72.0 L 609.0 72.0 L 648.0 72.0 L 648.0 60.0 L 570.0 60.0 L 570.0 72.0 z" fill="rgb(255,217,194)" stroke="black"/>
  <text fill="rgb(9,33,173)" font-size="25" x="584.0" y="70.2">wb_front</text>
  <path d="M 724.0 159.0 L 886.0 159.0 L 886.0 126.0 Q 856.0 111.0 874.0 60.0 L 826.0 60.0 Q 805.0 122.73698048305015 784.0 60.0 L 736.0 60.0 Q 754.0 110.99999999999999 724.0 126.0 L 724.0 159.0 z" fill="rgb(255,217,194)" stroke="black"/>
  <text fill="rgb(9,33,173)" font-size="25" x="780.0" y="104.25">top_back</text>
  <path d="M 946.0 159.0 L 1108.0 159.0 L 1108.0 126.0 Q 1078.0 111.0 1096.0 60.0 L 1048.0 60.0 L 1027.0 72.0 L 1006.0 60.0 L 958.0 60.0 Q 976.0 110.99999999999999 946.0 126.0 L 946.0 159.0 z" fill="rgb(255,217,194)" stroke="black"/>
  <text fill="rgb(9,33,173)" font-size="25" x="1002.0" y="101.0">top_front</text>
  <path d="M 1201.0 216.0 L 1291.0 216.0 Q 1284.4 153.3 1291.0 150.0 Q 1247.5 139.5 1261.0 60.0 L 1168.0 60.0 L 1201.0 216.0 z" fill="rgb(255,217,194)" stroke="black"/>
  <text fill="rgb(9,33,173)" font-size="25" x="1217.4" y="143.4">Lback</text>
  <path d="M 1351.0 216.0 L 1441.0 216.0 L 1474.0 60.0 L 1381.0 60.0 Q 1390.0 138.0 1351.0 150.0 Q 1357.6 153.3 1351.0 216.0 z" fill="rgb(255,217,194)" stroke="black"/>
  <text fill="rgb(9,33,173)" font-size="25" x="1374.6" y="143.4">Lfront</text>
</svg>
