<?xml version="1.0" encoding="utf-8" ?>
<svg xmlns="http://www.w3.org/2000/svg" xmlns:ev="http://www.w3.org/2001/xml-events" xmlns:xlink="http://www.w3.org/1999/xlink" baseProfile="full" height="393px" version="1.1" width="1462.0px">
  <defs/>
  <path d="M 60 333 L 132 333 L 180 60 L 90 60 Q 105.9 144.0 60 156 Q 77.7 164.85 60 333 z" fill="rgb(255,217,194)" stroke="black"/>
  <text fill="rgb(9,33,173)" font-size="25" x="79.4" y="191.4">Rback</text>
  <path d="M 288 333 L 360 333 Q 342.3 164.85 360 156 Q 318.9 142.5 330 60 L 240 60 L 288 333 z" fill="rgb(255,217,194)" stroke="black"/>
  <text fill="rgb(9,33,173)" font-size="25" x="290.6" y="191.4">Rfront</text>
  <path d="M 420 72 L 459 72 L 498 72 L 498 60 L 420 60 L 420 72 z" fill="rgb(255,217,194)" stroke="black"/>
  <text fill="rgb(9,33,173)" font-size="25" x="434.0" y="70.2">wb_back</text>
  <path d="M 564.0 72.0 L 603.0 72.0 L 642.0 72.0 L 642.0 60.0 L 564.0 60.0 L 564.0 72.0 z" fill="rgb(255,217,194)" stroke="black"/>
  <text fill="rgb(9,33,173)" font-size="25" x="578.0" y="70.2">wb_front</text>
  <path d="M 718.0 147.0 L 850.0 147.0 L 850.0 132.0 Q 817.6 115.2 838.0 60.0 L 802.0 60.0 Q 784.0 87.51741766959269 766.0 60.0 L 730.0 60.0 Q 750.4 115.2 718.0 132.0 L 718.0 147.0 z" fill="rgb(255,217,194)" stroke="black"/>
  <text fill="rgb(9,33,173)" font-size="25" x="759.0" y="102.75">top_back</text>
  <path d="M 910.0 147.0 L 1042.0 147.0 L 1042.0 132.0 Q 1009.6000000000001 115.2 1030.0 60.0 L 994.0 60.0 L 976.0 126.0 L 958.0 60.0 L 922.0 60.0 Q 942.4 115.2 910.0 132.0 L 910.0 147.0 z" fill="rgb(255,217,194)" stroke="black"/>
  <text fill="rgb(9,33,173)" font-size="25" x="951.0" y="105.66666666666667">top_front</text>
  <path d="M 1150.0 333.0 L 1222.0 333.0 Q 1204.3 164.85 1222.0 156.0 Q 1176.1 144.0 1192.0 60.0 L 1102.0 60.0 L 1150.0 333.0 z" fill="rgb(255,217,194)" stroke="black"/>
  <text fill="rgb(9,33,173)" font-size="25" x="1152.6" y="191.4">Lback</text>
  <path d="M 1282.0 333.0 L 1354.0 333.0 L 1402.0 60.0 L 1312.0 60.0 Q 1323.1 142.5 1282.0 156.0 Q 1299.7 164.85 1282.0 333.0 z" fill="rgb(255,217,194)" stroke="black"/>
  <text fill="rgb(9,33,173)" font-size="25" x="1301.4" y="191.4">Lfront</text>
</svg>
