<?xml version="1.0" encoding="utf-8" ?>
<svg xmlns="http://www.w3.org/2000/svg" xmlns:ev="http://www.w3.org/2001/xml-events" xmlns:xlink="http://www.w3.org/1999/xlink" baseProfile="full" height="432px" version="1.1" width="1368.0px">
  <defs/>
  <path d="M 60 372 L 276 372 L 276 84 L 252 60 L 201 60 Q 222.6 117.3 189 135 L 60 372 z" fill="rgb(255,217,194)" stroke="black"/>
  <text fill="rgb(9,33,173)" font-size="25" x="184.0" y="183.5">front_right</text>
  <path d="M 354.0 186.0 L 399.0 183.0 Q 469.2 161.4 417.0 75.0 L 390.0 84.0 L 363.0 60.0 L 354.0 186.0 z" fill="rgb(255,217,194)" stroke="black"/>
  <text fill="rgb(9,33,173)" font-size="25" x="359.6" y="120.6">Rhood</text>
  <path d="M 477.0 372.0 L 909.0 372.0 L 780.0 135.0 Q 746.4 117.3 768.0 60.0 L 717.0 60.0 L 693.0 69.0 L 669.0 60.0 L 618.0 60.0 Q 639.6 117.3 606.0 135.0 L 477.0 372.0 z" fill="rgb(255,217,194)" stroke="black"/>
  <text fill="rgb(9,33,173)" font-size="25" x="668.0" y="150.0">back</text>
  <path d="M 978.0 186.0 L 1005.0 162.0 L 1032.0 171.0 Q 1084.2 84.60000000000001 1014.0 63.0 L 969.0 60.0 L 978.0 186.0 z" fill="rgb(255,217,194)" stroke="black"/>
  <text fill="rgb(9,33,173)" font-size="25" x="974.6" y="131.4">Lhood</text>
  <path d="M 1092.0 372.0 L 1308.0 372.0 L 1179.0 135.0 Q 1145.4 117.3 1167.0 60.0 L 1116.0 60.0 L 1092.0 84.0 L 1092.0 372.0 z" fill="rgb(255,217,194)" stroke="black"/>
  <text fill="rgb(9,33,173)" font-size="25" x="1134.0" y="183.5">front_left</text>
</svg>
