<?xml version="1.0" encoding="utf-8" ?>
<svg xmlns="http://www.w3.org/2000/svg" xmlns:ev="http://www.w3.org/2001/xml-events" xmlns:xlink="http://www.w3.org/1999/xlink" baseProfile="full" height="318px" version="1.1" width="1926px">
  <defs/>
  <path d="M 60 180 L 198 180 Q 207.6 143.7 186 135 L 60 60 L 60 180 z" fill="rgb(255,217,194)" stroke="black"/>
  <text fill="rgb(9,33,173)" font-size="25" x="101.0" y="141.75">rbsleeve</text>
  <path d="M 258 180 L 384 105 Q 405.6 96.3 396 60 L 258 60 L 258 180 z" fill="rgb(255,217,194)" stroke="black"/>
  <text fill="rgb(9,33,173)" font-size="25" x="299.0" y="104.25">rfsleeve</text>
  <path d="M 456 258 L 804 258 L 705 108 Q 682.1999999999999 98.39999999999999 693 60 L 666 60 L 630 69 L 594 60 L 567 60 Q 577.8000000000001 98.39999999999999 555 108 L 456 258 z" fill="rgb(255,217,194)" stroke="black"/>
  <text fill="rgb(9,33,173)" font-size="25" x="605.0" y="118.66666666666667">back</text>
  <path d="M 864 258 L 1212 258 L 1113 108 Q 1090.2 98.39999999999999 1101 60 L 1074 60 L 1038 60 L 1002 60 L 975 60 Q 985.8000000000001 98.39999999999999 963 108 L 864 258 z" fill="rgb(255,217,194)" stroke="black"/>
  <text fill="rgb(9,33,173)" font-size="25" x="1013.0" y="117.66666666666667">front</text>
  <path d="M 1272 177 L 1338 168 Q 1403.7 137.4 1341 60 L 1308 69 L 1272 63 L 1272 177 z" fill="rgb(255,217,194)" stroke="black"/>
  <text fill="rgb(9,33,173)" font-size="25" x="1281.2" y="110.4">Rhood</text>
  <path d="M 1401 174 L 1437 168 L 1470 177 Q 1532.7 99.60000000000001 1467 69 L 1401 60 L 1401 174 z" fill="rgb(255,217,194)" stroke="black"/>
  <text fill="rgb(9,33,173)" font-size="25" x="1410.2" y="132.6">Lhood</text>
  <path d="M 1530 180 L 1656 105 Q 1677.6 96.3 1668 60 L 1530 60 L 1530 180 z" fill="rgb(255,217,194)" stroke="black"/>
  <text fill="rgb(9,33,173)" font-size="25" x="1571.0" y="104.25">lbsleeve</text>
  <path d="M 1728 180 L 1866 180 Q 1875.6 143.7 1854 135 L 1728 60 L 1728 180 z" fill="rgb(255,217,194)" stroke="black"/>
  <text fill="rgb(9,33,173)" font-size="25" x="1769.0" y="141.75">lfsleeve</text>
</svg>
