<?xml version="1.0" encoding="utf-8" ?>
<svg xmlns="http://www.w3.org/2000/svg" xmlns:ev="http://www.w3.org/2001/xml-events" xmlns:xlink="http://www.w3.org/1999/xlink" baseProfile="full" height="273.0px" version="1.1" width="1486.0px">
  <defs/>
  <path d="M 60 132 L 87 132 Q 107.39999999999999 76.8 75 60 L 60 72 L 60 132 z" fill="rgb(255,217,194)" stroke="black"/>
  <text fill="rgb(9,33,173)" font-size="25" x="45.5" y="102.0">rbsleeve</text>
  <path d="M 185.5 120.0 L 200.5 132.0 Q 232.9 115.2 212.5 60.0 L 185.5 60.0 L 185.5 120.0 z" fill="rgb(255,217,194)" stroke="black"/>
  <text fill="rgb(9,33,173)" font-size="25" x="171.0" y="96.0">rfsleeve</text>
  <path d="M 311.0 213.0 Q 410.0 228.48067383209823 509.0 213.0 L 482.0 102.0 L 476.0 60.0 L 344.0 60.0 L 338.0 102.0 L 311.0 213.0 z" fill="rgb(255,217,194)" stroke="black"/>
  <text fill="rgb(9,33,173)" font-size="25" x="385.0" y="128.0">skirt_back</text>
  <path d="M 569.0 213.0 Q 668.0 181.92477269225543 767.0 213.0 L 740.0 102.0 L 734.0 60.0 L 602.0 60.0 L 596.0 102.0 L 569.0 213.0 z" fill="rgb(255,217,194)" stroke="black"/>
  <text fill="rgb(9,33,173)" font-size="25" x="643.0" y="128.0">skirt_front</text>
  <path d="M 833.0 168.0 L 965.0 168.0 L 971.0 132.0 Q 938.6 115.2 959.0 60.0 L 920.0 60.0 Q 899.0 88.67318837889205 878.0 60.0 L 839.0 60.0 Q 859.4 115.2 827.0 132.0 L 833.0 168.0 z" fill="rgb(255,217,194)" stroke="black"/>
  <text fill="rgb(9,33,173)" font-size="25" x="874.0" y="108.0">top_back</text>
  <path d="M 1037.0 165.0 L 1169.0 165.0 L 1175.0 132.0 Q 1142.6000000000001 115.2 1163.0 60.0 L 1124.0 60.0 L 1103.0 108.0 L 1082.0 60.0 L 1043.0 60.0 Q 1063.3999999999999 115.2 1031.0 132.0 L 1037.0 165.0 z" fill="rgb(255,217,194)" stroke="black"/>
  <text fill="rgb(9,33,173)" font-size="25" x="1078.0" y="107.66666666666667">top_front</text>
  <path d="M 1235.0 120.0 L 1250.0 132.0 Q 1282.3999999999999 115.2 1262.0 60.0 L 1235.0 60.0 L 1235.0 120.0 z" fill="rgb(255,217,194)" stroke="black"/>
  <text fill="rgb(9,33,173)" font-size="25" x="1220.5" y="96.0">lbsleeve</text>
  <path d="M 1360.5 132.0 L 1387.5 132.0 Q 1407.8999999999999 76.8 1375.5 60.0 L 1360.5 72.0 L 1360.5 132.0 z" fill="rgb(255,217,194)" stroke="black"/>
  <text fill="rgb(9,33,173)" font-size="25" x="1346.0" y="102.0">lfsleeve</text>
</svg>
