<?xml version="1.0" encoding="utf-8" ?>
<svg xmlns="http://www.w3.org/2000/svg" xmlns:ev="http://www.w3.org/2001/xml-events" xmlns:xlink="http://www.w3.org/1999/xlink" baseProfile="full" height="462.0px" version="1.1" width="1564.0px">
  <defs/>
  <path d="M 60 132 L 93 132 Q 102.6 95.7 81 87 L 60 60 L 60 132 z" fill="rgb(255,217,194)" stroke="black"/>
  <text fill="rgb(9,33,173)" font-size="25" x="48.5" y="105.75">rbsleeve</text>
  <path d="M 188.5 132.0 L 209.5 105.0 Q 231.1 96.3 221.5 60.0 L 188.5 60.0 L 188.5 132.0 z" fill="rgb(255,217,194)" stroke="black"/>
  <text fill="rgb(9,33,173)" font-size="25" x="177.0" y="92.25">rfsleeve</text>
  <path d="M 317.0 402.0 L 629.0 402.0 L 545.0 108.0 Q 522.1999999999999 98.39999999999999 533.0 60.0 L 500.0 60.0 L 473.0 69.0 L 446.0 60.0 L 413.0 60.0 Q 423.8 98.39999999999999 401.0 108.0 L 317.0 402.0 z" fill="rgb(255,217,194)" stroke="black"/>
  <text fill="rgb(9,33,173)" font-size="25" x="448.0" y="150.66666666666666">back</text>
  <path d="M 689.0 402.0 L 1001.0 402.0 L 917.0 108.0 Q 894.1999999999999 98.39999999999999 905.0 60.0 L 872.0 60.0 L 845.0 75.0 L 818.0 60.0 L 785.0 60.0 Q 795.8000000000001 98.39999999999999 773.0 108.0 L 689.0 402.0 z" fill="rgb(255,217,194)" stroke="black"/>
  <text fill="rgb(9,33,173)" font-size="25" x="820.0" y="151.33333333333334">front</text>
  <path d="M 1061.0 195.0 L 1082.0 189.0 Q 1163.0 180.0 1124.0 75.0 L 1097.0 84.0 L 1067.0 60.0 L 1061.0 195.0 z" fill="rgb(255,217,194)" stroke="black"/>
  <text fill="rgb(9,33,173)" font-size="25" x="1061.2" y="123.6">Rhood</text>
  <path d="M 1190.0 195.0 L 1220.0 171.0 L 1247.0 180.0 Q 1286.0 75.0 1205.0 66.0 L 1184.0 60.0 L 1190.0 195.0 z" fill="rgb(255,217,194)" stroke="black"/>
  <text fill="rgb(9,33,173)" font-size="25" x="1184.2" y="137.4">Lhood</text>
  <path d="M 1307.0 132.0 L 1328.0 105.0 Q 1349.6 96.3 1340.0 60.0 L 1307.0 60.0 L 1307.0 132.0 z" fill="rgb(255,217,194)" stroke="black"/>
  <text fill="rgb(9,33,173)" font-size="25" x="1295.5" y="92.25">lbsleeve</text>
  <path d="M 1435.5 132.0 L 1468.5 132.0 Q 1478.1 95.7 1456.5 87.0 L 1435.5 60.0 L 1435.5 132.0 z" fill="rgb(255,217,194)" stroke="black"/>
  <text fill="rgb(9,33,173)" font-size="25" x="1424.0" y="105.75">lfsleeve</text>
</svg>
