<?xml version="1.0" encoding="utf-8" ?>
<svg xmlns="http://www.w3.org/2000/svg" xmlns:ev="http://www.w3.org/2001/xml-events" xmlns:xlink="http://www.w3.org/1999/xlink" baseProfile="full" height="252px" version="1.1" width="1288.0px">
  <defs/>
  <path d="M 60 192 L 75 192 Q 99.0 130.5 63 111 L 60 60 L 60 192 z" fill="rgb(255,217,194)" stroke="black"/>
  <text fill="rgb(9,33,173)" font-size="25" x="39.5" y="141.75">rbsleeve</text>
  <path d="M 179.5 192.0 L 182.5 141.0 Q 218.5 121.5 194.5 60.0 L 179.5 60.0 L 179.5 192.0 z" fill="rgb(255,217,194)" stroke="black"/>
  <text fill="rgb(9,33,173)" font-size="25" x="159.0" y="116.25">rfsleeve</text>
  <path d="M 299.0 156.0 L 485.0 156.0 L 467.0 141.0 Q 431.0 121.5 455.0 60.0 L 428.0 60.0 L 392.0 69.0 L 356.0 60.0 L 329.0 60.0 Q 353.0 121.49999999999999 317.0 141.0 L 299.0 156.0 z" fill="rgb(255,217,194)" stroke="black"/>
  <text fill="rgb(9,33,173)" font-size="25" x="367.0" y="103.33333333333333">back</text>
  <path d="M 545.0 156.0 L 731.0 156.0 L 713.0 141.0 Q 677.0 121.5 701.0 60.0 L 674.0 60.0 L 638.0 60.0 L 602.0 60.0 L 575.0 60.0 Q 599.0 121.49999999999999 563.0 141.0 L 545.0 156.0 z" fill="rgb(255,217,194)" stroke="black"/>
  <text fill="rgb(9,33,173)" font-size="25" x="613.0" y="102.33333333333333">front</text>
  <path d="M 791.0 174.0 L 848.0 168.0 Q 916.4 142.79999999999998 860.0 60.0 L 827.0 69.0 L 791.0 66.0 L 791.0 174.0 z" fill="rgb(255,217,194)" stroke="black"/>
  <text fill="rgb(9,33,173)" font-size="25" x="798.4" y="110.4">Rhood</text>
  <path d="M 920.0 168.0 L 956.0 165.0 L 989.0 174.0 Q 1045.4 91.2 977.0 66.0 L 920.0 60.0 L 920.0 168.0 z" fill="rgb(255,217,194)" stroke="black"/>
  <text fill="rgb(9,33,173)" font-size="25" x="927.4" y="129.6">Lhood</text>
  <path d="M 1049.0 192.0 L 1052.0 141.0 Q 1088.0 121.5 1064.0 60.0 L 1049.0 60.0 L 1049.0 192.0 z" fill="rgb(255,217,194)" stroke="black"/>
  <text fill="rgb(9,33,173)" font-size="25" x="1028.5" y="116.25">lbsleeve</text>
  <path d="M 1168.5 192.0 L 1183.5 192.0 Q 1207.5 130.5 1171.5 111.0 L 1168.5 60.0 L 1168.5 192.0 z" fill="rgb(255,217,194)" stroke="black"/>
  <text fill="rgb(9,33,173)" font-size="25" x="1148.0" y="141.75">lfsleeve</text>
</svg>
