<?xml version="1.0" encoding="utf-8" ?>
<svg xmlns="http://www.w3.org/2000/svg" xmlns:ev="http://www.w3.org/2001/xml-events" xmlns:xlink="http://www.w3.org/1999/xlink" baseProfile="full" height="246px" version="1.1" width="913.0px">
  <defs/>
  <path d="M 60 186 Q 144.0 256.13191995597333 228 186 L 222 102 L 207 60 L 81 60 L 66 102 L 60 186 z" fill="rgb(255,217,194)" stroke="black"/>
  <text fill="rgb(9,33,173)" font-size="25" x="119.0" y="119.0">skirt_back</text>
  <path d="M 288 186 Q 372.0 121.92072264372743 456 186 L 450 102 L 435 60 L 309 60 L 294 102 L 288 186 z" fill="rgb(255,217,194)" stroke="black"/>
  <text fill="rgb(9,33,173)" font-size="25" x="347.0" y="119.0">skirt_front</text>
  <path d="M 523.0 168.0 L 649.0 168.0 L 655.0 135.0 Q 622.3 116.1 646.0 60.0 L 622.0 60.0 Q 586.0 117.99201257443528 550.0 60.0 L 526.0 60.0 Q 549.7 116.1 517.0 135.0 L 523.0 168.0 z" fill="rgb(255,217,194)" stroke="black"/>
  <text fill="rgb(9,33,173)" font-size="25" x="561.0" y="108.75">top_back</text>
  <path d="M 721.0 165.0 L 847.0 165.0 L 853.0 135.0 Q 820.3 116.1 844.0 60.0 L 820.0 60.0 L 784.0 90.0 L 748.0 60.0 L 724.0 60.0 Q 747.7 116.1 715.0 135.0 L 721.0 165.0 z" fill="rgb(255,217,194)" stroke="black"/>
  <text fill="rgb(9,33,173)" font-size="25" x="759.0" y="106.33333333333333">top_front</text>
</svg>
