<?xml version="1.0" encoding="utf-8" ?>
<svg xmlns="http://www.w3.org/2000/svg" xmlns:ev="http://www.w3.org/2001/xml-events" xmlns:xlink="http://www.w3.org/1999/xlink" baseProfile="full" height="258px" version="1.1" width="1624.0px">
  <defs/>
  <path d="M 60 198 L 102 198 Q 121.19999999999999 144.89999999999998 90 129 L 60 60 L 60 198 z" fill="rgb(255,217,194)" stroke="black"/>
  <text fill="rgb(9,33,173)" font-size="25" x="53.0" y="149.25">rbsleeve</text>
  <path d="M 193.0 198.0 L 223.0 129.0 Q 254.2 113.1 235.0 60.0 L 193.0 60.0 L 193.0 198.0 z" fill="rgb(255,217,194)" stroke="black"/>
  <text fill="rgb(9,33,173)" font-size="25" x="186.0" y="114.75">rfsleeve</text>
  <path d="M 326.0 159.0 Q 446.0 196.9135760372604 566.0 159.0 L 515.0 102.0 L 503.0 60.0 L 389.0 60.0 L 377.0 102.0 L 326.0 159.0 z" fill="rgb(255,217,194)" stroke="black"/>
  <text fill="rgb(9,33,173)" font-size="25" x="421.0" y="110.0">skirt_back</text>
  <path d="M 626.0 159.0 Q 746.0 86.26630116588399 866.0 159.0 L 815.0 102.0 L 803.0 60.0 L 689.0 60.0 L 677.0 102.0 L 626.0 159.0 z" fill="rgb(255,217,194)" stroke="black"/>
  <text fill="rgb(9,33,173)" font-size="25" x="721.0" y="110.0">skirt_front</text>
  <path d="M 947.0 168.0 L 1061.0 168.0 L 1082.0 129.0 Q 1050.8000000000002 113.1 1070.0 60.0 L 1025.0 60.0 Q 1004.0 124.5679712860148 983.0 60.0 L 938.0 60.0 Q 957.2 113.1 926.0 129.0 L 947.0 168.0 z" fill="rgb(255,217,194)" stroke="black"/>
  <text fill="rgb(9,33,173)" font-size="25" x="979.0" y="107.25">top_back</text>
  <path d="M 1163.0 165.0 L 1277.0 165.0 L 1298.0 129.0 Q 1266.8000000000002 113.1 1286.0 60.0 L 1241.0 60.0 L 1220.0 93.0 L 1199.0 60.0 L 1154.0 60.0 Q 1173.1999999999998 113.1 1142.0 129.0 L 1163.0 165.0 z" fill="rgb(255,217,194)" stroke="black"/>
  <text fill="rgb(9,33,173)" font-size="25" x="1195.0" y="105.33333333333333">top_front</text>
  <path d="M 1358.0 198.0 L 1388.0 129.0 Q 1419.1999999999998 113.1 1400.0 60.0 L 1358.0 60.0 L 1358.0 198.0 z" fill="rgb(255,217,194)" stroke="black"/>
  <text fill="rgb(9,33,173)" font-size="25" x="1351.0" y="114.75">lbsleeve</text>
  <path d="M 1491.0 198.0 L 1533.0 198.0 Q 1552.1999999999998 144.89999999999998 1521.0 129.0 L 1491.0 60.0 L 1491.0 198.0 z" fill="rgb(255,217,194)" stroke="black"/>
  <text fill="rgb(9,33,173)" font-size="25" x="1484.0" y="149.25">lfsleeve</text>
</svg>
