<?xml version="1.0" encoding="utf-8" ?>
<svg xmlns="http://www.w3.org/2000/svg" xmlns:ev="http://www.w3.org/2001/xml-events" xmlns:xlink="http://www.w3.org/1999/xlink" baseProfile="full" height="411px" version="1.1" width="760.0px">
  <defs/>
  <path d="M 60 351 L 180 351 L 180 93 L 147 60 L 126 60 Q 167.7 147.6 117 180 L 60 351 z" fill="rgb(255,217,194)" stroke="black"/>
  <text fill="rgb(9,33,173)" font-size="25" x="110.0" y="185.5">front_right</text>
  <path d="M 280.0 351.0 L 520.0 351.0 L 463.0 180.0 Q 412.3 147.6 454.0 60.0 L 433.0 60.0 Q 400.0 197.94954324577486 367.0 60.0 L 346.0 60.0 Q 387.7 147.6 337.0 180.0 L 280.0 351.0 z" fill="rgb(255,217,194)" stroke="black"/>
  <text fill="rgb(9,33,173)" font-size="25" x="375.0" y="165.75">back</text>
  <path d="M 580.0 351.0 L 700.0 351.0 L 643.0 180.0 Q 592.3 147.6 634.0 60.0 L 613.0 60.0 L 580.0 93.0 L 580.0 351.0 z" fill="rgb(255,217,194)" stroke="black"/>
  <text fill="rgb(9,33,173)" font-size="25" x="600.0" y="185.5">front_left</text>
</svg>
