<?xml version="1.0" encoding="utf-8" ?>
<svg xmlns="http://www.w3.org/2000/svg" xmlns:ev="http://www.w3.org/2001/xml-events" xmlns:xlink="http://www.w3.org/1999/xlink" baseProfile="full" height="312px" version="1.1" width="1209.5px">
  <defs/>
  <path d="M 60 252 L 225 252 L 225 63 L 183 60 L 162 60 Q 193.2 134.10000000000002 150 159 L 60 252 z" fill="rgb(255,217,194)" stroke="black"/>
  <text fill="rgb(9,33,173)" font-size="25" x="142.5" y="144.0">front_right</text>
  <path d="M 318.5 162.0 L 366.5 162.0 Q 435.8 147.6 393.5 60.0 L 354.5 69.0 L 312.5 66.0 L 318.5 162.0 z" fill="rgb(255,217,194)" stroke="black"/>
  <text fill="rgb(9,33,173)" font-size="25" x="324.1" y="106.8">Rhood</text>
  <path d="M 453.5 252.0 L 783.5 252.0 L 693.5 162.0 Q 649.1 136.20000000000002 681.5 60.0 L 660.5 60.0 L 618.5 69.0 L 576.5 60.0 L 555.5 60.0 Q 587.9 136.2 543.5 162.0 L 453.5 252.0 z" fill="rgb(255,217,194)" stroke="black"/>
  <text fill="rgb(9,33,173)" font-size="25" x="593.5" y="129.33333333333331">back</text>
  <path d="M 843.5 156.0 L 885.5 153.0 L 924.5 162.0 Q 966.8000000000001 74.4 897.5 60.0 L 849.5 60.0 L 843.5 156.0 z" fill="rgb(255,217,194)" stroke="black"/>
  <text fill="rgb(9,33,173)" font-size="25" x="855.1" y="121.2">Lhood</text>
  <path d="M 984.5 252.0 L 1149.5 252.0 L 1059.5 159.0 Q 1016.3000000000001 134.10000000000002 1047.5 60.0 L 1026.5 60.0 L 984.5 63.0 L 984.5 252.0 z" fill="rgb(255,217,194)" stroke="black"/>
  <text fill="rgb(9,33,173)" font-size="25" x="1017.0" y="144.0">front_left</text>
</svg>
