<?xml version="1.0" encoding="utf-8" ?>
<svg xmlns="http://www.w3.org/2000/svg" xmlns:ev="http://www.w3.org/2001/xml-events" xmlns:xlink="http://www.w3.org/1999/xlink" baseProfile="full" height="315px" version="1.1" width="1524.0px">
  <defs/>
  <path d="M 60 255 L 390 255 L 390 60 L 60 60 L 60 255 z" fill="rgb(255,217,194)" stroke="black"/>
  <text fill="rgb(9,33,173)" font-size="25" x="200.0" y="160.5">skirt_back</text>
  <path d="M 450 69 L 540 69 L 540 60 L 450 60 L 450 69 z" fill="rgb(255,217,194)" stroke="black"/>
  <text fill="rgb(9,33,173)" font-size="25" x="470.0" y="67.5">wb_back</text>
  <path d="M 600 69 L 690 69 L 690 60 L 600 60 L 600 69 z" fill="rgb(255,217,194)" stroke="black"/>
  <text fill="rgb(9,33,173)" font-size="25" x="620.0" y="67.5">wb_front</text>
  <path d="M 760.0 255.0 L 1090.0 255.0 L 1090.0 60.0 L 760.0 60.0 L 760.0 255.0 z" fill="rgb(255,217,194)" stroke="black"/>
  <text fill="rgb(9,33,173)" font-size="25" x="900.0" y="160.5">skirt_front</text>
  <path d="M 1150.0 147.0 L 1276.0 147.0 L 1276.0 132.0 Q 1244.5 114.0 1267.0 60.0 L 1231.0 60.0 Q 1213.0 116.62222749925087 1195.0 60.0 L 1159.0 60.0 Q 1181.5 114.0 1150.0 132.0 L 1150.0 147.0 z" fill="rgb(255,217,194)" stroke="black"/>
  <text fill="rgb(9,33,173)" font-size="25" x="1188.0" y="102.75">top_back</text>
  <path d="M 1336.0 147.0 L 1462.0 147.0 L 1462.0 132.0 Q 1430.5 114.0 1453.0 60.0 L 1417.0 60.0 L 1399.0 78.0 L 1381.0 60.0 L 1345.0 60.0 Q 1367.5 114.0 1336.0 132.0 L 1336.0 147.0 z" fill="rgb(255,217,194)" stroke="black"/>
  <text fill="rgb(9,33,173)" font-size="25" x="1374.0" y="100.33333333333333">top_front</text>
</svg>
