<?xml version="1.0" encoding="utf-8" ?>
<svg xmlns="http://www.w3.org/2000/svg" xmlns:ev="http://www.w3.org/2001/xml-events" xmlns:xlink="http://www.w3.org/1999/xlink" baseProfile="full" height="318px" version="1.1" width="1450.0px">
  <defs/>
  <path d="M 60 258 L 108 258 L 174 60 L 90 60 Q 103.5 139.5 60 150 Q 70.8 155.4 60 258 z" fill="rgb(255,217,194)" stroke="black"/>
  <text fill="rgb(9,33,173)" font-size="25" x="73.4" y="160.2">Rback</text>
  <path d="M 300 258 L 348 258 Q 337.2 155.4 348 150 Q 309.0 138.0 318 60 L 234 60 L 300 258 z" fill="rgb(255,217,194)" stroke="black"/>
  <text fill="rgb(9,33,173)" font-size="25" x="284.6" y="160.2">Rfront</text>
  <path d="M 408 81 L 447 81 L 486 81 L 486 60 L 408 60 L 408 81 z" fill="rgb(255,217,194)" stroke="black"/>
  <text fill="rgb(9,33,173)" font-size="25" x="422.0" y="75.6">wb_back</text>
  <path d="M 552.0 81.0 L 591.0 81.0 L 630.0 81.0 L 630.0 60.0 L 552.0 60.0 L 552.0 81.0 z" fill="rgb(255,217,194)" stroke="black"/>
  <text fill="rgb(9,33,173)" font-size="25" x="566.0" y="75.6">wb_front</text>
  <path d="M 706.0 165.0 L 844.0 165.0 L 844.0 138.0 Q 810.0999999999999 118.19999999999999 835.0 60.0 L 799.0 60.0 Q 775.0 89.4575249382616 751.0 60.0 L 715.0 60.0 Q 739.9000000000001 118.19999999999999 706.0 138.0 L 706.0 165.0 z" fill="rgb(255,217,194)" stroke="black"/>
  <text fill="rgb(9,33,173)" font-size="25" x="750.0" y="108.75">top_back</text>
  <path d="M 904.0 165.0 L 1042.0 165.0 L 1042.0 135.0 Q 1009.3 116.1 1033.0 60.0 L 997.0 60.0 L 973.0 132.0 L 949.0 60.0 L 913.0 60.0 Q 936.7 116.1 904.0 135.0 L 904.0 165.0 z" fill="rgb(255,217,194)" stroke="black"/>
  <text fill="rgb(9,33,173)" font-size="25" x="948.0" y="111.0">top_front</text>
  <path d="M 1168.0 258.0 L 1216.0 258.0 Q 1205.2 155.4 1216.0 150.0 Q 1172.5 139.5 1186.0 60.0 L 1102.0 60.0 L 1168.0 258.0 z" fill="rgb(255,217,194)" stroke="black"/>
  <text fill="rgb(9,33,173)" font-size="25" x="1152.6" y="160.2">Lback</text>
  <path d="M 1276.0 258.0 L 1324.0 258.0 L 1390.0 60.0 L 1306.0 60.0 Q 1315.0 138.0 1276.0 150.0 Q 1286.8 155.4 1276.0 258.0 z" fill="rgb(255,217,194)" stroke="black"/>
  <text fill="rgb(9,33,173)" font-size="25" x="1289.4" y="160.2">Lfront</text>
</svg>
