<?xml version="1.0" encoding="utf-8" ?>
<svg xmlns="http://www.w3.org/2000/svg" xmlns:ev="http://www.w3.org/2001/xml-events" xmlns:xlink="http://www.w3.org/1999/xlink" baseProfile="full" height="273.0px" version="1.1" width="1535.0px">
  <defs/>
  <path d="M 60 168 L 114 168 Q 120.3 132.6 99 126 L 60 60 L 60 168 z" fill="rgb(255,217,194)" stroke="black"/>
  <text fill="rgb(9,33,173)" font-size="25" x="58.25" y="133.5">rbsleeve</text>
  <path d="M 198.25 168.0 L 237.25 102.0 Q 258.55 95.4 252.25 60.0 L 198.25 60.0 L 198.25 168.0 z" fill="rgb(255,217,194)" stroke="black"/>
  <text fill="rgb(9,33,173)" font-size="25" x="196.5" y="100.5">rfsleeve</text>
  <path d="M 345.5 213.0 Q 411.5 226.11975287083348 477.5 213.0 L 486.5 102.0 L 486.5 60.0 L 336.5 60.0 L 336.5 102.0 L 345.5 213.0 z" fill="rgb(255,217,194)" stroke="black"/>
  <text fill="rgb(9,33,173)" font-size="25" x="386.5" y="128.0">skirt_back</text>
  <path d="M 555.5 213.0 Q 621.5 219.20439640872135 687.5 213.0 L 696.5 102.0 L 696.5 60.0 L 546.5 60.0 L 546.5 102.0 L 555.5 213.0 z" fill="rgb(255,217,194)" stroke="black"/>
  <text fill="rgb(9,33,173)" font-size="25" x="596.5" y="128.0">skirt_front</text>
  <path d="M 784.5 168.0 L 934.5 168.0 L 952.5 105.0 Q 930.0 97.5 937.5 60.0 L 889.5 60.0 Q 859.5 111.84116057918177 829.5 60.0 L 781.5 60.0 Q 789.0 97.5 766.5 105.0 L 784.5 168.0 z" fill="rgb(255,217,194)" stroke="black"/>
  <text fill="rgb(9,33,173)" font-size="25" x="834.5" y="101.25">top_back</text>
  <path d="M 1030.5 165.0 L 1180.5 165.0 L 1198.5 105.0 Q 1176.0 97.5 1183.5 60.0 L 1135.5 60.0 L 1105.5 78.0 L 1075.5 60.0 L 1027.5 60.0 Q 1035.0 97.5 1012.5 105.0 L 1030.5 165.0 z" fill="rgb(255,217,194)" stroke="black"/>
  <text fill="rgb(9,33,173)" font-size="25" x="1080.5" y="98.33333333333333">top_front</text>
  <path d="M 1258.5 168.0 L 1297.5 102.0 Q 1318.8 95.4 1312.5 60.0 L 1258.5 60.0 L 1258.5 168.0 z" fill="rgb(255,217,194)" stroke="black"/>
  <text fill="rgb(9,33,173)" font-size="25" x="1256.75" y="100.5">lbsleeve</text>
  <path d="M 1396.75 168.0 L 1450.75 168.0 Q 1457.05 132.6 1435.75 126.0 L 1396.75 60.0 L 1396.75 168.0 z" fill="rgb(255,217,194)" stroke="black"/>
  <text fill="rgb(9,33,173)" font-size="25" x="1395.0" y="133.5">lfsleeve</text>
</svg>
