<?xml version="1.0" encoding="utf-8" ?>
<svg xmlns="http://www.w3.org/2000/svg" xmlns:ev="http://www.w3.org/2001/xml-events" xmlns:xlink="http://www.w3.org/1999/xlink" baseProfile="full" height="432.0px" version="1.1" width="1696.0px">
  <defs/>
  <path d="M 60 210 L 123 210 Q 139.8 161.1 111 147 L 60 60 L 60 210 z" fill="rgb(255,217,194)" stroke="black"/>
  <text fill="rgb(9,33,173)" font-size="25" x="63.5" y="159.75">rbsleeve</text>
  <path d="M 203.5 210.0 L 254.5 123.0 Q 283.3 108.89999999999999 266.5 60.0 L 203.5 60.0 L 203.5 210.0 z" fill="rgb(255,217,194)" stroke="black"/>
  <text fill="rgb(9,33,173)" font-size="25" x="207.0" y="116.25">rfsleeve</text>
  <path d="M 347.0 372.0 L 689.0 372.0 L 599.0 120.0 Q 571.4 106.8 587.0 60.0 L 551.0 60.0 L 518.0 69.0 L 485.0 60.0 L 449.0 60.0 Q 464.6 106.8 437.0 120.0 L 347.0 372.0 z" fill="rgb(255,217,194)" stroke="black"/>
  <text fill="rgb(9,33,173)" font-size="25" x="493.0" y="146.66666666666666">back</text>
  <path d="M 749.0 372.0 L 1091.0 372.0 L 1001.0 120.0 Q 973.4 106.8 989.0 60.0 L 953.0 60.0 L 920.0 66.0 L 887.0 60.0 L 851.0 60.0 Q 866.6 106.8 839.0 120.0 L 749.0 372.0 z" fill="rgb(255,217,194)" stroke="black"/>
  <text fill="rgb(9,33,173)" font-size="25" x="895.0" y="146.33333333333334">front</text>
  <path d="M 1151.0 150.0 L 1169.0 153.0 Q 1236.5 157.5 1220.0 66.0 L 1187.0 75.0 L 1151.0 60.0 L 1151.0 150.0 z" fill="rgb(255,217,194)" stroke="black"/>
  <text fill="rgb(9,33,173)" font-size="25" x="1150.6" y="103.8">Rhood</text>
  <path d="M 1280.0 153.0 L 1316.0 138.0 L 1349.0 147.0 Q 1365.5 55.5 1298.0 60.0 L 1280.0 63.0 L 1280.0 153.0 z" fill="rgb(255,217,194)" stroke="black"/>
  <text fill="rgb(9,33,173)" font-size="25" x="1279.6" y="115.2">Lhood</text>
  <path d="M 1409.0 210.0 L 1460.0 123.0 Q 1488.8 108.89999999999999 1472.0 60.0 L 1409.0 60.0 L 1409.0 210.0 z" fill="rgb(255,217,194)" stroke="black"/>
  <text fill="rgb(9,33,173)" font-size="25" x="1412.5" y="116.25">lbsleeve</text>
  <path d="M 1552.5 210.0 L 1615.5 210.0 Q 1632.3 161.1 1603.5 147.0 L 1552.5 60.0 L 1552.5 210.0 z" fill="rgb(255,217,194)" stroke="black"/>
  <text fill="rgb(9,33,173)" font-size="25" x="1556.0" y="159.75">lfsleeve</text>
</svg>
