<?xml version="1.0" encoding="utf-8" ?>
<svg xmlns="http://www.w3.org/2000/svg" xmlns:ev="http://www.w3.org/2001/xml-events" xmlns:xlink="http://www.w3.org/1999/xlink" baseProfile="full" height="492px" version="1.1" width="964.0px">
  <defs/>
  <path d="M 60 432 L 162 432 L 162 72 L 129 60 L 105 60 Q 141.9 139.2 96 168 L 60 432 z" fill="rgb(255,217,194)" stroke="black"/>
  <text fill="rgb(9,33,173)" font-size="25" x="94.0" y="207.0">front_right</text>
  <path d="M 264.0 174.0 L 300.0 171.0 Q 374.7 158.4 333.0 63.0 L 300.0 72.0 L 264.0 60.0 L 264.0 174.0 z" fill="rgb(255,217,194)" stroke="black"/>
  <text fill="rgb(9,33,173)" font-size="25" x="267.2" y="111.0">Rhood</text>
  <path d="M 393.0 432.0 L 597.0 432.0 L 561.0 168.0 Q 515.0999999999999 139.2 552.0 60.0 L 528.0 60.0 L 495.0 69.0 L 462.0 60.0 L 438.0 60.0 Q 474.9 139.2 429.0 168.0 L 393.0 432.0 z" fill="rgb(255,217,194)" stroke="black"/>
  <text fill="rgb(9,33,173)" font-size="25" x="470.0" y="170.66666666666666">back</text>
  <path d="M 657.0 174.0 L 693.0 162.0 L 726.0 171.0 Q 767.6999999999999 75.60000000000001 693.0 63.0 L 657.0 60.0 L 657.0 174.0 z" fill="rgb(255,217,194)" stroke="black"/>
  <text fill="rgb(9,33,173)" font-size="25" x="660.2" y="129.0">Lhood</text>
  <path d="M 786.0 432.0 L 888.0 432.0 L 852.0 168.0 Q 806.0999999999999 139.2 843.0 60.0 L 819.0 60.0 L 786.0 72.0 L 786.0 432.0 z" fill="rgb(255,217,194)" stroke="black"/>
  <text fill="rgb(9,33,173)" font-size="25" x="804.0" y="207.0">front_left</text>
</svg>
