<?xml version="1.0" encoding="utf-8" ?>
<svg xmlns="http://www.w3.org/2000/svg" xmlns:ev="http://www.w3.org/2001/xml-events" xmlns:xlink="http://www.w3.org/1999/xlink" baseProfile="full" height="267px" version="1.1" width="1522.0px">
  <defs/>
  <path d="M 60 207 L 147 207 L 189 60 L 90 60 Q 98.7 130.5 60 138 Q 66.9 141.45 60 207 z" fill="rgb(255,217,194)" stroke="black"/>
  <text fill="rgb(9,33,173)" font-size="25" x="84.2" y="137.4">Rback</text>
  <path d="M 291 207 L 378 207 Q 371.1 141.45 378 138 Q 343.2 129.0 348 60 L 249 60 L 291 207 z" fill="rgb(255,217,194)" stroke="black"/>
  <text fill="rgb(9,33,173)" font-size="25" x="303.8" y="137.4">Rfront</text>
  <path d="M 438 72 L 477 72 L 516 72 L 516 60 L 438 60 L 438 72 z" fill="rgb(255,217,194)" stroke="black"/>
  <text fill="rgb(9,33,173)" font-size="25" x="452.0" y="70.2">wb_back</text>
  <path d="M 582.0 72.0 L 621.0 72.0 L 660.0 72.0 L 660.0 60.0 L 582.0 60.0 L 582.0 72.0 z" fill="rgb(255,217,194)" stroke="black"/>
  <text fill="rgb(9,33,173)" font-size="25" x="596.0" y="70.2">wb_front</text>
  <path d="M 736.0 165.0 L 880.0 165.0 L 880.0 123.0 Q 851.1999999999999 108.89999999999999 868.0 60.0 L 835.0 60.0 Q 808.0 144.9614570192765 781.0 60.0 L 748.0 60.0 Q 764.8000000000001 108.89999999999999 736.0 123.0 L 736.0 165.0 z" fill="rgb(255,217,194)" stroke="black"/>
  <text fill="rgb(9,33,173)" font-size="25" x="783.0" y="105.0">top_back</text>
  <path d="M 940.0 162.0 L 1084.0 162.0 L 1084.0 123.0 Q 1055.2 108.89999999999999 1072.0 60.0 L 1039.0 60.0 L 1012.0 75.0 L 985.0 60.0 L 952.0 60.0 Q 968.8000000000001 108.89999999999999 940.0 123.0 L 940.0 162.0 z" fill="rgb(255,217,194)" stroke="black"/>
  <text fill="rgb(9,33,173)" font-size="25" x="987.0" y="101.33333333333333">top_front</text>
  <path d="M 1186.0 207.0 L 1273.0 207.0 Q 1266.1 141.45 1273.0 138.0 Q 1234.3 130.5 1243.0 60.0 L 1144.0 60.0 L 1186.0 207.0 z" fill="rgb(255,217,194)" stroke="black"/>
  <text fill="rgb(9,33,173)" font-size="25" x="1198.8" y="137.4">Lback</text>
  <path d="M 1333.0 207.0 L 1420.0 207.0 L 1462.0 60.0 L 1363.0 60.0 Q 1367.8 129.0 1333.0 138.0 Q 1339.9 141.45 1333.0 207.0 z" fill="rgb(255,217,194)" stroke="black"/>
  <text fill="rgb(9,33,173)" font-size="25" x="1357.2" y="137.4">Lfront</text>
</svg>
