<?xml version="1.0" encoding="utf-8" ?>
<svg xmlns="http://www.w3.org/2000/svg" xmlns:ev="http://www.w3.org/2001/xml-events" xmlns:xlink="http://www.w3.org/1999/xlink" baseProfile="full" height="351px" version="1.1" width="1056px">
  <defs/>
  <path d="M 60 291 Q 165.0 364.6715111124371 270 291 L 234 102 L 219 60 L 111 60 L 96 102 L 60 291 z" fill="rgb(255,217,194)" stroke="black"/>
  <text fill="rgb(9,33,173)" font-size="25" x="140.0" y="154.0">skirt_back</text>
  <path d="M 330 291 Q 435.0 280.62466249272705 540 291 L 504 102 L 489 60 L 381 60 L 366 102 L 330 291 z" fill="rgb(255,217,194)" stroke="black"/>
  <text fill="rgb(9,33,173)" font-size="25" x="410.0" y="154.0">skirt_front</text>
  <path d="M 630 168 L 738 168 L 768 120 Q 740.4 106.8 756 60 L 705 60 Q 684.0 63.84002276085864 663 60 L 612 60 Q 627.6 106.8 600 120 L 630 168 z" fill="rgb(255,217,194)" stroke="black"/>
  <text fill="rgb(9,33,173)" font-size="25" x="659.0" y="105.0">top_back</text>
  <path d="M 858 165 L 966 165 L 996 120 Q 968.4 106.8 984 60 L 933 60 L 912 72 L 891 60 L 840 60 Q 855.6 106.8 828 120 L 858 165 z" fill="rgb(255,217,194)" stroke="black"/>
  <text fill="rgb(9,33,173)" font-size="25" x="887.0" y="101.0">top_front</text>
</svg>
