<?xml version="1.0" encoding="utf-8" ?>
<svg xmlns="http://www.w3.org/2000/svg" xmlns:ev="http://www.w3.org/2001/xml-events" xmlns:xlink="http://www.w3.org/1999/xlink" baseProfile="full" height="333.0px" version="1.1" width="1580.0px">
  <defs/>
  <path d="M 60 216 L 102 216 Q 123.9 153.3 87 135 L 60 60 L 60 216 z" fill="rgb(255,217,194)" stroke="black"/>
  <text fill="rgb(9,33,173)" font-size="25" x="52.25" y="159.75">rbsleeve</text>
  <path d="M 192.25 216.0 L 219.25 141.0 Q 256.15 122.7 234.25 60.0 L 192.25 60.0 L 192.25 216.0 z" fill="rgb(255,217,194)" stroke="black"/>
  <text fill="rgb(9,33,173)" font-size="25" x="184.5" y="122.25">rfsleeve</text>
  <path d="M 324.5 273.0 L 441.5 273.0 L 441.5 87.0 L 396.5 60.0 L 366.5 60.0 Q 388.4 122.69999999999999 351.5 141.0 L 324.5 273.0 z" fill="rgb(255,217,194)" stroke="black"/>
  <text fill="rgb(9,33,173)" font-size="25" x="362.0" y="152.0">front_right</text>
  <path d="M 544.0 198.0 L 589.0 189.0 Q 665.5 175.5 622.0 78.0 L 580.0 87.0 L 532.0 60.0 L 544.0 198.0 z" fill="rgb(255,217,194)" stroke="black"/>
  <text fill="rgb(9,33,173)" font-size="25" x="548.4" y="125.4">Rhood</text>
  <path d="M 682.0 273.0 L 916.0 273.0 L 889.0 141.0 Q 852.1 122.7 874.0 60.0 L 844.0 60.0 L 799.0 69.0 L 754.0 60.0 L 724.0 60.0 Q 745.9 122.69999999999999 709.0 141.0 L 682.0 273.0 z" fill="rgb(255,217,194)" stroke="black"/>
  <text fill="rgb(9,33,173)" font-size="25" x="774.0" y="129.33333333333331">back</text>
  <path d="M 976.0 198.0 L 1024.0 171.0 L 1066.0 180.0 Q 1109.5 82.50000000000001 1033.0 69.0 L 988.0 60.0 L 976.0 198.0 z" fill="rgb(255,217,194)" stroke="black"/>
  <text fill="rgb(9,33,173)" font-size="25" x="992.4" y="138.6">Lhood</text>
  <path d="M 1126.0 273.0 L 1243.0 273.0 L 1216.0 141.0 Q 1179.1 122.7 1201.0 60.0 L 1171.0 60.0 L 1126.0 87.0 L 1126.0 273.0 z" fill="rgb(255,217,194)" stroke="black"/>
  <text fill="rgb(9,33,173)" font-size="25" x="1155.5" y="152.0">front_left</text>
  <path d="M 1315.5 216.0 L 1342.5 141.0 Q 1379.4 122.7 1357.5 60.0 L 1315.5 60.0 L 1315.5 216.0 z" fill="rgb(255,217,194)" stroke="black"/>
  <text fill="rgb(9,33,173)" font-size="25" x="1307.75" y="122.25">lbsleeve</text>
  <path d="M 1447.75 216.0 L 1489.75 216.0 Q 1511.65 153.3 1474.75 135.0 L 1447.75 60.0 L 1447.75 216.0 z" fill="rgb(255,217,194)" stroke="black"/>
  <text fill="rgb(9,33,173)" font-size="25" x="1440.0" y="159.75">lfsleeve</text>
</svg>
