<?xml version="1.0" encoding="utf-8" ?>
<svg xmlns="http://www.w3.org/2000/svg" xmlns:ev="http://www.w3.org/2001/xml-events" xmlns:xlink="http://www.w3.org/1999/xlink" baseProfile="full" height="255.0px" version="1.1" width="1407.0px">
  <defs/>
  <path d="M 60 150 L 336 150 L 336 60 L 60 60 L 60 150 z" fill="rgb(255,217,194)" stroke="black"/>
  <text fill="rgb(9,33,173)" font-size="25" x="173.0" y="108.0">skirt_back</text>
  <path d="M 396 69 L 486 69 L 486 60 L 396 60 L 396 69 z" fill="rgb(255,217,194)" stroke="black"/>
  <text fill="rgb(9,33,173)" font-size="25" x="416.0" y="67.5">wb_back</text>
  <path d="M 546 69 L 636 69 L 636 60 L 546 60 L 546 69 z" fill="rgb(255,217,194)" stroke="black"/>
  <text fill="rgb(9,33,173)" font-size="25" x="566.0" y="67.5">wb_front</text>
  <path d="M 706.0 150.0 L 982.0 150.0 L 982.0 60.0 L 706.0 60.0 L 706.0 150.0 z" fill="rgb(255,217,194)" stroke="black"/>
  <text fill="rgb(9,33,173)" font-size="25" x="819.0" y="108.0">skirt_front</text>
  <path d="M 1042.0 195.0 L 1162.0 195.0 L 1162.0 117.0 Q 1136.5 103.5 1153.0 60.0 L 1120.0 60.0 Q 1102.0 62.91761552686598 1084.0 60.0 L 1051.0 60.0 Q 1067.5 103.5 1042.0 117.0 L 1042.0 195.0 z" fill="rgb(255,217,194)" stroke="black"/>
  <text fill="rgb(9,33,173)" font-size="25" x="1077.0" y="111.0">top_back</text>
  <path d="M 1222.0 192.0 L 1342.0 192.0 L 1342.0 114.0 Q 1317.7 101.39999999999999 1333.0 60.0 L 1300.0 60.0 L 1282.0 99.0 L 1264.0 60.0 L 1231.0 60.0 Q 1246.3 101.39999999999999 1222.0 114.0 L 1222.0 192.0 z" fill="rgb(255,217,194)" stroke="black"/>
  <text fill="rgb(9,33,173)" font-size="25" x="1257.0" y="108.66666666666667">top_front</text>
</svg>
