<?xml version="1.0" encoding="utf-8" ?>
<svg xmlns="http://www.w3.org/2000/svg" xmlns:ev="http://www.w3.org/2001/xml-events" xmlns:xlink="http://www.w3.org/1999/xlink" baseProfile="full" height="504px" version="1.1" width="1591.0px">
  <defs/>
  <path d="M 60 150 L 171 150 Q 196.5 81.0 156 60 L 60 90 L 60 150 z" fill="rgb(255,217,194)" stroke="black"/>
  <text fill="rgb(9,33,173)" font-size="25" x="86.75" y="115.5">rbsleeve</text>
  <path d="M 231 120 L 327 150 Q 367.5 129.0 342 60 L 231 60 L 231 120 z" fill="rgb(255,217,194)" stroke="black"/>
  <text fill="rgb(9,33,173)" font-size="25" x="257.75" y="100.5">rfsleeve</text>
  <path d="M 414 444 L 489 444 L 489 75 L 462 60 L 414 60 Q 441.6 127.8 402 150 L 414 444 z" fill="rgb(255,217,194)" stroke="black"/>
  <text fill="rgb(9,33,173)" font-size="25" x="420.0" y="208.5">front_right</text>
  <path d="M 590.0 153.0 L 635.0 156.0 Q 694.4 139.8 653.0 66.0 L 626.0 75.0 L 599.0 60.0 L 590.0 153.0 z" fill="rgb(255,217,194)" stroke="black"/>
  <text fill="rgb(9,33,173)" font-size="25" x="595.6" y="105.0">Rhood</text>
  <path d="M 725.0 444.0 L 875.0 444.0 L 887.0 150.0 Q 847.4 127.8 875.0 60.0 L 827.0 60.0 L 800.0 69.0 L 773.0 60.0 L 725.0 60.0 Q 752.6 127.8 713.0 150.0 L 725.0 444.0 z" fill="rgb(255,217,194)" stroke="black"/>
  <text fill="rgb(9,33,173)" font-size="25" x="775.0" y="169.33333333333334">back</text>
  <path d="M 956.0 156.0 L 983.0 141.0 L 1010.0 150.0 Q 1051.4 76.2 992.0 60.0 L 947.0 63.0 L 956.0 156.0 z" fill="rgb(255,217,194)" stroke="black"/>
  <text fill="rgb(9,33,173)" font-size="25" x="952.6" y="117.0">Lhood</text>
  <path d="M 1070.0 444.0 L 1145.0 444.0 L 1157.0 150.0 Q 1117.4 127.8 1145.0 60.0 L 1097.0 60.0 L 1070.0 75.0 L 1070.0 444.0 z" fill="rgb(255,217,194)" stroke="black"/>
  <text fill="rgb(9,33,173)" font-size="25" x="1089.0" y="208.5">front_left</text>
  <path d="M 1249.0 120.0 L 1345.0 150.0 Q 1385.5 129.0 1360.0 60.0 L 1249.0 60.0 L 1249.0 120.0 z" fill="rgb(255,217,194)" stroke="black"/>
  <text fill="rgb(9,33,173)" font-size="25" x="1275.75" y="100.5">lbsleeve</text>
  <path d="M 1420.0 150.0 L 1531.0 150.0 Q 1556.5 81.0 1516.0 60.0 L 1420.0 90.0 L 1420.0 150.0 z" fill="rgb(255,217,194)" stroke="black"/>
  <text fill="rgb(9,33,173)" font-size="25" x="1446.75" y="115.5">lfsleeve</text>
</svg>
