<?xml version="1.0" encoding="utf-8" ?>
<svg xmlns="http://www.w3.org/2000/svg" xmlns:ev="http://www.w3.org/2001/xml-events" xmlns:xlink="http://www.w3.org/1999/xlink" baseProfile="full" height="375px" version="1.1" width="1092px">
  <defs/>
  <path d="M 60 315 L 117 315 Q 165.45 100.35 159 60 L 90 60 Q 104.7 141.75 60 153 Q 76.2 161.1 60 315 z" fill="rgb(255,217,194)" stroke="black"/>
  <text fill="rgb(9,33,173)" font-size="25" x="72.2" y="183.6">Rback</text>
  <path d="M 261 315 L 318 315 Q 301.8 161.1 318 153 Q 277.95 140.25 288 60 L 219 60 Q 212.55 100.35 261 315 z" fill="rgb(255,217,194)" stroke="black"/>
  <text fill="rgb(9,33,173)" font-size="25" x="255.8" y="183.6">Rfront</text>
  <path d="M 378 168 L 447 168 L 516 168 L 507 147 Q 469.5 124.5 498 60 L 477 60 Q 447.0 79.9217847353009 417 60 L 396 60 Q 424.5 124.5 387 147 L 378 168 z" fill="rgb(255,217,194)" stroke="black"/>
  <text fill="rgb(9,33,173)" font-size="25" x="422.0" y="118.33333333333333">up_back</text>
  <path d="M 576 165 L 645 165 L 714 165 L 705 147 Q 667.5 124.5 696 60 L 675 60 L 645 129 L 615 60 L 594 60 Q 622.5 124.5 585 147 L 576 165 z" fill="rgb(255,217,194)" stroke="black"/>
  <text fill="rgb(9,33,173)" font-size="25" x="620.0" y="118.8">up_front</text>
  <path d="M 816 315 L 873 315 Q 856.8 161.1 873 153 Q 828.3 141.75 843 60 L 774 60 Q 767.55 100.35 816 315 z" fill="rgb(255,217,194)" stroke="black"/>
  <text fill="rgb(9,33,173)" font-size="25" x="810.8" y="183.6">Lback</text>
  <path d="M 933 315 L 990 315 Q 1038.45 100.35 1032 60 L 963 60 Q 973.05 140.25 933 153 Q 949.2 161.1 933 315 z" fill="rgb(255,217,194)" stroke="black"/>
  <text fill="rgb(9,33,173)" font-size="25" x="945.2" y="183.6">Lfront</text>
</svg>
