<?xml version="1.0" encoding="utf-8" ?>
<svg xmlns="http://www.w3.org/2000/svg" xmlns:ev="http://www.w3.org/2001/xml-events" xmlns:xlink="http://www.w3.org/1999/xlink" baseProfile="full" height="351px" version="1.1" width="1128px">
  <defs/>
  <path d="M 60 291 L 135 291 Q 166.95000000000002 95.85000000000001 159 60 L 90 60 Q 104.7 141.75 60 153 Q 73.8 159.9 60 291 z" fill="rgb(255,217,194)" stroke="black"/>
  <text fill="rgb(9,33,173)" font-size="25" x="75.8" y="174.0">Rback</text>
  <path d="M 243 291 L 318 291 Q 304.2 159.9 318 153 Q 277.95 140.25 288 60 L 219 60 Q 211.04999999999998 95.85000000000001 243 291 z" fill="rgb(255,217,194)" stroke="black"/>
  <text fill="rgb(9,33,173)" font-size="25" x="252.2" y="174.0">Rfront</text>
  <path d="M 384 168 L 456 168 L 528 168 L 534 123 Q 505.2 108.89999999999999 522 60 L 498 60 Q 456.0 91.28805967802316 414 60 L 390 60 Q 406.8 108.89999999999999 378 123 L 384 168 z" fill="rgb(255,217,194)" stroke="black"/>
  <text fill="rgb(9,33,173)" font-size="25" x="431.0" y="113.0">up_back</text>
  <path d="M 600 165 L 672 165 L 744 165 L 750 123 Q 721.1999999999999 108.89999999999999 738 60 L 714 60 L 672 84 L 630 60 L 606 60 Q 622.8000000000001 108.89999999999999 594 123 L 600 165 z" fill="rgb(255,217,194)" stroke="black"/>
  <text fill="rgb(9,33,173)" font-size="25" x="647.0" y="109.5">up_front</text>
  <path d="M 834 291 L 909 291 Q 895.2 159.9 909 153 Q 864.3 141.75 879 60 L 810 60 Q 802.0500000000001 95.85000000000001 834 291 z" fill="rgb(255,217,194)" stroke="black"/>
  <text fill="rgb(9,33,173)" font-size="25" x="843.2" y="174.0">Lback</text>
  <path d="M 969 291 L 1044 291 Q 1075.95 95.85000000000001 1068 60 L 999 60 Q 1009.05 140.25 969 153 Q 982.8 159.9 969 291 z" fill="rgb(255,217,194)" stroke="black"/>
  <text fill="rgb(9,33,173)" font-size="25" x="984.8" y="174.0">Lfront</text>
</svg>
