<?xml version="1.0" encoding="utf-8" ?>
<svg xmlns="http://www.w3.org/2000/svg" xmlns:ev="http://www.w3.org/2001/xml-events" xmlns:xlink="http://www.w3.org/1999/xlink" baseProfile="full" height="396.0px" version="1.1" width="1360.0px">
  <defs/>
  <path d="M 60 153 L 120 153 Q 145.2 89.4 108 69 L 60 60 L 60 153 z" fill="rgb(255,217,194)" stroke="black"/>
  <text fill="rgb(9,33,173)" font-size="25" x="62.0" y="111.75">rbsleeve</text>
  <path d="M 202.0 153.0 L 250.0 144.0 Q 287.2 123.6 262.0 60.0 L 202.0 60.0 L 202.0 153.0 z" fill="rgb(255,217,194)" stroke="black"/>
  <text fill="rgb(9,33,173)" font-size="25" x="204.0" y="107.25">rfsleeve</text>
  <path d="M 344.0 336.0 L 650.0 336.0 L 572.0 144.0 Q 534.8 123.6 560.0 60.0 L 518.0 60.0 Q 497.0 119.77221918097827 476.0 60.0 L 434.0 60.0 Q 459.20000000000005 123.6 422.0 144.0 L 344.0 336.0 z" fill="rgb(255,217,194)" stroke="black"/>
  <text fill="rgb(9,33,173)" font-size="25" x="472.0" y="153.0">back</text>
  <path d="M 710.0 336.0 L 1016.0 336.0 L 938.0 144.0 Q 900.8 123.6 926.0 60.0 L 884.0 60.0 L 863.0 147.0 L 842.0 60.0 L 800.0 60.0 Q 825.2 123.6 788.0 144.0 L 710.0 336.0 z" fill="rgb(255,217,194)" stroke="black"/>
  <text fill="rgb(9,33,173)" font-size="25" x="838.0" y="152.66666666666666">front</text>
  <path d="M 1076.0 153.0 L 1124.0 144.0 Q 1161.1999999999998 123.6 1136.0 60.0 L 1076.0 60.0 L 1076.0 153.0 z" fill="rgb(255,217,194)" stroke="black"/>
  <text fill="rgb(9,33,173)" font-size="25" x="1078.0" y="107.25">lbsleeve</text>
  <path d="M 1218.0 153.0 L 1278.0 153.0 Q 1303.1999999999998 89.4 1266.0 69.0 L 1218.0 60.0 L 1218.0 153.0 z" fill="rgb(255,217,194)" stroke="black"/>
  <text fill="rgb(9,33,173)" font-size="25" x="1220.0" y="111.75">lfsleeve</text>
</svg>
