<?xml version="1.0" encoding="utf-8" ?>
<svg xmlns="http://www.w3.org/2000/svg" xmlns:ev="http://www.w3.org/2001/xml-events" xmlns:xlink="http://www.w3.org/1999/xlink" baseProfile="full" height="351px" version="1.1" width="1582.0px">
  <defs/>
  <path d="M 60 291 L 135 291 L 198 60 L 90 60 Q 101.1 135.0 60 144 Q 74.7 151.35 60 291 z" fill="rgb(255,217,194)" stroke="black"/>
  <text fill="rgb(9,33,173)" font-size="25" x="83.6" y="172.2">Rback</text>
  <path d="M 321 291 L 396 291 Q 381.3 151.35 396 144 Q 359.1 133.5 366 60 L 258 60 L 321 291 z" fill="rgb(255,217,194)" stroke="black"/>
  <text fill="rgb(9,33,173)" font-size="25" x="322.4" y="172.2">Rfront</text>
  <path d="M 456 75 L 495 75 L 534 75 L 534 60 L 456 60 L 456 75 z" fill="rgb(255,217,194)" stroke="black"/>
  <text fill="rgb(9,33,173)" font-size="25" x="470.0" y="72.0">wb_back</text>
  <path d="M 600.0 75.0 L 639.0 75.0 L 678.0 75.0 L 678.0 60.0 L 600.0 60.0 L 600.0 75.0 z" fill="rgb(255,217,194)" stroke="black"/>
  <text fill="rgb(9,33,173)" font-size="25" x="614.0" y="72.0">wb_front</text>
  <path d="M 754.0 162.0 L 910.0 162.0 L 910.0 126.0 Q 880.0 111.0 898.0 60.0 L 853.0 60.0 Q 832.0 99.85005781345487 811.0 60.0 L 766.0 60.0 Q 784.0 110.99999999999999 754.0 126.0 L 754.0 162.0 z" fill="rgb(255,217,194)" stroke="black"/>
  <text fill="rgb(9,33,173)" font-size="25" x="807.0" y="105.0">top_back</text>
  <path d="M 970.0 159.0 L 1126.0 159.0 L 1126.0 126.0 Q 1096.0 111.0 1114.0 60.0 L 1069.0 60.0 L 1048.0 117.0 L 1027.0 60.0 L 982.0 60.0 Q 1000.0 110.99999999999999 970.0 126.0 L 970.0 159.0 z" fill="rgb(255,217,194)" stroke="black"/>
  <text fill="rgb(9,33,173)" font-size="25" x="1023.0" y="106.0">top_front</text>
  <path d="M 1249.0 291.0 L 1324.0 291.0 Q 1309.3 151.35 1324.0 144.0 Q 1282.9 135.0 1294.0 60.0 L 1186.0 60.0 L 1249.0 291.0 z" fill="rgb(255,217,194)" stroke="black"/>
  <text fill="rgb(9,33,173)" font-size="25" x="1250.4" y="172.2">Lback</text>
  <path d="M 1384.0 291.0 L 1459.0 291.0 L 1522.0 60.0 L 1414.0 60.0 Q 1420.9 133.5 1384.0 144.0 Q 1398.7 151.35 1384.0 291.0 z" fill="rgb(255,217,194)" stroke="black"/>
  <text fill="rgb(9,33,173)" font-size="25" x="1407.6" y="172.2">Lfront</text>
</svg>
