<?xml version="1.0" encoding="utf-8" ?>
<svg xmlns="http://www.w3.org/2000/svg" xmlns:ev="http://www.w3.org/2001/xml-events" xmlns:xlink="http://www.w3.org/1999/xlink" baseProfile="full" height="363px" version="1.1" width="769.0px">
  <defs/>
  <path d="M 60 303 L 183 303 L 183 159 L 150 60 L 120 60 Q 147.6 127.8 108 150 L 60 303 z" fill="rgb(255,217,194)" stroke="black"/>
  <text fill="rgb(9,33,173)" font-size="25" x="109.0" y="175.5">front_right</text>
  <path d="M 279.0 303.0 L 525.0 303.0 L 477.0 150.0 Q 437.4 127.8 465.0 60.0 L 435.0 60.0 Q 402.0 172.88580735535163 369.0 60.0 L 339.0 60.0 Q 366.6 127.8 327.0 150.0 L 279.0 303.0 z" fill="rgb(255,217,194)" stroke="black"/>
  <text fill="rgb(9,33,173)" font-size="25" x="377.0" y="146.25">back</text>
  <path d="M 585.0 303.0 L 708.0 303.0 L 660.0 150.0 Q 620.4 127.8 648.0 60.0 L 618.0 60.0 L 585.0 159.0 L 585.0 303.0 z" fill="rgb(255,217,194)" stroke="black"/>
  <text fill="rgb(9,33,173)" font-size="25" x="609.0" y="175.5">front_left</text>
</svg>
