<?xml version="1.0" encoding="utf-8" ?>
<svg xmlns="http://www.w3.org/2000/svg" xmlns:ev="http://www.w3.org/2001/xml-events" xmlns:xlink="http://www.w3.org/1999/xlink" baseProfile="full" height="237px" version="1.1" width="1494px">
  <defs/>
  <path d="M 60 150 L 195 150 Q 222.6 82.2 183 60 L 60 63 L 60 150 z" fill="rgb(255,217,194)" stroke="black"/>
  <text fill="rgb(9,33,173)" font-size="25" x="99.5" y="108.75">rbsleeve</text>
  <path d="M 255 147 L 378 150 Q 417.6 127.8 390 60 L 255 60 L 255 147 z" fill="rgb(255,217,194)" stroke="black"/>
  <text fill="rgb(9,33,173)" font-size="25" x="294.5" y="107.25">rfsleeve</text>
  <path d="M 462 177 L 570 177 L 582 150 Q 543.3 126.6 573 60 L 552 60 L 516 69 L 480 60 L 459 60 Q 488.7 126.6 450 150 L 462 177 z" fill="rgb(255,217,194)" stroke="black"/>
  <text fill="rgb(9,33,173)" font-size="25" x="491.0" y="110.0">back</text>
  <path d="M 654 177 L 762 177 L 774 150 Q 735.3 126.6 765 60 L 744 60 L 708 66 L 672 60 L 651 60 Q 680.7 126.6 642 150 L 654 177 z" fill="rgb(255,217,194)" stroke="black"/>
  <text fill="rgb(9,33,173)" font-size="25" x="683.0" y="109.66666666666667">front</text>
  <path d="M 837 177 L 858 177 Q 939.9 174.29999999999998 909 66 L 873 75 L 834 60 L 837 177 z" fill="rgb(255,217,194)" stroke="black"/>
  <text fill="rgb(9,33,173)" font-size="25" x="837.2" y="114.0">Rhood</text>
  <path d="M 969 177 L 1008 162 L 1044 171 Q 1074.8999999999999 62.70000000000002 993 60 L 972 60 L 969 177 z" fill="rgb(255,217,194)" stroke="black"/>
  <text fill="rgb(9,33,173)" font-size="25" x="972.2" y="129.0">Lhood</text>
  <path d="M 1104 147 L 1227 150 Q 1266.6 127.8 1239 60 L 1104 60 L 1104 147 z" fill="rgb(255,217,194)" stroke="black"/>
  <text fill="rgb(9,33,173)" font-size="25" x="1143.5" y="107.25">lbsleeve</text>
  <path d="M 1299 150 L 1434 150 Q 1461.6 82.2 1422 60 L 1299 63 L 1299 150 z" fill="rgb(255,217,194)" stroke="black"/>
  <text fill="rgb(9,33,173)" font-size="25" x="1338.5" y="108.75">lfsleeve</text>
</svg>
