<?xml version="1.0" encoding="utf-8" ?>
<svg xmlns="http://www.w3.org/2000/svg" xmlns:ev="http://www.w3.org/2001/xml-events" xmlns:xlink="http://www.w3.org/1999/xlink" baseProfile="full" height="375px" version="1.1" width="1510.0px">
  <defs/>
  <path d="M 60 315 L 186 315 L 177 60 L 90 60 Q 99.9 132.75 60 141 Q 77.4 149.7 60 315 z" fill="rgb(255,217,194)" stroke="black"/>
  <text fill="rgb(9,33,173)" font-size="25" x="89.6" y="181.2">Rback</text>
  <path d="M 246 315 L 372 315 Q 354.6 149.70000000000002 372 141 Q 336.15 131.25 342 60 L 255 60 L 246 315 z" fill="rgb(255,217,194)" stroke="black"/>
  <text fill="rgb(9,33,173)" font-size="25" x="292.4" y="181.2">Rfront</text>
  <path d="M 432 66 L 471 66 L 510 66 L 510 60 L 432 60 L 432 66 z" fill="rgb(255,217,194)" stroke="black"/>
  <text fill="rgb(9,33,173)" font-size="25" x="446.0" y="66.6">wb_back</text>
  <path d="M 576.0 66.0 L 615.0 66.0 L 654.0 66.0 L 654.0 60.0 L 576.0 60.0 L 576.0 66.0 z" fill="rgb(255,217,194)" stroke="black"/>
  <text fill="rgb(9,33,173)" font-size="25" x="590.0" y="66.6">wb_front</text>
  <path d="M 730.0 183.0 L 874.0 183.0 L 874.0 111.0 Q 850.9 99.3 865.0 60.0 L 829.0 60.0 Q 802.0 105.81552792380398 775.0 60.0 L 739.0 60.0 Q 753.1 99.29999999999998 730.0 111.0 L 730.0 183.0 z" fill="rgb(255,217,194)" stroke="black"/>
  <text fill="rgb(9,33,173)" font-size="25" x="777.0" y="106.5">top_back</text>
  <path d="M 934.0 183.0 L 1078.0 183.0 L 1078.0 111.0 Q 1054.8999999999999 99.3 1069.0 60.0 L 1033.0 60.0 L 1006.0 75.0 L 979.0 60.0 L 943.0 60.0 Q 957.1 99.29999999999998 934.0 111.0 L 934.0 183.0 z" fill="rgb(255,217,194)" stroke="black"/>
  <text fill="rgb(9,33,173)" font-size="25" x="981.0" y="103.33333333333333">top_front</text>
  <path d="M 1138.0 315.0 L 1264.0 315.0 Q 1246.6 149.70000000000002 1264.0 141.0 Q 1224.1 132.75 1234.0 60.0 L 1147.0 60.0 L 1138.0 315.0 z" fill="rgb(255,217,194)" stroke="black"/>
  <text fill="rgb(9,33,173)" font-size="25" x="1184.4" y="181.2">Lback</text>
  <path d="M 1324.0 315.0 L 1450.0 315.0 L 1441.0 60.0 L 1354.0 60.0 Q 1359.85 131.25 1324.0 141.0 Q 1341.4 149.7 1324.0 315.0 z" fill="rgb(255,217,194)" stroke="black"/>
  <text fill="rgb(9,33,173)" font-size="25" x="1353.6" y="181.2">Lfront</text>
</svg>
