<?xml version="1.0" encoding="utf-8" ?>
<svg xmlns="http://www.w3.org/2000/svg" xmlns:ev="http://www.w3.org/2001/xml-events" xmlns:xlink="http://www.w3.org/1999/xlink" baseProfile="full" height="312px" version="1.1" width="1224.0px">
  <defs/>
  <path d="M 60 252 L 240 252 L 240 60 L 60 60 L 60 252 z" fill="rgb(255,217,194)" stroke="black"/>
  <text fill="rgb(9,33,173)" font-size="25" x="125.0" y="159.0">skirt_back</text>
  <path d="M 300 81 L 390 81 L 390 60 L 300 60 L 300 81 z" fill="rgb(255,217,194)" stroke="black"/>
  <text fill="rgb(9,33,173)" font-size="25" x="320.0" y="73.5">wb_back</text>
  <path d="M 450 81 L 540 81 L 540 60 L 450 60 L 450 81 z" fill="rgb(255,217,194)" stroke="black"/>
  <text fill="rgb(9,33,173)" font-size="25" x="470.0" y="73.5">wb_front</text>
  <path d="M 610.0 252.0 L 790.0 252.0 L 790.0 60.0 L 610.0 60.0 L 610.0 252.0 z" fill="rgb(255,217,194)" stroke="black"/>
  <text fill="rgb(9,33,173)" font-size="25" x="675.0" y="159.0">skirt_front</text>
  <path d="M 850.0 165.0 L 976.0 165.0 L 976.0 129.0 Q 945.6999999999999 111.89999999999999 967.0 60.0 L 931.0 60.0 Q 913.0 110.16538738272398 895.0 60.0 L 859.0 60.0 Q 880.3000000000001 111.89999999999999 850.0 129.0 L 850.0 165.0 z" fill="rgb(255,217,194)" stroke="black"/>
  <text fill="rgb(9,33,173)" font-size="25" x="888.0" y="106.5">top_back</text>
  <path d="M 1036.0 165.0 L 1162.0 165.0 L 1162.0 126.0 Q 1132.8999999999999 109.8 1153.0 60.0 L 1117.0 60.0 L 1099.0 114.0 L 1081.0 60.0 L 1045.0 60.0 Q 1065.1000000000001 109.79999999999998 1036.0 126.0 L 1036.0 165.0 z" fill="rgb(255,217,194)" stroke="black"/>
  <text fill="rgb(9,33,173)" font-size="25" x="1074.0" y="107.0">top_front</text>
</svg>
