<?xml version="1.0" encoding="utf-8" ?>
<svg xmlns="http://www.w3.org/2000/svg" xmlns:ev="http://www.w3.org/2001/xml-events" xmlns:xlink="http://www.w3.org/1999/xlink" baseProfile="full" height="399px" version="1.1" width="1594.0px">
  <defs/>
  <path d="M 60 339 L 402 339 L 402 60 L 60 60 L 60 339 z" fill="rgb(255,217,194)" stroke="black"/>
  <text fill="rgb(9,33,173)" font-size="25" x="206.0" y="202.5">skirt_back</text>
  <path d="M 462 78 L 552 78 L 552 60 L 462 60 L 462 78 z" fill="rgb(255,217,194)" stroke="black"/>
  <text fill="rgb(9,33,173)" font-size="25" x="482.0" y="72.0">wb_back</text>
  <path d="M 612 78 L 702 78 L 702 60 L 612 60 L 612 78 z" fill="rgb(255,217,194)" stroke="black"/>
  <text fill="rgb(9,33,173)" font-size="25" x="632.0" y="72.0">wb_front</text>
  <path d="M 772.0 339.0 L 1114.0 339.0 L 1114.0 60.0 L 772.0 60.0 L 772.0 339.0 z" fill="rgb(255,217,194)" stroke="black"/>
  <text fill="rgb(9,33,173)" font-size="25" x="918.0" y="202.5">skirt_front</text>
  <path d="M 1174.0 171.0 L 1324.0 171.0 L 1324.0 117.0 Q 1297.6000000000001 104.7 1312.0 60.0 L 1264.0 60.0 Q 1249.0 95.88750482948913 1234.0 60.0 L 1186.0 60.0 Q 1200.3999999999999 104.7 1174.0 117.0 L 1174.0 171.0 z" fill="rgb(255,217,194)" stroke="black"/>
  <text fill="rgb(9,33,173)" font-size="25" x="1224.0" y="105.0">top_back</text>
  <path d="M 1384.0 171.0 L 1534.0 171.0 L 1534.0 114.0 Q 1508.8000000000002 102.6 1522.0 60.0 L 1474.0 60.0 L 1459.0 78.0 L 1444.0 60.0 L 1396.0 60.0 Q 1409.1999999999998 102.6 1384.0 114.0 L 1384.0 171.0 z" fill="rgb(255,217,194)" stroke="black"/>
  <text fill="rgb(9,33,173)" font-size="25" x="1434.0" y="101.66666666666667">top_front</text>
</svg>
