<?xml version="1.0" encoding="utf-8" ?>
<svg xmlns="http://www.w3.org/2000/svg" xmlns:ev="http://www.w3.org/2001/xml-events" xmlns:xlink="http://www.w3.org/1999/xlink" baseProfile="full" height="261px" version="1.1" width="1558.0px">
  <defs/>
  <path d="M 60 201 L 192 201 L 171 60 L 90 60 Q 97.5 128.25 60 135 Q 66.6 138.3 60 201 z" fill="rgb(255,217,194)" stroke="black"/>
  <text fill="rgb(9,33,173)" font-size="25" x="89.6" y="134.4">Rback</text>
  <path d="M 252 201 L 384 201 Q 377.4 138.3 384 135 Q 350.25 126.75 354 60 L 273 60 L 252 201 z" fill="rgb(255,217,194)" stroke="black"/>
  <text fill="rgb(9,33,173)" font-size="25" x="304.4" y="134.4">Rfront</text>
  <path d="M 444 78 L 483 78 L 522 78 L 522 60 L 444 60 L 444 78 z" fill="rgb(255,217,194)" stroke="black"/>
  <text fill="rgb(9,33,173)" font-size="25" x="458.0" y="73.8">wb_back</text>
  <path d="M 588.0 78.0 L 627.0 78.0 L 666.0 78.0 L 666.0 60.0 L 588.0 60.0 L 588.0 78.0 z" fill="rgb(255,217,194)" stroke="black"/>
  <text fill="rgb(9,33,173)" font-size="25" x="602.0" y="73.8">wb_front</text>
  <path d="M 742.0 183.0 L 898.0 183.0 L 898.0 132.0 Q 865.6 115.2 886.0 60.0 L 847.0 60.0 Q 820.0 104.6172618599474 793.0 60.0 L 754.0 60.0 Q 774.4 115.2 742.0 132.0 L 742.0 183.0 z" fill="rgb(255,217,194)" stroke="black"/>
  <text fill="rgb(9,33,173)" font-size="25" x="795.0" y="111.75">top_back</text>
  <path d="M 958.0 183.0 L 1114.0 183.0 L 1114.0 132.0 Q 1081.6000000000001 115.2 1102.0 60.0 L 1063.0 60.0 L 1036.0 120.0 L 1009.0 60.0 L 970.0 60.0 Q 990.4 115.2 958.0 132.0 L 958.0 183.0 z" fill="rgb(255,217,194)" stroke="black"/>
  <text fill="rgb(9,33,173)" font-size="25" x="1011.0" y="113.0">top_front</text>
  <path d="M 1174.0 201.0 L 1306.0 201.0 Q 1299.4 138.3 1306.0 135.0 Q 1268.5 128.25 1276.0 60.0 L 1195.0 60.0 L 1174.0 201.0 z" fill="rgb(255,217,194)" stroke="black"/>
  <text fill="rgb(9,33,173)" font-size="25" x="1226.4" y="134.4">Lback</text>
  <path d="M 1366.0 201.0 L 1498.0 201.0 L 1477.0 60.0 L 1396.0 60.0 Q 1399.75 126.75 1366.0 135.0 Q 1372.6 138.3 1366.0 201.0 z" fill="rgb(255,217,194)" stroke="black"/>
  <text fill="rgb(9,33,173)" font-size="25" x="1395.6" y="134.4">Lfront</text>
</svg>
