<?xml version="1.0" encoding="utf-8" ?>
<svg xmlns="http://www.w3.org/2000/svg" xmlns:ev="http://www.w3.org/2001/xml-events" xmlns:xlink="http://www.w3.org/1999/xlink" baseProfile="full" height="267px" version="1.1" width="936px">
  <defs/>
  <path d="M 60 207 Q 150.0 296.283733699289 240 207 L 225 102 L 204 60 L 96 60 L 75 102 L 60 207 z" fill="rgb(255,217,194)" stroke="black"/>
  <text fill="rgb(9,33,173)" font-size="25" x="125.0" y="126.0">skirt_back</text>
  <path d="M 300 207 Q 390.0 205.9874625522934 480 207 L 465 102 L 444 60 L 336 60 L 315 102 L 300 207 z" fill="rgb(255,217,194)" stroke="black"/>
  <text fill="rgb(9,33,173)" font-size="25" x="365.0" y="126.0">skirt_front</text>
  <path d="M 555 168 L 663 168 L 678 132 Q 645.6 115.2 666 60 L 642 60 Q 609.0 66.34708295182332 576 60 L 552 60 Q 572.4 115.2 540 132 L 555 168 z" fill="rgb(255,217,194)" stroke="black"/>
  <text fill="rgb(9,33,173)" font-size="25" x="584.0" y="108.0">top_back</text>
  <path d="M 753 165 L 861 165 L 876 132 Q 843.6 115.2 864 60 L 840 60 L 807 66 L 774 60 L 750 60 Q 770.4 115.2 738 132 L 753 165 z" fill="rgb(255,217,194)" stroke="black"/>
  <text fill="rgb(9,33,173)" font-size="25" x="782.0" y="103.0">top_front</text>
</svg>
