<?xml version="1.0" encoding="utf-8" ?>
<svg xmlns="http://www.w3.org/2000/svg" xmlns:ev="http://www.w3.org/2001/xml-events" xmlns:xlink="http://www.w3.org/1999/xlink" baseProfile="full" height="435px" version="1.1" width="1206.0px">
  <defs/>
  <path d="M 60 375 L 219 375 L 219 69 L 174 60 L 144 60 Q 176.4 136.2 132 162 L 60 375 z" fill="rgb(255,217,194)" stroke="black"/>
  <text fill="rgb(9,33,173)" font-size="25" x="133.0" y="186.5">front_right</text>
  <path d="M 315.0 165.0 L 360.0 162.0 Q 432.0 153.0 396.0 60.0 L 351.0 69.0 L 303.0 60.0 L 315.0 165.0 z" fill="rgb(255,217,194)" stroke="black"/>
  <text fill="rgb(9,33,173)" font-size="25" x="320.0" y="106.2">Rhood</text>
  <path d="M 456.0 375.0 L 774.0 375.0 L 702.0 162.0 Q 657.6 136.20000000000002 690.0 60.0 L 660.0 60.0 L 615.0 69.0 L 570.0 60.0 L 540.0 60.0 Q 572.4 136.2 528.0 162.0 L 456.0 375.0 z" fill="rgb(255,217,194)" stroke="black"/>
  <text fill="rgb(9,33,173)" font-size="25" x="590.0" y="156.66666666666666">back</text>
  <path d="M 834.0 165.0 L 882.0 156.0 L 927.0 165.0 Q 963.0 72.00000000000001 891.0 63.0 L 846.0 60.0 L 834.0 165.0 z" fill="rgb(255,217,194)" stroke="black"/>
  <text fill="rgb(9,33,173)" font-size="25" x="851.0" y="124.8">Lhood</text>
  <path d="M 987.0 375.0 L 1146.0 375.0 L 1074.0 162.0 Q 1029.6000000000001 136.20000000000002 1062.0 60.0 L 1032.0 60.0 L 987.0 69.0 L 987.0 375.0 z" fill="rgb(255,217,194)" stroke="black"/>
  <text fill="rgb(9,33,173)" font-size="25" x="1023.0" y="186.5">front_left</text>
</svg>
