<?xml version="1.0" encoding="utf-8" ?>
<svg xmlns="http://www.w3.org/2000/svg" xmlns:ev="http://www.w3.org/2001/xml-events" xmlns:xlink="http://www.w3.org/1999/xlink" baseProfile="full" height="324.0px" version="1.1" width="1606.0px">
  <defs/>
  <path d="M 60 180 L 87 180 Q 111.0 118.50000000000001 75 99 L 60 60 L 60 180 z" fill="rgb(255,217,194)" stroke="black"/>
  <text fill="rgb(9,33,173)" font-size="25" x="45.5" y="132.75">rbsleeve</text>
  <path d="M 185.5 180.0 L 200.5 141.0 Q 236.5 121.5 212.5 60.0 L 185.5 60.0 L 185.5 180.0 z" fill="rgb(255,217,194)" stroke="black"/>
  <text fill="rgb(9,33,173)" font-size="25" x="171.0" y="113.25">rfsleeve</text>
  <path d="M 311.0 264.0 L 404.0 264.0 Q 414.2 90.6 404.0 60.0 L 341.0 60.0 Q 355.7 141.75 311.0 153.0 Q 322.1 158.55 311.0 264.0 z" fill="rgb(255,217,194)" stroke="black"/>
  <text fill="rgb(9,33,173)" font-size="25" x="329.2" y="163.2">Rback</text>
  <path d="M 464.0 264.0 L 557.0 264.0 Q 545.9 158.55 557.0 153.0 Q 516.95 140.25 527.0 60.0 L 464.0 60.0 Q 453.8 90.6 464.0 264.0 z" fill="rgb(255,217,194)" stroke="black"/>
  <text fill="rgb(9,33,173)" font-size="25" x="488.79999999999995" y="163.2">Rfront</text>
  <path d="M 629.0 168.0 L 695.0 168.0 L 761.0 168.0 L 773.0 141.0 Q 737.0 121.5 761.0 60.0 L 719.0 60.0 Q 695.0 129.38986481535142 671.0 60.0 L 629.0 60.0 Q 653.0 121.49999999999999 617.0 141.0 L 629.0 168.0 z" fill="rgb(255,217,194)" stroke="black"/>
  <text fill="rgb(9,33,173)" font-size="25" x="670.0" y="117.0">up_back</text>
  <path d="M 845.0 165.0 L 911.0 165.0 L 977.0 165.0 L 989.0 141.0 Q 953.0 121.5 977.0 60.0 L 935.0 60.0 L 911.0 141.0 L 887.0 60.0 L 845.0 60.0 Q 869.0 121.49999999999999 833.0 141.0 L 845.0 165.0 z" fill="rgb(255,217,194)" stroke="black"/>
  <text fill="rgb(9,33,173)" font-size="25" x="886.0" y="118.8">up_front</text>
  <path d="M 1049.0 264.0 L 1142.0 264.0 Q 1130.9 158.55 1142.0 153.0 Q 1097.3 141.75 1112.0 60.0 L 1049.0 60.0 Q 1038.8 90.6 1049.0 264.0 z" fill="rgb(255,217,194)" stroke="black"/>
  <text fill="rgb(9,33,173)" font-size="25" x="1073.8" y="163.2">Lback</text>
  <path d="M 1202.0 264.0 L 1295.0 264.0 Q 1305.2 90.6 1295.0 60.0 L 1232.0 60.0 Q 1242.05 140.25 1202.0 153.0 Q 1213.1 158.55 1202.0 264.0 z" fill="rgb(255,217,194)" stroke="black"/>
  <text fill="rgb(9,33,173)" font-size="25" x="1220.2" y="163.2">Lfront</text>
  <path d="M 1355.0 180.0 L 1370.0 141.0 Q 1406.0 121.5 1382.0 60.0 L 1355.0 60.0 L 1355.0 180.0 z" fill="rgb(255,217,194)" stroke="black"/>
  <text fill="rgb(9,33,173)" font-size="25" x="1340.5" y="113.25">lbsleeve</text>
  <path d="M 1480.5 180.0 L 1507.5 180.0 Q 1531.5 118.50000000000001 1495.5 99.0 L 1480.5 60.0 L 1480.5 180.0 z" fill="rgb(255,217,194)" stroke="black"/>
  <text fill="rgb(9,33,173)" font-size="25" x="1466.0" y="132.75">lfsleeve</text>
</svg>
