<?xml version="1.0" encoding="utf-8" ?>
<svg xmlns="http://www.w3.org/2000/svg" xmlns:ev="http://www.w3.org/2001/xml-events" xmlns:xlink="http://www.w3.org/1999/xlink" baseProfile="full" height="276.0px" version="1.1" width="1674.0px">
  <defs/>
  <path d="M 60 171 L 138 171 Q 176.1 89.70000000000002 129 60 L 60 72 L 60 171 z" fill="rgb(255,217,194)" stroke="black"/>
  <text fill="rgb(9,33,173)" font-size="25" x="71.75" y="121.5">rbsleeve</text>
  <path d="M 211.75 159.0 L 280.75 171.0 Q 327.85 141.29999999999998 289.75 60.0 L 211.75 60.0 L 211.75 159.0 z" fill="rgb(255,217,194)" stroke="black"/>
  <text fill="rgb(9,33,173)" font-size="25" x="223.5" y="115.5">rfsleeve</text>
  <path d="M 363.5 216.0 L 498.5 216.0 L 498.5 105.0 L 474.5 60.0 L 450.5 60.0 Q 488.6 141.29999999999998 441.5 171.0 L 363.5 216.0 z" fill="rgb(255,217,194)" stroke="black"/>
  <text fill="rgb(9,33,173)" font-size="25" x="429.5" y="141.0">front_right</text>
  <path d="M 599.5 189.0 L 620.5 192.0 Q 690.7 188.39999999999998 662.5 96.0 L 635.5 105.0 L 608.5 60.0 L 599.5 189.0 z" fill="rgb(255,217,194)" stroke="black"/>
  <text fill="rgb(9,33,173)" font-size="25" x="600.3" y="131.4">Rhood</text>
  <path d="M 722.5 216.0 L 992.5 216.0 L 914.5 171.0 Q 867.4 141.29999999999998 905.5 60.0 L 881.5 60.0 L 857.5 69.0 L 833.5 60.0 L 809.5 60.0 Q 847.6 141.29999999999998 800.5 171.0 L 722.5 216.0 z" fill="rgb(255,217,194)" stroke="black"/>
  <text fill="rgb(9,33,173)" font-size="25" x="832.5" y="123.33333333333333">back</text>
  <path d="M 1061.5 192.0 L 1088.5 147.0 L 1115.5 156.0 Q 1143.6999999999998 63.60000000000001 1073.5 60.0 L 1052.5 63.0 L 1061.5 192.0 z" fill="rgb(255,217,194)" stroke="black"/>
  <text fill="rgb(9,33,173)" font-size="25" x="1053.3" y="126.6">Lhood</text>
  <path d="M 1175.5 216.0 L 1310.5 216.0 L 1232.5 171.0 Q 1185.3999999999999 141.29999999999998 1223.5 60.0 L 1199.5 60.0 L 1175.5 105.0 L 1175.5 216.0 z" fill="rgb(255,217,194)" stroke="black"/>
  <text fill="rgb(9,33,173)" font-size="25" x="1194.5" y="141.0">front_left</text>
  <path d="M 1370.5 159.0 L 1439.5 171.0 Q 1486.6000000000001 141.29999999999998 1448.5 60.0 L 1370.5 60.0 L 1370.5 159.0 z" fill="rgb(255,217,194)" stroke="black"/>
  <text fill="rgb(9,33,173)" font-size="25" x="1382.25" y="115.5">lbsleeve</text>
  <path d="M 1522.25 171.0 L 1600.25 171.0 Q 1638.3500000000001 89.70000000000002 1591.25 60.0 L 1522.25 72.0 L 1522.25 171.0 z" fill="rgb(255,217,194)" stroke="black"/>
  <text fill="rgb(9,33,173)" font-size="25" x="1534.0" y="121.5">lfsleeve</text>
</svg>
