<?xml version="1.0" encoding="utf-8" ?>
<svg xmlns="http://www.w3.org/2000/svg" xmlns:ev="http://www.w3.org/2001/xml-events" xmlns:xlink="http://www.w3.org/1999/xlink" baseProfile="full" height="522px" version="1.1" width="1118.0px">
  <defs/>
  <path d="M 60 462 L 276 462 L 276 78 L 240 60 L 195 60 Q 220.2 123.6 183 144 L 60 462 z" fill="rgb(255,217,194)" stroke="black"/>
  <text fill="rgb(9,33,173)" font-size="25" x="180.0" y="214.0">front_right</text>
  <path d="M 350.0 462.0 L 782.0 462.0 L 659.0 147.0 Q 620.6 125.7 647.0 60.0 L 602.0 60.0 Q 566.0 234.64336208000728 530.0 60.0 L 485.0 60.0 Q 511.40000000000003 125.7 473.0 147.0 L 350.0 462.0 z" fill="rgb(255,217,194)" stroke="black"/>
  <text fill="rgb(9,33,173)" font-size="25" x="541.0" y="185.25">back</text>
  <path d="M 842.0 462.0 L 1058.0 462.0 L 935.0 144.0 Q 897.8 123.6 923.0 60.0 L 878.0 60.0 L 842.0 78.0 L 842.0 462.0 z" fill="rgb(255,217,194)" stroke="black"/>
  <text fill="rgb(9,33,173)" font-size="25" x="888.0" y="214.0">front_left</text>
</svg>
