<?xml version="1.0" encoding="utf-8" ?>
<svg xmlns="http://www.w3.org/2000/svg" xmlns:ev="http://www.w3.org/2001/xml-events" xmlns:xlink="http://www.w3.org/1999/xlink" baseProfile="full" height="396px" version="1.1" width="800.5px">
  <defs/>
  <path d="M 60 336 L 192 336 L 192 90 L 171 60 L 117 60 Q 143.4 125.7 105 147 L 60 336 z" fill="rgb(255,217,194)" stroke="black"/>
  <text fill="rgb(9,33,173)" font-size="25" x="114.5" y="174.5">front_right</text>
  <path d="M 284.5 336.0 L 548.5 336.0 L 503.5 147.0 Q 465.09999999999997 125.7 491.5 60.0 L 437.5 60.0 Q 416.5 195.8802904781077 395.5 60.0 L 341.5 60.0 Q 367.90000000000003 125.7 329.5 147.0 L 284.5 336.0 z" fill="rgb(255,217,194)" stroke="black"/>
  <text fill="rgb(9,33,173)" font-size="25" x="391.5" y="153.75">back</text>
  <path d="M 608.5 336.0 L 740.5 336.0 L 695.5 147.0 Q 657.1 125.7 683.5 60.0 L 629.5 60.0 L 608.5 90.0 L 608.5 336.0 z" fill="rgb(255,217,194)" stroke="black"/>
  <text fill="rgb(9,33,173)" font-size="25" x="636.0" y="174.5">front_left</text>
</svg>
