<?xml version="1.0" encoding="utf-8" ?>
<svg xmlns="http://www.w3.org/2000/svg" xmlns:ev="http://www.w3.org/2001/xml-events" xmlns:xlink="http://www.w3.org/1999/xlink" baseProfile="full" height="231px" version="1.1" width="1092px">
  <defs/>
  <path d="M 60 171 Q 156.0 253.63310947488492 252 171 L 240 102 L 225 60 L 87 60 L 72 102 L 60 171 z" fill="rgb(255,217,194)" stroke="black"/>
  <text fill="rgb(9,33,173)" font-size="25" x="131.0" y="114.0">skirt_back</text>
  <path d="M 312 171 Q 408.0 266.37240552685427 504 171 L 492 102 L 477 60 L 339 60 L 324 102 L 312 171 z" fill="rgb(255,217,194)" stroke="black"/>
  <text fill="rgb(9,33,173)" font-size="25" x="383.0" y="114.0">skirt_front</text>
  <path d="M 597 168 L 735 168 L 768 126 Q 737.1 112.2 753 60 L 693 60 Q 666.0 133.76027527104776 639 60 L 579 60 Q 594.9 112.19999999999999 564 126 L 597 168 z" fill="rgb(255,217,194)" stroke="black"/>
  <text fill="rgb(9,33,173)" font-size="25" x="641.0" y="106.5">top_back</text>
  <path d="M 861 165 L 999 165 L 1032 126 Q 1001.1 112.2 1017 60 L 957 60 L 930 132 L 903 60 L 843 60 Q 858.9 112.19999999999999 828 126 L 861 165 z" fill="rgb(255,217,194)" stroke="black"/>
  <text fill="rgb(9,33,173)" font-size="25" x="905.0" y="109.0">top_front</text>
</svg>
