<?xml version="1.0" encoding="utf-8" ?>
<svg xmlns="http://www.w3.org/2000/svg" xmlns:ev="http://www.w3.org/2001/xml-events" xmlns:xlink="http://www.w3.org/1999/xlink" baseProfile="full" height="372px" version="1.1" width="607.0px">
  <defs/>
  <path d="M 60 312 L 129 312 L 129 126 L 111 60 L 78 60 Q 111.30000000000001 132.9 69 159 L 60 312 z" fill="rgb(255,217,194)" stroke="black"/>
  <text fill="rgb(9,33,173)" font-size="25" x="71.0" y="174.5">front_right</text>
  <path d="M 241.0 312.0 L 379.0 312.0 L 370.0 162.0 Q 326.5 135.0 361.0 60.0 L 328.0 60.0 Q 310.0 114.96407050083786 292.0 60.0 L 259.0 60.0 Q 293.5 134.99999999999997 250.0 162.0 L 241.0 312.0 z" fill="rgb(255,217,194)" stroke="black"/>
  <text fill="rgb(9,33,173)" font-size="25" x="285.0" y="151.5">back</text>
  <path d="M 439.0 312.0 L 508.0 312.0 L 499.0 159.0 Q 456.7 132.9 490.0 60.0 L 457.0 60.0 L 439.0 126.0 L 439.0 312.0 z" fill="rgb(255,217,194)" stroke="black"/>
  <text fill="rgb(9,33,173)" font-size="25" x="447.0" y="174.5">front_left</text>
</svg>
