<?xml version="1.0" encoding="utf-8" ?>
<svg xmlns="http://www.w3.org/2000/svg" xmlns:ev="http://www.w3.org/2001/xml-events" xmlns:xlink="http://www.w3.org/1999/xlink" baseProfile="full" height="306px" version="1.1" width="1486.0px">
  <defs/>
  <path d="M 60 246 L 111 246 L 174 60 L 90 60 Q 96.3 126.0 60 132 Q 71.4 137.7 60 246 z" fill="rgb(255,217,194)" stroke="black"/>
  <text fill="rgb(9,33,173)" font-size="25" x="74.0" y="151.8">Rback</text>
  <path d="M 297 246 L 348 246 Q 336.6 137.7 348 132 Q 315.3 124.5 318 60 L 234 60 L 297 246 z" fill="rgb(255,217,194)" stroke="black"/>
  <text fill="rgb(9,33,173)" font-size="25" x="284.0" y="151.8">Rfront</text>
  <path d="M 408 66 L 447 66 L 486 66 L 486 60 L 408 60 L 408 66 z" fill="rgb(255,217,194)" stroke="black"/>
  <text fill="rgb(9,33,173)" font-size="25" x="422.0" y="66.6">wb_back</text>
  <path d="M 552.0 66.0 L 591.0 66.0 L 630.0 66.0 L 630.0 60.0 L 552.0 60.0 L 552.0 66.0 z" fill="rgb(255,217,194)" stroke="black"/>
  <text fill="rgb(9,33,173)" font-size="25" x="566.0" y="66.6">wb_front</text>
  <path d="M 706.0 156.0 L 862.0 156.0 L 862.0 126.0 Q 832.0 111.0 850.0 60.0 L 802.0 60.0 Q 784.0 131.1296504799164 766.0 60.0 L 718.0 60.0 Q 736.0 110.99999999999999 706.0 126.0 L 706.0 156.0 z" fill="rgb(255,217,194)" stroke="black"/>
  <text fill="rgb(9,33,173)" font-size="25" x="759.0" y="103.5">top_back</text>
  <path d="M 922.0 156.0 L 1078.0 156.0 L 1078.0 126.0 Q 1048.0 111.0 1066.0 60.0 L 1018.0 60.0 L 1000.0 69.0 L 982.0 60.0 L 934.0 60.0 Q 952.0 110.99999999999999 922.0 126.0 L 922.0 156.0 z" fill="rgb(255,217,194)" stroke="black"/>
  <text fill="rgb(9,33,173)" font-size="25" x="975.0" y="100.0">top_front</text>
  <path d="M 1201.0 246.0 L 1252.0 246.0 Q 1240.6 137.7 1252.0 132.0 Q 1215.7 126.0 1222.0 60.0 L 1138.0 60.0 L 1201.0 246.0 z" fill="rgb(255,217,194)" stroke="black"/>
  <text fill="rgb(9,33,173)" font-size="25" x="1188.0" y="151.8">Lback</text>
  <path d="M 1312.0 246.0 L 1363.0 246.0 L 1426.0 60.0 L 1342.0 60.0 Q 1344.7 124.5 1312.0 132.0 Q 1323.4 137.7 1312.0 246.0 z" fill="rgb(255,217,194)" stroke="black"/>
  <text fill="rgb(9,33,173)" font-size="25" x="1326.0" y="151.8">Lfront</text>
</svg>
