<?xml version="1.0" encoding="utf-8" ?>
<svg xmlns="http://www.w3.org/2000/svg" xmlns:ev="http://www.w3.org/2001/xml-events" xmlns:xlink="http://www.w3.org/1999/xlink" baseProfile="full" height="237px" version="1.1" width="1560.0px">
  <defs/>
  <path d="M 60 177 L 153 177 L 207 60 L 90 60 Q 98.7 130.5 60 138 Q 63.9 139.95 60 177 z" fill="rgb(255,217,194)" stroke="black"/>
  <text fill="rgb(9,33,173)" font-size="25" x="89.0" y="125.4">Rback</text>
  <path d="M 321 177 L 414 177 Q 410.1 139.95 414 138 Q 379.2 129.0 384 60 L 267 60 L 321 177 z" fill="rgb(255,217,194)" stroke="black"/>
  <text fill="rgb(9,33,173)" font-size="25" x="335.0" y="125.4">Rfront</text>
  <path d="M 474 75 L 513 75 L 552 75 L 552 60 L 474 60 L 474 75 z" fill="rgb(255,217,194)" stroke="black"/>
  <text fill="rgb(9,33,173)" font-size="25" x="488.0" y="72.0">wb_back</text>
  <path d="M 618.0 75.0 L 657.0 75.0 L 696.0 75.0 L 696.0 60.0 L 618.0 60.0 L 618.0 75.0 z" fill="rgb(255,217,194)" stroke="black"/>
  <text fill="rgb(9,33,173)" font-size="25" x="632.0" y="72.0">wb_front</text>
  <path d="M 772.0 165.0 L 898.0 165.0 L 898.0 102.0 Q 877.6 94.2 886.0 60.0 L 865.0 60.0 Q 835.0 116.6309826601429 805.0 60.0 L 784.0 60.0 Q 792.4 94.2 772.0 102.0 L 772.0 165.0 z" fill="rgb(255,217,194)" stroke="black"/>
  <text fill="rgb(9,33,173)" font-size="25" x="810.0" y="99.75">top_back</text>
  <path d="M 958.0 165.0 L 1084.0 165.0 L 1084.0 102.0 Q 1063.6000000000001 94.2 1072.0 60.0 L 1051.0 60.0 L 1021.0 111.0 L 991.0 60.0 L 970.0 60.0 Q 978.4 94.2 958.0 102.0 L 958.0 165.0 z" fill="rgb(255,217,194)" stroke="black"/>
  <text fill="rgb(9,33,173)" font-size="25" x="996.0" y="101.33333333333333">top_front</text>
  <path d="M 1200.0 177.0 L 1293.0 177.0 Q 1289.1 139.95 1293.0 138.0 Q 1254.3 130.5 1263.0 60.0 L 1146.0 60.0 L 1200.0 177.0 z" fill="rgb(255,217,194)" stroke="black"/>
  <text fill="rgb(9,33,173)" font-size="25" x="1214.0" y="125.4">Lback</text>
  <path d="M 1353.0 177.0 L 1446.0 177.0 L 1500.0 60.0 L 1383.0 60.0 Q 1387.8 129.0 1353.0 138.0 Q 1356.9 139.95 1353.0 177.0 z" fill="rgb(255,217,194)" stroke="black"/>
  <text fill="rgb(9,33,173)" font-size="25" x="1382.0" y="125.4">Lfront</text>
</svg>
