<?xml version="1.0" encoding="utf-8" ?>
<svg xmlns="http://www.w3.org/2000/svg" xmlns:ev="http://www.w3.org/2001/xml-events" xmlns:xlink="http://www.w3.org/1999/xlink" baseProfile="full" height="339px" version="1.1" width="1018.0px">
  <defs/>
  <path d="M 60 279 L 168 279 L 168 78 L 123 60 L 99 60 Q 120.6 117.3 87 135 L 60 279 z" fill="rgb(255,217,194)" stroke="black"/>
  <text fill="rgb(9,33,173)" font-size="25" x="92.5" y="151.5">front_right</text>
  <path d="M 271.5 168.0 L 328.5 165.0 Q 392.4 148.79999999999998 349.5 69.0 L 307.5 78.0 L 262.5 60.0 L 271.5 168.0 z" fill="rgb(255,217,194)" stroke="black"/>
  <text fill="rgb(9,33,173)" font-size="25" x="278.9" y="111.0">Rhood</text>
  <path d="M 409.5 279.0 L 625.5 279.0 L 598.5 135.0 Q 564.9 117.3 586.5 60.0 L 562.5 60.0 L 517.5 69.0 L 472.5 60.0 L 448.5 60.0 Q 470.1 117.3 436.5 135.0 L 409.5 279.0 z" fill="rgb(255,217,194)" stroke="black"/>
  <text fill="rgb(9,33,173)" font-size="25" x="492.5" y="129.33333333333331">back</text>
  <path d="M 685.5 168.0 L 730.5 150.0 L 772.5 159.0 Q 815.4 79.20000000000002 751.5 63.0 L 694.5 60.0 L 685.5 168.0 z" fill="rgb(255,217,194)" stroke="black"/>
  <text fill="rgb(9,33,173)" font-size="25" x="701.9" y="123.0">Lhood</text>
  <path d="M 832.5 279.0 L 940.5 279.0 L 913.5 135.0 Q 879.9 117.3 901.5 60.0 L 877.5 60.0 L 832.5 78.0 L 832.5 279.0 z" fill="rgb(255,217,194)" stroke="black"/>
  <text fill="rgb(9,33,173)" font-size="25" x="858.0" y="151.5">front_left</text>
</svg>
