<?xml version="1.0" encoding="utf-8" ?>
<svg xmlns="http://www.w3.org/2000/svg" xmlns:ev="http://www.w3.org/2001/xml-events" xmlns:xlink="http://www.w3.org/1999/xlink" baseProfile="full" height="342px" version="1.1" width="770.5px">
  <defs/>
  <path d="M 60 282 L 183 282 L 183 93 L 165 60 L 120 60 Q 140.4 115.2 108 132 L 60 282 z" fill="rgb(255,217,194)" stroke="black"/>
  <text fill="rgb(9,33,173)" font-size="25" x="111.5" y="154.5">front_right</text>
  <path d="M 281.5 282.0 L 527.5 282.0 L 479.5 132.0 Q 447.09999999999997 115.2 467.5 60.0 L 422.5 60.0 Q 404.5 143.1922083652056 386.5 60.0 L 341.5 60.0 Q 361.90000000000003 115.2 329.5 132.0 L 281.5 282.0 z" fill="rgb(255,217,194)" stroke="black"/>
  <text fill="rgb(9,33,173)" font-size="25" x="379.5" y="136.5">back</text>
  <path d="M 587.5 282.0 L 710.5 282.0 L 662.5 132.0 Q 630.1 115.2 650.5 60.0 L 605.5 60.0 L 587.5 93.0 L 587.5 282.0 z" fill="rgb(255,217,194)" stroke="black"/>
  <text fill="rgb(9,33,173)" font-size="25" x="609.0" y="154.5">front_left</text>
</svg>
