<?xml version="1.0" encoding="utf-8" ?>
<svg xmlns="http://www.w3.org/2000/svg" xmlns:ev="http://www.w3.org/2001/xml-events" xmlns:xlink="http://www.w3.org/1999/xlink" baseProfile="full" height="291px" version="1.1" width="1015.0px">
  <defs/>
  <path d="M 60 231 L 183 231 L 183 66 L 156 60 L 120 60 Q 132.0 100.49999999999999 108 111 L 60 231 z" fill="rgb(255,217,194)" stroke="black"/>
  <text fill="rgb(9,33,173)" font-size="25" x="110.0" y="129.5">front_right</text>
  <path d="M 280.0 162.0 L 313.0 159.0 Q 381.4 147.3 343.0 60.0 L 316.0 69.0 L 289.0 63.0 L 280.0 162.0 z" fill="rgb(255,217,194)" stroke="black"/>
  <text fill="rgb(9,33,173)" font-size="25" x="283.2" y="105.6">Rhood</text>
  <path d="M 403.0 231.0 L 649.0 231.0 L 601.0 111.0 Q 577.0 100.5 589.0 60.0 L 553.0 60.0 L 526.0 69.0 L 499.0 60.0 L 463.0 60.0 Q 475.0 100.49999999999999 451.0 111.0 L 403.0 231.0 z" fill="rgb(255,217,194)" stroke="black"/>
  <text fill="rgb(9,33,173)" font-size="25" x="501.0" y="113.33333333333333">back</text>
  <path d="M 718.0 159.0 L 745.0 153.0 L 772.0 162.0 Q 810.4 74.7 742.0 63.0 L 709.0 60.0 L 718.0 159.0 z" fill="rgb(255,217,194)" stroke="black"/>
  <text fill="rgb(9,33,173)" font-size="25" x="712.2" y="122.4">Lhood</text>
  <path d="M 832.0 231.0 L 955.0 231.0 L 907.0 111.0 Q 883.0 100.5 895.0 60.0 L 859.0 60.0 L 832.0 66.0 L 832.0 231.0 z" fill="rgb(255,217,194)" stroke="black"/>
  <text fill="rgb(9,33,173)" font-size="25" x="855.0" y="129.5">front_left</text>
</svg>
