<?xml version="1.0" encoding="utf-8" ?>
<svg xmlns="http://www.w3.org/2000/svg" xmlns:ev="http://www.w3.org/2001/xml-events" xmlns:xlink="http://www.w3.org/1999/xlink" baseProfile="full" height="348px" version="1.1" width="1020px">
  <defs/>
  <path d="M 60 288 Q 147.0 368.3207586469009 234 288 L 225 102 L 207 60 L 87 60 L 69 102 L 60 288 z" fill="rgb(255,217,194)" stroke="black"/>
  <text fill="rgb(9,33,173)" font-size="25" x="122.0" y="153.0">skirt_back</text>
  <path d="M 294 288 Q 381.0 316.52289805659524 468 288 L 459 102 L 441 60 L 321 60 L 303 102 L 294 288 z" fill="rgb(255,217,194)" stroke="black"/>
  <text fill="rgb(9,33,173)" font-size="25" x="356.0" y="153.0">skirt_front</text>
  <path d="M 561 168 L 681 168 L 714 138 Q 678.3 120.6 699 60 L 645 60 Q 621.0 144.2539152510144 597 60 L 543 60 Q 563.7 120.6 528 138 L 561 168 z" fill="rgb(255,217,194)" stroke="black"/>
  <text fill="rgb(9,33,173)" font-size="25" x="596.0" y="109.5">top_back</text>
  <path d="M 807 165 L 927 165 L 960 135 Q 925.5 118.5 945 60 L 891 60 L 867 75 L 843 60 L 789 60 Q 808.5 118.5 774 135 L 807 165 z" fill="rgb(255,217,194)" stroke="black"/>
  <text fill="rgb(9,33,173)" font-size="25" x="842.0" y="104.66666666666667">top_front</text>
</svg>
