<?xml version="1.0" encoding="utf-8" ?>
<svg xmlns="http://www.w3.org/2000/svg" xmlns:ev="http://www.w3.org/2001/xml-events" xmlns:xlink="http://www.w3.org/1999/xlink" baseProfile="full" height="489px" version="1.1" width="912.0px">
  <defs/>
  <path d="M 60 429 L 222 429 L 222 138 L 180 60 L 147 60 Q 173.4 125.7 135 147 L 60 429 z" fill="rgb(255,217,194)" stroke="black"/>
  <text fill="rgb(9,33,173)" font-size="25" x="136.0" y="213.5">front_right</text>
  <path d="M 306.0 429.0 L 630.0 429.0 L 555.0 147.0 Q 516.6 125.7 543.0 60.0 L 510.0 60.0 Q 468.0 174.9516305287078 426.0 60.0 L 393.0 60.0 Q 419.40000000000003 125.7 381.0 147.0 L 306.0 429.0 z" fill="rgb(255,217,194)" stroke="black"/>
  <text fill="rgb(9,33,173)" font-size="25" x="443.0" y="177.0">back</text>
  <path d="M 690.0 429.0 L 852.0 429.0 L 777.0 147.0 Q 738.6 125.7 765.0 60.0 L 732.0 60.0 L 690.0 138.0 L 690.0 429.0 z" fill="rgb(255,217,194)" stroke="black"/>
  <text fill="rgb(9,33,173)" font-size="25" x="726.0" y="213.5">front_left</text>
</svg>
