<?xml version="1.0" encoding="utf-8" ?>
<svg xmlns="http://www.w3.org/2000/svg" xmlns:ev="http://www.w3.org/2001/xml-events" xmlns:xlink="http://www.w3.org/1999/xlink" baseProfile="full" height="444px" version="1.1" width="1135.0px">
  <defs/>
  <path d="M 60 384 L 207 384 L 207 102 L 165 60 L 129 60 Q 165.3 147.89999999999998 114 177 L 60 384 z" fill="rgb(255,217,194)" stroke="black"/>
  <text fill="rgb(9,33,173)" font-size="25" x="122.0" y="197.5">front_right</text>
  <path d="M 298.0 174.0 L 307.0 177.0 Q 377.2 191.4 373.0 93.0 L 334.0 102.0 L 292.0 60.0 L 298.0 174.0 z" fill="rgb(255,217,194)" stroke="black"/>
  <text fill="rgb(9,33,173)" font-size="25" x="295.8" y="124.2">Rhood</text>
  <path d="M 433.0 384.0 L 727.0 384.0 L 673.0 177.0 Q 621.7 147.9 658.0 60.0 L 622.0 60.0 L 580.0 69.0 L 538.0 60.0 L 502.0 60.0 Q 538.3 147.89999999999998 487.0 177.0 L 433.0 384.0 z" fill="rgb(255,217,194)" stroke="black"/>
  <text fill="rgb(9,33,173)" font-size="25" x="555.0" y="162.0">back</text>
  <path d="M 787.0 177.0 L 829.0 135.0 L 868.0 144.0 Q 872.1999999999999 45.6 802.0 60.0 L 793.0 63.0 L 787.0 177.0 z" fill="rgb(255,217,194)" stroke="black"/>
  <text fill="rgb(9,33,173)" font-size="25" x="790.8" y="118.8">Lhood</text>
  <path d="M 928.0 384.0 L 1075.0 384.0 L 1021.0 177.0 Q 969.7 147.9 1006.0 60.0 L 970.0 60.0 L 928.0 102.0 L 928.0 384.0 z" fill="rgb(255,217,194)" stroke="black"/>
  <text fill="rgb(9,33,173)" font-size="25" x="963.0" y="197.5">front_left</text>
</svg>
