<?xml version="1.0" encoding="utf-8" ?>
<svg xmlns="http://www.w3.org/2000/svg" xmlns:ev="http://www.w3.org/2001/xml-events" xmlns:xlink="http://www.w3.org/1999/xlink" baseProfile="full" height="513.0px" version="1.1" width="1330.0px">
  <defs/>
  <path d="M 60 219 L 87 219 Q 101.39999999999999 174.29999999999998 75 162 L 60 60 L 60 219 z" fill="rgb(255,217,194)" stroke="black"/>
  <text fill="rgb(9,33,173)" font-size="25" x="45.5" y="168.0">rbsleeve</text>
  <path d="M 185.5 219.0 L 200.5 117.0 Q 226.9 104.7 212.5 60.0 L 185.5 60.0 L 185.5 219.0 z" fill="rgb(255,217,194)" stroke="black"/>
  <text fill="rgb(9,33,173)" font-size="25" x="171.0" y="117.0">rfsleeve</text>
  <path d="M 311.0 453.0 L 503.0 453.0 L 479.0 117.0 Q 453.5 103.5 470.0 60.0 L 443.0 60.0 L 407.0 69.0 L 371.0 60.0 L 344.0 60.0 Q 360.5 103.5 335.0 117.0 L 311.0 453.0 z" fill="rgb(255,217,194)" stroke="black"/>
  <text fill="rgb(9,33,173)" font-size="25" x="382.0" y="164.0">back</text>
  <path d="M 563.0 453.0 L 755.0 453.0 L 731.0 117.0 Q 705.5 103.5 722.0 60.0 L 695.0 60.0 L 659.0 87.0 L 623.0 60.0 L 596.0 60.0 Q 612.5 103.5 587.0 117.0 L 563.0 453.0 z" fill="rgb(255,217,194)" stroke="black"/>
  <text fill="rgb(9,33,173)" font-size="25" x="634.0" y="166.0">front</text>
  <path d="M 818.0 186.0 L 842.0 183.0 Q 916.7 179.4 887.0 81.0 L 854.0 90.0 L 815.0 60.0 L 818.0 186.0 z" fill="rgb(255,217,194)" stroke="black"/>
  <text fill="rgb(9,33,173)" font-size="25" x="818.2" y="123.0">Rhood</text>
  <path d="M 947.0 186.0 L 986.0 156.0 L 1019.0 165.0 Q 1048.7 66.60000000000001 974.0 63.0 L 950.0 60.0 L 947.0 186.0 z" fill="rgb(255,217,194)" stroke="black"/>
  <text fill="rgb(9,33,173)" font-size="25" x="950.2" y="129.0">Lhood</text>
  <path d="M 1079.0 219.0 L 1094.0 117.0 Q 1120.3999999999999 104.7 1106.0 60.0 L 1079.0 60.0 L 1079.0 219.0 z" fill="rgb(255,217,194)" stroke="black"/>
  <text fill="rgb(9,33,173)" font-size="25" x="1064.5" y="117.0">lbsleeve</text>
  <path d="M 1204.5 219.0 L 1231.5 219.0 Q 1245.8999999999999 174.29999999999998 1219.5 162.0 L 1204.5 60.0 L 1204.5 219.0 z" fill="rgb(255,217,194)" stroke="black"/>
  <text fill="rgb(9,33,173)" font-size="25" x="1190.0" y="168.0">lfsleeve</text>
</svg>
