<?xml version="1.0" encoding="utf-8" ?>
<svg xmlns="http://www.w3.org/2000/svg" xmlns:ev="http://www.w3.org/2001/xml-events" xmlns:xlink="http://www.w3.org/1999/xlink" baseProfile="full" height="246.0px" version="1.1" width="1553.0px">
  <defs/>
  <path d="M 60 153 L 132 153 Q 158.7 81.9 117 60 L 60 72 L 60 153 z" fill="rgb(255,217,194)" stroke="black"/>
  <text fill="rgb(9,33,173)" font-size="25" x="67.25" y="112.5">rbsleeve</text>
  <path d="M 207.25 141.0 L 264.25 153.0 Q 305.95 131.1 279.25 60.0 L 207.25 60.0 L 207.25 141.0 z" fill="rgb(255,217,194)" stroke="black"/>
  <text fill="rgb(9,33,173)" font-size="25" x="214.5" y="106.5">rfsleeve</text>
  <path d="M 354.5 186.0 Q 435.5 224.86904252166667 516.5 186.0 L 507.5 102.0 L 498.5 60.0 L 372.5 60.0 L 363.5 102.0 L 354.5 186.0 z" fill="rgb(255,217,194)" stroke="black"/>
  <text fill="rgb(9,33,173)" font-size="25" x="410.5" y="119.0">skirt_back</text>
  <path d="M 576.5 186.0 Q 657.5 140.8096250692653 738.5 186.0 L 729.5 102.0 L 720.5 60.0 L 594.5 60.0 L 585.5 102.0 L 576.5 186.0 z" fill="rgb(255,217,194)" stroke="black"/>
  <text fill="rgb(9,33,173)" font-size="25" x="632.5" y="119.0">skirt_front</text>
  <path d="M 823.5 168.0 L 949.5 168.0 L 970.5 150.0 Q 930.0 129.0 955.5 60.0 L 910.5 60.0 Q 886.5 155.2889170464648 862.5 60.0 L 817.5 60.0 Q 843.0 129.0 802.5 150.0 L 823.5 168.0 z" fill="rgb(255,217,194)" stroke="black"/>
  <text fill="rgb(9,33,173)" font-size="25" x="861.5" y="112.5">top_back</text>
  <path d="M 1051.5 165.0 L 1177.5 165.0 L 1198.5 150.0 Q 1158.0 129.0 1183.5 60.0 L 1138.5 60.0 L 1114.5 75.0 L 1090.5 60.0 L 1045.5 60.0 Q 1071.0 129.0 1030.5 150.0 L 1051.5 165.0 z" fill="rgb(255,217,194)" stroke="black"/>
  <text fill="rgb(9,33,173)" font-size="25" x="1089.5" y="108.0">top_front</text>
  <path d="M 1258.5 141.0 L 1315.5 153.0 Q 1357.2 131.1 1330.5 60.0 L 1258.5 60.0 L 1258.5 141.0 z" fill="rgb(255,217,194)" stroke="black"/>
  <text fill="rgb(9,33,173)" font-size="25" x="1265.75" y="106.5">lbsleeve</text>
  <path d="M 1405.75 153.0 L 1477.75 153.0 Q 1504.45 81.9 1462.75 60.0 L 1405.75 72.0 L 1405.75 153.0 z" fill="rgb(255,217,194)" stroke="black"/>
  <text fill="rgb(9,33,173)" font-size="25" x="1413.0" y="112.5">lfsleeve</text>
</svg>
