<?xml version="1.0" encoding="utf-8" ?>
<svg xmlns="http://www.w3.org/2000/svg" xmlns:ev="http://www.w3.org/2001/xml-events" xmlns:xlink="http://www.w3.org/1999/xlink" baseProfile="full" height="465px" version="1.1" width="1551.0px">
  <defs/>
  <path d="M 60 153 L 180 153 Q 210.89999999999998 84.30000000000001 171 60 L 60 90 L 60 153 z" fill="rgb(255,217,194)" stroke="black"/>
  <text fill="rgb(9,33,173)" font-size="25" x="92.75" y="117.0">rbsleeve</text>
  <path d="M 240 123 L 351 153 Q 390.9 128.7 360 60 L 240 60 L 240 123 z" fill="rgb(255,217,194)" stroke="black"/>
  <text fill="rgb(9,33,173)" font-size="25" x="272.75" y="102.0">rfsleeve</text>
  <path d="M 420 405 L 558 405 L 558 111 L 537 60 L 504 60 Q 534.9 128.7 495 153 L 420 405 z" fill="rgb(255,217,194)" stroke="black"/>
  <text fill="rgb(9,33,173)" font-size="25" x="487.0" y="202.0">front_right</text>
  <path d="M 657.0 405.0 L 933.0 405.0 L 858.0 153.0 Q 818.0999999999999 128.7 849.0 60.0 L 816.0 60.0 Q 795.0 104.44153691749244 774.0 60.0 L 741.0 60.0 Q 771.9000000000001 128.7 732.0 153.0 L 657.0 405.0 z" fill="rgb(255,217,194)" stroke="black"/>
  <text fill="rgb(9,33,173)" font-size="25" x="770.0" y="172.5">back</text>
  <path d="M 993.0 405.0 L 1131.0 405.0 L 1056.0 153.0 Q 1016.0999999999999 128.7 1047.0 60.0 L 1014.0 60.0 L 993.0 111.0 L 993.0 405.0 z" fill="rgb(255,217,194)" stroke="black"/>
  <text fill="rgb(9,33,173)" font-size="25" x="1014.0" y="202.0">front_left</text>
  <path d="M 1191.0 123.0 L 1302.0 153.0 Q 1341.9 128.7 1311.0 60.0 L 1191.0 60.0 L 1191.0 123.0 z" fill="rgb(255,217,194)" stroke="black"/>
  <text fill="rgb(9,33,173)" font-size="25" x="1223.75" y="102.0">lbsleeve</text>
  <path d="M 1371.0 153.0 L 1491.0 153.0 Q 1521.9 84.30000000000001 1482.0 60.0 L 1371.0 90.0 L 1371.0 153.0 z" fill="rgb(255,217,194)" stroke="black"/>
  <text fill="rgb(9,33,173)" font-size="25" x="1403.75" y="117.0">lfsleeve</text>
</svg>
