<?xml version="1.0" encoding="utf-8" ?>
<svg xmlns="http://www.w3.org/2000/svg" xmlns:ev="http://www.w3.org/2001/xml-events" xmlns:xlink="http://www.w3.org/1999/xlink" baseProfile="full" height="258px" version="1.1" width="1419.0px">
  <defs/>
  <path d="M 60 198 L 342 198 L 342 60 L 60 60 L 60 198 z" fill="rgb(255,217,194)" stroke="black"/>
  <text fill="rgb(9,33,173)" font-size="25" x="176.0" y="132.0">skirt_back</text>
  <path d="M 402 78 L 492 78 L 492 60 L 402 60 L 402 78 z" fill="rgb(255,217,194)" stroke="black"/>
  <text fill="rgb(9,33,173)" font-size="25" x="422.0" y="72.0">wb_back</text>
  <path d="M 552 78 L 642 78 L 642 60 L 552 60 L 552 78 z" fill="rgb(255,217,194)" stroke="black"/>
  <text fill="rgb(9,33,173)" font-size="25" x="572.0" y="72.0">wb_front</text>
  <path d="M 712.0 198.0 L 994.0 198.0 L 994.0 60.0 L 712.0 60.0 L 712.0 198.0 z" fill="rgb(255,217,194)" stroke="black"/>
  <text fill="rgb(9,33,173)" font-size="25" x="828.0" y="132.0">skirt_front</text>
  <path d="M 1054.0 180.0 L 1174.0 180.0 L 1174.0 111.0 Q 1150.8999999999999 99.3 1165.0 60.0 L 1126.0 60.0 Q 1114.0 86.58326307357197 1102.0 60.0 L 1063.0 60.0 Q 1077.1000000000001 99.29999999999998 1054.0 111.0 L 1054.0 180.0 z" fill="rgb(255,217,194)" stroke="black"/>
  <text fill="rgb(9,33,173)" font-size="25" x="1089.0" y="105.75">top_back</text>
  <path d="M 1234.0 180.0 L 1354.0 180.0 L 1354.0 108.0 Q 1332.1 97.19999999999999 1345.0 60.0 L 1306.0 60.0 L 1294.0 96.0 L 1282.0 60.0 L 1243.0 60.0 Q 1255.9 97.19999999999999 1234.0 108.0 L 1234.0 180.0 z" fill="rgb(255,217,194)" stroke="black"/>
  <text fill="rgb(9,33,173)" font-size="25" x="1269.0" y="104.33333333333333">top_front</text>
</svg>
