<?xml version="1.0" encoding="utf-8" ?>
<svg xmlns="http://www.w3.org/2000/svg" xmlns:ev="http://www.w3.org/2001/xml-events" xmlns:xlink="http://www.w3.org/1999/xlink" baseProfile="full" height="291px" version="1.1" width="1804.0px">
  <defs/>
  <path d="M 60 231 L 162 231 Q 190.8 161.1 150 138 L 60 60 L 60 231 z" fill="rgb(255,217,194)" stroke="black"/>
  <text fill="rgb(9,33,173)" font-size="25" x="83.0" y="168.0">rbsleeve</text>
  <path d="M 223.0 231.0 L 313.0 153.0 Q 353.8 129.9 325.0 60.0 L 223.0 60.0 L 223.0 231.0 z" fill="rgb(255,217,194)" stroke="black"/>
  <text fill="rgb(9,33,173)" font-size="25" x="246.0" y="129.0">rfsleeve</text>
  <path d="M 386.0 213.0 L 500.0 213.0 Q 494.9 82.20000000000002 485.0 60.0 L 416.0 60.0 Q 430.7 141.75 386.0 153.0 Q 392.0 156.0 386.0 213.0 z" fill="rgb(255,217,194)" stroke="black"/>
  <text fill="rgb(9,33,173)" font-size="25" x="409.6" y="142.8">Rback</text>
  <path d="M 560.0 213.0 L 674.0 213.0 Q 668.0 156.0 674.0 153.0 Q 633.95 140.25 644.0 60.0 L 575.0 60.0 Q 565.1 82.2 560.0 213.0 z" fill="rgb(255,217,194)" stroke="black"/>
  <text fill="rgb(9,33,173)" font-size="25" x="600.4" y="142.8">Rfront</text>
  <path d="M 734.0 168.0 L 803.0 168.0 L 872.0 168.0 L 866.0 153.0 Q 826.0999999999999 128.7 857.0 60.0 L 821.0 60.0 Q 803.0 101.39797025610466 785.0 60.0 L 749.0 60.0 Q 779.9000000000001 128.7 740.0 153.0 L 734.0 168.0 z" fill="rgb(255,217,194)" stroke="black"/>
  <text fill="rgb(9,33,173)" font-size="25" x="778.0" y="119.66666666666667">up_back</text>
  <path d="M 932.0 165.0 L 1001.0 165.0 L 1070.0 165.0 L 1064.0 153.0 Q 1024.1 128.7 1055.0 60.0 L 1019.0 60.0 L 1001.0 72.0 L 983.0 60.0 L 947.0 60.0 Q 977.9000000000001 128.7 938.0 153.0 L 932.0 165.0 z" fill="rgb(255,217,194)" stroke="black"/>
  <text fill="rgb(9,33,173)" font-size="25" x="976.0" y="114.3">up_front</text>
  <path d="M 1130.0 213.0 L 1244.0 213.0 Q 1238.0 156.0 1244.0 153.0 Q 1199.3 141.75 1214.0 60.0 L 1145.0 60.0 Q 1135.1 82.2 1130.0 213.0 z" fill="rgb(255,217,194)" stroke="black"/>
  <text fill="rgb(9,33,173)" font-size="25" x="1170.4" y="142.8">Lback</text>
  <path d="M 1304.0 213.0 L 1418.0 213.0 Q 1412.9 82.20000000000002 1403.0 60.0 L 1334.0 60.0 Q 1344.05 140.25 1304.0 153.0 Q 1310.0 156.0 1304.0 213.0 z" fill="rgb(255,217,194)" stroke="black"/>
  <text fill="rgb(9,33,173)" font-size="25" x="1327.6" y="142.8">Lfront</text>
  <path d="M 1478.0 231.0 L 1568.0 153.0 Q 1608.8 129.9 1580.0 60.0 L 1478.0 60.0 L 1478.0 231.0 z" fill="rgb(255,217,194)" stroke="black"/>
  <text fill="rgb(9,33,173)" font-size="25" x="1501.0" y="129.0">lbsleeve</text>
  <path d="M 1641.0 231.0 L 1743.0 231.0 Q 1771.8 161.1 1731.0 138.0 L 1641.0 60.0 L 1641.0 231.0 z" fill="rgb(255,217,194)" stroke="black"/>
  <text fill="rgb(9,33,173)" font-size="25" x="1664.0" y="168.0">lfsleeve</text>
</svg>
