<?xml version="1.0" encoding="utf-8" ?>
<svg xmlns="http://www.w3.org/2000/svg" xmlns:ev="http://www.w3.org/2001/xml-events" xmlns:xlink="http://www.w3.org/1999/xlink" baseProfile="full" height="276px" version="1.1" width="1095.5px">
  <defs/>
  <path d="M 60 216 L 270 216 L 270 126 L 234 60 L 192 60 Q 211.5 118.5 177 135 L 60 216 z" fill="rgb(255,217,194)" stroke="black"/>
  <text fill="rgb(9,33,173)" font-size="25" x="175.5" y="138.5">front_right</text>
  <path d="M 345.5 216.0 L 765.5 216.0 L 648.5 135.0 Q 614.0 118.5 633.5 60.0 L 591.5 60.0 Q 555.5 166.6318145352397 519.5 60.0 L 477.5 60.0 Q 497.0 118.5 462.5 135.0 L 345.5 216.0 z" fill="rgb(255,217,194)" stroke="black"/>
  <text fill="rgb(9,33,173)" font-size="25" x="530.5" y="120.75">back</text>
  <path d="M 825.5 216.0 L 1035.5 216.0 L 918.5 135.0 Q 884.0 118.5 903.5 60.0 L 861.5 60.0 L 825.5 126.0 L 825.5 216.0 z" fill="rgb(255,217,194)" stroke="black"/>
  <text fill="rgb(9,33,173)" font-size="25" x="870.0" y="138.5">front_left</text>
</svg>
