<?xml version="1.0" encoding="utf-8" ?>
<svg xmlns="http://www.w3.org/2000/svg" xmlns:ev="http://www.w3.org/2001/xml-events" xmlns:xlink="http://www.w3.org/1999/xlink" baseProfile="full" height="282px" version="1.1" width="1354.0px">
  <defs/>
  <path d="M 60 222 L 300 222 L 300 60 L 60 60 L 60 222 z" fill="rgb(255,217,194)" stroke="black"/>
  <text fill="rgb(9,33,173)" font-size="25" x="155.0" y="144.0">skirt_back</text>
  <path d="M 360 69 L 450 69 L 450 60 L 360 60 L 360 69 z" fill="rgb(255,217,194)" stroke="black"/>
  <text fill="rgb(9,33,173)" font-size="25" x="380.0" y="67.5">wb_back</text>
  <path d="M 510 69 L 600 69 L 600 60 L 510 60 L 510 69 z" fill="rgb(255,217,194)" stroke="black"/>
  <text fill="rgb(9,33,173)" font-size="25" x="530.0" y="67.5">wb_front</text>
  <path d="M 670.0 222.0 L 910.0 222.0 L 910.0 60.0 L 670.0 60.0 L 670.0 222.0 z" fill="rgb(255,217,194)" stroke="black"/>
  <text fill="rgb(9,33,173)" font-size="25" x="765.0" y="144.0">skirt_front</text>
  <path d="M 970.0 156.0 L 1102.0 156.0 L 1102.0 141.0 Q 1066.0 121.5 1090.0 60.0 L 1072.0 60.0 Q 1036.0 119.39919551636538 1000.0 60.0 L 982.0 60.0 Q 1006.0 121.49999999999999 970.0 141.0 L 970.0 156.0 z" fill="rgb(255,217,194)" stroke="black"/>
  <text fill="rgb(9,33,173)" font-size="25" x="1011.0" y="107.25">top_back</text>
  <path d="M 1162.0 156.0 L 1294.0 156.0 L 1294.0 141.0 Q 1258.0 121.5 1282.0 60.0 L 1264.0 60.0 L 1228.0 114.0 L 1192.0 60.0 L 1174.0 60.0 Q 1198.0 121.49999999999999 1162.0 141.0 L 1162.0 156.0 z" fill="rgb(255,217,194)" stroke="black"/>
  <text fill="rgb(9,33,173)" font-size="25" x="1203.0" y="108.33333333333333">top_front</text>
</svg>
