<?xml version="1.0" encoding="utf-8" ?>
<svg xmlns="http://www.w3.org/2000/svg" xmlns:ev="http://www.w3.org/2001/xml-events" xmlns:xlink="http://www.w3.org/1999/xlink" baseProfile="full" height="285px" version="1.1" width="1932px">
  <defs/>
  <path d="M 60 147 L 180 147 Q 204.3 80.1 165 60 L 60 72 L 60 147 z" fill="rgb(255,217,194)" stroke="black"/>
  <text fill="rgb(9,33,173)" font-size="25" x="91.25" y="109.5">rbsleeve</text>
  <path d="M 240 135 L 345 147 Q 384.3 126.9 360 60 L 240 60 L 240 135 z" fill="rgb(255,217,194)" stroke="black"/>
  <text fill="rgb(9,33,173)" font-size="25" x="271.25" y="103.5">rfsleeve</text>
  <path d="M 420 225 Q 558.0 132.7458520995324 696 225 L 645 102 L 639 60 L 477 60 L 471 102 L 420 225 z" fill="rgb(255,217,194)" stroke="black"/>
  <text fill="rgb(9,33,173)" font-size="25" x="533.0" y="132.0">skirt_back</text>
  <path d="M 756 225 Q 894.0 207.71983710330736 1032 225 L 981 102 L 975 60 L 813 60 L 807 102 L 756 225 z" fill="rgb(255,217,194)" stroke="black"/>
  <text fill="rgb(9,33,173)" font-size="25" x="869.0" y="132.0">skirt_front</text>
  <path d="M 1101 168 L 1263 168 L 1272 144 Q 1233.9 124.8 1257 60 L 1206 60 Q 1182.0 69.43962001490016 1158 60 L 1107 60 Q 1130.1 124.8 1092 144 L 1101 168 z" fill="rgb(255,217,194)" stroke="black"/>
  <text fill="rgb(9,33,173)" font-size="25" x="1157.0" y="111.0">top_back</text>
  <path d="M 1341 165 L 1503 165 L 1512 144 Q 1473.9 124.8 1497 60 L 1446 60 L 1422 78 L 1398 60 L 1347 60 Q 1370.1 124.8 1332 144 L 1341 165 z" fill="rgb(255,217,194)" stroke="black"/>
  <text fill="rgb(9,33,173)" font-size="25" x="1397.0" y="107.0">top_front</text>
  <path d="M 1572 135 L 1677 147 Q 1716.3 126.9 1692 60 L 1572 60 L 1572 135 z" fill="rgb(255,217,194)" stroke="black"/>
  <text fill="rgb(9,33,173)" font-size="25" x="1603.25" y="103.5">lbsleeve</text>
  <path d="M 1752 147 L 1872 147 Q 1896.3 80.1 1857 60 L 1752 72 L 1752 147 z" fill="rgb(255,217,194)" stroke="black"/>
  <text fill="rgb(9,33,173)" font-size="25" x="1783.25" y="109.5">lfsleeve</text>
</svg>
