<?xml version="1.0" encoding="utf-8" ?>
<svg xmlns="http://www.w3.org/2000/svg" xmlns:ev="http://www.w3.org/2001/xml-events" xmlns:xlink="http://www.w3.org/1999/xlink" baseProfile="full" height="474px" version="1.1" width="877.0px">
  <defs/>
  <path d="M 69 414 L 135 414 L 135 96 L 105 60 L 72 60 Q 94.80000000000001 119.39999999999999 60 138 L 69 414 z" fill="rgb(255,217,194)" stroke="black"/>
  <text fill="rgb(9,33,173)" font-size="25" x="71.0" y="200.0">front_right</text>
  <path d="M 241.0 180.0 L 280.0 180.0 Q 343.90000000000003 168.29999999999998 307.0 87.0 L 277.0 96.0 L 244.0 60.0 L 241.0 180.0 z" fill="rgb(255,217,194)" stroke="black"/>
  <text fill="rgb(9,33,173)" font-size="25" x="244.8" y="123.6">Rhood</text>
  <path d="M 376.0 414.0 L 508.0 414.0 L 517.0 138.0 Q 482.2 119.39999999999999 505.0 60.0 L 472.0 60.0 L 442.0 69.0 L 412.0 60.0 L 379.0 60.0 Q 401.8 119.39999999999999 367.0 138.0 L 376.0 414.0 z" fill="rgb(255,217,194)" stroke="black"/>
  <text fill="rgb(9,33,173)" font-size="25" x="417.0" y="160.0">back</text>
  <path d="M 580.0 180.0 L 613.0 144.0 L 643.0 153.0 Q 679.9 71.7 616.0 60.0 L 577.0 60.0 L 580.0 180.0 z" fill="rgb(255,217,194)" stroke="black"/>
  <text fill="rgb(9,33,173)" font-size="25" x="580.8" y="122.4">Lhood</text>
  <path d="M 703.0 414.0 L 769.0 414.0 L 778.0 138.0 Q 743.1999999999999 119.39999999999999 766.0 60.0 L 733.0 60.0 L 703.0 96.0 L 703.0 414.0 z" fill="rgb(255,217,194)" stroke="black"/>
  <text fill="rgb(9,33,173)" font-size="25" x="717.0" y="200.0">front_left</text>
</svg>
