<?xml version="1.0" encoding="utf-8" ?>
<svg xmlns="http://www.w3.org/2000/svg" xmlns:ev="http://www.w3.org/2001/xml-events" xmlns:xlink="http://www.w3.org/1999/xlink" baseProfile="full" height="345.0px" version="1.1" width="1589.0px">
  <defs/>
  <path d="M 60 162 L 132 162 Q 162.3 84.60000000000001 117 60 L 60 63 L 60 162 z" fill="rgb(255,217,194)" stroke="black"/>
  <text fill="rgb(9,33,173)" font-size="25" x="67.25" y="114.75">rbsleeve</text>
  <path d="M 207.25 159.0 L 264.25 162.0 Q 309.55 137.4 279.25 60.0 L 207.25 60.0 L 207.25 159.0 z" fill="rgb(255,217,194)" stroke="black"/>
  <text fill="rgb(9,33,173)" font-size="25" x="214.5" y="113.25">rfsleeve</text>
  <path d="M 354.5 285.0 L 450.5 285.0 L 450.5 108.0 L 402.5 60.0 L 372.5 60.0 Q 402.8 137.39999999999998 357.5 162.0 L 354.5 285.0 z" fill="rgb(255,217,194)" stroke="black"/>
  <text fill="rgb(9,33,173)" font-size="25" x="373.0" y="163.0">front_right</text>
  <path d="M 558.0 219.0 L 603.0 210.0 Q 680.4 198.29999999999998 639.0 99.0 L 594.0 108.0 L 543.0 60.0 L 558.0 219.0 z" fill="rgb(255,217,194)" stroke="black"/>
  <text fill="rgb(9,33,173)" font-size="25" x="562.4" y="142.2">Rhood</text>
  <path d="M 699.0 285.0 L 891.0 285.0 L 888.0 162.0 Q 842.7 137.4 873.0 60.0 L 843.0 60.0 L 795.0 69.0 L 747.0 60.0 L 717.0 60.0 Q 747.3 137.39999999999998 702.0 162.0 L 699.0 285.0 z" fill="rgb(255,217,194)" stroke="black"/>
  <text fill="rgb(9,33,173)" font-size="25" x="770.0" y="136.66666666666666">back</text>
  <path d="M 951.0 219.0 L 1002.0 171.0 L 1047.0 180.0 Q 1088.3999999999999 80.70000000000002 1011.0 69.0 L 966.0 60.0 L 951.0 219.0 z" fill="rgb(255,217,194)" stroke="black"/>
  <text fill="rgb(9,33,173)" font-size="25" x="970.4" y="142.8">Lhood</text>
  <path d="M 1107.0 285.0 L 1203.0 285.0 L 1200.0 162.0 Q 1154.7 137.4 1185.0 60.0 L 1155.0 60.0 L 1107.0 108.0 L 1107.0 285.0 z" fill="rgb(255,217,194)" stroke="black"/>
  <text fill="rgb(9,33,173)" font-size="25" x="1134.5" y="163.0">front_left</text>
  <path d="M 1294.5 159.0 L 1351.5 162.0 Q 1396.8 137.4 1366.5 60.0 L 1294.5 60.0 L 1294.5 159.0 z" fill="rgb(255,217,194)" stroke="black"/>
  <text fill="rgb(9,33,173)" font-size="25" x="1301.75" y="113.25">lbsleeve</text>
  <path d="M 1441.75 162.0 L 1513.75 162.0 Q 1544.05 84.60000000000001 1498.75 60.0 L 1441.75 63.0 L 1441.75 162.0 z" fill="rgb(255,217,194)" stroke="black"/>
  <text fill="rgb(9,33,173)" font-size="25" x="1449.0" y="114.75">lfsleeve</text>
</svg>
