<?xml version="1.0" encoding="utf-8" ?>
<svg xmlns="http://www.w3.org/2000/svg" xmlns:ev="http://www.w3.org/2001/xml-events" xmlns:xlink="http://www.w3.org/1999/xlink" baseProfile="full" height="360.0px" version="1.1" width="1390.0px">
  <defs/>
  <path d="M 60 156 L 141 156 Q 171.0 84.00000000000001 129 60 L 60 81 L 60 156 z" fill="rgb(255,217,194)" stroke="black"/>
  <text fill="rgb(9,33,173)" font-size="25" x="72.5" y="116.25">rbsleeve</text>
  <path d="M 212.5 135.0 L 281.5 156.0 Q 323.5 132.0 293.5 60.0 L 212.5 60.0 L 212.5 135.0 z" fill="rgb(255,217,194)" stroke="black"/>
  <text fill="rgb(9,33,173)" font-size="25" x="225.0" y="105.75">rfsleeve</text>
  <path d="M 365.0 300.0 L 665.0 300.0 L 587.0 156.0 Q 545.0 132.0 575.0 60.0 L 545.0 60.0 Q 515.0 264.396312258904 485.0 60.0 L 455.0 60.0 Q 485.0 132.0 443.0 156.0 L 365.0 300.0 z" fill="rgb(255,217,194)" stroke="black"/>
  <text fill="rgb(9,33,173)" font-size="25" x="490.0" y="147.0">back</text>
  <path d="M 725.0 297.0 L 1025.0 297.0 L 947.0 153.0 Q 906.1999999999999 129.9 935.0 60.0 L 905.0 60.0 L 875.0 99.0 L 845.0 60.0 L 815.0 60.0 Q 843.8000000000001 129.9 803.0 153.0 L 725.0 297.0 z" fill="rgb(255,217,194)" stroke="black"/>
  <text fill="rgb(9,33,173)" font-size="25" x="850.0" y="140.66666666666666">front</text>
  <path d="M 1085.0 135.0 L 1154.0 156.0 Q 1196.0 132.0 1166.0 60.0 L 1085.0 60.0 L 1085.0 135.0 z" fill="rgb(255,217,194)" stroke="black"/>
  <text fill="rgb(9,33,173)" font-size="25" x="1097.5" y="105.75">lbsleeve</text>
  <path d="M 1237.5 156.0 L 1318.5 156.0 Q 1348.5 84.00000000000001 1306.5 60.0 L 1237.5 81.0 L 1237.5 156.0 z" fill="rgb(255,217,194)" stroke="black"/>
  <text fill="rgb(9,33,173)" font-size="25" x="1250.0" y="116.25">lfsleeve</text>
</svg>
