<?xml version="1.0" encoding="utf-8" ?>
<svg xmlns="http://www.w3.org/2000/svg" xmlns:ev="http://www.w3.org/2001/xml-events" xmlns:xlink="http://www.w3.org/1999/xlink" baseProfile="full" height="231px" version="1.1" width="1747.0px">
  <defs/>
  <path d="M 60 171 L 111 171 Q 129.3 114.6 96 99 L 60 60 L 60 171 z" fill="rgb(255,217,194)" stroke="black"/>
  <text fill="rgb(9,33,173)" font-size="25" x="56.75" y="128.25">rbsleeve</text>
  <path d="M 196.75 171.0 L 232.75 132.0 Q 266.05 116.4 247.75 60.0 L 196.75 60.0 L 196.75 171.0 z" fill="rgb(255,217,194)" stroke="black"/>
  <text fill="rgb(9,33,173)" font-size="25" x="193.5" y="108.75">rfsleeve</text>
  <path d="M 333.5 171.0 Q 471.5 196.83418700964128 609.5 171.0 L 543.5 102.0 L 519.5 60.0 L 423.5 60.0 L 399.5 102.0 L 333.5 171.0 z" fill="rgb(255,217,194)" stroke="black"/>
  <text fill="rgb(9,33,173)" font-size="25" x="446.5" y="114.0">skirt_back</text>
  <path d="M 669.5 171.0 Q 807.5 159.09130978586754 945.5 171.0 L 879.5 102.0 L 855.5 60.0 L 759.5 60.0 L 735.5 102.0 L 669.5 171.0 z" fill="rgb(255,217,194)" stroke="black"/>
  <text fill="rgb(9,33,173)" font-size="25" x="782.5" y="114.0">skirt_front</text>
  <path d="M 1044.5 168.0 L 1140.5 168.0 L 1179.5 132.0 Q 1147.1000000000001 115.2 1167.5 60.0 L 1137.5 60.0 Q 1092.5 160.6478145483773 1047.5 60.0 L 1017.5 60.0 Q 1037.9 115.2 1005.5 132.0 L 1044.5 168.0 z" fill="rgb(255,217,194)" stroke="black"/>
  <text fill="rgb(9,33,173)" font-size="25" x="1067.5" y="108.0">top_back</text>
  <path d="M 1278.5 165.0 L 1374.5 165.0 L 1413.5 129.0 Q 1382.3000000000002 113.1 1401.5 60.0 L 1371.5 60.0 L 1326.5 129.0 L 1281.5 60.0 L 1251.5 60.0 Q 1270.6999999999998 113.1 1239.5 129.0 L 1278.5 165.0 z" fill="rgb(255,217,194)" stroke="black"/>
  <text fill="rgb(9,33,173)" font-size="25" x="1301.5" y="109.33333333333333">top_front</text>
  <path d="M 1473.5 171.0 L 1509.5 132.0 Q 1542.8 116.4 1524.5 60.0 L 1473.5 60.0 L 1473.5 171.0 z" fill="rgb(255,217,194)" stroke="black"/>
  <text fill="rgb(9,33,173)" font-size="25" x="1470.25" y="108.75">lbsleeve</text>
  <path d="M 1610.25 171.0 L 1661.25 171.0 Q 1679.55 114.6 1646.25 99.0 L 1610.25 60.0 L 1610.25 171.0 z" fill="rgb(255,217,194)" stroke="black"/>
  <text fill="rgb(9,33,173)" font-size="25" x="1607.0" y="128.25">lfsleeve</text>
</svg>
