<?xml version="1.0" encoding="utf-8" ?>
<svg xmlns="http://www.w3.org/2000/svg" xmlns:ev="http://www.w3.org/2001/xml-events" xmlns:xlink="http://www.w3.org/1999/xlink" baseProfile="full" height="414px" version="1.1" width="598.0px">
  <defs/>
  <path d="M 72 354 L 126 354 L 126 159 L 99 60 L 72 60 Q 110.4 146.7 60 177 L 72 354 z" fill="rgb(255,217,194)" stroke="black"/>
  <text fill="rgb(9,33,173)" font-size="25" x="67.5" y="197.0">front_right</text>
  <path d="M 249.5 354.0 L 357.5 354.0 L 369.5 177.0 Q 319.09999999999997 146.70000000000002 357.5 60.0 L 330.5 60.0 Q 303.5 141.00405442308022 276.5 60.0 L 249.5 60.0 Q 287.9 146.7 237.5 177.0 L 249.5 354.0 z" fill="rgb(255,217,194)" stroke="black"/>
  <text fill="rgb(9,33,173)" font-size="25" x="278.5" y="165.75">back</text>
  <path d="M 429.5 354.0 L 483.5 354.0 L 495.5 177.0 Q 445.09999999999997 146.70000000000002 483.5 60.0 L 456.5 60.0 L 429.5 159.0 L 429.5 354.0 z" fill="rgb(255,217,194)" stroke="black"/>
  <text fill="rgb(9,33,173)" font-size="25" x="438.0" y="197.0">front_left</text>
</svg>
