<?xml version="1.0" encoding="utf-8" ?>
<svg xmlns="http://www.w3.org/2000/svg" xmlns:ev="http://www.w3.org/2001/xml-events" xmlns:xlink="http://www.w3.org/1999/xlink" baseProfile="full" height="234px" version="1.1" width="1804.0px">
  <defs/>
  <path d="M 60 174 L 144 174 Q 162.0 123.00000000000001 132 108 L 60 60 L 60 174 z" fill="rgb(255,217,194)" stroke="black"/>
  <text fill="rgb(9,33,173)" font-size="25" x="74.0" y="132.0">rbsleeve</text>
  <path d="M 214.0 174.0 L 286.0 126.0 Q 316.0 111.0 298.0 60.0 L 214.0 60.0 L 214.0 174.0 z" fill="rgb(255,217,194)" stroke="black"/>
  <text fill="rgb(9,33,173)" font-size="25" x="228.0" y="108.0">rfsleeve</text>
  <path d="M 368.0 174.0 Q 509.0 252.5213997939212 650.0 174.0 L 590.0 102.0 L 572.0 60.0 L 446.0 60.0 L 428.0 102.0 L 368.0 174.0 z" fill="rgb(255,217,194)" stroke="black"/>
  <text fill="rgb(9,33,173)" font-size="25" x="484.0" y="115.0">skirt_back</text>
  <path d="M 710.0 174.0 Q 851.0 136.8008984769763 992.0 174.0 L 932.0 102.0 L 914.0 60.0 L 788.0 60.0 L 770.0 102.0 L 710.0 174.0 z" fill="rgb(255,217,194)" stroke="black"/>
  <text fill="rgb(9,33,173)" font-size="25" x="826.0" y="115.0">skirt_front</text>
  <path d="M 1070.0 168.0 L 1196.0 168.0 L 1214.0 126.0 Q 1184.0 111.0 1202.0 60.0 L 1160.0 60.0 Q 1133.0 125.11238311608214 1106.0 60.0 L 1064.0 60.0 Q 1082.0 110.99999999999999 1052.0 126.0 L 1070.0 168.0 z" fill="rgb(255,217,194)" stroke="black"/>
  <text fill="rgb(9,33,173)" font-size="25" x="1108.0" y="106.5">top_back</text>
  <path d="M 1292.0 165.0 L 1418.0 165.0 L 1436.0 126.0 Q 1406.0 111.0 1424.0 60.0 L 1382.0 60.0 L 1355.0 120.0 L 1328.0 60.0 L 1286.0 60.0 Q 1304.0 110.99999999999999 1274.0 126.0 L 1292.0 165.0 z" fill="rgb(255,217,194)" stroke="black"/>
  <text fill="rgb(9,33,173)" font-size="25" x="1330.0" y="107.66666666666667">top_front</text>
  <path d="M 1496.0 174.0 L 1568.0 126.0 Q 1598.0 111.0 1580.0 60.0 L 1496.0 60.0 L 1496.0 174.0 z" fill="rgb(255,217,194)" stroke="black"/>
  <text fill="rgb(9,33,173)" font-size="25" x="1510.0" y="108.0">lbsleeve</text>
  <path d="M 1650.0 174.0 L 1734.0 174.0 Q 1752.0 123.00000000000001 1722.0 108.0 L 1650.0 60.0 L 1650.0 174.0 z" fill="rgb(255,217,194)" stroke="black"/>
  <text fill="rgb(9,33,173)" font-size="25" x="1664.0" y="132.0">lfsleeve</text>
</svg>
