<?xml version="1.0" encoding="utf-8" ?>
<svg xmlns="http://www.w3.org/2000/svg" xmlns:ev="http://www.w3.org/2001/xml-events" xmlns:xlink="http://www.w3.org/1999/xlink" baseProfile="full" height="369px" version="1.1" width="1522.0px">
  <defs/>
  <path d="M 60 309 L 126 309 L 192 60 L 90 60 Q 101.1 135.0 60 144 Q 76.5 152.25 60 309 z" fill="rgb(255,217,194)" stroke="black"/>
  <text fill="rgb(9,33,173)" font-size="25" x="80.6" y="179.4">Rback</text>
  <path d="M 318 309 L 384 309 Q 367.5 152.25 384 144 Q 347.1 133.5 354 60 L 252 60 L 318 309 z" fill="rgb(255,217,194)" stroke="black"/>
  <text fill="rgb(9,33,173)" font-size="25" x="313.4" y="179.4">Rfront</text>
  <path d="M 444 75 L 483 75 L 522 75 L 522 60 L 444 60 L 444 75 z" fill="rgb(255,217,194)" stroke="black"/>
  <text fill="rgb(9,33,173)" font-size="25" x="458.0" y="72.0">wb_back</text>
  <path d="M 588.0 75.0 L 627.0 75.0 L 666.0 75.0 L 666.0 60.0 L 588.0 60.0 L 588.0 75.0 z" fill="rgb(255,217,194)" stroke="black"/>
  <text fill="rgb(9,33,173)" font-size="25" x="602.0" y="72.0">wb_front</text>
  <path d="M 742.0 159.0 L 880.0 159.0 L 880.0 129.0 Q 848.8 113.1 868.0 60.0 L 835.0 60.0 Q 811.0 95.17064483623328 787.0 60.0 L 754.0 60.0 Q 773.2 113.1 742.0 129.0 L 742.0 159.0 z" fill="rgb(255,217,194)" stroke="black"/>
  <text fill="rgb(9,33,173)" font-size="25" x="786.0" y="105.0">top_back</text>
  <path d="M 940.0 159.0 L 1078.0 159.0 L 1078.0 129.0 Q 1046.8000000000002 113.1 1066.0 60.0 L 1033.0 60.0 L 1009.0 99.0 L 985.0 60.0 L 952.0 60.0 Q 971.2 113.1 940.0 129.0 L 940.0 159.0 z" fill="rgb(255,217,194)" stroke="black"/>
  <text fill="rgb(9,33,173)" font-size="25" x="984.0" y="104.66666666666667">top_front</text>
  <path d="M 1204.0 309.0 L 1270.0 309.0 Q 1253.5 152.25 1270.0 144.0 Q 1228.9 135.0 1240.0 60.0 L 1138.0 60.0 L 1204.0 309.0 z" fill="rgb(255,217,194)" stroke="black"/>
  <text fill="rgb(9,33,173)" font-size="25" x="1199.4" y="179.4">Lback</text>
  <path d="M 1330.0 309.0 L 1396.0 309.0 L 1462.0 60.0 L 1360.0 60.0 Q 1366.9 133.5 1330.0 144.0 Q 1346.5 152.25 1330.0 309.0 z" fill="rgb(255,217,194)" stroke="black"/>
  <text fill="rgb(9,33,173)" font-size="25" x="1350.6" y="179.4">Lfront</text>
</svg>
