<?xml version="1.0" encoding="utf-8" ?>
<svg xmlns="http://www.w3.org/2000/svg" xmlns:ev="http://www.w3.org/2001/xml-events" xmlns:xlink="http://www.w3.org/1999/xlink" baseProfile="full" height="237px" version="1.1" width="1752px">
  <defs/>
  <path d="M 60 177 L 180 177 Q 208.8 107.10000000000001 168 84 L 60 60 L 60 177 z" fill="rgb(255,217,194)" stroke="black"/>
  <text fill="rgb(9,33,173)" font-size="25" x="92.0" y="127.5">rbsleeve</text>
  <path d="M 240 177 L 348 153 Q 388.8 129.9 360 60 L 240 60 L 240 177 z" fill="rgb(255,217,194)" stroke="black"/>
  <text fill="rgb(9,33,173)" font-size="25" x="272.0" y="115.5">rfsleeve</text>
  <path d="M 420 171 Q 534.0 95.13917785976896 648 171 L 612 102 L 603 60 L 465 60 L 456 102 L 420 171 z" fill="rgb(255,217,194)" stroke="black"/>
  <text fill="rgb(9,33,173)" font-size="25" x="509.0" y="114.0">skirt_back</text>
  <path d="M 708 171 Q 822.0 133.77220630445632 936 171 L 900 102 L 891 60 L 753 60 L 744 102 L 708 171 z" fill="rgb(255,217,194)" stroke="black"/>
  <text fill="rgb(9,33,173)" font-size="25" x="797.0" y="114.0">skirt_front</text>
  <path d="M 996 168 L 1134 168 L 1134 150 Q 1095.3 126.6 1125 60 L 1089 60 Q 1065.0 127.80165396449003 1041 60 L 1005 60 Q 1034.7 126.6 996 150 L 996 168 z" fill="rgb(255,217,194)" stroke="black"/>
  <text fill="rgb(9,33,173)" font-size="25" x="1040.0" y="112.5">top_back</text>
  <path d="M 1194 165 L 1332 165 L 1332 150 Q 1293.3 126.6 1323 60 L 1287 60 L 1263 120 L 1239 60 L 1203 60 Q 1232.7 126.6 1194 150 L 1194 165 z" fill="rgb(255,217,194)" stroke="black"/>
  <text fill="rgb(9,33,173)" font-size="25" x="1238.0" y="113.0">top_front</text>
  <path d="M 1392 177 L 1500 153 Q 1540.8 129.9 1512 60 L 1392 60 L 1392 177 z" fill="rgb(255,217,194)" stroke="black"/>
  <text fill="rgb(9,33,173)" font-size="25" x="1424.0" y="115.5">lbsleeve</text>
  <path d="M 1572 177 L 1692 177 Q 1720.8 107.10000000000001 1680 84 L 1572 60 L 1572 177 z" fill="rgb(255,217,194)" stroke="black"/>
  <text fill="rgb(9,33,173)" font-size="25" x="1604.0" y="127.5">lfsleeve</text>
</svg>
