<?xml version="1.0" encoding="utf-8" ?>
<svg xmlns="http://www.w3.org/2000/svg" xmlns:ev="http://www.w3.org/2001/xml-events" xmlns:xlink="http://www.w3.org/1999/xlink" baseProfile="full" height="270px" version="1.1" width="1558.0px">
  <defs/>
  <path d="M 60 210 L 168 210 L 204 60 L 90 60 Q 105.9 144.0 60 156 Q 65.4 158.7 60 210 z" fill="rgb(255,217,194)" stroke="black"/>
  <text fill="rgb(9,33,173)" font-size="25" x="91.4" y="142.2">Rback</text>
  <path d="M 300 210 L 408 210 Q 402.6 158.7 408 156 Q 366.9 142.5 378 60 L 264 60 L 300 210 z" fill="rgb(255,217,194)" stroke="black"/>
  <text fill="rgb(9,33,173)" font-size="25" x="326.6" y="142.2">Rfront</text>
  <path d="M 468 69 L 507 69 L 546 69 L 546 60 L 468 60 L 468 69 z" fill="rgb(255,217,194)" stroke="black"/>
  <text fill="rgb(9,33,173)" font-size="25" x="482.0" y="68.4">wb_back</text>
  <path d="M 612.0 69.0 L 651.0 69.0 L 690.0 69.0 L 690.0 60.0 L 612.0 60.0 L 612.0 69.0 z" fill="rgb(255,217,194)" stroke="black"/>
  <text fill="rgb(9,33,173)" font-size="25" x="626.0" y="68.4">wb_front</text>
  <path d="M 766.0 147.0 L 898.0 147.0 L 898.0 123.0 Q 870.0999999999999 107.69999999999999 889.0 60.0 L 856.0 60.0 Q 832.0 85.77406017016145 808.0 60.0 L 775.0 60.0 Q 793.9000000000001 107.69999999999999 766.0 123.0 L 766.0 147.0 z" fill="rgb(255,217,194)" stroke="black"/>
  <text fill="rgb(9,33,173)" font-size="25" x="807.0" y="100.5">top_back</text>
  <path d="M 958.0 147.0 L 1090.0 147.0 L 1090.0 123.0 Q 1062.1 107.69999999999999 1081.0 60.0 L 1048.0 60.0 L 1024.0 129.0 L 1000.0 60.0 L 967.0 60.0 Q 985.9000000000001 107.69999999999999 958.0 123.0 L 958.0 147.0 z" fill="rgb(255,217,194)" stroke="black"/>
  <text fill="rgb(9,33,173)" font-size="25" x="999.0" y="104.0">top_front</text>
  <path d="M 1186.0 210.0 L 1294.0 210.0 Q 1288.6 158.7 1294.0 156.0 Q 1248.1 144.0 1264.0 60.0 L 1150.0 60.0 L 1186.0 210.0 z" fill="rgb(255,217,194)" stroke="black"/>
  <text fill="rgb(9,33,173)" font-size="25" x="1212.6" y="142.2">Lback</text>
  <path d="M 1354.0 210.0 L 1462.0 210.0 L 1498.0 60.0 L 1384.0 60.0 Q 1395.1 142.5 1354.0 156.0 Q 1359.4 158.7 1354.0 210.0 z" fill="rgb(255,217,194)" stroke="black"/>
  <text fill="rgb(9,33,173)" font-size="25" x="1385.4" y="142.2">Lfront</text>
</svg>
