<?xml version="1.0" encoding="utf-8" ?>
<svg xmlns="http://www.w3.org/2000/svg" xmlns:ev="http://www.w3.org/2001/xml-events" xmlns:xlink="http://www.w3.org/1999/xlink" baseProfile="full" height="354px" version="1.1" width="1188px">
  <defs/>
  <path d="M 60 294 L 168 294 Q 182.25 95.25 171 60 L 90 60 Q 104.7 141.75 60 153 Q 74.1 160.05 60 294 z" fill="rgb(255,217,194)" stroke="black"/>
  <text fill="rgb(9,33,173)" font-size="25" x="84.8" y="175.2">Rback</text>
  <path d="M 234 294 L 342 294 Q 327.9 160.05 342 153 Q 301.95 140.25 312 60 L 231 60 Q 219.75 95.25 234 294 z" fill="rgb(255,217,194)" stroke="black"/>
  <text fill="rgb(9,33,173)" font-size="25" x="267.2" y="175.2">Rfront</text>
  <path d="M 402 168 L 483 168 L 564 168 L 543 120 Q 516.3 105.6 534 60 L 513 60 Q 483.0 88.60134936954765 453 60 L 432 60 Q 449.7 105.6 423 120 L 402 168 z" fill="rgb(255,217,194)" stroke="black"/>
  <text fill="rgb(9,33,173)" font-size="25" x="458.0" y="112.33333333333333">up_back</text>
  <path d="M 624 165 L 705 165 L 786 165 L 765 120 Q 738.3 105.6 756 60 L 735 60 L 705 87 L 675 60 L 654 60 Q 671.7 105.6 645 120 L 624 165 z" fill="rgb(255,217,194)" stroke="black"/>
  <text fill="rgb(9,33,173)" font-size="25" x="680.0" y="109.2">up_front</text>
  <path d="M 849 294 L 957 294 Q 942.9 160.05 957 153 Q 912.3 141.75 927 60 L 846 60 Q 834.75 95.25 849 294 z" fill="rgb(255,217,194)" stroke="black"/>
  <text fill="rgb(9,33,173)" font-size="25" x="882.2" y="175.2">Lback</text>
  <path d="M 1017 294 L 1125 294 Q 1139.25 95.25 1128 60 L 1047 60 Q 1057.05 140.25 1017 153 Q 1031.1 160.05 1017 294 z" fill="rgb(255,217,194)" stroke="black"/>
  <text fill="rgb(9,33,173)" font-size="25" x="1041.8" y="175.2">Lfront</text>
</svg>
