<?xml version="1.0" encoding="utf-8" ?>
<svg xmlns="http://www.w3.org/2000/svg" xmlns:ev="http://www.w3.org/2001/xml-events" xmlns:xlink="http://www.w3.org/1999/xlink" baseProfile="full" height="456.0px" version="1.1" width="1377.5px">
  <defs/>
  <path d="M 60 189 L 114 189 Q 155.7 101.4 105 69 L 60 60 L 60 189 z" fill="rgb(255,217,194)" stroke="black"/>
  <text fill="rgb(9,33,173)" font-size="25" x="59.75" y="129.75">rbsleeve</text>
  <path d="M 199.75 189.0 L 244.75 180.0 Q 295.45 147.6 253.75 60.0 L 199.75 60.0 L 199.75 189.0 z" fill="rgb(255,217,194)" stroke="black"/>
  <text fill="rgb(9,33,173)" font-size="25" x="199.5" y="125.25">rfsleeve</text>
  <path d="M 339.5 396.0 L 474.5 396.0 L 474.5 72.0 L 444.5 60.0 L 423.5 60.0 Q 461.90000000000003 146.7 411.5 177.0 L 339.5 396.0 z" fill="rgb(255,217,194)" stroke="black"/>
  <text fill="rgb(9,33,173)" font-size="25" x="403.0" y="196.5">front_right</text>
  <path d="M 573.0 396.0 L 843.0 396.0 L 771.0 177.0 Q 720.6 146.70000000000002 759.0 60.0 L 738.0 60.0 Q 708.0 179.51975564958775 678.0 60.0 L 657.0 60.0 Q 695.4 146.7 645.0 177.0 L 573.0 396.0 z" fill="rgb(255,217,194)" stroke="black"/>
  <text fill="rgb(9,33,173)" font-size="25" x="683.0" y="176.25">back</text>
  <path d="M 903.0 396.0 L 1038.0 396.0 L 966.0 177.0 Q 915.6 146.70000000000002 954.0 60.0 L 933.0 60.0 L 903.0 72.0 L 903.0 396.0 z" fill="rgb(255,217,194)" stroke="black"/>
  <text fill="rgb(9,33,173)" font-size="25" x="924.5" y="196.5">front_left</text>
  <path d="M 1098.0 189.0 L 1143.0 180.0 Q 1193.7 147.6 1152.0 60.0 L 1098.0 60.0 L 1098.0 189.0 z" fill="rgb(255,217,194)" stroke="black"/>
  <text fill="rgb(9,33,173)" font-size="25" x="1097.75" y="125.25">lbsleeve</text>
  <path d="M 1237.75 189.0 L 1291.75 189.0 Q 1333.45 101.4 1282.75 69.0 L 1237.75 60.0 L 1237.75 189.0 z" fill="rgb(255,217,194)" stroke="black"/>
  <text fill="rgb(9,33,173)" font-size="25" x="1237.5" y="129.75">lfsleeve</text>
</svg>
