<?xml version="1.0" encoding="utf-8" ?>
<svg xmlns="http://www.w3.org/2000/svg" xmlns:ev="http://www.w3.org/2001/xml-events" xmlns:xlink="http://www.w3.org/1999/xlink" baseProfile="full" height="354px" version="1.1" width="886.0px">
  <defs/>
  <path d="M 60 294 Q 135.0 266.8958683180254 210 294 L 207 102 L 183 60 L 87 60 L 63 102 L 60 294 z" fill="rgb(255,217,194)" stroke="black"/>
  <text fill="rgb(9,33,173)" font-size="25" x="110.0" y="155.0">skirt_back</text>
  <path d="M 270 294 Q 345.0 359.15171532512676 420 294 L 417 102 L 393 60 L 297 60 L 273 102 L 270 294 z" fill="rgb(255,217,194)" stroke="black"/>
  <text fill="rgb(9,33,173)" font-size="25" x="320.0" y="155.0">skirt_front</text>
  <path d="M 511.0 168.0 L 607.0 168.0 L 628.0 111.0 Q 604.9 99.3 619.0 60.0 L 595.0 60.0 Q 559.0 103.39917969226477 523.0 60.0 L 499.0 60.0 Q 513.1 99.29999999999998 490.0 111.0 L 511.0 168.0 z" fill="rgb(255,217,194)" stroke="black"/>
  <text fill="rgb(9,33,173)" font-size="25" x="534.0" y="102.75">top_back</text>
  <path d="M 709.0 165.0 L 805.0 165.0 L 826.0 111.0 Q 802.9 99.3 817.0 60.0 L 793.0 60.0 L 757.0 72.0 L 721.0 60.0 L 697.0 60.0 Q 711.1 99.29999999999998 688.0 111.0 L 709.0 165.0 z" fill="rgb(255,217,194)" stroke="black"/>
  <text fill="rgb(9,33,173)" font-size="25" x="732.0" y="99.0">top_front</text>
</svg>
