<?xml version="1.0" encoding="utf-8" ?>
<svg xmlns="http://www.w3.org/2000/svg" xmlns:ev="http://www.w3.org/2001/xml-events" xmlns:xlink="http://www.w3.org/1999/xlink" baseProfile="full" height="462.0px" version="1.1" width="1006.0px">
  <defs/>
  <path d="M 60 135 L 99 135 Q 108.6 98.7 87 90 L 60 60 L 60 135 z" fill="rgb(255,217,194)" stroke="black"/>
  <text fill="rgb(9,33,173)" font-size="25" x="51.5" y="108.0">rbsleeve</text>
  <path d="M 191.5 135.0 L 218.5 105.0 Q 240.1 96.3 230.5 60.0 L 191.5 60.0 L 191.5 135.0 z" fill="rgb(255,217,194)" stroke="black"/>
  <text fill="rgb(9,33,173)" font-size="25" x="183.0" y="93.0">rfsleeve</text>
  <path d="M 344.0 402.0 L 452.0 402.0 L 473.0 108.0 Q 450.2 98.39999999999999 461.0 60.0 L 434.0 60.0 Q 398.0 216.42540094401832 362.0 60.0 L 335.0 60.0 Q 345.8 98.39999999999999 323.0 108.0 L 344.0 402.0 z" fill="rgb(255,217,194)" stroke="black"/>
  <text fill="rgb(9,33,173)" font-size="25" x="373.0" y="160.5">back</text>
  <path d="M 554.0 402.0 L 662.0 402.0 L 683.0 108.0 Q 660.1999999999999 98.39999999999999 671.0 60.0 L 644.0 60.0 L 608.0 120.0 L 572.0 60.0 L 545.0 60.0 Q 555.8000000000001 98.39999999999999 533.0 108.0 L 554.0 402.0 z" fill="rgb(255,217,194)" stroke="black"/>
  <text fill="rgb(9,33,173)" font-size="25" x="583.0" y="156.33333333333334">front</text>
  <path d="M 743.0 135.0 L 770.0 105.0 Q 791.6 96.3 782.0 60.0 L 743.0 60.0 L 743.0 135.0 z" fill="rgb(255,217,194)" stroke="black"/>
  <text fill="rgb(9,33,173)" font-size="25" x="734.5" y="93.0">lbsleeve</text>
  <path d="M 874.5 135.0 L 913.5 135.0 Q 923.1 98.7 901.5 90.0 L 874.5 60.0 L 874.5 135.0 z" fill="rgb(255,217,194)" stroke="black"/>
  <text fill="rgb(9,33,173)" font-size="25" x="866.0" y="108.0">lfsleeve</text>
</svg>
