<?xml version="1.0" encoding="utf-8" ?>
<svg xmlns="http://www.w3.org/2000/svg" xmlns:ev="http://www.w3.org/2001/xml-events" xmlns:xlink="http://www.w3.org/1999/xlink" baseProfile="full" height="258px" version="1.1" width="1642.0px">
  <defs/>
  <path d="M 60 198 L 174 198 L 210 60 L 90 60 Q 103.5 139.5 60 150 Q 64.8 152.4 60 198 z" fill="rgb(255,217,194)" stroke="black"/>
  <text fill="rgb(9,33,173)" font-size="25" x="93.8" y="136.2">Rback</text>
  <path d="M 306 198 L 420 198 Q 415.2 152.4 420 150 Q 381.0 138.0 390 60 L 270 60 L 306 198 z" fill="rgb(255,217,194)" stroke="black"/>
  <text fill="rgb(9,33,173)" font-size="25" x="336.2" y="136.2">Rfront</text>
  <path d="M 480 75 L 519 75 L 558 75 L 558 60 L 480 60 L 480 75 z" fill="rgb(255,217,194)" stroke="black"/>
  <text fill="rgb(9,33,173)" font-size="25" x="494.0" y="72.0">wb_back</text>
  <path d="M 624.0 75.0 L 663.0 75.0 L 702.0 75.0 L 702.0 60.0 L 624.0 60.0 L 624.0 75.0 z" fill="rgb(255,217,194)" stroke="black"/>
  <text fill="rgb(9,33,173)" font-size="25" x="638.0" y="72.0">wb_front</text>
  <path d="M 778.0 177.0 L 940.0 177.0 L 940.0 129.0 Q 908.8 113.1 928.0 60.0 L 895.0 60.0 Q 859.0 120.4966637584954 823.0 60.0 L 790.0 60.0 Q 809.2 113.1 778.0 129.0 L 778.0 177.0 z" fill="rgb(255,217,194)" stroke="black"/>
  <text fill="rgb(9,33,173)" font-size="25" x="834.0" y="109.5">top_back</text>
  <path d="M 1000.0 177.0 L 1162.0 177.0 L 1162.0 129.0 Q 1130.8000000000002 113.1 1150.0 60.0 L 1117.0 60.0 L 1081.0 144.0 L 1045.0 60.0 L 1012.0 60.0 Q 1031.2 113.1 1000.0 129.0 L 1000.0 177.0 z" fill="rgb(255,217,194)" stroke="black"/>
  <text fill="rgb(9,33,173)" font-size="25" x="1056.0" y="113.66666666666667">top_front</text>
  <path d="M 1258.0 198.0 L 1372.0 198.0 Q 1367.2 152.4 1372.0 150.0 Q 1328.5 139.5 1342.0 60.0 L 1222.0 60.0 L 1258.0 198.0 z" fill="rgb(255,217,194)" stroke="black"/>
  <text fill="rgb(9,33,173)" font-size="25" x="1288.2" y="136.2">Lback</text>
  <path d="M 1432.0 198.0 L 1546.0 198.0 L 1582.0 60.0 L 1462.0 60.0 Q 1471.0 138.0 1432.0 150.0 Q 1436.8 152.4 1432.0 198.0 z" fill="rgb(255,217,194)" stroke="black"/>
  <text fill="rgb(9,33,173)" font-size="25" x="1465.8" y="136.2">Lfront</text>
</svg>
