<?xml version="1.0" encoding="utf-8" ?>
<svg xmlns="http://www.w3.org/2000/svg" xmlns:ev="http://www.w3.org/2001/xml-events" xmlns:xlink="http://www.w3.org/1999/xlink" baseProfile="full" height="522.0px" version="1.1" width="634.0px">
  <defs/>
  <path d="M 81 459 L 138 459 L 138 153 L 120 60 L 72 60 Q 84.0 100.49999999999999 60 111 L 81 459 z" fill="rgb(255,217,194)" stroke="black"/>
  <text fill="rgb(9,33,173)" font-size="25" x="76.5" y="220.0">front_right</text>
  <path d="M 267.5 462.0 L 381.5 462.0 L 402.5 111.0 Q 378.5 100.5 390.5 60.0 L 342.5 60.0 Q 324.5 80.35687615996503 306.5 60.0 L 258.5 60.0 Q 270.5 100.49999999999999 246.5 111.0 L 267.5 462.0 z" fill="rgb(255,217,194)" stroke="black"/>
  <text fill="rgb(9,33,173)" font-size="25" x="299.5" y="176.25">back</text>
  <path d="M 462.5 459.0 L 519.5 459.0 L 540.5 111.0 Q 516.5 100.5 528.5 60.0 L 480.5 60.0 L 462.5 153.0 L 462.5 459.0 z" fill="rgb(255,217,194)" stroke="black"/>
  <text fill="rgb(9,33,173)" font-size="25" x="474.0" y="220.0">front_left</text>
</svg>
