<?xml version="1.0" encoding="utf-8" ?>
<svg xmlns="http://www.w3.org/2000/svg" xmlns:ev="http://www.w3.org/2001/xml-events" xmlns:xlink="http://www.w3.org/1999/xlink" baseProfile="full" height="402px" version="1.1" width="1272px">
  <defs/>
  <path d="M 60 216 L 186 216 Q 206.7 155.4 171 138 L 60 60 L 60 216 z" fill="rgb(255,217,194)" stroke="black"/>
  <text fill="rgb(9,33,173)" font-size="25" x="94.25" y="160.5">rbsleeve</text>
  <path d="M 246 216 L 357 138 Q 392.7 120.6 372 60 L 246 60 L 246 216 z" fill="rgb(255,217,194)" stroke="black"/>
  <text fill="rgb(9,33,173)" font-size="25" x="280.25" y="121.5">rfsleeve</text>
  <path d="M 435 342 L 603 342 L 606 138 Q 570.3 120.6 591 60 L 555 60 Q 519.0 139.71742292128212 483 60 L 447 60 Q 467.7 120.6 432 138 L 435 342 z" fill="rgb(255,217,194)" stroke="black"/>
  <text fill="rgb(9,33,173)" font-size="25" x="494.0" y="153.0">back</text>
  <path d="M 669 339 L 837 339 L 840 138 Q 804.3 120.6 825 60 L 789 60 L 753 72 L 717 60 L 681 60 Q 701.7 120.6 666 138 L 669 339 z" fill="rgb(255,217,194)" stroke="black"/>
  <text fill="rgb(9,33,173)" font-size="25" x="728.0" y="143.66666666666666">front</text>
  <path d="M 900 216 L 1011 138 Q 1046.7 120.6 1026 60 L 900 60 L 900 216 z" fill="rgb(255,217,194)" stroke="black"/>
  <text fill="rgb(9,33,173)" font-size="25" x="934.25" y="121.5">lbsleeve</text>
  <path d="M 1086 216 L 1212 216 Q 1232.7 155.4 1197 138 L 1086 60 L 1086 216 z" fill="rgb(255,217,194)" stroke="black"/>
  <text fill="rgb(9,33,173)" font-size="25" x="1120.25" y="160.5">lfsleeve</text>
</svg>
