<?xml version="1.0" encoding="utf-8" ?>
<svg xmlns="http://www.w3.org/2000/svg" xmlns:ev="http://www.w3.org/2001/xml-events" xmlns:xlink="http://www.w3.org/1999/xlink" baseProfile="full" height="321px" version="1.1" width="1634.0px">
  <defs/>
  <path d="M 60 177 L 189 177 Q 227.1 95.70000000000002 180 66 L 60 60 L 60 177 z" fill="rgb(255,217,194)" stroke="black"/>
  <text fill="rgb(9,33,173)" font-size="25" x="97.25" y="123.0">rbsleeve</text>
  <path d="M 249 177 L 369 171 Q 416.1 141.29999999999998 378 60 L 249 60 L 249 177 z" fill="rgb(255,217,194)" stroke="black"/>
  <text fill="rgb(9,33,173)" font-size="25" x="286.25" y="120.0">rfsleeve</text>
  <path d="M 438 261 L 588 261 L 588 156 L 567 60 L 537 60 Q 575.1 141.29999999999998 528 171 L 438 261 z" fill="rgb(255,217,194)" stroke="black"/>
  <text fill="rgb(9,33,173)" font-size="25" x="516.0" y="164.5">front_right</text>
  <path d="M 686.0 261.0 L 986.0 261.0 L 896.0 171.0 Q 848.9 141.29999999999998 887.0 60.0 L 857.0 60.0 Q 836.0 203.73968094054774 815.0 60.0 L 785.0 60.0 Q 823.1 141.29999999999998 776.0 171.0 L 686.0 261.0 z" fill="rgb(255,217,194)" stroke="black"/>
  <text fill="rgb(9,33,173)" font-size="25" x="811.0" y="141.0">back</text>
  <path d="M 1046.0 261.0 L 1196.0 261.0 L 1106.0 171.0 Q 1058.8999999999999 141.29999999999998 1097.0 60.0 L 1067.0 60.0 L 1046.0 156.0 L 1046.0 261.0 z" fill="rgb(255,217,194)" stroke="black"/>
  <text fill="rgb(9,33,173)" font-size="25" x="1068.0" y="164.5">front_left</text>
  <path d="M 1256.0 177.0 L 1376.0 171.0 Q 1423.1000000000001 141.29999999999998 1385.0 60.0 L 1256.0 60.0 L 1256.0 177.0 z" fill="rgb(255,217,194)" stroke="black"/>
  <text fill="rgb(9,33,173)" font-size="25" x="1293.25" y="120.0">lbsleeve</text>
  <path d="M 1445.0 177.0 L 1574.0 177.0 Q 1612.1000000000001 95.70000000000002 1565.0 66.0 L 1445.0 60.0 L 1445.0 177.0 z" fill="rgb(255,217,194)" stroke="black"/>
  <text fill="rgb(9,33,173)" font-size="25" x="1482.25" y="123.0">lfsleeve</text>
</svg>
