<?xml version="1.0" encoding="utf-8" ?>
<svg xmlns="http://www.w3.org/2000/svg" xmlns:ev="http://www.w3.org/2001/xml-events" xmlns:xlink="http://www.w3.org/1999/xlink" baseProfile="full" height="339px" version="1.1" width="1116px">
  <defs/>
  <path d="M 60 279 Q 192.0 164.704563531337 324 279 L 267 102 L 246 60 L 138 60 L 117 102 L 60 279 z" fill="rgb(255,217,194)" stroke="black"/>
  <text fill="rgb(9,33,173)" font-size="25" x="167.0" y="150.0">skirt_back</text>
  <path d="M 384 279 Q 516.0 282.1891274223698 648 279 L 591 102 L 570 60 L 462 60 L 441 102 L 384 279 z" fill="rgb(255,217,194)" stroke="black"/>
  <text fill="rgb(9,33,173)" font-size="25" x="491.0" y="150.0">skirt_front</text>
  <path d="M 726 168 L 834 168 L 852 141 Q 816.9 120.3 843 60 L 810 60 Q 780.0 154.69763478367128 750 60 L 717 60 Q 743.1 120.29999999999998 708 141 L 726 168 z" fill="rgb(255,217,194)" stroke="black"/>
  <text fill="rgb(9,33,173)" font-size="25" x="755.0" y="110.25">top_back</text>
  <path d="M 930 165 L 1038 165 L 1056 141 Q 1020.9 120.3 1047 60 L 1014 60 L 984 63 L 954 60 L 921 60 Q 947.1 120.29999999999998 912 141 L 930 165 z" fill="rgb(255,217,194)" stroke="black"/>
  <text fill="rgb(9,33,173)" font-size="25" x="959.0" y="104.66666666666667">top_front</text>
</svg>
