<?xml version="1.0" encoding="utf-8" ?>
<svg xmlns="http://www.w3.org/2000/svg" xmlns:ev="http://www.w3.org/2001/xml-events" xmlns:xlink="http://www.w3.org/1999/xlink" baseProfile="full" height="366px" version="1.1" width="1510.0px">
  <defs/>
  <path d="M 60 306 L 372 306 L 372 60 L 60 60 L 60 306 z" fill="rgb(255,217,194)" stroke="black"/>
  <text fill="rgb(9,33,173)" font-size="25" x="191.0" y="186.0">skirt_back</text>
  <path d="M 432 69 L 522 69 L 522 60 L 432 60 L 432 69 z" fill="rgb(255,217,194)" stroke="black"/>
  <text fill="rgb(9,33,173)" font-size="25" x="452.0" y="67.5">wb_back</text>
  <path d="M 582 69 L 672 69 L 672 60 L 582 60 L 582 69 z" fill="rgb(255,217,194)" stroke="black"/>
  <text fill="rgb(9,33,173)" font-size="25" x="602.0" y="67.5">wb_front</text>
  <path d="M 742.0 306.0 L 1054.0 306.0 L 1054.0 60.0 L 742.0 60.0 L 742.0 306.0 z" fill="rgb(255,217,194)" stroke="black"/>
  <text fill="rgb(9,33,173)" font-size="25" x="873.0" y="186.0">skirt_front</text>
  <path d="M 1114.0 171.0 L 1252.0 171.0 L 1252.0 141.0 Q 1216.0 121.5 1240.0 60.0 L 1216.0 60.0 Q 1183.0 106.56595769417186 1150.0 60.0 L 1126.0 60.0 Q 1150.0 121.49999999999999 1114.0 141.0 L 1114.0 171.0 z" fill="rgb(255,217,194)" stroke="black"/>
  <text fill="rgb(9,33,173)" font-size="25" x="1158.0" y="111.0">top_back</text>
  <path d="M 1312.0 171.0 L 1450.0 171.0 L 1450.0 141.0 Q 1414.0 121.5 1438.0 60.0 L 1414.0 60.0 L 1381.0 123.0 L 1348.0 60.0 L 1324.0 60.0 Q 1348.0 121.49999999999999 1312.0 141.0 L 1312.0 171.0 z" fill="rgb(255,217,194)" stroke="black"/>
  <text fill="rgb(9,33,173)" font-size="25" x="1356.0" y="112.66666666666667">top_front</text>
</svg>
