<?xml version="1.0" encoding="utf-8" ?>
<svg xmlns="http://www.w3.org/2000/svg" xmlns:ev="http://www.w3.org/2001/xml-events" xmlns:xlink="http://www.w3.org/1999/xlink" baseProfile="full" height="318px" version="1.1" width="1522.0px">
  <defs/>
  <path d="M 60 258 L 165 258 L 180 60 L 90 60 Q 103.5 139.5 60 150 Q 70.8 155.4 60 258 z" fill="rgb(255,217,194)" stroke="black"/>
  <text fill="rgb(9,33,173)" font-size="25" x="86.0" y="160.2">Rback</text>
  <path d="M 255 258 L 360 258 Q 349.2 155.4 360 150 Q 321.0 138.0 330 60 L 240 60 L 255 258 z" fill="rgb(255,217,194)" stroke="black"/>
  <text fill="rgb(9,33,173)" font-size="25" x="284.0" y="160.2">Rfront</text>
  <path d="M 420 81 L 459 81 L 498 81 L 498 60 L 420 60 L 420 81 z" fill="rgb(255,217,194)" stroke="black"/>
  <text fill="rgb(9,33,173)" font-size="25" x="434.0" y="75.6">wb_back</text>
  <path d="M 564.0 81.0 L 603.0 81.0 L 642.0 81.0 L 642.0 60.0 L 564.0 60.0 L 564.0 81.0 z" fill="rgb(255,217,194)" stroke="black"/>
  <text fill="rgb(9,33,173)" font-size="25" x="578.0" y="75.6">wb_front</text>
  <path d="M 718.0 177.0 L 880.0 177.0 L 880.0 108.0 Q 857.1999999999999 98.39999999999999 868.0 60.0 L 844.0 60.0 Q 799.0 115.52440131981086 754.0 60.0 L 730.0 60.0 Q 740.8000000000001 98.39999999999999 718.0 108.0 L 718.0 177.0 z" fill="rgb(255,217,194)" stroke="black"/>
  <text fill="rgb(9,33,173)" font-size="25" x="774.0" y="104.25">top_back</text>
  <path d="M 940.0 177.0 L 1102.0 177.0 L 1102.0 108.0 Q 1079.2 98.39999999999999 1090.0 60.0 L 1066.0 60.0 L 1021.0 84.0 L 976.0 60.0 L 952.0 60.0 Q 962.8000000000001 98.39999999999999 940.0 108.0 L 940.0 177.0 z" fill="rgb(255,217,194)" stroke="black"/>
  <text fill="rgb(9,33,173)" font-size="25" x="996.0" y="102.33333333333333">top_front</text>
  <path d="M 1177.0 258.0 L 1282.0 258.0 Q 1271.2 155.4 1282.0 150.0 Q 1238.5 139.5 1252.0 60.0 L 1162.0 60.0 L 1177.0 258.0 z" fill="rgb(255,217,194)" stroke="black"/>
  <text fill="rgb(9,33,173)" font-size="25" x="1206.0" y="160.2">Lback</text>
  <path d="M 1342.0 258.0 L 1447.0 258.0 L 1462.0 60.0 L 1372.0 60.0 Q 1381.0 138.0 1342.0 150.0 Q 1352.8 155.4 1342.0 258.0 z" fill="rgb(255,217,194)" stroke="black"/>
  <text fill="rgb(9,33,173)" font-size="25" x="1368.0" y="160.2">Lfront</text>
</svg>
