<?xml version="1.0" encoding="utf-8" ?>
<svg xmlns="http://www.w3.org/2000/svg" xmlns:ev="http://www.w3.org/2001/xml-events" xmlns:xlink="http://www.w3.org/1999/xlink" baseProfile="full" height="501px" version="1.1" width="946.0px">
  <defs/>
  <path d="M 63 441 L 156 441 L 156 96 L 123 60 L 75 60 Q 107.7 141.6 60 168 L 63 441 z" fill="rgb(255,217,194)" stroke="black"/>
  <text fill="rgb(9,33,173)" font-size="25" x="80.5" y="214.0">front_right</text>
  <path d="M 250.5 198.0 L 313.5 192.0 Q 378.3 164.1 319.5 87.0 L 286.5 96.0 L 250.5 60.0 L 250.5 198.0 z" fill="rgb(255,217,194)" stroke="black"/>
  <text fill="rgb(9,33,173)" font-size="25" x="259.1" y="129.6">Rhood</text>
  <path d="M 382.5 441.0 L 568.5 441.0 L 571.5 168.0 Q 523.8 141.6 556.5 60.0 L 508.5 60.0 L 475.5 69.0 L 442.5 60.0 L 394.5 60.0 Q 427.2 141.6 379.5 168.0 L 382.5 441.0 z" fill="rgb(255,217,194)" stroke="black"/>
  <text fill="rgb(9,33,173)" font-size="25" x="450.5" y="172.66666666666666">back</text>
  <path d="M 631.5 198.0 L 667.5 162.0 L 700.5 171.0 Q 759.3 93.9 694.5 66.0 L 631.5 60.0 L 631.5 198.0 z" fill="rgb(255,217,194)" stroke="black"/>
  <text fill="rgb(9,33,173)" font-size="25" x="640.1" y="134.4">Lhood</text>
  <path d="M 760.5 441.0 L 853.5 441.0 L 856.5 168.0 Q 808.8 141.6 841.5 60.0 L 793.5 60.0 L 760.5 96.0 L 760.5 441.0 z" fill="rgb(255,217,194)" stroke="black"/>
  <text fill="rgb(9,33,173)" font-size="25" x="786.0" y="214.0">front_left</text>
</svg>
