<?xml version="1.0" encoding="utf-8" ?>
<svg xmlns="http://www.w3.org/2000/svg" xmlns:ev="http://www.w3.org/2001/xml-events" xmlns:xlink="http://www.w3.org/1999/xlink" baseProfile="full" height="444.0px" version="1.1" width="1505.0px">
  <defs/>
  <path d="M 60 165 L 99 165 Q 134.7 87.9 90 60 L 60 84 L 60 165 z" fill="rgb(255,217,194)" stroke="black"/>
  <text fill="rgb(9,33,173)" font-size="25" x="52.25" y="121.5">rbsleeve</text>
  <path d="M 192.25 141.0 L 222.25 165.0 Q 266.95 137.1 231.25 60.0 L 192.25 60.0 L 192.25 141.0 z" fill="rgb(255,217,194)" stroke="black"/>
  <text fill="rgb(9,33,173)" font-size="25" x="184.5" y="109.5">rfsleeve</text>
  <path d="M 324.5 384.0 L 432.5 384.0 L 432.5 114.0 L 405.5 60.0 L 384.5 60.0 Q 419.0 134.99999999999997 375.5 162.0 L 324.5 384.0 z" fill="rgb(255,217,194)" stroke="black"/>
  <text fill="rgb(9,33,173)" font-size="25" x="367.5" y="197.0">front_right</text>
  <path d="M 537.5 207.0 L 573.5 204.0 Q 640.1 193.2 603.5 108.0 L 573.5 117.0 L 543.5 60.0 L 537.5 207.0 z" fill="rgb(255,217,194)" stroke="black"/>
  <text fill="rgb(9,33,173)" font-size="25" x="541.3" y="142.2">Rhood</text>
  <path d="M 663.5 384.0 L 879.5 384.0 L 828.5 162.0 Q 785.0 135.0 819.5 60.0 L 798.5 60.0 L 771.5 69.0 L 744.5 60.0 L 723.5 60.0 Q 758.0 134.99999999999997 714.5 162.0 L 663.5 384.0 z" fill="rgb(255,217,194)" stroke="black"/>
  <text fill="rgb(9,33,173)" font-size="25" x="746.5" y="158.66666666666666">back</text>
  <path d="M 945.5 207.0 L 975.5 150.0 L 1005.5 159.0 Q 1042.1 73.80000000000001 975.5 63.0 L 939.5 60.0 L 945.5 207.0 z" fill="rgb(255,217,194)" stroke="black"/>
  <text fill="rgb(9,33,173)" font-size="25" x="943.3" y="130.8">Lhood</text>
  <path d="M 1065.5 384.0 L 1173.5 384.0 L 1122.5 162.0 Q 1079.0 135.0 1113.5 60.0 L 1092.5 60.0 L 1065.5 114.0 L 1065.5 384.0 z" fill="rgb(255,217,194)" stroke="black"/>
  <text fill="rgb(9,33,173)" font-size="25" x="1080.5" y="197.0">front_left</text>
  <path d="M 1240.5 141.0 L 1270.5 165.0 Q 1315.2 137.1 1279.5 60.0 L 1240.5 60.0 L 1240.5 141.0 z" fill="rgb(255,217,194)" stroke="black"/>
  <text fill="rgb(9,33,173)" font-size="25" x="1232.75" y="109.5">lbsleeve</text>
  <path d="M 1372.75 165.0 L 1411.75 165.0 Q 1447.45 87.9 1402.75 60.0 L 1372.75 84.0 L 1372.75 165.0 z" fill="rgb(255,217,194)" stroke="black"/>
  <text fill="rgb(9,33,173)" font-size="25" x="1365.0" y="121.5">lfsleeve</text>
</svg>
