<?xml version="1.0" encoding="utf-8" ?>
<svg xmlns="http://www.w3.org/2000/svg" xmlns:ev="http://www.w3.org/2001/xml-events" xmlns:xlink="http://www.w3.org/1999/xlink" baseProfile="full" height="456.0px" version="1.1" width="907.0px">
  <defs/>
  <path d="M 60 393 L 141 393 L 141 108 L 126 60 L 81 60 Q 111.0 132.0 69 156 L 60 393 z" fill="rgb(255,217,194)" stroke="black"/>
  <text fill="rgb(9,33,173)" font-size="25" x="78.0" y="198.0">front_right</text>
  <path d="M 248.0 213.0 L 320.0 204.0 Q 376.7 159.9 299.0 99.0 L 284.0 108.0 L 269.0 60.0 L 248.0 213.0 z" fill="rgb(255,217,194)" stroke="black"/>
  <text fill="rgb(9,33,173)" font-size="25" x="259.0" y="139.8">Rhood</text>
  <path d="M 380.0 396.0 L 542.0 396.0 L 533.0 159.0 Q 489.79999999999995 134.10000000000002 521.0 60.0 L 476.0 60.0 L 461.0 69.0 L 446.0 60.0 L 401.0 60.0 Q 432.20000000000005 134.10000000000002 389.0 159.0 L 380.0 396.0 z" fill="rgb(255,217,194)" stroke="black"/>
  <text fill="rgb(9,33,173)" font-size="25" x="436.0" y="160.66666666666666">back</text>
  <path d="M 623.0 213.0 L 638.0 165.0 L 653.0 174.0 Q 730.7 113.1 674.0 69.0 L 602.0 60.0 L 623.0 213.0 z" fill="rgb(255,217,194)" stroke="black"/>
  <text fill="rgb(9,33,173)" font-size="25" x="613.0" y="139.2">Lhood</text>
  <path d="M 734.0 393.0 L 815.0 393.0 L 806.0 156.0 Q 764.0 132.0 794.0 60.0 L 749.0 60.0 L 734.0 108.0 L 734.0 393.0 z" fill="rgb(255,217,194)" stroke="black"/>
  <text fill="rgb(9,33,173)" font-size="25" x="747.0" y="198.0">front_left</text>
</svg>
