<?xml version="1.0" encoding="utf-8" ?>
<svg xmlns="http://www.w3.org/2000/svg" xmlns:ev="http://www.w3.org/2001/xml-events" xmlns:xlink="http://www.w3.org/1999/xlink" baseProfile="full" height="285px" version="1.1" width="1104px">
  <defs/>
  <path d="M 60 225 Q 162.0 258.8317804023196 264 225 L 243 102 L 225 60 L 99 60 L 81 102 L 60 225 z" fill="rgb(255,217,194)" stroke="black"/>
  <text fill="rgb(9,33,173)" font-size="25" x="137.0" y="132.0">skirt_back</text>
  <path d="M 324 225 Q 426.0 292.0705556465847 528 225 L 507 102 L 489 60 L 363 60 L 345 102 L 324 225 z" fill="rgb(255,217,194)" stroke="black"/>
  <text fill="rgb(9,33,173)" font-size="25" x="401.0" y="132.0">skirt_front</text>
  <path d="M 624 168 L 750 168 L 786 129 Q 753.9 114.3 771 60 L 717 60 Q 687.0 107.43542124491356 657 60 L 603 60 Q 620.1 114.3 588 129 L 624 168 z" fill="rgb(255,217,194)" stroke="black"/>
  <text fill="rgb(9,33,173)" font-size="25" x="662.0" y="107.25">top_back</text>
  <path d="M 882 165 L 1008 165 L 1044 129 Q 1011.9 114.3 1029 60 L 975 60 L 945 99 L 915 60 L 861 60 Q 878.1 114.3 846 129 L 882 165 z" fill="rgb(255,217,194)" stroke="black"/>
  <text fill="rgb(9,33,173)" font-size="25" x="920.0" y="106.0">top_front</text>
</svg>
