<?xml version="1.0" encoding="utf-8" ?>
<svg xmlns="http://www.w3.org/2000/svg" xmlns:ev="http://www.w3.org/2001/xml-events" xmlns:xlink="http://www.w3.org/1999/xlink" baseProfile="full" height="414.0px" version="1.1" width="1818.0px">
  <defs/>
  <path d="M 60 141 L 186 141 Q 206.7 80.4 171 63 L 60 60 L 60 141 z" fill="rgb(255,217,194)" stroke="black"/>
  <text fill="rgb(9,33,173)" font-size="25" x="94.25" y="104.25">rbsleeve</text>
  <path d="M 246 141 L 357 138 Q 392.7 120.6 372 60 L 246 60 L 246 141 z" fill="rgb(255,217,194)" stroke="black"/>
  <text fill="rgb(9,33,173)" font-size="25" x="280.25" y="102.75">rfsleeve</text>
  <path d="M 432 351 L 636 351 L 636 147 L 600 60 L 561 60 Q 583.8000000000001 119.39999999999999 549 138 L 432 351 z" fill="rgb(255,217,194)" stroke="black"/>
  <text fill="rgb(9,33,173)" font-size="25" x="544.0" y="187.5">front_right</text>
  <path d="M 714.0 354.0 L 1122.0 354.0 L 1005.0 138.0 Q 970.1999999999999 119.39999999999999 993.0 60.0 L 954.0 60.0 Q 918.0 62.576555513424594 882.0 60.0 L 843.0 60.0 Q 865.8000000000001 119.39999999999999 831.0 138.0 L 714.0 354.0 z" fill="rgb(255,217,194)" stroke="black"/>
  <text fill="rgb(9,33,173)" font-size="25" x="893.0" y="156.0">back</text>
  <path d="M 1182.0 351.0 L 1386.0 351.0 L 1269.0 138.0 Q 1234.2 119.39999999999999 1257.0 60.0 L 1218.0 60.0 L 1182.0 147.0 L 1182.0 351.0 z" fill="rgb(255,217,194)" stroke="black"/>
  <text fill="rgb(9,33,173)" font-size="25" x="1224.0" y="187.5">front_left</text>
  <path d="M 1446.0 141.0 L 1557.0 138.0 Q 1592.7 120.6 1572.0 60.0 L 1446.0 60.0 L 1446.0 141.0 z" fill="rgb(255,217,194)" stroke="black"/>
  <text fill="rgb(9,33,173)" font-size="25" x="1480.25" y="102.75">lbsleeve</text>
  <path d="M 1632.0 141.0 L 1758.0 141.0 Q 1778.7 80.4 1743.0 63.0 L 1632.0 60.0 L 1632.0 141.0 z" fill="rgb(255,217,194)" stroke="black"/>
  <text fill="rgb(9,33,173)" font-size="25" x="1666.25" y="104.25">lfsleeve</text>
</svg>
