<?xml version="1.0" encoding="utf-8" ?>
<svg xmlns="http://www.w3.org/2000/svg" xmlns:ev="http://www.w3.org/2001/xml-events" xmlns:xlink="http://www.w3.org/1999/xlink" baseProfile="full" height="381.0px" version="1.1" width="1039.0px">
  <defs/>
  <path d="M 60 204 L 132 204 Q 160.5 139.5 123 117 L 60 60 L 60 204 z" fill="rgb(255,217,194)" stroke="black"/>
  <text fill="rgb(9,33,173)" font-size="25" x="68.75" y="149.25">rbsleeve</text>
  <path d="M 208.75 204.0 L 271.75 147.0 Q 309.25 124.5 280.75 60.0 L 208.75 60.0 L 208.75 204.0 z" fill="rgb(255,217,194)" stroke="black"/>
  <text fill="rgb(9,33,173)" font-size="25" x="217.5" y="120.75">rfsleeve</text>
  <path d="M 357.5 321.0 L 489.5 321.0 L 480.5 147.0 Q 443.0 124.5 471.5 60.0 L 444.5 60.0 Q 423.5 110.10705513936081 402.5 60.0 L 375.5 60.0 Q 404.0 124.5 366.5 147.0 L 357.5 321.0 z" fill="rgb(255,217,194)" stroke="black"/>
  <text fill="rgb(9,33,173)" font-size="25" x="398.5" y="150.0">back</text>
  <path d="M 549.5 318.0 L 681.5 318.0 L 672.5 147.0 Q 635.0 124.5 663.5 60.0 L 636.5 60.0 L 615.5 126.0 L 594.5 60.0 L 567.5 60.0 Q 596.0 124.5 558.5 147.0 L 549.5 318.0 z" fill="rgb(255,217,194)" stroke="black"/>
  <text fill="rgb(9,33,173)" font-size="25" x="590.5" y="147.0">front</text>
  <path d="M 741.5 204.0 L 804.5 147.0 Q 842.0 124.5 813.5 60.0 L 741.5 60.0 L 741.5 204.0 z" fill="rgb(255,217,194)" stroke="black"/>
  <text fill="rgb(9,33,173)" font-size="25" x="750.25" y="120.75">lbsleeve</text>
  <path d="M 890.25 204.0 L 962.25 204.0 Q 990.75 139.5 953.25 117.0 L 890.25 60.0 L 890.25 204.0 z" fill="rgb(255,217,194)" stroke="black"/>
  <text fill="rgb(9,33,173)" font-size="25" x="899.0" y="149.25">lfsleeve</text>
</svg>
