<?xml version="1.0" encoding="utf-8" ?>
<svg xmlns="http://www.w3.org/2000/svg" xmlns:ev="http://www.w3.org/2001/xml-events" xmlns:xlink="http://www.w3.org/1999/xlink" baseProfile="full" height="333.0px" version="1.1" width="1732.0px">
  <defs/>
  <path d="M 60 177 L 108 177 Q 129.6 119.7 96 102 L 60 60 L 60 177 z" fill="rgb(255,217,194)" stroke="black"/>
  <text fill="rgb(9,33,173)" font-size="25" x="56.0" y="132.0">rbsleeve</text>
  <path d="M 196.0 177.0 L 232.0 135.0 Q 265.6 117.3 244.0 60.0 L 196.0 60.0 L 196.0 177.0 z" fill="rgb(255,217,194)" stroke="black"/>
  <text fill="rgb(9,33,173)" font-size="25" x="192.0" y="111.0">rfsleeve</text>
  <path d="M 332.0 273.0 L 440.0 273.0 Q 453.2 92.10000000000002 443.0 60.0 L 362.0 60.0 Q 376.7 141.75 332.0 153.0 Q 344.0 159.0 332.0 273.0 z" fill="rgb(255,217,194)" stroke="black"/>
  <text fill="rgb(9,33,173)" font-size="25" x="356.8" y="166.8">Rback</text>
  <path d="M 506.0 273.0 L 614.0 273.0 Q 602.0 159.0 614.0 153.0 Q 573.95 140.25 584.0 60.0 L 503.0 60.0 Q 492.8 92.10000000000001 506.0 273.0 z" fill="rgb(255,217,194)" stroke="black"/>
  <text fill="rgb(9,33,173)" font-size="25" x="539.2" y="166.8">Rfront</text>
  <path d="M 674.0 168.0 L 755.0 168.0 L 836.0 168.0 L 824.0 132.0 Q 791.6 115.2 812.0 60.0 L 785.0 60.0 Q 755.0 110.49588263149029 725.0 60.0 L 698.0 60.0 Q 718.4 115.2 686.0 132.0 L 674.0 168.0 z" fill="rgb(255,217,194)" stroke="black"/>
  <text fill="rgb(9,33,173)" font-size="25" x="730.0" y="115.0">up_back</text>
  <path d="M 896.0 165.0 L 977.0 165.0 L 1058.0 165.0 L 1046.0 132.0 Q 1013.6000000000001 115.2 1034.0 60.0 L 1007.0 60.0 L 977.0 81.0 L 947.0 60.0 L 920.0 60.0 Q 940.4 115.2 908.0 132.0 L 896.0 165.0 z" fill="rgb(255,217,194)" stroke="black"/>
  <text fill="rgb(9,33,173)" font-size="25" x="952.0" y="111.0">up_front</text>
  <path d="M 1121.0 273.0 L 1229.0 273.0 Q 1217.0 159.0 1229.0 153.0 Q 1184.3 141.75 1199.0 60.0 L 1118.0 60.0 Q 1107.8 92.10000000000001 1121.0 273.0 z" fill="rgb(255,217,194)" stroke="black"/>
  <text fill="rgb(9,33,173)" font-size="25" x="1154.2" y="166.8">Lback</text>
  <path d="M 1289.0 273.0 L 1397.0 273.0 Q 1410.2 92.10000000000002 1400.0 60.0 L 1319.0 60.0 Q 1329.05 140.25 1289.0 153.0 Q 1301.0 159.0 1289.0 273.0 z" fill="rgb(255,217,194)" stroke="black"/>
  <text fill="rgb(9,33,173)" font-size="25" x="1313.8" y="166.8">Lfront</text>
  <path d="M 1460.0 177.0 L 1496.0 135.0 Q 1529.6 117.3 1508.0 60.0 L 1460.0 60.0 L 1460.0 177.0 z" fill="rgb(255,217,194)" stroke="black"/>
  <text fill="rgb(9,33,173)" font-size="25" x="1456.0" y="111.0">lbsleeve</text>
  <path d="M 1596.0 177.0 L 1644.0 177.0 Q 1665.6 119.7 1632.0 102.0 L 1596.0 60.0 L 1596.0 177.0 z" fill="rgb(255,217,194)" stroke="black"/>
  <text fill="rgb(9,33,173)" font-size="25" x="1592.0" y="132.0">lfsleeve</text>
</svg>
