<?xml version="1.0" encoding="utf-8" ?>
<svg xmlns="http://www.w3.org/2000/svg" xmlns:ev="http://www.w3.org/2001/xml-events" xmlns:xlink="http://www.w3.org/1999/xlink" baseProfile="full" height="267px" version="1.1" width="1558.0px">
  <defs/>
  <path d="M 60 207 L 201 207 L 180 60 L 90 60 Q 103.5 139.5 60 150 Q 65.7 152.85 60 207 z" fill="rgb(255,217,194)" stroke="black"/>
  <text fill="rgb(9,33,173)" font-size="25" x="93.2" y="139.8">Rback</text>
  <path d="M 261 207 L 402 207 Q 396.3 152.85 402 150 Q 363.0 138.0 372 60 L 282 60 L 261 207 z" fill="rgb(255,217,194)" stroke="black"/>
  <text fill="rgb(9,33,173)" font-size="25" x="318.8" y="139.8">Rfront</text>
  <path d="M 462 75 L 501 75 L 540 75 L 540 60 L 462 60 L 462 75 z" fill="rgb(255,217,194)" stroke="black"/>
  <text fill="rgb(9,33,173)" font-size="25" x="476.0" y="72.0">wb_back</text>
  <path d="M 606.0 75.0 L 645.0 75.0 L 684.0 75.0 L 684.0 60.0 L 606.0 60.0 L 606.0 75.0 z" fill="rgb(255,217,194)" stroke="black"/>
  <text fill="rgb(9,33,173)" font-size="25" x="620.0" y="72.0">wb_front</text>
  <path d="M 760.0 183.0 L 898.0 183.0 L 898.0 105.0 Q 876.4 96.3 886.0 60.0 L 847.0 60.0 Q 829.0 87.39434988030463 811.0 60.0 L 772.0 60.0 Q 781.6 96.3 760.0 105.0 L 760.0 183.0 z" fill="rgb(255,217,194)" stroke="black"/>
  <text fill="rgb(9,33,173)" font-size="25" x="804.0" y="105.0">top_back</text>
  <path d="M 958.0 183.0 L 1096.0 183.0 L 1096.0 105.0 Q 1074.4 96.3 1084.0 60.0 L 1045.0 60.0 L 1027.0 75.0 L 1009.0 60.0 L 970.0 60.0 Q 979.6 96.3 958.0 105.0 L 958.0 183.0 z" fill="rgb(255,217,194)" stroke="black"/>
  <text fill="rgb(9,33,173)" font-size="25" x="1002.0" y="102.0">top_front</text>
  <path d="M 1156.0 207.0 L 1297.0 207.0 Q 1291.3 152.85 1297.0 150.0 Q 1253.5 139.5 1267.0 60.0 L 1177.0 60.0 L 1156.0 207.0 z" fill="rgb(255,217,194)" stroke="black"/>
  <text fill="rgb(9,33,173)" font-size="25" x="1213.8" y="139.8">Lback</text>
  <path d="M 1357.0 207.0 L 1498.0 207.0 L 1477.0 60.0 L 1387.0 60.0 Q 1396.0 138.0 1357.0 150.0 Q 1362.7 152.85 1357.0 207.0 z" fill="rgb(255,217,194)" stroke="black"/>
  <text fill="rgb(9,33,173)" font-size="25" x="1390.2" y="139.8">Lfront</text>
</svg>
