<?xml version="1.0" encoding="utf-8" ?>
<svg xmlns="http://www.w3.org/2000/svg" xmlns:ev="http://www.w3.org/2001/xml-events" xmlns:xlink="http://www.w3.org/1999/xlink" baseProfile="full" height="423px" version="1.1" width="1128px">
  <defs/>
  <path d="M 60 363 L 132 363 Q 172.65 106.94999999999999 162 60 L 90 60 Q 104.7 141.75 60 153 Q 81.0 163.5 60 363 z" fill="rgb(255,217,194)" stroke="black"/>
  <text fill="rgb(9,33,173)" font-size="25" x="75.8" y="202.8">Rback</text>
  <path d="M 252 363 L 324 363 Q 303.0 163.5 324 153 Q 283.95 140.25 294 60 L 222 60 Q 211.35 106.94999999999999 252 363 z" fill="rgb(255,217,194)" stroke="black"/>
  <text fill="rgb(9,33,173)" font-size="25" x="258.2" y="202.8">Rfront</text>
  <path d="M 384 168 L 459 168 L 534 168 L 534 117 Q 507.59999999999997 104.7 522 60 L 486 60 Q 459.0 106.0961467558696 432 60 L 396 60 Q 410.40000000000003 104.7 384 117 L 384 168 z" fill="rgb(255,217,194)" stroke="black"/>
  <text fill="rgb(9,33,173)" font-size="25" x="434.0" y="111.66666666666667">up_back</text>
  <path d="M 594 165 L 669 165 L 744 165 L 744 117 Q 717.6 104.7 732 60 L 696 60 L 669 84 L 642 60 L 606 60 Q 620.4 104.7 594 117 L 594 165 z" fill="rgb(255,217,194)" stroke="black"/>
  <text fill="rgb(9,33,173)" font-size="25" x="644.0" y="108.3">up_front</text>
  <path d="M 834 363 L 906 363 Q 885.0 163.5 906 153 Q 861.3 141.75 876 60 L 804 60 Q 793.35 106.94999999999999 834 363 z" fill="rgb(255,217,194)" stroke="black"/>
  <text fill="rgb(9,33,173)" font-size="25" x="840.2" y="202.8">Lback</text>
  <path d="M 966 363 L 1038 363 Q 1078.65 106.94999999999999 1068 60 L 996 60 Q 1006.05 140.25 966 153 Q 987.0 163.5 966 363 z" fill="rgb(255,217,194)" stroke="black"/>
  <text fill="rgb(9,33,173)" font-size="25" x="981.8" y="202.8">Lfront</text>
</svg>
