<?xml version="1.0" encoding="utf-8" ?>
<svg xmlns="http://www.w3.org/2000/svg" xmlns:ev="http://www.w3.org/2001/xml-events" xmlns:xlink="http://www.w3.org/1999/xlink" baseProfile="full" height="363.0px" version="1.1" width="1651.0px">
  <defs/>
  <path d="M 60 177 L 123 177 Q 159.3 89.10000000000001 108 60 L 60 126 L 60 177 z" fill="rgb(255,217,194)" stroke="black"/>
  <text fill="rgb(9,33,173)" font-size="25" x="62.75" y="138.0">rbsleeve</text>
  <path d="M 202.75 111.0 L 250.75 177.0 Q 302.05 147.9 265.75 60.0 L 202.75 60.0 L 202.75 111.0 z" fill="rgb(255,217,194)" stroke="black"/>
  <text fill="rgb(9,33,173)" font-size="25" x="205.5" y="105.0">rfsleeve</text>
  <path d="M 345.5 303.0 L 795.5 303.0 L 660.5 174.0 Q 610.4 145.8 645.5 60.0 L 594.5 60.0 Q 570.5 114.95130500696318 546.5 60.0 L 495.5 60.0 Q 530.6 145.8 480.5 174.0 L 345.5 303.0 z" fill="rgb(255,217,194)" stroke="black"/>
  <text fill="rgb(9,33,173)" font-size="25" x="545.5" y="152.25">back</text>
  <path d="M 855.5 303.0 L 1305.5 303.0 L 1170.5 174.0 Q 1120.4 145.8 1155.5 60.0 L 1104.5 60.0 L 1080.5 138.0 L 1056.5 60.0 L 1005.5 60.0 Q 1040.6 145.8 990.5 174.0 L 855.5 303.0 z" fill="rgb(255,217,194)" stroke="black"/>
  <text fill="rgb(9,33,173)" font-size="25" x="1055.5" y="151.0">front</text>
  <path d="M 1365.5 111.0 L 1413.5 177.0 Q 1464.8 147.9 1428.5 60.0 L 1365.5 60.0 L 1365.5 111.0 z" fill="rgb(255,217,194)" stroke="black"/>
  <text fill="rgb(9,33,173)" font-size="25" x="1368.25" y="105.0">lbsleeve</text>
  <path d="M 1508.25 177.0 L 1571.25 177.0 Q 1607.55 89.10000000000001 1556.25 60.0 L 1508.25 126.0 L 1508.25 177.0 z" fill="rgb(255,217,194)" stroke="black"/>
  <text fill="rgb(9,33,173)" font-size="25" x="1511.0" y="138.0">lfsleeve</text>
</svg>
