<?xml version="1.0" encoding="utf-8" ?>
<svg xmlns="http://www.w3.org/2000/svg" xmlns:ev="http://www.w3.org/2001/xml-events" xmlns:xlink="http://www.w3.org/1999/xlink" baseProfile="full" height="372px" version="1.1" width="1812px">
  <defs/>
  <path d="M 60 219 L 183 219 Q 198.6 172.2 171 159 L 60 60 L 60 219 z" fill="rgb(255,217,194)" stroke="black"/>
  <text fill="rgb(9,33,173)" font-size="25" x="93.5" y="167.25">rbsleeve</text>
  <path d="M 243 219 L 354 120 Q 381.6 106.8 366 60 L 243 60 L 243 219 z" fill="rgb(255,217,194)" stroke="black"/>
  <text fill="rgb(9,33,173)" font-size="25" x="276.5" y="117.75">rfsleeve</text>
  <path d="M 426 312 Q 552.0 192.57766452359704 678 312 L 627 102 L 606 60 L 498 60 L 477 102 L 426 312 z" fill="rgb(255,217,194)" stroke="black"/>
  <text fill="rgb(9,33,173)" font-size="25" x="527.0" y="161.0">skirt_back</text>
  <path d="M 738 312 Q 864.0 284.6819329507253 990 312 L 939 102 L 918 60 L 810 60 L 789 102 L 738 312 z" fill="rgb(255,217,194)" stroke="black"/>
  <text fill="rgb(9,33,173)" font-size="25" x="839.0" y="161.0">skirt_front</text>
  <path d="M 1065 168 L 1173 168 L 1188 117 Q 1161.6000000000001 104.7 1176 60 L 1149 60 Q 1119.0 71.38508494223811 1089 60 L 1062 60 Q 1076.3999999999999 104.7 1050 117 L 1065 168 z" fill="rgb(255,217,194)" stroke="black"/>
  <text fill="rgb(9,33,173)" font-size="25" x="1094.0" y="104.25">top_back</text>
  <path d="M 1263 165 L 1371 165 L 1386 117 Q 1359.6000000000001 104.7 1374 60 L 1347 60 L 1317 78 L 1287 60 L 1260 60 Q 1274.3999999999999 104.7 1248 117 L 1263 165 z" fill="rgb(255,217,194)" stroke="black"/>
  <text fill="rgb(9,33,173)" font-size="25" x="1292.0" y="101.0">top_front</text>
  <path d="M 1446 219 L 1557 120 Q 1584.6 106.8 1569 60 L 1446 60 L 1446 219 z" fill="rgb(255,217,194)" stroke="black"/>
  <text fill="rgb(9,33,173)" font-size="25" x="1479.5" y="117.75">lbsleeve</text>
  <path d="M 1629 219 L 1752 219 Q 1767.6 172.2 1740 159 L 1629 60 L 1629 219 z" fill="rgb(255,217,194)" stroke="black"/>
  <text fill="rgb(9,33,173)" font-size="25" x="1662.5" y="167.25">lfsleeve</text>
</svg>
