<?xml version="1.0" encoding="utf-8" ?>
<svg xmlns="http://www.w3.org/2000/svg" xmlns:ev="http://www.w3.org/2001/xml-events" xmlns:xlink="http://www.w3.org/1999/xlink" baseProfile="full" height="519px" version="1.1" width="976.5px">
  <defs/>
  <path d="M 60 459 L 237 459 L 237 90 L 213 60 L 174 60 Q 210.0 142.5 162 171 L 60 459 z" fill="rgb(255,217,194)" stroke="black"/>
  <text fill="rgb(9,33,173)" font-size="25" x="155.5" y="219.5">front_right</text>
  <path d="M 325.5 459.0 L 679.5 459.0 L 577.5 171.0 Q 529.5 142.5 565.5 60.0 L 526.5 60.0 Q 502.5 100.04802102632337 478.5 60.0 L 439.5 60.0 Q 475.5 142.5 427.5 171.0 L 325.5 459.0 z" fill="rgb(255,217,194)" stroke="black"/>
  <text fill="rgb(9,33,173)" font-size="25" x="477.5" y="190.5">back</text>
  <path d="M 739.5 459.0 L 916.5 459.0 L 814.5 171.0 Q 766.5 142.5 802.5 60.0 L 763.5 60.0 L 739.5 90.0 L 739.5 459.0 z" fill="rgb(255,217,194)" stroke="black"/>
  <text fill="rgb(9,33,173)" font-size="25" x="771.0" y="219.5">front_left</text>
</svg>
