<?xml version="1.0" encoding="utf-8" ?>
<svg xmlns="http://www.w3.org/2000/svg" xmlns:ev="http://www.w3.org/2001/xml-events" xmlns:xlink="http://www.w3.org/1999/xlink" baseProfile="full" height="471.0px" version="1.1" width="1343.0px">
  <defs/>
  <path d="M 60 192 L 123 192 Q 150.6 124.2 111 102 L 60 60 L 60 192 z" fill="rgb(255,217,194)" stroke="black"/>
  <text fill="rgb(9,33,173)" font-size="25" x="63.5" y="139.5">rbsleeve</text>
  <path d="M 203.5 192.0 L 254.5 150.0 Q 294.1 127.8 266.5 60.0 L 203.5 60.0 L 203.5 192.0 z" fill="rgb(255,217,194)" stroke="black"/>
  <text fill="rgb(9,33,173)" font-size="25" x="207.0" y="118.5">rfsleeve</text>
  <path d="M 347.0 411.0 L 470.0 411.0 L 470.0 129.0 L 452.0 60.0 L 401.0 60.0 Q 426.5 129.0 386.0 150.0 L 347.0 411.0 z" fill="rgb(255,217,194)" stroke="black"/>
  <text fill="rgb(9,33,173)" font-size="25" x="396.0" y="206.5">front_right</text>
  <path d="M 566.0 411.0 L 812.0 411.0 L 773.0 150.0 Q 732.5 129.0 758.0 60.0 L 707.0 60.0 Q 689.0 139.75446980365356 671.0 60.0 L 620.0 60.0 Q 645.5 129.0 605.0 150.0 L 566.0 411.0 z" fill="rgb(255,217,194)" stroke="black"/>
  <text fill="rgb(9,33,173)" font-size="25" x="664.0" y="173.25">back</text>
  <path d="M 872.0 411.0 L 995.0 411.0 L 956.0 150.0 Q 915.5 129.0 941.0 60.0 L 890.0 60.0 L 872.0 129.0 L 872.0 411.0 z" fill="rgb(255,217,194)" stroke="black"/>
  <text fill="rgb(9,33,173)" font-size="25" x="896.0" y="206.5">front_left</text>
  <path d="M 1056.0 192.0 L 1107.0 150.0 Q 1146.6 127.8 1119.0 60.0 L 1056.0 60.0 L 1056.0 192.0 z" fill="rgb(255,217,194)" stroke="black"/>
  <text fill="rgb(9,33,173)" font-size="25" x="1059.5" y="118.5">lbsleeve</text>
  <path d="M 1199.5 192.0 L 1262.5 192.0 Q 1290.1 124.2 1250.5 102.0 L 1199.5 60.0 L 1199.5 192.0 z" fill="rgb(255,217,194)" stroke="black"/>
  <text fill="rgb(9,33,173)" font-size="25" x="1203.0" y="139.5">lfsleeve</text>
</svg>
