<?xml version="1.0" encoding="utf-8" ?>
<svg xmlns="http://www.w3.org/2000/svg" xmlns:ev="http://www.w3.org/2001/xml-events" xmlns:xlink="http://www.w3.org/1999/xlink" baseProfile="full" height="390.0px" version="1.1" width="1381.0px">
  <defs/>
  <path d="M 60 165 L 87 165 Q 118.5 85.5 72 60 L 60 93 L 60 165 z" fill="rgb(255,217,194)" stroke="black"/>
  <text fill="rgb(9,33,173)" font-size="25" x="44.75" y="123.75">rbsleeve</text>
  <path d="M 184.75 132.0 L 196.75 165.0 Q 243.25 139.5 211.75 60.0 L 184.75 60.0 L 184.75 132.0 z" fill="rgb(255,217,194)" stroke="black"/>
  <text fill="rgb(9,33,173)" font-size="25" x="169.5" y="107.25">rfsleeve</text>
  <path d="M 327.5 330.0 L 483.5 330.0 L 501.5 165.0 Q 455.0 139.5 486.5 60.0 L 456.5 60.0 L 405.5 69.0 L 354.5 60.0 L 324.5 60.0 Q 356.0 139.5 309.5 165.0 L 327.5 330.0 z" fill="rgb(255,217,194)" stroke="black"/>
  <text fill="rgb(9,33,173)" font-size="25" x="380.5" y="147.33333333333334">back</text>
  <path d="M 579.5 327.0 L 735.5 327.0 L 753.5 162.0 Q 708.2 137.4 738.5 60.0 L 708.5 60.0 L 657.5 69.0 L 606.5 60.0 L 576.5 60.0 Q 606.8 137.39999999999998 561.5 162.0 L 579.5 327.0 z" fill="rgb(255,217,194)" stroke="black"/>
  <text fill="rgb(9,33,173)" font-size="25" x="632.5" y="146.0">front</text>
  <path d="M 828.5 171.0 L 879.5 168.0 Q 948.8 158.10000000000002 912.5 69.0 L 864.5 78.0 L 813.5 60.0 L 828.5 171.0 z" fill="rgb(255,217,194)" stroke="black"/>
  <text fill="rgb(9,33,173)" font-size="25" x="834.7" y="112.2">Rhood</text>
  <path d="M 972.5 171.0 L 1023.5 153.0 L 1071.5 162.0 Q 1107.8000000000002 72.9 1038.5 63.0 L 987.5 60.0 L 972.5 171.0 z" fill="rgb(255,217,194)" stroke="black"/>
  <text fill="rgb(9,33,173)" font-size="25" x="993.7" y="124.8">Lhood</text>
  <path d="M 1131.5 132.0 L 1143.5 165.0 Q 1190.0 139.5 1158.5 60.0 L 1131.5 60.0 L 1131.5 132.0 z" fill="rgb(255,217,194)" stroke="black"/>
  <text fill="rgb(9,33,173)" font-size="25" x="1116.25" y="107.25">lbsleeve</text>
  <path d="M 1256.25 165.0 L 1283.25 165.0 Q 1314.75 85.5 1268.25 60.0 L 1256.25 93.0 L 1256.25 165.0 z" fill="rgb(255,217,194)" stroke="black"/>
  <text fill="rgb(9,33,173)" font-size="25" x="1241.0" y="123.75">lfsleeve</text>
</svg>
