<?xml version="1.0" encoding="utf-8" ?>
<svg xmlns="http://www.w3.org/2000/svg" xmlns:ev="http://www.w3.org/2001/xml-events" xmlns:xlink="http://www.w3.org/1999/xlink" baseProfile="full" height="420px" version="1.1" width="1512px">
  <defs/>
  <path d="M 60 171 L 171 171 Q 207.0 88.50000000000001 159 60 L 60 78 L 60 171 z" fill="rgb(255,217,194)" stroke="black"/>
  <text fill="rgb(9,33,173)" font-size="25" x="87.5" y="123.0">rbsleeve</text>
  <path d="M 231 153 L 330 171 Q 378.0 142.5 342 60 L 231 60 L 231 153 z" fill="rgb(255,217,194)" stroke="black"/>
  <text fill="rgb(9,33,173)" font-size="25" x="258.5" y="114.0">rfsleeve</text>
  <path d="M 402 360 L 600 360 L 570 171 Q 522.0 142.5 558 60 L 531 60 L 501 69 L 471 60 L 444 60 Q 480.0 142.5 432 171 L 402 360 z" fill="rgb(255,217,194)" stroke="black"/>
  <text fill="rgb(9,33,173)" font-size="25" x="476.0" y="155.33333333333334">back</text>
  <path d="M 660 357 L 858 357 L 828 171 Q 780.0 142.5 816 60 L 789 60 L 759 75 L 729 60 L 702 60 Q 738.0 142.5 690 171 L 660 357 z" fill="rgb(255,217,194)" stroke="black"/>
  <text fill="rgb(9,33,173)" font-size="25" x="734.0" y="155.33333333333334">front</text>
  <path d="M 918 171 L 975 171 Q 1037.1000000000001 146.70000000000002 984 72 L 954 81 L 924 60 L 918 171 z" fill="rgb(255,217,194)" stroke="black"/>
  <text fill="rgb(9,33,173)" font-size="25" x="926.0" y="114.0">Rhood</text>
  <path d="M 1050 171 L 1080 150 L 1110 159 Q 1163.1000000000001 84.3 1101 60 L 1044 60 L 1050 171 z" fill="rgb(255,217,194)" stroke="black"/>
  <text fill="rgb(9,33,173)" font-size="25" x="1052.0" y="123.0">Lhood</text>
  <path d="M 1170 153 L 1269 171 Q 1317.0 142.5 1281 60 L 1170 60 L 1170 153 z" fill="rgb(255,217,194)" stroke="black"/>
  <text fill="rgb(9,33,173)" font-size="25" x="1197.5" y="114.0">lbsleeve</text>
  <path d="M 1341 171 L 1452 171 Q 1488.0 88.50000000000001 1440 60 L 1341 78 L 1341 171 z" fill="rgb(255,217,194)" stroke="black"/>
  <text fill="rgb(9,33,173)" font-size="25" x="1368.5" y="123.0">lfsleeve</text>
</svg>
