<?xml version="1.0" encoding="utf-8" ?>
<svg xmlns="http://www.w3.org/2000/svg" xmlns:ev="http://www.w3.org/2001/xml-events" xmlns:xlink="http://www.w3.org/1999/xlink" baseProfile="full" height="426px" version="1.1" width="1788.8px">
  <defs/>
  <path d="M 60 174 L 177 174 Q 186.6 137.7 165 129 L 60 60 L 60 174 z" fill="rgb(255,217,194)" stroke="black"/>
  <text fill="rgb(9,33,173)" font-size="25" x="90.5" y="137.25">rbsleeve</text>
  <path d="M 237 174 L 342 105 Q 363.6 96.3 354 60 L 237 60 L 237 174 z" fill="rgb(255,217,194)" stroke="black"/>
  <text fill="rgb(9,33,173)" font-size="25" x="267.5" y="102.75">rfsleeve</text>
  <path d="M 414 366 L 462 366 Q 515.55 108.15000000000003 507 60 L 444 60 Q 458.7 141.75 414 153 Q 435.3 163.65 414 366 z" fill="rgb(255,217,194)" stroke="black"/>
  <text fill="rgb(9,33,173)" font-size="25" x="423.2" y="204.0">Rback</text>
  <path d="M 612 366 L 660 366 Q 638.7 163.65 660 153 Q 619.95 140.25 630 60 L 567 60 Q 558.45 108.15 612 366 z" fill="rgb(255,217,194)" stroke="black"/>
  <text fill="rgb(9,33,173)" font-size="25" x="600.8" y="204.0">Rfront</text>
  <path d="M 726.8 168.0 L 792.8 168.0 L 858.8 168.0 L 864.8 108.0 Q 841.9999999999999 98.39999999999999 852.8 60.0 L 825.8 60.0 Q 792.8 133.97033226748147 759.8 60.0 L 732.8 60.0 Q 743.6 98.39999999999999 720.8 108.0 L 726.8 168.0 z" fill="rgb(255,217,194)" stroke="black"/>
  <text fill="rgb(9,33,173)" font-size="25" x="767.8000000000001" y="109.66666666666667">up_back</text>
  <path d="M 930.8 165.0 L 996.8 165.0 L 1062.8 165.0 L 1068.8 108.0 Q 1046.0 98.39999999999999 1056.8 60.0 L 1029.8 60.0 L 996.8 135.0 L 963.8 60.0 L 936.8 60.0 Q 947.6 98.39999999999999 924.8 108.0 L 930.8 165.0 z" fill="rgb(255,217,194)" stroke="black"/>
  <text fill="rgb(9,33,173)" font-size="25" x="971.8" y="111.6">up_front</text>
  <path d="M 1173.8 366.0 L 1221.8 366.0 Q 1200.5 163.65 1221.8 153.0 Q 1177.1 141.75 1191.8 60.0 L 1128.8 60.0 Q 1120.25 108.15 1173.8 366.0 z" fill="rgb(255,217,194)" stroke="black"/>
  <text fill="rgb(9,33,173)" font-size="25" x="1162.6" y="204.0">Lback</text>
  <path d="M 1281.8 366.0 L 1329.8 366.0 Q 1383.35 108.15000000000003 1374.8 60.0 L 1311.8 60.0 Q 1321.85 140.25 1281.8 153.0 Q 1303.1 163.65 1281.8 366.0 z" fill="rgb(255,217,194)" stroke="black"/>
  <text fill="rgb(9,33,173)" font-size="25" x="1291.0" y="204.0">Lfront</text>
  <path d="M 1434.8 174.0 L 1539.8 105.0 Q 1561.3999999999999 96.3 1551.8 60.0 L 1434.8 60.0 L 1434.8 174.0 z" fill="rgb(255,217,194)" stroke="black"/>
  <text fill="rgb(9,33,173)" font-size="25" x="1465.3" y="102.75">lbsleeve</text>
  <path d="M 1611.8 174.0 L 1728.8 174.0 Q 1738.3999999999999 137.7 1716.8 129.0 L 1611.8 60.0 L 1611.8 174.0 z" fill="rgb(255,217,194)" stroke="black"/>
  <text fill="rgb(9,33,173)" font-size="25" x="1642.3" y="137.25">lfsleeve</text>
</svg>
