<?xml version="1.0" encoding="utf-8" ?>
<svg xmlns="http://www.w3.org/2000/svg" xmlns:ev="http://www.w3.org/2001/xml-events" xmlns:xlink="http://www.w3.org/1999/xlink" baseProfile="full" height="354px" version="1.1" width="1558.0px">
  <defs/>
  <path d="M 60 294 L 183 294 L 192 60 L 90 60 Q 105.9 144.0 60 156 Q 73.8 162.9 60 294 z" fill="rgb(255,217,194)" stroke="black"/>
  <text fill="rgb(9,33,173)" font-size="25" x="92.0" y="175.8">Rback</text>
  <path d="M 261 294 L 384 294 Q 370.2 162.9 384 156 Q 342.9 142.5 354 60 L 252 60 L 261 294 z" fill="rgb(255,217,194)" stroke="black"/>
  <text fill="rgb(9,33,173)" font-size="25" x="302.0" y="175.8">Rfront</text>
  <path d="M 444 69 L 483 69 L 522 69 L 522 60 L 444 60 L 444 69 z" fill="rgb(255,217,194)" stroke="black"/>
  <text fill="rgb(9,33,173)" font-size="25" x="458.0" y="68.4">wb_back</text>
  <path d="M 588.0 69.0 L 627.0 69.0 L 666.0 69.0 L 666.0 60.0 L 588.0 60.0 L 588.0 69.0 z" fill="rgb(255,217,194)" stroke="black"/>
  <text fill="rgb(9,33,173)" font-size="25" x="602.0" y="68.4">wb_front</text>
  <path d="M 742.0 162.0 L 898.0 162.0 L 898.0 111.0 Q 874.0 100.5 886.0 60.0 L 844.0 60.0 Q 820.0 115.54671150358284 796.0 60.0 L 754.0 60.0 Q 766.0 100.49999999999999 742.0 111.0 L 742.0 162.0 z" fill="rgb(255,217,194)" stroke="black"/>
  <text fill="rgb(9,33,173)" font-size="25" x="795.0" y="101.25">top_back</text>
  <path d="M 958.0 162.0 L 1114.0 162.0 L 1114.0 111.0 Q 1090.0 100.5 1102.0 60.0 L 1060.0 60.0 L 1036.0 63.0 L 1012.0 60.0 L 970.0 60.0 Q 982.0 100.49999999999999 958.0 111.0 L 958.0 162.0 z" fill="rgb(255,217,194)" stroke="black"/>
  <text fill="rgb(9,33,173)" font-size="25" x="1011.0" y="97.33333333333333">top_front</text>
  <path d="M 1183.0 294.0 L 1306.0 294.0 Q 1292.2 162.9 1306.0 156.0 Q 1260.1 144.0 1276.0 60.0 L 1174.0 60.0 L 1183.0 294.0 z" fill="rgb(255,217,194)" stroke="black"/>
  <text fill="rgb(9,33,173)" font-size="25" x="1224.0" y="175.8">Lback</text>
  <path d="M 1366.0 294.0 L 1489.0 294.0 L 1498.0 60.0 L 1396.0 60.0 Q 1407.1 142.5 1366.0 156.0 Q 1379.8 162.9 1366.0 294.0 z" fill="rgb(255,217,194)" stroke="black"/>
  <text fill="rgb(9,33,173)" font-size="25" x="1398.0" y="175.8">Lfront</text>
</svg>
