<?xml version="1.0" encoding="utf-8" ?>
<svg xmlns="http://www.w3.org/2000/svg" xmlns:ev="http://www.w3.org/2001/xml-events" xmlns:xlink="http://www.w3.org/1999/xlink" baseProfile="full" height="264.0px" version="1.1" width="1879.0px">
  <defs/>
  <path d="M 60 192 L 141 192 Q 154.5 144.0 126 132 L 60 60 L 60 192 z" fill="rgb(255,217,194)" stroke="black"/>
  <text fill="rgb(9,33,173)" font-size="25" x="71.75" y="147.0">rbsleeve</text>
  <path d="M 211.75 192.0 L 277.75 120.0 Q 306.25 108.0 292.75 60.0 L 211.75 60.0 L 211.75 192.0 z" fill="rgb(255,217,194)" stroke="black"/>
  <text fill="rgb(9,33,173)" font-size="25" x="223.5" y="111.0">rfsleeve</text>
  <path d="M 363.5 204.0 Q 507.5 146.58083148900607 651.5 204.0 L 591.5 102.0 L 582.5 60.0 L 432.5 60.0 L 423.5 102.0 L 363.5 204.0 z" fill="rgb(255,217,194)" stroke="black"/>
  <text fill="rgb(9,33,173)" font-size="25" x="482.5" y="125.0">skirt_back</text>
  <path d="M 711.5 204.0 Q 855.5 166.8312165369544 999.5 204.0 L 939.5 102.0 L 930.5 60.0 L 780.5 60.0 L 771.5 102.0 L 711.5 204.0 z" fill="rgb(255,217,194)" stroke="black"/>
  <text fill="rgb(9,33,173)" font-size="25" x="830.5" y="125.0">skirt_front</text>
  <path d="M 1083.5 168.0 L 1233.5 168.0 L 1257.5 120.0 Q 1229.0 108.0 1242.5 60.0 L 1203.5 60.0 Q 1158.5 153.05174340394865 1113.5 60.0 L 1074.5 60.0 Q 1088.0 108.0 1059.5 120.0 L 1083.5 168.0 z" fill="rgb(255,217,194)" stroke="black"/>
  <text fill="rgb(9,33,173)" font-size="25" x="1133.5" y="105.0">top_back</text>
  <path d="M 1341.5 165.0 L 1491.5 165.0 L 1515.5 117.0 Q 1488.2 105.9 1500.5 60.0 L 1461.5 60.0 L 1416.5 87.0 L 1371.5 60.0 L 1332.5 60.0 Q 1344.8 105.9 1317.5 117.0 L 1341.5 165.0 z" fill="rgb(255,217,194)" stroke="black"/>
  <text fill="rgb(9,33,173)" font-size="25" x="1391.5" y="102.0">top_front</text>
  <path d="M 1575.5 192.0 L 1641.5 120.0 Q 1670.0 108.0 1656.5 60.0 L 1575.5 60.0 L 1575.5 192.0 z" fill="rgb(255,217,194)" stroke="black"/>
  <text fill="rgb(9,33,173)" font-size="25" x="1587.25" y="111.0">lbsleeve</text>
  <path d="M 1727.25 192.0 L 1808.25 192.0 Q 1821.75 144.0 1793.25 132.0 L 1727.25 60.0 L 1727.25 192.0 z" fill="rgb(255,217,194)" stroke="black"/>
  <text fill="rgb(9,33,173)" font-size="25" x="1739.0" y="147.0">lfsleeve</text>
</svg>
