<?xml version="1.0" encoding="utf-8" ?>
<svg xmlns="http://www.w3.org/2000/svg" xmlns:ev="http://www.w3.org/2001/xml-events" xmlns:xlink="http://www.w3.org/1999/xlink" baseProfile="full" height="420.0px" version="1.1" width="1154.0px">
  <defs/>
  <path d="M 60 162 L 96 162 Q 106.8 123.60000000000001 84 114 L 60 60 L 60 162 z" fill="rgb(255,217,194)" stroke="black"/>
  <text fill="rgb(9,33,173)" font-size="25" x="50.0" y="127.5">rbsleeve</text>
  <path d="M 190.0 162.0 L 214.0 108.0 Q 236.8 98.39999999999999 226.0 60.0 L 190.0 60.0 L 190.0 162.0 z" fill="rgb(255,217,194)" stroke="black"/>
  <text fill="rgb(9,33,173)" font-size="25" x="180.0" y="100.5">rfsleeve</text>
  <path d="M 320.0 357.0 L 398.0 357.0 L 398.0 129.0 L 377.0 60.0 L 344.0 60.0 Q 356.0 100.49999999999999 332.0 111.0 L 320.0 357.0 z" fill="rgb(255,217,194)" stroke="black"/>
  <text fill="rgb(9,33,173)" font-size="25" x="336.5" y="182.0">front_right</text>
  <path d="M 506.5 360.0 L 662.5 360.0 L 650.5 111.0 Q 626.5 100.5 638.5 60.0 L 605.5 60.0 Q 584.5 98.68461462226624 563.5 60.0 L 530.5 60.0 Q 542.5 100.49999999999999 518.5 111.0 L 506.5 360.0 z" fill="rgb(255,217,194)" stroke="black"/>
  <text fill="rgb(9,33,173)" font-size="25" x="559.5" y="150.75">back</text>
  <path d="M 722.5 357.0 L 800.5 357.0 L 788.5 111.0 Q 764.5 100.5 776.5 60.0 L 743.5 60.0 L 722.5 129.0 L 722.5 357.0 z" fill="rgb(255,217,194)" stroke="black"/>
  <text fill="rgb(9,33,173)" font-size="25" x="734.0" y="182.0">front_left</text>
  <path d="M 894.0 162.0 L 918.0 108.0 Q 940.8000000000001 98.39999999999999 930.0 60.0 L 894.0 60.0 L 894.0 162.0 z" fill="rgb(255,217,194)" stroke="black"/>
  <text fill="rgb(9,33,173)" font-size="25" x="884.0" y="100.5">lbsleeve</text>
  <path d="M 1024.0 162.0 L 1060.0 162.0 Q 1070.8 123.60000000000001 1048.0 114.0 L 1024.0 60.0 L 1024.0 162.0 z" fill="rgb(255,217,194)" stroke="black"/>
  <text fill="rgb(9,33,173)" font-size="25" x="1014.0" y="127.5">lfsleeve</text>
</svg>
