<?xml version="1.0" encoding="utf-8" ?>
<svg xmlns="http://www.w3.org/2000/svg" xmlns:ev="http://www.w3.org/2001/xml-events" xmlns:xlink="http://www.w3.org/1999/xlink" baseProfile="full" height="363px" version="1.1" width="1450.0px">
  <defs/>
  <path d="M 60 303 L 336 303 L 336 60 L 60 60 L 60 303 z" fill="rgb(255,217,194)" stroke="black"/>
  <text fill="rgb(9,33,173)" font-size="25" x="173.0" y="184.5">skirt_back</text>
  <path d="M 396 78 L 486 78 L 486 60 L 396 60 L 396 78 z" fill="rgb(255,217,194)" stroke="black"/>
  <text fill="rgb(9,33,173)" font-size="25" x="416.0" y="72.0">wb_back</text>
  <path d="M 546 78 L 636 78 L 636 60 L 546 60 L 546 78 z" fill="rgb(255,217,194)" stroke="black"/>
  <text fill="rgb(9,33,173)" font-size="25" x="566.0" y="72.0">wb_front</text>
  <path d="M 706.0 303.0 L 982.0 303.0 L 982.0 60.0 L 706.0 60.0 L 706.0 303.0 z" fill="rgb(255,217,194)" stroke="black"/>
  <text fill="rgb(9,33,173)" font-size="25" x="819.0" y="184.5">skirt_front</text>
  <path d="M 1042.0 168.0 L 1186.0 168.0 L 1186.0 123.0 Q 1158.1 107.69999999999999 1177.0 60.0 L 1141.0 60.0 Q 1114.0 103.79845863498477 1087.0 60.0 L 1051.0 60.0 Q 1069.9 107.69999999999999 1042.0 123.0 L 1042.0 168.0 z" fill="rgb(255,217,194)" stroke="black"/>
  <text fill="rgb(9,33,173)" font-size="25" x="1089.0" y="105.75">top_back</text>
  <path d="M 1246.0 168.0 L 1390.0 168.0 L 1390.0 120.0 Q 1363.3 105.6 1381.0 60.0 L 1345.0 60.0 L 1318.0 132.0 L 1291.0 60.0 L 1255.0 60.0 Q 1272.7 105.6 1246.0 120.0 L 1246.0 168.0 z" fill="rgb(255,217,194)" stroke="black"/>
  <text fill="rgb(9,33,173)" font-size="25" x="1293.0" y="108.33333333333333">top_front</text>
</svg>
