<?xml version="1.0" encoding="utf-8" ?>
<svg xmlns="http://www.w3.org/2000/svg" xmlns:ev="http://www.w3.org/2001/xml-events" xmlns:xlink="http://www.w3.org/1999/xlink" baseProfile="full" height="345.0px" version="1.1" width="1768.0px">
  <defs/>
  <path d="M 60 201 L 126 201 Q 150.0 139.5 114 120 L 60 60 L 60 201 z" fill="rgb(255,217,194)" stroke="black"/>
  <text fill="rgb(9,33,173)" font-size="25" x="65.0" y="148.5">rbsleeve</text>
  <path d="M 205.0 201.0 L 259.0 141.0 Q 295.0 121.5 271.0 60.0 L 205.0 60.0 L 205.0 201.0 z" fill="rgb(255,217,194)" stroke="black"/>
  <text fill="rgb(9,33,173)" font-size="25" x="210.0" y="118.5">rfsleeve</text>
  <path d="M 350.0 285.0 L 428.0 285.0 Q 467.3 95.4 461.0 60.0 L 380.0 60.0 Q 394.7 141.75 350.0 153.0 Q 363.2 159.6 350.0 285.0 z" fill="rgb(255,217,194)" stroke="black"/>
  <text fill="rgb(9,33,173)" font-size="25" x="368.8" y="171.6">Rback</text>
  <path d="M 554.0 285.0 L 632.0 285.0 Q 618.8 159.60000000000002 632.0 153.0 Q 591.95 140.25 602.0 60.0 L 521.0 60.0 Q 514.7 95.4 554.0 285.0 z" fill="rgb(255,217,194)" stroke="black"/>
  <text fill="rgb(9,33,173)" font-size="25" x="563.2" y="171.6">Rfront</text>
  <path d="M 692.0 168.0 L 773.0 168.0 L 854.0 168.0 L 848.0 138.0 Q 813.1999999999999 119.39999999999999 836.0 60.0 L 815.0 60.0 Q 773.0 70.19905942252046 731.0 60.0 L 710.0 60.0 Q 732.8000000000001 119.39999999999999 698.0 138.0 L 692.0 168.0 z" fill="rgb(255,217,194)" stroke="black"/>
  <text fill="rgb(9,33,173)" font-size="25" x="748.0" y="116.33333333333333">up_back</text>
  <path d="M 914.0 165.0 L 995.0 165.0 L 1076.0 165.0 L 1070.0 138.0 Q 1035.2 119.39999999999999 1058.0 60.0 L 1037.0 60.0 L 995.0 129.0 L 953.0 60.0 L 932.0 60.0 Q 954.8000000000001 119.39999999999999 920.0 138.0 L 914.0 165.0 z" fill="rgb(255,217,194)" stroke="black"/>
  <text fill="rgb(9,33,173)" font-size="25" x="970.0" y="117.0">up_front</text>
  <path d="M 1169.0 285.0 L 1247.0 285.0 Q 1233.8 159.60000000000002 1247.0 153.0 Q 1202.3 141.75 1217.0 60.0 L 1136.0 60.0 Q 1129.7 95.4 1169.0 285.0 z" fill="rgb(255,217,194)" stroke="black"/>
  <text fill="rgb(9,33,173)" font-size="25" x="1178.2" y="171.6">Lback</text>
  <path d="M 1307.0 285.0 L 1385.0 285.0 Q 1424.3 95.4 1418.0 60.0 L 1337.0 60.0 Q 1347.05 140.25 1307.0 153.0 Q 1320.2 159.6 1307.0 285.0 z" fill="rgb(255,217,194)" stroke="black"/>
  <text fill="rgb(9,33,173)" font-size="25" x="1325.8" y="171.6">Lfront</text>
  <path d="M 1478.0 201.0 L 1532.0 141.0 Q 1568.0 121.5 1544.0 60.0 L 1478.0 60.0 L 1478.0 201.0 z" fill="rgb(255,217,194)" stroke="black"/>
  <text fill="rgb(9,33,173)" font-size="25" x="1483.0" y="118.5">lbsleeve</text>
  <path d="M 1623.0 201.0 L 1689.0 201.0 Q 1713.0 139.5 1677.0 120.0 L 1623.0 60.0 L 1623.0 201.0 z" fill="rgb(255,217,194)" stroke="black"/>
  <text fill="rgb(9,33,173)" font-size="25" x="1628.0" y="148.5">lfsleeve</text>
</svg>
