<?xml version="1.0" encoding="utf-8" ?>
<svg xmlns="http://www.w3.org/2000/svg" xmlns:ev="http://www.w3.org/2001/xml-events" xmlns:xlink="http://www.w3.org/1999/xlink" baseProfile="full" height="333px" version="1.1" width="1462.0px">
  <defs/>
  <path d="M 60 273 L 150 273 L 168 60 L 90 60 Q 103.5 139.5 60 150 Q 72.3 156.15 60 273 z" fill="rgb(255,217,194)" stroke="black"/>
  <text fill="rgb(9,33,173)" font-size="25" x="80.6" y="166.2">Rback</text>
  <path d="M 246 273 L 336 273 Q 323.7 156.15 336 150 Q 297.0 138.0 306 60 L 228 60 L 246 273 z" fill="rgb(255,217,194)" stroke="black"/>
  <text fill="rgb(9,33,173)" font-size="25" x="265.4" y="166.2">Rfront</text>
  <path d="M 396 78 L 435 78 L 474 78 L 474 60 L 396 60 L 396 78 z" fill="rgb(255,217,194)" stroke="black"/>
  <text fill="rgb(9,33,173)" font-size="25" x="410.0" y="73.8">wb_back</text>
  <path d="M 540.0 78.0 L 579.0 78.0 L 618.0 78.0 L 618.0 60.0 L 540.0 60.0 L 540.0 78.0 z" fill="rgb(255,217,194)" stroke="black"/>
  <text fill="rgb(9,33,173)" font-size="25" x="554.0" y="73.8">wb_front</text>
  <path d="M 694.0 174.0 L 850.0 174.0 L 850.0 147.0 Q 811.6 125.7 838.0 60.0 L 796.0 60.0 Q 772.0 142.59593621233026 748.0 60.0 L 706.0 60.0 Q 732.4 125.7 694.0 147.0 L 694.0 174.0 z" fill="rgb(255,217,194)" stroke="black"/>
  <text fill="rgb(9,33,173)" font-size="25" x="747.0" y="113.25">top_back</text>
  <path d="M 910.0 174.0 L 1066.0 174.0 L 1066.0 144.0 Q 1028.8000000000002 123.6 1054.0 60.0 L 1012.0 60.0 L 988.0 120.0 L 964.0 60.0 L 922.0 60.0 Q 947.2 123.6 910.0 144.0 L 910.0 174.0 z" fill="rgb(255,217,194)" stroke="black"/>
  <text fill="rgb(9,33,173)" font-size="25" x="963.0" y="113.66666666666667">top_front</text>
  <path d="M 1144.0 273.0 L 1234.0 273.0 Q 1221.7 156.15 1234.0 150.0 Q 1190.5 139.5 1204.0 60.0 L 1126.0 60.0 L 1144.0 273.0 z" fill="rgb(255,217,194)" stroke="black"/>
  <text fill="rgb(9,33,173)" font-size="25" x="1163.4" y="166.2">Lback</text>
  <path d="M 1294.0 273.0 L 1384.0 273.0 L 1402.0 60.0 L 1324.0 60.0 Q 1333.0 138.0 1294.0 150.0 Q 1306.3 156.15 1294.0 273.0 z" fill="rgb(255,217,194)" stroke="black"/>
  <text fill="rgb(9,33,173)" font-size="25" x="1314.6" y="166.2">Lfront</text>
</svg>
