<?xml version="1.0" encoding="utf-8" ?>
<svg xmlns="http://www.w3.org/2000/svg" xmlns:ev="http://www.w3.org/2001/xml-events" xmlns:xlink="http://www.w3.org/1999/xlink" baseProfile="full" height="372px" version="1.1" width="1848px">
  <defs/>
  <path d="M 60 198 L 201 198 Q 224.7 141.9 192 123 L 60 60 L 60 198 z" fill="rgb(255,217,194)" stroke="black"/>
  <text fill="rgb(9,33,173)" font-size="25" x="103.25" y="147.75">rbsleeve</text>
  <path d="M 261 198 L 393 135 Q 425.7 116.1 402 60 L 261 60 L 261 198 z" fill="rgb(255,217,194)" stroke="black"/>
  <text fill="rgb(9,33,173)" font-size="25" x="304.25" y="116.25">rfsleeve</text>
  <path d="M 462 312 L 534 312 Q 564.45 98.85000000000001 555 60 L 492 60 Q 506.7 141.75 462 153 Q 477.9 160.95 462 312 z" fill="rgb(255,217,194)" stroke="black"/>
  <text fill="rgb(9,33,173)" font-size="25" x="476.0" y="182.4">Rback</text>
  <path d="M 636 312 L 708 312 Q 692.1 160.95000000000002 708 153 Q 667.95 140.25 678 60 L 615 60 Q 605.55 98.85 636 312 z" fill="rgb(255,217,194)" stroke="black"/>
  <text fill="rgb(9,33,173)" font-size="25" x="644.0" y="182.4">Rfront</text>
  <path d="M 768 168 L 831 168 L 894 168 L 891 135 Q 858.3 116.1 882 60 L 858 60 Q 831.0 122.0394184038988 804 60 L 780 60 Q 803.7 116.1 771 135 L 768 168 z" fill="rgb(255,217,194)" stroke="black"/>
  <text fill="rgb(9,33,173)" font-size="25" x="806.0" y="115.66666666666667">up_back</text>
  <path d="M 954 165 L 1017 165 L 1080 165 L 1077 135 Q 1044.3 116.1 1068 60 L 1044 60 L 1017 96 L 990 60 L 966 60 Q 989.7 116.1 957 135 L 954 165 z" fill="rgb(255,217,194)" stroke="black"/>
  <text fill="rgb(9,33,173)" font-size="25" x="992.0" y="113.1">up_front</text>
  <path d="M 1161 312 L 1233 312 Q 1217.1 160.95000000000002 1233 153 Q 1188.3 141.75 1203 60 L 1140 60 Q 1130.5500000000002 98.85 1161 312 z" fill="rgb(255,217,194)" stroke="black"/>
  <text fill="rgb(9,33,173)" font-size="25" x="1169.0" y="182.4">Lback</text>
  <path d="M 1293 312 L 1365 312 Q 1395.4499999999998 98.85000000000001 1386 60 L 1323 60 Q 1333.05 140.25 1293 153 Q 1308.9 160.95 1293 312 z" fill="rgb(255,217,194)" stroke="black"/>
  <text fill="rgb(9,33,173)" font-size="25" x="1307.0" y="182.4">Lfront</text>
  <path d="M 1446 198 L 1578 135 Q 1610.7 116.1 1587 60 L 1446 60 L 1446 198 z" fill="rgb(255,217,194)" stroke="black"/>
  <text fill="rgb(9,33,173)" font-size="25" x="1489.25" y="116.25">lbsleeve</text>
  <path d="M 1647 198 L 1788 198 Q 1811.7 141.9 1779 123 L 1647 60 L 1647 198 z" fill="rgb(255,217,194)" stroke="black"/>
  <text fill="rgb(9,33,173)" font-size="25" x="1690.25" y="147.75">lfsleeve</text>
</svg>
