<?xml version="1.0" encoding="utf-8" ?>
<svg xmlns="http://www.w3.org/2000/svg" xmlns:ev="http://www.w3.org/2001/xml-events" xmlns:xlink="http://www.w3.org/1999/xlink" baseProfile="full" height="303px" version="1.1" width="853.0px">
  <defs/>
  <path d="M 60 243 L 204 243 L 204 129 L 189 60 L 144 60 Q 159.29999999999998 101.39999999999999 135 114 L 60 243 z" fill="rgb(255,217,194)" stroke="black"/>
  <text fill="rgb(9,33,173)" font-size="25" x="131.0" y="144.5">front_right</text>
  <path d="M 301.0 243.0 L 589.0 243.0 L 514.0 117.0 Q 488.5 103.5 505.0 60.0 L 460.0 60.0 Q 445.0 131.4696296245682 430.0 60.0 L 385.0 60.0 Q 401.5 103.5 376.0 117.0 L 301.0 243.0 z" fill="rgb(255,217,194)" stroke="black"/>
  <text fill="rgb(9,33,173)" font-size="25" x="420.0" y="123.0">back</text>
  <path d="M 649.0 243.0 L 793.0 243.0 L 718.0 114.0 Q 693.6999999999999 101.39999999999999 709.0 60.0 L 664.0 60.0 L 649.0 129.0 L 649.0 243.0 z" fill="rgb(255,217,194)" stroke="black"/>
  <text fill="rgb(9,33,173)" font-size="25" x="672.0" y="144.5">front_left</text>
</svg>
