<?xml version="1.0" encoding="utf-8" ?>
<svg xmlns="http://www.w3.org/2000/svg" xmlns:ev="http://www.w3.org/2001/xml-events" xmlns:xlink="http://www.w3.org/1999/xlink" baseProfile="full" height="375px" version="1.1" width="1217.0px">
  <defs/>
  <path d="M 60 315 L 216 315 L 216 60 L 60 60 L 60 315 z" fill="rgb(255,217,194)" stroke="black"/>
  <text fill="rgb(9,33,173)" font-size="25" x="113.0" y="190.5">skirt_back</text>
  <path d="M 276 72 L 366 72 L 366 60 L 276 60 L 276 72 z" fill="rgb(255,217,194)" stroke="black"/>
  <text fill="rgb(9,33,173)" font-size="25" x="296.0" y="69.0">wb_back</text>
  <path d="M 426 72 L 516 72 L 516 60 L 426 60 L 426 72 z" fill="rgb(255,217,194)" stroke="black"/>
  <text fill="rgb(9,33,173)" font-size="25" x="446.0" y="69.0">wb_front</text>
  <path d="M 586.0 315.0 L 742.0 315.0 L 742.0 60.0 L 586.0 60.0 L 586.0 315.0 z" fill="rgb(255,217,194)" stroke="black"/>
  <text fill="rgb(9,33,173)" font-size="25" x="639.0" y="190.5">skirt_front</text>
  <path d="M 809.0 156.0 L 953.0 156.0 L 953.0 111.0 Q 929.9 99.3 944.0 60.0 L 893.0 60.0 Q 881.0 74.89791022190872 869.0 60.0 L 818.0 60.0 Q 832.1 99.29999999999998 809.0 111.0 L 809.0 156.0 z" fill="rgb(255,217,194)" stroke="black"/>
  <text fill="rgb(9,33,173)" font-size="25" x="856.0" y="99.75">top_back</text>
  <path d="M 1013.0 156.0 L 1157.0 156.0 L 1157.0 111.0 Q 1133.8999999999999 99.3 1148.0 60.0 L 1097.0 60.0 L 1085.0 96.0 L 1073.0 60.0 L 1022.0 60.0 Q 1036.1000000000001 99.29999999999998 1013.0 111.0 L 1013.0 156.0 z" fill="rgb(255,217,194)" stroke="black"/>
  <text fill="rgb(9,33,173)" font-size="25" x="1060.0" y="99.66666666666667">top_front</text>
</svg>
