<?xml version="1.0" encoding="utf-8" ?>
<svg xmlns="http://www.w3.org/2000/svg" xmlns:ev="http://www.w3.org/2001/xml-events" xmlns:xlink="http://www.w3.org/1999/xlink" baseProfile="full" height="378px" version="1.1" width="1140px">
  <defs/>
  <path d="M 60 318 L 174 318 Q 169.05 97.65000000000002 153 60 L 90 60 Q 104.7 141.75 60 153 Q 76.5 161.25 60 318 z" fill="rgb(255,217,194)" stroke="black"/>
  <text fill="rgb(9,33,173)" font-size="25" x="82.4" y="184.8">Rback</text>
  <path d="M 234 318 L 348 318 Q 331.5 161.25 348 153 Q 307.95 140.25 318 60 L 255 60 Q 238.95 97.64999999999999 234 318 z" fill="rgb(255,217,194)" stroke="black"/>
  <text fill="rgb(9,33,173)" font-size="25" x="275.6" y="184.8">Rfront</text>
  <path d="M 408 168 L 474 168 L 540 168 L 537 117 Q 510.59999999999997 104.7 525 60 L 495 60 Q 474.0 108.5117452205019 453 60 L 423 60 Q 437.40000000000003 104.7 411 117 L 408 168 z" fill="rgb(255,217,194)" stroke="black"/>
  <text fill="rgb(9,33,173)" font-size="25" x="449.0" y="111.66666666666667">up_back</text>
  <path d="M 600 165 L 666 165 L 732 165 L 729 114 Q 703.8 102.6 717 60 L 687 60 L 666 123 L 645 60 L 615 60 Q 628.2 102.6 603 114 L 600 165 z" fill="rgb(255,217,194)" stroke="black"/>
  <text fill="rgb(9,33,173)" font-size="25" x="641.0" y="111.6">up_front</text>
  <path d="M 792 318 L 906 318 Q 889.5 161.25 906 153 Q 861.3 141.75 876 60 L 813 60 Q 796.95 97.64999999999999 792 318 z" fill="rgb(255,217,194)" stroke="black"/>
  <text fill="rgb(9,33,173)" font-size="25" x="833.6" y="184.8">Lback</text>
  <path d="M 966 318 L 1080 318 Q 1075.0500000000002 97.65000000000002 1059 60 L 996 60 Q 1006.05 140.25 966 153 Q 982.5 161.25 966 318 z" fill="rgb(255,217,194)" stroke="black"/>
  <text fill="rgb(9,33,173)" font-size="25" x="988.4" y="184.8">Lfront</text>
</svg>
