<?xml version="1.0" encoding="utf-8" ?>
<svg xmlns="http://www.w3.org/2000/svg" xmlns:ev="http://www.w3.org/2001/xml-events" xmlns:xlink="http://www.w3.org/1999/xlink" baseProfile="full" height="213.0px" version="1.1" width="866.5px">
  <defs/>
  <path d="M 60 150 L 207 150 L 207 69 L 192 60 L 153 60 Q 168.29999999999998 101.39999999999999 144 114 L 60 150 z" fill="rgb(255,217,194)" stroke="black"/>
  <text fill="rgb(9,33,173)" font-size="25" x="135.5" y="103.5">front_right</text>
  <path d="M 305.5 153.0 L 599.5 153.0 L 515.5 117.0 Q 489.99999999999994 103.5 506.5 60.0 L 467.5 60.0 Q 452.5 98.90296202781944 437.5 60.0 L 398.5 60.0 Q 415.0 103.5 389.5 117.0 L 305.5 153.0 z" fill="rgb(255,217,194)" stroke="black"/>
  <text fill="rgb(9,33,173)" font-size="25" x="427.5" y="100.5">back</text>
  <path d="M 659.5 150.0 L 806.5 150.0 L 722.5 114.0 Q 698.1999999999999 101.39999999999999 713.5 60.0 L 674.5 60.0 L 659.5 69.0 L 659.5 150.0 z" fill="rgb(255,217,194)" stroke="black"/>
  <text fill="rgb(9,33,173)" font-size="25" x="681.0" y="103.5">front_left</text>
</svg>
