<?xml version="1.0" encoding="utf-8" ?>
<svg xmlns="http://www.w3.org/2000/svg" xmlns:ev="http://www.w3.org/2001/xml-events" xmlns:xlink="http://www.w3.org/1999/xlink" baseProfile="full" height="270px" version="1.1" width="1657.0px">
  <defs/>
  <path d="M 60 210 L 111 210 Q 121.5 177.0 102 168 L 60 60 L 60 210 z" fill="rgb(255,217,194)" stroke="black"/>
  <text fill="rgb(9,33,173)" font-size="25" x="58.25" y="165.0">rbsleeve</text>
  <path d="M 198.25 210.0 L 240.25 102.0 Q 259.75 93.0 249.25 60.0 L 198.25 60.0 L 198.25 210.0 z" fill="rgb(255,217,194)" stroke="black"/>
  <text fill="rgb(9,33,173)" font-size="25" x="196.5" y="111.0">rfsleeve</text>
  <path d="M 336.5 180.0 L 414.5 180.0 Q 438.35 79.05 435.5 60.0 L 366.5 60.0 Q 381.2 141.75 336.5 153.0 Q 339.2 154.35 336.5 180.0 z" fill="rgb(255,217,194)" stroke="black"/>
  <text fill="rgb(9,33,173)" font-size="25" x="352.9" y="129.6">Rback</text>
  <path d="M 516.5 180.0 L 594.5 180.0 Q 591.8 154.35 594.5 153.0 Q 554.45 140.25 564.5 60.0 L 495.5 60.0 Q 492.65 79.05 516.5 180.0 z" fill="rgb(255,217,194)" stroke="black"/>
  <text fill="rgb(9,33,173)" font-size="25" x="528.1" y="129.6">Rfront</text>
  <path d="M 654.5 168.0 L 726.5 168.0 L 798.5 168.0 L 789.5 105.0 Q 768.8 95.1 780.5 60.0 L 759.5 60.0 Q 726.5 117.91369639964954 693.5 60.0 L 672.5 60.0 Q 684.2 95.1 663.5 105.0 L 654.5 168.0 z" fill="rgb(255,217,194)" stroke="black"/>
  <text fill="rgb(9,33,173)" font-size="25" x="701.5" y="109.0">up_back</text>
  <path d="M 858.5 165.0 L 930.5 165.0 L 1002.5 165.0 L 993.5 105.0 Q 972.8 95.1 984.5 60.0 L 963.5 60.0 L 930.5 105.0 L 897.5 60.0 L 876.5 60.0 Q 888.2 95.1 867.5 105.0 L 858.5 165.0 z" fill="rgb(255,217,194)" stroke="black"/>
  <text fill="rgb(9,33,173)" font-size="25" x="905.5" y="108.0">up_front</text>
  <path d="M 1083.5 180.0 L 1161.5 180.0 Q 1158.8 154.35 1161.5 153.0 Q 1116.8 141.75 1131.5 60.0 L 1062.5 60.0 Q 1059.65 79.05 1083.5 180.0 z" fill="rgb(255,217,194)" stroke="black"/>
  <text fill="rgb(9,33,173)" font-size="25" x="1095.1" y="129.6">Lback</text>
  <path d="M 1221.5 180.0 L 1299.5 180.0 Q 1323.35 79.05 1320.5 60.0 L 1251.5 60.0 Q 1261.55 140.25 1221.5 153.0 Q 1224.2 154.35 1221.5 180.0 z" fill="rgb(255,217,194)" stroke="black"/>
  <text fill="rgb(9,33,173)" font-size="25" x="1237.9" y="129.6">Lfront</text>
  <path d="M 1380.5 210.0 L 1422.5 102.0 Q 1442.0 93.0 1431.5 60.0 L 1380.5 60.0 L 1380.5 210.0 z" fill="rgb(255,217,194)" stroke="black"/>
  <text fill="rgb(9,33,173)" font-size="25" x="1378.75" y="111.0">lbsleeve</text>
  <path d="M 1518.75 210.0 L 1569.75 210.0 Q 1580.25 177.0 1560.75 168.0 L 1518.75 60.0 L 1518.75 210.0 z" fill="rgb(255,217,194)" stroke="black"/>
  <text fill="rgb(9,33,173)" font-size="25" x="1517.0" y="165.0">lfsleeve</text>
</svg>
