<?xml version="1.0" encoding="utf-8" ?>
<svg xmlns="http://www.w3.org/2000/svg" xmlns:ev="http://www.w3.org/2001/xml-events" xmlns:xlink="http://www.w3.org/1999/xlink" baseProfile="full" height="279px" version="1.1" width="1450.0px">
  <defs/>
  <path d="M 60 219 L 336 219 L 336 60 L 60 60 L 60 219 z" fill="rgb(255,217,194)" stroke="black"/>
  <text fill="rgb(9,33,173)" font-size="25" x="173.0" y="142.5">skirt_back</text>
  <path d="M 396 78 L 486 78 L 486 60 L 396 60 L 396 78 z" fill="rgb(255,217,194)" stroke="black"/>
  <text fill="rgb(9,33,173)" font-size="25" x="416.0" y="72.0">wb_back</text>
  <path d="M 546 78 L 636 78 L 636 60 L 546 60 L 546 78 z" fill="rgb(255,217,194)" stroke="black"/>
  <text fill="rgb(9,33,173)" font-size="25" x="566.0" y="72.0">wb_front</text>
  <path d="M 706.0 219.0 L 982.0 219.0 L 982.0 60.0 L 706.0 60.0 L 706.0 219.0 z" fill="rgb(255,217,194)" stroke="black"/>
  <text fill="rgb(9,33,173)" font-size="25" x="819.0" y="142.5">skirt_front</text>
  <path d="M 1042.0 189.0 L 1186.0 189.0 L 1186.0 144.0 Q 1148.8000000000002 123.6 1174.0 60.0 L 1150.0 60.0 Q 1114.0 129.0848799818977 1078.0 60.0 L 1054.0 60.0 Q 1079.1999999999998 123.6 1042.0 144.0 L 1042.0 189.0 z" fill="rgb(255,217,194)" stroke="black"/>
  <text fill="rgb(9,33,173)" font-size="25" x="1089.0" y="116.25">top_back</text>
  <path d="M 1246.0 189.0 L 1390.0 189.0 L 1390.0 144.0 Q 1352.8000000000002 123.6 1378.0 60.0 L 1354.0 60.0 L 1318.0 129.0 L 1282.0 60.0 L 1258.0 60.0 Q 1283.1999999999998 123.6 1246.0 144.0 L 1246.0 189.0 z" fill="rgb(255,217,194)" stroke="black"/>
  <text fill="rgb(9,33,173)" font-size="25" x="1293.0" y="118.0">top_front</text>
</svg>
