<?xml version="1.0" encoding="utf-8" ?>
<svg xmlns="http://www.w3.org/2000/svg" xmlns:ev="http://www.w3.org/2001/xml-events" xmlns:xlink="http://www.w3.org/1999/xlink" baseProfile="full" height="351.0px" version="1.1" width="1612.0px">
  <defs/>
  <path d="M 60 126 L 108 126 Q 123.6 79.2 96 66 L 60 60 L 60 126 z" fill="rgb(255,217,194)" stroke="black"/>
  <text fill="rgb(9,33,173)" font-size="25" x="56.0" y="97.5">rbsleeve</text>
  <path d="M 196.0 126.0 L 232.0 120.0 Q 259.6 106.8 244.0 60.0 L 196.0 60.0 L 196.0 126.0 z" fill="rgb(255,217,194)" stroke="black"/>
  <text fill="rgb(9,33,173)" font-size="25" x="192.0" y="94.5">rfsleeve</text>
  <path d="M 332.0 291.0 L 407.0 291.0 Q 433.85 95.55000000000001 425.0 60.0 L 362.0 60.0 Q 376.7 141.75 332.0 153.0 Q 345.8 159.9 332.0 291.0 z" fill="rgb(255,217,194)" stroke="black"/>
  <text fill="rgb(9,33,173)" font-size="25" x="346.6" y="174.0">Rback</text>
  <path d="M 503.0 291.0 L 578.0 291.0 Q 564.2 159.9 578.0 153.0 Q 537.95 140.25 548.0 60.0 L 485.0 60.0 Q 476.15 95.55000000000001 503.0 291.0 z" fill="rgb(255,217,194)" stroke="black"/>
  <text fill="rgb(9,33,173)" font-size="25" x="513.4" y="174.0">Rfront</text>
  <path d="M 644.0 168.0 L 707.0 168.0 L 770.0 168.0 L 776.0 117.0 Q 749.6 104.7 764.0 60.0 L 743.0 60.0 Q 707.0 84.82091853223481 671.0 60.0 L 650.0 60.0 Q 664.4 104.7 638.0 117.0 L 644.0 168.0 z" fill="rgb(255,217,194)" stroke="black"/>
  <text fill="rgb(9,33,173)" font-size="25" x="682.0" y="111.66666666666667">up_back</text>
  <path d="M 842.0 165.0 L 905.0 165.0 L 968.0 165.0 L 974.0 117.0 Q 947.6 104.7 962.0 60.0 L 941.0 60.0 L 905.0 138.0 L 869.0 60.0 L 848.0 60.0 Q 862.4 104.7 836.0 117.0 L 842.0 165.0 z" fill="rgb(255,217,194)" stroke="black"/>
  <text fill="rgb(9,33,173)" font-size="25" x="880.0" y="113.7">up_front</text>
  <path d="M 1052.0 291.0 L 1127.0 291.0 Q 1113.2 159.9 1127.0 153.0 Q 1082.3 141.75 1097.0 60.0 L 1034.0 60.0 Q 1025.15 95.55000000000001 1052.0 291.0 z" fill="rgb(255,217,194)" stroke="black"/>
  <text fill="rgb(9,33,173)" font-size="25" x="1062.4" y="174.0">Lback</text>
  <path d="M 1187.0 291.0 L 1262.0 291.0 Q 1288.85 95.55000000000001 1280.0 60.0 L 1217.0 60.0 Q 1227.05 140.25 1187.0 153.0 Q 1200.8 159.9 1187.0 291.0 z" fill="rgb(255,217,194)" stroke="black"/>
  <text fill="rgb(9,33,173)" font-size="25" x="1201.6" y="174.0">Lfront</text>
  <path d="M 1340.0 126.0 L 1376.0 120.0 Q 1403.6 106.8 1388.0 60.0 L 1340.0 60.0 L 1340.0 126.0 z" fill="rgb(255,217,194)" stroke="black"/>
  <text fill="rgb(9,33,173)" font-size="25" x="1336.0" y="94.5">lbsleeve</text>
  <path d="M 1476.0 126.0 L 1524.0 126.0 Q 1539.6 79.2 1512.0 66.0 L 1476.0 60.0 L 1476.0 126.0 z" fill="rgb(255,217,194)" stroke="black"/>
  <text fill="rgb(9,33,173)" font-size="25" x="1472.0" y="97.5">lfsleeve</text>
</svg>
