<?xml version="1.0" encoding="utf-8" ?>
<svg xmlns="http://www.w3.org/2000/svg" xmlns:ev="http://www.w3.org/2001/xml-events" xmlns:xlink="http://www.w3.org/1999/xlink" baseProfile="full" height="366.0px" version="1.1" width="1801.0px">
  <defs/>
  <path d="M 60 144 L 138 144 Q 161.1 79.2 123 60 L 60 72 L 60 144 z" fill="rgb(255,217,194)" stroke="black"/>
  <text fill="rgb(9,33,173)" font-size="25" x="70.25" y="108.0">rbsleeve</text>
  <path d="M 210.25 132.0 L 273.25 144.0 Q 311.35 124.8 288.25 60.0 L 210.25 60.0 L 210.25 132.0 z" fill="rgb(255,217,194)" stroke="black"/>
  <text fill="rgb(9,33,173)" font-size="25" x="220.5" y="102.0">rfsleeve</text>
  <path d="M 360.5 306.0 Q 498.5 410.294663447918 636.5 306.0 L 579.5 102.0 L 567.5 60.0 L 429.5 60.0 L 417.5 102.0 L 360.5 306.0 z" fill="rgb(255,217,194)" stroke="black"/>
  <text fill="rgb(9,33,173)" font-size="25" x="473.5" y="159.0">skirt_back</text>
  <path d="M 696.5 306.0 Q 834.5 427.95550568700173 972.5 306.0 L 915.5 102.0 L 903.5 60.0 L 765.5 60.0 L 753.5 102.0 L 696.5 306.0 z" fill="rgb(255,217,194)" stroke="black"/>
  <text fill="rgb(9,33,173)" font-size="25" x="809.5" y="159.0">skirt_front</text>
  <path d="M 1050.5 168.0 L 1188.5 168.0 L 1206.5 141.0 Q 1169.6 122.7 1191.5 60.0 L 1164.5 60.0 Q 1119.5 115.99039732044207 1074.5 60.0 L 1047.5 60.0 Q 1069.4 122.69999999999999 1032.5 141.0 L 1050.5 168.0 z" fill="rgb(255,217,194)" stroke="black"/>
  <text fill="rgb(9,33,173)" font-size="25" x="1094.5" y="110.25">top_back</text>
  <path d="M 1284.5 165.0 L 1422.5 165.0 L 1440.5 141.0 Q 1403.6 122.7 1425.5 60.0 L 1398.5 60.0 L 1353.5 96.0 L 1308.5 60.0 L 1281.5 60.0 Q 1303.4 122.69999999999999 1266.5 141.0 L 1284.5 165.0 z" fill="rgb(255,217,194)" stroke="black"/>
  <text fill="rgb(9,33,173)" font-size="25" x="1328.5" y="108.33333333333333">top_front</text>
  <path d="M 1500.5 132.0 L 1563.5 144.0 Q 1601.6 124.8 1578.5 60.0 L 1500.5 60.0 L 1500.5 132.0 z" fill="rgb(255,217,194)" stroke="black"/>
  <text fill="rgb(9,33,173)" font-size="25" x="1510.75" y="102.0">lbsleeve</text>
  <path d="M 1650.75 144.0 L 1728.75 144.0 Q 1751.85 79.2 1713.75 60.0 L 1650.75 72.0 L 1650.75 144.0 z" fill="rgb(255,217,194)" stroke="black"/>
  <text fill="rgb(9,33,173)" font-size="25" x="1661.0" y="108.0">lfsleeve</text>
</svg>
