<?xml version="1.0" encoding="utf-8" ?>
<svg xmlns="http://www.w3.org/2000/svg" xmlns:ev="http://www.w3.org/2001/xml-events" xmlns:xlink="http://www.w3.org/1999/xlink" baseProfile="full" height="375px" version="1.1" width="1200px">
  <defs/>
  <path d="M 60 315 Q 210.0 402.930448008874 360 315 L 282 102 L 276 60 L 144 60 L 138 102 L 60 315 z" fill="rgb(255,217,194)" stroke="black"/>
  <text fill="rgb(9,33,173)" font-size="25" x="185.0" y="162.0">skirt_back</text>
  <path d="M 420 315 Q 570.0 449.9992165148941 720 315 L 642 102 L 636 60 L 504 60 L 498 102 L 420 315 z" fill="rgb(255,217,194)" stroke="black"/>
  <text fill="rgb(9,33,173)" font-size="25" x="545.0" y="162.0">skirt_front</text>
  <path d="M 789 168 L 921 168 L 930 126 Q 900.0 111.0 918 60 L 870 60 Q 855.0 84.14188120368638 840 60 L 792 60 Q 810.0 110.99999999999999 780 126 L 789 168 z" fill="rgb(255,217,194)" stroke="black"/>
  <text fill="rgb(9,33,173)" font-size="25" x="830.0" y="106.5">top_back</text>
  <path d="M 999 165 L 1131 165 L 1140 126 Q 1110.0 111.0 1128 60 L 1080 60 L 1065 87 L 1050 60 L 1002 60 Q 1020.0 110.99999999999999 990 126 L 999 165 z" fill="rgb(255,217,194)" stroke="black"/>
  <text fill="rgb(9,33,173)" font-size="25" x="1040.0" y="104.0">top_front</text>
</svg>
