<?xml version="1.0" encoding="utf-8" ?>
<svg xmlns="http://www.w3.org/2000/svg" xmlns:ev="http://www.w3.org/2001/xml-events" xmlns:xlink="http://www.w3.org/1999/xlink" baseProfile="full" height="432.0px" version="1.1" width="1084.0px">
  <defs/>
  <path d="M 60 222 L 84 222 Q 121.19999999999999 137.39999999999998 72 108 L 60 60 L 60 222 z" fill="rgb(255,217,194)" stroke="black"/>
  <text fill="rgb(9,33,173)" font-size="25" x="44.0" y="156.0">rbsleeve</text>
  <path d="M 184.0 222.0 L 196.0 174.0 Q 245.2 144.60000000000002 208.0 60.0 L 184.0 60.0 L 184.0 222.0 z" fill="rgb(255,217,194)" stroke="black"/>
  <text fill="rgb(9,33,173)" font-size="25" x="168.0" y="132.0">rfsleeve</text>
  <path d="M 308.0 372.0 L 512.0 372.0 L 485.0 174.0 Q 435.79999999999995 144.60000000000002 473.0 60.0 L 449.0 60.0 Q 410.0 131.07930802132353 371.0 60.0 L 347.0 60.0 Q 384.20000000000005 144.60000000000002 335.0 174.0 L 308.0 372.0 z" fill="rgb(255,217,194)" stroke="black"/>
  <text fill="rgb(9,33,173)" font-size="25" x="385.0" y="169.5">back</text>
  <path d="M 572.0 372.0 L 776.0 372.0 L 749.0 171.0 Q 701.0 142.5 737.0 60.0 L 713.0 60.0 L 674.0 132.0 L 635.0 60.0 L 611.0 60.0 Q 647.0 142.5 599.0 171.0 L 572.0 372.0 z" fill="rgb(255,217,194)" stroke="black"/>
  <text fill="rgb(9,33,173)" font-size="25" x="649.0" y="165.0">front</text>
  <path d="M 836.0 222.0 L 848.0 174.0 Q 897.2 144.60000000000002 860.0 60.0 L 836.0 60.0 L 836.0 222.0 z" fill="rgb(255,217,194)" stroke="black"/>
  <text fill="rgb(9,33,173)" font-size="25" x="820.0" y="132.0">lbsleeve</text>
  <path d="M 960.0 222.0 L 984.0 222.0 Q 1021.2 137.39999999999998 972.0 108.0 L 960.0 60.0 L 960.0 222.0 z" fill="rgb(255,217,194)" stroke="black"/>
  <text fill="rgb(9,33,173)" font-size="25" x="944.0" y="156.0">lfsleeve</text>
</svg>
