<?xml version="1.0" encoding="utf-8" ?>
<svg xmlns="http://www.w3.org/2000/svg" xmlns:ev="http://www.w3.org/2001/xml-events" xmlns:xlink="http://www.w3.org/1999/xlink" baseProfile="full" height="300px" version="1.1" width="1606.0px">
  <defs/>
  <path d="M 60 240 L 126 240 L 210 60 L 90 60 Q 98.7 130.5 60 138 Q 70.2 143.1 60 240 z" fill="rgb(255,217,194)" stroke="black"/>
  <text fill="rgb(9,33,173)" font-size="25" x="84.2" y="150.6">Rback</text>
  <path d="M 354 240 L 420 240 Q 409.8 143.10000000000002 420 138 Q 385.2 129.0 390 60 L 270 60 L 354 240 z" fill="rgb(255,217,194)" stroke="black"/>
  <text fill="rgb(9,33,173)" font-size="25" x="345.8" y="150.6">Rfront</text>
  <path d="M 480 75 L 519 75 L 558 75 L 558 60 L 480 60 L 480 75 z" fill="rgb(255,217,194)" stroke="black"/>
  <text fill="rgb(9,33,173)" font-size="25" x="494.0" y="72.0">wb_back</text>
  <path d="M 624.0 75.0 L 663.0 75.0 L 702.0 75.0 L 702.0 60.0 L 624.0 60.0 L 624.0 75.0 z" fill="rgb(255,217,194)" stroke="black"/>
  <text fill="rgb(9,33,173)" font-size="25" x="638.0" y="72.0">wb_front</text>
  <path d="M 778.0 153.0 L 922.0 153.0 L 922.0 129.0 Q 890.8 113.1 910.0 60.0 L 865.0 60.0 Q 850.0 94.69725592672546 835.0 60.0 L 790.0 60.0 Q 809.2 113.1 778.0 129.0 L 778.0 153.0 z" fill="rgb(255,217,194)" stroke="black"/>
  <text fill="rgb(9,33,173)" font-size="25" x="825.0" y="103.5">top_back</text>
  <path d="M 982.0 153.0 L 1126.0 153.0 L 1126.0 129.0 Q 1094.8000000000002 113.1 1114.0 60.0 L 1069.0 60.0 L 1054.0 96.0 L 1039.0 60.0 L 994.0 60.0 Q 1013.2 113.1 982.0 129.0 L 982.0 153.0 z" fill="rgb(255,217,194)" stroke="black"/>
  <text fill="rgb(9,33,173)" font-size="25" x="1029.0" y="103.0">top_front</text>
  <path d="M 1270.0 240.0 L 1336.0 240.0 Q 1325.8 143.10000000000002 1336.0 138.0 Q 1297.3 130.5 1306.0 60.0 L 1186.0 60.0 L 1270.0 240.0 z" fill="rgb(255,217,194)" stroke="black"/>
  <text fill="rgb(9,33,173)" font-size="25" x="1261.8" y="150.6">Lback</text>
  <path d="M 1396.0 240.0 L 1462.0 240.0 L 1546.0 60.0 L 1426.0 60.0 Q 1430.8 129.0 1396.0 138.0 Q 1406.2 143.1 1396.0 240.0 z" fill="rgb(255,217,194)" stroke="black"/>
  <text fill="rgb(9,33,173)" font-size="25" x="1420.2" y="150.6">Lfront</text>
</svg>
