<?xml version="1.0" encoding="utf-8" ?>
<svg xmlns="http://www.w3.org/2000/svg" xmlns:ev="http://www.w3.org/2001/xml-events" xmlns:xlink="http://www.w3.org/1999/xlink" baseProfile="full" height="498.0px" version="1.1" width="1205.0px">
  <defs/>
  <path d="M 60 141 L 96 141 Q 117.9 78.30000000000001 81 60 L 60 75 L 60 141 z" fill="rgb(255,217,194)" stroke="black"/>
  <text fill="rgb(9,33,173)" font-size="25" x="49.25" y="107.25">rbsleeve</text>
  <path d="M 189.25 126.0 L 210.25 141.0 Q 247.15 122.7 225.25 60.0 L 189.25 60.0 L 189.25 126.0 z" fill="rgb(255,217,194)" stroke="black"/>
  <text fill="rgb(9,33,173)" font-size="25" x="178.5" y="99.75">rfsleeve</text>
  <path d="M 318.5 438.0 L 414.5 438.0 L 414.5 111.0 L 387.5 60.0 L 333.5 60.0 Q 355.4 122.69999999999999 318.5 141.0 L 318.5 438.0 z" fill="rgb(255,217,194)" stroke="black"/>
  <text fill="rgb(9,33,173)" font-size="25" x="339.5" y="211.0">front_right</text>
  <path d="M 509.5 438.0 L 701.5 438.0 L 701.5 141.0 Q 664.6 122.7 686.5 60.0 L 632.5 60.0 Q 605.5 99.75232451554277 578.5 60.0 L 524.5 60.0 Q 546.4 122.69999999999999 509.5 141.0 L 509.5 438.0 z" fill="rgb(255,217,194)" stroke="black"/>
  <text fill="rgb(9,33,173)" font-size="25" x="580.5" y="177.75">back</text>
  <path d="M 761.5 438.0 L 857.5 438.0 L 857.5 141.0 Q 820.6 122.7 842.5 60.0 L 788.5 60.0 L 761.5 111.0 L 761.5 438.0 z" fill="rgb(255,217,194)" stroke="black"/>
  <text fill="rgb(9,33,173)" font-size="25" x="786.5" y="211.0">front_left</text>
  <path d="M 946.5 126.0 L 967.5 141.0 Q 1004.4 122.7 982.5 60.0 L 946.5 60.0 L 946.5 126.0 z" fill="rgb(255,217,194)" stroke="black"/>
  <text fill="rgb(9,33,173)" font-size="25" x="935.75" y="99.75">lbsleeve</text>
  <path d="M 1075.75 141.0 L 1111.75 141.0 Q 1133.65 78.30000000000001 1096.75 60.0 L 1075.75 75.0 L 1075.75 141.0 z" fill="rgb(255,217,194)" stroke="black"/>
  <text fill="rgb(9,33,173)" font-size="25" x="1065.0" y="107.25">lfsleeve</text>
</svg>
