<?xml version="1.0" encoding="utf-8" ?>
<svg xmlns="http://www.w3.org/2000/svg" xmlns:ev="http://www.w3.org/2001/xml-events" xmlns:xlink="http://www.w3.org/1999/xlink" baseProfile="full" height="381px" version="1.1" width="1044px">
  <defs/>
  <path d="M 60 321 L 114 321 Q 160.20000000000002 101.10000000000001 153 60 L 90 60 Q 104.7 141.75 60 153 Q 76.8 161.4 60 321 z" fill="rgb(255,217,194)" stroke="black"/>
  <text fill="rgb(9,33,173)" font-size="25" x="70.4" y="186.0">Rback</text>
  <path d="M 252 321 L 306 321 Q 289.2 161.4 306 153 Q 265.95 140.25 276 60 L 213 60 Q 205.79999999999998 101.10000000000001 252 321 z" fill="rgb(255,217,194)" stroke="black"/>
  <text fill="rgb(9,33,173)" font-size="25" x="245.60000000000002" y="186.0">Rfront</text>
  <path d="M 366 168 L 429 168 L 492 168 L 492 132 Q 460.5 114.0 483 60 L 444 60 Q 429.0 104.29913467607483 414 60 L 375 60 Q 397.5 114.0 366 132 L 366 168 z" fill="rgb(255,217,194)" stroke="black"/>
  <text fill="rgb(9,33,173)" font-size="25" x="404.0" y="115.0">up_back</text>
  <path d="M 552 165 L 615 165 L 678 165 L 678 132 Q 646.5 114.0 669 60 L 630 60 L 615 84 L 600 60 L 561 60 Q 583.5 114.0 552 132 L 552 165 z" fill="rgb(255,217,194)" stroke="black"/>
  <text fill="rgb(9,33,173)" font-size="25" x="590.0" y="111.3">up_front</text>
  <path d="M 777 321 L 831 321 Q 814.2 161.4 831 153 Q 786.3 141.75 801 60 L 738 60 Q 730.8000000000001 101.10000000000001 777 321 z" fill="rgb(255,217,194)" stroke="black"/>
  <text fill="rgb(9,33,173)" font-size="25" x="770.6" y="186.0">Lback</text>
  <path d="M 891 321 L 945 321 Q 991.1999999999999 101.10000000000001 984 60 L 921 60 Q 931.05 140.25 891 153 Q 907.8 161.4 891 321 z" fill="rgb(255,217,194)" stroke="black"/>
  <text fill="rgb(9,33,173)" font-size="25" x="901.4" y="186.0">Lfront</text>
</svg>
