<?xml version="1.0" encoding="utf-8" ?>
<svg xmlns="http://www.w3.org/2000/svg" xmlns:ev="http://www.w3.org/2001/xml-events" xmlns:xlink="http://www.w3.org/1999/xlink" baseProfile="full" height="261px" version="1.1" width="1813.0px">
  <defs/>
  <path d="M 60 201 L 144 201 Q 149.1 167.7 129 162 L 60 60 L 60 201 z" fill="rgb(255,217,194)" stroke="black"/>
  <text fill="rgb(9,33,173)" font-size="25" x="73.25" y="159.0">rbsleeve</text>
  <path d="M 213.25 201.0 L 282.25 99.0 Q 302.35 93.3 297.25 60.0 L 213.25 60.0 L 213.25 201.0 z" fill="rgb(255,217,194)" stroke="black"/>
  <text fill="rgb(9,33,173)" font-size="25" x="226.5" y="108.0">rfsleeve</text>
  <path d="M 366.5 186.0 Q 507.5 81.3611228096174 648.5 186.0 L 576.5 102.0 L 564.5 60.0 L 450.5 60.0 L 438.5 102.0 L 366.5 186.0 z" fill="rgb(255,217,194)" stroke="black"/>
  <text fill="rgb(9,33,173)" font-size="25" x="482.5" y="119.0">skirt_back</text>
  <path d="M 708.5 186.0 Q 849.5 300.2992633572488 990.5 186.0 L 918.5 102.0 L 906.5 60.0 L 792.5 60.0 L 780.5 102.0 L 708.5 186.0 z" fill="rgb(255,217,194)" stroke="black"/>
  <text fill="rgb(9,33,173)" font-size="25" x="824.5" y="119.0">skirt_front</text>
  <path d="M 1077.5 168.0 L 1191.5 168.0 L 1218.5 102.0 Q 1198.1000000000001 94.2 1206.5 60.0 L 1173.5 60.0 Q 1134.5 93.29930760351863 1095.5 60.0 L 1062.5 60.0 Q 1070.8999999999999 94.2 1050.5 102.0 L 1077.5 168.0 z" fill="rgb(255,217,194)" stroke="black"/>
  <text fill="rgb(9,33,173)" font-size="25" x="1109.5" y="100.5">top_back</text>
  <path d="M 1305.5 165.0 L 1419.5 165.0 L 1446.5 102.0 Q 1426.1000000000001 94.2 1434.5 60.0 L 1401.5 60.0 L 1362.5 93.0 L 1323.5 60.0 L 1290.5 60.0 Q 1298.8999999999999 94.2 1278.5 102.0 L 1305.5 165.0 z" fill="rgb(255,217,194)" stroke="black"/>
  <text fill="rgb(9,33,173)" font-size="25" x="1337.5" y="99.33333333333333">top_front</text>
  <path d="M 1506.5 201.0 L 1575.5 99.0 Q 1595.6 93.3 1590.5 60.0 L 1506.5 60.0 L 1506.5 201.0 z" fill="rgb(255,217,194)" stroke="black"/>
  <text fill="rgb(9,33,173)" font-size="25" x="1519.75" y="108.0">lbsleeve</text>
  <path d="M 1659.75 201.0 L 1743.75 201.0 Q 1748.85 167.7 1728.75 162.0 L 1659.75 60.0 L 1659.75 201.0 z" fill="rgb(255,217,194)" stroke="black"/>
  <text fill="rgb(9,33,173)" font-size="25" x="1673.0" y="159.0">lfsleeve</text>
</svg>
