<?xml version="1.0" encoding="utf-8" ?>
<svg xmlns="http://www.w3.org/2000/svg" xmlns:ev="http://www.w3.org/2001/xml-events" xmlns:xlink="http://www.w3.org/1999/xlink" baseProfile="full" height="402px" version="1.1" width="1092px">
  <defs/>
  <path d="M 60 342 L 129 342 Q 168.6 103.80000000000001 159 60 L 90 60 Q 104.7 141.75 60 153 Q 78.9 162.45 60 342 z" fill="rgb(255,217,194)" stroke="black"/>
  <text fill="rgb(9,33,173)" font-size="25" x="74.6" y="194.4">Rback</text>
  <path d="M 249 342 L 318 342 Q 299.1 162.45000000000002 318 153 Q 277.95 140.25 288 60 L 219 60 Q 209.4 103.8 249 342 z" fill="rgb(255,217,194)" stroke="black"/>
  <text fill="rgb(9,33,173)" font-size="25" x="253.39999999999998" y="194.4">Rfront</text>
  <path d="M 378 168 L 447 168 L 516 168 L 513 153 Q 473.1 128.7 504 60 L 468 60 Q 447.0 71.64303103098993 426 60 L 390 60 Q 420.9 128.7 381 153 L 378 168 z" fill="rgb(255,217,194)" stroke="black"/>
  <text fill="rgb(9,33,173)" font-size="25" x="422.0" y="119.66666666666667">up_back</text>
  <path d="M 576 165 L 645 165 L 714 165 L 711 153 Q 671.0999999999999 128.7 702 60 L 666 60 L 645 114 L 624 60 L 588 60 Q 618.9000000000001 128.7 579 153 L 576 165 z" fill="rgb(255,217,194)" stroke="black"/>
  <text fill="rgb(9,33,173)" font-size="25" x="620.0" y="118.5">up_front</text>
  <path d="M 804 342 L 873 342 Q 854.1 162.45000000000002 873 153 Q 828.3 141.75 843 60 L 774 60 Q 764.4 103.8 804 342 z" fill="rgb(255,217,194)" stroke="black"/>
  <text fill="rgb(9,33,173)" font-size="25" x="808.4" y="194.4">Lback</text>
  <path d="M 933 342 L 1002 342 Q 1041.6 103.80000000000001 1032 60 L 963 60 Q 973.05 140.25 933 153 Q 951.9 162.45 933 342 z" fill="rgb(255,217,194)" stroke="black"/>
  <text fill="rgb(9,33,173)" font-size="25" x="947.6" y="194.4">Lfront</text>
</svg>
