<?xml version="1.0" encoding="utf-8" ?>
<svg xmlns="http://www.w3.org/2000/svg" xmlns:ev="http://www.w3.org/2001/xml-events" xmlns:xlink="http://www.w3.org/1999/xlink" baseProfile="full" height="273px" version="1.1" width="972px">
  <defs/>
  <path d="M 60 213 Q 159.0 303.05844385813117 258 213 L 237 102 L 213 60 L 105 60 L 81 102 L 60 213 z" fill="rgb(255,217,194)" stroke="black"/>
  <text fill="rgb(9,33,173)" font-size="25" x="134.0" y="128.0">skirt_back</text>
  <path d="M 318 213 Q 417.0 232.2008413986603 516 213 L 495 102 L 471 60 L 363 60 L 339 102 L 318 213 z" fill="rgb(255,217,194)" stroke="black"/>
  <text fill="rgb(9,33,173)" font-size="25" x="392.0" y="128.0">skirt_front</text>
  <path d="M 591 168 L 699 168 L 714 102 Q 693.6 94.2 702 60 L 675 60 Q 645.0 105.7527174083876 615 60 L 588 60 Q 596.4 94.2 576 102 L 591 168 z" fill="rgb(255,217,194)" stroke="black"/>
  <text fill="rgb(9,33,173)" font-size="25" x="620.0" y="100.5">top_back</text>
  <path d="M 789 165 L 897 165 L 912 102 Q 891.6 94.2 900 60 L 873 60 L 843 111 L 813 60 L 786 60 Q 794.4 94.2 774 102 L 789 165 z" fill="rgb(255,217,194)" stroke="black"/>
  <text fill="rgb(9,33,173)" font-size="25" x="818.0" y="101.33333333333333">top_front</text>
</svg>
