<?xml version="1.0" encoding="utf-8" ?>
<svg xmlns="http://www.w3.org/2000/svg" xmlns:ev="http://www.w3.org/2001/xml-events" xmlns:xlink="http://www.w3.org/1999/xlink" baseProfile="full" height="300px" version="1.1" width="1450.0px">
  <defs/>
  <path d="M 60 240 L 348 240 L 348 60 L 60 60 L 60 240 z" fill="rgb(255,217,194)" stroke="black"/>
  <text fill="rgb(9,33,173)" font-size="25" x="179.0" y="153.0">skirt_back</text>
  <path d="M 408 72 L 498 72 L 498 60 L 408 60 L 408 72 z" fill="rgb(255,217,194)" stroke="black"/>
  <text fill="rgb(9,33,173)" font-size="25" x="428.0" y="69.0">wb_back</text>
  <path d="M 558 72 L 648 72 L 648 60 L 558 60 L 558 72 z" fill="rgb(255,217,194)" stroke="black"/>
  <text fill="rgb(9,33,173)" font-size="25" x="578.0" y="69.0">wb_front</text>
  <path d="M 718.0 240.0 L 1006.0 240.0 L 1006.0 60.0 L 718.0 60.0 L 718.0 240.0 z" fill="rgb(255,217,194)" stroke="black"/>
  <text fill="rgb(9,33,173)" font-size="25" x="837.0" y="153.0">skirt_front</text>
  <path d="M 1066.0 153.0 L 1198.0 153.0 L 1198.0 123.0 Q 1170.1 107.69999999999999 1189.0 60.0 L 1165.0 60.0 Q 1132.0 68.73362003273228 1099.0 60.0 L 1075.0 60.0 Q 1093.9 107.69999999999999 1066.0 123.0 L 1066.0 153.0 z" fill="rgb(255,217,194)" stroke="black"/>
  <text fill="rgb(9,33,173)" font-size="25" x="1107.0" y="102.0">top_back</text>
  <path d="M 1258.0 153.0 L 1390.0 153.0 L 1390.0 123.0 Q 1362.1 107.69999999999999 1381.0 60.0 L 1357.0 60.0 L 1324.0 84.0 L 1291.0 60.0 L 1267.0 60.0 Q 1285.9 107.69999999999999 1258.0 123.0 L 1258.0 153.0 z" fill="rgb(255,217,194)" stroke="black"/>
  <text fill="rgb(9,33,173)" font-size="25" x="1299.0" y="100.33333333333333">top_front</text>
</svg>
