<?xml version="1.0" encoding="utf-8" ?>
<svg xmlns="http://www.w3.org/2000/svg" xmlns:ev="http://www.w3.org/2001/xml-events" xmlns:xlink="http://www.w3.org/1999/xlink" baseProfile="full" height="390.0px" version="1.1" width="1612.0px">
  <defs/>
  <path d="M 60 219 L 114 219 Q 127.19999999999999 176.39999999999998 102 165 L 60 60 L 60 219 z" fill="rgb(255,217,194)" stroke="black"/>
  <text fill="rgb(9,33,173)" font-size="25" x="59.0" y="168.75">rbsleeve</text>
  <path d="M 199.0 219.0 L 241.0 114.0 Q 266.2 102.6 253.0 60.0 L 199.0 60.0 L 199.0 219.0 z" fill="rgb(255,217,194)" stroke="black"/>
  <text fill="rgb(9,33,173)" font-size="25" x="198.0" y="116.25">rfsleeve</text>
  <path d="M 338.0 330.0 L 398.0 330.0 Q 437.0 102.0 428.0 60.0 L 368.0 60.0 Q 382.7 141.75 338.0 153.0 Q 355.7 161.85 338.0 330.0 z" fill="rgb(255,217,194)" stroke="black"/>
  <text fill="rgb(9,33,173)" font-size="25" x="349.0" y="189.6">Rback</text>
  <path d="M 518.0 330.0 L 578.0 330.0 Q 560.3 161.85 578.0 153.0 Q 537.95 140.25 548.0 60.0 L 488.0 60.0 Q 479.0 102.0 518.0 330.0 z" fill="rgb(255,217,194)" stroke="black"/>
  <text fill="rgb(9,33,173)" font-size="25" x="517.0" y="189.6">Rfront</text>
  <path d="M 650.0 168.0 L 707.0 168.0 L 764.0 168.0 L 776.0 117.0 Q 749.6 104.7 764.0 60.0 L 737.0 60.0 Q 707.0 122.44987653328428 677.0 60.0 L 650.0 60.0 Q 664.4 104.7 638.0 117.0 L 650.0 168.0 z" fill="rgb(255,217,194)" stroke="black"/>
  <text fill="rgb(9,33,173)" font-size="25" x="682.0" y="111.66666666666667">up_back</text>
  <path d="M 848.0 165.0 L 905.0 165.0 L 962.0 165.0 L 974.0 114.0 Q 948.8 102.6 962.0 60.0 L 935.0 60.0 L 905.0 105.0 L 875.0 60.0 L 848.0 60.0 Q 861.2 102.6 836.0 114.0 L 848.0 165.0 z" fill="rgb(255,217,194)" stroke="black"/>
  <text fill="rgb(9,33,173)" font-size="25" x="880.0" y="109.8">up_front</text>
  <path d="M 1064.0 330.0 L 1124.0 330.0 Q 1106.3 161.85 1124.0 153.0 Q 1079.3 141.75 1094.0 60.0 L 1034.0 60.0 Q 1025.0 102.0 1064.0 330.0 z" fill="rgb(255,217,194)" stroke="black"/>
  <text fill="rgb(9,33,173)" font-size="25" x="1063.0" y="189.6">Lback</text>
  <path d="M 1184.0 330.0 L 1244.0 330.0 Q 1283.0 102.0 1274.0 60.0 L 1214.0 60.0 Q 1224.05 140.25 1184.0 153.0 Q 1201.7 161.85 1184.0 330.0 z" fill="rgb(255,217,194)" stroke="black"/>
  <text fill="rgb(9,33,173)" font-size="25" x="1195.0" y="189.6">Lfront</text>
  <path d="M 1334.0 219.0 L 1376.0 114.0 Q 1401.1999999999998 102.6 1388.0 60.0 L 1334.0 60.0 L 1334.0 219.0 z" fill="rgb(255,217,194)" stroke="black"/>
  <text fill="rgb(9,33,173)" font-size="25" x="1333.0" y="116.25">lbsleeve</text>
  <path d="M 1473.0 219.0 L 1527.0 219.0 Q 1540.1999999999998 176.39999999999998 1515.0 165.0 L 1473.0 60.0 L 1473.0 219.0 z" fill="rgb(255,217,194)" stroke="black"/>
  <text fill="rgb(9,33,173)" font-size="25" x="1472.0" y="168.75">lfsleeve</text>
</svg>
