<?xml version="1.0" encoding="utf-8" ?>
<svg xmlns="http://www.w3.org/2000/svg" xmlns:ev="http://www.w3.org/2001/xml-events" xmlns:xlink="http://www.w3.org/1999/xlink" baseProfile="full" height="372px" version="1.1" width="1407.0px">
  <defs/>
  <path d="M 60 312 L 132 312 L 171 60 L 90 60 Q 103.5 139.5 60 150 Q 76.2 158.1 60 312 z" fill="rgb(255,217,194)" stroke="black"/>
  <text fill="rgb(9,33,173)" font-size="25" x="77.6" y="181.8">Rback</text>
  <path d="M 270 312 L 342 312 Q 325.8 158.1 342 150 Q 303.0 138.0 312 60 L 231 60 L 270 312 z" fill="rgb(255,217,194)" stroke="black"/>
  <text fill="rgb(9,33,173)" font-size="25" x="274.4" y="181.8">Rfront</text>
  <path d="M 402 69 L 441 69 L 480 69 L 480 60 L 402 60 L 402 69 z" fill="rgb(255,217,194)" stroke="black"/>
  <text fill="rgb(9,33,173)" font-size="25" x="416.0" y="68.4">wb_back</text>
  <path d="M 546.0 69.0 L 585.0 69.0 L 624.0 69.0 L 624.0 60.0 L 546.0 60.0 L 546.0 69.0 z" fill="rgb(255,217,194)" stroke="black"/>
  <text fill="rgb(9,33,173)" font-size="25" x="560.0" y="68.4">wb_front</text>
  <path d="M 700.0 168.0 L 820.0 168.0 L 820.0 105.0 Q 799.3 95.1 811.0 60.0 L 778.0 60.0 Q 760.0 89.51097485495178 742.0 60.0 L 709.0 60.0 Q 720.7 95.1 700.0 105.0 L 700.0 168.0 z" fill="rgb(255,217,194)" stroke="black"/>
  <text fill="rgb(9,33,173)" font-size="25" x="735.0" y="101.25">top_back</text>
  <path d="M 880.0 168.0 L 1000.0 168.0 L 1000.0 105.0 Q 979.3 95.1 991.0 60.0 L 958.0 60.0 L 940.0 129.0 L 922.0 60.0 L 889.0 60.0 Q 900.7 95.1 880.0 105.0 L 880.0 168.0 z" fill="rgb(255,217,194)" stroke="black"/>
  <text fill="rgb(9,33,173)" font-size="25" x="915.0" y="104.66666666666667">top_front</text>
  <path d="M 1104.0 312.0 L 1176.0 312.0 Q 1159.8 158.1 1176.0 150.0 Q 1132.5 139.5 1146.0 60.0 L 1065.0 60.0 L 1104.0 312.0 z" fill="rgb(255,217,194)" stroke="black"/>
  <text fill="rgb(9,33,173)" font-size="25" x="1108.4" y="181.8">Lback</text>
  <path d="M 1236.0 312.0 L 1308.0 312.0 L 1347.0 60.0 L 1266.0 60.0 Q 1275.0 138.0 1236.0 150.0 Q 1252.2 158.1 1236.0 312.0 z" fill="rgb(255,217,194)" stroke="black"/>
  <text fill="rgb(9,33,173)" font-size="25" x="1253.6" y="181.8">Lfront</text>
</svg>
