<?xml version="1.0" encoding="utf-8" ?>
<svg xmlns="http://www.w3.org/2000/svg" xmlns:ev="http://www.w3.org/2001/xml-events" xmlns:xlink="http://www.w3.org/1999/xlink" baseProfile="full" height="288px" version="1.1" width="1546.0px">
  <defs/>
  <path d="M 60 228 L 129 228 L 198 60 L 90 60 Q 105.9 144.0 60 156 Q 67.2 159.6 60 228 z" fill="rgb(255,217,194)" stroke="black"/>
  <text fill="rgb(9,33,173)" font-size="25" x="82.4" y="149.4">Rback</text>
  <path d="M 327 228 L 396 228 Q 388.8 159.60000000000002 396 156 Q 354.9 142.5 366 60 L 258 60 L 327 228 z" fill="rgb(255,217,194)" stroke="black"/>
  <text fill="rgb(9,33,173)" font-size="25" x="323.6" y="149.4">Rfront</text>
  <path d="M 456 78 L 495 78 L 534 78 L 534 60 L 456 60 L 456 78 z" fill="rgb(255,217,194)" stroke="black"/>
  <text fill="rgb(9,33,173)" font-size="25" x="470.0" y="73.8">wb_back</text>
  <path d="M 600.0 78.0 L 639.0 78.0 L 678.0 78.0 L 678.0 60.0 L 600.0 60.0 L 600.0 78.0 z" fill="rgb(255,217,194)" stroke="black"/>
  <text fill="rgb(9,33,173)" font-size="25" x="614.0" y="73.8">wb_front</text>
  <path d="M 754.0 150.0 L 892.0 150.0 L 892.0 129.0 Q 860.8 113.1 880.0 60.0 L 838.0 60.0 Q 823.0 118.66038359659225 808.0 60.0 L 766.0 60.0 Q 785.2 113.1 754.0 129.0 L 754.0 150.0 z" fill="rgb(255,217,194)" stroke="black"/>
  <text fill="rgb(9,33,173)" font-size="25" x="798.0" y="102.75">top_back</text>
  <path d="M 952.0 150.0 L 1090.0 150.0 L 1090.0 126.0 Q 1060.0 111.0 1078.0 60.0 L 1036.0 60.0 L 1021.0 126.0 L 1006.0 60.0 L 964.0 60.0 Q 982.0 110.99999999999999 952.0 126.0 L 952.0 150.0 z" fill="rgb(255,217,194)" stroke="black"/>
  <text fill="rgb(9,33,173)" font-size="25" x="996.0" y="105.0">top_front</text>
  <path d="M 1219.0 228.0 L 1288.0 228.0 Q 1280.8 159.60000000000002 1288.0 156.0 Q 1242.1 144.0 1258.0 60.0 L 1150.0 60.0 L 1219.0 228.0 z" fill="rgb(255,217,194)" stroke="black"/>
  <text fill="rgb(9,33,173)" font-size="25" x="1215.6" y="149.4">Lback</text>
  <path d="M 1348.0 228.0 L 1417.0 228.0 L 1486.0 60.0 L 1378.0 60.0 Q 1389.1 142.5 1348.0 156.0 Q 1355.2 159.6 1348.0 228.0 z" fill="rgb(255,217,194)" stroke="black"/>
  <text fill="rgb(9,33,173)" font-size="25" x="1370.4" y="149.4">Lfront</text>
</svg>
