<?xml version="1.0" encoding="utf-8" ?>
<svg xmlns="http://www.w3.org/2000/svg" xmlns:ev="http://www.w3.org/2001/xml-events" xmlns:xlink="http://www.w3.org/1999/xlink" baseProfile="full" height="477.0px" version="1.1" width="1651.0px">
  <defs/>
  <path d="M 60 219 L 153 219 Q 174.9 156.3 138 138 L 60 60 L 60 219 z" fill="rgb(255,217,194)" stroke="black"/>
  <text fill="rgb(9,33,173)" font-size="25" x="77.75" y="162.0">rbsleeve</text>
  <path d="M 217.75 219.0 L 295.75 141.0 Q 332.65 122.7 310.75 60.0 L 217.75 60.0 L 217.75 219.0 z" fill="rgb(255,217,194)" stroke="black"/>
  <text fill="rgb(9,33,173)" font-size="25" x="235.5" y="123.0">rfsleeve</text>
  <path d="M 375.5 417.0 L 657.5 417.0 L 609.5 141.0 Q 572.6 122.7 594.5 60.0 L 555.5 60.0 L 516.5 69.0 L 477.5 60.0 L 438.5 60.0 Q 460.4 122.69999999999999 423.5 141.0 L 375.5 417.0 z" fill="rgb(255,217,194)" stroke="black"/>
  <text fill="rgb(9,33,173)" font-size="25" x="491.5" y="161.33333333333334">back</text>
  <path d="M 717.5 417.0 L 999.5 417.0 L 951.5 141.0 Q 914.6 122.7 936.5 60.0 L 897.5 60.0 L 858.5 90.0 L 819.5 60.0 L 780.5 60.0 Q 802.4 122.69999999999999 765.5 141.0 L 717.5 417.0 z" fill="rgb(255,217,194)" stroke="black"/>
  <text fill="rgb(9,33,173)" font-size="25" x="833.5" y="163.66666666666666">front</text>
  <path d="M 1065.5 171.0 L 1107.5 174.0 Q 1170.5 165.0 1137.5 84.0 L 1101.5 93.0 L 1059.5 60.0 L 1065.5 171.0 z" fill="rgb(255,217,194)" stroke="black"/>
  <text fill="rgb(9,33,173)" font-size="25" x="1069.3" y="119.4">Rhood</text>
  <path d="M 1197.5 174.0 L 1239.5 141.0 L 1275.5 150.0 Q 1308.5 69.0 1245.5 60.0 L 1203.5 63.0 L 1197.5 174.0 z" fill="rgb(255,217,194)" stroke="black"/>
  <text fill="rgb(9,33,173)" font-size="25" x="1207.3" y="120.6">Lhood</text>
  <path d="M 1335.5 219.0 L 1413.5 141.0 Q 1450.4 122.7 1428.5 60.0 L 1335.5 60.0 L 1335.5 219.0 z" fill="rgb(255,217,194)" stroke="black"/>
  <text fill="rgb(9,33,173)" font-size="25" x="1353.25" y="123.0">lbsleeve</text>
  <path d="M 1493.25 219.0 L 1586.25 219.0 Q 1608.15 156.3 1571.25 138.0 L 1493.25 60.0 L 1493.25 219.0 z" fill="rgb(255,217,194)" stroke="black"/>
  <text fill="rgb(9,33,173)" font-size="25" x="1511.0" y="162.0">lfsleeve</text>
</svg>
