<?xml version="1.0" encoding="utf-8" ?>
<svg xmlns="http://www.w3.org/2000/svg" xmlns:ev="http://www.w3.org/2001/xml-events" xmlns:xlink="http://www.w3.org/1999/xlink" baseProfile="full" height="264px" version="1.1" width="1176px">
  <defs/>
  <path d="M 60 204 Q 177.0 245.20166849716114 294 204 L 258 102 L 237 60 L 117 60 L 96 102 L 60 204 z" fill="rgb(255,217,194)" stroke="black"/>
  <text fill="rgb(9,33,173)" font-size="25" x="152.0" y="125.0">skirt_back</text>
  <path d="M 354 204 Q 471.0 202.92958563950828 588 204 L 552 102 L 531 60 L 411 60 L 390 102 L 354 204 z" fill="rgb(255,217,194)" stroke="black"/>
  <text fill="rgb(9,33,173)" font-size="25" x="446.0" y="125.0">skirt_front</text>
  <path d="M 690 168 L 810 168 L 852 108 Q 827.4 100.8 834 60 L 783 60 Q 750.0 64.67818150365235 717 60 L 666 60 Q 672.6 100.8 648 108 L 690 168 z" fill="rgb(255,217,194)" stroke="black"/>
  <text fill="rgb(9,33,173)" font-size="25" x="725.0" y="102.0">top_back</text>
  <path d="M 954 165 L 1074 165 L 1116 108 Q 1091.3999999999999 100.8 1098 60 L 1047 60 L 1014 117 L 981 60 L 930 60 Q 936.6 100.8 912 108 L 954 165 z" fill="rgb(255,217,194)" stroke="black"/>
  <text fill="rgb(9,33,173)" font-size="25" x="989.0" y="103.33333333333333">top_front</text>
</svg>
