<?xml version="1.0" encoding="utf-8" ?>
<svg xmlns="http://www.w3.org/2000/svg" xmlns:ev="http://www.w3.org/2001/xml-events" xmlns:xlink="http://www.w3.org/1999/xlink" baseProfile="full" height="453px" version="1.1" width="1044.0px">
  <defs/>
  <path d="M 60 393 L 255 393 L 255 90 L 228 60 L 189 60 Q 201.0 100.49999999999999 177 111 L 60 393 z" fill="rgb(255,217,194)" stroke="black"/>
  <text fill="rgb(9,33,173)" font-size="25" x="169.0" y="187.5">front_right</text>
  <path d="M 339.0 393.0 L 729.0 393.0 L 612.0 111.0 Q 588.0 100.5 600.0 60.0 L 561.0 60.0 Q 534.0 77.93106464473823 507.0 60.0 L 468.0 60.0 Q 480.0 100.49999999999999 456.0 111.0 L 339.0 393.0 z" fill="rgb(255,217,194)" stroke="black"/>
  <text fill="rgb(9,33,173)" font-size="25" x="509.0" y="159.0">back</text>
  <path d="M 789.0 393.0 L 984.0 393.0 L 867.0 111.0 Q 843.0 100.5 855.0 60.0 L 816.0 60.0 L 789.0 90.0 L 789.0 393.0 z" fill="rgb(255,217,194)" stroke="black"/>
  <text fill="rgb(9,33,173)" font-size="25" x="825.0" y="187.5">front_left</text>
</svg>
