<?xml version="1.0" encoding="utf-8" ?>
<svg xmlns="http://www.w3.org/2000/svg" xmlns:ev="http://www.w3.org/2001/xml-events" xmlns:xlink="http://www.w3.org/1999/xlink" baseProfile="full" height="465.0px" version="1.1" width="1287.0px">
  <defs/>
  <path d="M 60 180 L 96 180 Q 106.5 147.0 87 138 L 60 60 L 60 180 z" fill="rgb(255,217,194)" stroke="black"/>
  <text fill="rgb(9,33,173)" font-size="25" x="50.75" y="142.5">rbsleeve</text>
  <path d="M 190.75 180.0 L 217.75 102.0 Q 237.25 93.0 226.75 60.0 L 190.75 60.0 L 190.75 180.0 z" fill="rgb(255,217,194)" stroke="black"/>
  <text fill="rgb(9,33,173)" font-size="25" x="181.5" y="103.5">rfsleeve</text>
  <path d="M 321.5 405.0 L 441.5 405.0 L 441.5 156.0 L 423.5 60.0 L 393.5 60.0 Q 403.1 96.3 381.5 105.0 L 321.5 405.0 z" fill="rgb(255,217,194)" stroke="black"/>
  <text fill="rgb(9,33,173)" font-size="25" x="375.5" y="201.5">front_right</text>
  <path d="M 545.5 405.0 L 785.5 405.0 L 725.5 105.0 Q 703.9 96.3 713.5 60.0 L 683.5 60.0 Q 665.5 171.43039933208672 647.5 60.0 L 617.5 60.0 Q 627.1 96.3 605.5 105.0 L 545.5 405.0 z" fill="rgb(255,217,194)" stroke="black"/>
  <text fill="rgb(9,33,173)" font-size="25" x="640.5" y="160.5">back</text>
  <path d="M 845.5 405.0 L 965.5 405.0 L 905.5 105.0 Q 883.9 96.3 893.5 60.0 L 863.5 60.0 L 845.5 156.0 L 845.5 405.0 z" fill="rgb(255,217,194)" stroke="black"/>
  <text fill="rgb(9,33,173)" font-size="25" x="861.5" y="201.5">front_left</text>
  <path d="M 1025.5 180.0 L 1052.5 102.0 Q 1072.0 93.0 1061.5 60.0 L 1025.5 60.0 L 1025.5 180.0 z" fill="rgb(255,217,194)" stroke="black"/>
  <text fill="rgb(9,33,173)" font-size="25" x="1016.25" y="103.5">lbsleeve</text>
  <path d="M 1156.25 180.0 L 1192.25 180.0 Q 1202.75 147.0 1183.25 138.0 L 1156.25 60.0 L 1156.25 180.0 z" fill="rgb(255,217,194)" stroke="black"/>
  <text fill="rgb(9,33,173)" font-size="25" x="1147.0" y="142.5">lfsleeve</text>
</svg>
