<?xml version="1.0" encoding="utf-8" ?>
<svg xmlns="http://www.w3.org/2000/svg" xmlns:ev="http://www.w3.org/2001/xml-events" xmlns:xlink="http://www.w3.org/1999/xlink" baseProfile="full" height="297.0px" version="1.1" width="1744.0px">
  <defs/>
  <path d="M 60 138 L 162 138 Q 177.6 91.2 150 78 L 60 60 L 60 138 z" fill="rgb(255,217,194)" stroke="black"/>
  <text fill="rgb(9,33,173)" font-size="25" x="83.0" y="106.5">rbsleeve</text>
  <path d="M 223.0 138.0 L 313.0 120.0 Q 340.6 106.8 325.0 60.0 L 223.0 60.0 L 223.0 138.0 z" fill="rgb(255,217,194)" stroke="black"/>
  <text fill="rgb(9,33,173)" font-size="25" x="246.0" y="97.5">rfsleeve</text>
  <path d="M 386.0 237.0 L 443.0 237.0 Q 485.0 88.50000000000001 482.0 60.0 L 416.0 60.0 Q 430.7 141.75 386.0 153.0 Q 394.4 157.2 386.0 237.0 z" fill="rgb(255,217,194)" stroke="black"/>
  <text fill="rgb(9,33,173)" font-size="25" x="397.6" y="152.4">Rback</text>
  <path d="M 581.0 237.0 L 638.0 237.0 Q 629.6 157.2 638.0 153.0 Q 597.95 140.25 608.0 60.0 L 542.0 60.0 Q 539.0 88.5 581.0 237.0 z" fill="rgb(255,217,194)" stroke="black"/>
  <text fill="rgb(9,33,173)" font-size="25" x="576.4" y="152.4">Rfront</text>
  <path d="M 704.0 168.0 L 770.0 168.0 L 836.0 168.0 L 842.0 120.0 Q 814.4 106.8 830.0 60.0 L 797.0 60.0 Q 770.0 72.0440615395054 743.0 60.0 L 710.0 60.0 Q 725.6 106.8 698.0 120.0 L 704.0 168.0 z" fill="rgb(255,217,194)" stroke="black"/>
  <text fill="rgb(9,33,173)" font-size="25" x="745.0" y="112.33333333333333">up_back</text>
  <path d="M 908.0 165.0 L 974.0 165.0 L 1040.0 165.0 L 1046.0 120.0 Q 1018.4000000000001 106.8 1034.0 60.0 L 1001.0 60.0 L 974.0 93.0 L 947.0 60.0 L 914.0 60.0 Q 929.6 106.8 902.0 120.0 L 908.0 165.0 z" fill="rgb(255,217,194)" stroke="black"/>
  <text fill="rgb(9,33,173)" font-size="25" x="949.0" y="109.8">up_front</text>
  <path d="M 1145.0 237.0 L 1202.0 237.0 Q 1193.6 157.2 1202.0 153.0 Q 1157.3 141.75 1172.0 60.0 L 1106.0 60.0 Q 1103.0 88.5 1145.0 237.0 z" fill="rgb(255,217,194)" stroke="black"/>
  <text fill="rgb(9,33,173)" font-size="25" x="1140.4" y="152.4">Lback</text>
  <path d="M 1262.0 237.0 L 1319.0 237.0 Q 1361.0 88.50000000000001 1358.0 60.0 L 1292.0 60.0 Q 1302.05 140.25 1262.0 153.0 Q 1270.4 157.2 1262.0 237.0 z" fill="rgb(255,217,194)" stroke="black"/>
  <text fill="rgb(9,33,173)" font-size="25" x="1273.6" y="152.4">Lfront</text>
  <path d="M 1418.0 138.0 L 1508.0 120.0 Q 1535.6 106.8 1520.0 60.0 L 1418.0 60.0 L 1418.0 138.0 z" fill="rgb(255,217,194)" stroke="black"/>
  <text fill="rgb(9,33,173)" font-size="25" x="1441.0" y="97.5">lbsleeve</text>
  <path d="M 1581.0 138.0 L 1683.0 138.0 Q 1698.6 91.2 1671.0 78.0 L 1581.0 60.0 L 1581.0 138.0 z" fill="rgb(255,217,194)" stroke="black"/>
  <text fill="rgb(9,33,173)" font-size="25" x="1604.0" y="106.5">lfsleeve</text>
</svg>
