<?xml version="1.0" encoding="utf-8" ?>
<svg xmlns="http://www.w3.org/2000/svg" xmlns:ev="http://www.w3.org/2001/xml-events" xmlns:xlink="http://www.w3.org/1999/xlink" baseProfile="full" height="351px" version="1.1" width="914.0px">
  <defs/>
  <path d="M 60 291 Q 150.0 323.8636802320558 240 291 L 222 102 L 198 60 L 102 60 L 78 102 L 60 291 z" fill="rgb(255,217,194)" stroke="black"/>
  <text fill="rgb(9,33,173)" font-size="25" x="125.0" y="154.0">skirt_back</text>
  <path d="M 300 291 Q 390.0 212.3096977748515 480 291 L 462 102 L 438 60 L 342 60 L 318 102 L 300 291 z" fill="rgb(255,217,194)" stroke="black"/>
  <text fill="rgb(9,33,173)" font-size="25" x="365.0" y="154.0">skirt_front</text>
  <path d="M 555 168 L 651 168 L 666 111 Q 642.9 99.3 657 60 L 624 60 Q 603.0 131.8688838234015 582 60 L 549 60 Q 563.1 99.29999999999998 540 111 L 555 168 z" fill="rgb(255,217,194)" stroke="black"/>
  <text fill="rgb(9,33,173)" font-size="25" x="578.0" y="102.75">top_back</text>
  <path d="M 741 165 L 837 165 L 852 111 Q 828.9 99.3 843 60 L 810 60 L 789 129 L 768 60 L 735 60 Q 749.1 99.29999999999998 726 111 L 741 165 z" fill="rgb(255,217,194)" stroke="black"/>
  <text fill="rgb(9,33,173)" font-size="25" x="764.0" y="105.33333333333333">top_front</text>
</svg>
