<?xml version="1.0" encoding="utf-8" ?>
<svg xmlns="http://www.w3.org/2000/svg" xmlns:ev="http://www.w3.org/2001/xml-events" xmlns:xlink="http://www.w3.org/1999/xlink" baseProfile="full" height="312px" version="1.1" width="1450.0px">
  <defs/>
  <path d="M 60 252 L 324 252 L 324 60 L 60 60 L 60 252 z" fill="rgb(255,217,194)" stroke="black"/>
  <text fill="rgb(9,33,173)" font-size="25" x="167.0" y="159.0">skirt_back</text>
  <path d="M 384 72 L 474 72 L 474 60 L 384 60 L 384 72 z" fill="rgb(255,217,194)" stroke="black"/>
  <text fill="rgb(9,33,173)" font-size="25" x="404.0" y="69.0">wb_back</text>
  <path d="M 534 72 L 624 72 L 624 60 L 534 60 L 534 72 z" fill="rgb(255,217,194)" stroke="black"/>
  <text fill="rgb(9,33,173)" font-size="25" x="554.0" y="69.0">wb_front</text>
  <path d="M 694.0 252.0 L 958.0 252.0 L 958.0 60.0 L 694.0 60.0 L 694.0 252.0 z" fill="rgb(255,217,194)" stroke="black"/>
  <text fill="rgb(9,33,173)" font-size="25" x="801.0" y="159.0">skirt_front</text>
  <path d="M 1018.0 171.0 L 1174.0 171.0 L 1174.0 135.0 Q 1140.4 117.3 1162.0 60.0 L 1111.0 60.0 Q 1096.0 70.21547085185489 1081.0 60.0 L 1030.0 60.0 Q 1051.6 117.3 1018.0 135.0 L 1018.0 171.0 z" fill="rgb(255,217,194)" stroke="black"/>
  <text fill="rgb(9,33,173)" font-size="25" x="1071.0" y="109.5">top_back</text>
  <path d="M 1234.0 171.0 L 1390.0 171.0 L 1390.0 135.0 Q 1356.4 117.3 1378.0 60.0 L 1327.0 60.0 L 1312.0 105.0 L 1297.0 60.0 L 1246.0 60.0 Q 1267.6 117.3 1234.0 135.0 L 1234.0 171.0 z" fill="rgb(255,217,194)" stroke="black"/>
  <text fill="rgb(9,33,173)" font-size="25" x="1287.0" y="109.33333333333333">top_front</text>
</svg>
