<?xml version="1.0" encoding="utf-8" ?>
<svg xmlns="http://www.w3.org/2000/svg" xmlns:ev="http://www.w3.org/2001/xml-events" xmlns:xlink="http://www.w3.org/1999/xlink" baseProfile="full" height="306px" version="1.1" width="1560px">
  <defs/>
  <path d="M 60 204 L 189 204 Q 216.6 136.2 177 114 L 60 60 L 60 204 z" fill="rgb(255,217,194)" stroke="black"/>
  <text fill="rgb(9,33,173)" font-size="25" x="96.5" y="148.5">rbsleeve</text>
  <path d="M 249 204 L 366 150 Q 405.6 127.8 378 60 L 249 60 L 249 204 z" fill="rgb(255,217,194)" stroke="black"/>
  <text fill="rgb(9,33,173)" font-size="25" x="285.5" y="121.5">rfsleeve</text>
  <path d="M 438 246 L 750 246 L 675 150 Q 635.4 127.8 663 60 L 618 60 Q 594.0 105.06374179761357 570 60 L 525 60 Q 552.6 127.8 513 150 L 438 246 z" fill="rgb(255,217,194)" stroke="black"/>
  <text fill="rgb(9,33,173)" font-size="25" x="569.0" y="132.0">back</text>
  <path d="M 810 246 L 1122 246 L 1047 147 Q 1008.6000000000001 125.7 1035 60 L 990 60 L 966 144 L 942 60 L 897 60 Q 923.4 125.7 885 147 L 810 246 z" fill="rgb(255,217,194)" stroke="black"/>
  <text fill="rgb(9,33,173)" font-size="25" x="941.0" y="133.0">front</text>
  <path d="M 1182 204 L 1299 150 Q 1338.6 127.8 1311 60 L 1182 60 L 1182 204 z" fill="rgb(255,217,194)" stroke="black"/>
  <text fill="rgb(9,33,173)" font-size="25" x="1218.5" y="121.5">lbsleeve</text>
  <path d="M 1371 204 L 1500 204 Q 1527.6 136.2 1488 114 L 1371 60 L 1371 204 z" fill="rgb(255,217,194)" stroke="black"/>
  <text fill="rgb(9,33,173)" font-size="25" x="1407.5" y="148.5">lfsleeve</text>
</svg>
