<?xml version="1.0" encoding="utf-8" ?>
<svg xmlns="http://www.w3.org/2000/svg" xmlns:ev="http://www.w3.org/2001/xml-events" xmlns:xlink="http://www.w3.org/1999/xlink" baseProfile="full" height="486px" version="1.1" width="1132.5px">
  <defs/>
  <path d="M 60 426 L 210 426 L 210 69 L 177 60 L 156 60 Q 172.8 108.89999999999999 144 123 L 60 426 z" fill="rgb(255,217,194)" stroke="black"/>
  <text fill="rgb(9,33,173)" font-size="25" x="134.5" y="197.0">front_right</text>
  <path d="M 304.5 153.0 L 355.5 156.0 Q 418.5 138.0 373.5 60.0 L 340.5 69.0 L 304.5 60.0 L 304.5 153.0 z" fill="rgb(255,217,194)" stroke="black"/>
  <text fill="rgb(9,33,173)" font-size="25" x="310.7" y="102.6">Rhood</text>
  <path d="M 433.5 426.0 L 733.5 426.0 L 649.5 123.0 Q 620.6999999999999 108.89999999999999 637.5 60.0 L 616.5 60.0 L 583.5 69.0 L 550.5 60.0 L 529.5 60.0 Q 546.3000000000001 108.89999999999999 517.5 123.0 L 433.5 426.0 z" fill="rgb(255,217,194)" stroke="black"/>
  <text fill="rgb(9,33,173)" font-size="25" x="558.5" y="159.33333333333334">back</text>
  <path d="M 793.5 156.0 L 829.5 147.0 L 862.5 156.0 Q 907.5 78.00000000000001 844.5 60.0 L 793.5 63.0 L 793.5 156.0 z" fill="rgb(255,217,194)" stroke="black"/>
  <text fill="rgb(9,33,173)" font-size="25" x="799.7" y="119.4">Lhood</text>
  <path d="M 922.5 426.0 L 1072.5 426.0 L 988.5 123.0 Q 959.6999999999999 108.89999999999999 976.5 60.0 L 955.5 60.0 L 922.5 69.0 L 922.5 426.0 z" fill="rgb(255,217,194)" stroke="black"/>
  <text fill="rgb(9,33,173)" font-size="25" x="948.0" y="197.0">front_left</text>
</svg>
