<?xml version="1.0" encoding="utf-8" ?>
<svg xmlns="http://www.w3.org/2000/svg" xmlns:ev="http://www.w3.org/2001/xml-events" xmlns:xlink="http://www.w3.org/1999/xlink" baseProfile="full" height="333.0px" version="1.1" width="1690.0px">
  <defs/>
  <path d="M 60 126 L 141 126 Q 159.0 75.00000000000001 129 60 L 60 60 L 60 126 z" fill="rgb(255,217,194)" stroke="black"/>
  <text fill="rgb(9,33,173)" font-size="25" x="72.5" y="96.0">rbsleeve</text>
  <path d="M 212.5 126.0 L 281.5 126.0 Q 311.5 111.0 293.5 60.0 L 212.5 60.0 L 212.5 126.0 z" fill="rgb(255,217,194)" stroke="black"/>
  <text fill="rgb(9,33,173)" font-size="25" x="225.0" y="96.0">rfsleeve</text>
  <path d="M 365.0 273.0 L 434.0 273.0 Q 467.59999999999997 93.30000000000001 461.0 60.0 L 395.0 60.0 Q 409.7 141.75 365.0 153.0 Q 377.0 159.0 365.0 273.0 z" fill="rgb(255,217,194)" stroke="black"/>
  <text fill="rgb(9,33,173)" font-size="25" x="379.0" y="166.8">Rback</text>
  <path d="M 548.0 273.0 L 617.0 273.0 Q 605.0 159.0 617.0 153.0 Q 576.95 140.25 587.0 60.0 L 521.0 60.0 Q 514.4 93.3 548.0 273.0 z" fill="rgb(255,217,194)" stroke="black"/>
  <text fill="rgb(9,33,173)" font-size="25" x="553.0" y="166.8">Rfront</text>
  <path d="M 677.0 168.0 L 746.0 168.0 L 815.0 168.0 L 815.0 126.0 Q 785.0 111.0 803.0 60.0 L 770.0 60.0 Q 746.0 129.50754437179134 722.0 60.0 L 689.0 60.0 Q 707.0 110.99999999999999 677.0 126.0 L 677.0 168.0 z" fill="rgb(255,217,194)" stroke="black"/>
  <text fill="rgb(9,33,173)" font-size="25" x="721.0" y="113.66666666666667">up_back</text>
  <path d="M 875.0 165.0 L 944.0 165.0 L 1013.0 165.0 L 1013.0 123.0 Q 984.1999999999999 108.89999999999999 1001.0 60.0 L 968.0 60.0 L 944.0 105.0 L 920.0 60.0 L 887.0 60.0 Q 903.8000000000001 108.89999999999999 875.0 123.0 L 875.0 165.0 z" fill="rgb(255,217,194)" stroke="black"/>
  <text fill="rgb(9,33,173)" font-size="25" x="919.0" y="111.6">up_front</text>
  <path d="M 1100.0 273.0 L 1169.0 273.0 Q 1157.0 159.0 1169.0 153.0 Q 1124.3 141.75 1139.0 60.0 L 1073.0 60.0 Q 1066.3999999999999 93.3 1100.0 273.0 z" fill="rgb(255,217,194)" stroke="black"/>
  <text fill="rgb(9,33,173)" font-size="25" x="1105.0" y="166.8">Lback</text>
  <path d="M 1229.0 273.0 L 1298.0 273.0 Q 1331.6000000000001 93.30000000000001 1325.0 60.0 L 1259.0 60.0 Q 1269.05 140.25 1229.0 153.0 Q 1241.0 159.0 1229.0 273.0 z" fill="rgb(255,217,194)" stroke="black"/>
  <text fill="rgb(9,33,173)" font-size="25" x="1243.0" y="166.8">Lfront</text>
  <path d="M 1385.0 126.0 L 1454.0 126.0 Q 1484.0 111.0 1466.0 60.0 L 1385.0 60.0 L 1385.0 126.0 z" fill="rgb(255,217,194)" stroke="black"/>
  <text fill="rgb(9,33,173)" font-size="25" x="1397.5" y="96.0">lbsleeve</text>
  <path d="M 1537.5 126.0 L 1618.5 126.0 Q 1636.5 75.00000000000001 1606.5 60.0 L 1537.5 60.0 L 1537.5 126.0 z" fill="rgb(255,217,194)" stroke="black"/>
  <text fill="rgb(9,33,173)" font-size="25" x="1550.0" y="96.0">lfsleeve</text>
</svg>
