<?xml version="1.0" encoding="utf-8" ?>
<svg xmlns="http://www.w3.org/2000/svg" xmlns:ev="http://www.w3.org/2001/xml-events" xmlns:xlink="http://www.w3.org/1999/xlink" baseProfile="full" height="351px" version="1.1" width="1104px">
  <defs/>
  <path d="M 60 291 L 153 291 Q 164.55 94.65 153 60 L 90 60 Q 104.7 141.75 60 153 Q 73.8 159.9 60 291 z" fill="rgb(255,217,194)" stroke="black"/>
  <text fill="rgb(9,33,173)" font-size="25" x="78.2" y="174.0">Rback</text>
  <path d="M 213 291 L 306 291 Q 292.2 159.9 306 153 Q 265.95 140.25 276 60 L 213 60 Q 201.45 94.65 213 291 z" fill="rgb(255,217,194)" stroke="black"/>
  <text fill="rgb(9,33,173)" font-size="25" x="237.8" y="174.0">Rfront</text>
  <path d="M 381 168 L 444 168 L 507 168 L 522 135 Q 488.4 117.3 510 60 L 480 60 Q 444.0 165.57308268398486 408 60 L 378 60 Q 399.6 117.3 366 135 L 381 168 z" fill="rgb(255,217,194)" stroke="black"/>
  <text fill="rgb(9,33,173)" font-size="25" x="419.0" y="115.66666666666667">up_back</text>
  <path d="M 597 165 L 660 165 L 723 165 L 738 135 Q 704.4 117.3 726 60 L 696 60 L 660 105 L 624 60 L 594 60 Q 615.6 117.3 582 135 L 597 165 z" fill="rgb(255,217,194)" stroke="black"/>
  <text fill="rgb(9,33,173)" font-size="25" x="635.0" y="114.0">up_front</text>
  <path d="M 798 291 L 891 291 Q 877.2 159.9 891 153 Q 846.3 141.75 861 60 L 798 60 Q 786.45 94.65 798 291 z" fill="rgb(255,217,194)" stroke="black"/>
  <text fill="rgb(9,33,173)" font-size="25" x="822.8" y="174.0">Lback</text>
  <path d="M 951 291 L 1044 291 Q 1055.55 94.65 1044 60 L 981 60 Q 991.05 140.25 951 153 Q 964.8 159.9 951 291 z" fill="rgb(255,217,194)" stroke="black"/>
  <text fill="rgb(9,33,173)" font-size="25" x="969.2" y="174.0">Lfront</text>
</svg>
