<?xml version="1.0" encoding="utf-8" ?>
<svg xmlns="http://www.w3.org/2000/svg" xmlns:ev="http://www.w3.org/2001/xml-events" xmlns:xlink="http://www.w3.org/1999/xlink" baseProfile="full" height="360.0px" version="1.1" width="1783.5px">
  <defs/>
  <path d="M 60 168 L 108 168 Q 142.8 87.60000000000001 96 60 L 60 105 L 60 168 z" fill="rgb(255,217,194)" stroke="black"/>
  <text fill="rgb(9,33,173)" font-size="25" x="56.0" y="128.25">rbsleeve</text>
  <path d="M 196.0 123.0 L 232.0 168.0 Q 278.8 140.4 244.0 60.0 L 196.0 60.0 L 196.0 123.0 z" fill="rgb(255,217,194)" stroke="black"/>
  <text fill="rgb(9,33,173)" font-size="25" x="192.0" y="105.75">rfsleeve</text>
  <path d="M 332.0 300.0 L 515.0 300.0 L 515.0 87.0 L 491.0 60.0 L 452.0 60.0 Q 486.8 140.4 440.0 168.0 L 332.0 300.0 z" fill="rgb(255,217,194)" stroke="black"/>
  <text fill="rgb(9,33,173)" font-size="25" x="432.5" y="165.5">front_right</text>
  <path d="M 602.5 183.0 L 617.5 183.0 Q 694.0 178.5 662.5 78.0 L 638.5 87.0 L 614.5 60.0 L 602.5 183.0 z" fill="rgb(255,217,194)" stroke="black"/>
  <text fill="rgb(9,33,173)" font-size="25" x="602.1" y="121.2">Rhood</text>
  <path d="M 722.5 300.0 L 1088.5 300.0 L 980.5 168.0 Q 933.6999999999999 140.4 968.5 60.0 L 929.5 60.0 L 905.5 69.0 L 881.5 60.0 L 842.5 60.0 Q 877.3000000000001 140.4 830.5 168.0 L 722.5 300.0 z" fill="rgb(255,217,194)" stroke="black"/>
  <text fill="rgb(9,33,173)" font-size="25" x="880.5" y="141.33333333333334">back</text>
  <path d="M 1160.5 183.0 L 1184.5 156.0 L 1208.5 165.0 Q 1240.0 64.5 1163.5 60.0 L 1148.5 60.0 L 1160.5 183.0 z" fill="rgb(255,217,194)" stroke="black"/>
  <text fill="rgb(9,33,173)" font-size="25" x="1148.1" y="127.8">Lhood</text>
  <path d="M 1268.5 300.0 L 1451.5 300.0 L 1343.5 168.0 Q 1296.7 140.4 1331.5 60.0 L 1292.5 60.0 L 1268.5 87.0 L 1268.5 300.0 z" fill="rgb(255,217,194)" stroke="black"/>
  <text fill="rgb(9,33,173)" font-size="25" x="1301.0" y="165.5">front_left</text>
  <path d="M 1511.5 123.0 L 1547.5 168.0 Q 1594.3 140.4 1559.5 60.0 L 1511.5 60.0 L 1511.5 123.0 z" fill="rgb(255,217,194)" stroke="black"/>
  <text fill="rgb(9,33,173)" font-size="25" x="1507.5" y="105.75">lbsleeve</text>
  <path d="M 1647.5 168.0 L 1695.5 168.0 Q 1730.3 87.60000000000001 1683.5 60.0 L 1647.5 105.0 L 1647.5 168.0 z" fill="rgb(255,217,194)" stroke="black"/>
  <text fill="rgb(9,33,173)" font-size="25" x="1643.5" y="128.25">lfsleeve</text>
</svg>
