<?xml version="1.0" encoding="utf-8" ?>
<svg xmlns="http://www.w3.org/2000/svg" xmlns:ev="http://www.w3.org/2001/xml-events" xmlns:xlink="http://www.w3.org/1999/xlink" baseProfile="full" height="291px" version="1.1" width="1402.0px">
  <defs/>
  <path d="M 60 231 L 318 231 L 318 60 L 60 60 L 60 231 z" fill="rgb(255,217,194)" stroke="black"/>
  <text fill="rgb(9,33,173)" font-size="25" x="164.0" y="148.5">skirt_back</text>
  <path d="M 378 72 L 468 72 L 468 60 L 378 60 L 378 72 z" fill="rgb(255,217,194)" stroke="black"/>
  <text fill="rgb(9,33,173)" font-size="25" x="398.0" y="69.0">wb_back</text>
  <path d="M 528 72 L 618 72 L 618 60 L 528 60 L 528 72 z" fill="rgb(255,217,194)" stroke="black"/>
  <text fill="rgb(9,33,173)" font-size="25" x="548.0" y="69.0">wb_front</text>
  <path d="M 688.0 231.0 L 946.0 231.0 L 946.0 60.0 L 688.0 60.0 L 688.0 231.0 z" fill="rgb(255,217,194)" stroke="black"/>
  <text fill="rgb(9,33,173)" font-size="25" x="792.0" y="148.5">skirt_front</text>
  <path d="M 1006.0 195.0 L 1144.0 195.0 L 1144.0 135.0 Q 1110.4 117.3 1132.0 60.0 L 1096.0 60.0 Q 1075.0 130.6597732865811 1054.0 60.0 L 1018.0 60.0 Q 1039.6 117.3 1006.0 135.0 L 1006.0 195.0 z" fill="rgb(255,217,194)" stroke="black"/>
  <text fill="rgb(9,33,173)" font-size="25" x="1050.0" y="115.5">top_back</text>
  <path d="M 1204.0 195.0 L 1342.0 195.0 L 1342.0 135.0 Q 1308.4 117.3 1330.0 60.0 L 1294.0 60.0 L 1273.0 87.0 L 1252.0 60.0 L 1216.0 60.0 Q 1237.6 117.3 1204.0 135.0 L 1204.0 195.0 z" fill="rgb(255,217,194)" stroke="black"/>
  <text fill="rgb(9,33,173)" font-size="25" x="1248.0" y="112.66666666666667">top_front</text>
</svg>
