<?xml version="1.0" encoding="utf-8" ?>
<svg xmlns="http://www.w3.org/2000/svg" xmlns:ev="http://www.w3.org/2001/xml-events" xmlns:xlink="http://www.w3.org/1999/xlink" baseProfile="full" height="495.0px" version="1.1" width="1378.0px">
  <defs/>
  <path d="M 60 153 L 144 153 Q 166.8 93.60000000000001 132 75 L 60 60 L 60 153 z" fill="rgb(255,217,194)" stroke="black"/>
  <text fill="rgb(9,33,173)" font-size="25" x="74.0" y="113.25">rbsleeve</text>
  <path d="M 214.0 153.0 L 286.0 138.0 Q 320.8 119.39999999999999 298.0 60.0 L 214.0 60.0 L 214.0 153.0 z" fill="rgb(255,217,194)" stroke="black"/>
  <text fill="rgb(9,33,173)" font-size="25" x="228.0" y="105.75">rfsleeve</text>
  <path d="M 383.0 435.0 L 503.0 435.0 L 518.0 138.0 Q 483.2 119.39999999999999 506.0 60.0 L 485.0 60.0 L 443.0 69.0 L 401.0 60.0 L 380.0 60.0 Q 402.8 119.39999999999999 368.0 138.0 L 383.0 435.0 z" fill="rgb(255,217,194)" stroke="black"/>
  <text fill="rgb(9,33,173)" font-size="25" x="418.0" y="164.66666666666666">back</text>
  <path d="M 593.0 435.0 L 713.0 435.0 L 728.0 138.0 Q 693.1999999999999 119.39999999999999 716.0 60.0 L 695.0 60.0 L 653.0 81.0 L 611.0 60.0 L 590.0 60.0 Q 612.8000000000001 119.39999999999999 578.0 138.0 L 593.0 435.0 z" fill="rgb(255,217,194)" stroke="black"/>
  <text fill="rgb(9,33,173)" font-size="25" x="628.0" y="166.0">front</text>
  <path d="M 794.0 183.0 L 848.0 180.0 Q 915.5 162.0 869.0 78.0 L 830.0 87.0 L 788.0 60.0 L 794.0 183.0 z" fill="rgb(255,217,194)" stroke="black"/>
  <text fill="rgb(9,33,173)" font-size="25" x="800.8" y="120.6">Rhood</text>
  <path d="M 929.0 183.0 L 971.0 156.0 L 1010.0 165.0 Q 1056.5 81.00000000000001 989.0 63.0 L 935.0 60.0 L 929.0 183.0 z" fill="rgb(255,217,194)" stroke="black"/>
  <text fill="rgb(9,33,173)" font-size="25" x="941.8" y="128.4">Lhood</text>
  <path d="M 1070.0 153.0 L 1142.0 138.0 Q 1176.8 119.39999999999999 1154.0 60.0 L 1070.0 60.0 L 1070.0 153.0 z" fill="rgb(255,217,194)" stroke="black"/>
  <text fill="rgb(9,33,173)" font-size="25" x="1084.0" y="105.75">lbsleeve</text>
  <path d="M 1224.0 153.0 L 1308.0 153.0 Q 1330.8 93.60000000000001 1296.0 75.0 L 1224.0 60.0 L 1224.0 153.0 z" fill="rgb(255,217,194)" stroke="black"/>
  <text fill="rgb(9,33,173)" font-size="25" x="1238.0" y="113.25">lfsleeve</text>
</svg>
