<?xml version="1.0" encoding="utf-8" ?>
<svg xmlns="http://www.w3.org/2000/svg" xmlns:ev="http://www.w3.org/2001/xml-events" xmlns:xlink="http://www.w3.org/1999/xlink" baseProfile="full" height="291px" version="1.1" width="1696.0px">
  <defs/>
  <path d="M 60 231 L 156 231 Q 178.8 171.6 144 153 L 60 60 L 60 231 z" fill="rgb(255,217,194)" stroke="black"/>
  <text fill="rgb(9,33,173)" font-size="25" x="80.0" y="171.75">rbsleeve</text>
  <path d="M 220.0 231.0 L 304.0 138.0 Q 338.8 119.39999999999999 316.0 60.0 L 220.0 60.0 L 220.0 231.0 z" fill="rgb(255,217,194)" stroke="black"/>
  <text fill="rgb(9,33,173)" font-size="25" x="240.0" y="125.25">rfsleeve</text>
  <path d="M 380.0 210.0 Q 494.0 232.6740648342981 608.0 210.0 L 578.0 102.0 L 557.0 60.0 L 431.0 60.0 L 410.0 102.0 L 380.0 210.0 z" fill="rgb(255,217,194)" stroke="black"/>
  <text fill="rgb(9,33,173)" font-size="25" x="469.0" y="127.0">skirt_back</text>
  <path d="M 668.0 210.0 Q 782.0 310.5040533480527 896.0 210.0 L 866.0 102.0 L 845.0 60.0 L 719.0 60.0 L 698.0 102.0 L 668.0 210.0 z" fill="rgb(255,217,194)" stroke="black"/>
  <text fill="rgb(9,33,173)" font-size="25" x="757.0" y="127.0">skirt_front</text>
  <path d="M 968.0 168.0 L 1094.0 168.0 L 1106.0 135.0 Q 1072.4 117.3 1094.0 60.0 L 1055.0 60.0 Q 1031.0 130.1043425265699 1007.0 60.0 L 968.0 60.0 Q 989.6 117.3 956.0 135.0 L 968.0 168.0 z" fill="rgb(255,217,194)" stroke="black"/>
  <text fill="rgb(9,33,173)" font-size="25" x="1006.0" y="108.75">top_back</text>
  <path d="M 1178.0 165.0 L 1304.0 165.0 L 1316.0 135.0 Q 1282.4 117.3 1304.0 60.0 L 1265.0 60.0 L 1241.0 123.0 L 1217.0 60.0 L 1178.0 60.0 Q 1199.6 117.3 1166.0 135.0 L 1178.0 165.0 z" fill="rgb(255,217,194)" stroke="black"/>
  <text fill="rgb(9,33,173)" font-size="25" x="1216.0" y="110.0">top_front</text>
  <path d="M 1376.0 231.0 L 1460.0 138.0 Q 1494.8 119.39999999999999 1472.0 60.0 L 1376.0 60.0 L 1376.0 231.0 z" fill="rgb(255,217,194)" stroke="black"/>
  <text fill="rgb(9,33,173)" font-size="25" x="1396.0" y="125.25">lbsleeve</text>
  <path d="M 1536.0 231.0 L 1632.0 231.0 Q 1654.8 171.6 1620.0 153.0 L 1536.0 60.0 L 1536.0 231.0 z" fill="rgb(255,217,194)" stroke="black"/>
  <text fill="rgb(9,33,173)" font-size="25" x="1556.0" y="171.75">lfsleeve</text>
</svg>
