<?xml version="1.0" encoding="utf-8" ?>
<svg xmlns="http://www.w3.org/2000/svg" xmlns:ev="http://www.w3.org/2001/xml-events" xmlns:xlink="http://www.w3.org/1999/xlink" baseProfile="full" height="228px" version="1.1" width="1092px">
  <defs/>
  <path d="M 60 165 Q 156.0 204.14142034170047 252 165 L 243 102 L 231 60 L 81 60 L 69 102 L 60 165 z" fill="rgb(255,217,194)" stroke="black"/>
  <text fill="rgb(9,33,173)" font-size="25" x="131.0" y="112.0">skirt_back</text>
  <path d="M 312 165 Q 408.0 171.4208378363638 504 165 L 495 102 L 483 60 L 333 60 L 321 102 L 312 165 z" fill="rgb(255,217,194)" stroke="black"/>
  <text fill="rgb(9,33,173)" font-size="25" x="383.0" y="112.0">skirt_front</text>
  <path d="M 591 168 L 741 168 L 768 108 Q 743.4 100.8 750 60 L 696 60 Q 666.0 65.37902960164472 636 60 L 582 60 Q 588.6 100.8 564 108 L 591 168 z" fill="rgb(255,217,194)" stroke="black"/>
  <text fill="rgb(9,33,173)" font-size="25" x="641.0" y="102.0">top_back</text>
  <path d="M 855 165 L 1005 165 L 1032 105 Q 1008.5999999999999 98.7 1014 60 L 960 60 L 930 66 L 900 60 L 846 60 Q 851.4 98.7 828 105 L 855 165 z" fill="rgb(255,217,194)" stroke="black"/>
  <text fill="rgb(9,33,173)" font-size="25" x="905.0" y="97.0">top_front</text>
</svg>
