<?xml version="1.0" encoding="utf-8" ?>
<svg xmlns="http://www.w3.org/2000/svg" xmlns:ev="http://www.w3.org/2001/xml-events" xmlns:xlink="http://www.w3.org/1999/xlink" baseProfile="full" height="405px" version="1.1" width="1438.0px">
  <defs/>
  <path d="M 60 345 L 324 345 L 324 60 L 60 60 L 60 345 z" fill="rgb(255,217,194)" stroke="black"/>
  <text fill="rgb(9,33,173)" font-size="25" x="167.0" y="205.5">skirt_back</text>
  <path d="M 384 69 L 474 69 L 474 60 L 384 60 L 384 69 z" fill="rgb(255,217,194)" stroke="black"/>
  <text fill="rgb(9,33,173)" font-size="25" x="404.0" y="67.5">wb_back</text>
  <path d="M 534 69 L 624 69 L 624 60 L 534 60 L 534 69 z" fill="rgb(255,217,194)" stroke="black"/>
  <text fill="rgb(9,33,173)" font-size="25" x="554.0" y="67.5">wb_front</text>
  <path d="M 694.0 345.0 L 958.0 345.0 L 958.0 60.0 L 694.0 60.0 L 694.0 345.0 z" fill="rgb(255,217,194)" stroke="black"/>
  <text fill="rgb(9,33,173)" font-size="25" x="801.0" y="205.5">skirt_front</text>
  <path d="M 1018.0 162.0 L 1168.0 162.0 L 1168.0 123.0 Q 1139.2 108.89999999999999 1156.0 60.0 L 1114.0 60.0 Q 1093.0 95.1914134425 1072.0 60.0 L 1030.0 60.0 Q 1046.8 108.89999999999999 1018.0 123.0 L 1018.0 162.0 z" fill="rgb(255,217,194)" stroke="black"/>
  <text fill="rgb(9,33,173)" font-size="25" x="1068.0" y="104.25">top_back</text>
  <path d="M 1228.0 162.0 L 1378.0 162.0 L 1378.0 123.0 Q 1349.2 108.89999999999999 1366.0 60.0 L 1324.0 60.0 L 1303.0 99.0 L 1282.0 60.0 L 1240.0 60.0 Q 1256.8 108.89999999999999 1228.0 123.0 L 1228.0 162.0 z" fill="rgb(255,217,194)" stroke="black"/>
  <text fill="rgb(9,33,173)" font-size="25" x="1278.0" y="104.0">top_front</text>
</svg>
