<?xml version="1.0" encoding="utf-8" ?>
<svg xmlns="http://www.w3.org/2000/svg" xmlns:ev="http://www.w3.org/2001/xml-events" xmlns:xlink="http://www.w3.org/1999/xlink" baseProfile="full" height="399px" version="1.1" width="1058.6px">
  <defs/>
  <path d="M 60 339 L 105 339 Q 154.64999999999998 103.94999999999999 147 60 L 90 60 Q 104.7 141.75 60 153 Q 78.6 162.3 60 339 z" fill="rgb(255,217,194)" stroke="black"/>
  <text fill="rgb(9,33,173)" font-size="25" x="67.4" y="193.2">Rback</text>
  <path d="M 249 339 L 294 339 Q 275.4 162.3 294 153 Q 253.95 140.25 264 60 L 207 60 Q 199.35000000000002 103.94999999999999 249 339 z" fill="rgb(255,217,194)" stroke="black"/>
  <text fill="rgb(9,33,173)" font-size="25" x="236.60000000000002" y="193.2">Rfront</text>
  <path d="M 371.6 168.0 L 428.6 168.0 L 485.6 168.0 L 500.6 144.0 Q 463.4 123.6 488.6 60.0 L 467.6 60.0 Q 428.6 88.78956240775 389.6 60.0 L 368.6 60.0 Q 393.80000000000007 123.6 356.6 144.0 L 371.6 168.0 z" fill="rgb(255,217,194)" stroke="black"/>
  <text fill="rgb(9,33,173)" font-size="25" x="403.59999999999997" y="117.66666666666667">up_back</text>
  <path d="M 575.6 165.0 L 632.6 165.0 L 689.6 165.0 L 704.6 144.0 Q 667.4 123.6 692.6 60.0 L 671.6 60.0 L 632.6 69.0 L 593.6 60.0 L 572.6 60.0 Q 597.8000000000001 123.6 560.6 144.0 L 575.6 165.0 z" fill="rgb(255,217,194)" stroke="black"/>
  <text fill="rgb(9,33,173)" font-size="25" x="607.6000000000001" y="112.2">up_front</text>
  <path d="M 806.6 339.0 L 851.6 339.0 Q 833.0 162.3 851.6 153.0 Q 806.9 141.75 821.6 60.0 L 764.6 60.0 Q 756.9499999999999 103.94999999999999 806.6 339.0 z" fill="rgb(255,217,194)" stroke="black"/>
  <text fill="rgb(9,33,173)" font-size="25" x="794.2" y="193.2">Lback</text>
  <path d="M 911.6 339.0 L 956.6 339.0 Q 1006.2500000000001 103.94999999999999 998.6 60.0 L 941.6 60.0 Q 951.65 140.25 911.6 153.0 Q 930.2 162.3 911.6 339.0 z" fill="rgb(255,217,194)" stroke="black"/>
  <text fill="rgb(9,33,173)" font-size="25" x="919.0" y="193.2">Lfront</text>
</svg>
