<?xml version="1.0" encoding="utf-8" ?>
<svg xmlns="http://www.w3.org/2000/svg" xmlns:ev="http://www.w3.org/2001/xml-events" xmlns:xlink="http://www.w3.org/1999/xlink" baseProfile="full" height="357.0px" version="1.1" width="1310.0px">
  <defs/>
  <path d="M 60 171 L 126 171 Q 159.9 87.30000000000001 111 60 L 60 87 L 60 171 z" fill="rgb(255,217,194)" stroke="black"/>
  <text fill="rgb(9,33,173)" font-size="25" x="64.25" y="125.25">rbsleeve</text>
  <path d="M 204.25 144.0 L 255.25 171.0 Q 304.15 143.7 270.25 60.0 L 204.25 60.0 L 204.25 144.0 z" fill="rgb(255,217,194)" stroke="black"/>
  <text fill="rgb(9,33,173)" font-size="25" x="208.5" y="111.75">rfsleeve</text>
  <path d="M 348.5 294.0 L 459.5 294.0 L 459.5 81.0 L 423.5 60.0 L 378.5 60.0 Q 411.2 141.6 363.5 168.0 L 348.5 294.0 z" fill="rgb(255,217,194)" stroke="black"/>
  <text fill="rgb(9,33,173)" font-size="25" x="380.5" y="162.5">front_right</text>
  <path d="M 550.5 297.0 L 772.5 297.0 L 757.5 168.0 Q 709.8 141.6 742.5 60.0 L 697.5 60.0 Q 661.5 270.669270017821 625.5 60.0 L 580.5 60.0 Q 613.2 141.6 565.5 168.0 L 550.5 297.0 z" fill="rgb(255,217,194)" stroke="black"/>
  <text fill="rgb(9,33,173)" font-size="25" x="636.5" y="149.25">back</text>
  <path d="M 832.5 294.0 L 943.5 294.0 L 928.5 168.0 Q 880.8 141.6 913.5 60.0 L 868.5 60.0 L 832.5 81.0 L 832.5 294.0 z" fill="rgb(255,217,194)" stroke="black"/>
  <text fill="rgb(9,33,173)" font-size="25" x="861.5" y="162.5">front_left</text>
  <path d="M 1021.5 144.0 L 1072.5 171.0 Q 1121.4 143.7 1087.5 60.0 L 1021.5 60.0 L 1021.5 144.0 z" fill="rgb(255,217,194)" stroke="black"/>
  <text fill="rgb(9,33,173)" font-size="25" x="1025.75" y="111.75">lbsleeve</text>
  <path d="M 1165.75 171.0 L 1231.75 171.0 Q 1265.65 87.30000000000001 1216.75 60.0 L 1165.75 87.0 L 1165.75 171.0 z" fill="rgb(255,217,194)" stroke="black"/>
  <text fill="rgb(9,33,173)" font-size="25" x="1170.0" y="125.25">lfsleeve</text>
</svg>
