<?xml version="1.0" encoding="utf-8" ?>
<svg xmlns="http://www.w3.org/2000/svg" xmlns:ev="http://www.w3.org/2001/xml-events" xmlns:xlink="http://www.w3.org/1999/xlink" baseProfile="full" height="510.0px" version="1.1" width="1207.0px">
  <defs/>
  <path d="M 60 216 L 84 216 Q 126.9 126.30000000000001 75 93 L 60 60 L 60 216 z" fill="rgb(255,217,194)" stroke="black"/>
  <text fill="rgb(9,33,173)" font-size="25" x="44.75" y="149.25">rbsleeve</text>
  <path d="M 184.75 216.0 L 199.75 183.0 Q 251.64999999999998 149.7 208.75 60.0 L 184.75 60.0 L 184.75 216.0 z" fill="rgb(255,217,194)" stroke="black"/>
  <text fill="rgb(9,33,173)" font-size="25" x="169.5" y="132.75">rfsleeve</text>
  <path d="M 309.5 450.0 L 573.5 450.0 L 501.5 183.0 Q 449.6 149.7 492.5 60.0 L 456.5 60.0 Q 441.5 142.46344760463546 426.5 60.0 L 390.5 60.0 Q 433.4 149.7 381.5 183.0 L 309.5 450.0 z" fill="rgb(255,217,194)" stroke="black"/>
  <text fill="rgb(9,33,173)" font-size="25" x="416.5" y="191.25">back</text>
  <path d="M 633.5 450.0 L 897.5 450.0 L 825.5 180.0 Q 774.8 147.6 816.5 60.0 L 780.5 60.0 L 765.5 90.0 L 750.5 60.0 L 714.5 60.0 Q 756.2 147.6 705.5 180.0 L 633.5 450.0 z" fill="rgb(255,217,194)" stroke="black"/>
  <text fill="rgb(9,33,173)" font-size="25" x="740.5" y="179.66666666666666">front</text>
  <path d="M 957.5 216.0 L 972.5 183.0 Q 1024.4 149.7 981.5 60.0 L 957.5 60.0 L 957.5 216.0 z" fill="rgb(255,217,194)" stroke="black"/>
  <text fill="rgb(9,33,173)" font-size="25" x="942.25" y="132.75">lbsleeve</text>
  <path d="M 1082.25 216.0 L 1106.25 216.0 Q 1149.15 126.30000000000001 1097.25 93.0 L 1082.25 60.0 L 1082.25 216.0 z" fill="rgb(255,217,194)" stroke="black"/>
  <text fill="rgb(9,33,173)" font-size="25" x="1067.0" y="149.25">lfsleeve</text>
</svg>
