<?xml version="1.0" encoding="utf-8" ?>
<svg xmlns="http://www.w3.org/2000/svg" xmlns:ev="http://www.w3.org/2001/xml-events" xmlns:xlink="http://www.w3.org/1999/xlink" baseProfile="full" height="342.0px" version="1.1" width="1528.0px">
  <defs/>
  <path d="M 60 141 L 126 141 Q 150.0 79.50000000000001 114 60 L 60 63 L 60 141 z" fill="rgb(255,217,194)" stroke="black"/>
  <text fill="rgb(9,33,173)" font-size="25" x="65.0" y="104.25">rbsleeve</text>
  <path d="M 205.0 138.0 L 259.0 141.0 Q 295.0 121.5 271.0 60.0 L 205.0 60.0 L 205.0 138.0 z" fill="rgb(255,217,194)" stroke="black"/>
  <text fill="rgb(9,33,173)" font-size="25" x="210.0" y="102.75">rfsleeve</text>
  <path d="M 350.0 282.0 L 608.0 282.0 L 551.0 138.0 Q 516.1999999999999 119.39999999999999 539.0 60.0 L 506.0 60.0 L 479.0 69.0 L 452.0 60.0 L 419.0 60.0 Q 441.8 119.39999999999999 407.0 138.0 L 350.0 282.0 z" fill="rgb(255,217,194)" stroke="black"/>
  <text fill="rgb(9,33,173)" font-size="25" x="454.0" y="130.66666666666669">back</text>
  <path d="M 668.0 282.0 L 926.0 282.0 L 869.0 138.0 Q 834.1999999999999 119.39999999999999 857.0 60.0 L 824.0 60.0 L 797.0 87.0 L 770.0 60.0 L 737.0 60.0 Q 759.8000000000001 119.39999999999999 725.0 138.0 L 668.0 282.0 z" fill="rgb(255,217,194)" stroke="black"/>
  <text fill="rgb(9,33,173)" font-size="25" x="772.0" y="132.66666666666666">front</text>
  <path d="M 986.0 180.0 L 998.0 180.0 Q 1073.6000000000001 182.70000000000002 1052.0 81.0 L 1022.0 90.0 L 992.0 60.0 L 986.0 180.0 z" fill="rgb(255,217,194)" stroke="black"/>
  <text fill="rgb(9,33,173)" font-size="25" x="985.0" y="121.2">Rhood</text>
  <path d="M 1118.0 180.0 L 1148.0 150.0 L 1178.0 159.0 Q 1199.6000000000001 57.300000000000004 1124.0 60.0 L 1112.0 60.0 L 1118.0 180.0 z" fill="rgb(255,217,194)" stroke="black"/>
  <text fill="rgb(9,33,173)" font-size="25" x="1111.0" y="124.8">Lhood</text>
  <path d="M 1238.0 138.0 L 1292.0 141.0 Q 1328.0 121.5 1304.0 60.0 L 1238.0 60.0 L 1238.0 138.0 z" fill="rgb(255,217,194)" stroke="black"/>
  <text fill="rgb(9,33,173)" font-size="25" x="1243.0" y="102.75">lbsleeve</text>
  <path d="M 1383.0 141.0 L 1449.0 141.0 Q 1473.0 79.50000000000001 1437.0 60.0 L 1383.0 63.0 L 1383.0 141.0 z" fill="rgb(255,217,194)" stroke="black"/>
  <text fill="rgb(9,33,173)" font-size="25" x="1388.0" y="104.25">lfsleeve</text>
</svg>
