<?xml version="1.0" encoding="utf-8" ?>
<svg xmlns="http://www.w3.org/2000/svg" xmlns:ev="http://www.w3.org/2001/xml-events" xmlns:xlink="http://www.w3.org/1999/xlink" baseProfile="full" height="513.0px" version="1.1" width="1549.0px">
  <defs/>
  <path d="M 60 225 L 99 225 Q 125.7 153.9 84 132 L 60 60 L 60 225 z" fill="rgb(255,217,194)" stroke="black"/>
  <text fill="rgb(9,33,173)" font-size="25" x="50.75" y="163.5">rbsleeve</text>
  <path d="M 190.75 225.0 L 214.75 153.0 Q 256.45 131.1 229.75 60.0 L 190.75 60.0 L 190.75 225.0 z" fill="rgb(255,217,194)" stroke="black"/>
  <text fill="rgb(9,33,173)" font-size="25" x="181.5" y="127.5">rfsleeve</text>
  <path d="M 321.5 453.0 L 615.5 453.0 L 555.5 153.0 Q 513.8 131.1 540.5 60.0 L 501.5 60.0 L 468.5 69.0 L 435.5 60.0 L 396.5 60.0 Q 423.2 131.1 381.5 153.0 L 321.5 453.0 z" fill="rgb(255,217,194)" stroke="black"/>
  <text fill="rgb(9,33,173)" font-size="25" x="443.5" y="172.0">back</text>
  <path d="M 675.5 453.0 L 969.5 453.0 L 909.5 153.0 Q 867.8 131.1 894.5 60.0 L 855.5 60.0 L 822.5 81.0 L 789.5 60.0 L 750.5 60.0 Q 777.2 131.1 735.5 153.0 L 675.5 453.0 z" fill="rgb(255,217,194)" stroke="black"/>
  <text fill="rgb(9,33,173)" font-size="25" x="797.5" y="173.33333333333334">front</text>
  <path d="M 1029.5 156.0 L 1053.5 159.0 Q 1115.6 161.7 1098.5 78.0 L 1065.5 87.0 L 1032.5 60.0 L 1029.5 156.0 z" fill="rgb(255,217,194)" stroke="black"/>
  <text fill="rgb(9,33,173)" font-size="25" x="1030.9" y="111.0">Rhood</text>
  <path d="M 1161.5 159.0 L 1194.5 132.0 L 1227.5 141.0 Q 1244.6 57.30000000000001 1182.5 60.0 L 1158.5 63.0 L 1161.5 159.0 z" fill="rgb(255,217,194)" stroke="black"/>
  <text fill="rgb(9,33,173)" font-size="25" x="1159.9" y="114.0">Lhood</text>
  <path d="M 1287.5 225.0 L 1311.5 153.0 Q 1353.2 131.1 1326.5 60.0 L 1287.5 60.0 L 1287.5 225.0 z" fill="rgb(255,217,194)" stroke="black"/>
  <text fill="rgb(9,33,173)" font-size="25" x="1278.25" y="127.5">lbsleeve</text>
  <path d="M 1418.25 225.0 L 1457.25 225.0 Q 1483.95 153.9 1442.25 132.0 L 1418.25 60.0 L 1418.25 225.0 z" fill="rgb(255,217,194)" stroke="black"/>
  <text fill="rgb(9,33,173)" font-size="25" x="1409.0" y="163.5">lfsleeve</text>
</svg>
