<?xml version="1.0" encoding="utf-8" ?>
<svg xmlns="http://www.w3.org/2000/svg" xmlns:ev="http://www.w3.org/2001/xml-events" xmlns:xlink="http://www.w3.org/1999/xlink" baseProfile="full" height="432px" version="1.1" width="1453.0px">
  <defs/>
  <path d="M 60 231 L 171 231 Q 189.0 180.0 159 165 L 60 60 L 60 231 z" fill="rgb(255,217,194)" stroke="black"/>
  <text fill="rgb(9,33,173)" font-size="25" x="87.5" y="174.75">rbsleeve</text>
  <path d="M 231 231 L 330 126 Q 360.0 111.0 342 60 L 231 60 L 231 231 z" fill="rgb(255,217,194)" stroke="black"/>
  <text fill="rgb(9,33,173)" font-size="25" x="258.5" y="122.25">rfsleeve</text>
  <path d="M 402 372 L 525 372 L 525 144 L 486 60 L 462 60 Q 478.8 108.89999999999999 450 123 L 402 372 z" fill="rgb(255,217,194)" stroke="black"/>
  <text fill="rgb(9,33,173)" font-size="25" x="450.0" y="191.5">front_right</text>
  <path d="M 620.0 372.0 L 866.0 372.0 L 818.0 123.0 Q 789.1999999999999 108.89999999999999 806.0 60.0 L 782.0 60.0 Q 743.0 236.14537567980545 704.0 60.0 L 680.0 60.0 Q 696.8000000000001 108.89999999999999 668.0 123.0 L 620.0 372.0 z" fill="rgb(255,217,194)" stroke="black"/>
  <text fill="rgb(9,33,173)" font-size="25" x="718.0" y="156.75">back</text>
  <path d="M 926.0 372.0 L 1049.0 372.0 L 1001.0 123.0 Q 972.1999999999999 108.89999999999999 989.0 60.0 L 965.0 60.0 L 926.0 144.0 L 926.0 372.0 z" fill="rgb(255,217,194)" stroke="black"/>
  <text fill="rgb(9,33,173)" font-size="25" x="951.0" y="191.5">front_left</text>
  <path d="M 1111.0 231.0 L 1210.0 126.0 Q 1240.0 111.0 1222.0 60.0 L 1111.0 60.0 L 1111.0 231.0 z" fill="rgb(255,217,194)" stroke="black"/>
  <text fill="rgb(9,33,173)" font-size="25" x="1138.5" y="122.25">lbsleeve</text>
  <path d="M 1282.0 231.0 L 1393.0 231.0 Q 1411.0 180.0 1381.0 165.0 L 1282.0 60.0 L 1282.0 231.0 z" fill="rgb(255,217,194)" stroke="black"/>
  <text fill="rgb(9,33,173)" font-size="25" x="1309.5" y="174.75">lfsleeve</text>
</svg>
