<?xml version="1.0" encoding="utf-8" ?>
<svg xmlns="http://www.w3.org/2000/svg" xmlns:ev="http://www.w3.org/2001/xml-events" xmlns:xlink="http://www.w3.org/1999/xlink" baseProfile="full" height="243px" version="1.1" width="1140px">
  <defs/>
  <path d="M 60 183 L 168 183 Q 166.5 78.0 159 60 L 90 60 Q 104.7 141.75 60 153 Q 63.0 154.5 60 183 z" fill="rgb(255,217,194)" stroke="black"/>
  <text fill="rgb(9,33,173)" font-size="25" x="82.4" y="130.8">Rback</text>
  <path d="M 228 183 L 336 183 Q 333.0 154.5 336 153 Q 295.95 140.25 306 60 L 237 60 Q 229.5 78.0 228 183 z" fill="rgb(255,217,194)" stroke="black"/>
  <text fill="rgb(9,33,173)" font-size="25" x="263.6" y="130.8">Rfront</text>
  <path d="M 396 168 L 468 168 L 540 168 L 528 129 Q 497.69999999999993 111.89999999999999 519 60 L 486 60 Q 468.0 95.10691382617873 450 60 L 417 60 Q 438.3 111.89999999999999 408 129 L 396 168 z" fill="rgb(255,217,194)" stroke="black"/>
  <text fill="rgb(9,33,173)" font-size="25" x="443.0" y="114.33333333333333">up_back</text>
  <path d="M 600 165 L 672 165 L 744 165 L 732 129 Q 701.6999999999999 111.89999999999999 723 60 L 690 60 L 672 120 L 654 60 L 621 60 Q 642.3000000000001 111.89999999999999 612 129 L 600 165 z" fill="rgb(255,217,194)" stroke="black"/>
  <text fill="rgb(9,33,173)" font-size="25" x="647.0" y="114.3">up_front</text>
  <path d="M 804 183 L 912 183 Q 909.0 154.5 912 153 Q 867.3 141.75 882 60 L 813 60 Q 805.5 78.0 804 183 z" fill="rgb(255,217,194)" stroke="black"/>
  <text fill="rgb(9,33,173)" font-size="25" x="839.6" y="130.8">Lback</text>
  <path d="M 972 183 L 1080 183 Q 1078.5 78.0 1071 60 L 1002 60 Q 1012.05 140.25 972 153 Q 975.0 154.5 972 183 z" fill="rgb(255,217,194)" stroke="black"/>
  <text fill="rgb(9,33,173)" font-size="25" x="994.4" y="130.8">Lfront</text>
</svg>
