<?xml version="1.0" encoding="utf-8" ?>
<svg xmlns="http://www.w3.org/2000/svg" xmlns:ev="http://www.w3.org/2001/xml-events" xmlns:xlink="http://www.w3.org/1999/xlink" baseProfile="full" height="294.0px" version="1.1" width="1564.0px">
  <defs/>
  <path d="M 60 144 L 87 144 Q 96.6 107.7 75 99 L 60 60 L 60 144 z" fill="rgb(255,217,194)" stroke="black"/>
  <text fill="rgb(9,33,173)" font-size="25" x="45.5" y="114.75">rbsleeve</text>
  <path d="M 185.5 144.0 L 200.5 105.0 Q 222.1 96.3 212.5 60.0 L 185.5 60.0 L 185.5 144.0 z" fill="rgb(255,217,194)" stroke="black"/>
  <text fill="rgb(9,33,173)" font-size="25" x="171.0" y="95.25">rfsleeve</text>
  <path d="M 311.0 234.0 L 599.0 234.0 L 539.0 105.0 Q 516.5 97.5 524.0 60.0 L 500.0 60.0 L 455.0 69.0 L 410.0 60.0 L 386.0 60.0 Q 393.5 97.5 371.0 105.0 L 311.0 234.0 z" fill="rgb(255,217,194)" stroke="black"/>
  <text fill="rgb(9,33,173)" font-size="25" x="430.0" y="112.66666666666667">back</text>
  <path d="M 659.0 234.0 L 947.0 234.0 L 887.0 105.0 Q 864.5 97.5 872.0 60.0 L 848.0 60.0 L 803.0 60.0 L 758.0 60.0 L 734.0 60.0 Q 741.5 97.5 719.0 105.0 L 659.0 234.0 z" fill="rgb(255,217,194)" stroke="black"/>
  <text fill="rgb(9,33,173)" font-size="25" x="778.0" y="111.66666666666667">front</text>
  <path d="M 1019.0 159.0 L 1067.0 159.0 Q 1136.3000000000002 149.10000000000002 1100.0 60.0 L 1055.0 69.0 L 1007.0 63.0 L 1019.0 159.0 z" fill="rgb(255,217,194)" stroke="black"/>
  <text fill="rgb(9,33,173)" font-size="25" x="1024.6" y="105.0">Rhood</text>
  <path d="M 1160.0 156.0 L 1208.0 150.0 L 1253.0 159.0 Q 1289.3000000000002 69.9 1220.0 60.0 L 1172.0 60.0 L 1160.0 156.0 z" fill="rgb(255,217,194)" stroke="black"/>
  <text fill="rgb(9,33,173)" font-size="25" x="1177.6" y="120.0">Lhood</text>
  <path d="M 1313.0 144.0 L 1328.0 105.0 Q 1349.6 96.3 1340.0 60.0 L 1313.0 60.0 L 1313.0 144.0 z" fill="rgb(255,217,194)" stroke="black"/>
  <text fill="rgb(9,33,173)" font-size="25" x="1298.5" y="95.25">lbsleeve</text>
  <path d="M 1438.5 144.0 L 1465.5 144.0 Q 1475.1 107.7 1453.5 99.0 L 1438.5 60.0 L 1438.5 144.0 z" fill="rgb(255,217,194)" stroke="black"/>
  <text fill="rgb(9,33,173)" font-size="25" x="1424.0" y="114.75">lfsleeve</text>
</svg>
