<?xml version="1.0" encoding="utf-8" ?>
<svg xmlns="http://www.w3.org/2000/svg" xmlns:ev="http://www.w3.org/2001/xml-events" xmlns:xlink="http://www.w3.org/1999/xlink" baseProfile="full" height="438px" version="1.1" width="1675.0px">
  <defs/>
  <path d="M 60 210 L 165 210 Q 192.6 142.2 153 120 L 60 60 L 60 210 z" fill="rgb(255,217,194)" stroke="black"/>
  <text fill="rgb(9,33,173)" font-size="25" x="84.5" y="153.0">rbsleeve</text>
  <path d="M 225 210 L 318 150 Q 357.6 127.8 330 60 L 225 60 L 225 210 z" fill="rgb(255,217,194)" stroke="black"/>
  <text fill="rgb(9,33,173)" font-size="25" x="249.5" y="123.0">rfsleeve</text>
  <path d="M 390 378 L 507 378 L 507 114 L 471 60 L 444 60 Q 471.6 127.8 432 150 L 390 378 z" fill="rgb(255,217,194)" stroke="black"/>
  <text fill="rgb(9,33,173)" font-size="25" x="433.5" y="193.0">front_right</text>
  <path d="M 606.5 216.0 L 639.5 213.0 Q 713.3 203.1 675.5 108.0 L 642.5 117.0 L 603.5 60.0 L 606.5 216.0 z" fill="rgb(255,217,194)" stroke="black"/>
  <text fill="rgb(9,33,173)" font-size="25" x="608.5" y="145.8">Rhood</text>
  <path d="M 735.5 378.0 L 969.5 378.0 L 927.5 150.0 Q 887.9 127.8 915.5 60.0 L 888.5 60.0 L 852.5 69.0 L 816.5 60.0 L 789.5 60.0 Q 817.1 127.8 777.5 150.0 L 735.5 378.0 z" fill="rgb(255,217,194)" stroke="black"/>
  <text fill="rgb(9,33,173)" font-size="25" x="827.5" y="154.66666666666666">back</text>
  <path d="M 1029.5 216.0 L 1068.5 159.0 L 1101.5 168.0 Q 1139.3 72.9 1065.5 63.0 L 1032.5 60.0 L 1029.5 216.0 z" fill="rgb(255,217,194)" stroke="black"/>
  <text fill="rgb(9,33,173)" font-size="25" x="1034.5" y="136.2">Lhood</text>
  <path d="M 1161.5 378.0 L 1278.5 378.0 L 1236.5 150.0 Q 1196.9 127.8 1224.5 60.0 L 1197.5 60.0 L 1161.5 114.0 L 1161.5 378.0 z" fill="rgb(255,217,194)" stroke="black"/>
  <text fill="rgb(9,33,173)" font-size="25" x="1185.0" y="193.0">front_left</text>
  <path d="M 1345.0 210.0 L 1438.0 150.0 Q 1477.6 127.8 1450.0 60.0 L 1345.0 60.0 L 1345.0 210.0 z" fill="rgb(255,217,194)" stroke="black"/>
  <text fill="rgb(9,33,173)" font-size="25" x="1369.5" y="123.0">lbsleeve</text>
  <path d="M 1510.0 210.0 L 1615.0 210.0 Q 1642.6 142.2 1603.0 120.0 L 1510.0 60.0 L 1510.0 210.0 z" fill="rgb(255,217,194)" stroke="black"/>
  <text fill="rgb(9,33,173)" font-size="25" x="1534.5" y="153.0">lfsleeve</text>
</svg>
