<?xml version="1.0" encoding="utf-8" ?>
<svg xmlns="http://www.w3.org/2000/svg" xmlns:ev="http://www.w3.org/2001/xml-events" xmlns:xlink="http://www.w3.org/1999/xlink" baseProfile="full" height="426.0px" version="1.1" width="1226.0px">
  <defs/>
  <path d="M 60 171 L 90 171 Q 128.10000000000002 89.70000000000002 81 60 L 60 114 L 60 171 z" fill="rgb(255,217,194)" stroke="black"/>
  <text fill="rgb(9,33,173)" font-size="25" x="47.75" y="132.0">rbsleeve</text>
  <path d="M 187.75 117.0 L 208.75 171.0 Q 255.85 141.29999999999998 217.75 60.0 L 187.75 60.0 L 187.75 117.0 z" fill="rgb(255,217,194)" stroke="black"/>
  <text fill="rgb(9,33,173)" font-size="25" x="175.5" y="105.0">rfsleeve</text>
  <path d="M 315.5 366.0 L 420.5 366.0 L 420.5 150.0 L 405.5 60.0 L 369.5 60.0 Q 407.6 141.29999999999998 360.5 171.0 L 315.5 366.0 z" fill="rgb(255,217,194)" stroke="black"/>
  <text fill="rgb(9,33,173)" font-size="25" x="357.0" y="198.5">front_right</text>
  <path d="M 527.0 366.0 L 737.0 366.0 L 692.0 171.0 Q 644.9 141.29999999999998 683.0 60.0 L 647.0 60.0 Q 632.0 124.38758884447041 617.0 60.0 L 581.0 60.0 Q 619.1 141.29999999999998 572.0 171.0 L 527.0 366.0 z" fill="rgb(255,217,194)" stroke="black"/>
  <text fill="rgb(9,33,173)" font-size="25" x="607.0" y="167.25">back</text>
  <path d="M 797.0 366.0 L 902.0 366.0 L 857.0 171.0 Q 809.9 141.29999999999998 848.0 60.0 L 812.0 60.0 L 797.0 150.0 L 797.0 366.0 z" fill="rgb(255,217,194)" stroke="black"/>
  <text fill="rgb(9,33,173)" font-size="25" x="810.5" y="198.5">front_left</text>
  <path d="M 970.5 117.0 L 991.5 171.0 Q 1038.6000000000001 141.29999999999998 1000.5 60.0 L 970.5 60.0 L 970.5 117.0 z" fill="rgb(255,217,194)" stroke="black"/>
  <text fill="rgb(9,33,173)" font-size="25" x="958.25" y="105.0">lbsleeve</text>
  <path d="M 1098.25 171.0 L 1128.25 171.0 Q 1166.3500000000001 89.70000000000002 1119.25 60.0 L 1098.25 114.0 L 1098.25 171.0 z" fill="rgb(255,217,194)" stroke="black"/>
  <text fill="rgb(9,33,173)" font-size="25" x="1086.0" y="132.0">lfsleeve</text>
</svg>
