<?xml version="1.0" encoding="utf-8" ?>
<svg xmlns="http://www.w3.org/2000/svg" xmlns:ev="http://www.w3.org/2001/xml-events" xmlns:xlink="http://www.w3.org/1999/xlink" baseProfile="full" height="345px" version="1.1" width="1152px">
  <defs/>
  <path d="M 60 285 L 150 285 Q 174.0 94.5 165 60 L 90 60 Q 104.7 141.75 60 153 Q 73.2 159.6 60 285 z" fill="rgb(255,217,194)" stroke="black"/>
  <text fill="rgb(9,33,173)" font-size="25" x="80.0" y="171.6">Rback</text>
  <path d="M 240 285 L 330 285 Q 316.8 159.60000000000002 330 153 Q 289.95 140.25 300 60 L 225 60 Q 216.0 94.5 240 285 z" fill="rgb(255,217,194)" stroke="black"/>
  <text fill="rgb(9,33,173)" font-size="25" x="260.0" y="171.6">Rfront</text>
  <path d="M 390 168 L 468 168 L 546 168 L 531 108 Q 509.09999999999997 97.19999999999999 522 60 L 504 60 Q 468.0 103.67413634226816 432 60 L 414 60 Q 426.9 97.19999999999999 405 108 L 390 168 z" fill="rgb(255,217,194)" stroke="black"/>
  <text fill="rgb(9,33,173)" font-size="25" x="443.0" y="109.66666666666667">up_back</text>
  <path d="M 606 165 L 684 165 L 762 165 L 747 108 Q 725.0999999999999 97.19999999999999 738 60 L 720 60 L 684 96 L 648 60 L 630 60 Q 642.9000000000001 97.19999999999999 621 108 L 606 165 z" fill="rgb(255,217,194)" stroke="black"/>
  <text fill="rgb(9,33,173)" font-size="25" x="659.0" y="107.7">up_front</text>
  <path d="M 837 285 L 927 285 Q 913.8 159.60000000000002 927 153 Q 882.3 141.75 897 60 L 822 60 Q 813.0 94.5 837 285 z" fill="rgb(255,217,194)" stroke="black"/>
  <text fill="rgb(9,33,173)" font-size="25" x="857.0" y="171.6">Lback</text>
  <path d="M 987 285 L 1077 285 Q 1101.0 94.5 1092 60 L 1017 60 Q 1027.05 140.25 987 153 Q 1000.2 159.6 987 285 z" fill="rgb(255,217,194)" stroke="black"/>
  <text fill="rgb(9,33,173)" font-size="25" x="1007.0" y="171.6">Lfront</text>
</svg>
