<?xml version="1.0" encoding="utf-8" ?>
<svg xmlns="http://www.w3.org/2000/svg" xmlns:ev="http://www.w3.org/2001/xml-events" xmlns:xlink="http://www.w3.org/1999/xlink" baseProfile="full" height="321px" version="1.1" width="1380px">
  <defs/>
  <path d="M 60 261 Q 246.0 328.53310178881907 432 261 L 324 102 L 309 60 L 183 60 L 168 102 L 60 261 z" fill="rgb(255,217,194)" stroke="black"/>
  <text fill="rgb(9,33,173)" font-size="25" x="221.0" y="144.0">skirt_back</text>
  <path d="M 492 261 Q 678.0 106.4238069598886 864 261 L 756 102 L 741 60 L 615 60 L 600 102 L 492 261 z" fill="rgb(255,217,194)" stroke="black"/>
  <text fill="rgb(9,33,173)" font-size="25" x="653.0" y="144.0">skirt_front</text>
  <path d="M 945 168 L 1071 168 L 1092 117 Q 1064.7 105.9 1077 60 L 1029 60 Q 1008.0 147.3795989374948 987 60 L 939 60 Q 951.3 105.9 924 117 L 945 168 z" fill="rgb(255,217,194)" stroke="black"/>
  <text fill="rgb(9,33,173)" font-size="25" x="983.0" y="104.25">top_back</text>
  <path d="M 1173 165 L 1299 165 L 1320 117 Q 1292.7 105.9 1305 60 L 1257 60 L 1236 66 L 1215 60 L 1167 60 Q 1179.3 105.9 1152 117 L 1173 165 z" fill="rgb(255,217,194)" stroke="black"/>
  <text fill="rgb(9,33,173)" font-size="25" x="1211.0" y="99.66666666666667">top_front</text>
</svg>
