<?xml version="1.0" encoding="utf-8" ?>
<svg xmlns="http://www.w3.org/2000/svg" xmlns:ev="http://www.w3.org/2001/xml-events" xmlns:xlink="http://www.w3.org/1999/xlink" baseProfile="full" height="348.0px" version="1.1" width="1036.0px">
  <defs/>
  <path d="M 60 168 L 102 168 Q 110.39999999999999 133.79999999999998 90 126 L 60 60 L 60 168 z" fill="rgb(255,217,194)" stroke="black"/>
  <text fill="rgb(9,33,173)" font-size="25" x="53.0" y="133.5">rbsleeve</text>
  <path d="M 193.0 168.0 L 223.0 102.0 Q 243.4 94.2 235.0 60.0 L 193.0 60.0 L 193.0 168.0 z" fill="rgb(255,217,194)" stroke="black"/>
  <text fill="rgb(9,33,173)" font-size="25" x="186.0" y="100.5">rfsleeve</text>
  <path d="M 338.0 288.0 L 476.0 288.0 L 488.0 105.0 Q 465.5 97.5 473.0 60.0 L 437.0 60.0 Q 407.0 216.27167124927414 377.0 60.0 L 341.0 60.0 Q 348.5 97.5 326.0 105.0 L 338.0 288.0 z" fill="rgb(255,217,194)" stroke="black"/>
  <text fill="rgb(9,33,173)" font-size="25" x="382.0" y="131.25">back</text>
  <path d="M 560.0 288.0 L 698.0 288.0 L 710.0 105.0 Q 687.5 97.5 695.0 60.0 L 659.0 60.0 L 629.0 147.0 L 599.0 60.0 L 563.0 60.0 Q 570.5 97.5 548.0 105.0 L 560.0 288.0 z" fill="rgb(255,217,194)" stroke="black"/>
  <text fill="rgb(9,33,173)" font-size="25" x="604.0" y="133.33333333333334">front</text>
  <path d="M 770.0 168.0 L 800.0 102.0 Q 820.4 94.2 812.0 60.0 L 770.0 60.0 L 770.0 168.0 z" fill="rgb(255,217,194)" stroke="black"/>
  <text fill="rgb(9,33,173)" font-size="25" x="763.0" y="100.5">lbsleeve</text>
  <path d="M 903.0 168.0 L 945.0 168.0 Q 953.4 133.79999999999998 933.0 126.0 L 903.0 60.0 L 903.0 168.0 z" fill="rgb(255,217,194)" stroke="black"/>
  <text fill="rgb(9,33,173)" font-size="25" x="896.0" y="133.5">lfsleeve</text>
</svg>
