<?xml version="1.0" encoding="utf-8" ?>
<svg xmlns="http://www.w3.org/2000/svg" xmlns:ev="http://www.w3.org/2001/xml-events" xmlns:xlink="http://www.w3.org/1999/xlink" baseProfile="full" height="381.0px" version="1.1" width="1786.0px">
  <defs/>
  <path d="M 60 135 L 147 135 Q 157.8 96.60000000000001 135 87 L 60 60 L 60 135 z" fill="rgb(255,217,194)" stroke="black"/>
  <text fill="rgb(9,33,173)" font-size="25" x="75.5" y="107.25">rbsleeve</text>
  <path d="M 215.5 135.0 L 290.5 108.0 Q 313.3 98.39999999999999 302.5 60.0 L 215.5 60.0 L 215.5 135.0 z" fill="rgb(255,217,194)" stroke="black"/>
  <text fill="rgb(9,33,173)" font-size="25" x="231.0" y="93.75">rfsleeve</text>
  <path d="M 371.0 321.0 L 464.0 318.0 Q 489.65 99.45000000000002 479.0 60.0 L 401.0 60.0 Q 415.7 141.75 371.0 153.0 Q 387.8 161.4 371.0 321.0 z" fill="rgb(255,217,194)" stroke="black"/>
  <text fill="rgb(9,33,173)" font-size="25" x="392.2" y="185.4">Rback</text>
  <path d="M 554.0 318.0 L 647.0 321.0 Q 630.2 161.4 647.0 153.0 Q 606.95 140.25 617.0 60.0 L 539.0 60.0 Q 528.35 99.44999999999999 554.0 318.0 z" fill="rgb(255,217,194)" stroke="black"/>
  <text fill="rgb(9,33,173)" font-size="25" x="575.8" y="185.4">Rfront</text>
  <path d="M 707.0 168.0 L 785.0 168.0 L 863.0 168.0 L 854.0 111.0 Q 830.9 99.3 845.0 60.0 L 803.0 60.0 Q 785.0 89.40310267754947 767.0 60.0 L 725.0 60.0 Q 739.1 99.29999999999998 716.0 111.0 L 707.0 168.0 z" fill="rgb(255,217,194)" stroke="black"/>
  <text fill="rgb(9,33,173)" font-size="25" x="760.0" y="110.33333333333333">up_back</text>
  <path d="M 923.0 165.0 L 1001.0 165.0 L 1079.0 165.0 L 1070.0 111.0 Q 1046.8999999999999 99.3 1061.0 60.0 L 1019.0 60.0 L 1001.0 132.0 L 983.0 60.0 L 941.0 60.0 Q 955.1 99.29999999999998 932.0 111.0 L 923.0 165.0 z" fill="rgb(255,217,194)" stroke="black"/>
  <text fill="rgb(9,33,173)" font-size="25" x="976.0" y="111.9">up_front</text>
  <path d="M 1154.0 318.0 L 1247.0 321.0 Q 1230.2 161.4 1247.0 153.0 Q 1202.3 141.75 1217.0 60.0 L 1139.0 60.0 Q 1128.35 99.44999999999999 1154.0 318.0 z" fill="rgb(255,217,194)" stroke="black"/>
  <text fill="rgb(9,33,173)" font-size="25" x="1175.8" y="185.4">Lback</text>
  <path d="M 1307.0 321.0 L 1400.0 318.0 Q 1425.65 99.45000000000002 1415.0 60.0 L 1337.0 60.0 Q 1347.05 140.25 1307.0 153.0 Q 1323.8 161.4 1307.0 321.0 z" fill="rgb(255,217,194)" stroke="black"/>
  <text fill="rgb(9,33,173)" font-size="25" x="1328.2" y="185.4">Lfront</text>
  <path d="M 1475.0 135.0 L 1550.0 108.0 Q 1572.8 98.39999999999999 1562.0 60.0 L 1475.0 60.0 L 1475.0 135.0 z" fill="rgb(255,217,194)" stroke="black"/>
  <text fill="rgb(9,33,173)" font-size="25" x="1490.5" y="93.75">lbsleeve</text>
  <path d="M 1630.5 135.0 L 1717.5 135.0 Q 1728.3 96.60000000000001 1705.5 87.0 L 1630.5 60.0 L 1630.5 135.0 z" fill="rgb(255,217,194)" stroke="black"/>
  <text fill="rgb(9,33,173)" font-size="25" x="1646.0" y="107.25">lfsleeve</text>
</svg>
