<?xml version="1.0" encoding="utf-8" ?>
<svg xmlns="http://www.w3.org/2000/svg" xmlns:ev="http://www.w3.org/2001/xml-events" xmlns:xlink="http://www.w3.org/1999/xlink" baseProfile="full" height="240.0px" version="1.1" width="1642.0px">
  <defs/>
  <path d="M 60 135 L 105 135 Q 120.6 88.2 93 75 L 60 60 L 60 135 z" fill="rgb(255,217,194)" stroke="black"/>
  <text fill="rgb(9,33,173)" font-size="25" x="54.5" y="104.25">rbsleeve</text>
  <path d="M 194.5 135.0 L 227.5 120.0 Q 255.1 106.8 239.5 60.0 L 194.5 60.0 L 194.5 135.0 z" fill="rgb(255,217,194)" stroke="black"/>
  <text fill="rgb(9,33,173)" font-size="25" x="189.0" y="96.75">rfsleeve</text>
  <path d="M 329.0 180.0 Q 464.0 141.8066309172834 599.0 180.0 L 530.0 102.0 L 524.0 60.0 L 404.0 60.0 L 398.0 102.0 L 329.0 180.0 z" fill="rgb(255,217,194)" stroke="black"/>
  <text fill="rgb(9,33,173)" font-size="25" x="439.0" y="117.0">skirt_back</text>
  <path d="M 659.0 180.0 Q 794.0 133.1960882946329 929.0 180.0 L 860.0 102.0 L 854.0 60.0 L 734.0 60.0 L 728.0 102.0 L 659.0 180.0 z" fill="rgb(255,217,194)" stroke="black"/>
  <text fill="rgb(9,33,173)" font-size="25" x="769.0" y="117.0">skirt_front</text>
  <path d="M 995.0 168.0 L 1115.0 168.0 L 1121.0 120.0 Q 1093.4 106.8 1109.0 60.0 L 1079.0 60.0 Q 1055.0 123.2880211590632 1031.0 60.0 L 1001.0 60.0 Q 1016.6 106.8 989.0 120.0 L 995.0 168.0 z" fill="rgb(255,217,194)" stroke="black"/>
  <text fill="rgb(9,33,173)" font-size="25" x="1030.0" y="105.0">top_back</text>
  <path d="M 1187.0 165.0 L 1307.0 165.0 L 1313.0 120.0 Q 1285.4 106.8 1301.0 60.0 L 1271.0 60.0 L 1247.0 93.0 L 1223.0 60.0 L 1193.0 60.0 Q 1208.6 106.8 1181.0 120.0 L 1187.0 165.0 z" fill="rgb(255,217,194)" stroke="black"/>
  <text fill="rgb(9,33,173)" font-size="25" x="1222.0" y="103.33333333333333">top_front</text>
  <path d="M 1373.0 135.0 L 1406.0 120.0 Q 1433.6 106.8 1418.0 60.0 L 1373.0 60.0 L 1373.0 135.0 z" fill="rgb(255,217,194)" stroke="black"/>
  <text fill="rgb(9,33,173)" font-size="25" x="1367.5" y="96.75">lbsleeve</text>
  <path d="M 1507.5 135.0 L 1552.5 135.0 Q 1568.1 88.2 1540.5 75.0 L 1507.5 60.0 L 1507.5 135.0 z" fill="rgb(255,217,194)" stroke="black"/>
  <text fill="rgb(9,33,173)" font-size="25" x="1502.0" y="104.25">lfsleeve</text>
</svg>
