<?xml version="1.0" encoding="utf-8" ?>
<svg xmlns="http://www.w3.org/2000/svg" xmlns:ev="http://www.w3.org/2001/xml-events" xmlns:xlink="http://www.w3.org/1999/xlink" baseProfile="full" height="387px" version="1.1" width="1164px">
  <defs/>
  <path d="M 60 327 L 99 327 Q 171.0 103.50000000000001 168 60 L 90 60 Q 104.7 141.75 60 153 Q 77.4 161.7 60 327 z" fill="rgb(255,217,194)" stroke="black"/>
  <text fill="rgb(9,33,173)" font-size="25" x="70.4" y="188.4">Rback</text>
  <path d="M 297 327 L 336 327 Q 318.6 161.70000000000002 336 153 Q 295.95 140.25 306 60 L 228 60 Q 225.0 103.5 297 327 z" fill="rgb(255,217,194)" stroke="black"/>
  <text fill="rgb(9,33,173)" font-size="25" x="275.6" y="188.4">Rfront</text>
  <path d="M 396 168 L 474 168 L 552 168 L 552 120 Q 524.4 106.8 540 60 L 495 60 Q 474.0 87.1648201255441 453 60 L 408 60 Q 423.6 106.8 396 120 L 396 168 z" fill="rgb(255,217,194)" stroke="black"/>
  <text fill="rgb(9,33,173)" font-size="25" x="449.0" y="112.33333333333333">up_back</text>
  <path d="M 612 165 L 690 165 L 768 165 L 768 120 Q 740.4 106.8 756 60 L 711 60 L 690 105 L 669 60 L 624 60 Q 639.6 106.8 612 120 L 612 165 z" fill="rgb(255,217,194)" stroke="black"/>
  <text fill="rgb(9,33,173)" font-size="25" x="665.0" y="111.0">up_front</text>
  <path d="M 897 327 L 936 327 Q 918.6 161.70000000000002 936 153 Q 891.3 141.75 906 60 L 828 60 Q 825.0 103.5 897 327 z" fill="rgb(255,217,194)" stroke="black"/>
  <text fill="rgb(9,33,173)" font-size="25" x="875.6" y="188.4">Lback</text>
  <path d="M 996 327 L 1035 327 Q 1107.0 103.50000000000001 1104 60 L 1026 60 Q 1036.05 140.25 996 153 Q 1013.4 161.7 996 327 z" fill="rgb(255,217,194)" stroke="black"/>
  <text fill="rgb(9,33,173)" font-size="25" x="1006.4000000000001" y="188.4">Lfront</text>
</svg>
