<?xml version="1.0" encoding="utf-8" ?>
<svg xmlns="http://www.w3.org/2000/svg" xmlns:ev="http://www.w3.org/2001/xml-events" xmlns:xlink="http://www.w3.org/1999/xlink" baseProfile="full" height="369px" version="1.1" width="1462.0px">
  <defs/>
  <path d="M 60 309 L 150 309 L 180 60 L 90 60 Q 99.9 132.75 60 141 Q 76.8 149.4 60 309 z" fill="rgb(255,217,194)" stroke="black"/>
  <text fill="rgb(9,33,173)" font-size="25" x="83.0" y="178.8">Rback</text>
  <path d="M 270 309 L 360 309 Q 343.2 149.4 360 141 Q 324.15 131.25 330 60 L 240 60 L 270 309 z" fill="rgb(255,217,194)" stroke="black"/>
  <text fill="rgb(9,33,173)" font-size="25" x="287.0" y="178.8">Rfront</text>
  <path d="M 420 72 L 459 72 L 498 72 L 498 60 L 420 60 L 420 72 z" fill="rgb(255,217,194)" stroke="black"/>
  <text fill="rgb(9,33,173)" font-size="25" x="434.0" y="70.2">wb_back</text>
  <path d="M 564.0 72.0 L 603.0 72.0 L 642.0 72.0 L 642.0 60.0 L 564.0 60.0 L 564.0 72.0 z" fill="rgb(255,217,194)" stroke="black"/>
  <text fill="rgb(9,33,173)" font-size="25" x="578.0" y="70.2">wb_front</text>
  <path d="M 718.0 183.0 L 850.0 183.0 L 850.0 150.0 Q 811.3 126.6 841.0 60.0 L 805.0 60.0 Q 784.0 100.21746708626665 763.0 60.0 L 727.0 60.0 Q 756.7 126.6 718.0 150.0 L 718.0 183.0 z" fill="rgb(255,217,194)" stroke="black"/>
  <text fill="rgb(9,33,173)" font-size="25" x="759.0" y="116.25">top_back</text>
  <path d="M 910.0 183.0 L 1042.0 183.0 L 1042.0 150.0 Q 1003.3 126.6 1033.0 60.0 L 997.0 60.0 L 976.0 63.0 L 955.0 60.0 L 919.0 60.0 Q 948.7 126.6 910.0 150.0 L 910.0 183.0 z" fill="rgb(255,217,194)" stroke="black"/>
  <text fill="rgb(9,33,173)" font-size="25" x="951.0" y="110.66666666666667">top_front</text>
  <path d="M 1132.0 309.0 L 1222.0 309.0 Q 1205.2 149.4 1222.0 141.0 Q 1182.1 132.75 1192.0 60.0 L 1102.0 60.0 L 1132.0 309.0 z" fill="rgb(255,217,194)" stroke="black"/>
  <text fill="rgb(9,33,173)" font-size="25" x="1149.0" y="178.8">Lback</text>
  <path d="M 1282.0 309.0 L 1372.0 309.0 L 1402.0 60.0 L 1312.0 60.0 Q 1317.85 131.25 1282.0 141.0 Q 1298.8 149.4 1282.0 309.0 z" fill="rgb(255,217,194)" stroke="black"/>
  <text fill="rgb(9,33,173)" font-size="25" x="1305.0" y="178.8">Lfront</text>
</svg>
