<?xml version="1.0" encoding="utf-8" ?>
<svg xmlns="http://www.w3.org/2000/svg" xmlns:ev="http://www.w3.org/2001/xml-events" xmlns:xlink="http://www.w3.org/1999/xlink" baseProfile="full" height="465px" version="1.1" width="1018.0px">
  <defs/>
  <path d="M 81 405 L 156 405 L 156 102 L 105 60 L 75 60 Q 100.5 129.0 60 150 L 81 405 z" fill="rgb(255,217,194)" stroke="black"/>
  <text fill="rgb(9,33,173)" font-size="25" x="80.5" y="200.0">front_right</text>
  <path d="M 268.5 189.0 L 310.5 189.0 Q 381.6 187.2 355.5 93.0 L 304.5 102.0 L 250.5 60.0 L 268.5 189.0 z" fill="rgb(255,217,194)" stroke="black"/>
  <text fill="rgb(9,33,173)" font-size="25" x="272.9" y="129.6">Rhood</text>
  <path d="M 436.5 405.0 L 586.5 405.0 L 607.5 150.0 Q 567.0 129.0 592.5 60.0 L 562.5 60.0 L 511.5 69.0 L 460.5 60.0 L 430.5 60.0 Q 456.0 129.0 415.5 150.0 L 436.5 405.0 z" fill="rgb(255,217,194)" stroke="black"/>
  <text fill="rgb(9,33,173)" font-size="25" x="486.5" y="160.66666666666666">back</text>
  <path d="M 667.5 189.0 L 721.5 147.0 L 772.5 156.0 Q 798.6 61.80000000000001 727.5 60.0 L 685.5 60.0 L 667.5 189.0 z" fill="rgb(255,217,194)" stroke="black"/>
  <text fill="rgb(9,33,173)" font-size="25" x="689.9" y="125.4">Lhood</text>
  <path d="M 832.5 405.0 L 907.5 405.0 L 928.5 150.0 Q 888.0 129.0 913.5 60.0 L 883.5 60.0 L 832.5 102.0 L 832.5 405.0 z" fill="rgb(255,217,194)" stroke="black"/>
  <text fill="rgb(9,33,173)" font-size="25" x="858.0" y="200.0">front_left</text>
</svg>
