<?xml version="1.0" encoding="utf-8" ?>
<svg xmlns="http://www.w3.org/2000/svg" xmlns:ev="http://www.w3.org/2001/xml-events" xmlns:xlink="http://www.w3.org/1999/xlink" baseProfile="full" height="264px" version="1.1" width="936px">
  <defs/>
  <path d="M 60 204 Q 147.0 257.9436066679844 234 204 L 219 102 L 213 60 L 81 60 L 75 102 L 60 204 z" fill="rgb(255,217,194)" stroke="black"/>
  <text fill="rgb(9,33,173)" font-size="25" x="122.0" y="125.0">skirt_back</text>
  <path d="M 294 204 Q 381.0 237.2034759993825 468 204 L 453 102 L 447 60 L 315 60 L 309 102 L 294 204 z" fill="rgb(255,217,194)" stroke="black"/>
  <text fill="rgb(9,33,173)" font-size="25" x="356.0" y="125.0">skirt_front</text>
  <path d="M 534 168 L 666 168 L 672 120 Q 644.4 106.8 660 60 L 621 60 Q 600.0 147.33269273698693 579 60 L 540 60 Q 555.6 106.8 528 120 L 534 168 z" fill="rgb(255,217,194)" stroke="black"/>
  <text fill="rgb(9,33,173)" font-size="25" x="575.0" y="105.0">top_back</text>
  <path d="M 738 165 L 870 165 L 876 120 Q 848.4 106.8 864 60 L 825 60 L 804 96 L 783 60 L 744 60 Q 759.6 106.8 732 120 L 738 165 z" fill="rgb(255,217,194)" stroke="black"/>
  <text fill="rgb(9,33,173)" font-size="25" x="779.0" y="103.66666666666667">top_front</text>
</svg>
