<?xml version="1.0" encoding="utf-8" ?>
<svg xmlns="http://www.w3.org/2000/svg" xmlns:ev="http://www.w3.org/2001/xml-events" xmlns:xlink="http://www.w3.org/1999/xlink" baseProfile="full" height="312.0px" version="1.1" width="1576.0px">
  <defs/>
  <path d="M 60 177 L 162 177 Q 200.4 90.30000000000001 150 60 L 60 126 L 60 177 z" fill="rgb(255,217,194)" stroke="black"/>
  <text fill="rgb(9,33,173)" font-size="25" x="83.0" y="138.0">rbsleeve</text>
  <path d="M 223.0 111.0 L 313.0 177.0 Q 363.40000000000003 146.70000000000002 325.0 60.0 L 223.0 60.0 L 223.0 111.0 z" fill="rgb(255,217,194)" stroke="black"/>
  <text fill="rgb(9,33,173)" font-size="25" x="246.0" y="105.0">rfsleeve</text>
  <path d="M 386.0 252.0 L 758.0 252.0 L 653.0 177.0 Q 602.6 146.70000000000002 641.0 60.0 L 599.0 60.0 Q 572.0 219.8165028019946 545.0 60.0 L 503.0 60.0 Q 541.4 146.7 491.0 177.0 L 386.0 252.0 z" fill="rgb(255,217,194)" stroke="black"/>
  <text fill="rgb(9,33,173)" font-size="25" x="547.0" y="140.25">back</text>
  <path d="M 818.0 252.0 L 1190.0 252.0 L 1085.0 177.0 Q 1034.6000000000001 146.70000000000002 1073.0 60.0 L 1031.0 60.0 L 1004.0 102.0 L 977.0 60.0 L 935.0 60.0 Q 973.4 146.7 923.0 177.0 L 818.0 252.0 z" fill="rgb(255,217,194)" stroke="black"/>
  <text fill="rgb(9,33,173)" font-size="25" x="979.0" y="136.33333333333334">front</text>
  <path d="M 1250.0 111.0 L 1340.0 177.0 Q 1390.3999999999999 146.70000000000002 1352.0 60.0 L 1250.0 60.0 L 1250.0 111.0 z" fill="rgb(255,217,194)" stroke="black"/>
  <text fill="rgb(9,33,173)" font-size="25" x="1273.0" y="105.0">lbsleeve</text>
  <path d="M 1413.0 177.0 L 1515.0 177.0 Q 1553.3999999999999 90.30000000000001 1503.0 60.0 L 1413.0 126.0 L 1413.0 177.0 z" fill="rgb(255,217,194)" stroke="black"/>
  <text fill="rgb(9,33,173)" font-size="25" x="1436.0" y="138.0">lfsleeve</text>
</svg>
