<?xml version="1.0" encoding="utf-8" ?>
<svg xmlns="http://www.w3.org/2000/svg" xmlns:ev="http://www.w3.org/2001/xml-events" xmlns:xlink="http://www.w3.org/1999/xlink" baseProfile="full" height="381px" version="1.1" width="1471.8000000000002px">
  <defs/>
  <path d="M 60 210 L 168 210 Q 200.1 139.20000000000002 159 114 L 60 60 L 60 210 z" fill="rgb(255,217,194)" stroke="black"/>
  <text fill="rgb(9,33,173)" font-size="25" x="86.75" y="151.5">rbsleeve</text>
  <path d="M 228 210 L 327 156 Q 368.1 130.8 336 60 L 228 60 L 228 210 z" fill="rgb(255,217,194)" stroke="black"/>
  <text fill="rgb(9,33,173)" font-size="25" x="254.75" y="124.5">rfsleeve</text>
  <path d="M 408 321 L 453 321 L 453 93 L 435 60 L 405 60 Q 435.9 128.7 396 153 L 408 321 z" fill="rgb(255,217,194)" stroke="black"/>
  <text fill="rgb(9,33,173)" font-size="25" x="400.0" y="171.0">front_right</text>
  <path d="M 570.0 204.0 L 612.0 195.0 Q 682.2 168.89999999999998 624.0 84.0 L 606.0 93.0 L 585.0 60.0 L 570.0 204.0 z" fill="rgb(255,217,194)" stroke="black"/>
  <text fill="rgb(9,33,173)" font-size="25" x="574.4" y="130.2">Rhood</text>
  <path d="M 696.4 321.0 L 786.4 321.0 L 798.4 153.0 Q 758.4999999999999 128.7 789.4 60.0 L 759.4 60.0 L 741.4 69.0 L 723.4 60.0 L 693.4 60.0 Q 724.3000000000001 128.7 684.4 153.0 L 696.4 321.0 z" fill="rgb(255,217,194)" stroke="black"/>
  <text fill="rgb(9,33,173)" font-size="25" x="716.3999999999999" y="142.66666666666666">back</text>
  <path d="M 873.4 204.0 L 894.4 171.0 L 912.4 180.0 Q 970.6 95.10000000000001 900.4 69.0 L 858.4 60.0 L 873.4 204.0 z" fill="rgb(255,217,194)" stroke="black"/>
  <text fill="rgb(9,33,173)" font-size="25" x="862.8" y="139.8">Lhood</text>
  <path d="M 972.8 321.0 L 1017.8 321.0 L 1029.8 153.0 Q 989.8999999999999 128.7 1020.8 60.0 L 990.8 60.0 L 972.8 93.0 L 972.8 321.0 z" fill="rgb(255,217,194)" stroke="black"/>
  <text fill="rgb(9,33,173)" font-size="25" x="975.8000000000001" y="171.0">front_left</text>
  <path d="M 1135.8000000000002 210.0 L 1234.8000000000002 156.0 Q 1275.9000000000003 130.8 1243.8000000000002 60.0 L 1135.8000000000002 60.0 L 1135.8000000000002 210.0 z" fill="rgb(255,217,194)" stroke="black"/>
  <text fill="rgb(9,33,173)" font-size="25" x="1162.5500000000002" y="124.5">lbsleeve</text>
  <path d="M 1303.8000000000002 210.0 L 1411.8000000000002 210.0 Q 1443.9000000000003 139.20000000000002 1402.8000000000002 114.0 L 1303.8000000000002 60.0 L 1303.8000000000002 210.0 z" fill="rgb(255,217,194)" stroke="black"/>
  <text fill="rgb(9,33,173)" font-size="25" x="1330.5500000000002" y="151.5">lfsleeve</text>
</svg>
