<?xml version="1.0" encoding="utf-8" ?>
<svg xmlns="http://www.w3.org/2000/svg" xmlns:ev="http://www.w3.org/2001/xml-events" xmlns:xlink="http://www.w3.org/1999/xlink" baseProfile="full" height="237.0px" version="1.1" width="1244.0px">
  <defs/>
  <path d="M 60 147 L 210 147 L 210 60 L 60 60 L 60 147 z" fill="rgb(255,217,194)" stroke="black"/>
  <text fill="rgb(9,33,173)" font-size="25" x="110.0" y="106.5">skirt_back</text>
  <path d="M 270 69 L 360 69 L 360 60 L 270 60 L 270 69 z" fill="rgb(255,217,194)" stroke="black"/>
  <text fill="rgb(9,33,173)" font-size="25" x="290.0" y="67.5">wb_back</text>
  <path d="M 420 69 L 510 69 L 510 60 L 420 60 L 420 69 z" fill="rgb(255,217,194)" stroke="black"/>
  <text fill="rgb(9,33,173)" font-size="25" x="440.0" y="67.5">wb_front</text>
  <path d="M 580.0 147.0 L 730.0 147.0 L 730.0 60.0 L 580.0 60.0 L 580.0 147.0 z" fill="rgb(255,217,194)" stroke="black"/>
  <text fill="rgb(9,33,173)" font-size="25" x="630.0" y="106.5">skirt_front</text>
  <path d="M 800.0 177.0 L 962.0 177.0 L 962.0 129.0 Q 930.8 113.1 950.0 60.0 L 905.0 60.0 Q 881.0 147.86741418628915 857.0 60.0 L 812.0 60.0 Q 831.2 113.1 800.0 129.0 L 800.0 177.0 z" fill="rgb(255,217,194)" stroke="black"/>
  <text fill="rgb(9,33,173)" font-size="25" x="856.0" y="109.5">top_back</text>
  <path d="M 1022.0 174.0 L 1184.0 174.0 L 1184.0 129.0 Q 1152.8000000000002 113.1 1172.0 60.0 L 1127.0 60.0 L 1103.0 105.0 L 1079.0 60.0 L 1034.0 60.0 Q 1053.1999999999998 113.1 1022.0 129.0 L 1022.0 174.0 z" fill="rgb(255,217,194)" stroke="black"/>
  <text fill="rgb(9,33,173)" font-size="25" x="1078.0" y="108.66666666666667">top_front</text>
</svg>
