<?xml version="1.0" encoding="utf-8" ?>
<svg xmlns="http://www.w3.org/2000/svg" xmlns:ev="http://www.w3.org/2001/xml-events" xmlns:xlink="http://www.w3.org/1999/xlink" baseProfile="full" height="306px" version="1.1" width="1296px">
  <defs/>
  <path d="M 60 246 Q 228.0 389.1644570106366 396 246 L 309 102 L 288 60 L 168 60 L 147 102 L 60 246 z" fill="rgb(255,217,194)" stroke="black"/>
  <text fill="rgb(9,33,173)" font-size="25" x="203.0" y="139.0">skirt_back</text>
  <path d="M 456 246 Q 624.0 248.65515361737434 792 246 L 705 102 L 684 60 L 564 60 L 543 102 L 456 246 z" fill="rgb(255,217,194)" stroke="black"/>
  <text fill="rgb(9,33,173)" font-size="25" x="599.0" y="139.0">skirt_front</text>
  <path d="M 873 168 L 993 168 L 1014 117 Q 987.6 104.7 1002 60 L 969 60 Q 933.0 104.66219178111311 897 60 L 864 60 Q 878.4 104.7 852 117 L 873 168 z" fill="rgb(255,217,194)" stroke="black"/>
  <text fill="rgb(9,33,173)" font-size="25" x="908.0" y="104.25">top_back</text>
  <path d="M 1095 165 L 1215 165 L 1236 117 Q 1209.6000000000001 104.7 1224 60 L 1191 60 L 1155 90 L 1119 60 L 1086 60 Q 1100.3999999999999 104.7 1074 117 L 1095 165 z" fill="rgb(255,217,194)" stroke="black"/>
  <text fill="rgb(9,33,173)" font-size="25" x="1130.0" y="102.33333333333333">top_front</text>
</svg>
