<?xml version="1.0" encoding="utf-8" ?>
<svg xmlns="http://www.w3.org/2000/svg" xmlns:ev="http://www.w3.org/2001/xml-events" xmlns:xlink="http://www.w3.org/1999/xlink" baseProfile="full" height="399px" version="1.1" width="1330.0px">
  <defs/>
  <path d="M 60 339 L 258 339 L 258 60 L 60 60 L 60 339 z" fill="rgb(255,217,194)" stroke="black"/>
  <text fill="rgb(9,33,173)" font-size="25" x="134.0" y="202.5">skirt_back</text>
  <path d="M 318 75 L 408 75 L 408 60 L 318 60 L 318 75 z" fill="rgb(255,217,194)" stroke="black"/>
  <text fill="rgb(9,33,173)" font-size="25" x="338.0" y="70.5">wb_back</text>
  <path d="M 468 75 L 558 75 L 558 60 L 468 60 L 468 75 z" fill="rgb(255,217,194)" stroke="black"/>
  <text fill="rgb(9,33,173)" font-size="25" x="488.0" y="70.5">wb_front</text>
  <path d="M 628.0 339.0 L 826.0 339.0 L 826.0 60.0 L 628.0 60.0 L 628.0 339.0 z" fill="rgb(255,217,194)" stroke="black"/>
  <text fill="rgb(9,33,173)" font-size="25" x="702.0" y="202.5">skirt_front</text>
  <path d="M 886.0 153.0 L 1048.0 153.0 L 1048.0 147.0 Q 1008.7 126.9 1033.0 60.0 L 994.0 60.0 Q 967.0 97.92483297477295 940.0 60.0 L 901.0 60.0 Q 925.3 126.9 886.0 147.0 L 886.0 153.0 z" fill="rgb(255,217,194)" stroke="black"/>
  <text fill="rgb(9,33,173)" font-size="25" x="942.0" y="108.0">top_back</text>
  <path d="M 1108.0 153.0 L 1270.0 153.0 L 1270.0 147.0 Q 1230.7 126.9 1255.0 60.0 L 1216.0 60.0 L 1189.0 75.0 L 1162.0 60.0 L 1123.0 60.0 Q 1147.3 126.9 1108.0 147.0 L 1108.0 153.0 z" fill="rgb(255,217,194)" stroke="black"/>
  <text fill="rgb(9,33,173)" font-size="25" x="1164.0" y="104.66666666666667">top_front</text>
</svg>
