<?xml version="1.0" encoding="utf-8" ?>
<svg xmlns="http://www.w3.org/2000/svg" xmlns:ev="http://www.w3.org/2001/xml-events" xmlns:xlink="http://www.w3.org/1999/xlink" baseProfile="full" height="444px" version="1.1" width="793.8000000000001px">
  <defs/>
  <path d="M 69 384 L 117 384 L 117 105 L 105 60 L 69 60 Q 104.7 137.1 60 165 L 69 384 z" fill="rgb(255,217,194)" stroke="black"/>
  <text fill="rgb(9,33,173)" font-size="25" x="64.5" y="196.0">front_right</text>
  <path d="M 234.5 201.0 L 258.5 201.0 Q 329.6 185.7 285.5 96.0 L 270.5 105.0 L 255.5 60.0 L 234.5 201.0 z" fill="rgb(255,217,194)" stroke="black"/>
  <text fill="rgb(9,33,173)" font-size="25" x="235.89999999999998" y="135.6">Rhood</text>
  <path d="M 354.9 384.0 L 450.9 384.0 L 459.9 165.0 Q 415.2 137.1 450.9 60.0 L 414.9 60.0 L 402.9 69.0 L 390.9 60.0 L 354.9 60.0 Q 390.59999999999997 137.1 345.9 165.0 L 354.9 384.0 z" fill="rgb(255,217,194)" stroke="black"/>
  <text fill="rgb(9,33,173)" font-size="25" x="377.90000000000003" y="159.33333333333334">back</text>
  <path d="M 540.9 201.0 L 555.9 156.0 L 570.9 165.0 Q 615.0 75.3 543.9 60.0 L 519.9 60.0 L 540.9 201.0 z" fill="rgb(255,217,194)" stroke="black"/>
  <text fill="rgb(9,33,173)" font-size="25" x="521.3" y="131.4">Lhood</text>
  <path d="M 631.3 384.0 L 679.3 384.0 L 688.3 165.0 Q 643.5999999999999 137.1 679.3 60.0 L 643.3 60.0 L 631.3 105.0 L 631.3 384.0 z" fill="rgb(255,217,194)" stroke="black"/>
  <text fill="rgb(9,33,173)" font-size="25" x="633.8000000000001" y="196.0">front_left</text>
</svg>
