<?xml version="1.0" encoding="utf-8" ?>
<svg xmlns="http://www.w3.org/2000/svg" xmlns:ev="http://www.w3.org/2001/xml-events" xmlns:xlink="http://www.w3.org/1999/xlink" baseProfile="full" height="396px" version="1.1" width="1390.0px">
  <defs/>
  <path d="M 60 336 L 294 336 L 294 60 L 60 60 L 60 336 z" fill="rgb(255,217,194)" stroke="black"/>
  <text fill="rgb(9,33,173)" font-size="25" x="152.0" y="201.0">skirt_back</text>
  <path d="M 354 69 L 444 69 L 444 60 L 354 60 L 354 69 z" fill="rgb(255,217,194)" stroke="black"/>
  <text fill="rgb(9,33,173)" font-size="25" x="374.0" y="67.5">wb_back</text>
  <path d="M 504 69 L 594 69 L 594 60 L 504 60 L 504 69 z" fill="rgb(255,217,194)" stroke="black"/>
  <text fill="rgb(9,33,173)" font-size="25" x="524.0" y="67.5">wb_front</text>
  <path d="M 664.0 336.0 L 898.0 336.0 L 898.0 60.0 L 664.0 60.0 L 664.0 336.0 z" fill="rgb(255,217,194)" stroke="black"/>
  <text fill="rgb(9,33,173)" font-size="25" x="756.0" y="201.0">skirt_front</text>
  <path d="M 958.0 168.0 L 1114.0 168.0 L 1114.0 120.0 Q 1086.4 106.8 1102.0 60.0 L 1060.0 60.0 Q 1036.0 87.97419958500512 1012.0 60.0 L 970.0 60.0 Q 985.6 106.8 958.0 120.0 L 958.0 168.0 z" fill="rgb(255,217,194)" stroke="black"/>
  <text fill="rgb(9,33,173)" font-size="25" x="1011.0" y="105.0">top_back</text>
  <path d="M 1174.0 168.0 L 1330.0 168.0 L 1330.0 120.0 Q 1302.4 106.8 1318.0 60.0 L 1276.0 60.0 L 1252.0 114.0 L 1228.0 60.0 L 1186.0 60.0 Q 1201.6 106.8 1174.0 120.0 L 1174.0 168.0 z" fill="rgb(255,217,194)" stroke="black"/>
  <text fill="rgb(9,33,173)" font-size="25" x="1227.0" y="106.33333333333333">top_front</text>
</svg>
