<?xml version="1.0" encoding="utf-8" ?>
<svg xmlns="http://www.w3.org/2000/svg" xmlns:ev="http://www.w3.org/2001/xml-events" xmlns:xlink="http://www.w3.org/1999/xlink" baseProfile="full" height="510.0px" version="1.1" width="1567.0px">
  <defs/>
  <path d="M 60 159 L 147 159 Q 163.8 110.10000000000001 135 96 L 60 60 L 60 159 z" fill="rgb(255,217,194)" stroke="black"/>
  <text fill="rgb(9,33,173)" font-size="25" x="75.5" y="121.5">rbsleeve</text>
  <path d="M 215.5 159.0 L 290.5 123.0 Q 319.3 108.89999999999999 302.5 60.0 L 215.5 60.0 L 215.5 159.0 z" fill="rgb(255,217,194)" stroke="black"/>
  <text fill="rgb(9,33,173)" font-size="25" x="231.0" y="103.5">rfsleeve</text>
  <path d="M 371.0 450.0 L 539.0 450.0 L 539.0 96.0 L 518.0 60.0 L 482.0 60.0 Q 499.7 105.6 473.0 120.0 L 371.0 450.0 z" fill="rgb(255,217,194)" stroke="black"/>
  <text fill="rgb(9,33,173)" font-size="25" x="462.0" y="209.0">front_right</text>
  <path d="M 632.0 450.0 L 968.0 450.0 L 866.0 120.0 Q 839.3 105.6 857.0 60.0 L 821.0 60.0 Q 800.0 75.05778662107831 779.0 60.0 L 743.0 60.0 Q 760.7 105.6 734.0 120.0 L 632.0 450.0 z" fill="rgb(255,217,194)" stroke="black"/>
  <text fill="rgb(9,33,173)" font-size="25" x="775.0" y="175.5">back</text>
  <path d="M 1028.0 450.0 L 1196.0 450.0 L 1094.0 120.0 Q 1067.3 105.6 1085.0 60.0 L 1049.0 60.0 L 1028.0 96.0 L 1028.0 450.0 z" fill="rgb(255,217,194)" stroke="black"/>
  <text fill="rgb(9,33,173)" font-size="25" x="1055.0" y="209.0">front_left</text>
  <path d="M 1256.0 159.0 L 1331.0 123.0 Q 1359.8 108.89999999999999 1343.0 60.0 L 1256.0 60.0 L 1256.0 159.0 z" fill="rgb(255,217,194)" stroke="black"/>
  <text fill="rgb(9,33,173)" font-size="25" x="1271.5" y="103.5">lbsleeve</text>
  <path d="M 1411.5 159.0 L 1498.5 159.0 Q 1515.3 110.10000000000001 1486.5 96.0 L 1411.5 60.0 L 1411.5 159.0 z" fill="rgb(255,217,194)" stroke="black"/>
  <text fill="rgb(9,33,173)" font-size="25" x="1427.0" y="121.5">lfsleeve</text>
</svg>
