<?xml version="1.0" encoding="utf-8" ?>
<svg xmlns="http://www.w3.org/2000/svg" xmlns:ev="http://www.w3.org/2001/xml-events" xmlns:xlink="http://www.w3.org/1999/xlink" baseProfile="full" height="237px" version="1.1" width="953.0px">
  <defs/>
  <path d="M 60 177 Q 162.0 99.2892584387142 264 177 L 228 102 L 210 60 L 114 60 L 96 102 L 60 177 z" fill="rgb(255,217,194)" stroke="black"/>
  <text fill="rgb(9,33,173)" font-size="25" x="137.0" y="116.0">skirt_back</text>
  <path d="M 324 177 Q 426.0 189.15462590039368 528 177 L 492 102 L 474 60 L 378 60 L 360 102 L 324 177 z" fill="rgb(255,217,194)" stroke="black"/>
  <text fill="rgb(9,33,173)" font-size="25" x="401.0" y="116.0">skirt_front</text>
  <path d="M 600 168 L 696 168 L 708 120 Q 681.3 105.6 699 60 L 675 60 Q 648.0 126.93818212650176 621 60 L 597 60 Q 614.7 105.6 588 120 L 600 168 z" fill="rgb(255,217,194)" stroke="black"/>
  <text fill="rgb(9,33,173)" font-size="25" x="623.0" y="105.0">top_back</text>
  <path d="M 780 165 L 876 165 L 888 120 Q 861.3 105.6 879 60 L 855 60 L 828 93 L 801 60 L 777 60 Q 794.7 105.6 768 120 L 780 165 z" fill="rgb(255,217,194)" stroke="black"/>
  <text fill="rgb(9,33,173)" font-size="25" x="803.0" y="103.33333333333333">top_front</text>
</svg>
