<?xml version="1.0" encoding="utf-8" ?>
<svg xmlns="http://www.w3.org/2000/svg" xmlns:ev="http://www.w3.org/2001/xml-events" xmlns:xlink="http://www.w3.org/1999/xlink" baseProfile="full" height="378.0px" version="1.1" width="1804.0px">
  <defs/>
  <path d="M 60 114 L 144 114 Q 153.6 77.7 132 69 L 60 60 L 60 114 z" fill="rgb(255,217,194)" stroke="black"/>
  <text fill="rgb(9,33,173)" font-size="25" x="74.0" y="92.25">rbsleeve</text>
  <path d="M 214.0 114.0 L 286.0 105.0 Q 307.6 96.3 298.0 60.0 L 214.0 60.0 L 214.0 114.0 z" fill="rgb(255,217,194)" stroke="black"/>
  <text fill="rgb(9,33,173)" font-size="25" x="228.0" y="87.75">rfsleeve</text>
  <path d="M 368.0 318.0 L 482.0 318.0 Q 484.7 98.10000000000002 470.0 60.0 L 398.0 60.0 Q 412.7 141.75 368.0 153.0 Q 384.5 161.25 368.0 318.0 z" fill="rgb(255,217,194)" stroke="black"/>
  <text fill="rgb(9,33,173)" font-size="25" x="392.2" y="184.8">Rback</text>
  <path d="M 542.0 318.0 L 656.0 318.0 Q 639.5 161.25 656.0 153.0 Q 615.95 140.25 626.0 60.0 L 554.0 60.0 Q 539.3000000000001 98.1 542.0 318.0 z" fill="rgb(255,217,194)" stroke="black"/>
  <text fill="rgb(9,33,173)" font-size="25" x="581.8" y="184.8">Rfront</text>
  <path d="M 719.0 168.0 L 794.0 168.0 L 869.0 168.0 L 872.0 108.0 Q 849.1999999999999 98.39999999999999 860.0 60.0 L 830.0 60.0 Q 794.0 89.80235796463995 758.0 60.0 L 728.0 60.0 Q 738.8000000000001 98.39999999999999 716.0 108.0 L 719.0 168.0 z" fill="rgb(255,217,194)" stroke="black"/>
  <text fill="rgb(9,33,173)" font-size="25" x="769.0" y="109.66666666666667">up_back</text>
  <path d="M 935.0 165.0 L 1010.0 165.0 L 1085.0 165.0 L 1088.0 108.0 Q 1065.2 98.39999999999999 1076.0 60.0 L 1046.0 60.0 L 1010.0 129.0 L 974.0 60.0 L 944.0 60.0 Q 954.8000000000001 98.39999999999999 932.0 108.0 L 935.0 165.0 z" fill="rgb(255,217,194)" stroke="black"/>
  <text fill="rgb(9,33,173)" font-size="25" x="985.0" y="111.0">up_front</text>
  <path d="M 1148.0 318.0 L 1262.0 318.0 Q 1245.5 161.25 1262.0 153.0 Q 1217.3 141.75 1232.0 60.0 L 1160.0 60.0 Q 1145.3 98.1 1148.0 318.0 z" fill="rgb(255,217,194)" stroke="black"/>
  <text fill="rgb(9,33,173)" font-size="25" x="1187.8" y="184.8">Lback</text>
  <path d="M 1322.0 318.0 L 1436.0 318.0 Q 1438.7 98.10000000000002 1424.0 60.0 L 1352.0 60.0 Q 1362.05 140.25 1322.0 153.0 Q 1338.5 161.25 1322.0 318.0 z" fill="rgb(255,217,194)" stroke="black"/>
  <text fill="rgb(9,33,173)" font-size="25" x="1346.2" y="184.8">Lfront</text>
  <path d="M 1496.0 114.0 L 1568.0 105.0 Q 1589.6 96.3 1580.0 60.0 L 1496.0 60.0 L 1496.0 114.0 z" fill="rgb(255,217,194)" stroke="black"/>
  <text fill="rgb(9,33,173)" font-size="25" x="1510.0" y="87.75">lbsleeve</text>
  <path d="M 1650.0 114.0 L 1734.0 114.0 Q 1743.6 77.7 1722.0 69.0 L 1650.0 60.0 L 1650.0 114.0 z" fill="rgb(255,217,194)" stroke="black"/>
  <text fill="rgb(9,33,173)" font-size="25" x="1664.0" y="92.25">lfsleeve</text>
</svg>
