<?xml version="1.0" encoding="utf-8" ?>
<svg xmlns="http://www.w3.org/2000/svg" xmlns:ev="http://www.w3.org/2001/xml-events" xmlns:xlink="http://www.w3.org/1999/xlink" baseProfile="full" height="333.0px" version="1.1" width="1636.0px">
  <defs/>
  <path d="M 60 192 L 144 192 Q 154.8 153.6 132 144 L 60 60 L 60 192 z" fill="rgb(255,217,194)" stroke="black"/>
  <text fill="rgb(9,33,173)" font-size="25" x="74.0" y="150.0">rbsleeve</text>
  <path d="M 214.0 192.0 L 286.0 108.0 Q 308.8 98.39999999999999 298.0 60.0 L 214.0 60.0 L 214.0 192.0 z" fill="rgb(255,217,194)" stroke="black"/>
  <text fill="rgb(9,33,173)" font-size="25" x="228.0" y="108.0">rfsleeve</text>
  <path d="M 368.0 273.0 Q 467.0 363.57479112985425 566.0 273.0 L 536.0 102.0 L 518.0 60.0 L 416.0 60.0 L 398.0 102.0 L 368.0 273.0 z" fill="rgb(255,217,194)" stroke="black"/>
  <text fill="rgb(9,33,173)" font-size="25" x="442.0" y="148.0">skirt_back</text>
  <path d="M 626.0 273.0 Q 725.0 296.17964879618296 824.0 273.0 L 794.0 102.0 L 776.0 60.0 L 674.0 60.0 L 656.0 102.0 L 626.0 273.0 z" fill="rgb(255,217,194)" stroke="black"/>
  <text fill="rgb(9,33,173)" font-size="25" x="700.0" y="148.0">skirt_front</text>
  <path d="M 914.0 168.0 L 1016.0 168.0 L 1046.0 111.0 Q 1022.0000000000001 100.5 1034.0 60.0 L 983.0 60.0 Q 965.0 67.7119106034665 947.0 60.0 L 896.0 60.0 Q 908.0 100.49999999999999 884.0 111.0 L 914.0 168.0 z" fill="rgb(255,217,194)" stroke="black"/>
  <text fill="rgb(9,33,173)" font-size="25" x="940.0" y="102.75">top_back</text>
  <path d="M 1136.0 165.0 L 1238.0 165.0 L 1268.0 111.0 Q 1244.0 100.5 1256.0 60.0 L 1205.0 60.0 L 1187.0 81.0 L 1169.0 60.0 L 1118.0 60.0 Q 1130.0 100.49999999999999 1106.0 111.0 L 1136.0 165.0 z" fill="rgb(255,217,194)" stroke="black"/>
  <text fill="rgb(9,33,173)" font-size="25" x="1162.0" y="100.0">top_front</text>
  <path d="M 1328.0 192.0 L 1400.0 108.0 Q 1422.8 98.39999999999999 1412.0 60.0 L 1328.0 60.0 L 1328.0 192.0 z" fill="rgb(255,217,194)" stroke="black"/>
  <text fill="rgb(9,33,173)" font-size="25" x="1342.0" y="108.0">lbsleeve</text>
  <path d="M 1482.0 192.0 L 1566.0 192.0 Q 1576.8 153.6 1554.0 144.0 L 1482.0 60.0 L 1482.0 192.0 z" fill="rgb(255,217,194)" stroke="black"/>
  <text fill="rgb(9,33,173)" font-size="25" x="1496.0" y="150.0">lfsleeve</text>
</svg>
