<?xml version="1.0" encoding="utf-8" ?>
<svg xmlns="http://www.w3.org/2000/svg" xmlns:ev="http://www.w3.org/2001/xml-events" xmlns:xlink="http://www.w3.org/1999/xlink" baseProfile="full" height="255.0px" version="1.1" width="1003.0px">
  <defs/>
  <path d="M 60 174 L 177 174 L 177 111 L 147 60 L 120 60 Q 148.8 129.9 108 153 L 60 174 z" fill="rgb(255,217,194)" stroke="black"/>
  <text fill="rgb(9,33,173)" font-size="25" x="106.5" y="125.0">front_right</text>
  <path d="M 276.5 195.0 L 288.5 195.0 Q 360.5 199.5 342.5 102.0 L 312.5 111.0 L 279.5 60.0 L 276.5 195.0 z" fill="rgb(255,217,194)" stroke="black"/>
  <text fill="rgb(9,33,173)" font-size="25" x="274.9" y="135.6">Rhood</text>
  <path d="M 402.5 174.0 L 636.5 174.0 L 588.5 153.0 Q 547.6999999999999 129.9 576.5 60.0 L 549.5 60.0 L 519.5 69.0 L 489.5 60.0 L 462.5 60.0 Q 491.3 129.9 450.5 153.0 L 402.5 174.0 z" fill="rgb(255,217,194)" stroke="black"/>
  <text fill="rgb(9,33,173)" font-size="25" x="494.5" y="110.0">back</text>
  <path d="M 699.5 195.0 L 732.5 144.0 L 762.5 153.0 Q 780.5 55.50000000000001 708.5 60.0 L 696.5 60.0 L 699.5 195.0 z" fill="rgb(255,217,194)" stroke="black"/>
  <text fill="rgb(9,33,173)" font-size="25" x="694.9" y="125.4">Lhood</text>
  <path d="M 822.5 174.0 L 939.5 174.0 L 891.5 153.0 Q 850.6999999999999 129.9 879.5 60.0 L 852.5 60.0 L 822.5 111.0 L 822.5 174.0 z" fill="rgb(255,217,194)" stroke="black"/>
  <text fill="rgb(9,33,173)" font-size="25" x="843.0" y="125.0">front_left</text>
</svg>
