<?xml version="1.0" encoding="utf-8" ?>
<svg xmlns="http://www.w3.org/2000/svg" xmlns:ev="http://www.w3.org/2001/xml-events" xmlns:xlink="http://www.w3.org/1999/xlink" baseProfile="full" height="246.0px" version="1.1" width="1522.0px">
  <defs/>
  <path d="M 60 138 L 87 138 Q 107.39999999999999 82.8 75 66 L 60 60 L 60 138 z" fill="rgb(255,217,194)" stroke="black"/>
  <text fill="rgb(9,33,173)" font-size="25" x="45.5" y="103.5">rbsleeve</text>
  <path d="M 185.5 138.0 L 200.5 132.0 Q 232.9 115.2 212.5 60.0 L 185.5 60.0 L 185.5 138.0 z" fill="rgb(255,217,194)" stroke="black"/>
  <text fill="rgb(9,33,173)" font-size="25" x="171.0" y="100.5">rfsleeve</text>
  <path d="M 311.0 186.0 Q 419.0 91.72954192972867 527.0 186.0 L 491.0 102.0 L 488.0 60.0 L 350.0 60.0 L 347.0 102.0 L 311.0 186.0 z" fill="rgb(255,217,194)" stroke="black"/>
  <text fill="rgb(9,33,173)" font-size="25" x="394.0" y="119.0">skirt_back</text>
  <path d="M 587.0 186.0 Q 695.0 123.97738617143119 803.0 186.0 L 767.0 102.0 L 764.0 60.0 L 626.0 60.0 L 623.0 102.0 L 587.0 186.0 z" fill="rgb(255,217,194)" stroke="black"/>
  <text fill="rgb(9,33,173)" font-size="25" x="670.0" y="119.0">skirt_front</text>
  <path d="M 866.0 168.0 L 1004.0 168.0 L 1007.0 132.0 Q 974.6 115.2 995.0 60.0 L 971.0 60.0 Q 935.0 77.76254637144976 899.0 60.0 L 875.0 60.0 Q 895.4 115.2 863.0 132.0 L 866.0 168.0 z" fill="rgb(255,217,194)" stroke="black"/>
  <text fill="rgb(9,33,173)" font-size="25" x="910.0" y="108.0">top_back</text>
  <path d="M 1070.0 165.0 L 1208.0 165.0 L 1211.0 132.0 Q 1178.6000000000001 115.2 1199.0 60.0 L 1175.0 60.0 L 1139.0 141.0 L 1103.0 60.0 L 1079.0 60.0 Q 1099.3999999999999 115.2 1067.0 132.0 L 1070.0 165.0 z" fill="rgb(255,217,194)" stroke="black"/>
  <text fill="rgb(9,33,173)" font-size="25" x="1114.0" y="111.33333333333333">top_front</text>
  <path d="M 1271.0 138.0 L 1286.0 132.0 Q 1318.3999999999999 115.2 1298.0 60.0 L 1271.0 60.0 L 1271.0 138.0 z" fill="rgb(255,217,194)" stroke="black"/>
  <text fill="rgb(9,33,173)" font-size="25" x="1256.5" y="100.5">lbsleeve</text>
  <path d="M 1396.5 138.0 L 1423.5 138.0 Q 1443.8999999999999 82.8 1411.5 66.0 L 1396.5 60.0 L 1396.5 138.0 z" fill="rgb(255,217,194)" stroke="black"/>
  <text fill="rgb(9,33,173)" font-size="25" x="1382.0" y="103.5">lfsleeve</text>
</svg>
