<?xml version="1.0" encoding="utf-8" ?>
<svg xmlns="http://www.w3.org/2000/svg" xmlns:ev="http://www.w3.org/2001/xml-events" xmlns:xlink="http://www.w3.org/1999/xlink" baseProfile="full" height="222px" version="1.1" width="1196.0px">
  <defs/>
  <path d="M 60 162 L 210 162 L 210 60 L 60 60 L 60 162 z" fill="rgb(255,217,194)" stroke="black"/>
  <text fill="rgb(9,33,173)" font-size="25" x="110.0" y="114.0">skirt_back</text>
  <path d="M 270 81 L 360 81 L 360 60 L 270 60 L 270 81 z" fill="rgb(255,217,194)" stroke="black"/>
  <text fill="rgb(9,33,173)" font-size="25" x="290.0" y="73.5">wb_back</text>
  <path d="M 420 81 L 510 81 L 510 60 L 420 60 L 420 81 z" fill="rgb(255,217,194)" stroke="black"/>
  <text fill="rgb(9,33,173)" font-size="25" x="440.0" y="73.5">wb_front</text>
  <path d="M 580.0 162.0 L 730.0 162.0 L 730.0 60.0 L 580.0 60.0 L 580.0 162.0 z" fill="rgb(255,217,194)" stroke="black"/>
  <text fill="rgb(9,33,173)" font-size="25" x="630.0" y="114.0">skirt_front</text>
  <path d="M 800.0 147.0 L 938.0 147.0 L 938.0 138.0 Q 903.1999999999999 119.39999999999999 926.0 60.0 L 893.0 60.0 Q 869.0 136.0796919877157 845.0 60.0 L 812.0 60.0 Q 834.8000000000001 119.39999999999999 800.0 138.0 L 800.0 147.0 z" fill="rgb(255,217,194)" stroke="black"/>
  <text fill="rgb(9,33,173)" font-size="25" x="844.0" y="104.25">top_back</text>
  <path d="M 998.0 147.0 L 1136.0 147.0 L 1136.0 138.0 Q 1101.2 119.39999999999999 1124.0 60.0 L 1091.0 60.0 L 1067.0 138.0 L 1043.0 60.0 L 1010.0 60.0 Q 1032.8 119.39999999999999 998.0 138.0 L 998.0 147.0 z" fill="rgb(255,217,194)" stroke="black"/>
  <text fill="rgb(9,33,173)" font-size="25" x="1042.0" y="108.33333333333333">top_front</text>
</svg>
