<?xml version="1.0" encoding="utf-8" ?>
<svg xmlns="http://www.w3.org/2000/svg" xmlns:ev="http://www.w3.org/2001/xml-events" xmlns:xlink="http://www.w3.org/1999/xlink" baseProfile="full" height="267px" version="1.1" width="1164px">
  <defs/>
  <path d="M 60 207 L 171 207 Q 170.7 81.6 162 60 L 90 60 Q 104.7 141.75 60 153 Q 65.4 155.7 60 207 z" fill="rgb(255,217,194)" stroke="black"/>
  <text fill="rgb(9,33,173)" font-size="25" x="83.6" y="140.4">Rback</text>
  <path d="M 231 207 L 342 207 Q 336.6 155.7 342 153 Q 301.95 140.25 312 60 L 240 60 Q 231.3 81.6 231 207 z" fill="rgb(255,217,194)" stroke="black"/>
  <text fill="rgb(9,33,173)" font-size="25" x="268.4" y="140.4">Rfront</text>
  <path d="M 405 168 L 477 168 L 549 168 L 552 105 Q 530.4 96.3 540 60 L 516 60 Q 477.0 147.77340919848535 438 60 L 414 60 Q 423.6 96.3 402 105 L 405 168 z" fill="rgb(255,217,194)" stroke="black"/>
  <text fill="rgb(9,33,173)" font-size="25" x="452.0" y="109.0">up_back</text>
  <path d="M 615 165 L 687 165 L 759 165 L 762 102 Q 741.6 94.2 750 60 L 726 60 L 687 138 L 648 60 L 624 60 Q 632.4 94.2 612 102 L 615 165 z" fill="rgb(255,217,194)" stroke="black"/>
  <text fill="rgb(9,33,173)" font-size="25" x="662.0" y="110.7">up_front</text>
  <path d="M 822 207 L 933 207 Q 927.6 155.7 933 153 Q 888.3 141.75 903 60 L 831 60 Q 822.3 81.6 822 207 z" fill="rgb(255,217,194)" stroke="black"/>
  <text fill="rgb(9,33,173)" font-size="25" x="859.4" y="140.4">Lback</text>
  <path d="M 993 207 L 1104 207 Q 1103.6999999999998 81.6 1095 60 L 1023 60 Q 1033.05 140.25 993 153 Q 998.4 155.7 993 207 z" fill="rgb(255,217,194)" stroke="black"/>
  <text fill="rgb(9,33,173)" font-size="25" x="1016.5999999999999" y="140.4">Lfront</text>
</svg>
