<?xml version="1.0" encoding="utf-8" ?>
<svg xmlns="http://www.w3.org/2000/svg" xmlns:ev="http://www.w3.org/2001/xml-events" xmlns:xlink="http://www.w3.org/1999/xlink" baseProfile="full" height="348px" version="1.1" width="2040px">
  <defs/>
  <path d="M 60 195 L 168 195 Q 173.1 161.7 153 156 L 60 60 L 60 195 z" fill="rgb(255,217,194)" stroke="black"/>
  <text fill="rgb(9,33,173)" font-size="25" x="85.25" y="154.5">rbsleeve</text>
  <path d="M 228 195 L 321 99 Q 341.1 93.3 336 60 L 228 60 L 228 195 z" fill="rgb(255,217,194)" stroke="black"/>
  <text fill="rgb(9,33,173)" font-size="25" x="253.25" y="106.5">rfsleeve</text>
  <path d="M 396 288 Q 570.0 235.3482422315537 744 288 L 651 102 L 648 60 L 492 60 L 489 102 L 396 288 z" fill="rgb(255,217,194)" stroke="black"/>
  <text fill="rgb(9,33,173)" font-size="25" x="545.0" y="153.0">skirt_back</text>
  <path d="M 804 288 Q 978.0 214.3580463633479 1152 288 L 1059 102 L 1056 60 L 900 60 L 897 102 L 804 288 z" fill="rgb(255,217,194)" stroke="black"/>
  <text fill="rgb(9,33,173)" font-size="25" x="953.0" y="153.0">skirt_front</text>
  <path d="M 1227 168 L 1383 168 L 1398 102 Q 1376.7 95.4 1383 60 L 1329 60 Q 1305.0 89.05708133810164 1281 60 L 1227 60 Q 1233.3 95.4 1212 102 L 1227 168 z" fill="rgb(255,217,194)" stroke="black"/>
  <text fill="rgb(9,33,173)" font-size="25" x="1280.0" y="100.5">top_back</text>
  <path d="M 1473 165 L 1629 165 L 1644 102 Q 1622.7 95.4 1629 60 L 1575 60 L 1551 114 L 1527 60 L 1473 60 Q 1479.3 95.4 1458 102 L 1473 165 z" fill="rgb(255,217,194)" stroke="black"/>
  <text fill="rgb(9,33,173)" font-size="25" x="1526.0" y="101.66666666666667">top_front</text>
  <path d="M 1704 195 L 1797 99 Q 1817.1 93.3 1812 60 L 1704 60 L 1704 195 z" fill="rgb(255,217,194)" stroke="black"/>
  <text fill="rgb(9,33,173)" font-size="25" x="1729.25" y="106.5">lbsleeve</text>
  <path d="M 1872 195 L 1980 195 Q 1985.1 161.7 1965 156 L 1872 60 L 1872 195 z" fill="rgb(255,217,194)" stroke="black"/>
  <text fill="rgb(9,33,173)" font-size="25" x="1897.25" y="154.5">lfsleeve</text>
</svg>
