<?xml version="1.0" encoding="utf-8" ?>
<svg xmlns="http://www.w3.org/2000/svg" xmlns:ev="http://www.w3.org/2001/xml-events" xmlns:xlink="http://www.w3.org/1999/xlink" baseProfile="full" height="291.0px" version="1.1" width="1630.0px">
  <defs/>
  <path d="M 60 195 L 99 195 Q 115.8 146.1 87 132 L 60 60 L 60 195 z" fill="rgb(255,217,194)" stroke="black"/>
  <text fill="rgb(9,33,173)" font-size="25" x="51.5" y="148.5">rbsleeve</text>
  <path d="M 191.5 195.0 L 218.5 123.0 Q 247.3 108.89999999999999 230.5 60.0 L 191.5 60.0 L 191.5 195.0 z" fill="rgb(255,217,194)" stroke="black"/>
  <text fill="rgb(9,33,173)" font-size="25" x="183.0" y="112.5">rfsleeve</text>
  <path d="M 323.0 231.0 L 428.0 231.0 Q 428.90000000000003 85.2 419.0 60.0 L 353.0 60.0 Q 367.7 141.75 323.0 153.0 Q 330.8 156.9 323.0 231.0 z" fill="rgb(255,217,194)" stroke="black"/>
  <text fill="rgb(9,33,173)" font-size="25" x="344.2" y="150.0">Rback</text>
  <path d="M 488.0 231.0 L 593.0 231.0 Q 585.2 156.9 593.0 153.0 Q 552.95 140.25 563.0 60.0 L 497.0 60.0 Q 487.09999999999997 85.2 488.0 231.0 z" fill="rgb(255,217,194)" stroke="black"/>
  <text fill="rgb(9,33,173)" font-size="25" x="521.8" y="150.0">Rfront</text>
  <path d="M 653.0 168.0 L 719.0 168.0 L 785.0 168.0 L 785.0 123.0 Q 756.1999999999999 108.89999999999999 773.0 60.0 L 740.0 60.0 Q 719.0 105.01036279937786 698.0 60.0 L 665.0 60.0 Q 681.8000000000001 108.89999999999999 653.0 123.0 L 653.0 168.0 z" fill="rgb(255,217,194)" stroke="black"/>
  <text fill="rgb(9,33,173)" font-size="25" x="694.0" y="113.0">up_back</text>
  <path d="M 845.0 165.0 L 911.0 165.0 L 977.0 165.0 L 977.0 123.0 Q 948.1999999999999 108.89999999999999 965.0 60.0 L 932.0 60.0 L 911.0 108.0 L 890.0 60.0 L 857.0 60.0 Q 873.8000000000001 108.89999999999999 845.0 123.0 L 845.0 165.0 z" fill="rgb(255,217,194)" stroke="black"/>
  <text fill="rgb(9,33,173)" font-size="25" x="886.0" y="111.9">up_front</text>
  <path d="M 1037.0 231.0 L 1142.0 231.0 Q 1134.2 156.9 1142.0 153.0 Q 1097.3 141.75 1112.0 60.0 L 1046.0 60.0 Q 1036.1000000000001 85.2 1037.0 231.0 z" fill="rgb(255,217,194)" stroke="black"/>
  <text fill="rgb(9,33,173)" font-size="25" x="1070.8" y="150.0">Lback</text>
  <path d="M 1202.0 231.0 L 1307.0 231.0 Q 1307.8999999999999 85.2 1298.0 60.0 L 1232.0 60.0 Q 1242.05 140.25 1202.0 153.0 Q 1209.8 156.9 1202.0 231.0 z" fill="rgb(255,217,194)" stroke="black"/>
  <text fill="rgb(9,33,173)" font-size="25" x="1223.2" y="150.0">Lfront</text>
  <path d="M 1367.0 195.0 L 1394.0 123.0 Q 1422.8 108.89999999999999 1406.0 60.0 L 1367.0 60.0 L 1367.0 195.0 z" fill="rgb(255,217,194)" stroke="black"/>
  <text fill="rgb(9,33,173)" font-size="25" x="1358.5" y="112.5">lbsleeve</text>
  <path d="M 1498.5 195.0 L 1537.5 195.0 Q 1554.3 146.1 1525.5 132.0 L 1498.5 60.0 L 1498.5 195.0 z" fill="rgb(255,217,194)" stroke="black"/>
  <text fill="rgb(9,33,173)" font-size="25" x="1490.0" y="148.5">lfsleeve</text>
</svg>
