<?xml version="1.0" encoding="utf-8" ?>
<svg xmlns="http://www.w3.org/2000/svg" xmlns:ev="http://www.w3.org/2001/xml-events" xmlns:xlink="http://www.w3.org/1999/xlink" baseProfile="full" height="228.0px" version="1.1" width="940.0px">
  <defs/>
  <path d="M 66 165 Q 132.0 171.26803255825817 198 165 L 204 102 L 183 60 L 81 60 L 60 102 L 66 165 z" fill="rgb(255,217,194)" stroke="black"/>
  <text fill="rgb(9,33,173)" font-size="25" x="107.0" y="112.0">skirt_back</text>
  <path d="M 273.0 165.0 Q 339.0 110.5966365004951 405.0 165.0 L 411.0 102.0 L 390.0 60.0 L 288.0 60.0 L 267.0 102.0 L 273.0 165.0 z" fill="rgb(255,217,194)" stroke="black"/>
  <text fill="rgb(9,33,173)" font-size="25" x="314.0" y="112.0">skirt_front</text>
  <path d="M 517.0 168.0 L 619.0 168.0 L 652.0 120.0 Q 624.4 106.8 640.0 60.0 L 601.0 60.0 Q 568.0 105.68127290925982 535.0 60.0 L 496.0 60.0 Q 511.6 106.8 484.0 120.0 L 517.0 168.0 z" fill="rgb(255,217,194)" stroke="black"/>
  <text fill="rgb(9,33,173)" font-size="25" x="543.0" y="105.0">top_back</text>
  <path d="M 745.0 165.0 L 847.0 165.0 L 880.0 120.0 Q 852.4 106.8 868.0 60.0 L 829.0 60.0 L 796.0 81.0 L 763.0 60.0 L 724.0 60.0 Q 739.6 106.8 712.0 120.0 L 745.0 165.0 z" fill="rgb(255,217,194)" stroke="black"/>
  <text fill="rgb(9,33,173)" font-size="25" x="771.0" y="102.0">top_front</text>
</svg>
