<?xml version="1.0" encoding="utf-8" ?>
<svg xmlns="http://www.w3.org/2000/svg" xmlns:ev="http://www.w3.org/2001/xml-events" xmlns:xlink="http://www.w3.org/1999/xlink" baseProfile="full" height="327px" version="1.1" width="1164px">
  <defs/>
  <path d="M 60 267 L 171 267 Q 176.25 90.75000000000001 165 60 L 90 60 Q 104.7 141.75 60 153 Q 71.4 158.7 60 267 z" fill="rgb(255,217,194)" stroke="black"/>
  <text fill="rgb(9,33,173)" font-size="25" x="84.2" y="164.4">Rback</text>
  <path d="M 231 267 L 342 267 Q 330.6 158.7 342 153 Q 301.95 140.25 312 60 L 237 60 Q 225.75 90.75 231 267 z" fill="rgb(255,217,194)" stroke="black"/>
  <text fill="rgb(9,33,173)" font-size="25" x="267.8" y="164.4">Rfront</text>
  <path d="M 402 168 L 477 168 L 552 168 L 540 117 Q 514.5 103.5 531 60 L 504 60 Q 477.0 112.49883568809958 450 60 L 423 60 Q 439.5 103.5 414 117 L 402 168 z" fill="rgb(255,217,194)" stroke="black"/>
  <text fill="rgb(9,33,173)" font-size="25" x="452.0" y="111.66666666666667">up_back</text>
  <path d="M 612 165 L 687 165 L 762 165 L 750 117 Q 724.5 103.5 741 60 L 714 60 L 687 84 L 660 60 L 633 60 Q 649.5 103.5 624 117 L 612 165 z" fill="rgb(255,217,194)" stroke="black"/>
  <text fill="rgb(9,33,173)" font-size="25" x="662.0" y="108.3">up_front</text>
  <path d="M 822 267 L 933 267 Q 921.6 158.7 933 153 Q 888.3 141.75 903 60 L 828 60 Q 816.75 90.75 822 267 z" fill="rgb(255,217,194)" stroke="black"/>
  <text fill="rgb(9,33,173)" font-size="25" x="858.8" y="164.4">Lback</text>
  <path d="M 993 267 L 1104 267 Q 1109.25 90.75000000000001 1098 60 L 1023 60 Q 1033.05 140.25 993 153 Q 1004.4 158.7 993 267 z" fill="rgb(255,217,194)" stroke="black"/>
  <text fill="rgb(9,33,173)" font-size="25" x="1017.2" y="164.4">Lfront</text>
</svg>
