<?xml version="1.0" encoding="utf-8" ?>
<svg xmlns="http://www.w3.org/2000/svg" xmlns:ev="http://www.w3.org/2001/xml-events" xmlns:xlink="http://www.w3.org/1999/xlink" baseProfile="full" height="447px" version="1.1" width="598.0px">
  <defs/>
  <path d="M 69 387 L 126 387 L 126 81 L 96 60 L 69 60 Q 84.30000000000001 101.39999999999999 60 114 L 69 387 z" fill="rgb(255,217,194)" stroke="black"/>
  <text fill="rgb(9,33,173)" font-size="25" x="66.0" y="184.5">front_right</text>
  <path d="M 245.0 387.0 L 359.0 387.0 L 368.0 114.0 Q 343.7 101.39999999999999 359.0 60.0 L 332.0 60.0 Q 302.0 202.14692740061318 272.0 60.0 L 245.0 60.0 Q 260.3 101.39999999999999 236.0 114.0 L 245.0 387.0 z" fill="rgb(255,217,194)" stroke="black"/>
  <text fill="rgb(9,33,173)" font-size="25" x="277.0" y="158.25">back</text>
  <path d="M 428.0 387.0 L 485.0 387.0 L 494.0 114.0 Q 469.7 101.39999999999999 485.0 60.0 L 458.0 60.0 L 428.0 81.0 L 428.0 387.0 z" fill="rgb(255,217,194)" stroke="black"/>
  <text fill="rgb(9,33,173)" font-size="25" x="438.0" y="184.5">front_left</text>
</svg>
