<?xml version="1.0" encoding="utf-8" ?>
<svg xmlns="http://www.w3.org/2000/svg" xmlns:ev="http://www.w3.org/2001/xml-events" xmlns:xlink="http://www.w3.org/1999/xlink" baseProfile="full" height="498.0px" version="1.1" width="1423.0px">
  <defs/>
  <path d="M 60 177 L 129 177 Q 147.3 120.6 114 105 L 60 60 L 60 177 z" fill="rgb(255,217,194)" stroke="black"/>
  <text fill="rgb(9,33,173)" font-size="25" x="65.75" y="132.75">rbsleeve</text>
  <path d="M 205.75 177.0 L 259.75 132.0 Q 293.05 116.4 274.75 60.0 L 205.75 60.0 L 205.75 177.0 z" fill="rgb(255,217,194)" stroke="black"/>
  <text fill="rgb(9,33,173)" font-size="25" x="211.5" y="110.25">rfsleeve</text>
  <path d="M 351.5 438.0 L 681.5 438.0 L 609.5 132.0 Q 576.2 116.4 594.5 60.0 L 540.5 60.0 Q 516.5 153.69535659371394 492.5 60.0 L 438.5 60.0 Q 456.8 116.4 423.5 132.0 L 351.5 438.0 z" fill="rgb(255,217,194)" stroke="black"/>
  <text fill="rgb(9,33,173)" font-size="25" x="491.5" y="175.5">back</text>
  <path d="M 741.5 438.0 L 1071.5 438.0 L 999.5 132.0 Q 966.2 116.4 984.5 60.0 L 930.5 60.0 L 906.5 138.0 L 882.5 60.0 L 828.5 60.0 Q 846.8 116.4 813.5 132.0 L 741.5 438.0 z" fill="rgb(255,217,194)" stroke="black"/>
  <text fill="rgb(9,33,173)" font-size="25" x="881.5" y="171.66666666666666">front</text>
  <path d="M 1131.5 177.0 L 1185.5 132.0 Q 1218.8 116.4 1200.5 60.0 L 1131.5 60.0 L 1131.5 177.0 z" fill="rgb(255,217,194)" stroke="black"/>
  <text fill="rgb(9,33,173)" font-size="25" x="1137.25" y="110.25">lbsleeve</text>
  <path d="M 1277.25 177.0 L 1346.25 177.0 Q 1364.55 120.6 1331.25 105.0 L 1277.25 60.0 L 1277.25 177.0 z" fill="rgb(255,217,194)" stroke="black"/>
  <text fill="rgb(9,33,173)" font-size="25" x="1283.0" y="132.75">lfsleeve</text>
</svg>
