<?xml version="1.0" encoding="utf-8" ?>
<svg xmlns="http://www.w3.org/2000/svg" xmlns:ev="http://www.w3.org/2001/xml-events" xmlns:xlink="http://www.w3.org/1999/xlink" baseProfile="full" height="270px" version="1.1" width="1495.0px">
  <defs/>
  <path d="M 60 210 L 159 210 Q 174.9 157.8 144 144 L 60 60 L 60 210 z" fill="rgb(255,217,194)" stroke="black"/>
  <text fill="rgb(9,33,173)" font-size="25" x="80.75" y="159.0">rbsleeve</text>
  <path d="M 220.75 210.0 L 304.75 126.0 Q 335.65 112.2 319.75 60.0 L 220.75 60.0 L 220.75 210.0 z" fill="rgb(255,217,194)" stroke="black"/>
  <text fill="rgb(9,33,173)" font-size="25" x="241.5" y="117.0">rfsleeve</text>
  <path d="M 381.5 150.0 L 717.5 150.0 L 636.5 126.0 Q 606.5 111.0 624.5 60.0 L 576.5 60.0 Q 549.5 89.6956248736443 522.5 60.0 L 474.5 60.0 Q 492.5 110.99999999999999 462.5 126.0 L 381.5 150.0 z" fill="rgb(255,217,194)" stroke="black"/>
  <text fill="rgb(9,33,173)" font-size="25" x="524.5" y="102.0">back</text>
  <path d="M 777.5 150.0 L 1113.5 150.0 L 1032.5 123.0 Q 1003.7 108.89999999999999 1020.5 60.0 L 972.5 60.0 L 945.5 123.0 L 918.5 60.0 L 870.5 60.0 Q 887.3000000000001 108.89999999999999 858.5 123.0 L 777.5 150.0 z" fill="rgb(255,217,194)" stroke="black"/>
  <text fill="rgb(9,33,173)" font-size="25" x="920.5" y="104.0">front</text>
  <path d="M 1173.5 210.0 L 1257.5 126.0 Q 1288.4 112.2 1272.5 60.0 L 1173.5 60.0 L 1173.5 210.0 z" fill="rgb(255,217,194)" stroke="black"/>
  <text fill="rgb(9,33,173)" font-size="25" x="1194.25" y="117.0">lbsleeve</text>
  <path d="M 1334.25 210.0 L 1433.25 210.0 Q 1449.15 157.8 1418.25 144.0 L 1334.25 60.0 L 1334.25 210.0 z" fill="rgb(255,217,194)" stroke="black"/>
  <text fill="rgb(9,33,173)" font-size="25" x="1355.0" y="159.0">lfsleeve</text>
</svg>
