<?xml version="1.0" encoding="utf-8" ?>
<svg xmlns="http://www.w3.org/2000/svg" xmlns:ev="http://www.w3.org/2001/xml-events" xmlns:xlink="http://www.w3.org/1999/xlink" baseProfile="full" height="267px" version="1.1" width="1680px">
  <defs/>
  <path d="M 60 189 L 177 189 Q 197.4 133.79999999999998 165 117 L 60 60 L 60 189 z" fill="rgb(255,217,194)" stroke="black"/>
  <text fill="rgb(9,33,173)" font-size="25" x="90.5" y="141.75">rbsleeve</text>
  <path d="M 237 189 L 342 132 Q 374.40000000000003 115.2 354 60 L 237 60 L 237 189 z" fill="rgb(255,217,194)" stroke="black"/>
  <text fill="rgb(9,33,173)" font-size="25" x="267.5" y="113.25">rfsleeve</text>
  <path d="M 414 207 Q 504.0 244.1477814459188 594 207 L 573 102 L 555 60 L 453 60 L 435 102 L 414 207 z" fill="rgb(255,217,194)" stroke="black"/>
  <text fill="rgb(9,33,173)" font-size="25" x="479.0" y="126.0">skirt_back</text>
  <path d="M 654 207 Q 744.0 118.72743088453434 834 207 L 813 102 L 795 60 L 693 60 L 675 102 L 654 207 z" fill="rgb(255,217,194)" stroke="black"/>
  <text fill="rgb(9,33,173)" font-size="25" x="719.0" y="126.0">skirt_front</text>
  <path d="M 921 168 L 1023 168 L 1050 132 Q 1017.6000000000001 115.2 1038 60 L 996 60 Q 972.0 66.82748415137493 948 60 L 906 60 Q 926.4 115.2 894 132 L 921 168 z" fill="rgb(255,217,194)" stroke="black"/>
  <text fill="rgb(9,33,173)" font-size="25" x="947.0" y="108.0">top_back</text>
  <path d="M 1137 165 L 1239 165 L 1266 132 Q 1233.6000000000001 115.2 1254 60 L 1212 60 L 1188 132 L 1164 60 L 1122 60 Q 1142.3999999999999 115.2 1110 132 L 1137 165 z" fill="rgb(255,217,194)" stroke="black"/>
  <text fill="rgb(9,33,173)" font-size="25" x="1163.0" y="110.33333333333333">top_front</text>
  <path d="M 1326 189 L 1431 132 Q 1463.3999999999999 115.2 1443 60 L 1326 60 L 1326 189 z" fill="rgb(255,217,194)" stroke="black"/>
  <text fill="rgb(9,33,173)" font-size="25" x="1356.5" y="113.25">lbsleeve</text>
  <path d="M 1503 189 L 1620 189 Q 1640.3999999999999 133.79999999999998 1608 117 L 1503 60 L 1503 189 z" fill="rgb(255,217,194)" stroke="black"/>
  <text fill="rgb(9,33,173)" font-size="25" x="1533.5" y="141.75">lfsleeve</text>
</svg>
