<?xml version="1.0" encoding="utf-8" ?>
<svg xmlns="http://www.w3.org/2000/svg" xmlns:ev="http://www.w3.org/2001/xml-events" xmlns:xlink="http://www.w3.org/1999/xlink" baseProfile="full" height="246px" version="1.1" width="1462.0px">
  <defs/>
  <path d="M 60 186 L 162 186 L 174 60 L 90 60 Q 102.30000000000001 137.25 60 147 Q 63.9 148.95 60 186 z" fill="rgb(255,217,194)" stroke="black"/>
  <text fill="rgb(9,33,173)" font-size="25" x="84.2" y="130.8">Rback</text>
  <path d="M 246 186 L 348 186 Q 344.1 148.95 348 147 Q 310.05 135.75 318 60 L 234 60 L 246 186 z" fill="rgb(255,217,194)" stroke="black"/>
  <text fill="rgb(9,33,173)" font-size="25" x="273.8" y="130.8">Rfront</text>
  <path d="M 408 78 L 447 78 L 486 78 L 486 60 L 408 60 L 408 78 z" fill="rgb(255,217,194)" stroke="black"/>
  <text fill="rgb(9,33,173)" font-size="25" x="422.0" y="73.8">wb_back</text>
  <path d="M 552.0 78.0 L 591.0 78.0 L 630.0 78.0 L 630.0 60.0 L 552.0 60.0 L 552.0 78.0 z" fill="rgb(255,217,194)" stroke="black"/>
  <text fill="rgb(9,33,173)" font-size="25" x="566.0" y="73.8">wb_front</text>
  <path d="M 706.0 180.0 L 850.0 180.0 L 850.0 114.0 Q 825.6999999999999 101.39999999999999 841.0 60.0 L 793.0 60.0 Q 778.0 109.37132125179667 763.0 60.0 L 715.0 60.0 Q 730.3000000000001 101.39999999999999 706.0 114.0 L 706.0 180.0 z" fill="rgb(255,217,194)" stroke="black"/>
  <text fill="rgb(9,33,173)" font-size="25" x="753.0" y="106.5">top_back</text>
  <path d="M 910.0 180.0 L 1054.0 180.0 L 1054.0 114.0 Q 1029.7 101.39999999999999 1045.0 60.0 L 997.0 60.0 L 982.0 72.0 L 967.0 60.0 L 919.0 60.0 Q 934.3000000000001 101.39999999999999 910.0 114.0 L 910.0 180.0 z" fill="rgb(255,217,194)" stroke="black"/>
  <text fill="rgb(9,33,173)" font-size="25" x="957.0" y="103.0">top_front</text>
  <path d="M 1126.0 186.0 L 1228.0 186.0 Q 1224.1 148.95 1228.0 147.0 Q 1185.7 137.25 1198.0 60.0 L 1114.0 60.0 L 1126.0 186.0 z" fill="rgb(255,217,194)" stroke="black"/>
  <text fill="rgb(9,33,173)" font-size="25" x="1153.8" y="130.8">Lback</text>
  <path d="M 1288.0 186.0 L 1390.0 186.0 L 1402.0 60.0 L 1318.0 60.0 Q 1325.95 135.75 1288.0 147.0 Q 1291.9 148.95 1288.0 186.0 z" fill="rgb(255,217,194)" stroke="black"/>
  <text fill="rgb(9,33,173)" font-size="25" x="1312.2" y="130.8">Lfront</text>
</svg>
