<?xml version="1.0" encoding="utf-8" ?>
<svg xmlns="http://www.w3.org/2000/svg" xmlns:ev="http://www.w3.org/2001/xml-events" xmlns:xlink="http://www.w3.org/1999/xlink" baseProfile="full" height="417px" version="1.1" width="1632px">
  <defs/>
  <path d="M 60 216 L 168 216 Q 201.6 137.7 156 111 L 60 60 L 60 216 z" fill="rgb(255,217,194)" stroke="black"/>
  <text fill="rgb(9,33,173)" font-size="25" x="86.0" y="153.75">rbsleeve</text>
  <path d="M 228 216 L 324 165 Q 369.6 138.3 336 60 L 228 60 L 228 216 z" fill="rgb(255,217,194)" stroke="black"/>
  <text fill="rgb(9,33,173)" font-size="25" x="254.0" y="128.25">rfsleeve</text>
  <path d="M 396 357 L 660 357 L 594 165 Q 549.3 137.1 585 60 L 558 60 L 528 69 L 498 60 L 471 60 Q 506.7 137.1 462 165 L 396 357 z" fill="rgb(255,217,194)" stroke="black"/>
  <text fill="rgb(9,33,173)" font-size="25" x="503.0" y="153.33333333333334">back</text>
  <path d="M 720 354 L 984 354 L 918 165 Q 873.3 137.1 909 60 L 882 60 L 852 63 L 822 60 L 795 60 Q 830.7 137.1 786 165 L 720 354 z" fill="rgb(255,217,194)" stroke="black"/>
  <text fill="rgb(9,33,173)" font-size="25" x="827.0" y="152.0">front</text>
  <path d="M 1044 165 L 1059 165 Q 1135.5 165.0 1110 63 L 1080 72 L 1047 60 L 1044 165 z" fill="rgb(255,217,194)" stroke="black"/>
  <text fill="rgb(9,33,173)" font-size="25" x="1043.0" y="108.0">Rhood</text>
  <path d="M 1173 165 L 1206 153 L 1236 162 Q 1261.5 60.000000000000014 1185 60 L 1170 60 L 1173 165 z" fill="rgb(255,217,194)" stroke="black"/>
  <text fill="rgb(9,33,173)" font-size="25" x="1169.0" y="123.0">Lhood</text>
  <path d="M 1296 216 L 1392 165 Q 1437.6 138.3 1404 60 L 1296 60 L 1296 216 z" fill="rgb(255,217,194)" stroke="black"/>
  <text fill="rgb(9,33,173)" font-size="25" x="1322.0" y="128.25">lbsleeve</text>
  <path d="M 1464 216 L 1572 216 Q 1605.6 137.7 1560 111 L 1464 60 L 1464 216 z" fill="rgb(255,217,194)" stroke="black"/>
  <text fill="rgb(9,33,173)" font-size="25" x="1490.0" y="153.75">lfsleeve</text>
</svg>
