<?xml version="1.0" encoding="utf-8" ?>
<svg xmlns="http://www.w3.org/2000/svg" xmlns:ev="http://www.w3.org/2001/xml-events" xmlns:xlink="http://www.w3.org/1999/xlink" baseProfile="full" height="249px" version="1.1" width="1200px">
  <defs/>
  <path d="M 60 189 L 123 189 Q 170.25 81.75000000000001 171 60 L 90 60 Q 104.7 141.75 60 153 Q 63.6 154.8 60 189 z" fill="rgb(255,217,194)" stroke="black"/>
  <text fill="rgb(9,33,173)" font-size="25" x="75.8" y="133.2">Rback</text>
  <path d="M 279 189 L 342 189 Q 338.4 154.8 342 153 Q 301.95 140.25 312 60 L 231 60 Q 231.75 81.75 279 189 z" fill="rgb(255,217,194)" stroke="black"/>
  <text fill="rgb(9,33,173)" font-size="25" x="276.2" y="133.2">Rfront</text>
  <path d="M 402 168 L 486 168 L 570 168 L 555 138 Q 521.0999999999999 118.19999999999999 546 60 L 504 60 Q 486.0 87.3914858861663 468 60 L 426 60 Q 450.9 118.19999999999999 417 138 L 402 168 z" fill="rgb(255,217,194)" stroke="black"/>
  <text fill="rgb(9,33,173)" font-size="25" x="461.0" y="116.33333333333333">up_back</text>
  <path d="M 630 165 L 714 165 L 798 165 L 783 138 Q 749.0999999999999 118.19999999999999 774 60 L 732 60 L 714 123 L 696 60 L 654 60 Q 678.9000000000001 118.19999999999999 645 138 L 630 165 z" fill="rgb(255,217,194)" stroke="black"/>
  <text fill="rgb(9,33,173)" font-size="25" x="689.0" y="116.4">up_front</text>
  <path d="M 906 189 L 969 189 Q 965.4 154.8 969 153 Q 924.3 141.75 939 60 L 858 60 Q 858.75 81.75 906 189 z" fill="rgb(255,217,194)" stroke="black"/>
  <text fill="rgb(9,33,173)" font-size="25" x="903.2" y="133.2">Lback</text>
  <path d="M 1029 189 L 1092 189 Q 1139.25 81.75000000000001 1140 60 L 1059 60 Q 1069.05 140.25 1029 153 Q 1032.6 154.8 1029 189 z" fill="rgb(255,217,194)" stroke="black"/>
  <text fill="rgb(9,33,173)" font-size="25" x="1044.8" y="133.2">Lfront</text>
</svg>
