<?xml version="1.0" encoding="utf-8" ?>
<svg xmlns="http://www.w3.org/2000/svg" xmlns:ev="http://www.w3.org/2001/xml-events" xmlns:xlink="http://www.w3.org/1999/xlink" baseProfile="full" height="321.0px" version="1.1" width="1678.0px">
  <defs/>
  <path d="M 60 138 L 147 138 Q 167.4 82.8 135 66 L 60 60 L 60 138 z" fill="rgb(255,217,194)" stroke="black"/>
  <text fill="rgb(9,33,173)" font-size="25" x="75.5" y="103.5">rbsleeve</text>
  <path d="M 215.5 138.0 L 290.5 132.0 Q 322.90000000000003 115.2 302.5 60.0 L 215.5 60.0 L 215.5 138.0 z" fill="rgb(255,217,194)" stroke="black"/>
  <text fill="rgb(9,33,173)" font-size="25" x="231.0" y="100.5">rfsleeve</text>
  <path d="M 371.0 261.0 Q 482.0 246.5665957686511 593.0 261.0 L 554.0 102.0 L 551.0 60.0 L 413.0 60.0 L 410.0 102.0 L 371.0 261.0 z" fill="rgb(255,217,194)" stroke="black"/>
  <text fill="rgb(9,33,173)" font-size="25" x="457.0" y="144.0">skirt_back</text>
  <path d="M 653.0 261.0 Q 764.0 160.53093120075846 875.0 261.0 L 836.0 102.0 L 833.0 60.0 L 695.0 60.0 L 692.0 102.0 L 653.0 261.0 z" fill="rgb(255,217,194)" stroke="black"/>
  <text fill="rgb(9,33,173)" font-size="25" x="739.0" y="144.0">skirt_front</text>
  <path d="M 944.0 168.0 L 1082.0 168.0 L 1091.0 132.0 Q 1058.6000000000001 115.2 1079.0 60.0 L 1046.0 60.0 Q 1013.0 137.6051321496991 980.0 60.0 L 947.0 60.0 Q 967.4 115.2 935.0 132.0 L 944.0 168.0 z" fill="rgb(255,217,194)" stroke="black"/>
  <text fill="rgb(9,33,173)" font-size="25" x="988.0" y="108.0">top_back</text>
  <path d="M 1160.0 165.0 L 1298.0 165.0 L 1307.0 129.0 Q 1275.8000000000002 113.1 1295.0 60.0 L 1262.0 60.0 L 1229.0 96.0 L 1196.0 60.0 L 1163.0 60.0 Q 1182.1999999999998 113.1 1151.0 129.0 L 1160.0 165.0 z" fill="rgb(255,217,194)" stroke="black"/>
  <text fill="rgb(9,33,173)" font-size="25" x="1204.0" y="105.66666666666667">top_front</text>
  <path d="M 1367.0 138.0 L 1442.0 132.0 Q 1474.3999999999999 115.2 1454.0 60.0 L 1367.0 60.0 L 1367.0 138.0 z" fill="rgb(255,217,194)" stroke="black"/>
  <text fill="rgb(9,33,173)" font-size="25" x="1382.5" y="100.5">lbsleeve</text>
  <path d="M 1522.5 138.0 L 1609.5 138.0 Q 1629.8999999999999 82.8 1597.5 66.0 L 1522.5 60.0 L 1522.5 138.0 z" fill="rgb(255,217,194)" stroke="black"/>
  <text fill="rgb(9,33,173)" font-size="25" x="1538.0" y="103.5">lfsleeve</text>
</svg>
