<?xml version="1.0" encoding="utf-8" ?>
<svg xmlns="http://www.w3.org/2000/svg" xmlns:ev="http://www.w3.org/2001/xml-events" xmlns:xlink="http://www.w3.org/1999/xlink" baseProfile="full" height="462px" version="1.1" width="1416px">
  <defs/>
  <path d="M 60 138 L 174 138 Q 194.1 88.20000000000002 165 72 L 60 60 L 60 138 z" fill="rgb(255,217,194)" stroke="black"/>
  <text fill="rgb(9,33,173)" font-size="25" x="89.75" y="105.0">rbsleeve</text>
  <path d="M 234 138 L 339 126 Q 368.09999999999997 109.8 348 60 L 234 60 L 234 138 z" fill="rgb(255,217,194)" stroke="black"/>
  <text fill="rgb(9,33,173)" font-size="25" x="263.75" y="99.0">rfsleeve</text>
  <path d="M 408 402 L 678 402 L 603 126 Q 573.0 111.0 591 60 L 564 60 Q 543.0 169.88459214715783 522 60 L 495 60 Q 513.0 110.99999999999999 483 126 L 408 402 z" fill="rgb(255,217,194)" stroke="black"/>
  <text fill="rgb(9,33,173)" font-size="25" x="518.0" y="165.0">back</text>
  <path d="M 738 402 L 1008 402 L 933 123 Q 904.1999999999999 108.89999999999999 921 60 L 894 60 L 873 72 L 852 60 L 825 60 Q 841.8000000000001 108.89999999999999 813 123 L 738 402 z" fill="rgb(255,217,194)" stroke="black"/>
  <text fill="rgb(9,33,173)" font-size="25" x="848.0" y="154.33333333333334">front</text>
  <path d="M 1068 138 L 1173 126 Q 1202.1000000000001 109.8 1182 60 L 1068 60 L 1068 138 z" fill="rgb(255,217,194)" stroke="black"/>
  <text fill="rgb(9,33,173)" font-size="25" x="1097.75" y="99.0">lbsleeve</text>
  <path d="M 1242 138 L 1356 138 Q 1376.1000000000001 88.20000000000002 1347 72 L 1242 60 L 1242 138 z" fill="rgb(255,217,194)" stroke="black"/>
  <text fill="rgb(9,33,173)" font-size="25" x="1271.75" y="105.0">lfsleeve</text>
</svg>
