<?xml version="1.0" encoding="utf-8" ?>
<svg xmlns="http://www.w3.org/2000/svg" xmlns:ev="http://www.w3.org/2001/xml-events" xmlns:xlink="http://www.w3.org/1999/xlink" baseProfile="full" height="270.0px" version="1.1" width="1111.0px">
  <defs/>
  <path d="M 60 150 L 129 150 Q 138.9 108.30000000000001 114 99 L 60 60 L 60 150 z" fill="rgb(255,217,194)" stroke="black"/>
  <text fill="rgb(9,33,173)" font-size="25" x="65.75" y="117.75">rbsleeve</text>
  <path d="M 205.75 150.0 L 259.75 111.0 Q 284.65 101.7 274.75 60.0 L 205.75 60.0 L 205.75 150.0 z" fill="rgb(255,217,194)" stroke="black"/>
  <text fill="rgb(9,33,173)" font-size="25" x="211.5" y="98.25">rfsleeve</text>
  <path d="M 351.5 210.0 L 525.5 210.0 L 522.5 114.0 Q 497.29999999999995 102.6 510.5 60.0 L 465.5 60.0 Q 438.5 105.92790429016947 411.5 60.0 L 366.5 60.0 Q 379.70000000000005 102.6 354.5 114.0 L 351.5 210.0 z" fill="rgb(255,217,194)" stroke="black"/>
  <text fill="rgb(9,33,173)" font-size="25" x="413.5" y="114.0">back</text>
  <path d="M 585.5 210.0 L 759.5 210.0 L 756.5 114.0 Q 731.3 102.6 744.5 60.0 L 699.5 60.0 L 672.5 126.0 L 645.5 60.0 L 600.5 60.0 Q 613.7 102.6 588.5 114.0 L 585.5 210.0 z" fill="rgb(255,217,194)" stroke="black"/>
  <text fill="rgb(9,33,173)" font-size="25" x="647.5" y="115.66666666666667">front</text>
  <path d="M 819.5 150.0 L 873.5 111.0 Q 898.4 101.7 888.5 60.0 L 819.5 60.0 L 819.5 150.0 z" fill="rgb(255,217,194)" stroke="black"/>
  <text fill="rgb(9,33,173)" font-size="25" x="825.25" y="98.25">lbsleeve</text>
  <path d="M 965.25 150.0 L 1034.25 150.0 Q 1044.15 108.30000000000001 1019.25 99.0 L 965.25 60.0 L 965.25 150.0 z" fill="rgb(255,217,194)" stroke="black"/>
  <text fill="rgb(9,33,173)" font-size="25" x="971.0" y="117.75">lfsleeve</text>
</svg>
