<?xml version="1.0" encoding="utf-8" ?>
<svg xmlns="http://www.w3.org/2000/svg" xmlns:ev="http://www.w3.org/2001/xml-events" xmlns:xlink="http://www.w3.org/1999/xlink" baseProfile="full" height="228px" version="1.1" width="1371.0px">
  <defs/>
  <path d="M 60 168 L 318 168 L 318 60 L 60 60 L 60 168 z" fill="rgb(255,217,194)" stroke="black"/>
  <text fill="rgb(9,33,173)" font-size="25" x="164.0" y="117.0">skirt_back</text>
  <path d="M 378 75 L 468 75 L 468 60 L 378 60 L 378 75 z" fill="rgb(255,217,194)" stroke="black"/>
  <text fill="rgb(9,33,173)" font-size="25" x="398.0" y="70.5">wb_back</text>
  <path d="M 528 75 L 618 75 L 618 60 L 528 60 L 528 75 z" fill="rgb(255,217,194)" stroke="black"/>
  <text fill="rgb(9,33,173)" font-size="25" x="548.0" y="70.5">wb_front</text>
  <path d="M 688.0 168.0 L 946.0 168.0 L 946.0 60.0 L 688.0 60.0 L 688.0 168.0 z" fill="rgb(255,217,194)" stroke="black"/>
  <text fill="rgb(9,33,173)" font-size="25" x="792.0" y="117.0">skirt_front</text>
  <path d="M 1006.0 147.0 L 1126.0 147.0 L 1126.0 141.0 Q 1090.8999999999999 120.3 1117.0 60.0 L 1084.0 60.0 Q 1066.0 134.79735572956898 1048.0 60.0 L 1015.0 60.0 Q 1041.1000000000001 120.29999999999998 1006.0 141.0 L 1006.0 147.0 z" fill="rgb(255,217,194)" stroke="black"/>
  <text fill="rgb(9,33,173)" font-size="25" x="1041.0" y="105.0">top_back</text>
  <path d="M 1186.0 147.0 L 1306.0 147.0 L 1306.0 141.0 Q 1270.8999999999999 120.3 1297.0 60.0 L 1264.0 60.0 L 1246.0 111.0 L 1228.0 60.0 L 1195.0 60.0 Q 1221.1000000000001 120.29999999999998 1186.0 141.0 L 1186.0 147.0 z" fill="rgb(255,217,194)" stroke="black"/>
  <text fill="rgb(9,33,173)" font-size="25" x="1221.0" y="106.0">top_front</text>
</svg>
