<?xml version="1.0" encoding="utf-8" ?>
<svg xmlns="http://www.w3.org/2000/svg" xmlns:ev="http://www.w3.org/2001/xml-events" xmlns:xlink="http://www.w3.org/1999/xlink" baseProfile="full" height="435px" version="1.1" width="880.0px">
  <defs/>
  <path d="M 63 375 L 138 375 L 138 108 L 111 60 L 72 60 Q 99.6 127.8 60 150 L 63 375 z" fill="rgb(255,217,194)" stroke="black"/>
  <text fill="rgb(9,33,173)" font-size="25" x="72.0" y="191.0">front_right</text>
  <path d="M 242.0 180.0 L 263.0 180.0 Q 324.20000000000005 180.89999999999998 305.0 99.0 L 278.0 108.0 L 248.0 60.0 L 242.0 180.0 z" fill="rgb(255,217,194)" stroke="black"/>
  <text fill="rgb(9,33,173)" font-size="25" x="242.2" y="128.4">Rhood</text>
  <path d="M 368.0 375.0 L 518.0 375.0 L 521.0 150.0 Q 481.4 127.8 509.0 60.0 L 470.0 60.0 L 443.0 69.0 L 416.0 60.0 L 377.0 60.0 Q 404.6 127.8 365.0 150.0 L 368.0 375.0 z" fill="rgb(255,217,194)" stroke="black"/>
  <text fill="rgb(9,33,173)" font-size="25" x="418.0" y="154.0">back</text>
  <path d="M 587.0 180.0 L 617.0 132.0 L 644.0 141.0 Q 663.2 59.10000000000001 602.0 60.0 L 581.0 60.0 L 587.0 180.0 z" fill="rgb(255,217,194)" stroke="black"/>
  <text fill="rgb(9,33,173)" font-size="25" x="581.2" y="117.6">Lhood</text>
  <path d="M 704.0 375.0 L 779.0 375.0 L 782.0 150.0 Q 742.4 127.8 770.0 60.0 L 731.0 60.0 L 704.0 108.0 L 704.0 375.0 z" fill="rgb(255,217,194)" stroke="black"/>
  <text fill="rgb(9,33,173)" font-size="25" x="720.0" y="191.0">front_left</text>
</svg>
