<?xml version="1.0" encoding="utf-8" ?>
<svg xmlns="http://www.w3.org/2000/svg" xmlns:ev="http://www.w3.org/2001/xml-events" xmlns:xlink="http://www.w3.org/1999/xlink" baseProfile="full" height="426.0px" version="1.1" width="1597.0px">
  <defs/>
  <path d="M 60 123 L 111 123 Q 129.9 75.30000000000001 102 60 L 60 75 L 60 123 z" fill="rgb(255,217,194)" stroke="black"/>
  <text fill="rgb(9,33,173)" font-size="25" x="58.25" y="98.25">rbsleeve</text>
  <path d="M 198.25 108.0 L 240.25 123.0 Q 268.15 107.69999999999999 249.25 60.0 L 198.25 60.0 L 198.25 108.0 z" fill="rgb(255,217,194)" stroke="black"/>
  <text fill="rgb(9,33,173)" font-size="25" x="196.5" y="90.75">rfsleeve</text>
  <path d="M 336.5 366.0 L 396.5 366.0 Q 439.85 107.55000000000004 429.5 60.0 L 366.5 60.0 Q 381.2 141.75 336.5 153.0 Q 357.8 163.65 336.5 366.0 z" fill="rgb(255,217,194)" stroke="black"/>
  <text fill="rgb(9,33,173)" font-size="25" x="348.1" y="204.0">Rback</text>
  <path d="M 522.5 366.0 L 582.5 366.0 Q 561.2 163.65 582.5 153.0 Q 542.45 140.25 552.5 60.0 L 489.5 60.0 Q 479.15 107.55000000000001 522.5 366.0 z" fill="rgb(255,217,194)" stroke="black"/>
  <text fill="rgb(9,33,173)" font-size="25" x="520.9" y="204.0">Rfront</text>
  <path d="M 642.5 168.0 L 705.5 168.0 L 768.5 168.0 L 762.5 123.0 Q 734.5999999999999 107.69999999999999 753.5 60.0 L 735.5 60.0 Q 705.5 111.95043119409948 675.5 60.0 L 657.5 60.0 Q 676.4000000000001 107.69999999999999 648.5 123.0 L 642.5 168.0 z" fill="rgb(255,217,194)" stroke="black"/>
  <text fill="rgb(9,33,173)" font-size="25" x="680.5" y="113.0">up_back</text>
  <path d="M 828.5 165.0 L 891.5 165.0 L 954.5 165.0 L 948.5 123.0 Q 920.5999999999999 107.69999999999999 939.5 60.0 L 921.5 60.0 L 891.5 111.0 L 861.5 60.0 L 843.5 60.0 Q 862.4000000000001 107.69999999999999 834.5 123.0 L 828.5 165.0 z" fill="rgb(255,217,194)" stroke="black"/>
  <text fill="rgb(9,33,173)" font-size="25" x="866.5" y="112.2">up_front</text>
  <path d="M 1047.5 366.0 L 1107.5 366.0 Q 1086.2 163.65 1107.5 153.0 Q 1062.8 141.75 1077.5 60.0 L 1014.5 60.0 Q 1004.1500000000001 107.55000000000001 1047.5 366.0 z" fill="rgb(255,217,194)" stroke="black"/>
  <text fill="rgb(9,33,173)" font-size="25" x="1045.9" y="204.0">Lback</text>
  <path d="M 1167.5 366.0 L 1227.5 366.0 Q 1270.85 107.55000000000004 1260.5 60.0 L 1197.5 60.0 Q 1207.55 140.25 1167.5 153.0 Q 1188.8 163.65 1167.5 366.0 z" fill="rgb(255,217,194)" stroke="black"/>
  <text fill="rgb(9,33,173)" font-size="25" x="1179.1" y="204.0">Lfront</text>
  <path d="M 1320.5 108.0 L 1362.5 123.0 Q 1390.4 107.69999999999999 1371.5 60.0 L 1320.5 60.0 L 1320.5 108.0 z" fill="rgb(255,217,194)" stroke="black"/>
  <text fill="rgb(9,33,173)" font-size="25" x="1318.75" y="90.75">lbsleeve</text>
  <path d="M 1458.75 123.0 L 1509.75 123.0 Q 1528.65 75.30000000000001 1500.75 60.0 L 1458.75 75.0 L 1458.75 123.0 z" fill="rgb(255,217,194)" stroke="black"/>
  <text fill="rgb(9,33,173)" font-size="25" x="1457.0" y="98.25">lfsleeve</text>
</svg>
