<?xml version="1.0" encoding="utf-8" ?>
<svg xmlns="http://www.w3.org/2000/svg" xmlns:ev="http://www.w3.org/2001/xml-events" xmlns:xlink="http://www.w3.org/1999/xlink" baseProfile="full" height="273px" version="1.1" width="1920px">
  <defs/>
  <path d="M 60 183 L 180 183 Q 196.8 134.1 168 120 L 60 60 L 60 183 z" fill="rgb(255,217,194)" stroke="black"/>
  <text fill="rgb(9,33,173)" font-size="25" x="92.0" y="139.5">rbsleeve</text>
  <path d="M 240 183 L 348 123 Q 376.8 108.89999999999999 360 60 L 240 60 L 240 183 z" fill="rgb(255,217,194)" stroke="black"/>
  <text fill="rgb(9,33,173)" font-size="25" x="272.0" y="109.5">rfsleeve</text>
  <path d="M 420 213 Q 564.0 226.59600500766334 708 213 L 648 102 L 639 60 L 489 60 L 480 102 L 420 213 z" fill="rgb(255,217,194)" stroke="black"/>
  <text fill="rgb(9,33,173)" font-size="25" x="539.0" y="128.0">skirt_back</text>
  <path d="M 768 213 Q 912.0 193.9291400819852 1056 213 L 996 102 L 987 60 L 837 60 L 828 102 L 768 213 z" fill="rgb(255,217,194)" stroke="black"/>
  <text fill="rgb(9,33,173)" font-size="25" x="887.0" y="128.0">skirt_front</text>
  <path d="M 1122 168 L 1272 168 L 1278 123 Q 1249.2 108.89999999999999 1266 60 L 1224 60 Q 1197.0 153.2091919422614 1170 60 L 1128 60 Q 1144.8 108.89999999999999 1116 123 L 1122 168 z" fill="rgb(255,217,194)" stroke="black"/>
  <text fill="rgb(9,33,173)" font-size="25" x="1172.0" y="105.75">top_back</text>
  <path d="M 1344 165 L 1494 165 L 1500 123 Q 1471.2 108.89999999999999 1488 60 L 1446 60 L 1419 93 L 1392 60 L 1350 60 Q 1366.8 108.89999999999999 1338 123 L 1344 165 z" fill="rgb(255,217,194)" stroke="black"/>
  <text fill="rgb(9,33,173)" font-size="25" x="1394.0" y="104.0">top_front</text>
  <path d="M 1560 183 L 1668 123 Q 1696.8 108.89999999999999 1680 60 L 1560 60 L 1560 183 z" fill="rgb(255,217,194)" stroke="black"/>
  <text fill="rgb(9,33,173)" font-size="25" x="1592.0" y="109.5">lbsleeve</text>
  <path d="M 1740 183 L 1860 183 Q 1876.8 134.1 1848 120 L 1740 60 L 1740 183 z" fill="rgb(255,217,194)" stroke="black"/>
  <text fill="rgb(9,33,173)" font-size="25" x="1772.0" y="139.5">lfsleeve</text>
</svg>
