<?xml version="1.0" encoding="utf-8" ?>
<svg xmlns="http://www.w3.org/2000/svg" xmlns:ev="http://www.w3.org/2001/xml-events" xmlns:xlink="http://www.w3.org/1999/xlink" baseProfile="full" height="345px" version="1.1" width="1524.0px">
  <defs/>
  <path d="M 60 285 L 198 285 L 180 60 L 90 60 Q 102.30000000000001 137.25 60 147 Q 73.8 153.9 60 285 z" fill="rgb(255,217,194)" stroke="black"/>
  <text fill="rgb(9,33,173)" font-size="25" x="92.6" y="170.4">Rback</text>
  <path d="M 258 285 L 396 285 Q 382.2 153.9 396 147 Q 358.05 135.75 366 60 L 276 60 L 258 285 z" fill="rgb(255,217,194)" stroke="black"/>
  <text fill="rgb(9,33,173)" font-size="25" x="313.4" y="170.4">Rfront</text>
  <path d="M 456 66 L 495 66 L 534 66 L 534 60 L 456 60 L 456 66 z" fill="rgb(255,217,194)" stroke="black"/>
  <text fill="rgb(9,33,173)" font-size="25" x="470.0" y="66.6">wb_back</text>
  <path d="M 600.0 66.0 L 639.0 66.0 L 678.0 66.0 L 678.0 60.0 L 600.0 60.0 L 600.0 66.0 z" fill="rgb(255,217,194)" stroke="black"/>
  <text fill="rgb(9,33,173)" font-size="25" x="614.0" y="66.6">wb_front</text>
  <path d="M 754.0 174.0 L 880.0 174.0 L 880.0 129.0 Q 849.6999999999999 111.89999999999999 871.0 60.0 L 844.0 60.0 Q 817.0 77.09521293496692 790.0 60.0 L 763.0 60.0 Q 784.3000000000001 111.89999999999999 754.0 129.0 L 754.0 174.0 z" fill="rgb(255,217,194)" stroke="black"/>
  <text fill="rgb(9,33,173)" font-size="25" x="792.0" y="108.75">top_back</text>
  <path d="M 940.0 174.0 L 1066.0 174.0 L 1066.0 129.0 Q 1035.7 111.89999999999999 1057.0 60.0 L 1030.0 60.0 L 1003.0 132.0 L 976.0 60.0 L 949.0 60.0 Q 970.3000000000001 111.89999999999999 940.0 129.0 L 940.0 174.0 z" fill="rgb(255,217,194)" stroke="black"/>
  <text fill="rgb(9,33,173)" font-size="25" x="978.0" y="111.66666666666667">top_front</text>
  <path d="M 1128.0 285.0 L 1266.0 285.0 Q 1252.2 153.9 1266.0 147.0 Q 1223.7 137.25 1236.0 60.0 L 1146.0 60.0 L 1128.0 285.0 z" fill="rgb(255,217,194)" stroke="black"/>
  <text fill="rgb(9,33,173)" font-size="25" x="1183.4" y="170.4">Lback</text>
  <path d="M 1326.0 285.0 L 1464.0 285.0 L 1446.0 60.0 L 1356.0 60.0 Q 1363.95 135.75 1326.0 147.0 Q 1339.8 153.9 1326.0 285.0 z" fill="rgb(255,217,194)" stroke="black"/>
  <text fill="rgb(9,33,173)" font-size="25" x="1358.6" y="170.4">Lfront</text>
</svg>
