<?xml version="1.0" encoding="utf-8" ?>
<svg xmlns="http://www.w3.org/2000/svg" xmlns:ev="http://www.w3.org/2001/xml-events" xmlns:xlink="http://www.w3.org/1999/xlink" baseProfile="full" height="378.0px" version="1.1" width="1768.0px">
  <defs/>
  <path d="M 60 186 L 126 186 Q 152.4 120.3 114 99 L 60 60 L 60 186 z" fill="rgb(255,217,194)" stroke="black"/>
  <text fill="rgb(9,33,173)" font-size="25" x="65.0" y="135.75">rbsleeve</text>
  <path d="M 205.0 186.0 L 259.0 147.0 Q 297.40000000000003 125.7 271.0 60.0 L 205.0 60.0 L 205.0 186.0 z" fill="rgb(255,217,194)" stroke="black"/>
  <text fill="rgb(9,33,173)" font-size="25" x="210.0" y="116.25">rfsleeve</text>
  <path d="M 350.0 318.0 L 461.0 315.0 Q 473.75 98.25 461.0 60.0 L 380.0 60.0 Q 394.7 141.75 350.0 153.0 Q 366.5 161.25 350.0 318.0 z" fill="rgb(255,217,194)" stroke="black"/>
  <text fill="rgb(9,33,173)" font-size="25" x="375.4" y="184.2">Rback</text>
  <path d="M 521.0 315.0 L 632.0 318.0 Q 615.5 161.25 632.0 153.0 Q 591.95 140.25 602.0 60.0 L 521.0 60.0 Q 508.25 98.25 521.0 315.0 z" fill="rgb(255,217,194)" stroke="black"/>
  <text fill="rgb(9,33,173)" font-size="25" x="556.6" y="184.2">Rfront</text>
  <path d="M 692.0 168.0 L 773.0 168.0 L 854.0 168.0 L 854.0 147.0 Q 815.6 125.7 842.0 60.0 L 806.0 60.0 Q 773.0 64.44544212789798 740.0 60.0 L 704.0 60.0 Q 730.4 125.7 692.0 147.0 L 692.0 168.0 z" fill="rgb(255,217,194)" stroke="black"/>
  <text fill="rgb(9,33,173)" font-size="25" x="748.0" y="118.33333333333333">up_back</text>
  <path d="M 914.0 165.0 L 995.0 165.0 L 1076.0 165.0 L 1076.0 147.0 Q 1037.6000000000001 125.7 1064.0 60.0 L 1028.0 60.0 L 995.0 120.0 L 962.0 60.0 L 926.0 60.0 Q 952.4 125.7 914.0 147.0 L 914.0 165.0 z" fill="rgb(255,217,194)" stroke="black"/>
  <text fill="rgb(9,33,173)" font-size="25" x="970.0" y="117.9">up_front</text>
  <path d="M 1136.0 315.0 L 1247.0 318.0 Q 1230.5 161.25 1247.0 153.0 Q 1202.3 141.75 1217.0 60.0 L 1136.0 60.0 Q 1123.25 98.25 1136.0 315.0 z" fill="rgb(255,217,194)" stroke="black"/>
  <text fill="rgb(9,33,173)" font-size="25" x="1171.6" y="184.2">Lback</text>
  <path d="M 1307.0 318.0 L 1418.0 315.0 Q 1430.75 98.25 1418.0 60.0 L 1337.0 60.0 Q 1347.05 140.25 1307.0 153.0 Q 1323.5 161.25 1307.0 318.0 z" fill="rgb(255,217,194)" stroke="black"/>
  <text fill="rgb(9,33,173)" font-size="25" x="1332.4" y="184.2">Lfront</text>
  <path d="M 1478.0 186.0 L 1532.0 147.0 Q 1570.3999999999999 125.7 1544.0 60.0 L 1478.0 60.0 L 1478.0 186.0 z" fill="rgb(255,217,194)" stroke="black"/>
  <text fill="rgb(9,33,173)" font-size="25" x="1483.0" y="116.25">lbsleeve</text>
  <path d="M 1623.0 186.0 L 1689.0 186.0 Q 1715.3999999999999 120.3 1677.0 99.0 L 1623.0 60.0 L 1623.0 186.0 z" fill="rgb(255,217,194)" stroke="black"/>
  <text fill="rgb(9,33,173)" font-size="25" x="1628.0" y="135.75">lfsleeve</text>
</svg>
