<?xml version="1.0" encoding="utf-8" ?>
<svg xmlns="http://www.w3.org/2000/svg" xmlns:ev="http://www.w3.org/2001/xml-events" xmlns:xlink="http://www.w3.org/1999/xlink" baseProfile="full" height="402px" version="1.1" width="1812px">
  <defs/>
  <path d="M 60 204 L 168 204 Q 196.8 134.1 156 111 L 60 60 L 60 204 z" fill="rgb(255,217,194)" stroke="black"/>
  <text fill="rgb(9,33,173)" font-size="25" x="86.0" y="147.75">rbsleeve</text>
  <path d="M 228 204 L 324 153 Q 364.8 129.9 336 60 L 228 60 L 228 204 z" fill="rgb(255,217,194)" stroke="black"/>
  <text fill="rgb(9,33,173)" font-size="25" x="254.0" y="122.25">rfsleeve</text>
  <path d="M 396 342 L 510 342 Q 506.25 101.25000000000001 489 60 L 426 60 Q 440.7 141.75 396 153 Q 414.9 162.45 396 342 z" fill="rgb(255,217,194)" stroke="black"/>
  <text fill="rgb(9,33,173)" font-size="25" x="418.4" y="194.4">Rback</text>
  <path d="M 570 342 L 684 342 Q 665.1 162.45000000000002 684 153 Q 643.95 140.25 654 60 L 591 60 Q 573.75 101.25 570 342 z" fill="rgb(255,217,194)" stroke="black"/>
  <text fill="rgb(9,33,173)" font-size="25" x="611.6" y="194.4">Rfront</text>
  <path d="M 744 168 L 810 168 L 876 168 L 876 153 Q 836.0999999999999 128.7 867 60 L 825 60 Q 810.0 74.96121289799311 795 60 L 753 60 Q 783.9000000000001 128.7 744 153 L 744 168 z" fill="rgb(255,217,194)" stroke="black"/>
  <text fill="rgb(9,33,173)" font-size="25" x="785.0" y="119.66666666666667">up_back</text>
  <path d="M 936 165 L 1002 165 L 1068 165 L 1068 153 Q 1028.1 128.7 1059 60 L 1017 60 L 1002 84 L 987 60 L 945 60 Q 975.9000000000001 128.7 936 153 L 936 165 z" fill="rgb(255,217,194)" stroke="black"/>
  <text fill="rgb(9,33,173)" font-size="25" x="977.0" y="115.5">up_front</text>
  <path d="M 1128 342 L 1242 342 Q 1223.1 162.45000000000002 1242 153 Q 1197.3 141.75 1212 60 L 1149 60 Q 1131.75 101.25 1128 342 z" fill="rgb(255,217,194)" stroke="black"/>
  <text fill="rgb(9,33,173)" font-size="25" x="1169.6" y="194.4">Lback</text>
  <path d="M 1302 342 L 1416 342 Q 1412.25 101.25000000000001 1395 60 L 1332 60 Q 1342.05 140.25 1302 153 Q 1320.9 162.45 1302 342 z" fill="rgb(255,217,194)" stroke="black"/>
  <text fill="rgb(9,33,173)" font-size="25" x="1324.4" y="194.4">Lfront</text>
  <path d="M 1476 204 L 1572 153 Q 1612.8 129.9 1584 60 L 1476 60 L 1476 204 z" fill="rgb(255,217,194)" stroke="black"/>
  <text fill="rgb(9,33,173)" font-size="25" x="1502.0" y="122.25">lbsleeve</text>
  <path d="M 1644 204 L 1752 204 Q 1780.8 134.1 1740 111 L 1644 60 L 1644 204 z" fill="rgb(255,217,194)" stroke="black"/>
  <text fill="rgb(9,33,173)" font-size="25" x="1670.0" y="147.75">lfsleeve</text>
</svg>
