<?xml version="1.0" encoding="utf-8" ?>
<svg xmlns="http://www.w3.org/2000/svg" xmlns:ev="http://www.w3.org/2001/xml-events" xmlns:xlink="http://www.w3.org/1999/xlink" baseProfile="full" height="324px" version="1.1" width="1429.0px">
  <defs/>
  <path d="M 60 231 L 192 231 Q 204.3 185.1 177 174 L 60 60 L 60 231 z" fill="rgb(255,217,194)" stroke="black"/>
  <text fill="rgb(9,33,173)" font-size="25" x="97.25" y="177.0">rbsleeve</text>
  <path d="M 252 231 L 369 117 Q 396.3 105.9 384 60 L 252 60 L 252 231 z" fill="rgb(255,217,194)" stroke="black"/>
  <text fill="rgb(9,33,173)" font-size="25" x="289.25" y="120.0">rfsleeve</text>
  <path d="M 453 264 L 531 264 L 531 66 L 513 60 L 456 60 Q 470.40000000000003 104.7 444 117 L 453 264 z" fill="rgb(255,217,194)" stroke="black"/>
  <text fill="rgb(9,33,173)" font-size="25" x="463.0" y="141.5">front_right</text>
  <path d="M 642.0 264.0 L 798.0 264.0 L 807.0 117.0 Q 780.6 104.7 795.0 60.0 L 738.0 60.0 Q 720.0 108.06993167272246 702.0 60.0 L 645.0 60.0 Q 659.4 104.7 633.0 117.0 L 642.0 264.0 z" fill="rgb(255,217,194)" stroke="black"/>
  <text fill="rgb(9,33,173)" font-size="25" x="695.0" y="128.25">back</text>
  <path d="M 867.0 264.0 L 945.0 264.0 L 954.0 117.0 Q 927.6 104.7 942.0 60.0 L 885.0 60.0 L 867.0 66.0 L 867.0 264.0 z" fill="rgb(255,217,194)" stroke="black"/>
  <text fill="rgb(9,33,173)" font-size="25" x="885.0" y="141.5">front_left</text>
  <path d="M 1045.0 231.0 L 1162.0 117.0 Q 1189.3 105.9 1177.0 60.0 L 1045.0 60.0 L 1045.0 231.0 z" fill="rgb(255,217,194)" stroke="black"/>
  <text fill="rgb(9,33,173)" font-size="25" x="1082.25" y="120.0">lbsleeve</text>
  <path d="M 1237.0 231.0 L 1369.0 231.0 Q 1381.3 185.1 1354.0 174.0 L 1237.0 60.0 L 1237.0 231.0 z" fill="rgb(255,217,194)" stroke="black"/>
  <text fill="rgb(9,33,173)" font-size="25" x="1274.25" y="177.0">lfsleeve</text>
</svg>
