<?xml version="1.0" encoding="utf-8" ?>
<svg xmlns="http://www.w3.org/2000/svg" xmlns:ev="http://www.w3.org/2001/xml-events" xmlns:xlink="http://www.w3.org/1999/xlink" baseProfile="full" height="402.0px" version="1.1" width="1790.5px">
  <defs/>
  <path d="M 60 177 L 141 177 Q 179.4 90.30000000000001 129 60 L 60 99 L 60 177 z" fill="rgb(255,217,194)" stroke="black"/>
  <text fill="rgb(9,33,173)" font-size="25" x="72.5" y="131.25">rbsleeve</text>
  <path d="M 212.5 138.0 L 281.5 177.0 Q 331.90000000000003 146.70000000000002 293.5 60.0 L 212.5 60.0 L 212.5 138.0 z" fill="rgb(255,217,194)" stroke="black"/>
  <text fill="rgb(9,33,173)" font-size="25" x="225.0" y="111.75">rfsleeve</text>
  <path d="M 365.0 342.0 L 530.0 342.0 L 530.0 102.0 L 500.0 60.0 L 464.0 60.0 Q 502.40000000000003 146.7 452.0 177.0 L 365.0 342.0 z" fill="rgb(255,217,194)" stroke="black"/>
  <text fill="rgb(9,33,173)" font-size="25" x="448.5" y="183.5">front_right</text>
  <path d="M 618.5 177.0 L 666.5 180.0 Q 724.1 164.70000000000002 684.5 93.0 L 654.5 102.0 L 624.5 60.0 L 618.5 177.0 z" fill="rgb(255,217,194)" stroke="black"/>
  <text fill="rgb(9,33,173)" font-size="25" x="624.7" y="125.4">Rhood</text>
  <path d="M 744.5 342.0 L 1074.5 342.0 L 987.5 177.0 Q 937.1 146.70000000000002 975.5 60.0 L 939.5 60.0 L 909.5 69.0 L 879.5 60.0 L 843.5 60.0 Q 881.9 146.7 831.5 177.0 L 744.5 342.0 z" fill="rgb(255,217,194)" stroke="black"/>
  <text fill="rgb(9,33,173)" font-size="25" x="884.5" y="152.66666666666666">back</text>
  <path d="M 1140.5 180.0 L 1170.5 138.0 L 1200.5 147.0 Q 1240.1000000000001 75.3 1182.5 60.0 L 1134.5 63.0 L 1140.5 180.0 z" fill="rgb(255,217,194)" stroke="black"/>
  <text fill="rgb(9,33,173)" font-size="25" x="1140.7" y="120.6">Lhood</text>
  <path d="M 1260.5 342.0 L 1425.5 342.0 L 1338.5 177.0 Q 1288.1000000000001 146.70000000000002 1326.5 60.0 L 1290.5 60.0 L 1260.5 102.0 L 1260.5 342.0 z" fill="rgb(255,217,194)" stroke="black"/>
  <text fill="rgb(9,33,173)" font-size="25" x="1292.0" y="183.5">front_left</text>
  <path d="M 1485.5 138.0 L 1554.5 177.0 Q 1604.8999999999999 146.70000000000002 1566.5 60.0 L 1485.5 60.0 L 1485.5 138.0 z" fill="rgb(255,217,194)" stroke="black"/>
  <text fill="rgb(9,33,173)" font-size="25" x="1498.0" y="111.75">lbsleeve</text>
  <path d="M 1638.0 177.0 L 1719.0 177.0 Q 1757.3999999999999 90.30000000000001 1707.0 60.0 L 1638.0 99.0 L 1638.0 177.0 z" fill="rgb(255,217,194)" stroke="black"/>
  <text fill="rgb(9,33,173)" font-size="25" x="1650.5" y="131.25">lfsleeve</text>
</svg>
