<?xml version="1.0" encoding="utf-8" ?>
<svg xmlns="http://www.w3.org/2000/svg" xmlns:ev="http://www.w3.org/2001/xml-events" xmlns:xlink="http://www.w3.org/1999/xlink" baseProfile="full" height="351px" version="1.1" width="1498.0px">
  <defs/>
  <path d="M 60 291 L 165 291 L 189 60 L 90 60 Q 97.5 128.25 60 135 Q 75.6 142.8 60 291 z" fill="rgb(255,217,194)" stroke="black"/>
  <text fill="rgb(9,33,173)" font-size="25" x="87.8" y="170.4">Rback</text>
  <path d="M 273 291 L 378 291 Q 362.4 142.8 378 135 Q 344.25 126.75 348 60 L 249 60 L 273 291 z" fill="rgb(255,217,194)" stroke="black"/>
  <text fill="rgb(9,33,173)" font-size="25" x="300.2" y="170.4">Rfront</text>
  <path d="M 438 69 L 477 69 L 516 69 L 516 60 L 438 60 L 438 69 z" fill="rgb(255,217,194)" stroke="black"/>
  <text fill="rgb(9,33,173)" font-size="25" x="452.0" y="68.4">wb_back</text>
  <path d="M 582.0 69.0 L 621.0 69.0 L 660.0 69.0 L 660.0 60.0 L 582.0 60.0 L 582.0 69.0 z" fill="rgb(255,217,194)" stroke="black"/>
  <text fill="rgb(9,33,173)" font-size="25" x="596.0" y="68.4">wb_front</text>
  <path d="M 736.0 156.0 L 868.0 156.0 L 868.0 123.0 Q 839.1999999999999 108.89999999999999 856.0 60.0 L 832.0 60.0 Q 802.0 71.89043590741545 772.0 60.0 L 748.0 60.0 Q 764.8000000000001 108.89999999999999 736.0 123.0 L 736.0 156.0 z" fill="rgb(255,217,194)" stroke="black"/>
  <text fill="rgb(9,33,173)" font-size="25" x="777.0" y="102.75">top_back</text>
  <path d="M 928.0 156.0 L 1060.0 156.0 L 1060.0 123.0 Q 1031.2 108.89999999999999 1048.0 60.0 L 1024.0 60.0 L 994.0 69.0 L 964.0 60.0 L 940.0 60.0 Q 956.8000000000001 108.89999999999999 928.0 123.0 L 928.0 156.0 z" fill="rgb(255,217,194)" stroke="black"/>
  <text fill="rgb(9,33,173)" font-size="25" x="969.0" y="99.33333333333333">top_front</text>
  <path d="M 1144.0 291.0 L 1249.0 291.0 Q 1233.4 142.8 1249.0 135.0 Q 1211.5 128.25 1219.0 60.0 L 1120.0 60.0 L 1144.0 291.0 z" fill="rgb(255,217,194)" stroke="black"/>
  <text fill="rgb(9,33,173)" font-size="25" x="1171.2" y="170.4">Lback</text>
  <path d="M 1309.0 291.0 L 1414.0 291.0 L 1438.0 60.0 L 1339.0 60.0 Q 1342.75 126.75 1309.0 135.0 Q 1324.6 142.8 1309.0 291.0 z" fill="rgb(255,217,194)" stroke="black"/>
  <text fill="rgb(9,33,173)" font-size="25" x="1336.8" y="170.4">Lfront</text>
</svg>
