<?xml version="1.0" encoding="utf-8" ?>
<svg xmlns="http://www.w3.org/2000/svg" xmlns:ev="http://www.w3.org/2001/xml-events" xmlns:xlink="http://www.w3.org/1999/xlink" baseProfile="full" height="240.0px" version="1.1" width="1138.0px">
  <defs/>
  <path d="M 60 171 L 153 171 Q 189.0 88.50000000000001 141 60 L 60 78 L 60 171 z" fill="rgb(255,217,194)" stroke="black"/>
  <text fill="rgb(9,33,173)" font-size="25" x="78.5" y="123.0">rbsleeve</text>
  <path d="M 218.5 153.0 L 299.5 171.0 Q 347.5 142.5 311.5 60.0 L 218.5 60.0 L 218.5 153.0 z" fill="rgb(255,217,194)" stroke="black"/>
  <text fill="rgb(9,33,173)" font-size="25" x="237.0" y="114.0">rfsleeve</text>
  <path d="M 392.0 180.0 L 524.0 180.0 L 539.0 171.0 Q 491.0 142.5 527.0 60.0 L 482.0 60.0 Q 458.0 156.20075625590462 434.0 60.0 L 389.0 60.0 Q 425.0 142.5 377.0 171.0 L 392.0 180.0 z" fill="rgb(255,217,194)" stroke="black"/>
  <text fill="rgb(9,33,173)" font-size="25" x="433.0" y="120.75">back</text>
  <path d="M 614.0 180.0 L 746.0 180.0 L 761.0 171.0 Q 713.0 142.5 749.0 60.0 L 704.0 60.0 L 680.0 135.0 L 656.0 60.0 L 611.0 60.0 Q 647.0 142.5 599.0 171.0 L 614.0 180.0 z" fill="rgb(255,217,194)" stroke="black"/>
  <text fill="rgb(9,33,173)" font-size="25" x="655.0" y="122.66666666666667">front</text>
  <path d="M 821.0 153.0 L 902.0 171.0 Q 950.0 142.5 914.0 60.0 L 821.0 60.0 L 821.0 153.0 z" fill="rgb(255,217,194)" stroke="black"/>
  <text fill="rgb(9,33,173)" font-size="25" x="839.5" y="114.0">lbsleeve</text>
  <path d="M 979.5 171.0 L 1072.5 171.0 Q 1108.5 88.50000000000001 1060.5 60.0 L 979.5 78.0 L 979.5 171.0 z" fill="rgb(255,217,194)" stroke="black"/>
  <text fill="rgb(9,33,173)" font-size="25" x="998.0" y="123.0">lfsleeve</text>
</svg>
