<?xml version="1.0" encoding="utf-8" ?>
<svg xmlns="http://www.w3.org/2000/svg" xmlns:ev="http://www.w3.org/2001/xml-events" xmlns:xlink="http://www.w3.org/1999/xlink" baseProfile="full" height="348.0px" version="1.1" width="1606.0px">
  <defs/>
  <path d="M 60 129 L 75 129 Q 94.19999999999999 75.9 63 60 L 60 75 L 60 129 z" fill="rgb(255,217,194)" stroke="black"/>
  <text fill="rgb(9,33,173)" font-size="25" x="39.5" y="101.25">rbsleeve</text>
  <path d="M 179.5 114.0 L 182.5 129.0 Q 213.7 113.1 194.5 60.0 L 179.5 60.0 L 179.5 114.0 z" fill="rgb(255,217,194)" stroke="black"/>
  <text fill="rgb(9,33,173)" font-size="25" x="159.0" y="93.75">rfsleeve</text>
  <path d="M 299.0 288.0 L 383.0 288.0 Q 409.7 95.10000000000002 401.0 60.0 L 329.0 60.0 Q 343.7 141.75 299.0 153.0 Q 312.5 159.75 299.0 288.0 z" fill="rgb(255,217,194)" stroke="black"/>
  <text fill="rgb(9,33,173)" font-size="25" x="317.2" y="172.8">Rback</text>
  <path d="M 479.0 288.0 L 563.0 288.0 Q 549.5 159.75 563.0 153.0 Q 522.95 140.25 533.0 60.0 L 461.0 60.0 Q 452.3 95.1 479.0 288.0 z" fill="rgb(255,217,194)" stroke="black"/>
  <text fill="rgb(9,33,173)" font-size="25" x="494.79999999999995" y="172.8">Rfront</text>
  <path d="M 626.0 168.0 L 698.0 168.0 L 770.0 168.0 L 773.0 126.0 Q 743.0 111.0 761.0 60.0 L 737.0 60.0 Q 698.0 136.0235292148613 659.0 60.0 L 635.0 60.0 Q 653.0 110.99999999999999 623.0 126.0 L 626.0 168.0 z" fill="rgb(255,217,194)" stroke="black"/>
  <text fill="rgb(9,33,173)" font-size="25" x="673.0" y="113.66666666666667">up_back</text>
  <path d="M 836.0 165.0 L 908.0 165.0 L 980.0 165.0 L 983.0 126.0 Q 953.0 111.0 971.0 60.0 L 947.0 60.0 L 908.0 69.0 L 869.0 60.0 L 845.0 60.0 Q 863.0 110.99999999999999 833.0 126.0 L 836.0 165.0 z" fill="rgb(255,217,194)" stroke="black"/>
  <text fill="rgb(9,33,173)" font-size="25" x="883.0" y="108.6">up_front</text>
  <path d="M 1061.0 288.0 L 1145.0 288.0 Q 1131.5 159.75 1145.0 153.0 Q 1100.3 141.75 1115.0 60.0 L 1043.0 60.0 Q 1034.3 95.1 1061.0 288.0 z" fill="rgb(255,217,194)" stroke="black"/>
  <text fill="rgb(9,33,173)" font-size="25" x="1076.8" y="172.8">Lback</text>
  <path d="M 1205.0 288.0 L 1289.0 288.0 Q 1315.7 95.10000000000002 1307.0 60.0 L 1235.0 60.0 Q 1245.05 140.25 1205.0 153.0 Q 1218.5 159.75 1205.0 288.0 z" fill="rgb(255,217,194)" stroke="black"/>
  <text fill="rgb(9,33,173)" font-size="25" x="1223.2" y="172.8">Lfront</text>
  <path d="M 1367.0 114.0 L 1370.0 129.0 Q 1401.1999999999998 113.1 1382.0 60.0 L 1367.0 60.0 L 1367.0 114.0 z" fill="rgb(255,217,194)" stroke="black"/>
  <text fill="rgb(9,33,173)" font-size="25" x="1346.5" y="93.75">lbsleeve</text>
  <path d="M 1486.5 129.0 L 1501.5 129.0 Q 1520.6999999999998 75.9 1489.5 60.0 L 1486.5 75.0 L 1486.5 129.0 z" fill="rgb(255,217,194)" stroke="black"/>
  <text fill="rgb(9,33,173)" font-size="25" x="1466.0" y="101.25">lfsleeve</text>
</svg>
