<?xml version="1.0" encoding="utf-8" ?>
<svg xmlns="http://www.w3.org/2000/svg" xmlns:ev="http://www.w3.org/2001/xml-events" xmlns:xlink="http://www.w3.org/1999/xlink" baseProfile="full" height="375px" version="1.1" width="1152px">
  <defs/>
  <path d="M 60 315 L 123 315 Q 171.45 100.35 165 60 L 90 60 Q 104.7 141.75 60 153 Q 76.2 161.1 60 315 z" fill="rgb(255,217,194)" stroke="black"/>
  <text fill="rgb(9,33,173)" font-size="25" x="74.6" y="183.6">Rback</text>
  <path d="M 267 315 L 330 315 Q 313.8 161.1 330 153 Q 289.95 140.25 300 60 L 225 60 Q 218.55 100.35 267 315 z" fill="rgb(255,217,194)" stroke="black"/>
  <text fill="rgb(9,33,173)" font-size="25" x="265.4" y="183.6">Rfront</text>
  <path d="M 390 168 L 468 168 L 546 168 L 528 117 Q 502.49999999999994 103.5 519 60 L 486 60 Q 468.0 61.76490235951243 450 60 L 417 60 Q 433.5 103.5 408 117 L 390 168 z" fill="rgb(255,217,194)" stroke="black"/>
  <text fill="rgb(9,33,173)" font-size="25" x="443.0" y="111.66666666666667">up_back</text>
  <path d="M 606 165 L 684 165 L 762 165 L 744 114 Q 719.6999999999999 101.39999999999999 735 60 L 702 60 L 684 114 L 666 60 L 633 60 Q 648.3000000000001 101.39999999999999 624 114 L 606 165 z" fill="rgb(255,217,194)" stroke="black"/>
  <text fill="rgb(9,33,173)" font-size="25" x="659.0" y="110.7">up_front</text>
  <path d="M 864 315 L 927 315 Q 910.8 161.1 927 153 Q 882.3 141.75 897 60 L 822 60 Q 815.55 100.35 864 315 z" fill="rgb(255,217,194)" stroke="black"/>
  <text fill="rgb(9,33,173)" font-size="25" x="862.4" y="183.6">Lback</text>
  <path d="M 987 315 L 1050 315 Q 1098.45 100.35 1092 60 L 1017 60 Q 1027.05 140.25 987 153 Q 1003.2 161.1 987 315 z" fill="rgb(255,217,194)" stroke="black"/>
  <text fill="rgb(9,33,173)" font-size="25" x="1001.5999999999999" y="183.6">Lfront</text>
</svg>
