<?xml version="1.0" encoding="utf-8" ?>
<svg xmlns="http://www.w3.org/2000/svg" xmlns:ev="http://www.w3.org/2001/xml-events" xmlns:xlink="http://www.w3.org/1999/xlink" baseProfile="full" height="300px" version="1.1" width="1410.0px">
  <defs/>
  <path d="M 60 240 L 342 240 L 342 60 L 60 60 L 60 240 z" fill="rgb(255,217,194)" stroke="black"/>
  <text fill="rgb(9,33,173)" font-size="25" x="176.0" y="153.0">skirt_back</text>
  <path d="M 402 72 L 492 72 L 492 60 L 402 60 L 402 72 z" fill="rgb(255,217,194)" stroke="black"/>
  <text fill="rgb(9,33,173)" font-size="25" x="422.0" y="69.0">wb_back</text>
  <path d="M 552 72 L 642 72 L 642 60 L 552 60 L 552 72 z" fill="rgb(255,217,194)" stroke="black"/>
  <text fill="rgb(9,33,173)" font-size="25" x="572.0" y="69.0">wb_front</text>
  <path d="M 712.0 240.0 L 994.0 240.0 L 994.0 60.0 L 712.0 60.0 L 712.0 240.0 z" fill="rgb(255,217,194)" stroke="black"/>
  <text fill="rgb(9,33,173)" font-size="25" x="828.0" y="153.0">skirt_front</text>
  <path d="M 1054.0 189.0 L 1168.0 189.0 L 1168.0 147.0 Q 1130.5 124.5 1159.0 60.0 L 1138.0 60.0 Q 1111.0 108.29721831543067 1084.0 60.0 L 1063.0 60.0 Q 1091.5 124.5 1054.0 147.0 L 1054.0 189.0 z" fill="rgb(255,217,194)" stroke="black"/>
  <text fill="rgb(9,33,173)" font-size="25" x="1086.0" y="117.0">top_back</text>
  <path d="M 1228.0 189.0 L 1342.0 189.0 L 1342.0 147.0 Q 1304.5 124.5 1333.0 60.0 L 1312.0 60.0 L 1285.0 90.0 L 1258.0 60.0 L 1237.0 60.0 Q 1265.5 124.5 1228.0 147.0 L 1228.0 189.0 z" fill="rgb(255,217,194)" stroke="black"/>
  <text fill="rgb(9,33,173)" font-size="25" x="1260.0" y="114.33333333333333">top_front</text>
</svg>
