<?xml version="1.0" encoding="utf-8" ?>
<svg xmlns="http://www.w3.org/2000/svg" xmlns:ev="http://www.w3.org/2001/xml-events" xmlns:xlink="http://www.w3.org/1999/xlink" baseProfile="full" height="261px" version="1.1" width="761.0px">
  <defs/>
  <path d="M 60 201 L 180 201 L 180 66 L 150 60 L 129 60 Q 161.4 136.2 117 162 L 60 201 z" fill="rgb(255,217,194)" stroke="black"/>
  <text fill="rgb(9,33,173)" font-size="25" x="111.0" y="128.0">front_right</text>
  <path d="M 281.0 201.0 L 521.0 201.0 L 464.0 162.0 Q 419.59999999999997 136.20000000000002 452.0 60.0 L 431.0 60.0 Q 401.0 90.1739258186069 371.0 60.0 L 350.0 60.0 Q 382.40000000000003 136.2 338.0 162.0 L 281.0 201.0 z" fill="rgb(255,217,194)" stroke="black"/>
  <text fill="rgb(9,33,173)" font-size="25" x="376.0" y="123.75">back</text>
  <path d="M 581.0 201.0 L 701.0 201.0 L 644.0 162.0 Q 599.6 136.20000000000002 632.0 60.0 L 611.0 60.0 L 581.0 66.0 L 581.0 201.0 z" fill="rgb(255,217,194)" stroke="black"/>
  <text fill="rgb(9,33,173)" font-size="25" x="600.0" y="128.0">front_left</text>
</svg>
