<?xml version="1.0" encoding="utf-8" ?>
<svg xmlns="http://www.w3.org/2000/svg" xmlns:ev="http://www.w3.org/2001/xml-events" xmlns:xlink="http://www.w3.org/1999/xlink" baseProfile="full" height="450px" version="1.1" width="1692px">
  <defs/>
  <path d="M 60 153 L 198 153 Q 206.4 118.8 186 111 L 60 60 L 60 153 z" fill="rgb(255,217,194)" stroke="black"/>
  <text fill="rgb(9,33,173)" font-size="25" x="101.0" y="122.25">rbsleeve</text>
  <path d="M 258 153 L 384 102 Q 404.40000000000003 94.2 396 60 L 258 60 L 258 153 z" fill="rgb(255,217,194)" stroke="black"/>
  <text fill="rgb(9,33,173)" font-size="25" x="299.0" y="96.75">rfsleeve</text>
  <path d="M 456 390 L 678 390 L 651 105 Q 628.5 97.5 636 60 L 606 60 L 567 69 L 528 60 L 498 60 Q 505.5 97.5 483 105 L 456 390 z" fill="rgb(255,217,194)" stroke="black"/>
  <text fill="rgb(9,33,173)" font-size="25" x="542.0" y="147.33333333333334">back</text>
  <path d="M 738 390 L 960 390 L 933 105 Q 910.5 97.5 918 60 L 888 60 L 849 60 L 810 60 L 780 60 Q 787.5 97.5 765 105 L 738 390 z" fill="rgb(255,217,194)" stroke="black"/>
  <text fill="rgb(9,33,173)" font-size="25" x="824.0" y="146.33333333333334">front</text>
  <path d="M 1026 168 L 1083 165 Q 1150.5 142.5 1098 60 L 1062 69 L 1020 63 L 1026 168 z" fill="rgb(255,217,194)" stroke="black"/>
  <text fill="rgb(9,33,173)" font-size="25" x="1032.8" y="108.0">Rhood</text>
  <path d="M 1158 165 L 1200 159 L 1236 168 Q 1288.5 85.5 1221 63 L 1164 60 L 1158 165 z" fill="rgb(255,217,194)" stroke="black"/>
  <text fill="rgb(9,33,173)" font-size="25" x="1170.8" y="126.0">Lhood</text>
  <path d="M 1296 153 L 1422 102 Q 1442.3999999999999 94.2 1434 60 L 1296 60 L 1296 153 z" fill="rgb(255,217,194)" stroke="black"/>
  <text fill="rgb(9,33,173)" font-size="25" x="1337.0" y="96.75">lbsleeve</text>
  <path d="M 1494 153 L 1632 153 Q 1640.3999999999999 118.8 1620 111 L 1494 60 L 1494 153 z" fill="rgb(255,217,194)" stroke="black"/>
  <text fill="rgb(9,33,173)" font-size="25" x="1535.0" y="122.25">lfsleeve</text>
</svg>
