<?xml version="1.0" encoding="utf-8" ?>
<svg xmlns="http://www.w3.org/2000/svg" xmlns:ev="http://www.w3.org/2001/xml-events" xmlns:xlink="http://www.w3.org/1999/xlink" baseProfile="full" height="219px" version="1.1" width="616.0px">
  <defs/>
  <path d="M 63 159 L 132 159 L 132 141 L 114 60 L 72 60 Q 85.2 102.6 60 114 L 63 159 z" fill="rgb(255,217,194)" stroke="black"/>
  <text fill="rgb(9,33,173)" font-size="25" x="70.5" y="118.5">front_right</text>
  <path d="M 243.5 159.0 L 381.5 159.0 L 384.5 117.0 Q 358.09999999999997 104.7 372.5 60.0 L 330.5 60.0 Q 312.5 138.21596368625734 294.5 60.0 L 252.5 60.0 Q 266.9 104.7 240.5 117.0 L 243.5 159.0 z" fill="rgb(255,217,194)" stroke="black"/>
  <text fill="rgb(9,33,173)" font-size="25" x="287.5" y="102.0">back</text>
  <path d="M 444.5 159.0 L 513.5 159.0 L 516.5 114.0 Q 491.29999999999995 102.6 504.5 60.0 L 462.5 60.0 L 444.5 141.0 L 444.5 159.0 z" fill="rgb(255,217,194)" stroke="black"/>
  <text fill="rgb(9,33,173)" font-size="25" x="456.0" y="118.5">front_left</text>
</svg>
