<?xml version="1.0" encoding="utf-8" ?>
<svg xmlns="http://www.w3.org/2000/svg" xmlns:ev="http://www.w3.org/2001/xml-events" xmlns:xlink="http://www.w3.org/1999/xlink" baseProfile="full" height="459px" version="1.1" width="839.0px">
  <defs/>
  <path d="M 60 399 L 201 399 L 201 141 L 186 60 L 135 60 Q 165.0 132.0 123 156 L 60 399 z" fill="rgb(255,217,194)" stroke="black"/>
  <text fill="rgb(9,33,173)" font-size="25" x="126.0" y="205.5">front_right</text>
  <path d="M 296.0 399.0 L 578.0 399.0 L 515.0 159.0 Q 471.79999999999995 134.10000000000002 503.0 60.0 L 452.0 60.0 Q 437.0 85.97470050120705 422.0 60.0 L 371.0 60.0 Q 402.20000000000005 134.10000000000002 359.0 159.0 L 296.0 399.0 z" fill="rgb(255,217,194)" stroke="black"/>
  <text fill="rgb(9,33,173)" font-size="25" x="412.0" y="172.5">back</text>
  <path d="M 638.0 399.0 L 779.0 399.0 L 716.0 156.0 Q 674.0 132.0 704.0 60.0 L 653.0 60.0 L 638.0 141.0 L 638.0 399.0 z" fill="rgb(255,217,194)" stroke="black"/>
  <text fill="rgb(9,33,173)" font-size="25" x="663.0" y="205.5">front_left</text>
</svg>
