<?xml version="1.0" encoding="utf-8" ?>
<svg xmlns="http://www.w3.org/2000/svg" xmlns:ev="http://www.w3.org/2001/xml-events" xmlns:xlink="http://www.w3.org/1999/xlink" baseProfile="full" height="477.0px" version="1.1" width="1274.0px">
  <defs/>
  <path d="M 60 207 L 93 207 Q 106.19999999999999 164.39999999999998 81 153 L 60 60 L 60 207 z" fill="rgb(255,217,194)" stroke="black"/>
  <text fill="rgb(9,33,173)" font-size="25" x="48.5" y="159.75">rbsleeve</text>
  <path d="M 188.5 207.0 L 209.5 114.0 Q 234.7 102.6 221.5 60.0 L 188.5 60.0 L 188.5 207.0 z" fill="rgb(255,217,194)" stroke="black"/>
  <text fill="rgb(9,33,173)" font-size="25" x="177.0" y="113.25">rfsleeve</text>
  <path d="M 317.0 417.0 L 437.0 417.0 L 437.0 117.0 L 422.0 60.0 L 368.0 60.0 Q 381.20000000000005 102.6 356.0 114.0 L 317.0 417.0 z" fill="rgb(255,217,194)" stroke="black"/>
  <text fill="rgb(9,33,173)" font-size="25" x="364.5" y="200.5">front_right</text>
  <path d="M 534.5 417.0 L 774.5 417.0 L 735.5 114.0 Q 710.3 102.6 723.5 60.0 L 669.5 60.0 Q 654.5 92.07559777108172 639.5 60.0 L 585.5 60.0 Q 598.7 102.6 573.5 114.0 L 534.5 417.0 z" fill="rgb(255,217,194)" stroke="black"/>
  <text fill="rgb(9,33,173)" font-size="25" x="629.5" y="165.75">back</text>
  <path d="M 834.5 417.0 L 954.5 417.0 L 915.5 114.0 Q 890.3 102.6 903.5 60.0 L 849.5 60.0 L 834.5 117.0 L 834.5 417.0 z" fill="rgb(255,217,194)" stroke="black"/>
  <text fill="rgb(9,33,173)" font-size="25" x="857.0" y="200.5">front_left</text>
  <path d="M 1017.0 207.0 L 1038.0 114.0 Q 1063.1999999999998 102.6 1050.0 60.0 L 1017.0 60.0 L 1017.0 207.0 z" fill="rgb(255,217,194)" stroke="black"/>
  <text fill="rgb(9,33,173)" font-size="25" x="1005.5" y="113.25">lbsleeve</text>
  <path d="M 1145.5 207.0 L 1178.5 207.0 Q 1191.6999999999998 164.39999999999998 1166.5 153.0 L 1145.5 60.0 L 1145.5 207.0 z" fill="rgb(255,217,194)" stroke="black"/>
  <text fill="rgb(9,33,173)" font-size="25" x="1134.0" y="159.75">lfsleeve</text>
</svg>
