<?xml version="1.0" encoding="utf-8" ?>
<svg xmlns="http://www.w3.org/2000/svg" xmlns:ev="http://www.w3.org/2001/xml-events" xmlns:xlink="http://www.w3.org/1999/xlink" baseProfile="full" height="315.0px" version="1.1" width="1105.0px">
  <defs/>
  <path d="M 60 180 L 123 180 Q 135.9 142.8 114 132 L 60 60 L 60 180 z" fill="rgb(255,217,194)" stroke="black"/>
  <text fill="rgb(9,33,173)" font-size="25" x="64.25" y="141.0">rbsleeve</text>
  <path d="M 204.25 180.0 L 258.25 108.0 Q 280.15 97.19999999999999 267.25 60.0 L 204.25 60.0 L 204.25 180.0 z" fill="rgb(255,217,194)" stroke="black"/>
  <text fill="rgb(9,33,173)" font-size="25" x="208.5" y="105.0">rfsleeve</text>
  <path d="M 348.5 255.0 L 522.5 255.0 L 498.5 111.0 Q 475.40000000000003 99.3 489.5 60.0 L 462.5 60.0 Q 435.5 233.63398218881392 408.5 60.0 L 381.5 60.0 Q 395.59999999999997 99.29999999999998 372.5 111.0 L 348.5 255.0 z" fill="rgb(255,217,194)" stroke="black"/>
  <text fill="rgb(9,33,173)" font-size="25" x="410.5" y="124.5">back</text>
  <path d="M 582.5 255.0 L 756.5 255.0 L 732.5 111.0 Q 709.4 99.3 723.5 60.0 L 696.5 60.0 L 669.5 69.0 L 642.5 60.0 L 615.5 60.0 Q 629.6 99.29999999999998 606.5 111.0 L 582.5 255.0 z" fill="rgb(255,217,194)" stroke="black"/>
  <text fill="rgb(9,33,173)" font-size="25" x="644.5" y="118.66666666666667">front</text>
  <path d="M 816.5 180.0 L 870.5 108.0 Q 892.4000000000001 97.19999999999999 879.5 60.0 L 816.5 60.0 L 816.5 180.0 z" fill="rgb(255,217,194)" stroke="black"/>
  <text fill="rgb(9,33,173)" font-size="25" x="820.75" y="105.0">lbsleeve</text>
  <path d="M 960.75 180.0 L 1023.75 180.0 Q 1036.65 142.8 1014.75 132.0 L 960.75 60.0 L 960.75 180.0 z" fill="rgb(255,217,194)" stroke="black"/>
  <text fill="rgb(9,33,173)" font-size="25" x="965.0" y="141.0">lfsleeve</text>
</svg>
