<?xml version="1.0" encoding="utf-8" ?>
<svg xmlns="http://www.w3.org/2000/svg" xmlns:ev="http://www.w3.org/2001/xml-events" xmlns:xlink="http://www.w3.org/1999/xlink" baseProfile="full" height="288px" version="1.1" width="1296px">
  <defs/>
  <path d="M 60 228 L 180 228 Q 201.29999999999998 176.1 171 159 L 60 60 L 60 228 z" fill="rgb(255,217,194)" stroke="black"/>
  <text fill="rgb(9,33,173)" font-size="25" x="92.75" y="171.75">rbsleeve</text>
  <path d="M 240 228 L 351 129 Q 381.3 111.89999999999999 360 60 L 240 60 L 240 228 z" fill="rgb(255,217,194)" stroke="black"/>
  <text fill="rgb(9,33,173)" font-size="25" x="272.75" y="122.25">rfsleeve</text>
  <path d="M 420 168 L 618 168 L 576 129 Q 545.6999999999999 111.89999999999999 567 60 L 540 60 Q 519.0 110.7700605795785 498 60 L 471 60 Q 492.3 111.89999999999999 462 129 L 420 168 z" fill="rgb(255,217,194)" stroke="black"/>
  <text fill="rgb(9,33,173)" font-size="25" x="494.0" y="107.25">back</text>
  <path d="M 678 168 L 876 168 L 834 129 Q 803.6999999999999 111.89999999999999 825 60 L 798 60 L 777 147 L 756 60 L 729 60 Q 750.3000000000001 111.89999999999999 720 129 L 678 168 z" fill="rgb(255,217,194)" stroke="black"/>
  <text fill="rgb(9,33,173)" font-size="25" x="752.0" y="112.0">front</text>
  <path d="M 936 228 L 1047 129 Q 1077.3 111.89999999999999 1056 60 L 936 60 L 936 228 z" fill="rgb(255,217,194)" stroke="black"/>
  <text fill="rgb(9,33,173)" font-size="25" x="968.75" y="122.25">lbsleeve</text>
  <path d="M 1116 228 L 1236 228 Q 1257.3 176.1 1227 159 L 1116 60 L 1116 228 z" fill="rgb(255,217,194)" stroke="black"/>
  <text fill="rgb(9,33,173)" font-size="25" x="1148.75" y="171.75">lfsleeve</text>
</svg>
