<?xml version="1.0" encoding="utf-8" ?>
<svg xmlns="http://www.w3.org/2000/svg" xmlns:ev="http://www.w3.org/2001/xml-events" xmlns:xlink="http://www.w3.org/1999/xlink" baseProfile="full" height="264px" version="1.1" width="1176px">
  <defs/>
  <path d="M 60 201 L 147 204 Q 172.04999999999998 82.65 168 60 L 90 60 Q 104.7 141.75 60 153 Q 64.8 155.4 60 201 z" fill="rgb(255,217,194)" stroke="black"/>
  <text fill="rgb(9,33,173)" font-size="25" x="80.0" y="138.6">Rback</text>
  <path d="M 249 204 L 336 201 Q 331.2 155.4 336 153 Q 295.95 140.25 306 60 L 228 60 Q 223.95000000000002 82.64999999999999 249 204 z" fill="rgb(255,217,194)" stroke="black"/>
  <text fill="rgb(9,33,173)" font-size="25" x="266.0" y="138.6">Rfront</text>
  <path d="M 396 168 L 477 168 L 558 168 L 537 141 Q 501.9 120.3 528 60 L 501 60 Q 477.0 106.46706566293999 453 60 L 426 60 Q 452.09999999999997 120.29999999999998 417 141 L 396 168 z" fill="rgb(255,217,194)" stroke="black"/>
  <text fill="rgb(9,33,173)" font-size="25" x="452.0" y="117.0">up_back</text>
  <path d="M 618 165 L 699 165 L 780 165 L 759 141 Q 723.9 120.3 750 60 L 723 60 L 699 87 L 675 60 L 648 60 Q 674.1 120.29999999999998 639 141 L 618 165 z" fill="rgb(255,217,194)" stroke="black"/>
  <text fill="rgb(9,33,173)" font-size="25" x="674.0" y="113.4">up_front</text>
  <path d="M 861 204 L 948 201 Q 943.2 155.4 948 153 Q 903.3 141.75 918 60 L 840 60 Q 835.9499999999999 82.64999999999999 861 204 z" fill="rgb(255,217,194)" stroke="black"/>
  <text fill="rgb(9,33,173)" font-size="25" x="878.0" y="138.6">Lback</text>
  <path d="M 1008 201 L 1095 204 Q 1120.05 82.65 1116 60 L 1038 60 Q 1048.05 140.25 1008 153 Q 1012.8 155.4 1008 201 z" fill="rgb(255,217,194)" stroke="black"/>
  <text fill="rgb(9,33,173)" font-size="25" x="1028.0" y="138.6">Lfront</text>
</svg>
