<?xml version="1.0" encoding="utf-8" ?>
<svg xmlns="http://www.w3.org/2000/svg" xmlns:ev="http://www.w3.org/2001/xml-events" xmlns:xlink="http://www.w3.org/1999/xlink" baseProfile="full" height="252px" version="1.1" width="1741.0px">
  <defs/>
  <path d="M 60 192 L 138 192 Q 162.3 125.1 123 105 L 60 60 L 60 192 z" fill="rgb(255,217,194)" stroke="black"/>
  <text fill="rgb(9,33,173)" font-size="25" x="70.25" y="140.25">rbsleeve</text>
  <path d="M 210.25 192.0 L 273.25 147.0 Q 312.55 126.9 288.25 60.0 L 210.25 60.0 L 210.25 192.0 z" fill="rgb(255,217,194)" stroke="black"/>
  <text fill="rgb(9,33,173)" font-size="25" x="220.5" y="117.75">rfsleeve</text>
  <path d="M 360.5 168.0 Q 477.5 154.4756631595522 594.5 168.0 L 564.5 102.0 L 543.5 60.0 L 411.5 60.0 L 390.5 102.0 L 360.5 168.0 z" fill="rgb(255,217,194)" stroke="black"/>
  <text fill="rgb(9,33,173)" font-size="25" x="452.5" y="113.0">skirt_back</text>
  <path d="M 654.5 168.0 Q 771.5 160.53942192826244 888.5 168.0 L 858.5 102.0 L 837.5 60.0 L 705.5 60.0 L 684.5 102.0 L 654.5 168.0 z" fill="rgb(255,217,194)" stroke="black"/>
  <text fill="rgb(9,33,173)" font-size="25" x="746.5" y="113.0">skirt_front</text>
  <path d="M 975.5 168.0 L 1107.5 168.0 L 1134.5 147.0 Q 1095.2 126.9 1119.5 60.0 L 1065.5 60.0 Q 1041.5 139.11040198352168 1017.5 60.0 L 963.5 60.0 Q 987.8 126.9 948.5 147.0 L 975.5 168.0 z" fill="rgb(255,217,194)" stroke="black"/>
  <text fill="rgb(9,33,173)" font-size="25" x="1016.5" y="111.75">top_back</text>
  <path d="M 1221.5 165.0 L 1353.5 165.0 L 1380.5 147.0 Q 1341.2 126.9 1365.5 60.0 L 1311.5 60.0 L 1287.5 90.0 L 1263.5 60.0 L 1209.5 60.0 Q 1233.8 126.9 1194.5 147.0 L 1221.5 165.0 z" fill="rgb(255,217,194)" stroke="black"/>
  <text fill="rgb(9,33,173)" font-size="25" x="1262.5" y="109.0">top_front</text>
  <path d="M 1440.5 192.0 L 1503.5 147.0 Q 1542.8 126.9 1518.5 60.0 L 1440.5 60.0 L 1440.5 192.0 z" fill="rgb(255,217,194)" stroke="black"/>
  <text fill="rgb(9,33,173)" font-size="25" x="1450.75" y="117.75">lbsleeve</text>
  <path d="M 1590.75 192.0 L 1668.75 192.0 Q 1693.05 125.1 1653.75 105.0 L 1590.75 60.0 L 1590.75 192.0 z" fill="rgb(255,217,194)" stroke="black"/>
  <text fill="rgb(9,33,173)" font-size="25" x="1601.0" y="140.25">lfsleeve</text>
</svg>
