<?xml version="1.0" encoding="utf-8" ?>
<svg xmlns="http://www.w3.org/2000/svg" xmlns:ev="http://www.w3.org/2001/xml-events" xmlns:xlink="http://www.w3.org/1999/xlink" baseProfile="full" height="303.0px" version="1.1" width="1615.0px">
  <defs/>
  <path d="M 60 219 L 159 219 Q 185.7 147.9 144 126 L 60 60 L 60 219 z" fill="rgb(255,217,194)" stroke="black"/>
  <text fill="rgb(9,33,173)" font-size="25" x="80.75" y="159.0">rbsleeve</text>
  <path d="M 220.75 219.0 L 304.75 153.0 Q 346.45 131.1 319.75 60.0 L 220.75 60.0 L 220.75 219.0 z" fill="rgb(255,217,194)" stroke="black"/>
  <text fill="rgb(9,33,173)" font-size="25" x="241.5" y="126.0">rfsleeve</text>
  <path d="M 381.5 243.0 L 633.5 243.0 L 597.5 150.0 Q 557.0 129.0 582.5 60.0 L 549.5 60.0 L 507.5 69.0 L 465.5 60.0 L 432.5 60.0 Q 458.0 129.0 417.5 150.0 L 381.5 243.0 z" fill="rgb(255,217,194)" stroke="black"/>
  <text fill="rgb(9,33,173)" font-size="25" x="482.5" y="124.66666666666667">back</text>
  <path d="M 693.5 243.0 L 945.5 243.0 L 909.5 150.0 Q 869.0 129.0 894.5 60.0 L 861.5 60.0 L 819.5 60.0 L 777.5 60.0 L 744.5 60.0 Q 770.0 129.0 729.5 150.0 L 693.5 243.0 z" fill="rgb(255,217,194)" stroke="black"/>
  <text fill="rgb(9,33,173)" font-size="25" x="794.5" y="123.66666666666667">front</text>
  <path d="M 1014.5 177.0 L 1026.5 177.0 Q 1115.6000000000001 179.7 1089.5 60.0 L 1050.5 69.0 L 1005.5 60.0 L 1014.5 177.0 z" fill="rgb(255,217,194)" stroke="black"/>
  <text fill="rgb(9,33,173)" font-size="25" x="1012.3" y="111.6">Rhood</text>
  <path d="M 1149.5 177.0 L 1194.5 168.0 L 1233.5 177.0 Q 1259.6000000000001 57.30000000000001 1170.5 60.0 L 1158.5 60.0 L 1149.5 177.0 z" fill="rgb(255,217,194)" stroke="black"/>
  <text fill="rgb(9,33,173)" font-size="25" x="1156.3" y="131.4">Lhood</text>
  <path d="M 1293.5 219.0 L 1377.5 153.0 Q 1419.2 131.1 1392.5 60.0 L 1293.5 60.0 L 1293.5 219.0 z" fill="rgb(255,217,194)" stroke="black"/>
  <text fill="rgb(9,33,173)" font-size="25" x="1314.25" y="126.0">lbsleeve</text>
  <path d="M 1454.25 219.0 L 1553.25 219.0 Q 1579.95 147.9 1538.25 126.0 L 1454.25 60.0 L 1454.25 219.0 z" fill="rgb(255,217,194)" stroke="black"/>
  <text fill="rgb(9,33,173)" font-size="25" x="1475.0" y="159.0">lfsleeve</text>
</svg>
