<?xml version="1.0" encoding="utf-8" ?>
<svg xmlns="http://www.w3.org/2000/svg" xmlns:ev="http://www.w3.org/2001/xml-events" xmlns:xlink="http://www.w3.org/1999/xlink" baseProfile="full" height="234.0px" version="1.1" width="1558.0px">
  <defs/>
  <path d="M 60 162 L 372 162 L 372 60 L 60 60 L 60 162 z" fill="rgb(255,217,194)" stroke="black"/>
  <text fill="rgb(9,33,173)" font-size="25" x="191.0" y="114.0">skirt_back</text>
  <path d="M 432 72 L 522 72 L 522 60 L 432 60 L 432 72 z" fill="rgb(255,217,194)" stroke="black"/>
  <text fill="rgb(9,33,173)" font-size="25" x="452.0" y="69.0">wb_back</text>
  <path d="M 582 72 L 672 72 L 672 60 L 582 60 L 582 72 z" fill="rgb(255,217,194)" stroke="black"/>
  <text fill="rgb(9,33,173)" font-size="25" x="602.0" y="69.0">wb_front</text>
  <path d="M 742.0 162.0 L 1054.0 162.0 L 1054.0 60.0 L 742.0 60.0 L 742.0 162.0 z" fill="rgb(255,217,194)" stroke="black"/>
  <text fill="rgb(9,33,173)" font-size="25" x="873.0" y="114.0">skirt_front</text>
  <path d="M 1114.0 174.0 L 1276.0 174.0 L 1276.0 117.0 Q 1249.6000000000001 104.7 1264.0 60.0 L 1210.0 60.0 Q 1195.0 84.12899658380154 1180.0 60.0 L 1126.0 60.0 Q 1140.3999999999999 104.7 1114.0 117.0 L 1114.0 174.0 z" fill="rgb(255,217,194)" stroke="black"/>
  <text fill="rgb(9,33,173)" font-size="25" x="1170.0" y="105.75">top_back</text>
  <path d="M 1336.0 174.0 L 1498.0 174.0 L 1498.0 117.0 Q 1471.6000000000001 104.7 1486.0 60.0 L 1432.0 60.0 L 1417.0 141.0 L 1402.0 60.0 L 1348.0 60.0 Q 1362.3999999999999 104.7 1336.0 117.0 L 1336.0 174.0 z" fill="rgb(255,217,194)" stroke="black"/>
  <text fill="rgb(9,33,173)" font-size="25" x="1392.0" y="110.0">top_front</text>
</svg>
