<?xml version="1.0" encoding="utf-8" ?>
<svg xmlns="http://www.w3.org/2000/svg" xmlns:ev="http://www.w3.org/2001/xml-events" xmlns:xlink="http://www.w3.org/1999/xlink" baseProfile="full" height="282px" version="1.1" width="1104px">
  <defs/>
  <path d="M 60 222 L 159 222 Q 162.0 84.00000000000001 153 60 L 90 60 Q 104.7 141.75 60 153 Q 66.9 156.45 60 222 z" fill="rgb(255,217,194)" stroke="black"/>
  <text fill="rgb(9,33,173)" font-size="25" x="79.4" y="146.4">Rback</text>
  <path d="M 219 222 L 318 222 Q 311.1 156.45 318 153 Q 277.95 140.25 288 60 L 225 60 Q 216.0 84.0 219 222 z" fill="rgb(255,217,194)" stroke="black"/>
  <text fill="rgb(9,33,173)" font-size="25" x="248.60000000000002" y="146.4">Rfront</text>
  <path d="M 387 168 L 450 168 L 513 168 L 522 141 Q 486.0 121.5 510 60 L 483 60 Q 450.0 145.75346465977606 417 60 L 390 60 Q 414.0 121.49999999999999 378 141 L 387 168 z" fill="rgb(255,217,194)" stroke="black"/>
  <text fill="rgb(9,33,173)" font-size="25" x="425.0" y="117.0">up_back</text>
  <path d="M 591 165 L 654 165 L 717 165 L 726 141 Q 690.0 121.5 714 60 L 687 60 L 654 129 L 621 60 L 594 60 Q 618.0 121.49999999999999 582 141 L 591 165 z" fill="rgb(255,217,194)" stroke="black"/>
  <text fill="rgb(9,33,173)" font-size="25" x="629.0" y="117.6">up_front</text>
  <path d="M 786 222 L 885 222 Q 878.1 156.45 885 153 Q 840.3 141.75 855 60 L 792 60 Q 783.0 84.0 786 222 z" fill="rgb(255,217,194)" stroke="black"/>
  <text fill="rgb(9,33,173)" font-size="25" x="815.6" y="146.4">Lback</text>
  <path d="M 945 222 L 1044 222 Q 1047.0 84.00000000000001 1038 60 L 975 60 Q 985.05 140.25 945 153 Q 951.9 156.45 945 222 z" fill="rgb(255,217,194)" stroke="black"/>
  <text fill="rgb(9,33,173)" font-size="25" x="964.4" y="146.4">Lfront</text>
</svg>
