<?xml version="1.0" encoding="utf-8" ?>
<svg xmlns="http://www.w3.org/2000/svg" xmlns:ev="http://www.w3.org/2001/xml-events" xmlns:xlink="http://www.w3.org/1999/xlink" baseProfile="full" height="291px" version="1.1" width="1467.0px">
  <defs/>
  <path d="M 60 231 L 141 231 L 186 60 L 90 60 Q 101.1 135.0 60 144 Q 68.7 148.35 60 231 z" fill="rgb(255,217,194)" stroke="black"/>
  <text fill="rgb(9,33,173)" font-size="25" x="82.4" y="148.2">Rback</text>
  <path d="M 291 231 L 372 231 Q 363.3 148.35000000000002 372 144 Q 335.1 133.5 342 60 L 246 60 L 291 231 z" fill="rgb(255,217,194)" stroke="black"/>
  <text fill="rgb(9,33,173)" font-size="25" x="299.6" y="148.2">Rfront</text>
  <path d="M 432 66 L 471 66 L 510 66 L 510 60 L 432 60 L 432 66 z" fill="rgb(255,217,194)" stroke="black"/>
  <text fill="rgb(9,33,173)" font-size="25" x="446.0" y="66.6">wb_back</text>
  <path d="M 576.0 66.0 L 615.0 66.0 L 654.0 66.0 L 654.0 60.0 L 576.0 60.0 L 576.0 66.0 z" fill="rgb(255,217,194)" stroke="black"/>
  <text fill="rgb(9,33,173)" font-size="25" x="590.0" y="66.6">wb_front</text>
  <path d="M 730.0 147.0 L 850.0 147.0 L 850.0 129.0 Q 819.6999999999999 111.89999999999999 841.0 60.0 L 814.0 60.0 Q 790.0 79.80960162746055 766.0 60.0 L 739.0 60.0 Q 760.3000000000001 111.89999999999999 730.0 129.0 L 730.0 147.0 z" fill="rgb(255,217,194)" stroke="black"/>
  <text fill="rgb(9,33,173)" font-size="25" x="765.0" y="102.0">top_back</text>
  <path d="M 910.0 147.0 L 1030.0 147.0 L 1030.0 129.0 Q 999.6999999999999 111.89999999999999 1021.0 60.0 L 994.0 60.0 L 970.0 72.0 L 946.0 60.0 L 919.0 60.0 Q 940.3000000000001 111.89999999999999 910.0 129.0 L 910.0 147.0 z" fill="rgb(255,217,194)" stroke="black"/>
  <text fill="rgb(9,33,173)" font-size="25" x="945.0" y="99.0">top_front</text>
  <path d="M 1140.0 231.0 L 1221.0 231.0 Q 1212.3 148.35000000000002 1221.0 144.0 Q 1179.9 135.0 1191.0 60.0 L 1095.0 60.0 L 1140.0 231.0 z" fill="rgb(255,217,194)" stroke="black"/>
  <text fill="rgb(9,33,173)" font-size="25" x="1148.6" y="148.2">Lback</text>
  <path d="M 1281.0 231.0 L 1362.0 231.0 L 1407.0 60.0 L 1311.0 60.0 Q 1317.9 133.5 1281.0 144.0 Q 1289.7 148.35 1281.0 231.0 z" fill="rgb(255,217,194)" stroke="black"/>
  <text fill="rgb(9,33,173)" font-size="25" x="1303.4" y="148.2">Lfront</text>
</svg>
