<?xml version="1.0" encoding="utf-8" ?>
<svg xmlns="http://www.w3.org/2000/svg" xmlns:ev="http://www.w3.org/2001/xml-events" xmlns:xlink="http://www.w3.org/1999/xlink" baseProfile="full" height="387.0px" version="1.1" width="1570.0px">
  <defs/>
  <path d="M 60 201 L 162 201 Q 178.8 152.1 150 138 L 60 60 L 60 201 z" fill="rgb(255,217,194)" stroke="black"/>
  <text fill="rgb(9,33,173)" font-size="25" x="83.0" y="153.0">rbsleeve</text>
  <path d="M 223.0 201.0 L 313.0 123.0 Q 341.8 108.89999999999999 325.0 60.0 L 223.0 60.0 L 223.0 201.0 z" fill="rgb(255,217,194)" stroke="black"/>
  <text fill="rgb(9,33,173)" font-size="25" x="246.0" y="114.0">rfsleeve</text>
  <path d="M 386.0 327.0 L 626.0 327.0 L 581.0 123.0 Q 552.1999999999999 108.89999999999999 569.0 60.0 L 542.0 60.0 L 506.0 69.0 L 470.0 60.0 L 443.0 60.0 Q 459.8 108.89999999999999 431.0 123.0 L 386.0 327.0 z" fill="rgb(255,217,194)" stroke="black"/>
  <text fill="rgb(9,33,173)" font-size="25" x="481.0" y="137.33333333333334">back</text>
  <path d="M 686.0 327.0 L 926.0 327.0 L 881.0 123.0 Q 852.1999999999999 108.89999999999999 869.0 60.0 L 842.0 60.0 L 806.0 84.0 L 770.0 60.0 L 743.0 60.0 Q 759.8000000000001 108.89999999999999 731.0 123.0 L 686.0 327.0 z" fill="rgb(255,217,194)" stroke="black"/>
  <text fill="rgb(9,33,173)" font-size="25" x="781.0" y="139.0">front</text>
  <path d="M 986.0 159.0 L 1037.0 165.0 Q 1094.6000000000001 149.70000000000002 1055.0 78.0 L 1022.0 87.0 L 986.0 60.0 L 986.0 159.0 z" fill="rgb(255,217,194)" stroke="black"/>
  <text fill="rgb(9,33,173)" font-size="25" x="992.2" y="112.8">Rhood</text>
  <path d="M 1115.0 165.0 L 1151.0 138.0 L 1184.0 147.0 Q 1223.6000000000001 75.3 1166.0 60.0 L 1115.0 66.0 L 1115.0 165.0 z" fill="rgb(255,217,194)" stroke="black"/>
  <text fill="rgb(9,33,173)" font-size="25" x="1121.2" y="118.2">Lhood</text>
  <path d="M 1244.0 201.0 L 1334.0 123.0 Q 1362.8 108.89999999999999 1346.0 60.0 L 1244.0 60.0 L 1244.0 201.0 z" fill="rgb(255,217,194)" stroke="black"/>
  <text fill="rgb(9,33,173)" font-size="25" x="1267.0" y="114.0">lbsleeve</text>
  <path d="M 1407.0 201.0 L 1509.0 201.0 Q 1525.8 152.1 1497.0 138.0 L 1407.0 60.0 L 1407.0 201.0 z" fill="rgb(255,217,194)" stroke="black"/>
  <text fill="rgb(9,33,173)" font-size="25" x="1430.0" y="153.0">lfsleeve</text>
</svg>
