<?xml version="1.0" encoding="utf-8" ?>
<svg xmlns="http://www.w3.org/2000/svg" xmlns:ev="http://www.w3.org/2001/xml-events" xmlns:xlink="http://www.w3.org/1999/xlink" baseProfile="full" height="303.0px" version="1.1" width="1189.0px">
  <defs/>
  <path d="M 60 108 L 93 108 Q 105.9 70.80000000000001 84 60 L 60 60 L 60 108 z" fill="rgb(255,217,194)" stroke="black"/>
  <text fill="rgb(9,33,173)" font-size="25" x="49.25" y="87.0">rbsleeve</text>
  <text fill="rgb(245,96,66)" font-size="25" x="52.44730622922282" y="60.700726280796324">0</text>
  <text fill="rgb(245,96,66)" font-size="25" x="80.88188523477969" y="60.36766711438845">1</text>
  <text fill="rgb(245,96,66)" font-size="25" x="91.07822020986157" y="116.94012186862281">2</text>
  <text fill="rgb(245,96,66)" font-size="25" x="52.44730622922282" y="117.29927371920367">3</text>
  <text fill="rgb(50,179,101)" font-size="20" x="71.96670354346529" y="117.97817113029645">0</text>
  <text fill="rgb(50,179,101)" font-size="20" x="88.5" y="89.0">1</text>
  <text fill="rgb(50,179,101)" font-size="20" x="66.53329645653471" y="60.02182886970356">2</text>
  <text fill="rgb(50,179,101)" font-size="20" x="50.0" y="89.0">3</text>
  <path d="M 189.25 108.0 L 213.25 108.0 Q 235.14999999999998 97.19999999999999 222.25 60.0 L 189.25 60.0 L 189.25 108.0 z" fill="rgb(255,217,194)" stroke="black"/>
  <text fill="rgb(9,33,173)" font-size="25" x="178.5" y="87.0">rfsleeve</text>
  <text fill="rgb(245,96,66)" font-size="25" x="181.69730622922282" y="60.700726280796324">0</text>
  <text fill="rgb(245,96,66)" font-size="25" x="220.32822020986157" y="61.05987813137718">1</text>
  <text fill="rgb(245,96,66)" font-size="25" x="210.1318852347797" y="117.63233288561155">2</text>
  <text fill="rgb(245,96,66)" font-size="25" x="181.69730622922282" y="117.29927371920367">3</text>
  <text fill="rgb(50,179,101)" font-size="20" x="195.7832964565347" y="117.97817113029645">0</text>
  <text fill="rgb(50,179,101)" font-size="20" x="217.75" y="89.0">1</text>
  <text fill="rgb(50,179,101)" font-size="20" x="201.2167035434653" y="60.02182886970356">2</text>
  <text fill="rgb(50,179,101)" font-size="20" x="179.25" y="89.0">3</text>
  <path d="M 318.5 243.0 L 444.5 243.0 L 444.5 111.0 Q 421.40000000000003 99.3 435.5 60.0 L 405.5 60.0 L 381.5 69.0 L 357.5 60.0 L 327.5 60.0 Q 341.59999999999997 99.29999999999998 318.5 111.0 L 318.5 243.0 z" fill="rgb(255,217,194)" stroke="black"/>
  <text fill="rgb(9,33,173)" font-size="25" x="356.5" y="116.0">back</text>
  <text fill="rgb(245,96,66)" font-size="25" x="402.56253776654023" y="60.445229098890344">0</text>
  <text fill="rgb(245,96,66)" font-size="25" x="434.06842044245747" y="61.49766141758803">1</text>
  <text fill="rgb(245,96,66)" font-size="25" x="444.49748237647685" y="115.84134976582614">2</text>
  <text fill="rgb(245,96,66)" font-size="25" x="441.6805182920678" y="252.49948218998117">3</text>
  <text fill="rgb(245,96,66)" font-size="25" x="311.3194817079322" y="252.49948218998117">4</text>
  <text fill="rgb(245,96,66)" font-size="25" x="308.50251762352315" y="115.84134976582614">5</text>
  <text fill="rgb(245,96,66)" font-size="25" x="318.93157955754253" y="61.49766141758803">6</text>
  <text fill="rgb(245,96,66)" font-size="25" x="350.43746223345977" y="60.445229098890344">7</text>
  <text fill="rgb(245,96,66)" font-size="25" x="376.5" y="69.0">8</text>
  <text fill="rgb(50,179,101)" font-size="20" x="376.5" y="253.0">0</text>
  <text fill="rgb(50,179,101)" font-size="20" x="443.0075863225716" y="185.56326229594575">1</text>
  <text fill="rgb(50,179,101)" font-size="20" x="439.52496961381877" y="88.37287753196554">2</text>
  <text fill="rgb(50,179,101)" font-size="20" x="418.4634026382361" y="60.972811799320134">3</text>
  <text fill="rgb(50,179,101)" font-size="20" x="389.7009010137673" y="64.64635840269054">4</text>
  <text fill="rgb(50,179,101)" font-size="20" x="363.2990989862327" y="64.64635840269054">5</text>
  <text fill="rgb(50,179,101)" font-size="20" x="334.5365973617639" y="60.972811799320134">6</text>
  <text fill="rgb(50,179,101)" font-size="20" x="313.47503038618123" y="88.37287753196554">7</text>
  <text fill="rgb(50,179,101)" font-size="20" x="309.9924136774284" y="185.56326229594575">8</text>
  <path d="M 504.5 240.0 L 630.5 240.0 L 630.5 108.0 Q 608.5999999999999 97.19999999999999 621.5 60.0 L 591.5 60.0 L 567.5 93.0 L 543.5 60.0 L 513.5 60.0 Q 526.4 97.19999999999999 504.5 108.0 L 504.5 240.0 z" fill="rgb(255,217,194)" stroke="black"/>
  <text fill="rgb(9,33,173)" font-size="25" x="542.5" y="117.33333333333333">front</text>
  <text fill="rgb(245,96,66)" font-size="25" x="562.5" y="93.0">0</text>
  <text fill="rgb(245,96,66)" font-size="25" x="536.4797267239683" y="60.42632577787266">1</text>
  <text fill="rgb(245,96,66)" font-size="25" x="504.9753613445722" y="61.453604315835">2</text>
  <text fill="rgb(245,96,66)" font-size="25" x="494.52507534890475" y="112.49987529962534">3</text>
  <text fill="rgb(245,96,66)" font-size="25" x="497.2591908265008" y="249.46976221380532">4</text>
  <text fill="rgb(245,96,66)" font-size="25" x="627.7408091734992" y="249.46976221380532">5</text>
  <text fill="rgb(245,96,66)" font-size="25" x="630.4749246510952" y="112.49987529962534">6</text>
  <text fill="rgb(245,96,66)" font-size="25" x="620.0246386554278" y="61.453604315835">7</text>
  <text fill="rgb(245,96,66)" font-size="25" x="588.5202732760317" y="60.42632577787266">8</text>
  <text fill="rgb(50,179,101)" font-size="20" x="562.5" y="250.0">0</text>
  <text fill="rgb(50,179,101)" font-size="20" x="629.1302681100939" y="182.4381904323111">1</text>
  <text fill="rgb(50,179,101)" font-size="20" x="625.4387726572446" y="86.698414177725">2</text>
  <text fill="rgb(50,179,101)" font-size="20" x="604.4156122638425" y="60.93807864097158">3</text>
  <text fill="rgb(50,179,101)" font-size="20" x="576.0116846047921" y="76.73399437100264">4</text>
  <text fill="rgb(50,179,101)" font-size="20" x="548.9883153952079" y="76.73399437100264">5</text>
  <text fill="rgb(50,179,101)" font-size="20" x="520.5843877361575" y="60.93807864097158">6</text>
  <text fill="rgb(50,179,101)" font-size="20" x="499.56122734275533" y="86.698414177725">7</text>
  <text fill="rgb(50,179,101)" font-size="20" x="495.8697318899062" y="182.4381904323111">8</text>
  <path d="M 690.5 183.0 L 720.5 183.0 Q 787.1 172.2 750.5 87.0 L 726.5 96.0 L 699.5 60.0 L 690.5 183.0 z" fill="rgb(255,217,194)" stroke="black"/>
  <text fill="rgb(9,33,173)" font-size="25" x="692.5" y="124.8">Rhood</text>
  <text fill="rgb(245,96,66)" font-size="25" x="693.1017898063631" y="60.19947833517965">0</text>
  <text fill="rgb(245,96,66)" font-size="25" x="723.1468607815915" y="96.27899909277112">1</text>
  <text fill="rgb(245,96,66)" font-size="25" x="748.9404579150464" y="88.37188074413282">2</text>
  <text fill="rgb(245,96,66)" font-size="25" x="715.7448040931273" y="192.99400349979734">3</text>
  <text fill="rgb(245,96,66)" font-size="25" x="683.4817989671185" y="192.57458900786466">4</text>
  <text fill="rgb(50,179,101)" font-size="20" x="699.537927696395" y="192.90656874838578">0</text>
  <text fill="rgb(50,179,101)" font-size="20" x="734.5320249792785" y="142.95681831813758">1</text>
  <text fill="rgb(50,179,101)" font-size="20" x="736.3481652971512" y="92.39050435696747">2</text>
  <text fill="rgb(50,179,101)" font-size="20" x="707.4889912542262" y="78.02618154113534">3</text>
  <text fill="rgb(50,179,101)" font-size="20" x="685.000444385194" y="126.43333925846926">4</text>
  <path d="M 819.5 183.0 L 846.5 147.0 L 870.5 156.0 Q 907.1 70.80000000000001 840.5 60.0 L 810.5 60.0 L 819.5 183.0 z" fill="rgb(255,217,194)" stroke="black"/>
  <text fill="rgb(9,33,173)" font-size="25" x="812.5" y="124.2">Lhood</text>
  <text fill="rgb(245,96,66)" font-size="25" x="803.4817989671185" y="60.42541099213534">0</text>
  <text fill="rgb(245,96,66)" font-size="25" x="835.7448040931273" y="60.005996500202656">1</text>
  <text fill="rgb(245,96,66)" font-size="25" x="868.9404579150464" y="164.62811925586718">2</text>
  <text fill="rgb(245,96,66)" font-size="25" x="843.1468607815915" y="156.72100090722887">3</text>
  <text fill="rgb(245,96,66)" font-size="25" x="813.1017898063631" y="192.80052166482037">4</text>
  <text fill="rgb(50,179,101)" font-size="20" x="827.4889912542262" y="174.97381845886466">0</text>
  <text fill="rgb(50,179,101)" font-size="20" x="856.3481652971512" y="160.60949564303252">1</text>
  <text fill="rgb(50,179,101)" font-size="20" x="854.5320249792785" y="110.04318168186241">2</text>
  <text fill="rgb(50,179,101)" font-size="20" x="819.537927696395" y="60.09343125161421">3</text>
  <text fill="rgb(50,179,101)" font-size="20" x="805.000444385194" y="126.56666074153074">4</text>
  <path d="M 930.5 108.0 L 954.5 108.0 Q 976.4000000000001 97.19999999999999 963.5 60.0 L 930.5 60.0 L 930.5 108.0 z" fill="rgb(255,217,194)" stroke="black"/>
  <text fill="rgb(9,33,173)" font-size="25" x="919.75" y="87.0">lbsleeve</text>
  <text fill="rgb(245,96,66)" font-size="25" x="922.9473062292228" y="60.700726280796324">0</text>
  <text fill="rgb(245,96,66)" font-size="25" x="961.5782202098616" y="61.05987813137718">1</text>
  <text fill="rgb(245,96,66)" font-size="25" x="951.3818852347797" y="117.63233288561155">2</text>
  <text fill="rgb(245,96,66)" font-size="25" x="922.9473062292228" y="117.29927371920367">3</text>
  <text fill="rgb(50,179,101)" font-size="20" x="937.0332964565347" y="117.97817113029645">0</text>
  <text fill="rgb(50,179,101)" font-size="20" x="959.0" y="89.0">1</text>
  <text fill="rgb(50,179,101)" font-size="20" x="942.4667035434653" y="60.02182886970356">2</text>
  <text fill="rgb(50,179,101)" font-size="20" x="920.5" y="89.0">3</text>
  <path d="M 1059.75 108.0 L 1092.75 108.0 Q 1105.65 70.80000000000001 1083.75 60.0 L 1059.75 60.0 L 1059.75 108.0 z" fill="rgb(255,217,194)" stroke="black"/>
  <text fill="rgb(9,33,173)" font-size="25" x="1049.0" y="87.0">lfsleeve</text>
  <text fill="rgb(245,96,66)" font-size="25" x="1052.197306229223" y="60.700726280796324">0</text>
  <text fill="rgb(245,96,66)" font-size="25" x="1080.6318852347797" y="60.36766711438845">1</text>
  <text fill="rgb(245,96,66)" font-size="25" x="1090.8282202098617" y="116.94012186862281">2</text>
  <text fill="rgb(245,96,66)" font-size="25" x="1052.197306229223" y="117.29927371920367">3</text>
  <text fill="rgb(50,179,101)" font-size="20" x="1071.7167035434652" y="117.97817113029645">0</text>
  <text fill="rgb(50,179,101)" font-size="20" x="1088.25" y="89.0">1</text>
  <text fill="rgb(50,179,101)" font-size="20" x="1066.2832964565348" y="60.02182886970356">2</text>
  <text fill="rgb(50,179,101)" font-size="20" x="1049.75" y="89.0">3</text>
</svg>
