<?xml version="1.0" encoding="utf-8" ?>
<svg xmlns="http://www.w3.org/2000/svg" xmlns:ev="http://www.w3.org/2001/xml-events" xmlns:xlink="http://www.w3.org/1999/xlink" baseProfile="full" height="279px" version="1.1" width="1388.0px">
  <defs/>
  <path d="M 60 219 L 93 219 Q 118.19999999999999 155.39999999999998 81 135 L 60 60 L 60 219 z" fill="rgb(255,217,194)" stroke="black"/>
  <text fill="rgb(9,33,173)" font-size="25" x="48.5" y="161.25">rbsleeve</text>
  <path d="M 188.5 219.0 L 209.5 144.0 Q 246.7 123.6 221.5 60.0 L 188.5 60.0 L 188.5 219.0 z" fill="rgb(255,217,194)" stroke="black"/>
  <text fill="rgb(9,33,173)" font-size="25" x="177.0" y="123.75">rfsleeve</text>
  <path d="M 338.0 150.0 L 389.0 150.0 L 389.0 63.0 L 356.0 60.0 L 329.0 60.0 Q 354.20000000000005 123.6 317.0 144.0 L 338.0 150.0 z" fill="rgb(255,217,194)" stroke="black"/>
  <text fill="rgb(9,33,173)" font-size="25" x="328.0" y="107.5">front_right</text>
  <path d="M 498.0 168.0 L 519.0 165.0 Q 596.4 162.3 567.0 60.0 L 534.0 69.0 L 501.0 66.0 L 498.0 168.0 z" fill="rgb(255,217,194)" stroke="black"/>
  <text fill="rgb(9,33,173)" font-size="25" x="498.79999999999995" y="108.6">Rhood</text>
  <path d="M 648.0 150.0 L 750.0 150.0 L 771.0 144.0 Q 733.8 123.6 759.0 60.0 L 732.0 60.0 L 699.0 69.0 L 666.0 60.0 L 639.0 60.0 Q 664.2 123.6 627.0 144.0 L 648.0 150.0 z" fill="rgb(255,217,194)" stroke="black"/>
  <text fill="rgb(9,33,173)" font-size="25" x="674.0" y="102.66666666666667">back</text>
  <path d="M 834.0 162.0 L 867.0 159.0 L 900.0 168.0 Q 929.4 65.7 852.0 63.0 L 831.0 60.0 L 834.0 162.0 z" fill="rgb(255,217,194)" stroke="black"/>
  <text fill="rgb(9,33,173)" font-size="25" x="831.8" y="125.4">Lhood</text>
  <path d="M 960.0 150.0 L 1011.0 150.0 L 1032.0 144.0 Q 994.8000000000001 123.6 1020.0 60.0 L 993.0 60.0 L 960.0 63.0 L 960.0 150.0 z" fill="rgb(255,217,194)" stroke="black"/>
  <text fill="rgb(9,33,173)" font-size="25" x="971.0" y="107.5">front_left</text>
  <path d="M 1131.0 219.0 L 1152.0 144.0 Q 1189.1999999999998 123.6 1164.0 60.0 L 1131.0 60.0 L 1131.0 219.0 z" fill="rgb(255,217,194)" stroke="black"/>
  <text fill="rgb(9,33,173)" font-size="25" x="1119.5" y="123.75">lbsleeve</text>
  <path d="M 1259.5 219.0 L 1292.5 219.0 Q 1317.6999999999998 155.39999999999998 1280.5 135.0 L 1259.5 60.0 L 1259.5 219.0 z" fill="rgb(255,217,194)" stroke="black"/>
  <text fill="rgb(9,33,173)" font-size="25" x="1248.0" y="161.25">lfsleeve</text>
</svg>
