<?xml version="1.0" encoding="utf-8" ?>
<svg xmlns="http://www.w3.org/2000/svg" xmlns:ev="http://www.w3.org/2001/xml-events" xmlns:xlink="http://www.w3.org/1999/xlink" baseProfile="full" height="261px" version="1.1" width="1080px">
  <defs/>
  <path d="M 60 201 Q 189.0 292.28263323826 318 201 L 261 102 L 255 60 L 123 60 L 117 102 L 60 201 z" fill="rgb(255,217,194)" stroke="black"/>
  <text fill="rgb(9,33,173)" font-size="25" x="164.0" y="124.0">skirt_back</text>
  <path d="M 378 201 Q 507.0 250.0069108313032 636 201 L 579 102 L 573 60 L 441 60 L 435 102 L 378 201 z" fill="rgb(255,217,194)" stroke="black"/>
  <text fill="rgb(9,33,173)" font-size="25" x="482.0" y="124.0">skirt_front</text>
  <path d="M 696 168 L 828 168 L 828 111 Q 804.9 99.3 819 60 L 780 60 Q 762.0 113.79543610549095 744 60 L 705 60 Q 719.1 99.29999999999998 696 111 L 696 168 z" fill="rgb(255,217,194)" stroke="black"/>
  <text fill="rgb(9,33,173)" font-size="25" x="737.0" y="102.75">top_back</text>
  <path d="M 888 165 L 1020 165 L 1020 111 Q 996.9 99.3 1011 60 L 972 60 L 954 126 L 936 60 L 897 60 Q 911.1 99.29999999999998 888 111 L 888 165 z" fill="rgb(255,217,194)" stroke="black"/>
  <text fill="rgb(9,33,173)" font-size="25" x="929.0" y="105.0">top_front</text>
</svg>
