<?xml version="1.0" encoding="utf-8" ?>
<svg xmlns="http://www.w3.org/2000/svg" xmlns:ev="http://www.w3.org/2001/xml-events" xmlns:xlink="http://www.w3.org/1999/xlink" baseProfile="full" height="273px" version="1.1" width="1318.0px">
  <defs/>
  <path d="M 60 213 L 270 213 L 270 60 L 60 60 L 60 213 z" fill="rgb(255,217,194)" stroke="black"/>
  <text fill="rgb(9,33,173)" font-size="25" x="140.0" y="139.5">skirt_back</text>
  <path d="M 330 69 L 420 69 L 420 60 L 330 60 L 330 69 z" fill="rgb(255,217,194)" stroke="black"/>
  <text fill="rgb(9,33,173)" font-size="25" x="350.0" y="67.5">wb_back</text>
  <path d="M 480 69 L 570 69 L 570 60 L 480 60 L 480 69 z" fill="rgb(255,217,194)" stroke="black"/>
  <text fill="rgb(9,33,173)" font-size="25" x="500.0" y="67.5">wb_front</text>
  <path d="M 640.0 213.0 L 850.0 213.0 L 850.0 60.0 L 640.0 60.0 L 640.0 213.0 z" fill="rgb(255,217,194)" stroke="black"/>
  <text fill="rgb(9,33,173)" font-size="25" x="720.0" y="139.5">skirt_front</text>
  <path d="M 910.0 171.0 L 1054.0 171.0 L 1054.0 126.0 Q 1024.0 111.0 1042.0 60.0 L 1006.0 60.0 Q 982.0 134.10423016689444 958.0 60.0 L 922.0 60.0 Q 940.0 110.99999999999999 910.0 126.0 L 910.0 171.0 z" fill="rgb(255,217,194)" stroke="black"/>
  <text fill="rgb(9,33,173)" font-size="25" x="957.0" y="107.25">top_back</text>
  <path d="M 1114.0 171.0 L 1258.0 171.0 L 1258.0 126.0 Q 1228.0 111.0 1246.0 60.0 L 1210.0 60.0 L 1186.0 108.0 L 1162.0 60.0 L 1126.0 60.0 Q 1144.0 110.99999999999999 1114.0 126.0 L 1114.0 171.0 z" fill="rgb(255,217,194)" stroke="black"/>
  <text fill="rgb(9,33,173)" font-size="25" x="1161.0" y="107.66666666666667">top_front</text>
</svg>
