<?xml version="1.0" encoding="utf-8" ?>
<svg xmlns="http://www.w3.org/2000/svg" xmlns:ev="http://www.w3.org/2001/xml-events" xmlns:xlink="http://www.w3.org/1999/xlink" baseProfile="full" height="297.0px" version="1.1" width="1678.0px">
  <defs/>
  <path d="M 60 204 L 111 204 Q 120.6 167.7 99 159 L 60 60 L 60 204 z" fill="rgb(255,217,194)" stroke="black"/>
  <text fill="rgb(9,33,173)" font-size="25" x="57.5" y="159.75">rbsleeve</text>
  <path d="M 197.5 204.0 L 236.5 105.0 Q 258.1 96.3 248.5 60.0 L 197.5 60.0 L 197.5 204.0 z" fill="rgb(255,217,194)" stroke="black"/>
  <text fill="rgb(9,33,173)" font-size="25" x="195.0" y="110.25">rfsleeve</text>
  <path d="M 335.0 237.0 L 422.0 237.0 Q 438.5 87.00000000000001 431.0 60.0 L 365.0 60.0 Q 379.7 141.75 335.0 153.0 Q 343.4 157.2 335.0 237.0 z" fill="rgb(255,217,194)" stroke="black"/>
  <text fill="rgb(9,33,173)" font-size="25" x="352.6" y="152.4">Rback</text>
  <path d="M 500.0 237.0 L 587.0 237.0 Q 578.6 157.2 587.0 153.0 Q 546.95 140.25 557.0 60.0 L 491.0 60.0 Q 483.5 87.0 500.0 237.0 z" fill="rgb(255,217,194)" stroke="black"/>
  <text fill="rgb(9,33,173)" font-size="25" x="519.4" y="152.4">Rfront</text>
  <path d="M 662.0 168.0 L 728.0 168.0 L 794.0 168.0 L 809.0 108.0 Q 786.1999999999999 98.39999999999999 797.0 60.0 L 746.0 60.0 Q 728.0 103.98273700869541 710.0 60.0 L 659.0 60.0 Q 669.8000000000001 98.39999999999999 647.0 108.0 L 662.0 168.0 z" fill="rgb(255,217,194)" stroke="black"/>
  <text fill="rgb(9,33,173)" font-size="25" x="703.0" y="109.66666666666667">up_back</text>
  <path d="M 884.0 165.0 L 950.0 165.0 L 1016.0 165.0 L 1031.0 108.0 Q 1008.2 98.39999999999999 1019.0 60.0 L 968.0 60.0 L 950.0 132.0 L 932.0 60.0 L 881.0 60.0 Q 891.8000000000001 98.39999999999999 869.0 108.0 L 884.0 165.0 z" fill="rgb(255,217,194)" stroke="black"/>
  <text fill="rgb(9,33,173)" font-size="25" x="925.0" y="111.3">up_front</text>
  <path d="M 1100.0 237.0 L 1187.0 237.0 Q 1178.6 157.2 1187.0 153.0 Q 1142.3 141.75 1157.0 60.0 L 1091.0 60.0 Q 1083.5 87.0 1100.0 237.0 z" fill="rgb(255,217,194)" stroke="black"/>
  <text fill="rgb(9,33,173)" font-size="25" x="1119.4" y="152.4">Lback</text>
  <path d="M 1247.0 237.0 L 1334.0 237.0 Q 1350.5 87.00000000000001 1343.0 60.0 L 1277.0 60.0 Q 1287.05 140.25 1247.0 153.0 Q 1255.4 157.2 1247.0 237.0 z" fill="rgb(255,217,194)" stroke="black"/>
  <text fill="rgb(9,33,173)" font-size="25" x="1264.6" y="152.4">Lfront</text>
  <path d="M 1403.0 204.0 L 1442.0 105.0 Q 1463.6 96.3 1454.0 60.0 L 1403.0 60.0 L 1403.0 204.0 z" fill="rgb(255,217,194)" stroke="black"/>
  <text fill="rgb(9,33,173)" font-size="25" x="1400.5" y="110.25">lbsleeve</text>
  <path d="M 1540.5 204.0 L 1591.5 204.0 Q 1601.1 167.7 1579.5 159.0 L 1540.5 60.0 L 1540.5 204.0 z" fill="rgb(255,217,194)" stroke="black"/>
  <text fill="rgb(9,33,173)" font-size="25" x="1538.0" y="159.75">lfsleeve</text>
</svg>
