<?xml version="1.0" encoding="utf-8" ?>
<svg xmlns="http://www.w3.org/2000/svg" xmlns:ev="http://www.w3.org/2001/xml-events" xmlns:xlink="http://www.w3.org/1999/xlink" baseProfile="full" height="246.0px" version="1.1" width="1318.0px">
  <defs/>
  <path d="M 60 147 L 282 147 L 282 60 L 60 60 L 60 147 z" fill="rgb(255,217,194)" stroke="black"/>
  <text fill="rgb(9,33,173)" font-size="25" x="146.0" y="106.5">skirt_back</text>
  <path d="M 342 81 L 432 81 L 432 60 L 342 60 L 342 81 z" fill="rgb(255,217,194)" stroke="black"/>
  <text fill="rgb(9,33,173)" font-size="25" x="362.0" y="73.5">wb_back</text>
  <path d="M 492 81 L 582 81 L 582 60 L 492 60 L 492 81 z" fill="rgb(255,217,194)" stroke="black"/>
  <text fill="rgb(9,33,173)" font-size="25" x="512.0" y="73.5">wb_front</text>
  <path d="M 652.0 147.0 L 874.0 147.0 L 874.0 60.0 L 652.0 60.0 L 652.0 147.0 z" fill="rgb(255,217,194)" stroke="black"/>
  <text fill="rgb(9,33,173)" font-size="25" x="738.0" y="106.5">skirt_front</text>
  <path d="M 934.0 186.0 L 1066.0 186.0 L 1066.0 129.0 Q 1034.8000000000002 113.1 1054.0 60.0 L 1012.0 60.0 Q 1000.0 97.57357950407398 988.0 60.0 L 946.0 60.0 Q 965.2 113.1 934.0 129.0 L 934.0 186.0 z" fill="rgb(255,217,194)" stroke="black"/>
  <text fill="rgb(9,33,173)" font-size="25" x="975.0" y="111.75">top_back</text>
  <path d="M 1126.0 186.0 L 1258.0 186.0 L 1258.0 129.0 Q 1226.8000000000002 113.1 1246.0 60.0 L 1204.0 60.0 L 1192.0 123.0 L 1180.0 60.0 L 1138.0 60.0 Q 1157.1999999999998 113.1 1126.0 129.0 L 1126.0 186.0 z" fill="rgb(255,217,194)" stroke="black"/>
  <text fill="rgb(9,33,173)" font-size="25" x="1167.0" y="113.33333333333333">top_front</text>
</svg>
