<?xml version="1.0" encoding="utf-8" ?>
<svg xmlns="http://www.w3.org/2000/svg" xmlns:ev="http://www.w3.org/2001/xml-events" xmlns:xlink="http://www.w3.org/1999/xlink" baseProfile="full" height="282px" version="1.1" width="950.0px">
  <defs/>
  <path d="M 60 222 Q 159.0 241.8 258 222 L 225 102 L 210 60 L 108 60 L 93 102 L 60 222 z" fill="rgb(255,217,194)" stroke="black"/>
  <text fill="rgb(9,33,173)" font-size="25" x="134.0" y="131.0">skirt_back</text>
  <text fill="rgb(245,96,66)" font-size="25" x="208.0" y="61.0">0</text>
  <text fill="rgb(245,96,66)" font-size="25" x="100.0" y="61.0">1</text>
  <text fill="rgb(245,96,66)" font-size="25" x="83.34795803591454" y="105.16737740808755">2</text>
  <text fill="rgb(245,96,66)" font-size="25" x="51.37408852881266" y="230.44278462920818">3</text>
  <text fill="rgb(245,96,66)" font-size="25" x="256.62591147118735" y="230.44278462920818">4</text>
  <text fill="rgb(245,96,66)" font-size="25" x="224.65204196408547" y="105.16737740808755">5</text>
  <text fill="rgb(50,179,101)" font-size="20" x="154.0" y="232.0">0</text>
  <text fill="rgb(50,179,101)" font-size="20" x="241.12281004327022" y="168.90515807843863">1</text>
  <text fill="rgb(50,179,101)" font-size="20" x="216.3978351372187" y="82.86840595813199">2</text>
  <text fill="rgb(50,179,101)" font-size="20" x="154.0" y="60.0">3</text>
  <text fill="rgb(50,179,101)" font-size="20" x="91.6021648627813" y="82.86840595813199">4</text>
  <text fill="rgb(50,179,101)" font-size="20" x="66.87718995672978" y="168.90515807843863">5</text>
  <path d="M 318 222 Q 417.0 241.8 516 222 L 483 102 L 468 60 L 366 60 L 351 102 L 318 222 z" fill="rgb(255,217,194)" stroke="black"/>
  <text fill="rgb(9,33,173)" font-size="25" x="392.0" y="131.0">skirt_front</text>
  <text fill="rgb(245,96,66)" font-size="25" x="358.0" y="61.0">0</text>
  <text fill="rgb(245,96,66)" font-size="25" x="466.0" y="61.0">1</text>
  <text fill="rgb(245,96,66)" font-size="25" x="482.65204196408547" y="105.16737740808755">2</text>
  <text fill="rgb(245,96,66)" font-size="25" x="514.6259114711874" y="230.44278462920818">3</text>
  <text fill="rgb(245,96,66)" font-size="25" x="309.37408852881265" y="230.44278462920818">4</text>
  <text fill="rgb(245,96,66)" font-size="25" x="341.34795803591453" y="105.16737740808755">5</text>
  <text fill="rgb(50,179,101)" font-size="20" x="412.0" y="232.0">0</text>
  <text fill="rgb(50,179,101)" font-size="20" x="499.1228100432702" y="168.90515807843863">1</text>
  <text fill="rgb(50,179,101)" font-size="20" x="474.3978351372187" y="82.86840595813199">2</text>
  <text fill="rgb(50,179,101)" font-size="20" x="412.0" y="60.0">3</text>
  <text fill="rgb(50,179,101)" font-size="20" x="349.6021648627813" y="82.86840595813199">4</text>
  <text fill="rgb(50,179,101)" font-size="20" x="324.8771899567298" y="168.90515807843863">5</text>
  <path d="M 588 168 L 690 168 L 702 111 Q 678.9 99.3 693 60 L 663 60 Q 639.0 74.4 615 60 L 585 60 Q 599.1 99.29999999999998 576 111 L 588 168 z" fill="rgb(255,217,194)" stroke="black"/>
  <text fill="rgb(9,33,173)" font-size="25" x="614.0" y="102.75">top_back</text>
  <text fill="rgb(245,96,66)" font-size="25" x="660.5843454951696" y="60.71967777362537">0</text>
  <text fill="rgb(245,96,66)" font-size="25" x="692.0266844194681" y="62.03591285789153">1</text>
  <text fill="rgb(245,96,66)" font-size="25" x="701.9221378775424" y="116.8789531924183">2</text>
  <text fill="rgb(245,96,66)" font-size="25" x="687.9929531080286" y="177.00527548280292">3</text>
  <text fill="rgb(245,96,66)" font-size="25" x="580.0070468919714" y="177.00527548280292">4</text>
  <text fill="rgb(245,96,66)" font-size="25" x="566.0778621224576" y="116.8789531924183">5</text>
  <text fill="rgb(245,96,66)" font-size="25" x="575.9733155805319" y="62.03591285789153">6</text>
  <text fill="rgb(245,96,66)" font-size="25" x="607.4156545048304" y="60.71967777362537">7</text>
  <text fill="rgb(50,179,101)" font-size="20" x="634.0" y="178.0">0</text>
  <text fill="rgb(50,179,101)" font-size="20" x="695.101223591158" y="147.36006382014966">1</text>
  <text fill="rgb(50,179,101)" font-size="20" x="697.357951181509" y="89.31665291732475">2</text>
  <text fill="rgb(50,179,101)" font-size="20" x="676.5017033506404" y="61.43095620030884">3</text>
  <text fill="rgb(50,179,101)" font-size="20" x="634.0" y="60.0">4</text>
  <text fill="rgb(50,179,101)" font-size="20" x="591.4982966493596" y="61.43095620030884">5</text>
  <text fill="rgb(50,179,101)" font-size="20" x="570.642048818491" y="89.31665291732475">6</text>
  <text fill="rgb(50,179,101)" font-size="20" x="572.898776408842" y="147.36006382014966">7</text>
  <path d="M 774 165 L 876 165 L 888 108 Q 866.0999999999999 97.19999999999999 879 60 L 849 60 L 825 93 L 801 60 L 771 60 Q 783.9000000000001 97.19999999999999 762 108 L 774 165 z" fill="rgb(255,217,194)" stroke="black"/>
  <text fill="rgb(9,33,173)" font-size="25" x="800.0" y="100.66666666666667">top_front</text>
  <text fill="rgb(245,96,66)" font-size="25" x="820.0" y="93.0">0</text>
  <text fill="rgb(245,96,66)" font-size="25" x="793.3132083784928" y="60.78322981624573">1</text>
  <text fill="rgb(245,96,66)" font-size="25" x="761.8990889915316" y="62.139488000265885">2</text>
  <text fill="rgb(245,96,66)" font-size="25" x="752.0659300150008" y="113.80929190230144">3</text>
  <text fill="rgb(245,96,66)" font-size="25" x="765.9810914670499" y="173.98574852062703">4</text>
  <text fill="rgb(245,96,66)" font-size="25" x="874.0189085329501" y="173.98574852062703">5</text>
  <text fill="rgb(245,96,66)" font-size="25" x="887.9340699849992" y="113.80929190230144">6</text>
  <text fill="rgb(245,96,66)" font-size="25" x="878.1009110084684" y="62.139488000265885">7</text>
  <text fill="rgb(245,96,66)" font-size="25" x="846.6867916215072" y="60.78322981624573">8</text>
  <text fill="rgb(50,179,101)" font-size="20" x="820.0" y="175.0">0</text>
  <text fill="rgb(50,179,101)" font-size="20" x="881.1321589244442" y="144.31518429647804">1</text>
  <text fill="rgb(50,179,101)" font-size="20" x="883.368898914577" y="87.86253643591078">2</text>
  <text fill="rgb(50,179,101)" font-size="20" x="862.5964776024898" y="61.52647889674056">3</text>
  <text fill="rgb(50,179,101)" font-size="20" x="834.4659269572429" y="77.15037883930765">4</text>
  <text fill="rgb(50,179,101)" font-size="20" x="805.5340730427571" y="77.15037883930765">5</text>
  <text fill="rgb(50,179,101)" font-size="20" x="777.4035223975102" y="61.52647889674056">6</text>
  <text fill="rgb(50,179,101)" font-size="20" x="756.631101085423" y="87.86253643591078">7</text>
  <text fill="rgb(50,179,101)" font-size="20" x="758.8678410755558" y="144.31518429647804">8</text>
</svg>
