<?xml version="1.0" encoding="utf-8" ?>
<svg xmlns="http://www.w3.org/2000/svg" xmlns:ev="http://www.w3.org/2001/xml-events" xmlns:xlink="http://www.w3.org/1999/xlink" baseProfile="full" height="390px" version="1.1" width="955.0px">
  <defs/>
  <path d="M 60 330 L 153 330 L 153 87 L 114 60 L 81 60 Q 98.1 114.3 66 129 L 60 330 z" fill="rgb(255,217,194)" stroke="black"/>
  <text fill="rgb(9,33,173)" font-size="25" x="79.5" y="169.0">front_right</text>
  <path d="M 255.5 156.0 L 270.5 159.0 Q 336.20000000000005 168.89999999999998 327.5 78.0 L 291.5 87.0 L 249.5 60.0 L 255.5 156.0 z" fill="rgb(255,217,194)" stroke="black"/>
  <text fill="rgb(9,33,173)" font-size="25" x="253.89999999999998" y="111.0">Rhood</text>
  <path d="M 387.5 330.0 L 573.5 330.0 L 567.5 129.0 Q 535.4 114.3 552.5 60.0 L 519.5 60.0 L 480.5 69.0 L 441.5 60.0 L 408.5 60.0 Q 425.6 114.3 393.5 129.0 L 387.5 330.0 z" fill="rgb(255,217,194)" stroke="black"/>
  <text fill="rgb(9,33,173)" font-size="25" x="455.5" y="139.33333333333334">back</text>
  <path d="M 633.5 159.0 L 675.5 132.0 L 711.5 141.0 Q 720.2 50.100000000000016 654.5 60.0 L 639.5 63.0 L 633.5 159.0 z" fill="rgb(255,217,194)" stroke="black"/>
  <text fill="rgb(9,33,173)" font-size="25" x="637.9" y="114.0">Lhood</text>
  <path d="M 771.5 330.0 L 864.5 330.0 L 858.5 129.0 Q 826.4 114.3 843.5 60.0 L 810.5 60.0 L 771.5 87.0 L 771.5 330.0 z" fill="rgb(255,217,194)" stroke="black"/>
  <text fill="rgb(9,33,173)" font-size="25" x="795.0" y="169.0">front_left</text>
</svg>
