<?xml version="1.0" encoding="utf-8" ?>
<svg xmlns="http://www.w3.org/2000/svg" xmlns:ev="http://www.w3.org/2001/xml-events" xmlns:xlink="http://www.w3.org/1999/xlink" baseProfile="full" height="387px" version="1.1" width="1554.0px">
  <defs/>
  <path d="M 60 327 L 210 327 L 189 60 L 90 60 Q 107.1 146.25 60 159 Q 76.8 167.4 60 327 z" fill="rgb(255,217,194)" stroke="black"/>
  <text fill="rgb(9,33,173)" font-size="25" x="96.8" y="189.6">Rback</text>
  <path d="M 270 327 L 420 327 Q 403.2 167.4 420 159 Q 377.85 144.75 390 60 L 291 60 L 270 327 z" fill="rgb(255,217,194)" stroke="black"/>
  <text fill="rgb(9,33,173)" font-size="25" x="333.2" y="189.6">Rfront</text>
  <path d="M 480 69 L 519 69 L 558 69 L 558 60 L 480 60 L 480 69 z" fill="rgb(255,217,194)" stroke="black"/>
  <text fill="rgb(9,33,173)" font-size="25" x="494.0" y="68.4">wb_back</text>
  <path d="M 624.0 69.0 L 663.0 69.0 L 702.0 69.0 L 702.0 60.0 L 624.0 60.0 L 624.0 69.0 z" fill="rgb(255,217,194)" stroke="black"/>
  <text fill="rgb(9,33,173)" font-size="25" x="638.0" y="68.4">wb_front</text>
  <path d="M 778.0 147.0 L 892.0 147.0 L 892.0 117.0 Q 866.5 103.5 883.0 60.0 L 853.0 60.0 Q 835.0 128.1864128406677 817.0 60.0 L 787.0 60.0 Q 803.5 103.5 778.0 117.0 L 778.0 147.0 z" fill="rgb(255,217,194)" stroke="black"/>
  <text fill="rgb(9,33,173)" font-size="25" x="810.0" y="99.0">top_back</text>
  <path d="M 952.0 147.0 L 1066.0 147.0 L 1066.0 114.0 Q 1041.7 101.39999999999999 1057.0 60.0 L 1027.0 60.0 L 1009.0 72.0 L 991.0 60.0 L 961.0 60.0 Q 976.3000000000001 101.39999999999999 952.0 114.0 L 952.0 147.0 z" fill="rgb(255,217,194)" stroke="black"/>
  <text fill="rgb(9,33,173)" font-size="25" x="984.0" y="95.66666666666667">top_front</text>
  <path d="M 1134.0 327.0 L 1284.0 327.0 Q 1267.2 167.4 1284.0 159.0 Q 1236.9 146.25 1254.0 60.0 L 1155.0 60.0 L 1134.0 327.0 z" fill="rgb(255,217,194)" stroke="black"/>
  <text fill="rgb(9,33,173)" font-size="25" x="1197.2" y="189.6">Lback</text>
  <path d="M 1344.0 327.0 L 1494.0 327.0 L 1473.0 60.0 L 1374.0 60.0 Q 1386.15 144.75 1344.0 159.0 Q 1360.8 167.4 1344.0 327.0 z" fill="rgb(255,217,194)" stroke="black"/>
  <text fill="rgb(9,33,173)" font-size="25" x="1380.8" y="189.6">Lfront</text>
</svg>
