<?xml version="1.0" encoding="utf-8" ?>
<svg xmlns="http://www.w3.org/2000/svg" xmlns:ev="http://www.w3.org/2001/xml-events" xmlns:xlink="http://www.w3.org/1999/xlink" baseProfile="full" height="306px" version="1.1" width="1680px">
  <defs/>
  <path d="M 60 210 L 189 210 Q 203.7 159.9 174 147 L 60 60 L 60 210 z" fill="rgb(255,217,194)" stroke="black"/>
  <text fill="rgb(9,33,173)" font-size="25" x="95.75" y="159.75">rbsleeve</text>
  <path d="M 249 210 L 363 123 Q 392.7 110.1 378 60 L 249 60 L 249 210 z" fill="rgb(255,217,194)" stroke="black"/>
  <text fill="rgb(9,33,173)" font-size="25" x="284.75" y="116.25">rfsleeve</text>
  <path d="M 438 246 L 672 246 L 639 123 Q 610.1999999999999 108.89999999999999 627 60 L 594 60 L 555 69 L 516 60 L 483 60 Q 499.8 108.89999999999999 471 123 L 438 246 z" fill="rgb(255,217,194)" stroke="black"/>
  <text fill="rgb(9,33,173)" font-size="25" x="530.0" y="119.33333333333333">back</text>
  <path d="M 732 246 L 966 246 L 933 123 Q 904.1999999999999 108.89999999999999 921 60 L 888 60 L 849 66 L 810 60 L 777 60 Q 793.8000000000001 108.89999999999999 765 123 L 732 246 z" fill="rgb(255,217,194)" stroke="black"/>
  <text fill="rgb(9,33,173)" font-size="25" x="824.0" y="119.0">front</text>
  <path d="M 1032 162 L 1089 162 Q 1152.9 141.3 1104 63 L 1068 72 L 1026 60 L 1032 162 z" fill="rgb(255,217,194)" stroke="black"/>
  <text fill="rgb(9,33,173)" font-size="25" x="1038.8" y="106.8">Rhood</text>
  <path d="M 1164 162 L 1206 150 L 1242 159 Q 1290.9 80.7 1227 60 L 1170 60 L 1164 162 z" fill="rgb(255,217,194)" stroke="black"/>
  <text fill="rgb(9,33,173)" font-size="25" x="1176.8" y="121.2">Lhood</text>
  <path d="M 1302 210 L 1416 123 Q 1445.7 110.1 1431 60 L 1302 60 L 1302 210 z" fill="rgb(255,217,194)" stroke="black"/>
  <text fill="rgb(9,33,173)" font-size="25" x="1337.75" y="116.25">lbsleeve</text>
  <path d="M 1491 210 L 1620 210 Q 1634.7 159.9 1605 147 L 1491 60 L 1491 210 z" fill="rgb(255,217,194)" stroke="black"/>
  <text fill="rgb(9,33,173)" font-size="25" x="1526.75" y="159.75">lfsleeve</text>
</svg>
