<?xml version="1.0" encoding="utf-8" ?>
<svg xmlns="http://www.w3.org/2000/svg" xmlns:ev="http://www.w3.org/2001/xml-events" xmlns:xlink="http://www.w3.org/1999/xlink" baseProfile="full" height="255px" version="1.1" width="1128px">
  <defs/>
  <path d="M 60 195 L 168 195 Q 167.1 79.8 159 60 L 90 60 Q 104.7 141.75 60 153 Q 64.2 155.1 60 195 z" fill="rgb(255,217,194)" stroke="black"/>
  <text fill="rgb(9,33,173)" font-size="25" x="82.4" y="135.6">Rback</text>
  <path d="M 228 195 L 336 195 Q 331.8 155.1 336 153 Q 295.95 140.25 306 60 L 237 60 Q 228.9 79.8 228 195 z" fill="rgb(255,217,194)" stroke="black"/>
  <text fill="rgb(9,33,173)" font-size="25" x="263.6" y="135.6">Rfront</text>
  <path d="M 396 168 L 465 168 L 534 168 L 525 105 Q 503.4 96.3 513 60 L 480 60 Q 465.0 65.10651834325371 450 60 L 417 60 Q 426.6 96.3 405 105 L 396 168 z" fill="rgb(255,217,194)" stroke="black"/>
  <text fill="rgb(9,33,173)" font-size="25" x="440.0" y="109.0">up_back</text>
  <path d="M 594 165 L 663 165 L 732 165 L 723 105 Q 701.4 96.3 711 60 L 678 60 L 663 96 L 648 60 L 615 60 Q 624.6 96.3 603 105 L 594 165 z" fill="rgb(255,217,194)" stroke="black"/>
  <text fill="rgb(9,33,173)" font-size="25" x="638.0" y="107.1">up_front</text>
  <path d="M 792 195 L 900 195 Q 895.8 155.1 900 153 Q 855.3 141.75 870 60 L 801 60 Q 792.9 79.8 792 195 z" fill="rgb(255,217,194)" stroke="black"/>
  <text fill="rgb(9,33,173)" font-size="25" x="827.6" y="135.6">Lback</text>
  <path d="M 960 195 L 1068 195 Q 1067.1 79.8 1059 60 L 990 60 Q 1000.05 140.25 960 153 Q 964.2 155.1 960 195 z" fill="rgb(255,217,194)" stroke="black"/>
  <text fill="rgb(9,33,173)" font-size="25" x="982.4" y="135.6">Lfront</text>
</svg>
