<?xml version="1.0" encoding="utf-8" ?>
<svg xmlns="http://www.w3.org/2000/svg" xmlns:ev="http://www.w3.org/2001/xml-events" xmlns:xlink="http://www.w3.org/1999/xlink" baseProfile="full" height="384px" version="1.1" width="661.0px">
  <defs/>
  <path d="M 60 324 L 147 324 L 147 156 L 129 60 L 93 60 Q 111.9 107.69999999999999 84 123 L 60 324 z" fill="rgb(255,217,194)" stroke="black"/>
  <text fill="rgb(9,33,173)" font-size="25" x="85.0" y="177.5">front_right</text>
  <path d="M 255.0 324.0 L 429.0 324.0 L 405.0 123.0 Q 377.1 107.69999999999999 396.0 60.0 L 360.0 60.0 Q 342.0 90.69681021191116 324.0 60.0 L 288.0 60.0 Q 306.9 107.69999999999999 279.0 123.0 L 255.0 324.0 z" fill="rgb(255,217,194)" stroke="black"/>
  <text fill="rgb(9,33,173)" font-size="25" x="317.0" y="144.75">back</text>
  <path d="M 489.0 324.0 L 576.0 324.0 L 552.0 123.0 Q 524.0999999999999 107.69999999999999 543.0 60.0 L 507.0 60.0 L 489.0 156.0 L 489.0 324.0 z" fill="rgb(255,217,194)" stroke="black"/>
  <text fill="rgb(9,33,173)" font-size="25" x="501.0" y="177.5">front_left</text>
</svg>
