<?xml version="1.0" encoding="utf-8" ?>
<svg xmlns="http://www.w3.org/2000/svg" xmlns:ev="http://www.w3.org/2001/xml-events" xmlns:xlink="http://www.w3.org/1999/xlink" baseProfile="full" height="399px" version="1.1" width="1092px">
  <defs/>
  <path d="M 60 339 L 156 339 Q 164.85 101.55 150 60 L 90 60 Q 104.7 141.75 60 153 Q 78.6 162.3 60 339 z" fill="rgb(255,217,194)" stroke="black"/>
  <text fill="rgb(9,33,173)" font-size="25" x="78.2" y="193.2">Rback</text>
  <path d="M 216 339 L 312 339 Q 293.4 162.3 312 153 Q 271.95 140.25 282 60 L 222 60 Q 207.15 101.55 216 339 z" fill="rgb(255,217,194)" stroke="black"/>
  <text fill="rgb(9,33,173)" font-size="25" x="243.8" y="193.2">Rfront</text>
  <path d="M 384 168 L 444 168 L 504 168 L 516 111 Q 492.9 99.3 507 60 L 456 60 Q 444.0 69.36648541631435 432 60 L 381 60 Q 395.09999999999997 99.29999999999998 372 111 L 384 168 z" fill="rgb(255,217,194)" stroke="black"/>
  <text fill="rgb(9,33,173)" font-size="25" x="419.0" y="110.33333333333333">up_back</text>
  <path d="M 588 165 L 648 165 L 708 165 L 720 111 Q 696.9 99.3 711 60 L 660 60 L 648 120 L 636 60 L 585 60 Q 599.1 99.29999999999998 576 111 L 588 165 z" fill="rgb(255,217,194)" stroke="black"/>
  <text fill="rgb(9,33,173)" font-size="25" x="623.0" y="110.7">up_front</text>
  <path d="M 780 339 L 876 339 Q 857.4 162.3 876 153 Q 831.3 141.75 846 60 L 786 60 Q 771.15 101.55 780 339 z" fill="rgb(255,217,194)" stroke="black"/>
  <text fill="rgb(9,33,173)" font-size="25" x="807.8" y="193.2">Lback</text>
  <path d="M 936 339 L 1032 339 Q 1040.8500000000001 101.55 1026 60 L 966 60 Q 976.05 140.25 936 153 Q 954.6 162.3 936 339 z" fill="rgb(255,217,194)" stroke="black"/>
  <text fill="rgb(9,33,173)" font-size="25" x="954.2" y="193.2">Lfront</text>
</svg>
