<?xml version="1.0" encoding="utf-8" ?>
<svg xmlns="http://www.w3.org/2000/svg" xmlns:ev="http://www.w3.org/2001/xml-events" xmlns:xlink="http://www.w3.org/1999/xlink" baseProfile="full" height="408.0px" version="1.1" width="1714.5px">
  <defs/>
  <path d="M 60 228 L 129 228 Q 140.1 184.2 114 174 L 60 60 L 60 228 z" fill="rgb(255,217,194)" stroke="black"/>
  <text fill="rgb(9,33,173)" font-size="25" x="65.75" y="175.5">rbsleeve</text>
  <path d="M 205.75 228.0 L 259.75 114.0 Q 285.85 103.8 274.75 60.0 L 205.75 60.0 L 205.75 228.0 z" fill="rgb(255,217,194)" stroke="black"/>
  <text fill="rgb(9,33,173)" font-size="25" x="211.5" y="118.5">rfsleeve</text>
  <path d="M 351.5 348.0 L 501.5 348.0 L 501.5 75.0 L 471.5 60.0 L 426.5 60.0 Q 437.6 103.8 411.5 114.0 L 351.5 348.0 z" fill="rgb(255,217,194)" stroke="black"/>
  <text fill="rgb(9,33,173)" font-size="25" x="419.0" y="170.5">front_right</text>
  <path d="M 589.0 180.0 L 661.0 171.0 Q 722.2 135.9 655.0 66.0 L 625.0 75.0 L 592.0 60.0 L 589.0 180.0 z" fill="rgb(255,217,194)" stroke="black"/>
  <text fill="rgb(9,33,173)" font-size="25" x="599.4" y="113.4">Rhood</text>
  <path d="M 721.0 348.0 L 1021.0 348.0 L 961.0 117.0 Q 933.7 105.9 946.0 60.0 L 901.0 60.0 L 871.0 69.0 L 841.0 60.0 L 796.0 60.0 Q 808.3 105.9 781.0 117.0 L 721.0 348.0 z" fill="rgb(255,217,194)" stroke="black"/>
  <text fill="rgb(9,33,173)" font-size="25" x="846.0" y="140.66666666666666">back</text>
  <path d="M 1084.0 180.0 L 1117.0 165.0 L 1147.0 174.0 Q 1214.2 104.1 1153.0 69.0 L 1081.0 60.0 L 1084.0 180.0 z" fill="rgb(255,217,194)" stroke="black"/>
  <text fill="rgb(9,33,173)" font-size="25" x="1091.4" y="132.6">Lhood</text>
  <path d="M 1213.0 348.0 L 1363.0 348.0 L 1303.0 114.0 Q 1276.9 103.8 1288.0 60.0 L 1243.0 60.0 L 1213.0 75.0 L 1213.0 348.0 z" fill="rgb(255,217,194)" stroke="black"/>
  <text fill="rgb(9,33,173)" font-size="25" x="1245.5" y="170.5">front_left</text>
  <path d="M 1423.0 228.0 L 1477.0 114.0 Q 1503.1 103.8 1492.0 60.0 L 1423.0 60.0 L 1423.0 228.0 z" fill="rgb(255,217,194)" stroke="black"/>
  <text fill="rgb(9,33,173)" font-size="25" x="1428.75" y="118.5">lbsleeve</text>
  <path d="M 1568.75 228.0 L 1637.75 228.0 Q 1648.85 184.2 1622.75 174.0 L 1568.75 60.0 L 1568.75 228.0 z" fill="rgb(255,217,194)" stroke="black"/>
  <text fill="rgb(9,33,173)" font-size="25" x="1574.5" y="175.5">lfsleeve</text>
</svg>
