<?xml version="1.0" encoding="utf-8" ?>
<svg xmlns="http://www.w3.org/2000/svg" xmlns:ev="http://www.w3.org/2001/xml-events" xmlns:xlink="http://www.w3.org/1999/xlink" baseProfile="full" height="462px" version="1.1" width="1384.0px">
  <defs/>
  <path d="M 60 168 L 165 168 Q 199.8 87.60000000000001 153 60 L 60 81 L 60 168 z" fill="rgb(255,217,194)" stroke="black"/>
  <text fill="rgb(9,33,173)" font-size="25" x="84.5" y="122.25">rbsleeve</text>
  <path d="M 225 147 L 318 168 Q 364.8 140.4 330 60 L 225 60 L 225 147 z" fill="rgb(255,217,194)" stroke="black"/>
  <text fill="rgb(9,33,173)" font-size="25" x="249.5" y="111.75">rfsleeve</text>
  <path d="M 390 402 L 498 402 L 498 111 L 459 60 L 435 60 Q 468.6 138.3 423 165 L 390 402 z" fill="rgb(255,217,194)" stroke="black"/>
  <text fill="rgb(9,33,173)" font-size="25" x="425.5" y="203.0">front_right</text>
  <path d="M 595.5 402.0 L 811.5 402.0 L 778.5 165.0 Q 732.9 138.3 766.5 60.0 L 742.5 60.0 Q 703.5 248.71534664751994 664.5 60.0 L 640.5 60.0 Q 674.1 138.3 628.5 165.0 L 595.5 402.0 z" fill="rgb(255,217,194)" stroke="black"/>
  <text fill="rgb(9,33,173)" font-size="25" x="678.5" y="174.75">back</text>
  <path d="M 871.5 402.0 L 979.5 402.0 L 946.5 165.0 Q 900.9 138.3 934.5 60.0 L 910.5 60.0 L 871.5 111.0 L 871.5 402.0 z" fill="rgb(255,217,194)" stroke="black"/>
  <text fill="rgb(9,33,173)" font-size="25" x="894.0" y="203.0">front_left</text>
  <path d="M 1054.0 147.0 L 1147.0 168.0 Q 1193.8 140.4 1159.0 60.0 L 1054.0 60.0 L 1054.0 147.0 z" fill="rgb(255,217,194)" stroke="black"/>
  <text fill="rgb(9,33,173)" font-size="25" x="1078.5" y="111.75">lbsleeve</text>
  <path d="M 1219.0 168.0 L 1324.0 168.0 Q 1358.8 87.60000000000001 1312.0 60.0 L 1219.0 81.0 L 1219.0 168.0 z" fill="rgb(255,217,194)" stroke="black"/>
  <text fill="rgb(9,33,173)" font-size="25" x="1243.5" y="122.25">lfsleeve</text>
</svg>
