<?xml version="1.0" encoding="utf-8" ?>
<svg xmlns="http://www.w3.org/2000/svg" xmlns:ev="http://www.w3.org/2001/xml-events" xmlns:xlink="http://www.w3.org/1999/xlink" baseProfile="full" height="474.0px" version="1.1" width="1280.0px">
  <defs/>
  <path d="M 60 120 L 147 120 Q 156.9 78.30000000000001 132 69 L 60 60 L 60 120 z" fill="rgb(255,217,194)" stroke="black"/>
  <text fill="rgb(9,33,173)" font-size="25" x="74.75" y="95.25">rbsleeve</text>
  <path d="M 214.75 120.0 L 286.75 111.0 Q 311.65 101.7 301.75 60.0 L 214.75 60.0 L 214.75 120.0 z" fill="rgb(255,217,194)" stroke="black"/>
  <text fill="rgb(9,33,173)" font-size="25" x="229.5" y="90.75">rfsleeve</text>
  <path d="M 384.5 414.0 L 456.5 414.0 L 456.5 135.0 L 411.5 60.0 L 384.5 60.0 Q 395.6 103.8 369.5 114.0 L 384.5 414.0 z" fill="rgb(255,217,194)" stroke="black"/>
  <text fill="rgb(9,33,173)" font-size="25" x="385.5" y="202.5">front_right</text>
  <path d="M 570.5 414.0 L 714.5 414.0 L 729.5 114.0 Q 703.4 103.8 714.5 60.0 L 687.5 60.0 Q 642.5 216.23388663285678 597.5 60.0 L 570.5 60.0 Q 581.6 103.8 555.5 114.0 L 570.5 414.0 z" fill="rgb(255,217,194)" stroke="black"/>
  <text fill="rgb(9,33,173)" font-size="25" x="617.5" y="165.0">back</text>
  <path d="M 789.5 414.0 L 861.5 414.0 L 876.5 114.0 Q 850.4 103.8 861.5 60.0 L 834.5 60.0 L 789.5 135.0 L 789.5 414.0 z" fill="rgb(255,217,194)" stroke="black"/>
  <text fill="rgb(9,33,173)" font-size="25" x="810.5" y="202.5">front_left</text>
  <path d="M 970.5 120.0 L 1042.5 111.0 Q 1067.4 101.7 1057.5 60.0 L 970.5 60.0 L 970.5 120.0 z" fill="rgb(255,217,194)" stroke="black"/>
  <text fill="rgb(9,33,173)" font-size="25" x="985.25" y="90.75">lbsleeve</text>
  <path d="M 1125.25 120.0 L 1212.25 120.0 Q 1222.15 78.30000000000001 1197.25 69.0 L 1125.25 60.0 L 1125.25 120.0 z" fill="rgb(255,217,194)" stroke="black"/>
  <text fill="rgb(9,33,173)" font-size="25" x="1140.0" y="95.25">lfsleeve</text>
</svg>
