<?xml version="1.0" encoding="utf-8" ?>
<svg xmlns="http://www.w3.org/2000/svg" xmlns:ev="http://www.w3.org/2001/xml-events" xmlns:xlink="http://www.w3.org/1999/xlink" baseProfile="full" height="228px" version="1.1" width="706.0px">
  <defs/>
  <path d="M 60 168 L 162 168 L 162 72 L 144 60 L 108 60 Q 136.8 129.9 96 153 L 60 168 z" fill="rgb(255,217,194)" stroke="black"/>
  <text fill="rgb(9,33,173)" font-size="25" x="97.0" y="116.5">front_right</text>
  <path d="M 267.0 168.0 L 471.0 168.0 L 435.0 156.0 Q 393.0 132.0 423.0 60.0 L 387.0 60.0 Q 369.0 160.80683830729345 351.0 60.0 L 315.0 60.0 Q 345.0 132.0 303.0 156.0 L 267.0 168.0 z" fill="rgb(255,217,194)" stroke="black"/>
  <text fill="rgb(9,33,173)" font-size="25" x="344.0" y="114.0">back</text>
  <path d="M 531.0 168.0 L 633.0 168.0 L 597.0 153.0 Q 556.1999999999999 129.9 585.0 60.0 L 549.0 60.0 L 531.0 72.0 L 531.0 168.0 z" fill="rgb(255,217,194)" stroke="black"/>
  <text fill="rgb(9,33,173)" font-size="25" x="546.0" y="116.5">front_left</text>
</svg>
