<?xml version="1.0" encoding="utf-8" ?>
<svg xmlns="http://www.w3.org/2000/svg" xmlns:ev="http://www.w3.org/2001/xml-events" xmlns:xlink="http://www.w3.org/1999/xlink" baseProfile="full" height="282.0px" version="1.1" width="1696.5px">
  <defs/>
  <path d="M 60 192 L 153 192 Q 170.1 137.7 138 123 L 60 60 L 60 192 z" fill="rgb(255,217,194)" stroke="black"/>
  <text fill="rgb(9,33,173)" font-size="25" x="77.75" y="144.75">rbsleeve</text>
  <path d="M 217.75 192.0 L 295.75 129.0 Q 327.85 114.3 310.75 60.0 L 217.75 60.0 L 217.75 192.0 z" fill="rgb(255,217,194)" stroke="black"/>
  <text fill="rgb(9,33,173)" font-size="25" x="235.5" y="113.25">rfsleeve</text>
  <path d="M 375.5 222.0 L 576.5 222.0 L 576.5 105.0 L 552.5 60.0 L 504.5 60.0 Q 523.7 113.1 492.5 129.0 L 375.5 222.0 z" fill="rgb(255,217,194)" stroke="black"/>
  <text fill="rgb(9,33,173)" font-size="25" x="488.0" y="136.0">front_right</text>
  <path d="M 658.0 222.0 L 1060.0 222.0 L 943.0 129.0 Q 911.8 113.1 931.0 60.0 L 883.0 60.0 Q 859.0 180.9948440864947 835.0 60.0 L 787.0 60.0 Q 806.2 113.1 775.0 129.0 L 658.0 222.0 z" fill="rgb(255,217,194)" stroke="black"/>
  <text fill="rgb(9,33,173)" font-size="25" x="834.0" y="120.75">back</text>
  <path d="M 1120.0 222.0 L 1321.0 222.0 L 1204.0 129.0 Q 1172.8000000000002 113.1 1192.0 60.0 L 1144.0 60.0 L 1120.0 105.0 L 1120.0 222.0 z" fill="rgb(255,217,194)" stroke="black"/>
  <text fill="rgb(9,33,173)" font-size="25" x="1158.5" y="136.0">front_left</text>
  <path d="M 1381.0 192.0 L 1459.0 129.0 Q 1491.1 114.3 1474.0 60.0 L 1381.0 60.0 L 1381.0 192.0 z" fill="rgb(255,217,194)" stroke="black"/>
  <text fill="rgb(9,33,173)" font-size="25" x="1398.75" y="113.25">lbsleeve</text>
  <path d="M 1538.75 192.0 L 1631.75 192.0 Q 1648.85 137.7 1616.75 123.0 L 1538.75 60.0 L 1538.75 192.0 z" fill="rgb(255,217,194)" stroke="black"/>
  <text fill="rgb(9,33,173)" font-size="25" x="1556.5" y="144.75">lfsleeve</text>
</svg>
