<?xml version="1.0" encoding="utf-8" ?>
<svg xmlns="http://www.w3.org/2000/svg" xmlns:ev="http://www.w3.org/2001/xml-events" xmlns:xlink="http://www.w3.org/1999/xlink" baseProfile="full" height="240px" version="1.1" width="1378.0px">
  <defs/>
  <path d="M 60 180 L 300 180 L 300 60 L 60 60 L 60 180 z" fill="rgb(255,217,194)" stroke="black"/>
  <text fill="rgb(9,33,173)" font-size="25" x="155.0" y="123.0">skirt_back</text>
  <path d="M 360 69 L 450 69 L 450 60 L 360 60 L 360 69 z" fill="rgb(255,217,194)" stroke="black"/>
  <text fill="rgb(9,33,173)" font-size="25" x="380.0" y="67.5">wb_back</text>
  <path d="M 510 69 L 600 69 L 600 60 L 510 60 L 510 69 z" fill="rgb(255,217,194)" stroke="black"/>
  <text fill="rgb(9,33,173)" font-size="25" x="530.0" y="67.5">wb_front</text>
  <path d="M 670.0 180.0 L 910.0 180.0 L 910.0 60.0 L 670.0 60.0 L 670.0 180.0 z" fill="rgb(255,217,194)" stroke="black"/>
  <text fill="rgb(9,33,173)" font-size="25" x="765.0" y="123.0">skirt_front</text>
  <path d="M 970.0 168.0 L 1114.0 168.0 L 1114.0 147.0 Q 1075.6000000000001 125.7 1102.0 60.0 L 1060.0 60.0 Q 1042.0 124.97809305380966 1024.0 60.0 L 982.0 60.0 Q 1008.4 125.7 970.0 147.0 L 970.0 168.0 z" fill="rgb(255,217,194)" stroke="black"/>
  <text fill="rgb(9,33,173)" font-size="25" x="1017.0" y="111.75">top_back</text>
  <path d="M 1174.0 168.0 L 1318.0 168.0 L 1318.0 147.0 Q 1279.6000000000001 125.7 1306.0 60.0 L 1264.0 60.0 L 1246.0 75.0 L 1228.0 60.0 L 1186.0 60.0 Q 1212.3999999999999 125.7 1174.0 147.0 L 1174.0 168.0 z" fill="rgb(255,217,194)" stroke="black"/>
  <text fill="rgb(9,33,173)" font-size="25" x="1221.0" y="108.0">top_front</text>
</svg>
