<?xml version="1.0" encoding="utf-8" ?>
<svg xmlns="http://www.w3.org/2000/svg" xmlns:ev="http://www.w3.org/2001/xml-events" xmlns:xlink="http://www.w3.org/1999/xlink" baseProfile="full" height="288.0px" version="1.1" width="1717.0px">
  <defs/>
  <path d="M 60 177 L 159 177 Q 185.1 116.70000000000002 150 96 L 60 60 L 60 177 z" fill="rgb(255,217,194)" stroke="black"/>
  <text fill="rgb(9,33,173)" font-size="25" x="82.25" y="130.5">rbsleeve</text>
  <path d="M 222.25 177.0 L 312.25 141.0 Q 347.34999999999997 120.3 321.25 60.0 L 222.25 60.0 L 222.25 177.0 z" fill="rgb(255,217,194)" stroke="black"/>
  <text fill="rgb(9,33,173)" font-size="25" x="244.5" y="112.5">rfsleeve</text>
  <path d="M 384.5 228.0 L 453.5 228.0 Q 484.84999999999997 86.55000000000001 480.5 60.0 L 414.5 60.0 Q 429.2 141.75 384.5 153.0 Q 392.0 156.75 384.5 228.0 z" fill="rgb(255,217,194)" stroke="black"/>
  <text fill="rgb(9,33,173)" font-size="25" x="398.5" y="148.8">Rback</text>
  <path d="M 567.5 228.0 L 636.5 228.0 Q 629.0 156.75 636.5 153.0 Q 596.45 140.25 606.5 60.0 L 540.5 60.0 Q 536.15 86.55 567.5 228.0 z" fill="rgb(255,217,194)" stroke="black"/>
  <text fill="rgb(9,33,173)" font-size="25" x="572.5" y="148.8">Rfront</text>
  <path d="M 696.5 168.0 L 762.5 168.0 L 828.5 168.0 L 825.5 138.0 Q 791.5999999999999 118.19999999999999 816.5 60.0 L 786.5 60.0 Q 762.5 82.68115760893059 738.5 60.0 L 708.5 60.0 Q 733.4000000000001 118.19999999999999 699.5 138.0 L 696.5 168.0 z" fill="rgb(255,217,194)" stroke="black"/>
  <text fill="rgb(9,33,173)" font-size="25" x="737.5" y="116.33333333333333">up_back</text>
  <path d="M 888.5 165.0 L 954.5 165.0 L 1020.5 165.0 L 1017.5 138.0 Q 983.5999999999999 118.19999999999999 1008.5 60.0 L 978.5 60.0 L 954.5 105.0 L 930.5 60.0 L 900.5 60.0 Q 925.4000000000001 118.19999999999999 891.5 138.0 L 888.5 165.0 z" fill="rgb(255,217,194)" stroke="black"/>
  <text fill="rgb(9,33,173)" font-size="25" x="929.5" y="114.6">up_front</text>
  <path d="M 1107.5 228.0 L 1176.5 228.0 Q 1169.0 156.75 1176.5 153.0 Q 1131.8 141.75 1146.5 60.0 L 1080.5 60.0 Q 1076.1499999999999 86.55 1107.5 228.0 z" fill="rgb(255,217,194)" stroke="black"/>
  <text fill="rgb(9,33,173)" font-size="25" x="1112.5" y="148.8">Lback</text>
  <path d="M 1236.5 228.0 L 1305.5 228.0 Q 1336.8500000000001 86.55000000000001 1332.5 60.0 L 1266.5 60.0 Q 1276.55 140.25 1236.5 153.0 Q 1244.0 156.75 1236.5 228.0 z" fill="rgb(255,217,194)" stroke="black"/>
  <text fill="rgb(9,33,173)" font-size="25" x="1250.5" y="148.8">Lfront</text>
  <path d="M 1392.5 177.0 L 1482.5 141.0 Q 1517.6000000000001 120.3 1491.5 60.0 L 1392.5 60.0 L 1392.5 177.0 z" fill="rgb(255,217,194)" stroke="black"/>
  <text fill="rgb(9,33,173)" font-size="25" x="1414.75" y="112.5">lbsleeve</text>
  <path d="M 1554.75 177.0 L 1653.75 177.0 Q 1679.8500000000001 116.70000000000002 1644.75 96.0 L 1554.75 60.0 L 1554.75 177.0 z" fill="rgb(255,217,194)" stroke="black"/>
  <text fill="rgb(9,33,173)" font-size="25" x="1577.0" y="130.5">lfsleeve</text>
</svg>
