<?xml version="1.0" encoding="utf-8" ?>
<svg xmlns="http://www.w3.org/2000/svg" xmlns:ev="http://www.w3.org/2001/xml-events" xmlns:xlink="http://www.w3.org/1999/xlink" baseProfile="full" height="498px" version="1.1" width="1122.0px">
  <defs/>
  <path d="M 60 438 L 276 438 L 276 69 L 255 60 L 201 60 Q 220.5 118.5 186 135 L 60 438 z" fill="rgb(255,217,194)" stroke="black"/>
  <text fill="rgb(9,33,173)" font-size="25" x="184.0" y="203.0">front_right</text>
  <path d="M 354.0 438.0 L 786.0 438.0 L 660.0 135.0 Q 625.5 118.5 645.0 60.0 L 591.0 60.0 Q 570.0 142.6557208948044 549.0 60.0 L 495.0 60.0 Q 514.5 118.5 480.0 135.0 L 354.0 438.0 z" fill="rgb(255,217,194)" stroke="black"/>
  <text fill="rgb(9,33,173)" font-size="25" x="545.0" y="176.25">back</text>
  <path d="M 846.0 438.0 L 1062.0 438.0 L 936.0 135.0 Q 901.5 118.5 921.0 60.0 L 867.0 60.0 L 846.0 69.0 L 846.0 438.0 z" fill="rgb(255,217,194)" stroke="black"/>
  <text fill="rgb(9,33,173)" font-size="25" x="888.0" y="203.0">front_left</text>
</svg>
