<?xml version="1.0" encoding="utf-8" ?>
<svg xmlns="http://www.w3.org/2000/svg" xmlns:ev="http://www.w3.org/2001/xml-events" xmlns:xlink="http://www.w3.org/1999/xlink" baseProfile="full" height="402px" version="1.1" width="1566.0px">
  <defs/>
  <path d="M 60 342 L 213 342 L 198 60 L 90 60 Q 104.7 141.75 60 153 Q 78.9 162.45 60 342 z" fill="rgb(255,217,194)" stroke="black"/>
  <text fill="rgb(9,33,173)" font-size="25" x="99.2" y="194.4">Rback</text>
  <path d="M 273 342 L 426 342 Q 407.1 162.45000000000002 426 153 Q 385.95 140.25 396 60 L 288 60 L 273 342 z" fill="rgb(255,217,194)" stroke="black"/>
  <text fill="rgb(9,33,173)" font-size="25" x="336.8" y="194.4">Rfront</text>
  <path d="M 486 75 L 525 75 L 564 75 L 564 60 L 486 60 L 486 75 z" fill="rgb(255,217,194)" stroke="black"/>
  <text fill="rgb(9,33,173)" font-size="25" x="500.0" y="72.0">wb_back</text>
  <path d="M 630.0 75.0 L 669.0 75.0 L 708.0 75.0 L 708.0 60.0 L 630.0 60.0 L 630.0 75.0 z" fill="rgb(255,217,194)" stroke="black"/>
  <text fill="rgb(9,33,173)" font-size="25" x="644.0" y="72.0">wb_front</text>
  <path d="M 784.0 150.0 L 898.0 150.0 L 898.0 126.0 Q 868.9 109.8 889.0 60.0 L 868.0 60.0 Q 841.0 136.10029800679993 814.0 60.0 L 793.0 60.0 Q 813.1 109.79999999999998 784.0 126.0 L 784.0 150.0 z" fill="rgb(255,217,194)" stroke="black"/>
  <text fill="rgb(9,33,173)" font-size="25" x="816.0" y="102.0">top_back</text>
  <path d="M 958.0 150.0 L 1072.0 150.0 L 1072.0 126.0 Q 1042.8999999999999 109.8 1063.0 60.0 L 1042.0 60.0 L 1015.0 114.0 L 988.0 60.0 L 967.0 60.0 Q 987.1 109.79999999999998 958.0 126.0 L 958.0 150.0 z" fill="rgb(255,217,194)" stroke="black"/>
  <text fill="rgb(9,33,173)" font-size="25" x="990.0" y="103.66666666666667">top_front</text>
  <path d="M 1140.0 342.0 L 1293.0 342.0 Q 1274.1 162.45000000000002 1293.0 153.0 Q 1248.3 141.75 1263.0 60.0 L 1155.0 60.0 L 1140.0 342.0 z" fill="rgb(255,217,194)" stroke="black"/>
  <text fill="rgb(9,33,173)" font-size="25" x="1203.8" y="194.4">Lback</text>
  <path d="M 1353.0 342.0 L 1506.0 342.0 L 1491.0 60.0 L 1383.0 60.0 Q 1393.05 140.25 1353.0 153.0 Q 1371.9 162.45 1353.0 342.0 z" fill="rgb(255,217,194)" stroke="black"/>
  <text fill="rgb(9,33,173)" font-size="25" x="1392.2" y="194.4">Lfront</text>
</svg>
