<?xml version="1.0" encoding="utf-8" ?>
<svg xmlns="http://www.w3.org/2000/svg" xmlns:ev="http://www.w3.org/2001/xml-events" xmlns:xlink="http://www.w3.org/1999/xlink" baseProfile="full" height="438.0px" version="1.1" width="706.0px">
  <defs/>
  <path d="M 60 375 L 162 375 L 162 114 L 132 60 L 102 60 Q 136.8 140.4 90 168 L 60 375 z" fill="rgb(255,217,194)" stroke="black"/>
  <text fill="rgb(9,33,173)" font-size="25" x="93.0" y="195.0">front_right</text>
  <path d="M 263.0 378.0 L 467.0 378.0 L 437.0 168.0 Q 390.2 140.4 425.0 60.0 L 395.0 60.0 Q 365.0 117.33236303457946 335.0 60.0 L 305.0 60.0 Q 339.8 140.4 293.0 168.0 L 263.0 378.0 z" fill="rgb(255,217,194)" stroke="black"/>
  <text fill="rgb(9,33,173)" font-size="25" x="340.0" y="169.5">back</text>
  <path d="M 527.0 375.0 L 629.0 375.0 L 599.0 168.0 Q 552.1999999999999 140.4 587.0 60.0 L 557.0 60.0 L 527.0 114.0 L 527.0 375.0 z" fill="rgb(255,217,194)" stroke="black"/>
  <text fill="rgb(9,33,173)" font-size="25" x="546.0" y="195.0">front_left</text>
</svg>
