<?xml version="1.0" encoding="utf-8" ?>
<svg xmlns="http://www.w3.org/2000/svg" xmlns:ev="http://www.w3.org/2001/xml-events" xmlns:xlink="http://www.w3.org/1999/xlink" baseProfile="full" height="330px" version="1.1" width="910.0px">
  <defs/>
  <path d="M 60 270 L 144 270 L 144 105 L 114 60 L 87 60 Q 102.6 106.8 75 120 L 60 270 z" fill="rgb(255,217,194)" stroke="black"/>
  <text fill="rgb(9,33,173)" font-size="25" x="79.0" y="150.5">front_right</text>
  <path d="M 249.0 207.0 L 270.0 204.0 Q 349.2 200.39999999999998 318.0 96.0 L 285.0 105.0 L 252.0 60.0 L 249.0 207.0 z" fill="rgb(255,217,194)" stroke="black"/>
  <text fill="rgb(9,33,173)" font-size="25" x="249.8" y="137.4">Rhood</text>
  <path d="M 378.0 270.0 L 546.0 270.0 L 531.0 120.0 Q 503.4 106.8 519.0 60.0 L 492.0 60.0 L 462.0 69.0 L 432.0 60.0 L 405.0 60.0 Q 420.6 106.8 393.0 120.0 L 378.0 270.0 z" fill="rgb(255,217,194)" stroke="black"/>
  <text fill="rgb(9,33,173)" font-size="25" x="437.0" y="124.0">back</text>
  <path d="M 609.0 207.0 L 642.0 162.0 L 675.0 171.0 Q 706.1999999999999 66.60000000000001 627.0 63.0 L 606.0 60.0 L 609.0 207.0 z" fill="rgb(255,217,194)" stroke="black"/>
  <text fill="rgb(9,33,173)" font-size="25" x="606.8" y="135.6">Lhood</text>
  <path d="M 735.0 270.0 L 819.0 270.0 L 804.0 120.0 Q 776.4 106.8 792.0 60.0 L 765.0 60.0 L 735.0 105.0 L 735.0 270.0 z" fill="rgb(255,217,194)" stroke="black"/>
  <text fill="rgb(9,33,173)" font-size="25" x="750.0" y="150.5">front_left</text>
</svg>
