<?xml version="1.0" encoding="utf-8" ?>
<svg xmlns="http://www.w3.org/2000/svg" xmlns:ev="http://www.w3.org/2001/xml-events" xmlns:xlink="http://www.w3.org/1999/xlink" baseProfile="full" height="240.0px" version="1.1" width="913.0px">
  <defs/>
  <path d="M 60 159 L 147 159 L 147 69 L 117 60 L 75 60 Q 105.0 132.0 63 156 L 60 159 z" fill="rgb(255,217,194)" stroke="black"/>
  <text fill="rgb(9,33,173)" font-size="25" x="76.5" y="113.5">front_right</text>
  <path d="M 246.5 180.0 L 255.5 180.0 Q 344.6 178.2 312.5 60.0 L 282.5 69.0 L 249.5 60.0 L 246.5 180.0 z" fill="rgb(255,217,194)" stroke="black"/>
  <text fill="rgb(9,33,173)" font-size="25" x="244.3" y="112.8">Rhood</text>
  <path d="M 372.5 159.0 L 546.5 159.0 L 543.5 159.0 Q 500.29999999999995 134.10000000000002 531.5 60.0 L 489.5 60.0 L 459.5 69.0 L 429.5 60.0 L 387.5 60.0 Q 418.70000000000005 134.10000000000002 375.5 159.0 L 372.5 159.0 z" fill="rgb(255,217,194)" stroke="black"/>
  <text fill="rgb(9,33,173)" font-size="25" x="434.5" y="108.0">back</text>
  <path d="M 609.5 180.0 L 642.5 171.0 L 672.5 180.0 Q 704.6 61.800000000000004 615.5 60.0 L 606.5 60.0 L 609.5 180.0 z" fill="rgb(255,217,194)" stroke="black"/>
  <text fill="rgb(9,33,173)" font-size="25" x="604.3" y="133.2">Lhood</text>
  <path d="M 732.5 159.0 L 819.5 159.0 L 816.5 156.0 Q 774.5 132.0 804.5 60.0 L 762.5 60.0 L 732.5 69.0 L 732.5 159.0 z" fill="rgb(255,217,194)" stroke="black"/>
  <text fill="rgb(9,33,173)" font-size="25" x="753.0" y="113.5">front_left</text>
</svg>
