<?xml version="1.0" encoding="utf-8" ?>
<svg xmlns="http://www.w3.org/2000/svg" xmlns:ev="http://www.w3.org/2001/xml-events" xmlns:xlink="http://www.w3.org/1999/xlink" baseProfile="full" height="267px" version="1.1" width="1176px">
  <defs/>
  <path d="M 60 207 L 153 207 Q 170.54999999999998 82.64999999999999 165 60 L 90 60 Q 104.7 141.75 60 153 Q 65.4 155.7 60 207 z" fill="rgb(255,217,194)" stroke="black"/>
  <text fill="rgb(9,33,173)" font-size="25" x="80.6" y="140.4">Rback</text>
  <path d="M 237 207 L 330 207 Q 324.6 155.7 330 153 Q 289.95 140.25 300 60 L 225 60 Q 219.45000000000002 82.64999999999999 237 207 z" fill="rgb(255,217,194)" stroke="black"/>
  <text fill="rgb(9,33,173)" font-size="25" x="259.4" y="140.4">Rfront</text>
  <path d="M 396 168 L 474 168 L 552 168 L 558 123 Q 528.3 110.1 543 60 L 495 60 Q 474.0 111.42491070912348 453 60 L 405 60 Q 419.7 110.1 390 123 L 396 168 z" fill="rgb(255,217,194)" stroke="black"/>
  <text fill="rgb(9,33,173)" font-size="25" x="449.0" y="113.0">up_back</text>
  <path d="M 624 165 L 702 165 L 780 165 L 786 123 Q 756.3 110.1 771 60 L 723 60 L 702 75 L 681 60 L 633 60 Q 647.7 110.1 618 123 L 624 165 z" fill="rgb(255,217,194)" stroke="black"/>
  <text fill="rgb(9,33,173)" font-size="25" x="677.0" y="108.6">up_front</text>
  <path d="M 858 207 L 951 207 Q 945.6 155.7 951 153 Q 906.3 141.75 921 60 L 846 60 Q 840.4499999999999 82.64999999999999 858 207 z" fill="rgb(255,217,194)" stroke="black"/>
  <text fill="rgb(9,33,173)" font-size="25" x="880.4" y="140.4">Lback</text>
  <path d="M 1011 207 L 1104 207 Q 1121.55 82.64999999999999 1116 60 L 1041 60 Q 1051.05 140.25 1011 153 Q 1016.4 155.7 1011 207 z" fill="rgb(255,217,194)" stroke="black"/>
  <text fill="rgb(9,33,173)" font-size="25" x="1031.6" y="140.4">Lfront</text>
</svg>
