<?xml version="1.0" encoding="utf-8" ?>
<svg xmlns="http://www.w3.org/2000/svg" xmlns:ev="http://www.w3.org/2001/xml-events" xmlns:xlink="http://www.w3.org/1999/xlink" baseProfile="full" height="273px" version="1.1" width="919.0px">
  <defs/>
  <path d="M 60 213 L 159 213 L 159 87 L 144 60 L 96 60 Q 105.6 96.3 84 105 L 60 213 z" fill="rgb(255,217,194)" stroke="black"/>
  <text fill="rgb(9,33,173)" font-size="25" x="92.0" y="126.0">front_right</text>
  <path d="M 262.0 195.0 L 280.0 192.0 Q 358.29999999999995 177.60000000000002 313.0 78.0 L 298.0 87.0 L 280.0 60.0 L 262.0 195.0 z" fill="rgb(255,217,194)" stroke="black"/>
  <text fill="rgb(9,33,173)" font-size="25" x="261.6" y="125.4">Rhood</text>
  <path d="M 373.0 213.0 L 571.0 213.0 L 547.0 105.0 Q 525.4 96.3 535.0 60.0 L 487.0 60.0 L 472.0 69.0 L 457.0 60.0 L 409.0 60.0 Q 418.6 96.3 397.0 105.0 L 373.0 213.0 z" fill="rgb(255,217,194)" stroke="black"/>
  <text fill="rgb(9,33,173)" font-size="25" x="447.0" y="108.0">back</text>
  <path d="M 649.0 195.0 L 667.0 168.0 L 682.0 177.0 Q 727.3 77.4 649.0 63.0 L 631.0 60.0 L 649.0 195.0 z" fill="rgb(255,217,194)" stroke="black"/>
  <text fill="rgb(9,33,173)" font-size="25" x="630.6" y="135.6">Lhood</text>
  <path d="M 742.0 213.0 L 841.0 213.0 L 817.0 105.0 Q 795.4 96.3 805.0 60.0 L 757.0 60.0 L 742.0 87.0 L 742.0 213.0 z" fill="rgb(255,217,194)" stroke="black"/>
  <text fill="rgb(9,33,173)" font-size="25" x="759.0" y="126.0">front_left</text>
</svg>
