<?xml version="1.0" encoding="utf-8" ?>
<svg xmlns="http://www.w3.org/2000/svg" xmlns:ev="http://www.w3.org/2001/xml-events" xmlns:xlink="http://www.w3.org/1999/xlink" baseProfile="full" height="339.0px" version="1.1" width="778.0px">
  <defs/>
  <path d="M 60 276 L 186 276 L 186 138 L 159 60 L 114 60 Q 135.9 122.69999999999999 99 141 L 60 276 z" fill="rgb(255,217,194)" stroke="black"/>
  <text fill="rgb(9,33,173)" font-size="25" x="109.0" y="161.5">front_right</text>
  <path d="M 279.0 279.0 L 531.0 279.0 L 492.0 144.0 Q 453.9 124.8 477.0 60.0 L 432.0 60.0 Q 405.0 78.19518891261117 378.0 60.0 L 333.0 60.0 Q 356.1 124.8 318.0 144.0 L 279.0 279.0 z" fill="rgb(255,217,194)" stroke="black"/>
  <text fill="rgb(9,33,173)" font-size="25" x="380.0" y="138.75">back</text>
  <path d="M 591.0 276.0 L 717.0 276.0 L 678.0 141.0 Q 641.1 122.7 663.0 60.0 L 618.0 60.0 L 591.0 138.0 L 591.0 276.0 z" fill="rgb(255,217,194)" stroke="black"/>
  <text fill="rgb(9,33,173)" font-size="25" x="618.0" y="161.5">front_left</text>
</svg>
