<?xml version="1.0" encoding="utf-8" ?>
<svg xmlns="http://www.w3.org/2000/svg" xmlns:ev="http://www.w3.org/2001/xml-events" xmlns:xlink="http://www.w3.org/1999/xlink" baseProfile="full" height="318px" version="1.1" width="1176px">
  <defs/>
  <path d="M 60 258 L 153 258 Q 175.65 90.45000000000002 168 60 L 90 60 Q 104.7 141.75 60 153 Q 70.5 158.25 60 258 z" fill="rgb(255,217,194)" stroke="black"/>
  <text fill="rgb(9,33,173)" font-size="25" x="81.2" y="160.8">Rback</text>
  <path d="M 243 258 L 336 258 Q 325.5 158.25 336 153 Q 295.95 140.25 306 60 L 228 60 Q 220.35 90.45 243 258 z" fill="rgb(255,217,194)" stroke="black"/>
  <text fill="rgb(9,33,173)" font-size="25" x="264.8" y="160.8">Rfront</text>
  <path d="M 396 168 L 477 168 L 558 168 L 552 114 Q 526.8 102.6 540 60 L 513 60 Q 477.0 107.22934099216707 441 60 L 414 60 Q 427.20000000000005 102.6 402 114 L 396 168 z" fill="rgb(255,217,194)" stroke="black"/>
  <text fill="rgb(9,33,173)" font-size="25" x="452.0" y="111.0">up_back</text>
  <path d="M 618 165 L 699 165 L 780 165 L 774 114 Q 748.8 102.6 762 60 L 735 60 L 699 138 L 663 60 L 636 60 Q 649.2 102.6 624 114 L 618 165 z" fill="rgb(255,217,194)" stroke="black"/>
  <text fill="rgb(9,33,173)" font-size="25" x="674.0" y="113.1">up_front</text>
  <path d="M 855 258 L 948 258 Q 937.5 158.25 948 153 Q 903.3 141.75 918 60 L 840 60 Q 832.35 90.45 855 258 z" fill="rgb(255,217,194)" stroke="black"/>
  <text fill="rgb(9,33,173)" font-size="25" x="876.8" y="160.8">Lback</text>
  <path d="M 1008 258 L 1101 258 Q 1123.65 90.45000000000002 1116 60 L 1038 60 Q 1048.05 140.25 1008 153 Q 1018.5 158.25 1008 258 z" fill="rgb(255,217,194)" stroke="black"/>
  <text fill="rgb(9,33,173)" font-size="25" x="1029.2" y="160.8">Lfront</text>
</svg>
