<?xml version="1.0" encoding="utf-8" ?>
<svg xmlns="http://www.w3.org/2000/svg" xmlns:ev="http://www.w3.org/2001/xml-events" xmlns:xlink="http://www.w3.org/1999/xlink" baseProfile="full" height="270.0px" version="1.1" width="1618.0px">
  <defs/>
  <path d="M 60 159 L 117 159 Q 127.8 120.60000000000001 105 111 L 60 60 L 60 159 z" fill="rgb(255,217,194)" stroke="black"/>
  <text fill="rgb(9,33,173)" font-size="25" x="60.5" y="125.25">rbsleeve</text>
  <path d="M 200.5 159.0 L 245.5 108.0 Q 268.3 98.39999999999999 257.5 60.0 L 200.5 60.0 L 200.5 159.0 z" fill="rgb(255,217,194)" stroke="black"/>
  <text fill="rgb(9,33,173)" font-size="25" x="201.0" y="99.75">rfsleeve</text>
  <path d="M 341.0 210.0 Q 452.0 161.91062861500225 563.0 210.0 L 536.0 102.0 L 530.0 60.0 L 374.0 60.0 L 368.0 102.0 L 341.0 210.0 z" fill="rgb(255,217,194)" stroke="black"/>
  <text fill="rgb(9,33,173)" font-size="25" x="427.0" y="127.0">skirt_back</text>
  <path d="M 623.0 210.0 Q 734.0 289.0309065810788 845.0 210.0 L 818.0 102.0 L 812.0 60.0 L 656.0 60.0 L 650.0 102.0 L 623.0 210.0 z" fill="rgb(255,217,194)" stroke="black"/>
  <text fill="rgb(9,33,173)" font-size="25" x="709.0" y="127.0">skirt_front</text>
  <path d="M 905.0 168.0 L 1061.0 168.0 L 1058.0 111.0 Q 1034.0 100.5 1046.0 60.0 L 1013.0 60.0 Q 983.0 106.20439791548678 953.0 60.0 L 920.0 60.0 Q 932.0 100.49999999999999 908.0 111.0 L 905.0 168.0 z" fill="rgb(255,217,194)" stroke="black"/>
  <text fill="rgb(9,33,173)" font-size="25" x="958.0" y="102.75">top_back</text>
  <path d="M 1121.0 165.0 L 1277.0 165.0 L 1274.0 111.0 Q 1250.0 100.5 1262.0 60.0 L 1229.0 60.0 L 1199.0 129.0 L 1169.0 60.0 L 1136.0 60.0 Q 1148.0 100.49999999999999 1124.0 111.0 L 1121.0 165.0 z" fill="rgb(255,217,194)" stroke="black"/>
  <text fill="rgb(9,33,173)" font-size="25" x="1174.0" y="105.33333333333333">top_front</text>
  <path d="M 1337.0 159.0 L 1382.0 108.0 Q 1404.8 98.39999999999999 1394.0 60.0 L 1337.0 60.0 L 1337.0 159.0 z" fill="rgb(255,217,194)" stroke="black"/>
  <text fill="rgb(9,33,173)" font-size="25" x="1337.5" y="99.75">lbsleeve</text>
  <path d="M 1477.5 159.0 L 1534.5 159.0 Q 1545.3 120.60000000000001 1522.5 111.0 L 1477.5 60.0 L 1477.5 159.0 z" fill="rgb(255,217,194)" stroke="black"/>
  <text fill="rgb(9,33,173)" font-size="25" x="1478.0" y="125.25">lfsleeve</text>
</svg>
