<?xml version="1.0" encoding="utf-8" ?>
<svg xmlns="http://www.w3.org/2000/svg" xmlns:ev="http://www.w3.org/2001/xml-events" xmlns:xlink="http://www.w3.org/1999/xlink" baseProfile="full" height="405px" version="1.1" width="1188.2px">
  <defs/>
  <path d="M 60 345 L 93 345 Q 173.55 106.65 171 60 L 90 60 Q 104.7 141.75 60 153 Q 79.2 162.6 60 345 z" fill="rgb(255,217,194)" stroke="black"/>
  <text fill="rgb(9,33,173)" font-size="25" x="69.8" y="195.6">Rback</text>
  <path d="M 309 345 L 342 345 Q 322.8 162.60000000000002 342 153 Q 301.95 140.25 312 60 L 231 60 Q 228.45 106.65 309 345 z" fill="rgb(255,217,194)" stroke="black"/>
  <text fill="rgb(9,33,173)" font-size="25" x="282.2" y="195.6">Rfront</text>
  <path d="M 402.2 168.0 L 483.2 168.0 L 564.2 168.0 L 558.2 111.0 Q 534.2 100.5 546.2 60.0 L 513.2 60.0 Q 483.20000000000005 106.68790127471502 453.2 60.0 L 420.2 60.0 Q 432.2 100.49999999999999 408.2 111.0 L 402.2 168.0 z" fill="rgb(255,217,194)" stroke="black"/>
  <text fill="rgb(9,33,173)" font-size="25" x="458.19999999999993" y="110.33333333333333">up_back</text>
  <path d="M 624.2 165.0 L 705.2 165.0 L 786.2 165.0 L 780.2 111.0 Q 756.2 100.5 768.2 60.0 L 735.2 60.0 L 705.2 132.0 L 675.2 60.0 L 642.2 60.0 Q 654.2 100.49999999999999 630.2 111.0 L 624.2 165.0 z" fill="rgb(255,217,194)" stroke="black"/>
  <text fill="rgb(9,33,173)" font-size="25" x="680.1999999999999" y="111.9">up_front</text>
  <path d="M 924.2 345.0 L 957.2 345.0 Q 938.0 162.60000000000002 957.2 153.0 Q 912.5 141.75 927.2 60.0 L 846.2 60.0 Q 843.6500000000001 106.65 924.2 345.0 z" fill="rgb(255,217,194)" stroke="black"/>
  <text fill="rgb(9,33,173)" font-size="25" x="897.4" y="195.6">Lback</text>
  <path d="M 1017.2 345.0 L 1050.2 345.0 Q 1130.75 106.65 1128.2 60.0 L 1047.2 60.0 Q 1057.25 140.25 1017.2 153.0 Q 1036.4 162.6 1017.2 345.0 z" fill="rgb(255,217,194)" stroke="black"/>
  <text fill="rgb(9,33,173)" font-size="25" x="1027.0" y="195.6">Lfront</text>
</svg>
