<?xml version="1.0" encoding="utf-8" ?>
<svg xmlns="http://www.w3.org/2000/svg" xmlns:ev="http://www.w3.org/2001/xml-events" xmlns:xlink="http://www.w3.org/1999/xlink" baseProfile="full" height="300px" version="1.1" width="1558.0px">
  <defs/>
  <path d="M 60 240 L 144 240 L 204 60 L 90 60 Q 98.7 130.5 60 138 Q 70.2 143.1 60 240 z" fill="rgb(255,217,194)" stroke="black"/>
  <text fill="rgb(9,33,173)" font-size="25" x="86.6" y="150.6">Rback</text>
  <path d="M 324 240 L 408 240 Q 397.8 143.10000000000002 408 138 Q 373.2 129.0 378 60 L 264 60 L 324 240 z" fill="rgb(255,217,194)" stroke="black"/>
  <text fill="rgb(9,33,173)" font-size="25" x="331.4" y="150.6">Rfront</text>
  <path d="M 468 69 L 507 69 L 546 69 L 546 60 L 468 60 L 468 69 z" fill="rgb(255,217,194)" stroke="black"/>
  <text fill="rgb(9,33,173)" font-size="25" x="482.0" y="68.4">wb_back</text>
  <path d="M 612.0 69.0 L 651.0 69.0 L 690.0 69.0 L 690.0 60.0 L 612.0 60.0 L 612.0 69.0 z" fill="rgb(255,217,194)" stroke="black"/>
  <text fill="rgb(9,33,173)" font-size="25" x="626.0" y="68.4">wb_front</text>
  <path d="M 766.0 138.0 L 898.0 138.0 L 898.0 138.0 Q 863.1999999999999 119.39999999999999 886.0 60.0 L 847.0 60.0 Q 832.0 106.84460439606585 817.0 60.0 L 778.0 60.0 Q 800.8000000000001 119.39999999999999 766.0 138.0 L 766.0 138.0 z" fill="rgb(255,217,194)" stroke="black"/>
  <text fill="rgb(9,33,173)" font-size="25" x="807.0" y="102.0">top_back</text>
  <path d="M 958.0 138.0 L 1090.0 138.0 L 1090.0 138.0 Q 1055.2 119.39999999999999 1078.0 60.0 L 1039.0 60.0 L 1024.0 120.0 L 1009.0 60.0 L 970.0 60.0 Q 992.8000000000001 119.39999999999999 958.0 138.0 L 958.0 138.0 z" fill="rgb(255,217,194)" stroke="black"/>
  <text fill="rgb(9,33,173)" font-size="25" x="999.0" y="104.33333333333333">top_front</text>
  <path d="M 1210.0 240.0 L 1294.0 240.0 Q 1283.8 143.10000000000002 1294.0 138.0 Q 1255.3 130.5 1264.0 60.0 L 1150.0 60.0 L 1210.0 240.0 z" fill="rgb(255,217,194)" stroke="black"/>
  <text fill="rgb(9,33,173)" font-size="25" x="1217.4" y="150.6">Lback</text>
  <path d="M 1354.0 240.0 L 1438.0 240.0 L 1498.0 60.0 L 1384.0 60.0 Q 1388.8 129.0 1354.0 138.0 Q 1364.2 143.1 1354.0 240.0 z" fill="rgb(255,217,194)" stroke="black"/>
  <text fill="rgb(9,33,173)" font-size="25" x="1380.6" y="150.6">Lfront</text>
</svg>
