<?xml version="1.0" encoding="utf-8" ?>
<svg xmlns="http://www.w3.org/2000/svg" xmlns:ev="http://www.w3.org/2001/xml-events" xmlns:xlink="http://www.w3.org/1999/xlink" baseProfile="full" height="300.0px" version="1.1" width="1774.0px">
  <defs/>
  <path d="M 60 153 L 141 153 Q 156.6 106.2 129 93 L 60 60 L 60 153 z" fill="rgb(255,217,194)" stroke="black"/>
  <text fill="rgb(9,33,173)" font-size="25" x="72.5" y="117.75">rbsleeve</text>
  <path d="M 212.5 153.0 L 281.5 120.0 Q 309.1 106.8 293.5 60.0 L 212.5 60.0 L 212.5 153.0 z" fill="rgb(255,217,194)" stroke="black"/>
  <text fill="rgb(9,33,173)" font-size="25" x="225.0" y="101.25">rfsleeve</text>
  <path d="M 365.0 240.0 L 413.0 240.0 Q 470.45 89.85 470.0 60.0 L 395.0 60.0 Q 409.7 141.75 365.0 153.0 Q 373.7 157.35 365.0 240.0 z" fill="rgb(255,217,194)" stroke="black"/>
  <text fill="rgb(9,33,173)" font-size="25" x="376.6" y="153.6">Rback</text>
  <path d="M 587.0 240.0 L 635.0 240.0 Q 626.3 157.35000000000002 635.0 153.0 Q 594.95 140.25 605.0 60.0 L 530.0 60.0 Q 529.55 89.85 587.0 240.0 z" fill="rgb(255,217,194)" stroke="black"/>
  <text fill="rgb(9,33,173)" font-size="25" x="573.4" y="153.6">Rfront</text>
  <path d="M 698.0 168.0 L 776.0 168.0 L 854.0 168.0 L 857.0 120.0 Q 829.4 106.8 845.0 60.0 L 800.0 60.0 Q 776.0 92.48615192074595 752.0 60.0 L 707.0 60.0 Q 722.6 106.8 695.0 120.0 L 698.0 168.0 z" fill="rgb(255,217,194)" stroke="black"/>
  <text fill="rgb(9,33,173)" font-size="25" x="751.0" y="112.33333333333333">up_back</text>
  <path d="M 920.0 165.0 L 998.0 165.0 L 1076.0 165.0 L 1079.0 117.0 Q 1052.6000000000001 104.7 1067.0 60.0 L 1022.0 60.0 L 998.0 63.0 L 974.0 60.0 L 929.0 60.0 Q 943.4 104.7 917.0 117.0 L 920.0 165.0 z" fill="rgb(255,217,194)" stroke="black"/>
  <text fill="rgb(9,33,173)" font-size="25" x="973.0" y="106.2">up_front</text>
  <path d="M 1196.0 240.0 L 1244.0 240.0 Q 1235.3 157.35000000000002 1244.0 153.0 Q 1199.3 141.75 1214.0 60.0 L 1139.0 60.0 Q 1138.55 89.85 1196.0 240.0 z" fill="rgb(255,217,194)" stroke="black"/>
  <text fill="rgb(9,33,173)" font-size="25" x="1182.4" y="153.6">Lback</text>
  <path d="M 1304.0 240.0 L 1352.0 240.0 Q 1409.45 89.85 1409.0 60.0 L 1334.0 60.0 Q 1344.05 140.25 1304.0 153.0 Q 1312.7 157.35 1304.0 240.0 z" fill="rgb(255,217,194)" stroke="black"/>
  <text fill="rgb(9,33,173)" font-size="25" x="1315.6" y="153.6">Lfront</text>
  <path d="M 1469.0 153.0 L 1538.0 120.0 Q 1565.6 106.8 1550.0 60.0 L 1469.0 60.0 L 1469.0 153.0 z" fill="rgb(255,217,194)" stroke="black"/>
  <text fill="rgb(9,33,173)" font-size="25" x="1481.5" y="101.25">lbsleeve</text>
  <path d="M 1621.5 153.0 L 1702.5 153.0 Q 1718.1 106.2 1690.5 93.0 L 1621.5 60.0 L 1621.5 153.0 z" fill="rgb(255,217,194)" stroke="black"/>
  <text fill="rgb(9,33,173)" font-size="25" x="1634.0" y="117.75">lfsleeve</text>
</svg>
