<?xml version="1.0" encoding="utf-8" ?>
<svg xmlns="http://www.w3.org/2000/svg" xmlns:ev="http://www.w3.org/2001/xml-events" xmlns:xlink="http://www.w3.org/1999/xlink" baseProfile="full" height="354.0px" version="1.1" width="1690.0px">
  <defs/>
  <path d="M 60 171 L 81 171 Q 105.0 109.50000000000001 69 90 L 60 60 L 60 171 z" fill="rgb(255,217,194)" stroke="black"/>
  <text fill="rgb(9,33,173)" font-size="25" x="42.5" y="126.0">rbsleeve</text>
  <path d="M 182.5 171.0 L 191.5 141.0 Q 227.5 121.5 203.5 60.0 L 182.5 60.0 L 182.5 171.0 z" fill="rgb(255,217,194)" stroke="black"/>
  <text fill="rgb(9,33,173)" font-size="25" x="165.0" y="111.0">rfsleeve</text>
  <path d="M 305.0 294.0 L 389.0 294.0 Q 423.65 96.44999999999999 416.0 60.0 L 335.0 60.0 Q 349.7 141.75 305.0 153.0 Q 319.1 160.05 305.0 294.0 z" fill="rgb(255,217,194)" stroke="black"/>
  <text fill="rgb(9,33,173)" font-size="25" x="325.0" y="175.2">Rback</text>
  <path d="M 503.0 294.0 L 587.0 294.0 Q 572.9 160.05 587.0 153.0 Q 546.95 140.25 557.0 60.0 L 476.0 60.0 Q 468.35 96.44999999999999 503.0 294.0 z" fill="rgb(255,217,194)" stroke="black"/>
  <text fill="rgb(9,33,173)" font-size="25" x="517.0" y="175.2">Rfront</text>
  <path d="M 647.0 168.0 L 731.0 168.0 L 815.0 168.0 L 806.0 141.0 Q 770.0 121.5 794.0 60.0 L 764.0 60.0 Q 731.0 107.69041547544487 698.0 60.0 L 668.0 60.0 Q 692.0 121.49999999999999 656.0 141.0 L 647.0 168.0 z" fill="rgb(255,217,194)" stroke="black"/>
  <text fill="rgb(9,33,173)" font-size="25" x="706.0" y="117.0">up_back</text>
  <path d="M 875.0 165.0 L 959.0 165.0 L 1043.0 165.0 L 1034.0 138.0 Q 999.2 119.39999999999999 1022.0 60.0 L 992.0 60.0 L 959.0 105.0 L 926.0 60.0 L 896.0 60.0 Q 918.8000000000001 119.39999999999999 884.0 138.0 L 875.0 165.0 z" fill="rgb(255,217,194)" stroke="black"/>
  <text fill="rgb(9,33,173)" font-size="25" x="934.0" y="114.6">up_front</text>
  <path d="M 1130.0 294.0 L 1214.0 294.0 Q 1199.9 160.05 1214.0 153.0 Q 1169.3 141.75 1184.0 60.0 L 1103.0 60.0 Q 1095.35 96.44999999999999 1130.0 294.0 z" fill="rgb(255,217,194)" stroke="black"/>
  <text fill="rgb(9,33,173)" font-size="25" x="1144.0" y="175.2">Lback</text>
  <path d="M 1274.0 294.0 L 1358.0 294.0 Q 1392.65 96.44999999999999 1385.0 60.0 L 1304.0 60.0 Q 1314.05 140.25 1274.0 153.0 Q 1288.1 160.05 1274.0 294.0 z" fill="rgb(255,217,194)" stroke="black"/>
  <text fill="rgb(9,33,173)" font-size="25" x="1294.0" y="175.2">Lfront</text>
  <path d="M 1445.0 171.0 L 1454.0 141.0 Q 1490.0 121.5 1466.0 60.0 L 1445.0 60.0 L 1445.0 171.0 z" fill="rgb(255,217,194)" stroke="black"/>
  <text fill="rgb(9,33,173)" font-size="25" x="1427.5" y="111.0">lbsleeve</text>
  <path d="M 1567.5 171.0 L 1588.5 171.0 Q 1612.5 109.50000000000001 1576.5 90.0 L 1567.5 60.0 L 1567.5 171.0 z" fill="rgb(255,217,194)" stroke="black"/>
  <text fill="rgb(9,33,173)" font-size="25" x="1550.0" y="126.0">lfsleeve</text>
</svg>
