<?xml version="1.0" encoding="utf-8" ?>
<svg xmlns="http://www.w3.org/2000/svg" xmlns:ev="http://www.w3.org/2001/xml-events" xmlns:xlink="http://www.w3.org/1999/xlink" baseProfile="full" height="408.0px" version="1.1" width="1759.0px">
  <defs/>
  <path d="M 60 222 L 81 222 Q 100.5 163.5 66 147 L 60 60 L 60 222 z" fill="rgb(255,217,194)" stroke="black"/>
  <text fill="rgb(9,33,173)" font-size="25" x="41.75" y="165.75">rbsleeve</text>
  <path d="M 181.75 222.0 L 187.75 135.0 Q 222.25 118.5 202.75 60.0 L 181.75 60.0 L 181.75 222.0 z" fill="rgb(255,217,194)" stroke="black"/>
  <text fill="rgb(9,33,173)" font-size="25" x="163.5" y="122.25">rfsleeve</text>
  <path d="M 303.5 348.0 L 693.5 348.0 L 588.5 135.0 Q 554.9 117.3 576.5 60.0 L 546.5 60.0 L 498.5 69.0 L 450.5 60.0 L 420.5 60.0 Q 442.1 117.3 408.5 135.0 L 303.5 348.0 z" fill="rgb(255,217,194)" stroke="black"/>
  <text fill="rgb(9,33,173)" font-size="25" x="473.5" y="144.66666666666666">back</text>
  <path d="M 753.5 348.0 L 1143.5 348.0 L 1038.5 132.0 Q 1006.1000000000001 115.2 1026.5 60.0 L 996.5 60.0 L 948.5 84.0 L 900.5 60.0 L 870.5 60.0 Q 890.9 115.2 858.5 132.0 L 753.5 348.0 z" fill="rgb(255,217,194)" stroke="black"/>
  <text fill="rgb(9,33,173)" font-size="25" x="923.5" y="145.66666666666666">front</text>
  <path d="M 1218.5 156.0 L 1281.5 165.0 Q 1339.1000000000001 149.70000000000002 1299.5 78.0 L 1254.5 87.0 L 1203.5 60.0 L 1218.5 156.0 z" fill="rgb(255,217,194)" stroke="black"/>
  <text fill="rgb(9,33,173)" font-size="25" x="1226.5" y="112.2">Rhood</text>
  <path d="M 1359.5 165.0 L 1410.5 138.0 L 1455.5 147.0 Q 1495.1000000000001 75.3 1437.5 60.0 L 1374.5 69.0 L 1359.5 165.0 z" fill="rgb(255,217,194)" stroke="black"/>
  <text fill="rgb(9,33,173)" font-size="25" x="1382.5" y="118.8">Lhood</text>
  <path d="M 1515.5 222.0 L 1521.5 135.0 Q 1556.0 118.5 1536.5 60.0 L 1515.5 60.0 L 1515.5 222.0 z" fill="rgb(255,217,194)" stroke="black"/>
  <text fill="rgb(9,33,173)" font-size="25" x="1497.25" y="122.25">lbsleeve</text>
  <path d="M 1637.25 222.0 L 1658.25 222.0 Q 1677.75 163.5 1643.25 147.0 L 1637.25 60.0 L 1637.25 222.0 z" fill="rgb(255,217,194)" stroke="black"/>
  <text fill="rgb(9,33,173)" font-size="25" x="1619.0" y="165.75">lfsleeve</text>
</svg>
