<?xml version="1.0" encoding="utf-8" ?>
<svg xmlns="http://www.w3.org/2000/svg" xmlns:ev="http://www.w3.org/2001/xml-events" xmlns:xlink="http://www.w3.org/1999/xlink" baseProfile="full" height="429px" version="1.1" width="967.0px">
  <defs/>
  <path d="M 60 369 L 237 369 L 237 150 L 195 60 L 156 60 Q 187.5 139.5 141 165 L 60 369 z" fill="rgb(255,217,194)" stroke="black"/>
  <text fill="rgb(9,33,173)" font-size="25" x="146.0" y="198.5">front_right</text>
  <path d="M 316.0 369.0 L 670.0 369.0 L 589.0 168.0 Q 541.3 141.6 574.0 60.0 L 535.0 60.0 Q 493.0 106.78068756984393 451.0 60.0 L 412.0 60.0 Q 444.7 141.6 397.0 168.0 L 316.0 369.0 z" fill="rgb(255,217,194)" stroke="black"/>
  <text fill="rgb(9,33,173)" font-size="25" x="468.0" y="167.25">back</text>
  <path d="M 730.0 369.0 L 907.0 369.0 L 826.0 165.0 Q 779.5 139.5 811.0 60.0 L 772.0 60.0 L 730.0 150.0 L 730.0 369.0 z" fill="rgb(255,217,194)" stroke="black"/>
  <text fill="rgb(9,33,173)" font-size="25" x="771.0" y="198.5">front_left</text>
</svg>
