<?xml version="1.0" encoding="utf-8" ?>
<svg xmlns="http://www.w3.org/2000/svg" xmlns:ev="http://www.w3.org/2001/xml-events" xmlns:xlink="http://www.w3.org/1999/xlink" baseProfile="full" height="381px" version="1.1" width="1778.0px">
  <defs/>
  <path d="M 60 222 L 180 222 Q 205.2 158.39999999999998 168 138 L 60 60 L 60 222 z" fill="rgb(255,217,194)" stroke="black"/>
  <text fill="rgb(9,33,173)" font-size="25" x="92.0" y="163.5">rbsleeve</text>
  <path d="M 240 222 L 348 144 Q 385.20000000000005 123.6 360 60 L 240 60 L 240 222 z" fill="rgb(255,217,194)" stroke="black"/>
  <text fill="rgb(9,33,173)" font-size="25" x="272.0" y="124.5">rfsleeve</text>
  <path d="M 420 321 L 462 321 Q 518.4 101.7 513 60 L 450 60 Q 464.7 141.75 420 153 Q 436.8 161.4 420 321 z" fill="rgb(255,217,194)" stroke="black"/>
  <text fill="rgb(9,33,173)" font-size="25" x="428.0" y="186.0">Rback</text>
  <path d="M 624 321 L 666 321 Q 649.2 161.4 666 153 Q 625.95 140.25 636 60 L 573 60 Q 567.6 101.7 624 321 z" fill="rgb(255,217,194)" stroke="black"/>
  <text fill="rgb(9,33,173)" font-size="25" x="608.0" y="186.0">Rfront</text>
  <path d="M 731.0 168.0 L 794.0 168.0 L 857.0 168.0 L 860.0 144.0 Q 823.6999999999999 122.39999999999999 851.0 60.0 L 806.0 60.0 Q 794.0 87.40020439025398 782.0 60.0 L 737.0 60.0 Q 764.3000000000001 122.39999999999999 728.0 144.0 L 731.0 168.0 z" fill="rgb(255,217,194)" stroke="black"/>
  <text fill="rgb(9,33,173)" font-size="25" x="769.0" y="117.66666666666667">up_back</text>
  <path d="M 923.0 165.0 L 986.0 165.0 L 1049.0 165.0 L 1052.0 144.0 Q 1015.6999999999999 122.39999999999999 1043.0 60.0 L 998.0 60.0 L 986.0 111.0 L 974.0 60.0 L 929.0 60.0 Q 956.3000000000001 122.39999999999999 920.0 144.0 L 923.0 165.0 z" fill="rgb(255,217,194)" stroke="black"/>
  <text fill="rgb(9,33,173)" font-size="25" x="961.0" y="116.4">up_front</text>
  <path d="M 1163.0 321.0 L 1205.0 321.0 Q 1188.2 161.4 1205.0 153.0 Q 1160.3 141.75 1175.0 60.0 L 1112.0 60.0 Q 1106.6000000000001 101.7 1163.0 321.0 z" fill="rgb(255,217,194)" stroke="black"/>
  <text fill="rgb(9,33,173)" font-size="25" x="1147.0" y="186.0">Lback</text>
  <path d="M 1265.0 321.0 L 1307.0 321.0 Q 1363.3999999999999 101.7 1358.0 60.0 L 1295.0 60.0 Q 1305.05 140.25 1265.0 153.0 Q 1281.8 161.4 1265.0 321.0 z" fill="rgb(255,217,194)" stroke="black"/>
  <text fill="rgb(9,33,173)" font-size="25" x="1273.0" y="186.0">Lfront</text>
  <path d="M 1418.0 222.0 L 1526.0 144.0 Q 1563.1999999999998 123.6 1538.0 60.0 L 1418.0 60.0 L 1418.0 222.0 z" fill="rgb(255,217,194)" stroke="black"/>
  <text fill="rgb(9,33,173)" font-size="25" x="1450.0" y="124.5">lbsleeve</text>
  <path d="M 1598.0 222.0 L 1718.0 222.0 Q 1743.1999999999998 158.39999999999998 1706.0 138.0 L 1598.0 60.0 L 1598.0 222.0 z" fill="rgb(255,217,194)" stroke="black"/>
  <text fill="rgb(9,33,173)" font-size="25" x="1630.0" y="163.5">lfsleeve</text>
</svg>
