<?xml version="1.0" encoding="utf-8" ?>
<svg xmlns="http://www.w3.org/2000/svg" xmlns:ev="http://www.w3.org/2001/xml-events" xmlns:xlink="http://www.w3.org/1999/xlink" baseProfile="full" height="351px" version="1.1" width="742.0px">
  <defs/>
  <path d="M 60 291 L 174 291 L 174 72 L 156 60 L 117 60 Q 153.0 142.5 105 171 L 60 291 z" fill="rgb(255,217,194)" stroke="black"/>
  <text fill="rgb(9,33,173)" font-size="25" x="106.0" y="160.5">front_right</text>
  <path d="M 276.0 291.0 L 504.0 291.0 L 459.0 174.0 Q 409.79999999999995 144.60000000000002 447.0 60.0 L 408.0 60.0 Q 390.0 151.16056890201736 372.0 60.0 L 333.0 60.0 Q 370.20000000000005 144.60000000000002 321.0 174.0 L 276.0 291.0 z" fill="rgb(255,217,194)" stroke="black"/>
  <text fill="rgb(9,33,173)" font-size="25" x="365.0" y="149.25">back</text>
  <path d="M 564.0 291.0 L 678.0 291.0 L 633.0 171.0 Q 585.0 142.5 621.0 60.0 L 582.0 60.0 L 564.0 72.0 L 564.0 291.0 z" fill="rgb(255,217,194)" stroke="black"/>
  <text fill="rgb(9,33,173)" font-size="25" x="582.0" y="160.5">front_left</text>
</svg>
