<?xml version="1.0" encoding="utf-8" ?>
<svg xmlns="http://www.w3.org/2000/svg" xmlns:ev="http://www.w3.org/2001/xml-events" xmlns:xlink="http://www.w3.org/1999/xlink" baseProfile="full" height="324px" version="1.1" width="963.0px">
  <defs/>
  <path d="M 60 264 L 234 264 L 234 69 L 204 60 L 168 60 Q 206.4 146.7 156 177 L 60 264 z" fill="rgb(255,217,194)" stroke="black"/>
  <text fill="rgb(9,33,173)" font-size="25" x="151.0" y="152.0">front_right</text>
  <path d="M 321.0 264.0 L 669.0 264.0 L 573.0 177.0 Q 522.6 146.70000000000002 561.0 60.0 L 525.0 60.0 Q 495.0 204.07162076289097 465.0 60.0 L 429.0 60.0 Q 467.40000000000003 146.7 417.0 177.0 L 321.0 264.0 z" fill="rgb(255,217,194)" stroke="black"/>
  <text fill="rgb(9,33,173)" font-size="25" x="470.0" y="143.25">back</text>
  <path d="M 729.0 264.0 L 903.0 264.0 L 807.0 177.0 Q 756.6 146.70000000000002 795.0 60.0 L 759.0 60.0 L 729.0 69.0 L 729.0 264.0 z" fill="rgb(255,217,194)" stroke="black"/>
  <text fill="rgb(9,33,173)" font-size="25" x="762.0" y="152.0">front_left</text>
</svg>
