<?xml version="1.0" encoding="utf-8" ?>
<svg xmlns="http://www.w3.org/2000/svg" xmlns:ev="http://www.w3.org/2001/xml-events" xmlns:xlink="http://www.w3.org/1999/xlink" baseProfile="full" height="345px" version="1.1" width="1092px">
  <defs/>
  <path d="M 60 285 L 153 285 Q 161.7 93.6 150 60 L 90 60 Q 104.7 141.75 60 153 Q 73.2 159.6 60 285 z" fill="rgb(255,217,194)" stroke="black"/>
  <text fill="rgb(9,33,173)" font-size="25" x="77.6" y="171.6">Rback</text>
  <path d="M 213 285 L 306 285 Q 292.8 159.60000000000002 306 153 Q 265.95 140.25 276 60 L 216 60 Q 204.3 93.6 213 285 z" fill="rgb(255,217,194)" stroke="black"/>
  <text fill="rgb(9,33,173)" font-size="25" x="238.39999999999998" y="171.6">Rfront</text>
  <path d="M 384 168 L 441 168 L 498 168 L 516 150 Q 476.4 127.8 504 60 L 462 60 Q 441.0 108.66738476758817 420 60 L 378 60 Q 405.6 127.8 366 150 L 384 168 z" fill="rgb(255,217,194)" stroke="black"/>
  <text fill="rgb(9,33,173)" font-size="25" x="416.0" y="119.0">up_back</text>
  <path d="M 594 165 L 651 165 L 708 165 L 726 150 Q 686.4 127.8 714 60 L 672 60 L 651 63 L 630 60 L 588 60 Q 615.6 127.8 576 150 L 594 165 z" fill="rgb(255,217,194)" stroke="black"/>
  <text fill="rgb(9,33,173)" font-size="25" x="626.0" y="112.8">up_front</text>
  <path d="M 786 285 L 879 285 Q 865.8 159.60000000000002 879 153 Q 834.3 141.75 849 60 L 789 60 Q 777.3 93.6 786 285 z" fill="rgb(255,217,194)" stroke="black"/>
  <text fill="rgb(9,33,173)" font-size="25" x="811.4" y="171.6">Lback</text>
  <path d="M 939 285 L 1032 285 Q 1040.7 93.6 1029 60 L 969 60 Q 979.05 140.25 939 153 Q 952.2 159.6 939 285 z" fill="rgb(255,217,194)" stroke="black"/>
  <text fill="rgb(9,33,173)" font-size="25" x="956.6" y="171.6">Lfront</text>
</svg>
