<?xml version="1.0" encoding="utf-8" ?>
<svg xmlns="http://www.w3.org/2000/svg" xmlns:ev="http://www.w3.org/2001/xml-events" xmlns:xlink="http://www.w3.org/1999/xlink" baseProfile="full" height="330.0px" version="1.1" width="1741.0px">
  <defs/>
  <path d="M 60 171 L 117 171 Q 134.7 125.4 108 111 L 60 60 L 60 171 z" fill="rgb(255,217,194)" stroke="black"/>
  <text fill="rgb(9,33,173)" font-size="25" x="61.25" y="131.25">rbsleeve</text>
  <path d="M 201.25 171.0 L 249.25 120.0 Q 275.95 105.6 258.25 60.0 L 201.25 60.0 L 201.25 171.0 z" fill="rgb(255,217,194)" stroke="black"/>
  <text fill="rgb(9,33,173)" font-size="25" x="202.5" y="105.75">rfsleeve</text>
  <path d="M 342.5 270.0 L 387.5 270.0 Q 451.55 94.65 450.5 60.0 L 372.5 60.0 Q 387.2 141.75 342.5 153.0 Q 354.2 158.85 342.5 270.0 z" fill="rgb(255,217,194)" stroke="black"/>
  <text fill="rgb(9,33,173)" font-size="25" x="354.1" y="165.6">Rback</text>
  <path d="M 573.5 270.0 L 618.5 270.0 Q 606.8 158.85000000000002 618.5 153.0 Q 578.45 140.25 588.5 60.0 L 510.5 60.0 Q 509.45000000000005 94.65 573.5 270.0 z" fill="rgb(255,217,194)" stroke="black"/>
  <text fill="rgb(9,33,173)" font-size="25" x="556.9" y="165.6">Rfront</text>
  <path d="M 678.5 168.0 L 759.5 168.0 L 840.5 168.0 L 819.5 117.0 Q 794.0 103.5 810.5 60.0 L 789.5 60.0 Q 759.5 124.32880000149284 729.5 60.0 L 708.5 60.0 Q 725.0 103.5 699.5 117.0 L 678.5 168.0 z" fill="rgb(255,217,194)" stroke="black"/>
  <text fill="rgb(9,33,173)" font-size="25" x="734.5" y="111.66666666666667">up_back</text>
  <path d="M 900.5 165.0 L 981.5 165.0 L 1062.5 165.0 L 1041.5 117.0 Q 1016.0 103.5 1032.5 60.0 L 1011.5 60.0 L 981.5 93.0 L 951.5 60.0 L 930.5 60.0 Q 947.0 103.5 921.5 117.0 L 900.5 165.0 z" fill="rgb(255,217,194)" stroke="black"/>
  <text fill="rgb(9,33,173)" font-size="25" x="956.5" y="109.2">up_front</text>
  <path d="M 1185.5 270.0 L 1230.5 270.0 Q 1218.8 158.85000000000002 1230.5 153.0 Q 1185.8 141.75 1200.5 60.0 L 1122.5 60.0 Q 1121.45 94.65 1185.5 270.0 z" fill="rgb(255,217,194)" stroke="black"/>
  <text fill="rgb(9,33,173)" font-size="25" x="1168.9" y="165.6">Lback</text>
  <path d="M 1290.5 270.0 L 1335.5 270.0 Q 1399.55 94.65 1398.5 60.0 L 1320.5 60.0 Q 1330.55 140.25 1290.5 153.0 Q 1302.2 158.85 1290.5 270.0 z" fill="rgb(255,217,194)" stroke="black"/>
  <text fill="rgb(9,33,173)" font-size="25" x="1302.1" y="165.6">Lfront</text>
  <path d="M 1458.5 171.0 L 1506.5 120.0 Q 1533.2 105.6 1515.5 60.0 L 1458.5 60.0 L 1458.5 171.0 z" fill="rgb(255,217,194)" stroke="black"/>
  <text fill="rgb(9,33,173)" font-size="25" x="1459.75" y="105.75">lbsleeve</text>
  <path d="M 1599.75 171.0 L 1656.75 171.0 Q 1674.45 125.4 1647.75 111.0 L 1599.75 60.0 L 1599.75 171.0 z" fill="rgb(255,217,194)" stroke="black"/>
  <text fill="rgb(9,33,173)" font-size="25" x="1601.0" y="131.25">lfsleeve</text>
</svg>
