<?xml version="1.0" encoding="utf-8" ?>
<svg xmlns="http://www.w3.org/2000/svg" xmlns:ev="http://www.w3.org/2001/xml-events" xmlns:xlink="http://www.w3.org/1999/xlink" baseProfile="full" height="324px" version="1.1" width="1510.0px">
  <defs/>
  <path d="M 60 264 L 150 264 L 180 60 L 90 60 Q 97.5 128.25 60 135 Q 72.9 141.45 60 264 z" fill="rgb(255,217,194)" stroke="black"/>
  <text fill="rgb(9,33,173)" font-size="25" x="83.0" y="159.6">Rback</text>
  <path d="M 270 264 L 360 264 Q 347.1 141.45 360 135 Q 326.25 126.75 330 60 L 240 60 L 270 264 z" fill="rgb(255,217,194)" stroke="black"/>
  <text fill="rgb(9,33,173)" font-size="25" x="287.0" y="159.6">Rfront</text>
  <path d="M 420 72 L 459 72 L 498 72 L 498 60 L 420 60 L 420 72 z" fill="rgb(255,217,194)" stroke="black"/>
  <text fill="rgb(9,33,173)" font-size="25" x="434.0" y="70.2">wb_back</text>
  <path d="M 564.0 72.0 L 603.0 72.0 L 642.0 72.0 L 642.0 60.0 L 564.0 60.0 L 564.0 72.0 z" fill="rgb(255,217,194)" stroke="black"/>
  <text fill="rgb(9,33,173)" font-size="25" x="578.0" y="70.2">wb_front</text>
  <path d="M 718.0 150.0 L 874.0 150.0 L 874.0 147.0 Q 835.6 125.7 862.0 60.0 L 817.0 60.0 Q 796.0 127.20200039529419 775.0 60.0 L 730.0 60.0 Q 756.4 125.7 718.0 147.0 L 718.0 150.0 z" fill="rgb(255,217,194)" stroke="black"/>
  <text fill="rgb(9,33,173)" font-size="25" x="771.0" y="107.25">top_back</text>
  <path d="M 934.0 150.0 L 1090.0 150.0 L 1090.0 147.0 Q 1051.6000000000001 125.7 1078.0 60.0 L 1033.0 60.0 L 1012.0 66.0 L 991.0 60.0 L 946.0 60.0 Q 972.4 125.7 934.0 147.0 L 934.0 150.0 z" fill="rgb(255,217,194)" stroke="black"/>
  <text fill="rgb(9,33,173)" font-size="25" x="987.0" y="103.0">top_front</text>
  <path d="M 1180.0 264.0 L 1270.0 264.0 Q 1257.1 141.45 1270.0 135.0 Q 1232.5 128.25 1240.0 60.0 L 1150.0 60.0 L 1180.0 264.0 z" fill="rgb(255,217,194)" stroke="black"/>
  <text fill="rgb(9,33,173)" font-size="25" x="1197.0" y="159.6">Lback</text>
  <path d="M 1330.0 264.0 L 1420.0 264.0 L 1450.0 60.0 L 1360.0 60.0 Q 1363.75 126.75 1330.0 135.0 Q 1342.9 141.45 1330.0 264.0 z" fill="rgb(255,217,194)" stroke="black"/>
  <text fill="rgb(9,33,173)" font-size="25" x="1353.0" y="159.6">Lfront</text>
</svg>
