<?xml version="1.0" encoding="utf-8" ?>
<svg xmlns="http://www.w3.org/2000/svg" xmlns:ev="http://www.w3.org/2001/xml-events" xmlns:xlink="http://www.w3.org/1999/xlink" baseProfile="full" height="273.0px" version="1.1" width="1870.0px">
  <defs/>
  <path d="M 60 204 L 159 204 Q 172.2 161.39999999999998 147 150 L 60 60 L 60 204 z" fill="rgb(255,217,194)" stroke="black"/>
  <text fill="rgb(9,33,173)" font-size="25" x="81.5" y="157.5">rbsleeve</text>
  <path d="M 221.5 204.0 L 308.5 114.0 Q 333.70000000000005 102.6 320.5 60.0 L 221.5 60.0 L 221.5 204.0 z" fill="rgb(255,217,194)" stroke="black"/>
  <text fill="rgb(9,33,173)" font-size="25" x="243.0" y="112.5">rfsleeve</text>
  <path d="M 383.0 213.0 L 503.0 213.0 Q 503.0 82.50000000000001 494.0 60.0 L 413.0 60.0 Q 427.7 141.75 383.0 153.0 Q 389.0 156.0 383.0 213.0 z" fill="rgb(255,217,194)" stroke="black"/>
  <text fill="rgb(9,33,173)" font-size="25" x="410.2" y="142.8">Rback</text>
  <path d="M 563.0 213.0 L 683.0 213.0 Q 677.0 156.0 683.0 153.0 Q 642.95 140.25 653.0 60.0 L 572.0 60.0 Q 563.0 82.5 563.0 213.0 z" fill="rgb(255,217,194)" stroke="black"/>
  <text fill="rgb(9,33,173)" font-size="25" x="605.8" y="142.8">Rfront</text>
  <path d="M 743.0 168.0 L 824.0 168.0 L 905.0 168.0 L 899.0 114.0 Q 873.8 102.6 887.0 60.0 L 857.0 60.0 Q 824.0 129.64674796482993 791.0 60.0 L 761.0 60.0 Q 774.2 102.6 749.0 114.0 L 743.0 168.0 z" fill="rgb(255,217,194)" stroke="black"/>
  <text fill="rgb(9,33,173)" font-size="25" x="799.0" y="111.0">up_back</text>
  <path d="M 965.0 165.0 L 1046.0 165.0 L 1127.0 165.0 L 1121.0 114.0 Q 1095.8000000000002 102.6 1109.0 60.0 L 1079.0 60.0 L 1046.0 72.0 L 1013.0 60.0 L 983.0 60.0 Q 996.2 102.6 971.0 114.0 L 965.0 165.0 z" fill="rgb(255,217,194)" stroke="black"/>
  <text fill="rgb(9,33,173)" font-size="25" x="1021.0" y="106.5">up_front</text>
  <path d="M 1187.0 213.0 L 1307.0 213.0 Q 1301.0 156.0 1307.0 153.0 Q 1262.3 141.75 1277.0 60.0 L 1196.0 60.0 Q 1187.0 82.5 1187.0 213.0 z" fill="rgb(255,217,194)" stroke="black"/>
  <text fill="rgb(9,33,173)" font-size="25" x="1229.8" y="142.8">Lback</text>
  <path d="M 1367.0 213.0 L 1487.0 213.0 Q 1487.0 82.50000000000001 1478.0 60.0 L 1397.0 60.0 Q 1407.05 140.25 1367.0 153.0 Q 1373.0 156.0 1367.0 213.0 z" fill="rgb(255,217,194)" stroke="black"/>
  <text fill="rgb(9,33,173)" font-size="25" x="1394.2" y="142.8">Lfront</text>
  <path d="M 1547.0 204.0 L 1634.0 114.0 Q 1659.1999999999998 102.6 1646.0 60.0 L 1547.0 60.0 L 1547.0 204.0 z" fill="rgb(255,217,194)" stroke="black"/>
  <text fill="rgb(9,33,173)" font-size="25" x="1568.5" y="112.5">lbsleeve</text>
  <path d="M 1708.5 204.0 L 1807.5 204.0 Q 1820.6999999999998 161.39999999999998 1795.5 150.0 L 1708.5 60.0 L 1708.5 204.0 z" fill="rgb(255,217,194)" stroke="black"/>
  <text fill="rgb(9,33,173)" font-size="25" x="1730.0" y="157.5">lfsleeve</text>
</svg>
