<?xml version="1.0" encoding="utf-8" ?>
<svg xmlns="http://www.w3.org/2000/svg" xmlns:ev="http://www.w3.org/2001/xml-events" xmlns:xlink="http://www.w3.org/1999/xlink" baseProfile="full" height="450px" version="1.1" width="1890px">
  <defs/>
  <path d="M 60 156 L 180 156 Q 210.0 84.00000000000001 168 60 L 60 69 L 60 156 z" fill="rgb(255,217,194)" stroke="black"/>
  <text fill="rgb(9,33,173)" font-size="25" x="92.0" y="113.25">rbsleeve</text>
  <path d="M 240 147 L 348 156 Q 390.0 132.0 360 60 L 240 60 L 240 147 z" fill="rgb(255,217,194)" stroke="black"/>
  <text fill="rgb(9,33,173)" font-size="25" x="272.0" y="108.75">rfsleeve</text>
  <path d="M 420 390 L 774 390 L 669 156 Q 627.9 130.8 660 60 L 636 60 L 597 69 L 558 60 L 534 60 Q 566.1 130.79999999999998 525 156 L 420 390 z" fill="rgb(255,217,194)" stroke="black"/>
  <text fill="rgb(9,33,173)" font-size="25" x="572.0" y="158.66666666666666">back</text>
  <path d="M 834 390 L 1188 390 L 1083 156 Q 1041.8999999999999 130.8 1074 60 L 1050 60 L 1011 93 L 972 60 L 948 60 Q 980.1 130.79999999999998 939 156 L 834 390 z" fill="rgb(255,217,194)" stroke="black"/>
  <text fill="rgb(9,33,173)" font-size="25" x="986.0" y="161.33333333333334">front</text>
  <path d="M 1254 195 L 1284 192 Q 1362.3 186.6 1329 84 L 1290 93 L 1248 60 L 1254 195 z" fill="rgb(255,217,194)" stroke="black"/>
  <text fill="rgb(9,33,173)" font-size="25" x="1256.0" y="127.8">Rhood</text>
  <path d="M 1389 195 L 1431 162 L 1470 171 Q 1503.3 68.4 1425 63 L 1395 60 L 1389 195 z" fill="rgb(255,217,194)" stroke="black"/>
  <text fill="rgb(9,33,173)" font-size="25" x="1397.0" y="133.2">Lhood</text>
  <path d="M 1530 147 L 1638 156 Q 1680.0 132.0 1650 60 L 1530 60 L 1530 147 z" fill="rgb(255,217,194)" stroke="black"/>
  <text fill="rgb(9,33,173)" font-size="25" x="1562.0" y="108.75">lbsleeve</text>
  <path d="M 1710 156 L 1830 156 Q 1860.0 84.00000000000001 1818 60 L 1710 69 L 1710 156 z" fill="rgb(255,217,194)" stroke="black"/>
  <text fill="rgb(9,33,173)" font-size="25" x="1742.0" y="113.25">lfsleeve</text>
</svg>
