<?xml version="1.0" encoding="utf-8" ?>
<svg xmlns="http://www.w3.org/2000/svg" xmlns:ev="http://www.w3.org/2001/xml-events" xmlns:xlink="http://www.w3.org/1999/xlink" baseProfile="full" height="519px" version="1.1" width="1150.5px">
  <defs/>
  <path d="M 60 459 L 222 459 L 222 114 L 201 60 L 150 60 Q 163.2 102.6 138 114 L 60 459 z" fill="rgb(255,217,194)" stroke="black"/>
  <text fill="rgb(9,33,173)" font-size="25" x="140.5" y="214.0">front_right</text>
  <path d="M 310.5 225.0 L 322.5 222.0 Q 404.4 214.8 367.5 108.0 L 346.5 117.0 L 322.5 60.0 L 310.5 225.0 z" fill="rgb(255,217,194)" stroke="black"/>
  <text fill="rgb(9,33,173)" font-size="25" x="308.9" y="149.4">Rhood</text>
  <path d="M 427.5 459.0 L 751.5 459.0 L 673.5 117.0 Q 647.1 104.7 661.5 60.0 L 610.5 60.0 L 589.5 69.0 L 568.5 60.0 L 517.5 60.0 Q 531.9 104.7 505.5 117.0 L 427.5 459.0 z" fill="rgb(255,217,194)" stroke="black"/>
  <text fill="rgb(9,33,173)" font-size="25" x="564.5" y="165.33333333333334">back</text>
  <path d="M 823.5 225.0 L 847.5 168.0 L 868.5 177.0 Q 905.4 70.2 823.5 63.0 L 811.5 60.0 L 823.5 225.0 z" fill="rgb(255,217,194)" stroke="black"/>
  <text fill="rgb(9,33,173)" font-size="25" x="809.9" y="141.6">Lhood</text>
  <path d="M 928.5 459.0 L 1090.5 459.0 L 1012.5 114.0 Q 987.3 102.6 1000.5 60.0 L 949.5 60.0 L 928.5 114.0 L 928.5 459.0 z" fill="rgb(255,217,194)" stroke="black"/>
  <text fill="rgb(9,33,173)" font-size="25" x="960.0" y="214.0">front_left</text>
</svg>
