<?xml version="1.0" encoding="utf-8" ?>
<svg xmlns="http://www.w3.org/2000/svg" xmlns:ev="http://www.w3.org/2001/xml-events" xmlns:xlink="http://www.w3.org/1999/xlink" baseProfile="full" height="273.0px" version="1.1" width="1628.0px">
  <defs/>
  <path d="M 60 138 L 114 138 Q 126.0 97.50000000000001 102 87 L 60 60 L 60 138 z" fill="rgb(255,217,194)" stroke="black"/>
  <text fill="rgb(9,33,173)" font-size="25" x="59.0" y="108.75">rbsleeve</text>
  <path d="M 199.0 138.0 L 241.0 111.0 Q 265.0 100.5 253.0 60.0 L 199.0 60.0 L 199.0 138.0 z" fill="rgb(255,217,194)" stroke="black"/>
  <text fill="rgb(9,33,173)" font-size="25" x="198.0" y="95.25">rfsleeve</text>
  <path d="M 338.0 189.0 L 476.0 189.0 L 476.0 105.0 L 452.0 60.0 L 410.0 60.0 Q 423.20000000000005 102.6 398.0 114.0 L 338.0 189.0 z" fill="rgb(255,217,194)" stroke="black"/>
  <text fill="rgb(9,33,173)" font-size="25" x="400.0" y="122.5">front_right</text>
  <path d="M 570.0 213.0 L 600.0 210.0 Q 678.3 195.60000000000002 633.0 96.0 L 606.0 105.0 L 579.0 60.0 L 570.0 213.0 z" fill="rgb(255,217,194)" stroke="black"/>
  <text fill="rgb(9,33,173)" font-size="25" x="572.6" y="139.8">Rhood</text>
  <path d="M 693.0 192.0 L 969.0 192.0 L 909.0 114.0 Q 883.8 102.6 897.0 60.0 L 855.0 60.0 L 831.0 69.0 L 807.0 60.0 L 765.0 60.0 Q 778.2 102.6 753.0 114.0 L 693.0 192.0 z" fill="rgb(255,217,194)" stroke="black"/>
  <text fill="rgb(9,33,173)" font-size="25" x="806.0" y="105.33333333333333">back</text>
  <path d="M 1038.0 213.0 L 1065.0 168.0 L 1092.0 177.0 Q 1137.3000000000002 77.4 1059.0 63.0 L 1029.0 60.0 L 1038.0 213.0 z" fill="rgb(255,217,194)" stroke="black"/>
  <text fill="rgb(9,33,173)" font-size="25" x="1031.6" y="139.2">Lhood</text>
  <path d="M 1152.0 189.0 L 1290.0 189.0 L 1230.0 114.0 Q 1204.8000000000002 102.6 1218.0 60.0 L 1176.0 60.0 L 1152.0 105.0 L 1152.0 189.0 z" fill="rgb(255,217,194)" stroke="black"/>
  <text fill="rgb(9,33,173)" font-size="25" x="1178.0" y="122.5">front_left</text>
  <path d="M 1350.0 138.0 L 1392.0 111.0 Q 1416.0 100.5 1404.0 60.0 L 1350.0 60.0 L 1350.0 138.0 z" fill="rgb(255,217,194)" stroke="black"/>
  <text fill="rgb(9,33,173)" font-size="25" x="1349.0" y="95.25">lbsleeve</text>
  <path d="M 1489.0 138.0 L 1543.0 138.0 Q 1555.0 97.50000000000001 1531.0 87.0 L 1489.0 60.0 L 1489.0 138.0 z" fill="rgb(255,217,194)" stroke="black"/>
  <text fill="rgb(9,33,173)" font-size="25" x="1488.0" y="108.75">lfsleeve</text>
</svg>
