<?xml version="1.0" encoding="utf-8" ?>
<svg xmlns="http://www.w3.org/2000/svg" xmlns:ev="http://www.w3.org/2001/xml-events" xmlns:xlink="http://www.w3.org/1999/xlink" baseProfile="full" height="384px" version="1.1" width="1117.4px">
  <defs/>
  <path d="M 60 324 L 96 324 Q 165.29999999999998 102.89999999999999 162 60 L 90 60 Q 104.7 141.75 60 153 Q 77.1 161.55 60 324 z" fill="rgb(255,217,194)" stroke="black"/>
  <text fill="rgb(9,33,173)" font-size="25" x="68.6" y="187.2">Rback</text>
  <path d="M 288 324 L 324 324 Q 306.9 161.55 324 153 Q 283.95 140.25 294 60 L 222 60 Q 218.70000000000002 102.89999999999999 288 324 z" fill="rgb(255,217,194)" stroke="black"/>
  <text fill="rgb(9,33,173)" font-size="25" x="265.4" y="187.2">Rfront</text>
  <path d="M 385.4 168.0 L 457.4 168.0 L 529.4 168.0 L 514.4 117.0 Q 488.9 103.5 505.4 60.0 L 481.4 60.0 Q 457.4 88.93989317561878 433.4 60.0 L 409.4 60.0 Q 425.9 103.5 400.4 117.0 L 385.4 168.0 z" fill="rgb(255,217,194)" stroke="black"/>
  <text fill="rgb(9,33,173)" font-size="25" x="432.40000000000003" y="111.66666666666667">up_back</text>
  <path d="M 589.4 165.0 L 661.4 165.0 L 733.4 165.0 L 718.4 117.0 Q 692.9 103.5 709.4 60.0 L 685.4 60.0 L 661.4 135.0 L 637.4 60.0 L 613.4 60.0 Q 629.9 103.5 604.4 117.0 L 589.4 165.0 z" fill="rgb(255,217,194)" stroke="black"/>
  <text fill="rgb(9,33,173)" font-size="25" x="636.3999999999999" y="113.4">up_front</text>
  <path d="M 859.4 324.0 L 895.4 324.0 Q 878.3 161.55 895.4 153.0 Q 850.6999999999999 141.75 865.4 60.0 L 793.4 60.0 Q 790.0999999999999 102.89999999999999 859.4 324.0 z" fill="rgb(255,217,194)" stroke="black"/>
  <text fill="rgb(9,33,173)" font-size="25" x="836.8" y="187.2">Lback</text>
  <path d="M 955.4 324.0 L 991.4 324.0 Q 1060.7 102.9 1057.4 60.0 L 985.4 60.0 Q 995.4499999999999 140.25 955.4 153.0 Q 972.5 161.55 955.4 324.0 z" fill="rgb(255,217,194)" stroke="black"/>
  <text fill="rgb(9,33,173)" font-size="25" x="964.0" y="187.2">Lfront</text>
</svg>
