<?xml version="1.0" encoding="utf-8" ?>
<svg xmlns="http://www.w3.org/2000/svg" xmlns:ev="http://www.w3.org/2001/xml-events" xmlns:xlink="http://www.w3.org/1999/xlink" baseProfile="full" height="366px" version="1.1" width="1940.0px">
  <defs/>
  <path d="M 60 144 L 165 144 Q 188.1 79.2 150 60 L 60 72 L 60 144 z" fill="rgb(255,217,194)" stroke="black"/>
  <text fill="rgb(9,33,173)" font-size="25" x="83.75" y="108.0">rbsleeve</text>
  <path d="M 225 132 L 315 144 Q 353.1 124.8 330 60 L 225 60 L 225 132 z" fill="rgb(255,217,194)" stroke="black"/>
  <text fill="rgb(9,33,173)" font-size="25" x="248.75" y="102.0">rfsleeve</text>
  <path d="M 390 306 L 582 306 L 582 114 L 555 60 L 504 60 Q 525.9 122.69999999999999 489 141 L 390 306 z" fill="rgb(255,217,194)" stroke="black"/>
  <text fill="rgb(9,33,173)" font-size="25" x="492.0" y="167.5">front_right</text>
  <path d="M 662.0 195.0 L 698.0 195.0 Q 761.0 186.0 728.0 105.0 L 698.0 114.0 L 668.0 60.0 L 662.0 195.0 z" fill="rgb(255,217,194)" stroke="black"/>
  <text fill="rgb(9,33,173)" font-size="25" x="665.8" y="136.8">Rhood</text>
  <path d="M 788.0 306.0 L 1172.0 306.0 L 1073.0 141.0 Q 1036.1 122.7 1058.0 60.0 L 1007.0 60.0 L 980.0 69.0 L 953.0 60.0 L 902.0 60.0 Q 923.9 122.69999999999999 887.0 141.0 L 788.0 306.0 z" fill="rgb(255,217,194)" stroke="black"/>
  <text fill="rgb(9,33,173)" font-size="25" x="955.0" y="136.66666666666666">back</text>
  <path d="M 1238.0 195.0 L 1268.0 141.0 L 1298.0 150.0 Q 1331.0 69.0 1268.0 60.0 L 1232.0 60.0 L 1238.0 195.0 z" fill="rgb(255,217,194)" stroke="black"/>
  <text fill="rgb(9,33,173)" font-size="25" x="1235.8" y="124.2">Lhood</text>
  <path d="M 1358.0 306.0 L 1550.0 306.0 L 1451.0 141.0 Q 1414.1 122.7 1436.0 60.0 L 1385.0 60.0 L 1358.0 114.0 L 1358.0 306.0 z" fill="rgb(255,217,194)" stroke="black"/>
  <text fill="rgb(9,33,173)" font-size="25" x="1398.0" y="167.5">front_left</text>
  <path d="M 1610.0 132.0 L 1700.0 144.0 Q 1738.1 124.8 1715.0 60.0 L 1610.0 60.0 L 1610.0 132.0 z" fill="rgb(255,217,194)" stroke="black"/>
  <text fill="rgb(9,33,173)" font-size="25" x="1633.75" y="102.0">lbsleeve</text>
  <path d="M 1775.0 144.0 L 1880.0 144.0 Q 1903.1 79.2 1865.0 60.0 L 1775.0 72.0 L 1775.0 144.0 z" fill="rgb(255,217,194)" stroke="black"/>
  <text fill="rgb(9,33,173)" font-size="25" x="1798.75" y="108.0">lfsleeve</text>
</svg>
