<?xml version="1.0" encoding="utf-8" ?>
<svg xmlns="http://www.w3.org/2000/svg" xmlns:ev="http://www.w3.org/2001/xml-events" xmlns:xlink="http://www.w3.org/1999/xlink" baseProfile="full" height="480px" version="1.1" width="1030.0px">
  <defs/>
  <path d="M 60 420 L 189 420 L 189 78 L 168 60 L 135 60 Q 153.0 110.99999999999999 123 126 L 60 420 z" fill="rgb(255,217,194)" stroke="black"/>
  <text fill="rgb(9,33,173)" font-size="25" x="119.0" y="197.0">front_right</text>
  <path d="M 289.0 162.0 L 325.0 162.0 Q 387.1 146.7 346.0 69.0 L 325.0 78.0 L 304.0 60.0 L 289.0 162.0 z" fill="rgb(255,217,194)" stroke="black"/>
  <text fill="rgb(9,33,173)" font-size="25" x="292.8" y="109.2">Rhood</text>
  <path d="M 406.0 420.0 L 664.0 420.0 L 601.0 126.0 Q 571.0 111.0 589.0 60.0 L 556.0 60.0 L 535.0 69.0 L 514.0 60.0 L 481.0 60.0 Q 499.0 110.99999999999999 469.0 126.0 L 406.0 420.0 z" fill="rgb(255,217,194)" stroke="black"/>
  <text fill="rgb(9,33,173)" font-size="25" x="510.0" y="158.66666666666666">back</text>
  <path d="M 739.0 162.0 L 760.0 144.0 L 781.0 153.0 Q 822.0999999999999 75.30000000000001 760.0 60.0 L 724.0 60.0 L 739.0 162.0 z" fill="rgb(255,217,194)" stroke="black"/>
  <text fill="rgb(9,33,173)" font-size="25" x="727.8" y="118.8">Lhood</text>
  <path d="M 841.0 420.0 L 970.0 420.0 L 907.0 126.0 Q 877.0 111.0 895.0 60.0 L 862.0 60.0 L 841.0 78.0 L 841.0 420.0 z" fill="rgb(255,217,194)" stroke="black"/>
  <text fill="rgb(9,33,173)" font-size="25" x="861.0" y="197.0">front_left</text>
</svg>
