<?xml version="1.0" encoding="utf-8" ?>
<svg xmlns="http://www.w3.org/2000/svg" xmlns:ev="http://www.w3.org/2001/xml-events" xmlns:xlink="http://www.w3.org/1999/xlink" baseProfile="full" height="279px" version="1.1" width="819.5px">
  <defs/>
  <path d="M 60 219 L 198 219 L 198 141 L 162 60 L 120 60 Q 152.7 141.6 105 168 L 60 219 z" fill="rgb(255,217,194)" stroke="black"/>
  <text fill="rgb(9,33,173)" font-size="25" x="115.5" y="147.5">front_right</text>
  <path d="M 285.5 219.0 L 561.5 219.0 L 516.5 168.0 Q 468.8 141.6 501.5 60.0 L 459.5 60.0 Q 423.5 76.4489008710279 387.5 60.0 L 345.5 60.0 Q 378.2 141.6 330.5 168.0 L 285.5 219.0 z" fill="rgb(255,217,194)" stroke="black"/>
  <text fill="rgb(9,33,173)" font-size="25" x="398.5" y="129.75">back</text>
  <path d="M 621.5 219.0 L 759.5 219.0 L 714.5 168.0 Q 666.8 141.6 699.5 60.0 L 657.5 60.0 L 621.5 141.0 L 621.5 219.0 z" fill="rgb(255,217,194)" stroke="black"/>
  <text fill="rgb(9,33,173)" font-size="25" x="654.0" y="147.5">front_left</text>
</svg>
