<?xml version="1.0" encoding="utf-8" ?>
<svg xmlns="http://www.w3.org/2000/svg" xmlns:ev="http://www.w3.org/2001/xml-events" xmlns:xlink="http://www.w3.org/1999/xlink" baseProfile="full" height="321.0px" version="1.1" width="1499.0px">
  <defs/>
  <path d="M 60 222 L 123 222 Q 149.7 150.9 108 129 L 60 60 L 60 222 z" fill="rgb(255,217,194)" stroke="black"/>
  <text fill="rgb(9,33,173)" font-size="25" x="62.75" y="161.25">rbsleeve</text>
  <path d="M 202.75 222.0 L 250.75 153.0 Q 292.45 131.1 265.75 60.0 L 202.75 60.0 L 202.75 222.0 z" fill="rgb(255,217,194)" stroke="black"/>
  <text fill="rgb(9,33,173)" font-size="25" x="205.5" y="126.75">rfsleeve</text>
  <path d="M 357.5 261.0 L 435.5 261.0 L 435.5 75.0 L 399.5 60.0 L 357.5 60.0 Q 386.3 129.9 345.5 153.0 L 357.5 261.0 z" fill="rgb(255,217,194)" stroke="black"/>
  <text fill="rgb(9,33,173)" font-size="25" x="363.5" y="148.0">front_right</text>
  <path d="M 533.5 144.0 L 581.5 150.0 Q 638.1999999999999 137.4 602.5 66.0 L 569.5 75.0 L 533.5 60.0 L 533.5 144.0 z" fill="rgb(255,217,194)" stroke="black"/>
  <text fill="rgb(9,33,173)" font-size="25" x="539.1" y="102.0">Rhood</text>
  <path d="M 674.5 261.0 L 830.5 261.0 L 842.5 153.0 Q 801.6999999999999 129.9 830.5 60.0 L 788.5 60.0 L 752.5 69.0 L 716.5 60.0 L 674.5 60.0 Q 703.3000000000001 129.9 662.5 153.0 L 674.5 261.0 z" fill="rgb(255,217,194)" stroke="black"/>
  <text fill="rgb(9,33,173)" font-size="25" x="727.5" y="129.33333333333331">back</text>
  <path d="M 902.5 150.0 L 938.5 135.0 L 971.5 144.0 Q 1007.1999999999999 72.60000000000001 950.5 60.0 L 902.5 66.0 L 902.5 150.0 z" fill="rgb(255,217,194)" stroke="black"/>
  <text fill="rgb(9,33,173)" font-size="25" x="908.1" y="114.0">Lhood</text>
  <path d="M 1031.5 261.0 L 1109.5 261.0 L 1121.5 153.0 Q 1080.7 129.9 1109.5 60.0 L 1067.5 60.0 L 1031.5 75.0 L 1031.5 261.0 z" fill="rgb(255,217,194)" stroke="black"/>
  <text fill="rgb(9,33,173)" font-size="25" x="1053.5" y="148.0">front_left</text>
  <path d="M 1213.5 222.0 L 1261.5 153.0 Q 1303.2 131.1 1276.5 60.0 L 1213.5 60.0 L 1213.5 222.0 z" fill="rgb(255,217,194)" stroke="black"/>
  <text fill="rgb(9,33,173)" font-size="25" x="1216.25" y="126.75">lbsleeve</text>
  <path d="M 1356.25 222.0 L 1419.25 222.0 Q 1445.95 150.9 1404.25 129.0 L 1356.25 60.0 L 1356.25 222.0 z" fill="rgb(255,217,194)" stroke="black"/>
  <text fill="rgb(9,33,173)" font-size="25" x="1359.0" y="161.25">lfsleeve</text>
</svg>
