<?xml version="1.0" encoding="utf-8" ?>
<svg xmlns="http://www.w3.org/2000/svg" xmlns:ev="http://www.w3.org/2001/xml-events" xmlns:xlink="http://www.w3.org/1999/xlink" baseProfile="full" height="360px" version="1.1" width="1738.0px">
  <defs/>
  <path d="M 60 180 L 198 180 Q 235.5 90.0 183 60 L 60 117 L 60 180 z" fill="rgb(255,217,194)" stroke="black"/>
  <text fill="rgb(9,33,173)" font-size="25" x="100.25" y="137.25">rbsleeve</text>
  <path d="M 258 123 L 381 180 Q 433.5 150.0 396 60 L 258 60 L 258 123 z" fill="rgb(255,217,194)" stroke="black"/>
  <text fill="rgb(9,33,173)" font-size="25" x="298.25" y="108.75">rfsleeve</text>
  <path d="M 456 300 L 552 300 L 552 66 L 528 60 L 474 60 Q 510.3 147.89999999999998 459 177 L 456 300 z" fill="rgb(255,217,194)" stroke="black"/>
  <text fill="rgb(9,33,173)" font-size="25" x="478.5" y="163.5">front_right</text>
  <path d="M 648.5 147.0 L 717.5 150.0 Q 769.7 119.4 711.5 60.0 L 684.5 69.0 L 657.5 63.0 L 648.5 147.0 z" fill="rgb(255,217,194)" stroke="black"/>
  <text fill="rgb(9,33,173)" font-size="25" x="658.9" y="100.8">Rhood</text>
  <path d="M 777.5 300.0 L 969.5 300.0 L 966.5 180.0 Q 914.0 150.0 951.5 60.0 L 897.5 60.0 L 873.5 69.0 L 849.5 60.0 L 795.5 60.0 Q 833.0 150.0 780.5 180.0 L 777.5 300.0 z" fill="rgb(255,217,194)" stroke="black"/>
  <text fill="rgb(9,33,173)" font-size="25" x="848.5" y="144.0">back</text>
  <path d="M 1038.5 147.0 L 1065.5 141.0 L 1092.5 150.0 Q 1150.7 90.6 1098.5 60.0 L 1029.5 63.0 L 1038.5 147.0 z" fill="rgb(255,217,194)" stroke="black"/>
  <text fill="rgb(9,33,173)" font-size="25" x="1039.9" y="115.2">Lhood</text>
  <path d="M 1158.5 300.0 L 1254.5 300.0 L 1251.5 177.0 Q 1200.2 147.9 1236.5 60.0 L 1182.5 60.0 L 1158.5 66.0 L 1158.5 300.0 z" fill="rgb(255,217,194)" stroke="black"/>
  <text fill="rgb(9,33,173)" font-size="25" x="1182.0" y="163.5">front_left</text>
  <path d="M 1342.0 123.0 L 1465.0 180.0 Q 1517.5 150.0 1480.0 60.0 L 1342.0 60.0 L 1342.0 123.0 z" fill="rgb(255,217,194)" stroke="black"/>
  <text fill="rgb(9,33,173)" font-size="25" x="1382.25" y="108.75">lbsleeve</text>
  <path d="M 1540.0 180.0 L 1678.0 180.0 Q 1715.5 90.0 1663.0 60.0 L 1540.0 117.0 L 1540.0 180.0 z" fill="rgb(255,217,194)" stroke="black"/>
  <text fill="rgb(9,33,173)" font-size="25" x="1580.25" y="137.25">lfsleeve</text>
</svg>
