<?xml version="1.0" encoding="utf-8" ?>
<svg xmlns="http://www.w3.org/2000/svg" xmlns:ev="http://www.w3.org/2001/xml-events" xmlns:xlink="http://www.w3.org/1999/xlink" baseProfile="full" height="423.0px" version="1.1" width="1409.0px">
  <defs/>
  <path d="M 60 210 L 84 210 Q 109.19999999999999 146.39999999999998 72 126 L 60 60 L 60 210 z" fill="rgb(255,217,194)" stroke="black"/>
  <text fill="rgb(9,33,173)" font-size="25" x="44.0" y="154.5">rbsleeve</text>
  <path d="M 184.0 210.0 L 196.0 144.0 Q 233.2 123.6 208.0 60.0 L 184.0 60.0 L 184.0 210.0 z" fill="rgb(255,217,194)" stroke="black"/>
  <text fill="rgb(9,33,173)" font-size="25" x="168.0" y="121.5">rfsleeve</text>
  <path d="M 308.0 363.0 L 395.0 363.0 L 395.0 114.0 L 377.0 60.0 L 338.0 60.0 Q 364.09999999999997 120.29999999999998 329.0 141.0 L 308.0 363.0 z" fill="rgb(255,217,194)" stroke="black"/>
  <text fill="rgb(9,33,173)" font-size="25" x="332.0" y="186.5">front_right</text>
  <path d="M 502.0 204.0 L 568.0 204.0 Q 622.0 168.0 556.0 108.0 L 538.0 117.0 L 517.0 60.0 L 502.0 204.0 z" fill="rgb(255,217,194)" stroke="black"/>
  <text fill="rgb(9,33,173)" font-size="25" x="511.20000000000005" y="141.6">Rhood</text>
  <path d="M 628.0 363.0 L 802.0 363.0 L 781.0 141.0 Q 745.9 120.3 772.0 60.0 L 733.0 60.0 L 715.0 69.0 L 697.0 60.0 L 658.0 60.0 Q 684.1 120.29999999999998 649.0 141.0 L 628.0 363.0 z" fill="rgb(255,217,194)" stroke="black"/>
  <text fill="rgb(9,33,173)" font-size="25" x="690.0" y="149.33333333333334">back</text>
  <path d="M 877.0 204.0 L 898.0 147.0 L 916.0 156.0 Q 982.0 96.00000000000001 928.0 60.0 L 862.0 60.0 L 877.0 204.0 z" fill="rgb(255,217,194)" stroke="black"/>
  <text fill="rgb(9,33,173)" font-size="25" x="871.2" y="128.4">Lhood</text>
  <path d="M 988.0 363.0 L 1075.0 363.0 L 1054.0 141.0 Q 1018.9 120.3 1045.0 60.0 L 1006.0 60.0 L 988.0 114.0 L 988.0 363.0 z" fill="rgb(255,217,194)" stroke="black"/>
  <text fill="rgb(9,33,173)" font-size="25" x="1001.0" y="186.5">front_left</text>
  <path d="M 1161.0 210.0 L 1173.0 144.0 Q 1210.1999999999998 123.6 1185.0 60.0 L 1161.0 60.0 L 1161.0 210.0 z" fill="rgb(255,217,194)" stroke="black"/>
  <text fill="rgb(9,33,173)" font-size="25" x="1145.0" y="121.5">lbsleeve</text>
  <path d="M 1285.0 210.0 L 1309.0 210.0 Q 1334.1999999999998 146.39999999999998 1297.0 126.0 L 1285.0 60.0 L 1285.0 210.0 z" fill="rgb(255,217,194)" stroke="black"/>
  <text fill="rgb(9,33,173)" font-size="25" x="1269.0" y="154.5">lfsleeve</text>
</svg>
