<?xml version="1.0" encoding="utf-8" ?>
<svg xmlns="http://www.w3.org/2000/svg" xmlns:ev="http://www.w3.org/2001/xml-events" xmlns:xlink="http://www.w3.org/1999/xlink" baseProfile="full" height="231px" version="1.1" width="1260px">
  <defs/>
  <path d="M 60 171 Q 216.0 183.03080695888266 372 171 L 285 102 L 270 60 L 162 60 L 147 102 L 60 171 z" fill="rgb(255,217,194)" stroke="black"/>
  <text fill="rgb(9,33,173)" font-size="25" x="191.0" y="114.0">skirt_back</text>
  <path d="M 432 171 Q 588.0 128.20936921005733 744 171 L 657 102 L 642 60 L 534 60 L 519 102 L 432 171 z" fill="rgb(255,217,194)" stroke="black"/>
  <text fill="rgb(9,33,173)" font-size="25" x="563.0" y="114.0">skirt_front</text>
  <path d="M 834 168 L 942 168 L 972 144 Q 934.8 123.6 960 60 L 933 60 Q 888.0 109.83238226994777 843 60 L 816 60 Q 841.2 123.6 804 144 L 834 168 z" fill="rgb(255,217,194)" stroke="black"/>
  <text fill="rgb(9,33,173)" font-size="25" x="863.0" y="111.0">top_back</text>
  <path d="M 1062 165 L 1170 165 L 1200 144 Q 1162.8000000000002 123.6 1188 60 L 1161 60 L 1116 105 L 1071 60 L 1044 60 Q 1069.1999999999998 123.6 1032 144 L 1062 165 z" fill="rgb(255,217,194)" stroke="black"/>
  <text fill="rgb(9,33,173)" font-size="25" x="1091.0" y="110.0">top_front</text>
</svg>
