<?xml version="1.0" encoding="utf-8" ?>
<svg xmlns="http://www.w3.org/2000/svg" xmlns:ev="http://www.w3.org/2001/xml-events" xmlns:xlink="http://www.w3.org/1999/xlink" baseProfile="full" height="324.0px" version="1.1" width="1435.0px">
  <defs/>
  <path d="M 60 162 L 132 162 Q 162.3 84.60000000000001 117 60 L 60 84 L 60 162 z" fill="rgb(255,217,194)" stroke="black"/>
  <text fill="rgb(9,33,173)" font-size="25" x="67.25" y="120.0">rbsleeve</text>
  <path d="M 207.25 138.0 L 264.25 162.0 Q 309.55 137.4 279.25 60.0 L 207.25 60.0 L 207.25 138.0 z" fill="rgb(255,217,194)" stroke="black"/>
  <text fill="rgb(9,33,173)" font-size="25" x="214.5" y="108.0">rfsleeve</text>
  <path d="M 354.5 264.0 L 552.5 264.0 L 549.5 159.0 Q 505.4 135.3 534.5 60.0 L 492.5 60.0 L 453.5 69.0 L 414.5 60.0 L 372.5 60.0 Q 401.6 135.3 357.5 159.0 L 354.5 264.0 z" fill="rgb(255,217,194)" stroke="black"/>
  <text fill="rgb(9,33,173)" font-size="25" x="428.5" y="131.33333333333334">back</text>
  <path d="M 612.5 264.0 L 810.5 264.0 L 807.5 159.0 Q 763.4 135.3 792.5 60.0 L 750.5 60.0 L 711.5 60.0 L 672.5 60.0 L 630.5 60.0 Q 659.6 135.3 615.5 159.0 L 612.5 264.0 z" fill="rgb(255,217,194)" stroke="black"/>
  <text fill="rgb(9,33,173)" font-size="25" x="686.5" y="130.33333333333331">front</text>
  <path d="M 873.5 159.0 L 903.5 159.0 Q 975.5 154.5 945.5 60.0 L 909.5 69.0 L 870.5 66.0 L 873.5 159.0 z" fill="rgb(255,217,194)" stroke="black"/>
  <text fill="rgb(9,33,173)" font-size="25" x="875.5" y="105.6">Rhood</text>
  <path d="M 1005.5 153.0 L 1044.5 150.0 L 1080.5 159.0 Q 1110.5 64.5 1038.5 60.0 L 1008.5 60.0 L 1005.5 153.0 z" fill="rgb(255,217,194)" stroke="black"/>
  <text fill="rgb(9,33,173)" font-size="25" x="1010.5" y="119.4">Lhood</text>
  <path d="M 1140.5 138.0 L 1197.5 162.0 Q 1242.8 137.4 1212.5 60.0 L 1140.5 60.0 L 1140.5 138.0 z" fill="rgb(255,217,194)" stroke="black"/>
  <text fill="rgb(9,33,173)" font-size="25" x="1147.75" y="108.0">lbsleeve</text>
  <path d="M 1287.75 162.0 L 1359.75 162.0 Q 1390.05 84.60000000000001 1344.75 60.0 L 1287.75 84.0 L 1287.75 162.0 z" fill="rgb(255,217,194)" stroke="black"/>
  <text fill="rgb(9,33,173)" font-size="25" x="1295.0" y="120.0">lfsleeve</text>
</svg>
