<?xml version="1.0" encoding="utf-8" ?>
<svg xmlns="http://www.w3.org/2000/svg" xmlns:ev="http://www.w3.org/2001/xml-events" xmlns:xlink="http://www.w3.org/1999/xlink" baseProfile="full" height="333.0px" version="1.1" width="1036.0px">
  <defs/>
  <path d="M 60 228 L 90 228 Q 118.8 158.1 78 135 L 60 60 L 60 228 z" fill="rgb(255,217,194)" stroke="black"/>
  <text fill="rgb(9,33,173)" font-size="25" x="47.0" y="165.75">rbsleeve</text>
  <path d="M 187.0 228.0 L 205.0 153.0 Q 245.8 129.9 217.0 60.0 L 187.0 60.0 L 187.0 228.0 z" fill="rgb(255,217,194)" stroke="black"/>
  <text fill="rgb(9,33,173)" font-size="25" x="174.0" y="128.25">rfsleeve</text>
  <path d="M 314.0 273.0 L 488.0 273.0 L 479.0 153.0 Q 438.2 129.9 467.0 60.0 L 419.0 60.0 Q 401.0 85.72410564397417 383.0 60.0 L 335.0 60.0 Q 363.8 129.9 323.0 153.0 L 314.0 273.0 z" fill="rgb(255,217,194)" stroke="black"/>
  <text fill="rgb(9,33,173)" font-size="25" x="376.0" y="139.5">back</text>
  <path d="M 548.0 273.0 L 722.0 273.0 L 713.0 153.0 Q 672.1999999999999 129.9 701.0 60.0 L 653.0 60.0 L 635.0 108.0 L 617.0 60.0 L 569.0 60.0 Q 597.8000000000001 129.9 557.0 153.0 L 548.0 273.0 z" fill="rgb(255,217,194)" stroke="black"/>
  <text fill="rgb(9,33,173)" font-size="25" x="610.0" y="136.33333333333334">front</text>
  <path d="M 782.0 228.0 L 800.0 153.0 Q 840.8000000000001 129.9 812.0 60.0 L 782.0 60.0 L 782.0 228.0 z" fill="rgb(255,217,194)" stroke="black"/>
  <text fill="rgb(9,33,173)" font-size="25" x="769.0" y="128.25">lbsleeve</text>
  <path d="M 909.0 228.0 L 939.0 228.0 Q 967.8000000000001 158.1 927.0 135.0 L 909.0 60.0 L 909.0 228.0 z" fill="rgb(255,217,194)" stroke="black"/>
  <text fill="rgb(9,33,173)" font-size="25" x="896.0" y="165.75">lfsleeve</text>
</svg>
