<?xml version="1.0" encoding="utf-8" ?>
<svg xmlns="http://www.w3.org/2000/svg" xmlns:ev="http://www.w3.org/2001/xml-events" xmlns:xlink="http://www.w3.org/1999/xlink" baseProfile="full" height="276px" version="1.1" width="589.0px">
  <defs/>
  <path d="M 75 216 L 123 216 L 123 147 L 108 60 L 72 60 Q 85.2 102.6 60 114 L 75 216 z" fill="rgb(255,217,194)" stroke="black"/>
  <text fill="rgb(9,33,173)" font-size="25" x="68.5" y="138.5">front_right</text>
  <path d="M 253.5 216.0 L 349.5 216.0 L 364.5 117.0 Q 338.09999999999997 104.7 352.5 60.0 L 316.5 60.0 Q 301.5 75.95907353436434 286.5 60.0 L 250.5 60.0 Q 264.9 104.7 238.5 117.0 L 253.5 216.0 z" fill="rgb(255,217,194)" stroke="black"/>
  <text fill="rgb(9,33,173)" font-size="25" x="276.5" y="116.25">back</text>
  <path d="M 424.5 216.0 L 472.5 216.0 L 487.5 114.0 Q 462.29999999999995 102.6 475.5 60.0 L 439.5 60.0 L 424.5 147.0 L 424.5 216.0 z" fill="rgb(255,217,194)" stroke="black"/>
  <text fill="rgb(9,33,173)" font-size="25" x="429.0" y="138.5">front_left</text>
</svg>
