<?xml version="1.0" encoding="utf-8" ?>
<svg xmlns="http://www.w3.org/2000/svg" xmlns:ev="http://www.w3.org/2001/xml-events" xmlns:xlink="http://www.w3.org/1999/xlink" baseProfile="full" height="255.0px" version="1.1" width="1227.0px">
  <defs/>
  <path d="M 60 150 L 231 150 L 231 90 L 192 60 L 168 60 Q 192.0 121.49999999999999 156 141 L 60 150 z" fill="rgb(255,217,194)" stroke="black"/>
  <text fill="rgb(9,33,173)" font-size="25" x="148.0" y="111.5">front_right</text>
  <path d="M 324.0 195.0 L 372.0 189.0 Q 444.0 171.0 396.0 81.0 L 360.0 90.0 L 318.0 60.0 L 324.0 195.0 z" fill="rgb(255,217,194)" stroke="black"/>
  <text fill="rgb(9,33,173)" font-size="25" x="329.0" y="126.0">Rhood</text>
  <path d="M 456.0 150.0 L 798.0 150.0 L 702.0 141.0 Q 666.0 121.5 690.0 60.0 L 666.0 60.0 L 627.0 69.0 L 588.0 60.0 L 564.0 60.0 Q 588.0 121.49999999999999 552.0 141.0 L 456.0 150.0 z" fill="rgb(255,217,194)" stroke="black"/>
  <text fill="rgb(9,33,173)" font-size="25" x="602.0" y="102.0">back</text>
  <path d="M 858.0 195.0 L 900.0 165.0 L 936.0 174.0 Q 984.0 84.0 912.0 66.0 L 864.0 60.0 L 858.0 195.0 z" fill="rgb(255,217,194)" stroke="black"/>
  <text fill="rgb(9,33,173)" font-size="25" x="869.0" y="135.0">Lhood</text>
  <path d="M 996.0 150.0 L 1167.0 150.0 L 1071.0 141.0 Q 1035.0 121.5 1059.0 60.0 L 1035.0 60.0 L 996.0 90.0 L 996.0 150.0 z" fill="rgb(255,217,194)" stroke="black"/>
  <text fill="rgb(9,33,173)" font-size="25" x="1029.0" y="111.5">front_left</text>
</svg>
