<?xml version="1.0" encoding="utf-8" ?>
<svg xmlns="http://www.w3.org/2000/svg" xmlns:ev="http://www.w3.org/2001/xml-events" xmlns:xlink="http://www.w3.org/1999/xlink" baseProfile="full" height="432px" version="1.1" width="1152px">
  <defs/>
  <path d="M 60 372 L 120 372 Q 173.85 109.05000000000001 165 60 L 90 60 Q 104.7 141.75 60 153 Q 81.9 163.95 60 372 z" fill="rgb(255,217,194)" stroke="black"/>
  <text fill="rgb(9,33,173)" font-size="25" x="74.0" y="206.4">Rback</text>
  <path d="M 270 372 L 330 372 Q 308.1 163.95000000000002 330 153 Q 289.95 140.25 300 60 L 225 60 Q 216.15 109.05 270 372 z" fill="rgb(255,217,194)" stroke="black"/>
  <text fill="rgb(9,33,173)" font-size="25" x="266.0" y="206.4">Rfront</text>
  <path d="M 390 168 L 468 168 L 546 168 L 525 117 Q 499.49999999999994 103.5 516 60 L 495 60 Q 468.0 91.03649855600669 441 60 L 420 60 Q 436.5 103.5 411 117 L 390 168 z" fill="rgb(255,217,194)" stroke="black"/>
  <text fill="rgb(9,33,173)" font-size="25" x="443.0" y="111.66666666666667">up_back</text>
  <path d="M 606 165 L 684 165 L 762 165 L 741 114 Q 716.6999999999999 101.39999999999999 732 60 L 711 60 L 684 99 L 657 60 L 636 60 Q 651.3000000000001 101.39999999999999 627 114 L 606 165 z" fill="rgb(255,217,194)" stroke="black"/>
  <text fill="rgb(9,33,173)" font-size="25" x="659.0" y="109.2">up_front</text>
  <path d="M 867 372 L 927 372 Q 905.1 163.95000000000002 927 153 Q 882.3 141.75 897 60 L 822 60 Q 813.15 109.05 867 372 z" fill="rgb(255,217,194)" stroke="black"/>
  <text fill="rgb(9,33,173)" font-size="25" x="863.0" y="206.4">Lback</text>
  <path d="M 987 372 L 1047 372 Q 1100.85 109.05000000000001 1092 60 L 1017 60 Q 1027.05 140.25 987 153 Q 1008.9 163.95 987 372 z" fill="rgb(255,217,194)" stroke="black"/>
  <text fill="rgb(9,33,173)" font-size="25" x="1001.0" y="206.4">Lfront</text>
</svg>
