<?xml version="1.0" encoding="utf-8" ?>
<svg xmlns="http://www.w3.org/2000/svg" xmlns:ev="http://www.w3.org/2001/xml-events" xmlns:xlink="http://www.w3.org/1999/xlink" baseProfile="full" height="276px" version="1.1" width="938.0px">
  <defs/>
  <path d="M 60 216 Q 156.0 204.5911051397358 252 216 L 225 102 L 219 60 L 93 60 L 87 102 L 60 216 z" fill="rgb(255,217,194)" stroke="black"/>
  <text fill="rgb(9,33,173)" font-size="25" x="131.0" y="129.0">skirt_back</text>
  <path d="M 312 216 Q 408.0 122.7551199827106 504 216 L 477 102 L 471 60 L 345 60 L 339 102 L 312 216 z" fill="rgb(255,217,194)" stroke="black"/>
  <text fill="rgb(9,33,173)" font-size="25" x="383.0" y="129.0">skirt_front</text>
  <path d="M 564 168 L 690 168 L 687 114 Q 662.6999999999999 101.39999999999999 678 60 L 648 60 Q 627.0 116.06482057297075 606 60 L 576 60 Q 591.3000000000001 101.39999999999999 567 114 L 564 168 z" fill="rgb(255,217,194)" stroke="black"/>
  <text fill="rgb(9,33,173)" font-size="25" x="602.0" y="103.5">top_back</text>
  <path d="M 750 165 L 876 165 L 873 114 Q 848.6999999999999 101.39999999999999 864 60 L 834 60 L 813 93 L 792 60 L 762 60 Q 777.3000000000001 101.39999999999999 753 114 L 750 165 z" fill="rgb(255,217,194)" stroke="black"/>
  <text fill="rgb(9,33,173)" font-size="25" x="788.0" y="102.0">top_front</text>
</svg>
