<?xml version="1.0" encoding="utf-8" ?>
<svg xmlns="http://www.w3.org/2000/svg" xmlns:ev="http://www.w3.org/2001/xml-events" xmlns:xlink="http://www.w3.org/1999/xlink" baseProfile="full" height="402px" version="1.1" width="1814.6px">
  <defs/>
  <path d="M 60 204 L 180 204 Q 206.4 138.29999999999998 168 117 L 60 60 L 60 204 z" fill="rgb(255,217,194)" stroke="black"/>
  <text fill="rgb(9,33,173)" font-size="25" x="92.0" y="149.25">rbsleeve</text>
  <path d="M 240 204 L 348 147 Q 386.40000000000003 125.7 360 60 L 240 60 L 240 204 z" fill="rgb(255,217,194)" stroke="black"/>
  <text fill="rgb(9,33,173)" font-size="25" x="272.0" y="120.75">rfsleeve</text>
  <path d="M 420 342 L 462 342 Q 516.9 104.70000000000002 510 60 L 450 60 Q 464.7 141.75 420 153 Q 438.9 162.45 420 342 z" fill="rgb(255,217,194)" stroke="black"/>
  <text fill="rgb(9,33,173)" font-size="25" x="427.4" y="194.4">Rback</text>
  <path d="M 618 342 L 660 342 Q 641.1 162.45000000000002 660 153 Q 619.95 140.25 630 60 L 570 60 Q 563.1 104.7 618 342 z" fill="rgb(255,217,194)" stroke="black"/>
  <text fill="rgb(9,33,173)" font-size="25" x="602.6" y="194.4">Rfront</text>
  <path d="M 740.6 168.0 L 800.6 168.0 L 860.6 168.0 L 878.6 147.0 Q 840.2 125.7 866.6 60.0 L 842.6 60.0 Q 800.6 73.18277094822858 758.6 60.0 L 734.6 60.0 Q 761.0 125.7 722.6 147.0 L 740.6 168.0 z" fill="rgb(255,217,194)" stroke="black"/>
  <text fill="rgb(9,33,173)" font-size="25" x="775.6000000000001" y="118.33333333333333">up_back</text>
  <path d="M 956.6 165.0 L 1016.6 165.0 L 1076.6 165.0 L 1094.6 147.0 Q 1056.2 125.7 1082.6 60.0 L 1058.6 60.0 L 1016.6 126.0 L 974.6 60.0 L 950.6 60.0 Q 977.0 125.7 938.6 147.0 L 956.6 165.0 z" fill="rgb(255,217,194)" stroke="black"/>
  <text fill="rgb(9,33,173)" font-size="25" x="991.6000000000001" y="118.5">up_front</text>
  <path d="M 1202.6 342.0 L 1244.6 342.0 Q 1225.6999999999998 162.45000000000002 1244.6 153.0 Q 1199.8999999999999 141.75 1214.6 60.0 L 1154.6 60.0 Q 1147.7 104.7 1202.6 342.0 z" fill="rgb(255,217,194)" stroke="black"/>
  <text fill="rgb(9,33,173)" font-size="25" x="1187.2" y="194.4">Lback</text>
  <path d="M 1304.6 342.0 L 1346.6 342.0 Q 1401.4999999999998 104.70000000000002 1394.6 60.0 L 1334.6 60.0 Q 1344.6499999999999 140.25 1304.6 153.0 Q 1323.5 162.45 1304.6 342.0 z" fill="rgb(255,217,194)" stroke="black"/>
  <text fill="rgb(9,33,173)" font-size="25" x="1312.0" y="194.4">Lfront</text>
  <path d="M 1454.6 204.0 L 1562.6 147.0 Q 1600.9999999999998 125.7 1574.6 60.0 L 1454.6 60.0 L 1454.6 204.0 z" fill="rgb(255,217,194)" stroke="black"/>
  <text fill="rgb(9,33,173)" font-size="25" x="1486.6" y="120.75">lbsleeve</text>
  <path d="M 1634.6 204.0 L 1754.6 204.0 Q 1780.9999999999998 138.29999999999998 1742.6 117.0 L 1634.6 60.0 L 1634.6 204.0 z" fill="rgb(255,217,194)" stroke="black"/>
  <text fill="rgb(9,33,173)" font-size="25" x="1666.6" y="149.25">lfsleeve</text>
</svg>
