<?xml version="1.0" encoding="utf-8" ?>
<svg xmlns="http://www.w3.org/2000/svg" xmlns:ev="http://www.w3.org/2001/xml-events" xmlns:xlink="http://www.w3.org/1999/xlink" baseProfile="full" height="381.0px" version="1.1" width="1496.0px">
  <defs/>
  <path d="M 60 162 L 147 162 Q 174.6 94.2 135 72 L 60 60 L 60 162 z" fill="rgb(255,217,194)" stroke="black"/>
  <text fill="rgb(9,33,173)" font-size="25" x="75.5" y="117.0">rbsleeve</text>
  <path d="M 215.5 162.0 L 290.5 150.0 Q 330.1 127.8 302.5 60.0 L 215.5 60.0 L 215.5 162.0 z" fill="rgb(255,217,194)" stroke="black"/>
  <text fill="rgb(9,33,173)" font-size="25" x="231.0" y="111.0">rfsleeve</text>
  <path d="M 371.0 318.0 L 521.0 318.0 L 521.0 66.0 L 491.0 60.0 L 464.0 60.0 Q 490.40000000000003 125.7 452.0 147.0 L 371.0 318.0 z" fill="rgb(255,217,194)" stroke="black"/>
  <text fill="rgb(9,33,173)" font-size="25" x="445.0" y="164.5">front_right</text>
  <path d="M 615.0 321.0 L 915.0 321.0 L 834.0 147.0 Q 795.6 125.7 822.0 60.0 L 795.0 60.0 Q 765.0 234.63067273049313 735.0 60.0 L 708.0 60.0 Q 734.4 125.7 696.0 147.0 L 615.0 321.0 z" fill="rgb(255,217,194)" stroke="black"/>
  <text fill="rgb(9,33,173)" font-size="25" x="740.0" y="150.0">back</text>
  <path d="M 975.0 318.0 L 1125.0 318.0 L 1044.0 147.0 Q 1005.6000000000001 125.7 1032.0 60.0 L 1005.0 60.0 L 975.0 66.0 L 975.0 318.0 z" fill="rgb(255,217,194)" stroke="black"/>
  <text fill="rgb(9,33,173)" font-size="25" x="1001.0" y="164.5">front_left</text>
  <path d="M 1185.0 162.0 L 1260.0 150.0 Q 1299.6 127.8 1272.0 60.0 L 1185.0 60.0 L 1185.0 162.0 z" fill="rgb(255,217,194)" stroke="black"/>
  <text fill="rgb(9,33,173)" font-size="25" x="1200.5" y="111.0">lbsleeve</text>
  <path d="M 1340.5 162.0 L 1427.5 162.0 Q 1455.1 94.2 1415.5 72.0 L 1340.5 60.0 L 1340.5 162.0 z" fill="rgb(255,217,194)" stroke="black"/>
  <text fill="rgb(9,33,173)" font-size="25" x="1356.0" y="117.0">lfsleeve</text>
</svg>
