<?xml version="1.0" encoding="utf-8" ?>
<svg xmlns="http://www.w3.org/2000/svg" xmlns:ev="http://www.w3.org/2001/xml-events" xmlns:xlink="http://www.w3.org/1999/xlink" baseProfile="full" height="300px" version="1.1" width="1260.0px">
  <defs/>
  <path d="M 60 240 L 258 240 L 258 60 L 60 60 L 60 240 z" fill="rgb(255,217,194)" stroke="black"/>
  <text fill="rgb(9,33,173)" font-size="25" x="134.0" y="153.0">skirt_back</text>
  <text fill="rgb(245,96,66)" font-size="25" x="256.6997003669797" y="61.63663603001844">0</text>
  <text fill="rgb(245,96,66)" font-size="25" x="51.30029963302028" y="61.63663603001844">1</text>
  <text fill="rgb(245,96,66)" font-size="25" x="51.30029963302028" y="248.36336396998155">2</text>
  <text fill="rgb(245,96,66)" font-size="25" x="256.6997003669797" y="248.36336396998155">3</text>
  <text fill="rgb(50,179,101)" font-size="20" x="154.0" y="250.0">0</text>
  <text fill="rgb(50,179,101)" font-size="20" x="258.0" y="155.0">1</text>
  <text fill="rgb(50,179,101)" font-size="20" x="154.0" y="60.0">2</text>
  <text fill="rgb(50,179,101)" font-size="20" x="50.0" y="155.0">3</text>
  <path d="M 318 72 L 408 72 L 408 60 L 318 60 L 318 72 z" fill="rgb(255,217,194)" stroke="black"/>
  <text fill="rgb(9,33,173)" font-size="25" x="338.0" y="69.0">wb_back</text>
  <text fill="rgb(245,96,66)" font-size="25" x="407.95613950341317" y="64.33918139954491">0</text>
  <text fill="rgb(245,96,66)" font-size="25" x="308.04386049658683" y="64.33918139954491">1</text>
  <text fill="rgb(245,96,66)" font-size="25" x="308.04386049658683" y="77.66081860045509">2</text>
  <text fill="rgb(245,96,66)" font-size="25" x="407.95613950341317" y="77.66081860045509">3</text>
  <text fill="rgb(50,179,101)" font-size="20" x="358.0" y="82.0">0</text>
  <text fill="rgb(50,179,101)" font-size="20" x="408.0" y="71.0">1</text>
  <text fill="rgb(50,179,101)" font-size="20" x="358.0" y="60.0">2</text>
  <text fill="rgb(50,179,101)" font-size="20" x="308.0" y="71.0">3</text>
  <path d="M 468 72 L 558 72 L 558 60 L 468 60 L 468 72 z" fill="rgb(255,217,194)" stroke="black"/>
  <text fill="rgb(9,33,173)" font-size="25" x="488.0" y="69.0">wb_front</text>
  <text fill="rgb(245,96,66)" font-size="25" x="458.04386049658683" y="64.33918139954491">0</text>
  <text fill="rgb(245,96,66)" font-size="25" x="557.9561395034132" y="64.33918139954491">1</text>
  <text fill="rgb(245,96,66)" font-size="25" x="557.9561395034132" y="77.66081860045509">2</text>
  <text fill="rgb(245,96,66)" font-size="25" x="458.04386049658683" y="77.66081860045509">3</text>
  <text fill="rgb(50,179,101)" font-size="20" x="508.0" y="82.0">0</text>
  <text fill="rgb(50,179,101)" font-size="20" x="558.0" y="71.0">1</text>
  <text fill="rgb(50,179,101)" font-size="20" x="508.0" y="60.0">2</text>
  <text fill="rgb(50,179,101)" font-size="20" x="458.0" y="71.0">3</text>
  <path d="M 628.0 240.0 L 826.0 240.0 L 826.0 60.0 L 628.0 60.0 L 628.0 240.0 z" fill="rgb(255,217,194)" stroke="black"/>
  <text fill="rgb(9,33,173)" font-size="25" x="702.0" y="153.0">skirt_front</text>
  <text fill="rgb(245,96,66)" font-size="25" x="619.3002996330202" y="61.63663603001844">0</text>
  <text fill="rgb(245,96,66)" font-size="25" x="824.6997003669798" y="61.63663603001844">1</text>
  <text fill="rgb(245,96,66)" font-size="25" x="824.6997003669798" y="248.36336396998155">2</text>
  <text fill="rgb(245,96,66)" font-size="25" x="619.3002996330202" y="248.36336396998155">3</text>
  <text fill="rgb(50,179,101)" font-size="20" x="722.0" y="250.0">0</text>
  <text fill="rgb(50,179,101)" font-size="20" x="826.0" y="155.0">1</text>
  <text fill="rgb(50,179,101)" font-size="20" x="722.0" y="60.0">2</text>
  <text fill="rgb(50,179,101)" font-size="20" x="618.0" y="155.0">3</text>
  <path d="M 886.0 168.0 L 1012.0 168.0 L 1012.0 111.0 Q 988.9 99.3 1003.0 60.0 L 973.0 60.0 Q 949.0 74.4 925.0 60.0 L 895.0 60.0 Q 909.1 99.29999999999998 886.0 111.0 L 886.0 168.0 z" fill="rgb(255,217,194)" stroke="black"/>
  <text fill="rgb(9,33,173)" font-size="25" x="924.0" y="102.75">top_back</text>
  <text fill="rgb(245,96,66)" font-size="25" x="970.5843454951696" y="60.71967777362537">0</text>
  <text fill="rgb(245,96,66)" font-size="25" x="1002.0266844194681" y="62.03591285789153">1</text>
  <text fill="rgb(245,96,66)" font-size="25" x="1011.9221378775424" y="116.8789531924183">2</text>
  <text fill="rgb(245,96,66)" font-size="25" x="1010.3914005136653" y="176.67401722313744">3</text>
  <text fill="rgb(245,96,66)" font-size="25" x="877.6085994863347" y="176.67401722313744">4</text>
  <text fill="rgb(245,96,66)" font-size="25" x="876.0778621224576" y="116.8789531924183">5</text>
  <text fill="rgb(245,96,66)" font-size="25" x="885.9733155805319" y="62.03591285789153">6</text>
  <text fill="rgb(245,96,66)" font-size="25" x="917.4156545048304" y="60.71967777362537">7</text>
  <text fill="rgb(50,179,101)" font-size="20" x="944.0" y="178.0">0</text>
  <text fill="rgb(50,179,101)" font-size="20" x="1011.2286403116069" y="147.1680706727996">1</text>
  <text fill="rgb(50,179,101)" font-size="20" x="1007.357951181509" y="89.31665291732475">2</text>
  <text fill="rgb(50,179,101)" font-size="20" x="986.5017033506404" y="61.43095620030884">3</text>
  <text fill="rgb(50,179,101)" font-size="20" x="944.0" y="60.0">4</text>
  <text fill="rgb(50,179,101)" font-size="20" x="901.4982966493596" y="61.43095620030884">5</text>
  <text fill="rgb(50,179,101)" font-size="20" x="880.642048818491" y="89.31665291732475">6</text>
  <text fill="rgb(50,179,101)" font-size="20" x="876.7713596883931" y="147.1680706727996">7</text>
  <path d="M 1072.0 165.0 L 1198.0 165.0 L 1198.0 108.0 Q 1176.1 97.19999999999999 1189.0 60.0 L 1159.0 60.0 L 1135.0 93.0 L 1111.0 60.0 L 1081.0 60.0 Q 1093.9 97.19999999999999 1072.0 108.0 L 1072.0 165.0 z" fill="rgb(255,217,194)" stroke="black"/>
  <text fill="rgb(9,33,173)" font-size="25" x="1110.0" y="100.66666666666667">top_front</text>
  <text fill="rgb(245,96,66)" font-size="25" x="1130.0" y="93.0">0</text>
  <text fill="rgb(245,96,66)" font-size="25" x="1103.3132083784928" y="60.78322981624573">1</text>
  <text fill="rgb(245,96,66)" font-size="25" x="1071.8990889915317" y="62.139488000265885">2</text>
  <text fill="rgb(245,96,66)" font-size="25" x="1062.065930015001" y="113.80929190230144">3</text>
  <text fill="rgb(245,96,66)" font-size="25" x="1063.5839034294743" y="173.65106617590573">4</text>
  <text fill="rgb(245,96,66)" font-size="25" x="1196.4160965705257" y="173.65106617590573">5</text>
  <text fill="rgb(245,96,66)" font-size="25" x="1197.934069984999" y="113.80929190230144">6</text>
  <text fill="rgb(245,96,66)" font-size="25" x="1188.1009110084683" y="62.139488000265885">7</text>
  <text fill="rgb(245,96,66)" font-size="25" x="1156.6867916215072" y="60.78322981624573">8</text>
  <text fill="rgb(50,179,101)" font-size="20" x="1130.0" y="175.0">0</text>
  <text fill="rgb(50,179,101)" font-size="20" x="1197.2563573425634" y="144.12362767411975">1</text>
  <text fill="rgb(50,179,101)" font-size="20" x="1193.3688989145771" y="87.86253643591078">2</text>
  <text fill="rgb(50,179,101)" font-size="20" x="1172.5964776024898" y="61.52647889674056">3</text>
  <text fill="rgb(50,179,101)" font-size="20" x="1144.4659269572428" y="77.15037883930765">4</text>
  <text fill="rgb(50,179,101)" font-size="20" x="1115.5340730427572" y="77.15037883930765">5</text>
  <text fill="rgb(50,179,101)" font-size="20" x="1087.4035223975102" y="61.52647889674056">6</text>
  <text fill="rgb(50,179,101)" font-size="20" x="1066.6311010854229" y="87.86253643591078">7</text>
  <text fill="rgb(50,179,101)" font-size="20" x="1062.7436426574366" y="144.12362767411975">8</text>
</svg>
