<?xml version="1.0" encoding="utf-8" ?>
<svg xmlns="http://www.w3.org/2000/svg" xmlns:ev="http://www.w3.org/2001/xml-events" xmlns:xlink="http://www.w3.org/1999/xlink" baseProfile="full" height="276px" version="1.1" width="1164px">
  <defs/>
  <path d="M 60 216 L 159 216 Q 171.9 83.7 165 60 L 90 60 Q 104.7 141.75 60 153 Q 66.3 156.15 60 216 z" fill="rgb(255,217,194)" stroke="black"/>
  <text fill="rgb(9,33,173)" font-size="25" x="81.8" y="144.0">Rback</text>
  <path d="M 231 216 L 330 216 Q 323.7 156.15 330 153 Q 289.95 140.25 300 60 L 225 60 Q 218.1 83.7 231 216 z" fill="rgb(255,217,194)" stroke="black"/>
  <text fill="rgb(9,33,173)" font-size="25" x="258.2" y="144.0">Rfront</text>
  <path d="M 396 168 L 471 168 L 546 168 L 552 153 Q 511.2 129.9 540 60 L 513 60 Q 471.0 98.72103939545315 429 60 L 402 60 Q 430.8 129.9 390 153 L 396 168 z" fill="rgb(255,217,194)" stroke="black"/>
  <text fill="rgb(9,33,173)" font-size="25" x="446.0" y="119.66666666666667">up_back</text>
  <path d="M 618 165 L 693 165 L 768 165 L 774 153 Q 733.1999999999999 129.9 762 60 L 735 60 L 693 138 L 651 60 L 624 60 Q 652.8000000000001 129.9 612 153 L 618 165 z" fill="rgb(255,217,194)" stroke="black"/>
  <text fill="rgb(9,33,173)" font-size="25" x="668.0" y="120.9">up_front</text>
  <path d="M 840 216 L 939 216 Q 932.7 156.15 939 153 Q 894.3 141.75 909 60 L 834 60 Q 827.1 83.7 840 216 z" fill="rgb(255,217,194)" stroke="black"/>
  <text fill="rgb(9,33,173)" font-size="25" x="867.2" y="144.0">Lback</text>
  <path d="M 999 216 L 1098 216 Q 1110.8999999999999 83.7 1104 60 L 1029 60 Q 1039.05 140.25 999 153 Q 1005.3 156.15 999 216 z" fill="rgb(255,217,194)" stroke="black"/>
  <text fill="rgb(9,33,173)" font-size="25" x="1020.8" y="144.0">Lfront</text>
</svg>
