<?xml version="1.0" encoding="utf-8" ?>
<svg xmlns="http://www.w3.org/2000/svg" xmlns:ev="http://www.w3.org/2001/xml-events" xmlns:xlink="http://www.w3.org/1999/xlink" baseProfile="full" height="330px" version="1.1" width="1040.0px">
  <defs/>
  <path d="M 60 270 L 189 270 L 189 90 L 165 60 L 129 60 Q 143.1 99.29999999999998 120 111 L 60 270 z" fill="rgb(255,217,194)" stroke="black"/>
  <text fill="rgb(9,33,173)" font-size="25" x="117.0" y="146.5">front_right</text>
  <path d="M 287.0 174.0 L 323.0 174.0 Q 386.90000000000003 162.29999999999998 350.0 81.0 L 323.0 90.0 L 296.0 60.0 L 287.0 174.0 z" fill="rgb(255,217,194)" stroke="black"/>
  <text fill="rgb(9,33,173)" font-size="25" x="290.8" y="118.8">Rhood</text>
  <path d="M 410.0 270.0 L 668.0 270.0 L 608.0 114.0 Q 583.6999999999999 101.39999999999999 599.0 60.0 L 563.0 60.0 L 539.0 69.0 L 515.0 60.0 L 479.0 60.0 Q 494.3 101.39999999999999 470.0 114.0 L 410.0 270.0 z" fill="rgb(255,217,194)" stroke="black"/>
  <text fill="rgb(9,33,173)" font-size="25" x="514.0" y="122.66666666666667">back</text>
  <path d="M 737.0 174.0 L 764.0 144.0 L 791.0 153.0 Q 827.9 71.7 764.0 60.0 L 728.0 60.0 L 737.0 174.0 z" fill="rgb(255,217,194)" stroke="black"/>
  <text fill="rgb(9,33,173)" font-size="25" x="731.8" y="121.2">Lhood</text>
  <path d="M 851.0 270.0 L 980.0 270.0 L 920.0 111.0 Q 896.9 99.3 911.0 60.0 L 875.0 60.0 L 851.0 90.0 L 851.0 270.0 z" fill="rgb(255,217,194)" stroke="black"/>
  <text fill="rgb(9,33,173)" font-size="25" x="873.0" y="146.5">front_left</text>
</svg>
