<?xml version="1.0" encoding="utf-8" ?>
<svg xmlns="http://www.w3.org/2000/svg" xmlns:ev="http://www.w3.org/2001/xml-events" xmlns:xlink="http://www.w3.org/1999/xlink" baseProfile="full" height="285.0px" version="1.1" width="1813.0px">
  <defs/>
  <path d="M 60 183 L 96 183 Q 104.7 143.4 81 135 L 60 60 L 60 183 z" fill="rgb(255,217,194)" stroke="black"/>
  <text fill="rgb(9,33,173)" font-size="25" x="49.25" y="143.25">rbsleeve</text>
  <path d="M 189.25 183.0 L 210.25 108.0 Q 233.95 99.6 225.25 60.0 L 189.25 60.0 L 189.25 183.0 z" fill="rgb(255,217,194)" stroke="black"/>
  <text fill="rgb(9,33,173)" font-size="25" x="178.5" y="105.75">rfsleeve</text>
  <path d="M 318.5 225.0 Q 483.5 340.09599441836076 648.5 225.0 L 561.5 102.0 L 537.5 60.0 L 429.5 60.0 L 405.5 102.0 L 318.5 225.0 z" fill="rgb(255,217,194)" stroke="black"/>
  <text fill="rgb(9,33,173)" font-size="25" x="458.5" y="132.0">skirt_back</text>
  <path d="M 708.5 225.0 Q 873.5 133.44234113737483 1038.5 225.0 L 951.5 102.0 L 927.5 60.0 L 819.5 60.0 L 795.5 102.0 L 708.5 225.0 z" fill="rgb(255,217,194)" stroke="black"/>
  <text fill="rgb(9,33,173)" font-size="25" x="848.5" y="132.0">skirt_front</text>
  <path d="M 1128.5 168.0 L 1236.5 168.0 L 1266.5 111.0 Q 1241.6 101.7 1251.5 60.0 L 1227.5 60.0 Q 1182.5 127.5144915713229 1137.5 60.0 L 1113.5 60.0 Q 1123.4 101.69999999999999 1098.5 111.0 L 1128.5 168.0 z" fill="rgb(255,217,194)" stroke="black"/>
  <text fill="rgb(9,33,173)" font-size="25" x="1157.5" y="102.75">top_back</text>
  <path d="M 1356.5 165.0 L 1464.5 165.0 L 1494.5 111.0 Q 1469.6 101.7 1479.5 60.0 L 1455.5 60.0 L 1410.5 75.0 L 1365.5 60.0 L 1341.5 60.0 Q 1351.4 101.69999999999999 1326.5 111.0 L 1356.5 165.0 z" fill="rgb(255,217,194)" stroke="black"/>
  <text fill="rgb(9,33,173)" font-size="25" x="1385.5" y="99.33333333333333">top_front</text>
  <path d="M 1554.5 183.0 L 1575.5 108.0 Q 1599.2 99.6 1590.5 60.0 L 1554.5 60.0 L 1554.5 183.0 z" fill="rgb(255,217,194)" stroke="black"/>
  <text fill="rgb(9,33,173)" font-size="25" x="1543.75" y="105.75">lbsleeve</text>
  <path d="M 1683.75 183.0 L 1719.75 183.0 Q 1728.45 143.4 1704.75 135.0 L 1683.75 60.0 L 1683.75 183.0 z" fill="rgb(255,217,194)" stroke="black"/>
  <text fill="rgb(9,33,173)" font-size="25" x="1673.0" y="143.25">lfsleeve</text>
</svg>
