<?xml version="1.0" encoding="utf-8" ?>
<svg xmlns="http://www.w3.org/2000/svg" xmlns:ev="http://www.w3.org/2001/xml-events" xmlns:xlink="http://www.w3.org/1999/xlink" baseProfile="full" height="264px" version="1.1" width="1933.0px">
  <defs/>
  <path d="M 60 204 L 159 204 Q 186.9 130.8 144 108 L 60 60 L 60 204 z" fill="rgb(255,217,194)" stroke="black"/>
  <text fill="rgb(9,33,173)" font-size="25" x="80.75" y="147.0">rbsleeve</text>
  <path d="M 220.75 204.0 L 304.75 156.0 Q 347.65 133.2 319.75 60.0 L 220.75 60.0 L 220.75 204.0 z" fill="rgb(255,217,194)" stroke="black"/>
  <text fill="rgb(9,33,173)" font-size="25" x="241.5" y="123.0">rfsleeve</text>
  <path d="M 381.5 165.0 L 789.5 165.0 L 678.5 156.0 Q 635.6 133.2 663.5 60.0 L 630.5 60.0 L 585.5 69.0 L 540.5 60.0 L 507.5 60.0 Q 535.4 133.2 492.5 156.0 L 381.5 165.0 z" fill="rgb(255,217,194)" stroke="black"/>
  <text fill="rgb(9,33,173)" font-size="25" x="560.5" y="108.66666666666667">back</text>
  <path d="M 849.5 165.0 L 1257.5 165.0 L 1146.5 156.0 Q 1103.6 133.2 1131.5 60.0 L 1098.5 60.0 L 1053.5 69.0 L 1008.5 60.0 L 975.5 60.0 Q 1003.4 133.2 960.5 156.0 L 849.5 165.0 z" fill="rgb(255,217,194)" stroke="black"/>
  <text fill="rgb(9,33,173)" font-size="25" x="1028.5" y="108.66666666666667">front</text>
  <path d="M 1326.5 183.0 L 1338.5 183.0 Q 1426.7 188.4 1404.5 69.0 L 1362.5 78.0 L 1317.5 60.0 L 1326.5 183.0 z" fill="rgb(255,217,194)" stroke="black"/>
  <text fill="rgb(9,33,173)" font-size="25" x="1324.9" y="117.6">Rhood</text>
  <path d="M 1464.5 183.0 L 1509.5 165.0 L 1551.5 174.0 Q 1573.7 54.6 1485.5 60.0 L 1473.5 60.0 L 1464.5 183.0 z" fill="rgb(255,217,194)" stroke="black"/>
  <text fill="rgb(9,33,173)" font-size="25" x="1471.9" y="131.4">Lhood</text>
  <path d="M 1611.5 204.0 L 1695.5 156.0 Q 1738.4 133.2 1710.5 60.0 L 1611.5 60.0 L 1611.5 204.0 z" fill="rgb(255,217,194)" stroke="black"/>
  <text fill="rgb(9,33,173)" font-size="25" x="1632.25" y="123.0">lbsleeve</text>
  <path d="M 1772.25 204.0 L 1871.25 204.0 Q 1899.15 130.8 1856.25 108.0 L 1772.25 60.0 L 1772.25 204.0 z" fill="rgb(255,217,194)" stroke="black"/>
  <text fill="rgb(9,33,173)" font-size="25" x="1793.0" y="147.0">lfsleeve</text>
</svg>
