<?xml version="1.0" encoding="utf-8" ?>
<svg xmlns="http://www.w3.org/2000/svg" xmlns:ev="http://www.w3.org/2001/xml-events" xmlns:xlink="http://www.w3.org/1999/xlink" baseProfile="full" height="402.0px" version="1.1" width="1225.0px">
  <defs/>
  <path d="M 60 189 L 126 189 Q 163.5 99.0 111 69 L 60 60 L 60 189 z" fill="rgb(255,217,194)" stroke="black"/>
  <text fill="rgb(9,33,173)" font-size="25" x="64.25" y="129.75">rbsleeve</text>
  <path d="M 204.25 189.0 L 255.25 180.0 Q 307.75 150.0 270.25 60.0 L 204.25 60.0 L 204.25 189.0 z" fill="rgb(255,217,194)" stroke="black"/>
  <text fill="rgb(9,33,173)" font-size="25" x="208.5" y="125.25">rfsleeve</text>
  <path d="M 348.5 342.0 L 582.5 342.0 L 561.5 180.0 Q 509.0 150.0 546.5 60.0 L 498.5 60.0 Q 465.5 207.29028923947644 432.5 60.0 L 384.5 60.0 Q 422.0 150.0 369.5 180.0 L 348.5 342.0 z" fill="rgb(255,217,194)" stroke="black"/>
  <text fill="rgb(9,33,173)" font-size="25" x="440.5" y="163.5">back</text>
  <path d="M 642.5 342.0 L 876.5 342.0 L 855.5 180.0 Q 803.0 150.0 840.5 60.0 L 792.5 60.0 L 759.5 114.0 L 726.5 60.0 L 678.5 60.0 Q 716.0 150.0 663.5 180.0 L 642.5 342.0 z" fill="rgb(255,217,194)" stroke="black"/>
  <text fill="rgb(9,33,173)" font-size="25" x="734.5" y="158.33333333333334">front</text>
  <path d="M 936.5 189.0 L 987.5 180.0 Q 1040.0 150.0 1002.5 60.0 L 936.5 60.0 L 936.5 189.0 z" fill="rgb(255,217,194)" stroke="black"/>
  <text fill="rgb(9,33,173)" font-size="25" x="940.75" y="125.25">lbsleeve</text>
  <path d="M 1080.75 189.0 L 1146.75 189.0 Q 1184.25 99.0 1131.75 69.0 L 1080.75 60.0 L 1080.75 189.0 z" fill="rgb(255,217,194)" stroke="black"/>
  <text fill="rgb(9,33,173)" font-size="25" x="1085.0" y="129.75">lfsleeve</text>
</svg>
