<?xml version="1.0" encoding="utf-8" ?>
<svg xmlns="http://www.w3.org/2000/svg" xmlns:ev="http://www.w3.org/2001/xml-events" xmlns:xlink="http://www.w3.org/1999/xlink" baseProfile="full" height="321px" version="1.1" width="969.0px">
  <defs/>
  <path d="M 60 261 L 237 261 L 237 108 L 198 60 L 159 60 Q 193.8 140.4 147 168 L 60 261 z" fill="rgb(255,217,194)" stroke="black"/>
  <text fill="rgb(9,33,173)" font-size="25" x="148.0" y="156.0">front_right</text>
  <path d="M 318.0 261.0 L 672.0 261.0 L 585.0 168.0 Q 538.1999999999999 140.4 573.0 60.0 L 534.0 60.0 Q 495.0 74.3320515809579 456.0 60.0 L 417.0 60.0 Q 451.8 140.4 405.0 168.0 L 318.0 261.0 z" fill="rgb(255,217,194)" stroke="black"/>
  <text fill="rgb(9,33,173)" font-size="25" x="470.0" y="140.25">back</text>
  <path d="M 732.0 261.0 L 909.0 261.0 L 822.0 168.0 Q 775.1999999999999 140.4 810.0 60.0 L 771.0 60.0 L 732.0 108.0 L 732.0 261.0 z" fill="rgb(255,217,194)" stroke="black"/>
  <text fill="rgb(9,33,173)" font-size="25" x="771.0" y="156.0">front_left</text>
</svg>
