<?xml version="1.0" encoding="utf-8" ?>
<svg xmlns="http://www.w3.org/2000/svg" xmlns:ev="http://www.w3.org/2001/xml-events" xmlns:xlink="http://www.w3.org/1999/xlink" baseProfile="full" height="315px" version="1.1" width="1402.0px">
  <defs/>
  <path d="M 60 255 L 306 255 L 306 60 L 60 60 L 60 255 z" fill="rgb(255,217,194)" stroke="black"/>
  <text fill="rgb(9,33,173)" font-size="25" x="158.0" y="160.5">skirt_back</text>
  <path d="M 366 81 L 456 81 L 456 60 L 366 60 L 366 81 z" fill="rgb(255,217,194)" stroke="black"/>
  <text fill="rgb(9,33,173)" font-size="25" x="386.0" y="73.5">wb_back</text>
  <path d="M 516 81 L 606 81 L 606 60 L 516 60 L 516 81 z" fill="rgb(255,217,194)" stroke="black"/>
  <text fill="rgb(9,33,173)" font-size="25" x="536.0" y="73.5">wb_front</text>
  <path d="M 676.0 255.0 L 922.0 255.0 L 922.0 60.0 L 676.0 60.0 L 676.0 255.0 z" fill="rgb(255,217,194)" stroke="black"/>
  <text fill="rgb(9,33,173)" font-size="25" x="774.0" y="160.5">skirt_front</text>
  <path d="M 982.0 189.0 L 1132.0 189.0 L 1132.0 114.0 Q 1106.8000000000002 102.6 1120.0 60.0 L 1081.0 60.0 Q 1057.0 83.93334341982943 1033.0 60.0 L 994.0 60.0 Q 1007.2 102.6 982.0 114.0 L 982.0 189.0 z" fill="rgb(255,217,194)" stroke="black"/>
  <text fill="rgb(9,33,173)" font-size="25" x="1032.0" y="108.75">top_back</text>
  <path d="M 1192.0 189.0 L 1342.0 189.0 L 1342.0 114.0 Q 1316.8000000000002 102.6 1330.0 60.0 L 1291.0 60.0 L 1267.0 90.0 L 1243.0 60.0 L 1204.0 60.0 Q 1217.1999999999998 102.6 1192.0 114.0 L 1192.0 189.0 z" fill="rgb(255,217,194)" stroke="black"/>
  <text fill="rgb(9,33,173)" font-size="25" x="1242.0" y="107.0">top_front</text>
</svg>
