<?xml version="1.0" encoding="utf-8" ?>
<svg xmlns="http://www.w3.org/2000/svg" xmlns:ev="http://www.w3.org/2001/xml-events" xmlns:xlink="http://www.w3.org/1999/xlink" baseProfile="full" height="414px" version="1.1" width="1188px">
  <defs/>
  <path d="M 60 354 L 111 354 Q 176.7 107.1 171 60 L 90 60 Q 104.7 141.75 60 153 Q 80.1 163.05 60 354 z" fill="rgb(255,217,194)" stroke="black"/>
  <text fill="rgb(9,33,173)" font-size="25" x="73.4" y="199.2">Rback</text>
  <path d="M 291 354 L 342 354 Q 321.9 163.05 342 153 Q 301.95 140.25 312 60 L 231 60 Q 225.3 107.1 291 354 z" fill="rgb(255,217,194)" stroke="black"/>
  <text fill="rgb(9,33,173)" font-size="25" x="278.6" y="199.2">Rfront</text>
  <path d="M 402 168 L 483 168 L 564 168 L 549 105 Q 527.4 96.3 537 60 L 498 60 Q 483.0 68.45130259577562 468 60 L 429 60 Q 438.6 96.3 417 105 L 402 168 z" fill="rgb(255,217,194)" stroke="black"/>
  <text fill="rgb(9,33,173)" font-size="25" x="458.0" y="109.0">up_back</text>
  <path d="M 624 165 L 705 165 L 786 165 L 771 105 Q 749.4 96.3 759 60 L 720 60 L 705 114 L 690 60 L 651 60 Q 660.6 96.3 639 105 L 624 165 z" fill="rgb(255,217,194)" stroke="black"/>
  <text fill="rgb(9,33,173)" font-size="25" x="680.0" y="108.9">up_front</text>
  <path d="M 906 354 L 957 354 Q 936.9 163.05 957 153 Q 912.3 141.75 927 60 L 846 60 Q 840.3 107.1 906 354 z" fill="rgb(255,217,194)" stroke="black"/>
  <text fill="rgb(9,33,173)" font-size="25" x="893.6" y="199.2">Lback</text>
  <path d="M 1017 354 L 1068 354 Q 1133.7 107.1 1128 60 L 1047 60 Q 1057.05 140.25 1017 153 Q 1037.1 163.05 1017 354 z" fill="rgb(255,217,194)" stroke="black"/>
  <text fill="rgb(9,33,173)" font-size="25" x="1030.4" y="199.2">Lfront</text>
</svg>
