<?xml version="1.0" encoding="utf-8" ?>
<svg xmlns="http://www.w3.org/2000/svg" xmlns:ev="http://www.w3.org/2001/xml-events" xmlns:xlink="http://www.w3.org/1999/xlink" baseProfile="full" height="444.0px" version="1.1" width="1592.0px">
  <defs/>
  <path d="M 60 141 L 156 141 Q 177.9 78.30000000000001 141 60 L 60 60 L 60 141 z" fill="rgb(255,217,194)" stroke="black"/>
  <text fill="rgb(9,33,173)" font-size="25" x="79.25" y="103.5">rbsleeve</text>
  <path d="M 219.25 141.0 L 300.25 141.0 Q 337.15 122.7 315.25 60.0 L 219.25 60.0 L 219.25 141.0 z" fill="rgb(255,217,194)" stroke="black"/>
  <text fill="rgb(9,33,173)" font-size="25" x="238.5" y="103.5">rfsleeve</text>
  <path d="M 378.5 384.0 L 477.5 384.0 L 477.5 66.0 L 444.5 60.0 L 405.5 60.0 Q 429.5 121.49999999999999 393.5 141.0 L 378.5 384.0 z" fill="rgb(255,217,194)" stroke="black"/>
  <text fill="rgb(9,33,173)" font-size="25" x="404.5" y="185.5">front_right</text>
  <path d="M 574.5 174.0 L 643.5 165.0 Q 706.5 133.5 643.5 60.0 L 610.5 69.0 L 574.5 63.0 L 574.5 174.0 z" fill="rgb(255,217,194)" stroke="black"/>
  <text fill="rgb(9,33,173)" font-size="25" x="584.3" y="109.2">Rhood</text>
  <path d="M 703.5 384.0 L 901.5 384.0 L 886.5 141.0 Q 850.5 121.5 874.5 60.0 L 835.5 60.0 L 802.5 69.0 L 769.5 60.0 L 730.5 60.0 Q 754.5 121.49999999999999 718.5 141.0 L 703.5 384.0 z" fill="rgb(255,217,194)" stroke="black"/>
  <text fill="rgb(9,33,173)" font-size="25" x="777.5" y="154.0">back</text>
  <path d="M 961.5 171.0 L 997.5 165.0 L 1030.5 174.0 Q 1093.5 100.5 1030.5 69.0 L 961.5 60.0 L 961.5 171.0 z" fill="rgb(255,217,194)" stroke="black"/>
  <text fill="rgb(9,33,173)" font-size="25" x="971.3" y="130.8">Lhood</text>
  <path d="M 1090.5 384.0 L 1189.5 384.0 L 1174.5 141.0 Q 1138.5 121.5 1162.5 60.0 L 1123.5 60.0 L 1090.5 66.0 L 1090.5 384.0 z" fill="rgb(255,217,194)" stroke="black"/>
  <text fill="rgb(9,33,173)" font-size="25" x="1113.5" y="185.5">front_left</text>
  <path d="M 1273.5 141.0 L 1354.5 141.0 Q 1391.4 122.7 1369.5 60.0 L 1273.5 60.0 L 1273.5 141.0 z" fill="rgb(255,217,194)" stroke="black"/>
  <text fill="rgb(9,33,173)" font-size="25" x="1292.75" y="103.5">lbsleeve</text>
  <path d="M 1432.75 141.0 L 1528.75 141.0 Q 1550.65 78.30000000000001 1513.75 60.0 L 1432.75 60.0 L 1432.75 141.0 z" fill="rgb(255,217,194)" stroke="black"/>
  <text fill="rgb(9,33,173)" font-size="25" x="1452.0" y="103.5">lfsleeve</text>
</svg>
