<?xml version="1.0" encoding="utf-8" ?>
<svg xmlns="http://www.w3.org/2000/svg" xmlns:ev="http://www.w3.org/2001/xml-events" xmlns:xlink="http://www.w3.org/1999/xlink" baseProfile="full" height="330px" version="1.1" width="1428.0px">
  <defs/>
  <path d="M 60 270 L 342 270 L 342 60 L 60 60 L 60 270 z" fill="rgb(255,217,194)" stroke="black"/>
  <text fill="rgb(9,33,173)" font-size="25" x="176.0" y="168.0">skirt_back</text>
  <path d="M 402 78 L 492 78 L 492 60 L 402 60 L 402 78 z" fill="rgb(255,217,194)" stroke="black"/>
  <text fill="rgb(9,33,173)" font-size="25" x="422.0" y="72.0">wb_back</text>
  <path d="M 552 78 L 642 78 L 642 60 L 552 60 L 552 78 z" fill="rgb(255,217,194)" stroke="black"/>
  <text fill="rgb(9,33,173)" font-size="25" x="572.0" y="72.0">wb_front</text>
  <path d="M 712.0 270.0 L 994.0 270.0 L 994.0 60.0 L 712.0 60.0 L 712.0 270.0 z" fill="rgb(255,217,194)" stroke="black"/>
  <text fill="rgb(9,33,173)" font-size="25" x="828.0" y="168.0">skirt_front</text>
  <path d="M 1054.0 180.0 L 1180.0 180.0 L 1180.0 108.0 Q 1157.2 98.39999999999999 1168.0 60.0 L 1144.0 60.0 Q 1117.0 75.84094184246098 1090.0 60.0 L 1066.0 60.0 Q 1076.8 98.39999999999999 1054.0 108.0 L 1054.0 180.0 z" fill="rgb(255,217,194)" stroke="black"/>
  <text fill="rgb(9,33,173)" font-size="25" x="1092.0" y="105.0">top_back</text>
  <path d="M 1240.0 177.0 L 1366.0 177.0 L 1366.0 105.0 Q 1344.4 96.3 1354.0 60.0 L 1330.0 60.0 L 1303.0 114.0 L 1276.0 60.0 L 1252.0 60.0 Q 1261.6 96.3 1240.0 105.0 L 1240.0 177.0 z" fill="rgb(255,217,194)" stroke="black"/>
  <text fill="rgb(9,33,173)" font-size="25" x="1278.0" y="105.0">top_front</text>
</svg>
