<?xml version="1.0" encoding="utf-8" ?>
<svg xmlns="http://www.w3.org/2000/svg" xmlns:ev="http://www.w3.org/2001/xml-events" xmlns:xlink="http://www.w3.org/1999/xlink" baseProfile="full" height="324px" version="1.1" width="1152px">
  <defs/>
  <path d="M 60 264 L 180 264 Q 167.25 89.25 153 60 L 90 60 Q 104.7 141.75 60 153 Q 71.1 158.55 60 264 z" fill="rgb(255,217,194)" stroke="black"/>
  <text fill="rgb(9,33,173)" font-size="25" x="83.6" y="163.2">Rback</text>
  <path d="M 240 264 L 360 264 Q 348.9 158.55 360 153 Q 319.95 140.25 330 60 L 267 60 Q 252.75 89.25 240 264 z" fill="rgb(255,217,194)" stroke="black"/>
  <text fill="rgb(9,33,173)" font-size="25" x="286.4" y="163.2">Rfront</text>
  <path d="M 420 168 L 483 168 L 546 168 L 543 144 Q 506.69999999999993 122.39999999999999 534 60 L 516 60 Q 483.0 142.8929198052371 450 60 L 432 60 Q 459.3 122.39999999999999 423 144 L 420 168 z" fill="rgb(255,217,194)" stroke="black"/>
  <text fill="rgb(9,33,173)" font-size="25" x="458.0" y="117.66666666666667">up_back</text>
  <path d="M 606 165 L 669 165 L 732 165 L 729 144 Q 692.6999999999999 122.39999999999999 720 60 L 702 60 L 669 81 L 636 60 L 618 60 Q 645.3000000000001 122.39999999999999 609 144 L 606 165 z" fill="rgb(255,217,194)" stroke="black"/>
  <text fill="rgb(9,33,173)" font-size="25" x="644.0" y="113.4">up_front</text>
  <path d="M 792 264 L 912 264 Q 900.9 158.55 912 153 Q 867.3 141.75 882 60 L 819 60 Q 804.75 89.25 792 264 z" fill="rgb(255,217,194)" stroke="black"/>
  <text fill="rgb(9,33,173)" font-size="25" x="838.4" y="163.2">Lback</text>
  <path d="M 972 264 L 1092 264 Q 1079.25 89.25 1065 60 L 1002 60 Q 1012.05 140.25 972 153 Q 983.1 158.55 972 264 z" fill="rgb(255,217,194)" stroke="black"/>
  <text fill="rgb(9,33,173)" font-size="25" x="995.6" y="163.2">Lfront</text>
</svg>
