<?xml version="1.0" encoding="utf-8" ?>
<svg xmlns="http://www.w3.org/2000/svg" xmlns:ev="http://www.w3.org/2001/xml-events" xmlns:xlink="http://www.w3.org/1999/xlink" baseProfile="full" height="480.0px" version="1.1" width="1336.0px">
  <defs/>
  <path d="M 60 156 L 111 156 Q 133.8 96.60000000000001 99 78 L 60 60 L 60 156 z" fill="rgb(255,217,194)" stroke="black"/>
  <text fill="rgb(9,33,173)" font-size="25" x="57.5" y="115.5">rbsleeve</text>
  <path d="M 197.5 156.0 L 236.5 138.0 Q 271.3 119.39999999999999 248.5 60.0 L 197.5 60.0 L 197.5 156.0 z" fill="rgb(255,217,194)" stroke="black"/>
  <text fill="rgb(9,33,173)" font-size="25" x="195.0" y="106.5">rfsleeve</text>
  <path d="M 335.0 420.0 L 509.0 420.0 L 503.0 138.0 Q 467.3 120.6 488.0 60.0 L 455.0 60.0 L 422.0 69.0 L 389.0 60.0 L 356.0 60.0 Q 376.7 120.6 341.0 138.0 L 335.0 420.0 z" fill="rgb(255,217,194)" stroke="black"/>
  <text fill="rgb(9,33,173)" font-size="25" x="397.0" y="161.33333333333334">back</text>
  <path d="M 569.0 420.0 L 743.0 420.0 L 737.0 138.0 Q 701.3 120.6 722.0 60.0 L 689.0 60.0 L 656.0 60.0 L 623.0 60.0 L 590.0 60.0 Q 610.7 120.6 575.0 138.0 L 569.0 420.0 z" fill="rgb(255,217,194)" stroke="black"/>
  <text fill="rgb(9,33,173)" font-size="25" x="631.0" y="160.33333333333334">front</text>
  <path d="M 803.0 141.0 L 860.0 147.0 Q 915.8000000000001 128.1 872.0 60.0 L 839.0 69.0 L 803.0 66.0 L 803.0 141.0 z" fill="rgb(255,217,194)" stroke="black"/>
  <text fill="rgb(9,33,173)" font-size="25" x="810.4" y="99.6">Rhood</text>
  <path d="M 932.0 141.0 L 968.0 138.0 L 1001.0 147.0 Q 1044.8 78.89999999999999 989.0 60.0 L 932.0 66.0 L 932.0 141.0 z" fill="rgb(255,217,194)" stroke="black"/>
  <text fill="rgb(9,33,173)" font-size="25" x="939.4" y="113.4">Lhood</text>
  <path d="M 1061.0 156.0 L 1100.0 138.0 Q 1134.8 119.39999999999999 1112.0 60.0 L 1061.0 60.0 L 1061.0 156.0 z" fill="rgb(255,217,194)" stroke="black"/>
  <text fill="rgb(9,33,173)" font-size="25" x="1058.5" y="106.5">lbsleeve</text>
  <path d="M 1198.5 156.0 L 1249.5 156.0 Q 1272.3 96.60000000000001 1237.5 78.0 L 1198.5 60.0 L 1198.5 156.0 z" fill="rgb(255,217,194)" stroke="black"/>
  <text fill="rgb(9,33,173)" font-size="25" x="1196.0" y="115.5">lfsleeve</text>
</svg>
