<?xml version="1.0" encoding="utf-8" ?>
<svg xmlns="http://www.w3.org/2000/svg" xmlns:ev="http://www.w3.org/2001/xml-events" xmlns:xlink="http://www.w3.org/1999/xlink" baseProfile="full" height="318px" version="1.1" width="1788px">
  <defs/>
  <path d="M 60 117 L 168 117 Q 177.6 80.7 156 72 L 60 60 L 60 117 z" fill="rgb(255,217,194)" stroke="black"/>
  <text fill="rgb(9,33,173)" font-size="25" x="86.0" y="94.5">rbsleeve</text>
  <path d="M 228 117 L 324 105 Q 345.6 96.3 336 60 L 228 60 L 228 117 z" fill="rgb(255,217,194)" stroke="black"/>
  <text fill="rgb(9,33,173)" font-size="25" x="254.0" y="88.5">rfsleeve</text>
  <path d="M 396 258 L 465 258 Q 495.29999999999995 90.90000000000002 489 60 L 426 60 Q 440.7 141.75 396 153 Q 406.5 158.25 396 258 z" fill="rgb(255,217,194)" stroke="black"/>
  <text fill="rgb(9,33,173)" font-size="25" x="409.4" y="160.8">Rback</text>
  <path d="M 573 258 L 642 258 Q 631.5 158.25 642 153 Q 601.95 140.25 612 60 L 549 60 Q 542.7 90.9 573 258 z" fill="rgb(255,217,194)" stroke="black"/>
  <text fill="rgb(9,33,173)" font-size="25" x="578.6" y="160.8">Rfront</text>
  <path d="M 720 168 L 783 168 L 846 168 L 864 108 Q 841.1999999999999 98.39999999999999 852 60 L 801 60 Q 783.0 96.68861094942393 765 60 L 714 60 Q 724.8000000000001 98.39999999999999 702 108 L 720 168 z" fill="rgb(255,217,194)" stroke="black"/>
  <text fill="rgb(9,33,173)" font-size="25" x="758.0" y="109.66666666666667">up_back</text>
  <path d="M 942 165 L 1005 165 L 1068 165 L 1086 108 Q 1063.2 98.39999999999999 1074 60 L 1023 60 L 1005 93 L 987 60 L 936 60 Q 946.8000000000001 98.39999999999999 924 108 L 942 165 z" fill="rgb(255,217,194)" stroke="black"/>
  <text fill="rgb(9,33,173)" font-size="25" x="980.0" y="107.4">up_front</text>
  <path d="M 1170 258 L 1239 258 Q 1228.5 158.25 1239 153 Q 1194.3 141.75 1209 60 L 1146 60 Q 1139.6999999999998 90.9 1170 258 z" fill="rgb(255,217,194)" stroke="black"/>
  <text fill="rgb(9,33,173)" font-size="25" x="1175.6" y="160.8">Lback</text>
  <path d="M 1299 258 L 1368 258 Q 1398.3000000000002 90.90000000000002 1392 60 L 1329 60 Q 1339.05 140.25 1299 153 Q 1309.5 158.25 1299 258 z" fill="rgb(255,217,194)" stroke="black"/>
  <text fill="rgb(9,33,173)" font-size="25" x="1312.4" y="160.8">Lfront</text>
  <path d="M 1452 117 L 1548 105 Q 1569.6 96.3 1560 60 L 1452 60 L 1452 117 z" fill="rgb(255,217,194)" stroke="black"/>
  <text fill="rgb(9,33,173)" font-size="25" x="1478.0" y="88.5">lbsleeve</text>
  <path d="M 1620 117 L 1728 117 Q 1737.6 80.7 1716 72 L 1620 60 L 1620 117 z" fill="rgb(255,217,194)" stroke="black"/>
  <text fill="rgb(9,33,173)" font-size="25" x="1646.0" y="94.5">lfsleeve</text>
</svg>
