<?xml version="1.0" encoding="utf-8" ?>
<svg xmlns="http://www.w3.org/2000/svg" xmlns:ev="http://www.w3.org/2001/xml-events" xmlns:xlink="http://www.w3.org/1999/xlink" baseProfile="full" height="348.0px" version="1.1" width="1085.0px">
  <defs/>
  <path d="M 60 177 L 84 177 Q 93.6 140.7 72 132 L 60 60 L 60 177 z" fill="rgb(255,217,194)" stroke="black"/>
  <text fill="rgb(9,33,173)" font-size="25" x="44.0" y="139.5">rbsleeve</text>
  <path d="M 184.0 177.0 L 196.0 105.0 Q 217.6 96.3 208.0 60.0 L 184.0 60.0 L 184.0 177.0 z" fill="rgb(255,217,194)" stroke="black"/>
  <text fill="rgb(9,33,173)" font-size="25" x="168.0" y="103.5">rfsleeve</text>
  <path d="M 308.0 288.0 L 371.0 288.0 L 371.0 144.0 L 356.0 60.0 L 317.0 60.0 Q 328.7 95.1 308.0 105.0 L 308.0 288.0 z" fill="rgb(255,217,194)" stroke="black"/>
  <text fill="rgb(9,33,173)" font-size="25" x="313.5" y="160.5">front_right</text>
  <path d="M 483.5 288.0 L 609.5 288.0 L 609.5 105.0 Q 588.8 95.1 600.5 60.0 L 561.5 60.0 Q 546.5 162.6401436845355 531.5 60.0 L 492.5 60.0 Q 504.2 95.1 483.5 105.0 L 483.5 288.0 z" fill="rgb(255,217,194)" stroke="black"/>
  <text fill="rgb(9,33,173)" font-size="25" x="521.5" y="131.25">back</text>
  <path d="M 669.5 288.0 L 732.5 288.0 L 732.5 105.0 Q 711.8 95.1 723.5 60.0 L 684.5 60.0 L 669.5 144.0 L 669.5 288.0 z" fill="rgb(255,217,194)" stroke="black"/>
  <text fill="rgb(9,33,173)" font-size="25" x="677.0" y="160.5">front_left</text>
  <path d="M 837.0 177.0 L 849.0 105.0 Q 870.6 96.3 861.0 60.0 L 837.0 60.0 L 837.0 177.0 z" fill="rgb(255,217,194)" stroke="black"/>
  <text fill="rgb(9,33,173)" font-size="25" x="821.0" y="103.5">lbsleeve</text>
  <path d="M 961.0 177.0 L 985.0 177.0 Q 994.6 140.7 973.0 132.0 L 961.0 60.0 L 961.0 177.0 z" fill="rgb(255,217,194)" stroke="black"/>
  <text fill="rgb(9,33,173)" font-size="25" x="945.0" y="139.5">lfsleeve</text>
</svg>
