<?xml version="1.0" encoding="utf-8" ?>
<svg xmlns="http://www.w3.org/2000/svg" xmlns:ev="http://www.w3.org/2001/xml-events" xmlns:xlink="http://www.w3.org/1999/xlink" baseProfile="full" height="375px" version="1.1" width="819.0px">
  <defs/>
  <path d="M 60 315 L 198 315 L 198 144 L 159 60 L 120 60 Q 131.1 103.8 105 114 L 60 315 z" fill="rgb(255,217,194)" stroke="black"/>
  <text fill="rgb(9,33,173)" font-size="25" x="115.0" y="171.0">front_right</text>
  <path d="M 285.0 315.0 L 561.0 315.0 L 516.0 117.0 Q 488.7 105.9 501.0 60.0 L 462.0 60.0 Q 423.0 191.9975550824413 384.0 60.0 L 345.0 60.0 Q 357.3 105.9 330.0 117.0 L 285.0 315.0 z" fill="rgb(255,217,194)" stroke="black"/>
  <text fill="rgb(9,33,173)" font-size="25" x="398.0" y="141.0">back</text>
  <path d="M 621.0 315.0 L 759.0 315.0 L 714.0 114.0 Q 687.9 103.8 699.0 60.0 L 660.0 60.0 L 621.0 144.0 L 621.0 315.0 z" fill="rgb(255,217,194)" stroke="black"/>
  <text fill="rgb(9,33,173)" font-size="25" x="654.0" y="171.0">front_left</text>
</svg>
