<?xml version="1.0" encoding="utf-8" ?>
<svg xmlns="http://www.w3.org/2000/svg" xmlns:ev="http://www.w3.org/2001/xml-events" xmlns:xlink="http://www.w3.org/1999/xlink" baseProfile="full" height="450px" version="1.1" width="1584px">
  <defs/>
  <path d="M 60 168 L 165 168 Q 199.8 87.60000000000001 153 60 L 60 75 L 60 168 z" fill="rgb(255,217,194)" stroke="black"/>
  <text fill="rgb(9,33,173)" font-size="25" x="84.5" y="120.75">rbsleeve</text>
  <path d="M 225 153 L 318 168 Q 364.8 140.4 330 60 L 225 60 L 225 153 z" fill="rgb(255,217,194)" stroke="black"/>
  <text fill="rgb(9,33,173)" font-size="25" x="249.5" y="113.25">rfsleeve</text>
  <path d="M 390 390 L 630 390 L 588 168 Q 541.1999999999999 140.4 576 60 L 546 60 L 510 69 L 474 60 L 444 60 Q 478.8 140.4 432 168 L 390 390 z" fill="rgb(255,217,194)" stroke="black"/>
  <text fill="rgb(9,33,173)" font-size="25" x="485.0" y="161.33333333333334">back</text>
  <path d="M 690 390 L 930 390 L 888 168 Q 841.1999999999999 140.4 876 60 L 846 60 L 810 78 L 774 60 L 744 60 Q 778.8000000000001 140.4 732 168 L 690 390 z" fill="rgb(255,217,194)" stroke="black"/>
  <text fill="rgb(9,33,173)" font-size="25" x="785.0" y="162.33333333333334">front</text>
  <path d="M 993 180 L 1062 177 Q 1123.2 146.4 1062 75 L 1029 84 L 990 60 L 993 180 z" fill="rgb(255,217,194)" stroke="black"/>
  <text fill="rgb(9,33,173)" font-size="25" x="1002.2" y="118.2">Rhood</text>
  <path d="M 1122 180 L 1161 156 L 1194 165 Q 1255.2 93.60000000000001 1194 63 L 1125 60 L 1122 180 z" fill="rgb(255,217,194)" stroke="black"/>
  <text fill="rgb(9,33,173)" font-size="25" x="1134.2" y="127.8">Lhood</text>
  <path d="M 1254 153 L 1347 168 Q 1393.8 140.4 1359 60 L 1254 60 L 1254 153 z" fill="rgb(255,217,194)" stroke="black"/>
  <text fill="rgb(9,33,173)" font-size="25" x="1278.5" y="113.25">lbsleeve</text>
  <path d="M 1419 168 L 1524 168 Q 1558.8 87.60000000000001 1512 60 L 1419 75 L 1419 168 z" fill="rgb(255,217,194)" stroke="black"/>
  <text fill="rgb(9,33,173)" font-size="25" x="1443.5" y="120.75">lfsleeve</text>
</svg>
