<?xml version="1.0" encoding="utf-8" ?>
<svg xmlns="http://www.w3.org/2000/svg" xmlns:ev="http://www.w3.org/2001/xml-events" xmlns:xlink="http://www.w3.org/1999/xlink" baseProfile="full" height="342.0px" version="1.1" width="1634.0px">
  <defs/>
  <path d="M 60 153 L 162 153 Q 190.8 83.10000000000001 150 60 L 60 105 L 60 153 z" fill="rgb(255,217,194)" stroke="black"/>
  <text fill="rgb(9,33,173)" font-size="25" x="83.0" y="120.75">rbsleeve</text>
  <path d="M 223.0 108.0 L 313.0 153.0 Q 353.8 129.9 325.0 60.0 L 223.0 60.0 L 223.0 108.0 z" fill="rgb(255,217,194)" stroke="black"/>
  <text fill="rgb(9,33,173)" font-size="25" x="246.0" y="98.25">rfsleeve</text>
  <path d="M 386.0 282.0 L 500.0 282.0 L 500.0 96.0 L 476.0 60.0 L 446.0 60.0 Q 474.8 129.9 434.0 153.0 L 386.0 282.0 z" fill="rgb(255,217,194)" stroke="black"/>
  <text fill="rgb(9,33,173)" font-size="25" x="432.0" y="158.5">front_right</text>
  <path d="M 602.0 204.0 L 647.0 198.0 Q 718.1 173.7 662.0 87.0 L 638.0 96.0 L 614.0 60.0 L 602.0 204.0 z" fill="rgb(255,217,194)" stroke="black"/>
  <text fill="rgb(9,33,173)" font-size="25" x="607.6" y="132.0">Rhood</text>
  <path d="M 722.0 282.0 L 950.0 282.0 L 902.0 153.0 Q 861.1999999999999 129.9 890.0 60.0 L 860.0 60.0 L 836.0 69.0 L 812.0 60.0 L 782.0 60.0 Q 810.8000000000001 129.9 770.0 153.0 L 722.0 282.0 z" fill="rgb(255,217,194)" stroke="black"/>
  <text fill="rgb(9,33,173)" font-size="25" x="811.0" y="134.0">back</text>
  <path d="M 1022.0 204.0 L 1046.0 168.0 L 1070.0 177.0 Q 1126.1 90.30000000000001 1055.0 66.0 L 1010.0 60.0 L 1022.0 204.0 z" fill="rgb(255,217,194)" stroke="black"/>
  <text fill="rgb(9,33,173)" font-size="25" x="1015.5999999999999" y="138.0">Lhood</text>
  <path d="M 1130.0 282.0 L 1244.0 282.0 L 1196.0 153.0 Q 1155.2 129.9 1184.0 60.0 L 1154.0 60.0 L 1130.0 96.0 L 1130.0 282.0 z" fill="rgb(255,217,194)" stroke="black"/>
  <text fill="rgb(9,33,173)" font-size="25" x="1148.0" y="158.5">front_left</text>
  <path d="M 1308.0 108.0 L 1398.0 153.0 Q 1438.8 129.9 1410.0 60.0 L 1308.0 60.0 L 1308.0 108.0 z" fill="rgb(255,217,194)" stroke="black"/>
  <text fill="rgb(9,33,173)" font-size="25" x="1331.0" y="98.25">lbsleeve</text>
  <path d="M 1471.0 153.0 L 1573.0 153.0 Q 1601.8 83.10000000000001 1561.0 60.0 L 1471.0 105.0 L 1471.0 153.0 z" fill="rgb(255,217,194)" stroke="black"/>
  <text fill="rgb(9,33,173)" font-size="25" x="1494.0" y="120.75">lfsleeve</text>
</svg>
