<?xml version="1.0" encoding="utf-8" ?>
<svg xmlns="http://www.w3.org/2000/svg" xmlns:ev="http://www.w3.org/2001/xml-events" xmlns:xlink="http://www.w3.org/1999/xlink" baseProfile="full" height="270px" version="1.1" width="1188px">
  <defs/>
  <path d="M 60 210 L 177 210 Q 166.65 81.45 156 60 L 90 60 Q 104.7 141.75 60 153 Q 65.7 155.85 60 210 z" fill="rgb(255,217,194)" stroke="black"/>
  <text fill="rgb(9,33,173)" font-size="25" x="83.6" y="141.6">Rback</text>
  <path d="M 237 210 L 354 210 Q 348.3 155.85 354 153 Q 313.95 140.25 324 60 L 258 60 Q 247.35 81.45 237 210 z" fill="rgb(255,217,194)" stroke="black"/>
  <text fill="rgb(9,33,173)" font-size="25" x="280.4" y="141.6">Rfront</text>
  <path d="M 423 168 L 489 168 L 555 168 L 564 114 Q 538.8 102.6 552 60 L 525 60 Q 489.0 108.35134916250882 453 60 L 426 60 Q 439.20000000000005 102.6 414 114 L 423 168 z" fill="rgb(255,217,194)" stroke="black"/>
  <text fill="rgb(9,33,173)" font-size="25" x="464.0" y="111.0">up_back</text>
  <path d="M 633 165 L 699 165 L 765 165 L 774 114 Q 748.8 102.6 762 60 L 735 60 L 699 78 L 663 60 L 636 60 Q 649.2 102.6 624 114 L 633 165 z" fill="rgb(255,217,194)" stroke="black"/>
  <text fill="rgb(9,33,173)" font-size="25" x="674.0" y="107.1">up_front</text>
  <path d="M 834 210 L 951 210 Q 945.3 155.85 951 153 Q 906.3 141.75 921 60 L 855 60 Q 844.35 81.45 834 210 z" fill="rgb(255,217,194)" stroke="black"/>
  <text fill="rgb(9,33,173)" font-size="25" x="877.4" y="141.6">Lback</text>
  <path d="M 1011 210 L 1128 210 Q 1117.65 81.45 1107 60 L 1041 60 Q 1051.05 140.25 1011 153 Q 1016.7 155.85 1011 210 z" fill="rgb(255,217,194)" stroke="black"/>
  <text fill="rgb(9,33,173)" font-size="25" x="1034.6" y="141.6">Lfront</text>
</svg>
