<?xml version="1.0" encoding="utf-8" ?>
<svg xmlns="http://www.w3.org/2000/svg" xmlns:ev="http://www.w3.org/2001/xml-events" xmlns:xlink="http://www.w3.org/1999/xlink" baseProfile="full" height="354.0px" version="1.1" width="1732.0px">
  <defs/>
  <path d="M 60 168 L 144 168 Q 172.8 98.10000000000001 132 75 L 60 60 L 60 168 z" fill="rgb(255,217,194)" stroke="black"/>
  <text fill="rgb(9,33,173)" font-size="25" x="74.0" y="120.75">rbsleeve</text>
  <path d="M 214.0 168.0 L 286.0 153.0 Q 326.8 129.9 298.0 60.0 L 214.0 60.0 L 214.0 168.0 z" fill="rgb(255,217,194)" stroke="black"/>
  <text fill="rgb(9,33,173)" font-size="25" x="228.0" y="113.25">rfsleeve</text>
  <path d="M 368.0 294.0 L 455.0 294.0 Q 476.9 95.69999999999999 467.0 60.0 L 398.0 60.0 Q 412.7 141.75 368.0 153.0 Q 382.1 160.05 368.0 294.0 z" fill="rgb(255,217,194)" stroke="black"/>
  <text fill="rgb(9,33,173)" font-size="25" x="386.2" y="175.2">Rback</text>
  <path d="M 539.0 294.0 L 626.0 294.0 Q 611.9 160.05 626.0 153.0 Q 585.95 140.25 596.0 60.0 L 527.0 60.0 Q 517.0999999999999 95.69999999999999 539.0 294.0 z" fill="rgb(255,217,194)" stroke="black"/>
  <text fill="rgb(9,33,173)" font-size="25" x="557.8" y="175.2">Rfront</text>
  <path d="M 689.0 168.0 L 761.0 168.0 L 833.0 168.0 L 836.0 153.0 Q 795.1999999999999 129.9 824.0 60.0 L 776.0 60.0 Q 761.0 98.9156901679255 746.0 60.0 L 698.0 60.0 Q 726.8000000000001 129.9 686.0 153.0 L 689.0 168.0 z" fill="rgb(255,217,194)" stroke="black"/>
  <text fill="rgb(9,33,173)" font-size="25" x="736.0" y="119.66666666666667">up_back</text>
  <path d="M 899.0 165.0 L 971.0 165.0 L 1043.0 165.0 L 1046.0 153.0 Q 1005.2 129.9 1034.0 60.0 L 986.0 60.0 L 971.0 75.0 L 956.0 60.0 L 908.0 60.0 Q 936.8000000000001 129.9 896.0 153.0 L 899.0 165.0 z" fill="rgb(255,217,194)" stroke="black"/>
  <text fill="rgb(9,33,173)" font-size="25" x="946.0" y="114.6">up_front</text>
  <path d="M 1118.0 294.0 L 1205.0 294.0 Q 1190.9 160.05 1205.0 153.0 Q 1160.3 141.75 1175.0 60.0 L 1106.0 60.0 Q 1096.1 95.69999999999999 1118.0 294.0 z" fill="rgb(255,217,194)" stroke="black"/>
  <text fill="rgb(9,33,173)" font-size="25" x="1136.8" y="175.2">Lback</text>
  <path d="M 1265.0 294.0 L 1352.0 294.0 Q 1373.9 95.69999999999999 1364.0 60.0 L 1295.0 60.0 Q 1305.05 140.25 1265.0 153.0 Q 1279.1 160.05 1265.0 294.0 z" fill="rgb(255,217,194)" stroke="black"/>
  <text fill="rgb(9,33,173)" font-size="25" x="1283.2" y="175.2">Lfront</text>
  <path d="M 1424.0 168.0 L 1496.0 153.0 Q 1536.8 129.9 1508.0 60.0 L 1424.0 60.0 L 1424.0 168.0 z" fill="rgb(255,217,194)" stroke="black"/>
  <text fill="rgb(9,33,173)" font-size="25" x="1438.0" y="113.25">lbsleeve</text>
  <path d="M 1578.0 168.0 L 1662.0 168.0 Q 1690.8 98.10000000000001 1650.0 75.0 L 1578.0 60.0 L 1578.0 168.0 z" fill="rgb(255,217,194)" stroke="black"/>
  <text fill="rgb(9,33,173)" font-size="25" x="1592.0" y="120.75">lfsleeve</text>
</svg>
