<?xml version="1.0" encoding="utf-8" ?>
<svg xmlns="http://www.w3.org/2000/svg" xmlns:ev="http://www.w3.org/2001/xml-events" xmlns:xlink="http://www.w3.org/1999/xlink" baseProfile="full" height="324.0px" version="1.1" width="1625.5px">
  <defs/>
  <path d="M 60 201 L 114 201 Q 151.2 116.4 102 87 L 60 60 L 60 201 z" fill="rgb(255,217,194)" stroke="black"/>
  <text fill="rgb(9,33,173)" font-size="25" x="59.0" y="140.25">rbsleeve</text>
  <path d="M 199.0 201.0 L 241.0 174.0 Q 290.2 144.60000000000002 253.0 60.0 L 199.0 60.0 L 199.0 201.0 z" fill="rgb(255,217,194)" stroke="black"/>
  <text fill="rgb(9,33,173)" font-size="25" x="198.0" y="126.75">rfsleeve</text>
  <path d="M 338.0 264.0 L 467.0 264.0 L 467.0 114.0 L 428.0 60.0 L 398.0 60.0 Q 431.9 143.7 383.0 171.0 L 338.0 264.0 z" fill="rgb(255,217,194)" stroke="black"/>
  <text fill="rgb(9,33,173)" font-size="25" x="388.5" y="158.5">front_right</text>
  <path d="M 564.5 210.0 L 609.5 207.0 Q 679.7 194.4 639.5 105.0 L 600.5 114.0 L 558.5 60.0 L 564.5 210.0 z" fill="rgb(255,217,194)" stroke="black"/>
  <text fill="rgb(9,33,173)" font-size="25" x="569.5" y="142.2">Rhood</text>
  <path d="M 699.5 264.0 L 957.5 264.0 L 912.5 171.0 Q 863.6 143.7 897.5 60.0 L 867.5 60.0 L 828.5 69.0 L 789.5 60.0 L 759.5 60.0 Q 793.4 143.7 744.5 171.0 L 699.5 264.0 z" fill="rgb(255,217,194)" stroke="black"/>
  <text fill="rgb(9,33,173)" font-size="25" x="803.5" y="134.0">back</text>
  <path d="M 1017.5 210.0 L 1059.5 156.0 L 1098.5 165.0 Q 1138.7 75.60000000000001 1068.5 63.0 L 1023.5 60.0 L 1017.5 210.0 z" fill="rgb(255,217,194)" stroke="black"/>
  <text fill="rgb(9,33,173)" font-size="25" x="1028.5" y="133.8">Lhood</text>
  <path d="M 1158.5 264.0 L 1287.5 264.0 L 1242.5 171.0 Q 1193.6 143.7 1227.5 60.0 L 1197.5 60.0 L 1158.5 114.0 L 1158.5 264.0 z" fill="rgb(255,217,194)" stroke="black"/>
  <text fill="rgb(9,33,173)" font-size="25" x="1187.0" y="158.5">front_left</text>
  <path d="M 1347.5 201.0 L 1389.5 174.0 Q 1438.6999999999998 144.60000000000002 1401.5 60.0 L 1347.5 60.0 L 1347.5 201.0 z" fill="rgb(255,217,194)" stroke="black"/>
  <text fill="rgb(9,33,173)" font-size="25" x="1346.5" y="126.75">lbsleeve</text>
  <path d="M 1486.5 201.0 L 1540.5 201.0 Q 1577.6999999999998 116.4 1528.5 87.0 L 1486.5 60.0 L 1486.5 201.0 z" fill="rgb(255,217,194)" stroke="black"/>
  <text fill="rgb(9,33,173)" font-size="25" x="1485.5" y="140.25">lfsleeve</text>
</svg>
