<?xml version="1.0" encoding="utf-8" ?>
<svg xmlns="http://www.w3.org/2000/svg" xmlns:ev="http://www.w3.org/2001/xml-events" xmlns:xlink="http://www.w3.org/1999/xlink" baseProfile="full" height="243.0px" version="1.1" width="1195.0px">
  <defs/>
  <path d="M 60 180 L 93 180 Q 130.5 90.0 78 60 L 60 90 L 60 180 z" fill="rgb(255,217,194)" stroke="black"/>
  <text fill="rgb(9,33,173)" font-size="25" x="47.75" y="130.5">rbsleeve</text>
  <path d="M 187.75 150.0 L 205.75 180.0 Q 258.25 150.0 220.75 60.0 L 187.75 60.0 L 187.75 150.0 z" fill="rgb(255,217,194)" stroke="black"/>
  <text fill="rgb(9,33,173)" font-size="25" x="175.5" y="115.5">rfsleeve</text>
  <path d="M 315.5 183.0 L 567.5 183.0 L 528.5 180.0 Q 476.9 148.8 516.5 60.0 L 477.5 60.0 Q 441.5 94.49041230081075 405.5 60.0 L 366.5 60.0 Q 406.1 148.8 354.5 180.0 L 315.5 183.0 z" fill="rgb(255,217,194)" stroke="black"/>
  <text fill="rgb(9,33,173)" font-size="25" x="416.5" y="123.75">back</text>
  <path d="M 627.5 183.0 L 879.5 183.0 L 840.5 177.0 Q 790.1 146.70000000000002 828.5 60.0 L 789.5 60.0 L 753.5 156.0 L 717.5 60.0 L 678.5 60.0 Q 716.9 146.7 666.5 177.0 L 627.5 183.0 z" fill="rgb(255,217,194)" stroke="black"/>
  <text fill="rgb(9,33,173)" font-size="25" x="728.5" y="127.0">front</text>
  <path d="M 939.5 150.0 L 957.5 180.0 Q 1010.0 150.0 972.5 60.0 L 939.5 60.0 L 939.5 150.0 z" fill="rgb(255,217,194)" stroke="black"/>
  <text fill="rgb(9,33,173)" font-size="25" x="927.25" y="115.5">lbsleeve</text>
  <path d="M 1067.25 180.0 L 1100.25 180.0 Q 1137.75 90.0 1085.25 60.0 L 1067.25 90.0 L 1067.25 180.0 z" fill="rgb(255,217,194)" stroke="black"/>
  <text fill="rgb(9,33,173)" font-size="25" x="1055.0" y="130.5">lfsleeve</text>
</svg>
