<?xml version="1.0" encoding="utf-8" ?>
<svg xmlns="http://www.w3.org/2000/svg" xmlns:ev="http://www.w3.org/2001/xml-events" xmlns:xlink="http://www.w3.org/1999/xlink" baseProfile="full" height="420px" version="1.1" width="670.0px">
  <defs/>
  <path d="M 60 360 L 150 360 L 150 111 L 132 60 L 78 60 Q 101.1 124.8 63 144 L 60 360 z" fill="rgb(255,217,194)" stroke="black"/>
  <text fill="rgb(9,33,173)" font-size="25" x="80.5" y="185.5">front_right</text>
  <path d="M 250.5 360.0 L 430.5 360.0 L 427.5 144.0 Q 389.4 124.8 412.5 60.0 L 358.5 60.0 Q 340.5 104.63631486305431 322.5 60.0 L 268.5 60.0 Q 291.6 124.8 253.5 144.0 L 250.5 360.0 z" fill="rgb(255,217,194)" stroke="black"/>
  <text fill="rgb(9,33,173)" font-size="25" x="315.5" y="159.0">back</text>
  <path d="M 490.5 360.0 L 580.5 360.0 L 577.5 144.0 Q 539.4 124.8 562.5 60.0 L 508.5 60.0 L 490.5 111.0 L 490.5 360.0 z" fill="rgb(255,217,194)" stroke="black"/>
  <text fill="rgb(9,33,173)" font-size="25" x="510.0" y="185.5">front_left</text>
</svg>
