<?xml version="1.0" encoding="utf-8" ?>
<svg xmlns="http://www.w3.org/2000/svg" xmlns:ev="http://www.w3.org/2001/xml-events" xmlns:xlink="http://www.w3.org/1999/xlink" baseProfile="full" height="492px" version="1.1" width="1453.0px">
  <defs/>
  <path d="M 60 150 L 189 150 Q 206.7 104.4 180 90 L 60 60 L 60 150 z" fill="rgb(255,217,194)" stroke="black"/>
  <text fill="rgb(9,33,173)" font-size="25" x="97.25" y="115.5">rbsleeve</text>
  <path d="M 249 150 L 369 120 Q 395.7 105.6 378 60 L 249 60 L 249 150 z" fill="rgb(255,217,194)" stroke="black"/>
  <text fill="rgb(9,33,173)" font-size="25" x="286.25" y="100.5">rfsleeve</text>
  <path d="M 438 432 L 537 432 L 537 159 L 519 60 L 486 60 Q 503.7 105.6 477 120 L 438 432 z" fill="rgb(255,217,194)" stroke="black"/>
  <text fill="rgb(9,33,173)" font-size="25" x="474.0" y="213.5">front_right</text>
  <path d="M 644.0 432.0 L 842.0 432.0 L 803.0 120.0 Q 776.3 105.6 794.0 60.0 L 761.0 60.0 Q 743.0 144.7659538684972 725.0 60.0 L 692.0 60.0 Q 709.7 105.6 683.0 120.0 L 644.0 432.0 z" fill="rgb(255,217,194)" stroke="black"/>
  <text fill="rgb(9,33,173)" font-size="25" x="718.0" y="171.0">back</text>
  <path d="M 902.0 432.0 L 1001.0 432.0 L 962.0 120.0 Q 935.3 105.6 953.0 60.0 L 920.0 60.0 L 902.0 159.0 L 902.0 432.0 z" fill="rgb(255,217,194)" stroke="black"/>
  <text fill="rgb(9,33,173)" font-size="25" x="915.0" y="213.5">front_left</text>
  <path d="M 1075.0 150.0 L 1195.0 120.0 Q 1221.7 105.6 1204.0 60.0 L 1075.0 60.0 L 1075.0 150.0 z" fill="rgb(255,217,194)" stroke="black"/>
  <text fill="rgb(9,33,173)" font-size="25" x="1112.25" y="100.5">lbsleeve</text>
  <path d="M 1264.0 150.0 L 1393.0 150.0 Q 1410.7 104.4 1384.0 90.0 L 1264.0 60.0 L 1264.0 150.0 z" fill="rgb(255,217,194)" stroke="black"/>
  <text fill="rgb(9,33,173)" font-size="25" x="1301.25" y="115.5">lfsleeve</text>
</svg>
