<?xml version="1.0" encoding="utf-8" ?>
<svg xmlns="http://www.w3.org/2000/svg" xmlns:ev="http://www.w3.org/2001/xml-events" xmlns:xlink="http://www.w3.org/1999/xlink" baseProfile="full" height="240px" version="1.1" width="1044.8px">
  <defs/>
  <path d="M 60 180 L 111 180 Q 150.15 79.95 150 60 L 90 60 Q 104.7 141.75 60 153 Q 62.7 154.35 60 180 z" fill="rgb(255,217,194)" stroke="black"/>
  <text fill="rgb(9,33,173)" font-size="25" x="69.2" y="129.6">Rback</text>
  <path d="M 249 180 L 300 180 Q 297.3 154.35 300 153 Q 259.95 140.25 270 60 L 210 60 Q 209.85 79.95 249 180 z" fill="rgb(255,217,194)" stroke="black"/>
  <text fill="rgb(9,33,173)" font-size="25" x="240.8" y="129.6">Rfront</text>
  <path d="M 369.8 168.0 L 426.8 168.0 L 483.8 168.0 L 492.8 126.0 Q 463.70000000000005 109.8 483.8 60.0 L 450.8 60.0 Q 426.8 108.76962016703905 402.8 60.0 L 369.8 60.0 Q 389.9 109.79999999999998 360.8 126.0 L 369.8 168.0 z" fill="rgb(255,217,194)" stroke="black"/>
  <text fill="rgb(9,33,173)" font-size="25" x="401.80000000000007" y="113.66666666666667">up_back</text>
  <path d="M 561.8 165.0 L 618.8 165.0 L 675.8 165.0 L 684.8 126.0 Q 655.6999999999999 109.8 675.8 60.0 L 642.8 60.0 L 618.8 69.0 L 594.8 60.0 L 561.8 60.0 Q 581.9 109.79999999999998 552.8 126.0 L 561.8 165.0 z" fill="rgb(255,217,194)" stroke="black"/>
  <text fill="rgb(9,33,173)" font-size="25" x="593.8000000000001" y="108.6">up_front</text>
  <path d="M 783.8 180.0 L 834.8 180.0 Q 832.0999999999999 154.35 834.8 153.0 Q 790.0999999999999 141.75 804.8 60.0 L 744.8 60.0 Q 744.65 79.95 783.8 180.0 z" fill="rgb(255,217,194)" stroke="black"/>
  <text fill="rgb(9,33,173)" font-size="25" x="775.6" y="129.6">Lback</text>
  <path d="M 894.8 180.0 L 945.8 180.0 Q 984.9499999999999 79.95 984.8 60.0 L 924.8 60.0 Q 934.8499999999999 140.25 894.8 153.0 Q 897.5 154.35 894.8 180.0 z" fill="rgb(255,217,194)" stroke="black"/>
  <text fill="rgb(9,33,173)" font-size="25" x="904.0" y="129.6">Lfront</text>
</svg>
