<?xml version="1.0" encoding="utf-8" ?>
<svg xmlns="http://www.w3.org/2000/svg" xmlns:ev="http://www.w3.org/2001/xml-events" xmlns:xlink="http://www.w3.org/1999/xlink" baseProfile="full" height="372.0px" version="1.1" width="1184.0px">
  <defs/>
  <path d="M 60 225 L 84 225 Q 103.19999999999999 171.89999999999998 72 156 L 60 60 L 60 225 z" fill="rgb(255,217,194)" stroke="black"/>
  <text fill="rgb(9,33,173)" font-size="25" x="44.0" y="169.5">rbsleeve</text>
  <path d="M 184.0 225.0 L 196.0 129.0 Q 227.2 113.1 208.0 60.0 L 184.0 60.0 L 184.0 225.0 z" fill="rgb(255,217,194)" stroke="black"/>
  <text fill="rgb(9,33,173)" font-size="25" x="168.0" y="121.5">rfsleeve</text>
  <path d="M 308.0 312.0 L 404.0 312.0 L 404.0 93.0 L 365.0 60.0 L 341.0 60.0 Q 360.20000000000005 113.1 329.0 129.0 L 308.0 312.0 z" fill="rgb(255,217,194)" stroke="black"/>
  <text fill="rgb(9,33,173)" font-size="25" x="333.5" y="164.0">front_right</text>
  <path d="M 503.5 312.0 L 695.5 312.0 L 674.5 129.0 Q 643.3 113.1 662.5 60.0 L 638.5 60.0 Q 599.5 283.5087596564557 560.5 60.0 L 536.5 60.0 Q 555.7 113.1 524.5 129.0 L 503.5 312.0 z" fill="rgb(255,217,194)" stroke="black"/>
  <text fill="rgb(9,33,173)" font-size="25" x="574.5" y="143.25">back</text>
  <path d="M 755.5 312.0 L 851.5 312.0 L 830.5 129.0 Q 799.3 113.1 818.5 60.0 L 794.5 60.0 L 755.5 93.0 L 755.5 312.0 z" fill="rgb(255,217,194)" stroke="black"/>
  <text fill="rgb(9,33,173)" font-size="25" x="776.0" y="164.0">front_left</text>
  <path d="M 936.0 225.0 L 948.0 129.0 Q 979.2 113.1 960.0 60.0 L 936.0 60.0 L 936.0 225.0 z" fill="rgb(255,217,194)" stroke="black"/>
  <text fill="rgb(9,33,173)" font-size="25" x="920.0" y="121.5">lbsleeve</text>
  <path d="M 1060.0 225.0 L 1084.0 225.0 Q 1103.1999999999998 171.89999999999998 1072.0 156.0 L 1060.0 60.0 L 1060.0 225.0 z" fill="rgb(255,217,194)" stroke="black"/>
  <text fill="rgb(9,33,173)" font-size="25" x="1044.0" y="169.5">lfsleeve</text>
</svg>
