<?xml version="1.0" encoding="utf-8" ?>
<svg xmlns="http://www.w3.org/2000/svg" xmlns:ev="http://www.w3.org/2001/xml-events" xmlns:xlink="http://www.w3.org/1999/xlink" baseProfile="full" height="264.0px" version="1.1" width="1616.5px">
  <defs/>
  <path d="M 60 150 L 123 150 Q 132.9 108.30000000000001 108 99 L 60 60 L 60 150 z" fill="rgb(255,217,194)" stroke="black"/>
  <text fill="rgb(9,33,173)" font-size="25" x="62.75" y="117.75">rbsleeve</text>
  <path d="M 202.75 150.0 L 250.75 111.0 Q 275.65 101.7 265.75 60.0 L 202.75 60.0 L 202.75 150.0 z" fill="rgb(255,217,194)" stroke="black"/>
  <text fill="rgb(9,33,173)" font-size="25" x="205.5" y="98.25">rfsleeve</text>
  <path d="M 345.5 201.0 L 477.5 201.0 L 477.5 72.0 L 459.5 60.0 L 399.5 60.0 Q 410.6 103.8 384.5 114.0 L 345.5 201.0 z" fill="rgb(255,217,194)" stroke="black"/>
  <text fill="rgb(9,33,173)" font-size="25" x="399.0" y="121.0">front_right</text>
  <path d="M 569.0 171.0 L 632.0 165.0 Q 690.5 129.0 623.0 63.0 L 605.0 72.0 L 584.0 60.0 L 569.0 171.0 z" fill="rgb(255,217,194)" stroke="black"/>
  <text fill="rgb(9,33,173)" font-size="25" x="577.6" y="109.2">Rhood</text>
  <path d="M 692.0 204.0 L 956.0 204.0 L 917.0 114.0 Q 890.9 103.8 902.0 60.0 L 842.0 60.0 L 824.0 69.0 L 806.0 60.0 L 746.0 60.0 Q 757.1 103.8 731.0 114.0 L 692.0 204.0 z" fill="rgb(255,217,194)" stroke="black"/>
  <text fill="rgb(9,33,173)" font-size="25" x="799.0" y="108.0">back</text>
  <path d="M 1031.0 171.0 L 1052.0 159.0 L 1070.0 168.0 Q 1137.5 102.00000000000001 1079.0 66.0 L 1016.0 60.0 L 1031.0 171.0 z" fill="rgb(255,217,194)" stroke="black"/>
  <text fill="rgb(9,33,173)" font-size="25" x="1024.6" y="127.8">Lhood</text>
  <path d="M 1139.0 201.0 L 1271.0 201.0 L 1232.0 114.0 Q 1205.9 103.8 1217.0 60.0 L 1157.0 60.0 L 1139.0 72.0 L 1139.0 201.0 z" fill="rgb(255,217,194)" stroke="black"/>
  <text fill="rgb(9,33,173)" font-size="25" x="1167.5" y="121.0">front_left</text>
  <path d="M 1331.0 150.0 L 1379.0 111.0 Q 1403.9 101.7 1394.0 60.0 L 1331.0 60.0 L 1331.0 150.0 z" fill="rgb(255,217,194)" stroke="black"/>
  <text fill="rgb(9,33,173)" font-size="25" x="1333.75" y="98.25">lbsleeve</text>
  <path d="M 1473.75 150.0 L 1536.75 150.0 Q 1546.65 108.30000000000001 1521.75 99.0 L 1473.75 60.0 L 1473.75 150.0 z" fill="rgb(255,217,194)" stroke="black"/>
  <text fill="rgb(9,33,173)" font-size="25" x="1476.5" y="117.75">lfsleeve</text>
</svg>
