<?xml version="1.0" encoding="utf-8" ?>
<svg xmlns="http://www.w3.org/2000/svg" xmlns:ev="http://www.w3.org/2001/xml-events" xmlns:xlink="http://www.w3.org/1999/xlink" baseProfile="full" height="387px" version="1.1" width="1640.0px">
  <defs/>
  <path d="M 60 168 L 177 168 Q 191.4 123.3 165 111 L 60 60 L 60 168 z" fill="rgb(255,217,194)" stroke="black"/>
  <text fill="rgb(9,33,173)" font-size="25" x="90.5" y="129.75">rbsleeve</text>
  <path d="M 237 168 L 342 117 Q 368.40000000000003 104.7 354 60 L 237 60 L 237 168 z" fill="rgb(255,217,194)" stroke="black"/>
  <text fill="rgb(9,33,173)" font-size="25" x="267.5" y="104.25">rfsleeve</text>
  <path d="M 414 327 L 579 327 L 579 126 L 558 60 L 519 60 Q 533.4 104.7 507 117 L 414 327 z" fill="rgb(255,217,194)" stroke="black"/>
  <text fill="rgb(9,33,173)" font-size="25" x="501.0" y="172.5">front_right</text>
  <path d="M 671.0 327.0 L 1001.0 327.0 L 908.0 117.0 Q 881.6 104.7 896.0 60.0 L 857.0 60.0 Q 836.0 128.78299812231336 815.0 60.0 L 776.0 60.0 Q 790.4 104.7 764.0 117.0 L 671.0 327.0 z" fill="rgb(255,217,194)" stroke="black"/>
  <text fill="rgb(9,33,173)" font-size="25" x="811.0" y="144.0">back</text>
  <path d="M 1061.0 327.0 L 1226.0 327.0 L 1133.0 117.0 Q 1106.6000000000001 104.7 1121.0 60.0 L 1082.0 60.0 L 1061.0 126.0 L 1061.0 327.0 z" fill="rgb(255,217,194)" stroke="black"/>
  <text fill="rgb(9,33,173)" font-size="25" x="1089.0" y="172.5">front_left</text>
  <path d="M 1286.0 168.0 L 1391.0 117.0 Q 1417.3999999999999 104.7 1403.0 60.0 L 1286.0 60.0 L 1286.0 168.0 z" fill="rgb(255,217,194)" stroke="black"/>
  <text fill="rgb(9,33,173)" font-size="25" x="1316.5" y="104.25">lbsleeve</text>
  <path d="M 1463.0 168.0 L 1580.0 168.0 Q 1594.3999999999999 123.3 1568.0 111.0 L 1463.0 60.0 L 1463.0 168.0 z" fill="rgb(255,217,194)" stroke="black"/>
  <text fill="rgb(9,33,173)" font-size="25" x="1493.5" y="129.75">lfsleeve</text>
</svg>
