<?xml version="1.0" encoding="utf-8" ?>
<svg xmlns="http://www.w3.org/2000/svg" xmlns:ev="http://www.w3.org/2001/xml-events" xmlns:xlink="http://www.w3.org/1999/xlink" baseProfile="full" height="303.0px" version="1.1" width="1045.0px">
  <defs/>
  <path d="M 60 174 L 87 174 Q 126.30000000000001 90.60000000000001 78 60 L 60 93 L 60 174 z" fill="rgb(255,217,194)" stroke="black"/>
  <text fill="rgb(9,33,173)" font-size="25" x="46.25" y="128.25">rbsleeve</text>
  <path d="M 186.25 141.0 L 204.25 174.0 Q 252.54999999999998 143.4 213.25 60.0 L 186.25 60.0 L 186.25 141.0 z" fill="rgb(255,217,194)" stroke="black"/>
  <text fill="rgb(9,33,173)" font-size="25" x="172.5" y="111.75">rfsleeve</text>
  <path d="M 312.5 243.0 L 492.5 243.0 L 462.5 174.0 Q 414.2 143.4 453.5 60.0 L 420.5 60.0 Q 402.5 137.76744535388303 384.5 60.0 L 351.5 60.0 Q 390.8 143.4 342.5 174.0 L 312.5 243.0 z" fill="rgb(255,217,194)" stroke="black"/>
  <text fill="rgb(9,33,173)" font-size="25" x="377.5" y="137.25">back</text>
  <path d="M 552.5 243.0 L 732.5 243.0 L 702.5 171.0 Q 655.4 141.29999999999998 693.5 60.0 L 660.5 60.0 L 642.5 63.0 L 624.5 60.0 L 591.5 60.0 Q 629.6 141.29999999999998 582.5 171.0 L 552.5 243.0 z" fill="rgb(255,217,194)" stroke="black"/>
  <text fill="rgb(9,33,173)" font-size="25" x="617.5" y="128.66666666666669">front</text>
  <path d="M 792.5 141.0 L 810.5 174.0 Q 858.8000000000001 143.4 819.5 60.0 L 792.5 60.0 L 792.5 141.0 z" fill="rgb(255,217,194)" stroke="black"/>
  <text fill="rgb(9,33,173)" font-size="25" x="778.75" y="111.75">lbsleeve</text>
  <path d="M 918.75 174.0 L 945.75 174.0 Q 985.0500000000001 90.60000000000001 936.75 60.0 L 918.75 93.0 L 918.75 174.0 z" fill="rgb(255,217,194)" stroke="black"/>
  <text fill="rgb(9,33,173)" font-size="25" x="905.0" y="128.25">lfsleeve</text>
</svg>
