<?xml version="1.0" encoding="utf-8" ?>
<svg xmlns="http://www.w3.org/2000/svg" xmlns:ev="http://www.w3.org/2001/xml-events" xmlns:xlink="http://www.w3.org/1999/xlink" baseProfile="full" height="411.0px" version="1.1" width="1252.0px">
  <defs/>
  <path d="M 60 207 L 150 207 Q 159.6 170.7 138 162 L 60 60 L 60 207 z" fill="rgb(255,217,194)" stroke="black"/>
  <text fill="rgb(9,33,173)" font-size="25" x="77.0" y="162.0">rbsleeve</text>
  <path d="M 217.0 207.0 L 295.0 105.0 Q 316.6 96.3 307.0 60.0 L 217.0 60.0 L 217.0 207.0 z" fill="rgb(255,217,194)" stroke="black"/>
  <text fill="rgb(9,33,173)" font-size="25" x="234.0" y="111.0">rfsleeve</text>
  <path d="M 374.0 351.0 L 596.0 351.0 L 560.0 108.0 Q 537.1999999999999 98.39999999999999 548.0 60.0 L 521.0 60.0 Q 485.0 125.5184228346516 449.0 60.0 L 422.0 60.0 Q 432.8 98.39999999999999 410.0 108.0 L 374.0 351.0 z" fill="rgb(255,217,194)" stroke="black"/>
  <text fill="rgb(9,33,173)" font-size="25" x="460.0" y="147.75">back</text>
  <path d="M 656.0 351.0 L 878.0 351.0 L 842.0 108.0 Q 819.1999999999999 98.39999999999999 830.0 60.0 L 803.0 60.0 L 767.0 87.0 L 731.0 60.0 L 704.0 60.0 Q 714.8000000000001 98.39999999999999 692.0 108.0 L 656.0 351.0 z" fill="rgb(255,217,194)" stroke="black"/>
  <text fill="rgb(9,33,173)" font-size="25" x="742.0" y="141.33333333333334">front</text>
  <path d="M 938.0 207.0 L 1016.0 105.0 Q 1037.6 96.3 1028.0 60.0 L 938.0 60.0 L 938.0 207.0 z" fill="rgb(255,217,194)" stroke="black"/>
  <text fill="rgb(9,33,173)" font-size="25" x="955.0" y="111.0">lbsleeve</text>
  <path d="M 1095.0 207.0 L 1185.0 207.0 Q 1194.6 170.7 1173.0 162.0 L 1095.0 60.0 L 1095.0 207.0 z" fill="rgb(255,217,194)" stroke="black"/>
  <text fill="rgb(9,33,173)" font-size="25" x="1112.0" y="162.0">lfsleeve</text>
</svg>
