<?xml version="1.0" encoding="utf-8" ?>
<svg xmlns="http://www.w3.org/2000/svg" xmlns:ev="http://www.w3.org/2001/xml-events" xmlns:xlink="http://www.w3.org/1999/xlink" baseProfile="full" height="306px" version="1.1" width="1212px">
  <defs/>
  <path d="M 60 246 Q 207.0 299.3059198631018 354 246 L 285 102 L 270 60 L 144 60 L 129 102 L 60 246 z" fill="rgb(255,217,194)" stroke="black"/>
  <text fill="rgb(9,33,173)" font-size="25" x="182.0" y="139.0">skirt_back</text>
  <path d="M 414 246 Q 561.0 248.23052592830075 708 246 L 639 102 L 624 60 L 498 60 L 483 102 L 414 246 z" fill="rgb(255,217,194)" stroke="black"/>
  <text fill="rgb(9,33,173)" font-size="25" x="536.0" y="139.0">skirt_front</text>
  <path d="M 786 168 L 912 168 L 930 141 Q 894.0 121.5 918 60 L 873 60 Q 849.0 63.70846794896932 825 60 L 780 60 Q 804.0 121.49999999999999 768 141 L 786 168 z" fill="rgb(255,217,194)" stroke="black"/>
  <text fill="rgb(9,33,173)" font-size="25" x="824.0" y="110.25">top_back</text>
  <path d="M 1008 165 L 1134 165 L 1152 141 Q 1116.0 121.5 1140 60 L 1095 60 L 1071 126 L 1047 60 L 1002 60 Q 1026.0 121.49999999999999 990 141 L 1008 165 z" fill="rgb(255,217,194)" stroke="black"/>
  <text fill="rgb(9,33,173)" font-size="25" x="1046.0" y="111.66666666666667">top_front</text>
</svg>
