<?xml version="1.0" encoding="utf-8" ?>
<svg xmlns="http://www.w3.org/2000/svg" xmlns:ev="http://www.w3.org/2001/xml-events" xmlns:xlink="http://www.w3.org/1999/xlink" baseProfile="full" height="498.0px" version="1.1" width="1247.0px">
  <defs/>
  <path d="M 60 162 L 99 162 Q 125.7 90.9 84 69 L 60 60 L 60 162 z" fill="rgb(255,217,194)" stroke="black"/>
  <text fill="rgb(9,33,173)" font-size="25" x="50.75" y="116.25">rbsleeve</text>
  <path d="M 190.75 162.0 L 214.75 153.0 Q 256.45 131.1 229.75 60.0 L 190.75 60.0 L 190.75 162.0 z" fill="rgb(255,217,194)" stroke="black"/>
  <text fill="rgb(9,33,173)" font-size="25" x="181.5" y="111.75">rfsleeve</text>
  <path d="M 321.5 438.0 L 429.5 438.0 L 429.5 117.0 L 393.5 60.0 L 351.5 60.0 Q 377.0 129.0 336.5 150.0 L 321.5 438.0 z" fill="rgb(255,217,194)" stroke="black"/>
  <text fill="rgb(9,33,173)" font-size="25" x="352.0" y="213.5">front_right</text>
  <path d="M 522.0 438.0 L 738.0 438.0 L 723.0 150.0 Q 682.5 129.0 708.0 60.0 L 666.0 60.0 Q 630.0 253.23607067786236 594.0 60.0 L 552.0 60.0 Q 577.5 129.0 537.0 150.0 L 522.0 438.0 z" fill="rgb(255,217,194)" stroke="black"/>
  <text fill="rgb(9,33,173)" font-size="25" x="605.0" y="180.0">back</text>
  <path d="M 798.0 438.0 L 906.0 438.0 L 891.0 150.0 Q 850.5 129.0 876.0 60.0 L 834.0 60.0 L 798.0 117.0 L 798.0 438.0 z" fill="rgb(255,217,194)" stroke="black"/>
  <text fill="rgb(9,33,173)" font-size="25" x="825.5" y="213.5">front_left</text>
  <path d="M 985.5 162.0 L 1009.5 153.0 Q 1051.2 131.1 1024.5 60.0 L 985.5 60.0 L 985.5 162.0 z" fill="rgb(255,217,194)" stroke="black"/>
  <text fill="rgb(9,33,173)" font-size="25" x="976.25" y="111.75">lbsleeve</text>
  <path d="M 1116.25 162.0 L 1155.25 162.0 Q 1181.95 90.9 1140.25 69.0 L 1116.25 60.0 L 1116.25 162.0 z" fill="rgb(255,217,194)" stroke="black"/>
  <text fill="rgb(9,33,173)" font-size="25" x="1107.0" y="116.25">lfsleeve</text>
</svg>
