<?xml version="1.0" encoding="utf-8" ?>
<svg xmlns="http://www.w3.org/2000/svg" xmlns:ev="http://www.w3.org/2001/xml-events" xmlns:xlink="http://www.w3.org/1999/xlink" baseProfile="full" height="405px" version="1.1" width="1438.0px">
  <defs/>
  <path d="M 60 345 L 336 345 L 336 60 L 60 60 L 60 345 z" fill="rgb(255,217,194)" stroke="black"/>
  <text fill="rgb(9,33,173)" font-size="25" x="173.0" y="205.5">skirt_back</text>
  <path d="M 396 69 L 486 69 L 486 60 L 396 60 L 396 69 z" fill="rgb(255,217,194)" stroke="black"/>
  <text fill="rgb(9,33,173)" font-size="25" x="416.0" y="67.5">wb_back</text>
  <path d="M 546 69 L 636 69 L 636 60 L 546 60 L 546 69 z" fill="rgb(255,217,194)" stroke="black"/>
  <text fill="rgb(9,33,173)" font-size="25" x="566.0" y="67.5">wb_front</text>
  <path d="M 706.0 345.0 L 982.0 345.0 L 982.0 60.0 L 706.0 60.0 L 706.0 345.0 z" fill="rgb(255,217,194)" stroke="black"/>
  <text fill="rgb(9,33,173)" font-size="25" x="819.0" y="205.5">skirt_front</text>
  <path d="M 1042.0 138.0 L 1180.0 138.0 L 1180.0 114.0 Q 1154.8000000000002 102.6 1168.0 60.0 L 1135.0 60.0 Q 1111.0 105.2999252809528 1087.0 60.0 L 1054.0 60.0 Q 1067.1999999999998 102.6 1042.0 114.0 L 1042.0 138.0 z" fill="rgb(255,217,194)" stroke="black"/>
  <text fill="rgb(9,33,173)" font-size="25" x="1086.0" y="96.0">top_back</text>
  <path d="M 1240.0 138.0 L 1378.0 138.0 L 1378.0 114.0 Q 1352.8000000000002 102.6 1366.0 60.0 L 1333.0 60.0 L 1309.0 114.0 L 1285.0 60.0 L 1252.0 60.0 Q 1265.1999999999998 102.6 1240.0 114.0 L 1240.0 138.0 z" fill="rgb(255,217,194)" stroke="black"/>
  <text fill="rgb(9,33,173)" font-size="25" x="1284.0" y="98.33333333333333">top_front</text>
</svg>
