<?xml version="1.0" encoding="utf-8" ?>
<svg xmlns="http://www.w3.org/2000/svg" xmlns:ev="http://www.w3.org/2001/xml-events" xmlns:xlink="http://www.w3.org/1999/xlink" baseProfile="full" height="459px" version="1.1" width="849.0px">
  <defs/>
  <path d="M 60 399 L 204 399 L 204 126 L 180 60 L 138 60 Q 154.8 108.89999999999999 126 123 L 60 399 z" fill="rgb(255,217,194)" stroke="black"/>
  <text fill="rgb(9,33,173)" font-size="25" x="127.0" y="197.5">front_right</text>
  <path d="M 297.0 399.0 L 585.0 399.0 L 519.0 123.0 Q 490.2 108.89999999999999 507.0 60.0 L 465.0 60.0 Q 441.0 165.15470173315526 417.0 60.0 L 375.0 60.0 Q 391.8 108.89999999999999 363.0 123.0 L 297.0 399.0 z" fill="rgb(255,217,194)" stroke="black"/>
  <text fill="rgb(9,33,173)" font-size="25" x="416.0" y="163.5">back</text>
  <path d="M 645.0 399.0 L 789.0 399.0 L 723.0 123.0 Q 694.1999999999999 108.89999999999999 711.0 60.0 L 669.0 60.0 L 645.0 126.0 L 645.0 399.0 z" fill="rgb(255,217,194)" stroke="black"/>
  <text fill="rgb(9,33,173)" font-size="25" x="672.0" y="197.5">front_left</text>
</svg>
