<?xml version="1.0" encoding="utf-8" ?>
<svg xmlns="http://www.w3.org/2000/svg" xmlns:ev="http://www.w3.org/2001/xml-events" xmlns:xlink="http://www.w3.org/1999/xlink" baseProfile="full" height="468px" version="1.1" width="976.0px">
  <defs/>
  <path d="M 60 408 L 174 408 L 174 87 L 153 60 L 123 60 Q 146.7 116.1 114 135 L 60 408 z" fill="rgb(255,217,194)" stroke="black"/>
  <text fill="rgb(9,33,173)" font-size="25" x="108.0" y="196.0">front_right</text>
  <path d="M 278.0 156.0 L 323.0 162.0 Q 377.0 144.0 335.0 78.0 L 314.0 87.0 L 290.0 60.0 L 278.0 156.0 z" fill="rgb(255,217,194)" stroke="black"/>
  <text fill="rgb(9,33,173)" font-size="25" x="283.0" y="111.6">Rhood</text>
  <path d="M 395.0 408.0 L 623.0 408.0 L 569.0 135.0 Q 536.3 116.1 560.0 60.0 L 530.0 60.0 L 509.0 69.0 L 488.0 60.0 L 458.0 60.0 Q 481.7 116.1 449.0 135.0 L 395.0 408.0 z" fill="rgb(255,217,194)" stroke="black"/>
  <text fill="rgb(9,33,173)" font-size="25" x="484.0" y="158.0">back</text>
  <path d="M 695.0 162.0 L 719.0 135.0 L 740.0 144.0 Q 782.0 78.0 728.0 60.0 L 683.0 66.0 L 695.0 162.0 z" fill="rgb(255,217,194)" stroke="black"/>
  <text fill="rgb(9,33,173)" font-size="25" x="688.0" y="116.4">Lhood</text>
  <path d="M 800.0 408.0 L 914.0 408.0 L 860.0 135.0 Q 827.3 116.1 851.0 60.0 L 821.0 60.0 L 800.0 87.0 L 800.0 408.0 z" fill="rgb(255,217,194)" stroke="black"/>
  <text fill="rgb(9,33,173)" font-size="25" x="816.0" y="196.0">front_left</text>
</svg>
