<?xml version="1.0" encoding="utf-8" ?>
<svg xmlns="http://www.w3.org/2000/svg" xmlns:ev="http://www.w3.org/2001/xml-events" xmlns:xlink="http://www.w3.org/1999/xlink" baseProfile="full" height="384.0px" version="1.1" width="1660.0px">
  <defs/>
  <path d="M 60 168 L 108 168 Q 120.0 127.50000000000001 96 117 L 60 60 L 60 168 z" fill="rgb(255,217,194)" stroke="black"/>
  <text fill="rgb(9,33,173)" font-size="25" x="56.0" y="131.25">rbsleeve</text>
  <path d="M 196.0 168.0 L 232.0 111.0 Q 256.0 100.5 244.0 60.0 L 196.0 60.0 L 196.0 168.0 z" fill="rgb(255,217,194)" stroke="black"/>
  <text fill="rgb(9,33,173)" font-size="25" x="192.0" y="102.75">rfsleeve</text>
  <path d="M 332.0 324.0 Q 458.0 397.1844465990052 584.0 324.0 L 533.0 102.0 L 521.0 60.0 L 395.0 60.0 L 383.0 102.0 L 332.0 324.0 z" fill="rgb(255,217,194)" stroke="black"/>
  <text fill="rgb(9,33,173)" font-size="25" x="433.0" y="165.0">skirt_back</text>
  <path d="M 644.0 324.0 Q 770.0 208.9779986966637 896.0 324.0 L 845.0 102.0 L 833.0 60.0 L 707.0 60.0 L 695.0 102.0 L 644.0 324.0 z" fill="rgb(255,217,194)" stroke="black"/>
  <text fill="rgb(9,33,173)" font-size="25" x="745.0" y="165.0">skirt_front</text>
  <path d="M 971.0 168.0 L 1097.0 168.0 L 1112.0 114.0 Q 1086.8000000000002 102.6 1100.0 60.0 L 1064.0 60.0 Q 1034.0 162.67453237174803 1004.0 60.0 L 968.0 60.0 Q 981.2 102.6 956.0 114.0 L 971.0 168.0 z" fill="rgb(255,217,194)" stroke="black"/>
  <text fill="rgb(9,33,173)" font-size="25" x="1009.0" y="103.5">top_back</text>
  <path d="M 1187.0 165.0 L 1313.0 165.0 L 1328.0 114.0 Q 1302.8000000000002 102.6 1316.0 60.0 L 1280.0 60.0 L 1250.0 135.0 L 1220.0 60.0 L 1184.0 60.0 Q 1197.1999999999998 102.6 1172.0 114.0 L 1187.0 165.0 z" fill="rgb(255,217,194)" stroke="black"/>
  <text fill="rgb(9,33,173)" font-size="25" x="1225.0" y="106.66666666666667">top_front</text>
  <path d="M 1388.0 168.0 L 1424.0 111.0 Q 1448.0 100.5 1436.0 60.0 L 1388.0 60.0 L 1388.0 168.0 z" fill="rgb(255,217,194)" stroke="black"/>
  <text fill="rgb(9,33,173)" font-size="25" x="1384.0" y="102.75">lbsleeve</text>
  <path d="M 1524.0 168.0 L 1572.0 168.0 Q 1584.0 127.50000000000001 1560.0 117.0 L 1524.0 60.0 L 1524.0 168.0 z" fill="rgb(255,217,194)" stroke="black"/>
  <text fill="rgb(9,33,173)" font-size="25" x="1520.0" y="131.25">lfsleeve</text>
</svg>
