<?xml version="1.0" encoding="utf-8" ?>
<svg xmlns="http://www.w3.org/2000/svg" xmlns:ev="http://www.w3.org/2001/xml-events" xmlns:xlink="http://www.w3.org/1999/xlink" baseProfile="full" height="270px" version="1.1" width="1732.0px">
  <defs/>
  <path d="M 60 210 L 108 210 Q 135.6 142.2 96 120 L 60 60 L 60 210 z" fill="rgb(255,217,194)" stroke="black"/>
  <text fill="rgb(9,33,173)" font-size="25" x="56.0" y="153.0">rbsleeve</text>
  <path d="M 196.0 210.0 L 232.0 150.0 Q 271.6 127.8 244.0 60.0 L 196.0 60.0 L 196.0 210.0 z" fill="rgb(255,217,194)" stroke="black"/>
  <text fill="rgb(9,33,173)" font-size="25" x="192.0" y="123.0">rfsleeve</text>
  <path d="M 332.0 192.0 Q 476.0 217.0610296958035 620.0 192.0 L 548.0 102.0 L 539.0 60.0 L 413.0 60.0 L 404.0 102.0 L 332.0 192.0 z" fill="rgb(255,217,194)" stroke="black"/>
  <text fill="rgb(9,33,173)" font-size="25" x="451.0" y="121.0">skirt_back</text>
  <path d="M 680.0 192.0 Q 824.0 248.4195234306624 968.0 192.0 L 896.0 102.0 L 887.0 60.0 L 761.0 60.0 L 752.0 102.0 L 680.0 192.0 z" fill="rgb(255,217,194)" stroke="black"/>
  <text fill="rgb(9,33,173)" font-size="25" x="799.0" y="121.0">skirt_front</text>
  <path d="M 1043.0 168.0 L 1169.0 168.0 L 1184.0 147.0 Q 1145.6000000000001 125.7 1172.0 60.0 L 1151.0 60.0 Q 1106.0 137.48380621177682 1061.0 60.0 L 1040.0 60.0 Q 1066.3999999999999 125.7 1028.0 147.0 L 1043.0 168.0 z" fill="rgb(255,217,194)" stroke="black"/>
  <text fill="rgb(9,33,173)" font-size="25" x="1081.0" y="111.75">top_back</text>
  <path d="M 1259.0 165.0 L 1385.0 165.0 L 1400.0 147.0 Q 1361.6000000000001 125.7 1388.0 60.0 L 1367.0 60.0 L 1322.0 114.0 L 1277.0 60.0 L 1256.0 60.0 Q 1282.3999999999999 125.7 1244.0 147.0 L 1259.0 165.0 z" fill="rgb(255,217,194)" stroke="black"/>
  <text fill="rgb(9,33,173)" font-size="25" x="1297.0" y="111.66666666666667">top_front</text>
  <path d="M 1460.0 210.0 L 1496.0 150.0 Q 1535.6 127.8 1508.0 60.0 L 1460.0 60.0 L 1460.0 210.0 z" fill="rgb(255,217,194)" stroke="black"/>
  <text fill="rgb(9,33,173)" font-size="25" x="1456.0" y="123.0">lbsleeve</text>
  <path d="M 1596.0 210.0 L 1644.0 210.0 Q 1671.6 142.2 1632.0 120.0 L 1596.0 60.0 L 1596.0 210.0 z" fill="rgb(255,217,194)" stroke="black"/>
  <text fill="rgb(9,33,173)" font-size="25" x="1592.0" y="153.0">lfsleeve</text>
</svg>
