<?xml version="1.0" encoding="utf-8" ?>
<svg xmlns="http://www.w3.org/2000/svg" xmlns:ev="http://www.w3.org/2001/xml-events" xmlns:xlink="http://www.w3.org/1999/xlink" baseProfile="full" height="375.0px" version="1.1" width="1406.5px">
  <defs/>
  <path d="M 60 123 L 90 123 Q 100.8 84.60000000000001 78 75 L 60 60 L 60 123 z" fill="rgb(255,217,194)" stroke="black"/>
  <text fill="rgb(9,33,173)" font-size="25" x="47.0" y="98.25">rbsleeve</text>
  <path d="M 187.0 123.0 L 205.0 108.0 Q 227.8 98.39999999999999 217.0 60.0 L 187.0 60.0 L 187.0 123.0 z" fill="rgb(255,217,194)" stroke="black"/>
  <text fill="rgb(9,33,173)" font-size="25" x="174.0" y="90.75">rfsleeve</text>
  <path d="M 314.0 315.0 L 470.0 315.0 L 470.0 138.0 L 440.0 60.0 L 416.0 60.0 Q 428.9 97.19999999999999 407.0 108.0 L 314.0 315.0 z" fill="rgb(255,217,194)" stroke="black"/>
  <text fill="rgb(9,33,173)" font-size="25" x="394.5" y="169.0">front_right</text>
  <path d="M 564.5 315.0 L 876.5 315.0 L 783.5 108.0 Q 761.5999999999999 97.19999999999999 774.5 60.0 L 750.5 60.0 Q 720.5 139.64447035099857 690.5 60.0 L 666.5 60.0 Q 679.4000000000001 97.19999999999999 657.5 108.0 L 564.5 315.0 z" fill="rgb(255,217,194)" stroke="black"/>
  <text fill="rgb(9,33,173)" font-size="25" x="695.5" y="138.75">back</text>
  <path d="M 936.5 315.0 L 1092.5 315.0 L 999.5 108.0 Q 977.5999999999999 97.19999999999999 990.5 60.0 L 966.5 60.0 L 936.5 138.0 L 936.5 315.0 z" fill="rgb(255,217,194)" stroke="black"/>
  <text fill="rgb(9,33,173)" font-size="25" x="962.0" y="169.0">front_left</text>
  <path d="M 1152.5 123.0 L 1170.5 108.0 Q 1193.3 98.39999999999999 1182.5 60.0 L 1152.5 60.0 L 1152.5 123.0 z" fill="rgb(255,217,194)" stroke="black"/>
  <text fill="rgb(9,33,173)" font-size="25" x="1139.5" y="90.75">lbsleeve</text>
  <path d="M 1279.5 123.0 L 1309.5 123.0 Q 1320.3 84.60000000000001 1297.5 75.0 L 1279.5 60.0 L 1279.5 123.0 z" fill="rgb(255,217,194)" stroke="black"/>
  <text fill="rgb(9,33,173)" font-size="25" x="1266.5" y="98.25">lfsleeve</text>
</svg>
