<?xml version="1.0" encoding="utf-8" ?>
<svg xmlns="http://www.w3.org/2000/svg" xmlns:ev="http://www.w3.org/2001/xml-events" xmlns:xlink="http://www.w3.org/1999/xlink" baseProfile="full" height="312px" version="1.1" width="1224px">
  <defs/>
  <path d="M 60 252 Q 216.0 385.19302554838157 372 252 L 291 102 L 270 60 L 162 60 L 141 102 L 60 252 z" fill="rgb(255,217,194)" stroke="black"/>
  <text fill="rgb(9,33,173)" font-size="25" x="191.0" y="141.0">skirt_back</text>
  <path d="M 432 252 Q 588.0 136.81236539584205 744 252 L 663 102 L 642 60 L 534 60 L 513 102 L 432 252 z" fill="rgb(255,217,194)" stroke="black"/>
  <text fill="rgb(9,33,173)" font-size="25" x="563.0" y="141.0">skirt_front</text>
  <path d="M 825 168 L 933 168 L 954 147 Q 915.6 125.7 942 60 L 906 60 Q 879.0 140.51250712189565 852 60 L 816 60 Q 842.4 125.7 804 147 L 825 168 z" fill="rgb(255,217,194)" stroke="black"/>
  <text fill="rgb(9,33,173)" font-size="25" x="854.0" y="111.75">top_back</text>
  <path d="M 1035 165 L 1143 165 L 1164 147 Q 1125.6000000000001 125.7 1152 60 L 1116 60 L 1089 69 L 1062 60 L 1026 60 Q 1052.4 125.7 1014 147 L 1035 165 z" fill="rgb(255,217,194)" stroke="black"/>
  <text fill="rgb(9,33,173)" font-size="25" x="1064.0" y="106.66666666666667">top_front</text>
</svg>
