<?xml version="1.0" encoding="utf-8" ?>
<svg xmlns="http://www.w3.org/2000/svg" xmlns:ev="http://www.w3.org/2001/xml-events" xmlns:xlink="http://www.w3.org/1999/xlink" baseProfile="full" height="339px" version="1.1" width="1510.0px">
  <defs/>
  <path d="M 60 279 L 162 279 L 192 60 L 90 60 Q 98.7 130.5 60 138 Q 74.1 145.05 60 279 z" fill="rgb(255,217,194)" stroke="black"/>
  <text fill="rgb(9,33,173)" font-size="25" x="87.8" y="166.2">Rback</text>
  <path d="M 282 279 L 384 279 Q 369.9 145.05 384 138 Q 349.2 129.0 354 60 L 252 60 L 282 279 z" fill="rgb(255,217,194)" stroke="black"/>
  <text fill="rgb(9,33,173)" font-size="25" x="306.2" y="166.2">Rfront</text>
  <path d="M 444 72 L 483 72 L 522 72 L 522 60 L 444 60 L 444 72 z" fill="rgb(255,217,194)" stroke="black"/>
  <text fill="rgb(9,33,173)" font-size="25" x="458.0" y="70.2">wb_back</text>
  <path d="M 588.0 72.0 L 627.0 72.0 L 666.0 72.0 L 666.0 60.0 L 588.0 60.0 L 588.0 72.0 z" fill="rgb(255,217,194)" stroke="black"/>
  <text fill="rgb(9,33,173)" font-size="25" x="602.0" y="70.2">wb_front</text>
  <path d="M 742.0 147.0 L 874.0 147.0 L 874.0 147.0 Q 835.6 125.7 862.0 60.0 L 823.0 60.0 Q 808.0 95.69707118876119 793.0 60.0 L 754.0 60.0 Q 780.4 125.7 742.0 147.0 L 742.0 147.0 z" fill="rgb(255,217,194)" stroke="black"/>
  <text fill="rgb(9,33,173)" font-size="25" x="783.0" y="106.5">top_back</text>
  <path d="M 934.0 147.0 L 1066.0 147.0 L 1066.0 147.0 Q 1027.6000000000001 125.7 1054.0 60.0 L 1015.0 60.0 L 1000.0 114.0 L 985.0 60.0 L 946.0 60.0 Q 972.4 125.7 934.0 147.0 L 934.0 147.0 z" fill="rgb(255,217,194)" stroke="black"/>
  <text fill="rgb(9,33,173)" font-size="25" x="975.0" y="107.66666666666667">top_front</text>
  <path d="M 1156.0 279.0 L 1258.0 279.0 Q 1243.9 145.05 1258.0 138.0 Q 1219.3 130.5 1228.0 60.0 L 1126.0 60.0 L 1156.0 279.0 z" fill="rgb(255,217,194)" stroke="black"/>
  <text fill="rgb(9,33,173)" font-size="25" x="1180.2" y="166.2">Lback</text>
  <path d="M 1318.0 279.0 L 1420.0 279.0 L 1450.0 60.0 L 1348.0 60.0 Q 1352.8 129.0 1318.0 138.0 Q 1332.1 145.05 1318.0 279.0 z" fill="rgb(255,217,194)" stroke="black"/>
  <text fill="rgb(9,33,173)" font-size="25" x="1345.8" y="166.2">Lfront</text>
</svg>
