<?xml version="1.0" encoding="utf-8" ?>
<svg xmlns="http://www.w3.org/2000/svg" xmlns:ev="http://www.w3.org/2001/xml-events" xmlns:xlink="http://www.w3.org/1999/xlink" baseProfile="full" height="237px" version="1.1" width="1114.0px">
  <defs/>
  <path d="M 60 177 L 153 177 Q 177.0 115.50000000000001 141 96 L 60 60 L 60 177 z" fill="rgb(255,217,194)" stroke="black"/>
  <text fill="rgb(9,33,173)" font-size="25" x="78.5" y="130.5">rbsleeve</text>
  <path d="M 218.5 177.0 L 299.5 141.0 Q 335.5 121.5 311.5 60.0 L 218.5 60.0 L 218.5 177.0 z" fill="rgb(255,217,194)" stroke="black"/>
  <text fill="rgb(9,33,173)" font-size="25" x="237.0" y="112.5">rfsleeve</text>
  <path d="M 383.0 168.0 L 521.0 168.0 L 527.0 141.0 Q 491.0 121.5 515.0 60.0 L 488.0 60.0 Q 452.0 96.16735695043369 416.0 60.0 L 389.0 60.0 Q 413.0 121.49999999999999 377.0 141.0 L 383.0 168.0 z" fill="rgb(255,217,194)" stroke="black"/>
  <text fill="rgb(9,33,173)" font-size="25" x="427.0" y="110.25">back</text>
  <path d="M 593.0 168.0 L 731.0 168.0 L 737.0 141.0 Q 701.0 121.5 725.0 60.0 L 698.0 60.0 L 662.0 72.0 L 626.0 60.0 L 599.0 60.0 Q 623.0 121.49999999999999 587.0 141.0 L 593.0 168.0 z" fill="rgb(255,217,194)" stroke="black"/>
  <text fill="rgb(9,33,173)" font-size="25" x="637.0" y="106.33333333333333">front</text>
  <path d="M 797.0 177.0 L 878.0 141.0 Q 914.0 121.5 890.0 60.0 L 797.0 60.0 L 797.0 177.0 z" fill="rgb(255,217,194)" stroke="black"/>
  <text fill="rgb(9,33,173)" font-size="25" x="815.5" y="112.5">lbsleeve</text>
  <path d="M 955.5 177.0 L 1048.5 177.0 Q 1072.5 115.50000000000001 1036.5 96.0 L 955.5 60.0 L 955.5 177.0 z" fill="rgb(255,217,194)" stroke="black"/>
  <text fill="rgb(9,33,173)" font-size="25" x="974.0" y="130.5">lfsleeve</text>
</svg>
