<?xml version="1.0" encoding="utf-8" ?>
<svg xmlns="http://www.w3.org/2000/svg" xmlns:ev="http://www.w3.org/2001/xml-events" xmlns:xlink="http://www.w3.org/1999/xlink" baseProfile="full" height="366px" version="1.1" width="1654.0px">
  <defs/>
  <path d="M 60 306 L 225 306 L 201 60 L 90 60 Q 95.1 123.75 60 129 Q 77.7 137.85 60 306 z" fill="rgb(255,217,194)" stroke="black"/>
  <text fill="rgb(9,33,173)" font-size="25" x="102.2" y="175.2">Rback</text>
  <path d="M 285 306 L 450 306 Q 432.3 137.85 450 129 Q 418.35 122.25 420 60 L 309 60 L 285 306 z" fill="rgb(255,217,194)" stroke="black"/>
  <text fill="rgb(9,33,173)" font-size="25" x="357.8" y="175.2">Rfront</text>
  <path d="M 510 69 L 549 69 L 588 69 L 588 60 L 510 60 L 510 69 z" fill="rgb(255,217,194)" stroke="black"/>
  <text fill="rgb(9,33,173)" font-size="25" x="524.0" y="68.4">wb_back</text>
  <path d="M 654.0 69.0 L 693.0 69.0 L 732.0 69.0 L 732.0 60.0 L 654.0 60.0 L 654.0 69.0 z" fill="rgb(255,217,194)" stroke="black"/>
  <text fill="rgb(9,33,173)" font-size="25" x="668.0" y="68.4">wb_front</text>
  <path d="M 808.0 144.0 L 946.0 144.0 L 946.0 117.0 Q 919.6 104.7 934.0 60.0 L 907.0 60.0 Q 877.0 91.70947179175101 847.0 60.0 L 820.0 60.0 Q 834.4 104.7 808.0 117.0 L 808.0 144.0 z" fill="rgb(255,217,194)" stroke="black"/>
  <text fill="rgb(9,33,173)" font-size="25" x="852.0" y="98.25">top_back</text>
  <path d="M 1006.0 144.0 L 1144.0 144.0 L 1144.0 117.0 Q 1117.6000000000001 104.7 1132.0 60.0 L 1105.0 60.0 L 1075.0 102.0 L 1045.0 60.0 L 1018.0 60.0 Q 1032.4 104.7 1006.0 117.0 L 1006.0 144.0 z" fill="rgb(255,217,194)" stroke="black"/>
  <text fill="rgb(9,33,173)" font-size="25" x="1050.0" y="99.0">top_front</text>
  <path d="M 1204.0 306.0 L 1369.0 306.0 Q 1351.3 137.85 1369.0 129.0 Q 1333.9 123.75 1339.0 60.0 L 1228.0 60.0 L 1204.0 306.0 z" fill="rgb(255,217,194)" stroke="black"/>
  <text fill="rgb(9,33,173)" font-size="25" x="1276.8" y="175.2">Lback</text>
  <path d="M 1429.0 306.0 L 1594.0 306.0 L 1570.0 60.0 L 1459.0 60.0 Q 1460.65 122.25 1429.0 129.0 Q 1446.7 137.85 1429.0 306.0 z" fill="rgb(255,217,194)" stroke="black"/>
  <text fill="rgb(9,33,173)" font-size="25" x="1471.2" y="175.2">Lfront</text>
</svg>
