<?xml version="1.0" encoding="utf-8" ?>
<svg xmlns="http://www.w3.org/2000/svg" xmlns:ev="http://www.w3.org/2001/xml-events" xmlns:xlink="http://www.w3.org/1999/xlink" baseProfile="full" height="261.0px" version="1.1" width="1232.0px">
  <defs/>
  <path d="M 60 165 L 237 165 L 237 93 L 210 60 L 168 60 Q 194.4 125.7 156 147 L 60 165 z" fill="rgb(255,217,194)" stroke="black"/>
  <text fill="rgb(9,33,173)" font-size="25" x="153.0" y="118.0">front_right</text>
  <path d="M 323.0 201.0 L 392.0 189.0 Q 453.2 153.9 386.0 84.0 L 359.0 93.0 L 332.0 60.0 L 323.0 201.0 z" fill="rgb(255,217,194)" stroke="black"/>
  <text fill="rgb(9,33,173)" font-size="25" x="333.4" y="128.4">Rhood</text>
  <path d="M 452.0 165.0 L 806.0 165.0 L 710.0 147.0 Q 671.6 125.7 698.0 60.0 L 656.0 60.0 L 629.0 69.0 L 602.0 60.0 L 560.0 60.0 Q 586.4 125.7 548.0 147.0 L 452.0 165.0 z" fill="rgb(255,217,194)" stroke="black"/>
  <text fill="rgb(9,33,173)" font-size="25" x="604.0" y="106.66666666666667">back</text>
  <path d="M 875.0 201.0 L 902.0 168.0 L 929.0 177.0 Q 996.2 107.1 935.0 72.0 L 866.0 60.0 L 875.0 201.0 z" fill="rgb(255,217,194)" stroke="black"/>
  <text fill="rgb(9,33,173)" font-size="25" x="876.4" y="138.6">Lhood</text>
  <path d="M 995.0 165.0 L 1172.0 165.0 L 1076.0 147.0 Q 1037.6000000000001 125.7 1064.0 60.0 L 1022.0 60.0 L 995.0 93.0 L 995.0 165.0 z" fill="rgb(255,217,194)" stroke="black"/>
  <text fill="rgb(9,33,173)" font-size="25" x="1029.0" y="118.0">front_left</text>
</svg>
