<?xml version="1.0" encoding="utf-8" ?>
<svg xmlns="http://www.w3.org/2000/svg" xmlns:ev="http://www.w3.org/2001/xml-events" xmlns:xlink="http://www.w3.org/1999/xlink" baseProfile="full" height="327px" version="1.1" width="1522.0px">
  <defs/>
  <path d="M 60 267 L 183 267 L 171 60 L 90 60 Q 97.5 128.25 60 135 Q 73.2 141.6 60 267 z" fill="rgb(255,217,194)" stroke="black"/>
  <text fill="rgb(9,33,173)" font-size="25" x="87.8" y="160.8">Rback</text>
  <path d="M 243 267 L 366 267 Q 352.8 141.60000000000002 366 135 Q 332.25 126.75 336 60 L 255 60 L 243 267 z" fill="rgb(255,217,194)" stroke="black"/>
  <text fill="rgb(9,33,173)" font-size="25" x="288.2" y="160.8">Rfront</text>
  <path d="M 426 72 L 465 72 L 504 72 L 504 60 L 426 60 L 426 72 z" fill="rgb(255,217,194)" stroke="black"/>
  <text fill="rgb(9,33,173)" font-size="25" x="440.0" y="70.2">wb_back</text>
  <path d="M 570.0 72.0 L 609.0 72.0 L 648.0 72.0 L 648.0 60.0 L 570.0 60.0 L 570.0 72.0 z" fill="rgb(255,217,194)" stroke="black"/>
  <text fill="rgb(9,33,173)" font-size="25" x="584.0" y="70.2">wb_front</text>
  <path d="M 724.0 183.0 L 880.0 183.0 L 880.0 114.0 Q 854.8 102.6 868.0 60.0 L 838.0 60.0 Q 802.0 116.3194917789984 766.0 60.0 L 736.0 60.0 Q 749.2 102.6 724.0 114.0 L 724.0 183.0 z" fill="rgb(255,217,194)" stroke="black"/>
  <text fill="rgb(9,33,173)" font-size="25" x="777.0" y="107.25">top_back</text>
  <path d="M 940.0 183.0 L 1096.0 183.0 L 1096.0 114.0 Q 1070.8000000000002 102.6 1084.0 60.0 L 1054.0 60.0 L 1018.0 105.0 L 982.0 60.0 L 952.0 60.0 Q 965.2 102.6 940.0 114.0 L 940.0 183.0 z" fill="rgb(255,217,194)" stroke="black"/>
  <text fill="rgb(9,33,173)" font-size="25" x="993.0" y="107.33333333333333">top_front</text>
  <path d="M 1156.0 267.0 L 1279.0 267.0 Q 1265.8 141.60000000000002 1279.0 135.0 Q 1241.5 128.25 1249.0 60.0 L 1168.0 60.0 L 1156.0 267.0 z" fill="rgb(255,217,194)" stroke="black"/>
  <text fill="rgb(9,33,173)" font-size="25" x="1201.2" y="160.8">Lback</text>
  <path d="M 1339.0 267.0 L 1462.0 267.0 L 1450.0 60.0 L 1369.0 60.0 Q 1372.75 126.75 1339.0 135.0 Q 1352.2 141.6 1339.0 267.0 z" fill="rgb(255,217,194)" stroke="black"/>
  <text fill="rgb(9,33,173)" font-size="25" x="1366.8" y="160.8">Lfront</text>
</svg>
