<?xml version="1.0" encoding="utf-8" ?>
<svg xmlns="http://www.w3.org/2000/svg" xmlns:ev="http://www.w3.org/2001/xml-events" xmlns:xlink="http://www.w3.org/1999/xlink" baseProfile="full" height="306.0px" version="1.1" width="1435.0px">
  <defs/>
  <path d="M 60 213 L 129 213 Q 159.3 135.60000000000002 114 111 L 60 60 L 60 213 z" fill="rgb(255,217,194)" stroke="black"/>
  <text fill="rgb(9,33,173)" font-size="25" x="65.75" y="152.25">rbsleeve</text>
  <path d="M 205.75 213.0 L 259.75 162.0 Q 305.05 137.4 274.75 60.0 L 205.75 60.0 L 205.75 213.0 z" fill="rgb(255,217,194)" stroke="black"/>
  <text fill="rgb(9,33,173)" font-size="25" x="211.5" y="126.75">rfsleeve</text>
  <path d="M 351.5 246.0 L 687.5 246.0 L 609.5 162.0 Q 564.2 137.4 594.5 60.0 L 570.5 60.0 Q 519.5 163.27327817556971 468.5 60.0 L 444.5 60.0 Q 474.8 137.39999999999998 429.5 162.0 L 351.5 246.0 z" fill="rgb(255,217,194)" stroke="black"/>
  <text fill="rgb(9,33,173)" font-size="25" x="494.5" y="135.0">back</text>
  <path d="M 747.5 246.0 L 1083.5 246.0 L 1005.5 162.0 Q 960.2 137.4 990.5 60.0 L 966.5 60.0 L 915.5 96.0 L 864.5 60.0 L 840.5 60.0 Q 870.8 137.39999999999998 825.5 162.0 L 747.5 246.0 z" fill="rgb(255,217,194)" stroke="black"/>
  <text fill="rgb(9,33,173)" font-size="25" x="890.5" y="131.0">front</text>
  <path d="M 1143.5 213.0 L 1197.5 162.0 Q 1242.8 137.4 1212.5 60.0 L 1143.5 60.0 L 1143.5 213.0 z" fill="rgb(255,217,194)" stroke="black"/>
  <text fill="rgb(9,33,173)" font-size="25" x="1149.25" y="126.75">lbsleeve</text>
  <path d="M 1289.25 213.0 L 1358.25 213.0 Q 1388.55 135.60000000000002 1343.25 111.0 L 1289.25 60.0 L 1289.25 213.0 z" fill="rgb(255,217,194)" stroke="black"/>
  <text fill="rgb(9,33,173)" font-size="25" x="1295.0" y="152.25">lfsleeve</text>
</svg>
