<?xml version="1.0" encoding="utf-8" ?>
<svg xmlns="http://www.w3.org/2000/svg" xmlns:ev="http://www.w3.org/2001/xml-events" xmlns:xlink="http://www.w3.org/1999/xlink" baseProfile="full" height="318px" version="1.1" width="1068px">
  <defs/>
  <path d="M 60 258 L 135 258 Q 162.75 90.75000000000001 156 60 L 90 60 Q 104.7 141.75 60 153 Q 70.5 158.25 60 258 z" fill="rgb(255,217,194)" stroke="black"/>
  <text fill="rgb(9,33,173)" font-size="25" x="75.2" y="160.8">Rback</text>
  <path d="M 237 258 L 312 258 Q 301.5 158.25 312 153 Q 271.95 140.25 282 60 L 216 60 Q 209.25 90.75 237 258 z" fill="rgb(255,217,194)" stroke="black"/>
  <text fill="rgb(9,33,173)" font-size="25" x="246.8" y="160.8">Rfront</text>
  <path d="M 372 168 L 438 168 L 504 168 L 504 108 Q 482.1 97.19999999999999 495 60 L 462 60 Q 438.0 95.47612800391052 414 60 L 381 60 Q 393.9 97.19999999999999 372 108 L 372 168 z" fill="rgb(255,217,194)" stroke="black"/>
  <text fill="rgb(9,33,173)" font-size="25" x="413.0" y="109.66666666666667">up_back</text>
  <path d="M 564 165 L 630 165 L 696 165 L 696 108 Q 674.0999999999999 97.19999999999999 687 60 L 654 60 L 630 90 L 606 60 L 573 60 Q 585.9000000000001 97.19999999999999 564 108 L 564 165 z" fill="rgb(255,217,194)" stroke="black"/>
  <text fill="rgb(9,33,173)" font-size="25" x="605.0" y="107.1">up_front</text>
  <path d="M 777 258 L 852 258 Q 841.5 158.25 852 153 Q 807.3 141.75 822 60 L 756 60 Q 749.25 90.75 777 258 z" fill="rgb(255,217,194)" stroke="black"/>
  <text fill="rgb(9,33,173)" font-size="25" x="786.8" y="160.8">Lback</text>
  <path d="M 912 258 L 987 258 Q 1014.75 90.75000000000001 1008 60 L 942 60 Q 952.05 140.25 912 153 Q 922.5 158.25 912 258 z" fill="rgb(255,217,194)" stroke="black"/>
  <text fill="rgb(9,33,173)" font-size="25" x="927.2" y="160.8">Lfront</text>
</svg>
