<?xml version="1.0" encoding="utf-8" ?>
<svg xmlns="http://www.w3.org/2000/svg" xmlns:ev="http://www.w3.org/2001/xml-events" xmlns:xlink="http://www.w3.org/1999/xlink" baseProfile="full" height="411.0px" version="1.1" width="1555.0px">
  <defs/>
  <path d="M 60 183 L 108 183 Q 146.7 90.9 93 60 L 60 132 L 60 183 z" fill="rgb(255,217,194)" stroke="black"/>
  <text fill="rgb(9,33,173)" font-size="25" x="55.25" y="142.5">rbsleeve</text>
  <path d="M 195.25 111.0 L 228.25 183.0 Q 281.95 152.1 243.25 60.0 L 195.25 60.0 L 195.25 111.0 z" fill="rgb(255,217,194)" stroke="black"/>
  <text fill="rgb(9,33,173)" font-size="25" x="190.5" y="106.5">rfsleeve</text>
  <path d="M 330.5 351.0 L 618.5 351.0 L 564.5 180.0 Q 512.0 150.0 549.5 60.0 L 507.5 60.0 L 474.5 69.0 L 441.5 60.0 L 399.5 60.0 Q 437.0 150.0 384.5 180.0 L 330.5 351.0 z" fill="rgb(255,217,194)" stroke="black"/>
  <text fill="rgb(9,33,173)" font-size="25" x="449.5" y="155.33333333333334">back</text>
  <path d="M 678.5 348.0 L 966.5 348.0 L 912.5 180.0 Q 860.0 150.0 897.5 60.0 L 855.5 60.0 L 822.5 60.0 L 789.5 60.0 L 747.5 60.0 Q 785.0 150.0 732.5 180.0 L 678.5 348.0 z" fill="rgb(255,217,194)" stroke="black"/>
  <text fill="rgb(9,33,173)" font-size="25" x="797.5" y="153.66666666666666">front</text>
  <path d="M 1026.5 150.0 L 1089.5 153.0 Q 1147.1 128.7 1095.5 60.0 L 1062.5 69.0 L 1026.5 66.0 L 1026.5 150.0 z" fill="rgb(255,217,194)" stroke="black"/>
  <text fill="rgb(9,33,173)" font-size="25" x="1035.1" y="102.6">Rhood</text>
  <path d="M 1155.5 147.0 L 1191.5 144.0 L 1224.5 153.0 Q 1276.1 84.30000000000001 1218.5 60.0 L 1155.5 63.0 L 1155.5 147.0 z" fill="rgb(255,217,194)" stroke="black"/>
  <text fill="rgb(9,33,173)" font-size="25" x="1164.1" y="116.4">Lhood</text>
  <path d="M 1284.5 111.0 L 1317.5 183.0 Q 1371.2 152.1 1332.5 60.0 L 1284.5 60.0 L 1284.5 111.0 z" fill="rgb(255,217,194)" stroke="black"/>
  <text fill="rgb(9,33,173)" font-size="25" x="1279.75" y="106.5">lbsleeve</text>
  <path d="M 1419.75 183.0 L 1467.75 183.0 Q 1506.45 90.9 1452.75 60.0 L 1419.75 132.0 L 1419.75 183.0 z" fill="rgb(255,217,194)" stroke="black"/>
  <text fill="rgb(9,33,173)" font-size="25" x="1415.0" y="142.5">lfsleeve</text>
</svg>
