<?xml version="1.0" encoding="utf-8" ?>
<svg xmlns="http://www.w3.org/2000/svg" xmlns:ev="http://www.w3.org/2001/xml-events" xmlns:xlink="http://www.w3.org/1999/xlink" baseProfile="full" height="450.0px" version="1.1" width="1597.0px">
  <defs/>
  <path d="M 60 141 L 114 141 Q 140.1 80.70000000000002 105 60 L 60 72 L 60 141 z" fill="rgb(255,217,194)" stroke="black"/>
  <text fill="rgb(9,33,173)" font-size="25" x="59.75" y="106.5">rbsleeve</text>
  <path d="M 199.75 129.0 L 244.75 141.0 Q 279.84999999999997 120.3 253.75 60.0 L 199.75 60.0 L 199.75 129.0 z" fill="rgb(255,217,194)" stroke="black"/>
  <text fill="rgb(9,33,173)" font-size="25" x="199.5" y="100.5">rfsleeve</text>
  <path d="M 339.5 390.0 L 639.5 390.0 L 549.5 138.0 Q 515.5999999999999 118.19999999999999 540.5 60.0 L 513.5 60.0 L 489.5 69.0 L 465.5 60.0 L 438.5 60.0 Q 463.4 118.19999999999999 429.5 138.0 L 339.5 390.0 z" fill="rgb(255,217,194)" stroke="black"/>
  <text fill="rgb(9,33,173)" font-size="25" x="464.5" y="154.66666666666666">back</text>
  <path d="M 699.5 390.0 L 999.5 390.0 L 909.5 138.0 Q 875.5999999999999 118.19999999999999 900.5 60.0 L 873.5 60.0 L 849.5 78.0 L 825.5 60.0 L 798.5 60.0 Q 823.4000000000001 118.19999999999999 789.5 138.0 L 699.5 390.0 z" fill="rgb(255,217,194)" stroke="black"/>
  <text fill="rgb(9,33,173)" font-size="25" x="824.5" y="155.66666666666666">front</text>
  <path d="M 1059.5 171.0 L 1128.5 171.0 Q 1182.5 139.5 1122.5 78.0 L 1095.5 87.0 L 1068.5 60.0 L 1059.5 171.0 z" fill="rgb(255,217,194)" stroke="black"/>
  <text fill="rgb(9,33,173)" font-size="25" x="1069.9" y="116.4">Rhood</text>
  <path d="M 1197.5 171.0 L 1224.5 144.0 L 1251.5 153.0 Q 1311.5 91.5 1257.5 60.0 L 1188.5 60.0 L 1197.5 171.0 z" fill="rgb(255,217,194)" stroke="black"/>
  <text fill="rgb(9,33,173)" font-size="25" x="1198.9" y="120.6">Lhood</text>
  <path d="M 1317.5 129.0 L 1362.5 141.0 Q 1397.6000000000001 120.3 1371.5 60.0 L 1317.5 60.0 L 1317.5 129.0 z" fill="rgb(255,217,194)" stroke="black"/>
  <text fill="rgb(9,33,173)" font-size="25" x="1317.25" y="100.5">lbsleeve</text>
  <path d="M 1457.25 141.0 L 1511.25 141.0 Q 1537.3500000000001 80.70000000000002 1502.25 60.0 L 1457.25 72.0 L 1457.25 141.0 z" fill="rgb(255,217,194)" stroke="black"/>
  <text fill="rgb(9,33,173)" font-size="25" x="1457.0" y="106.5">lfsleeve</text>
</svg>
