<?xml version="1.0" encoding="utf-8" ?>
<svg xmlns="http://www.w3.org/2000/svg" xmlns:ev="http://www.w3.org/2001/xml-events" xmlns:xlink="http://www.w3.org/1999/xlink" baseProfile="full" height="522.0px" version="1.1" width="1520.0px">
  <defs/>
  <path d="M 60 225 L 150 225 Q 165.6 178.2 138 165 L 60 60 L 60 225 z" fill="rgb(255,217,194)" stroke="black"/>
  <text fill="rgb(9,33,173)" font-size="25" x="77.0" y="171.75">rbsleeve</text>
  <path d="M 217.0 225.0 L 295.0 120.0 Q 322.6 106.8 307.0 60.0 L 217.0 60.0 L 217.0 225.0 z" fill="rgb(255,217,194)" stroke="black"/>
  <text fill="rgb(9,33,173)" font-size="25" x="234.0" y="119.25">rfsleeve</text>
  <path d="M 377.0 462.0 L 452.0 462.0 L 452.0 102.0 L 419.0 60.0 L 386.0 60.0 Q 400.40000000000003 104.7 374.0 117.0 L 377.0 462.0 z" fill="rgb(255,217,194)" stroke="black"/>
  <text fill="rgb(9,33,173)" font-size="25" x="385.0" y="213.5">front_right</text>
  <path d="M 555.0 204.0 L 567.0 204.0 Q 650.7 204.89999999999998 624.0 93.0 L 591.0 102.0 L 558.0 60.0 L 555.0 204.0 z" fill="rgb(255,217,194)" stroke="black"/>
  <text fill="rgb(9,33,173)" font-size="25" x="554.0" y="135.6">Rhood</text>
  <path d="M 687.0 462.0 L 837.0 462.0 L 840.0 117.0 Q 813.6 104.7 828.0 60.0 L 795.0 60.0 L 762.0 69.0 L 729.0 60.0 L 696.0 60.0 Q 710.4 104.7 684.0 117.0 L 687.0 462.0 z" fill="rgb(255,217,194)" stroke="black"/>
  <text fill="rgb(9,33,173)" font-size="25" x="737.0" y="166.0">back</text>
  <path d="M 903.0 204.0 L 936.0 162.0 L 969.0 171.0 Q 995.7 59.100000000000016 912.0 60.0 L 900.0 60.0 L 903.0 204.0 z" fill="rgb(255,217,194)" stroke="black"/>
  <text fill="rgb(9,33,173)" font-size="25" x="899.0" y="134.4">Lhood</text>
  <path d="M 1029.0 462.0 L 1104.0 462.0 L 1107.0 117.0 Q 1080.6000000000001 104.7 1095.0 60.0 L 1062.0 60.0 L 1029.0 102.0 L 1029.0 462.0 z" fill="rgb(255,217,194)" stroke="black"/>
  <text fill="rgb(9,33,173)" font-size="25" x="1046.0" y="213.5">front_left</text>
  <path d="M 1206.0 225.0 L 1284.0 120.0 Q 1311.6 106.8 1296.0 60.0 L 1206.0 60.0 L 1206.0 225.0 z" fill="rgb(255,217,194)" stroke="black"/>
  <text fill="rgb(9,33,173)" font-size="25" x="1223.0" y="119.25">lbsleeve</text>
  <path d="M 1363.0 225.0 L 1453.0 225.0 Q 1468.6 178.2 1441.0 165.0 L 1363.0 60.0 L 1363.0 225.0 z" fill="rgb(255,217,194)" stroke="black"/>
  <text fill="rgb(9,33,173)" font-size="25" x="1380.0" y="171.75">lfsleeve</text>
</svg>
