<?xml version="1.0" encoding="utf-8" ?>
<svg xmlns="http://www.w3.org/2000/svg" xmlns:ev="http://www.w3.org/2001/xml-events" xmlns:xlink="http://www.w3.org/1999/xlink" baseProfile="full" height="474px" version="1.1" width="634.0px">
  <defs/>
  <path d="M 60 414 L 138 414 L 138 129 L 102 60 L 75 60 Q 109.8 140.4 63 168 L 60 414 z" fill="rgb(255,217,194)" stroke="black"/>
  <text fill="rgb(9,33,173)" font-size="25" x="71.0" y="210.5">front_right</text>
  <path d="M 241.0 414.0 L 397.0 414.0 L 394.0 168.0 Q 347.2 140.4 382.0 60.0 L 355.0 60.0 Q 319.0 216.43114463001632 283.0 60.0 L 256.0 60.0 Q 290.8 140.4 244.0 168.0 L 241.0 414.0 z" fill="rgb(255,217,194)" stroke="black"/>
  <text fill="rgb(9,33,173)" font-size="25" x="294.0" y="178.5">back</text>
  <path d="M 457.0 414.0 L 535.0 414.0 L 532.0 168.0 Q 485.2 140.4 520.0 60.0 L 493.0 60.0 L 457.0 129.0 L 457.0 414.0 z" fill="rgb(255,217,194)" stroke="black"/>
  <text fill="rgb(9,33,173)" font-size="25" x="474.0" y="210.5">front_left</text>
</svg>
