<?xml version="1.0" encoding="utf-8" ?>
<svg xmlns="http://www.w3.org/2000/svg" xmlns:ev="http://www.w3.org/2001/xml-events" xmlns:xlink="http://www.w3.org/1999/xlink" baseProfile="full" height="357.0px" version="1.1" width="1340.5px">
  <defs/>
  <path d="M 60 177 L 105 177 Q 129.0 115.50000000000001 93 96 L 60 60 L 60 177 z" fill="rgb(255,217,194)" stroke="black"/>
  <text fill="rgb(9,33,173)" font-size="25" x="54.5" y="130.5">rbsleeve</text>
  <path d="M 194.5 177.0 L 227.5 141.0 Q 263.5 121.5 239.5 60.0 L 194.5 60.0 L 194.5 177.0 z" fill="rgb(255,217,194)" stroke="black"/>
  <text fill="rgb(9,33,173)" font-size="25" x="189.0" y="112.5">rfsleeve</text>
  <path d="M 329.0 297.0 L 461.0 297.0 L 461.0 63.0 L 428.0 60.0 L 398.0 60.0 Q 422.0 121.49999999999999 386.0 141.0 L 329.0 297.0 z" fill="rgb(255,217,194)" stroke="black"/>
  <text fill="rgb(9,33,173)" font-size="25" x="385.5" y="156.0">front_right</text>
  <path d="M 555.5 297.0 L 819.5 297.0 L 762.5 141.0 Q 726.5 121.5 750.5 60.0 L 720.5 60.0 Q 687.5 254.15484251809244 654.5 60.0 L 624.5 60.0 Q 648.5 121.49999999999999 612.5 141.0 L 555.5 297.0 z" fill="rgb(255,217,194)" stroke="black"/>
  <text fill="rgb(9,33,173)" font-size="25" x="662.5" y="142.5">back</text>
  <path d="M 879.5 297.0 L 1011.5 297.0 L 954.5 141.0 Q 918.5 121.5 942.5 60.0 L 912.5 60.0 L 879.5 63.0 L 879.5 297.0 z" fill="rgb(255,217,194)" stroke="black"/>
  <text fill="rgb(9,33,173)" font-size="25" x="905.0" y="156.0">front_left</text>
  <path d="M 1071.5 177.0 L 1104.5 141.0 Q 1140.5 121.5 1116.5 60.0 L 1071.5 60.0 L 1071.5 177.0 z" fill="rgb(255,217,194)" stroke="black"/>
  <text fill="rgb(9,33,173)" font-size="25" x="1066.0" y="112.5">lbsleeve</text>
  <path d="M 1206.0 177.0 L 1251.0 177.0 Q 1275.0 115.50000000000001 1239.0 96.0 L 1206.0 60.0 L 1206.0 177.0 z" fill="rgb(255,217,194)" stroke="black"/>
  <text fill="rgb(9,33,173)" font-size="25" x="1200.5" y="130.5">lfsleeve</text>
</svg>
