<?xml version="1.0" encoding="utf-8" ?>
<svg xmlns="http://www.w3.org/2000/svg" xmlns:ev="http://www.w3.org/2001/xml-events" xmlns:xlink="http://www.w3.org/1999/xlink" baseProfile="full" height="228px" version="1.1" width="1476.0px">
  <defs/>
  <path d="M 60 168 L 366 168 L 366 60 L 60 60 L 60 168 z" fill="rgb(255,217,194)" stroke="black"/>
  <text fill="rgb(9,33,173)" font-size="25" x="188.0" y="117.0">skirt_back</text>
  <path d="M 426 72 L 516 72 L 516 60 L 426 60 L 426 72 z" fill="rgb(255,217,194)" stroke="black"/>
  <text fill="rgb(9,33,173)" font-size="25" x="446.0" y="69.0">wb_back</text>
  <path d="M 576 72 L 666 72 L 666 60 L 576 60 L 576 72 z" fill="rgb(255,217,194)" stroke="black"/>
  <text fill="rgb(9,33,173)" font-size="25" x="596.0" y="69.0">wb_front</text>
  <path d="M 736.0 168.0 L 1042.0 168.0 L 1042.0 60.0 L 736.0 60.0 L 736.0 168.0 z" fill="rgb(255,217,194)" stroke="black"/>
  <text fill="rgb(9,33,173)" font-size="25" x="864.0" y="117.0">skirt_front</text>
  <path d="M 1102.0 153.0 L 1228.0 153.0 L 1228.0 111.0 Q 1204.0 100.5 1216.0 60.0 L 1186.0 60.0 Q 1165.0 140.92914122769054 1144.0 60.0 L 1114.0 60.0 Q 1126.0 100.49999999999999 1102.0 111.0 L 1102.0 153.0 z" fill="rgb(255,217,194)" stroke="black"/>
  <text fill="rgb(9,33,173)" font-size="25" x="1140.0" y="99.0">top_back</text>
  <path d="M 1288.0 153.0 L 1414.0 153.0 L 1414.0 108.0 Q 1391.2 98.39999999999999 1402.0 60.0 L 1372.0 60.0 L 1351.0 90.0 L 1330.0 60.0 L 1300.0 60.0 Q 1310.8 98.39999999999999 1288.0 108.0 L 1288.0 153.0 z" fill="rgb(255,217,194)" stroke="black"/>
  <text fill="rgb(9,33,173)" font-size="25" x="1326.0" y="97.66666666666667">top_front</text>
</svg>
