<?xml version="1.0" encoding="utf-8" ?>
<svg xmlns="http://www.w3.org/2000/svg" xmlns:ev="http://www.w3.org/2001/xml-events" xmlns:xlink="http://www.w3.org/1999/xlink" baseProfile="full" height="300.0px" version="1.1" width="1156.0px">
  <defs/>
  <path d="M 60 195 L 96 195 Q 134.4 108.30000000000001 84 78 L 60 60 L 60 195 z" fill="rgb(255,217,194)" stroke="black"/>
  <text fill="rgb(9,33,173)" font-size="25" x="50.0" y="135.0">rbsleeve</text>
  <path d="M 190.0 195.0 L 214.0 177.0 Q 264.4 146.70000000000002 226.0 60.0 L 190.0 60.0 L 190.0 195.0 z" fill="rgb(255,217,194)" stroke="black"/>
  <text fill="rgb(9,33,173)" font-size="25" x="180.0" y="126.0">rfsleeve</text>
  <path d="M 320.0 240.0 L 548.0 240.0 L 500.0 174.0 Q 451.7 143.4 491.0 60.0 L 458.0 60.0 Q 434.0 215.38206184533323 410.0 60.0 L 377.0 60.0 Q 416.3 143.4 368.0 174.0 L 320.0 240.0 z" fill="rgb(255,217,194)" stroke="black"/>
  <text fill="rgb(9,33,173)" font-size="25" x="409.0" y="136.5">back</text>
  <path d="M 608.0 240.0 L 836.0 240.0 L 788.0 174.0 Q 739.6999999999999 143.4 779.0 60.0 L 746.0 60.0 L 722.0 147.0 L 698.0 60.0 L 665.0 60.0 Q 704.3000000000001 143.4 656.0 174.0 L 608.0 240.0 z" fill="rgb(255,217,194)" stroke="black"/>
  <text fill="rgb(9,33,173)" font-size="25" x="697.0" y="138.0">front</text>
  <path d="M 896.0 195.0 L 920.0 177.0 Q 970.4 146.70000000000002 932.0 60.0 L 896.0 60.0 L 896.0 195.0 z" fill="rgb(255,217,194)" stroke="black"/>
  <text fill="rgb(9,33,173)" font-size="25" x="886.0" y="126.0">lbsleeve</text>
  <path d="M 1026.0 195.0 L 1062.0 195.0 Q 1100.3999999999999 108.30000000000001 1050.0 78.0 L 1026.0 60.0 L 1026.0 195.0 z" fill="rgb(255,217,194)" stroke="black"/>
  <text fill="rgb(9,33,173)" font-size="25" x="1016.0" y="135.0">lfsleeve</text>
</svg>
