<?xml version="1.0" encoding="utf-8" ?>
<svg xmlns="http://www.w3.org/2000/svg" xmlns:ev="http://www.w3.org/2001/xml-events" xmlns:xlink="http://www.w3.org/1999/xlink" baseProfile="full" height="519px" version="1.1" width="900.0px">
  <defs/>
  <path d="M 60 459 L 216 459 L 216 87 L 198 60 L 162 60 Q 175.2 102.6 150 114 L 60 459 z" fill="rgb(255,217,194)" stroke="black"/>
  <text fill="rgb(9,33,173)" font-size="25" x="142.0" y="209.5">front_right</text>
  <path d="M 312.0 459.0 L 624.0 459.0 L 534.0 117.0 Q 507.59999999999997 104.7 522.0 60.0 L 486.0 60.0 Q 468.0 96.1885938081887 450.0 60.0 L 414.0 60.0 Q 428.40000000000003 104.7 402.0 117.0 L 312.0 459.0 z" fill="rgb(255,217,194)" stroke="black"/>
  <text fill="rgb(9,33,173)" font-size="25" x="443.0" y="177.0">back</text>
  <path d="M 684.0 459.0 L 840.0 459.0 L 750.0 114.0 Q 724.8 102.6 738.0 60.0 L 702.0 60.0 L 684.0 87.0 L 684.0 459.0 z" fill="rgb(255,217,194)" stroke="black"/>
  <text fill="rgb(9,33,173)" font-size="25" x="708.0" y="209.5">front_left</text>
</svg>
