<?xml version="1.0" encoding="utf-8" ?>
<svg xmlns="http://www.w3.org/2000/svg" xmlns:ev="http://www.w3.org/2001/xml-events" xmlns:xlink="http://www.w3.org/1999/xlink" baseProfile="full" height="297.0px" version="1.1" width="1588.0px">
  <defs/>
  <path d="M 60 207 L 78 207 Q 87.6 170.7 66 162 L 60 60 L 60 207 z" fill="rgb(255,217,194)" stroke="black"/>
  <text fill="rgb(9,33,173)" font-size="25" x="41.0" y="162.0">rbsleeve</text>
  <path d="M 181.0 207.0 L 187.0 105.0 Q 208.6 96.3 199.0 60.0 L 181.0 60.0 L 181.0 207.0 z" fill="rgb(255,217,194)" stroke="black"/>
  <text fill="rgb(9,33,173)" font-size="25" x="162.0" y="111.0">rfsleeve</text>
  <path d="M 302.0 237.0 L 383.0 237.0 Q 407.15000000000003 87.45000000000002 401.0 60.0 L 332.0 60.0 Q 346.7 141.75 302.0 153.0 Q 310.4 157.2 302.0 237.0 z" fill="rgb(255,217,194)" stroke="black"/>
  <text fill="rgb(9,33,173)" font-size="25" x="319.0" y="152.4">Rback</text>
  <path d="M 479.0 237.0 L 560.0 237.0 Q 551.6 157.2 560.0 153.0 Q 519.95 140.25 530.0 60.0 L 461.0 60.0 Q 454.84999999999997 87.45 479.0 237.0 z" fill="rgb(255,217,194)" stroke="black"/>
  <text fill="rgb(9,33,173)" font-size="25" x="493.0" y="152.4">Rfront</text>
  <path d="M 620.0 168.0 L 692.0 168.0 L 764.0 168.0 L 764.0 108.0 Q 741.1999999999999 98.39999999999999 752.0 60.0 L 722.0 60.0 Q 692.0 75.01060127039172 662.0 60.0 L 632.0 60.0 Q 642.8000000000001 98.39999999999999 620.0 108.0 L 620.0 168.0 z" fill="rgb(255,217,194)" stroke="black"/>
  <text fill="rgb(9,33,173)" font-size="25" x="667.0" y="109.66666666666667">up_back</text>
  <path d="M 824.0 165.0 L 896.0 165.0 L 968.0 165.0 L 968.0 108.0 Q 945.1999999999999 98.39999999999999 956.0 60.0 L 926.0 60.0 L 896.0 81.0 L 866.0 60.0 L 836.0 60.0 Q 846.8000000000001 98.39999999999999 824.0 108.0 L 824.0 165.0 z" fill="rgb(255,217,194)" stroke="black"/>
  <text fill="rgb(9,33,173)" font-size="25" x="871.0" y="106.2">up_front</text>
  <path d="M 1046.0 237.0 L 1127.0 237.0 Q 1118.6 157.2 1127.0 153.0 Q 1082.3 141.75 1097.0 60.0 L 1028.0 60.0 Q 1021.85 87.45 1046.0 237.0 z" fill="rgb(255,217,194)" stroke="black"/>
  <text fill="rgb(9,33,173)" font-size="25" x="1060.0" y="152.4">Lback</text>
  <path d="M 1187.0 237.0 L 1268.0 237.0 Q 1292.1499999999999 87.45000000000002 1286.0 60.0 L 1217.0 60.0 Q 1227.05 140.25 1187.0 153.0 Q 1195.4 157.2 1187.0 237.0 z" fill="rgb(255,217,194)" stroke="black"/>
  <text fill="rgb(9,33,173)" font-size="25" x="1204.0" y="152.4">Lfront</text>
  <path d="M 1346.0 207.0 L 1352.0 105.0 Q 1373.6 96.3 1364.0 60.0 L 1346.0 60.0 L 1346.0 207.0 z" fill="rgb(255,217,194)" stroke="black"/>
  <text fill="rgb(9,33,173)" font-size="25" x="1327.0" y="111.0">lbsleeve</text>
  <path d="M 1467.0 207.0 L 1485.0 207.0 Q 1494.6 170.7 1473.0 162.0 L 1467.0 60.0 L 1467.0 207.0 z" fill="rgb(255,217,194)" stroke="black"/>
  <text fill="rgb(9,33,173)" font-size="25" x="1448.0" y="162.0">lfsleeve</text>
</svg>
