<?xml version="1.0" encoding="utf-8" ?>
<svg xmlns="http://www.w3.org/2000/svg" xmlns:ev="http://www.w3.org/2001/xml-events" xmlns:xlink="http://www.w3.org/1999/xlink" baseProfile="full" height="246px" version="1.1" width="1332.0px">
  <defs/>
  <path d="M 60 186 L 252 186 L 252 99 L 207 60 L 177 60 Q 198.9 122.69999999999999 162 141 L 60 186 z" fill="rgb(255,217,194)" stroke="black"/>
  <text fill="rgb(9,33,173)" font-size="25" x="160.0" y="125.0">front_right</text>
  <path d="M 342.0 183.0 L 357.0 183.0 Q 432.6 194.7 423.0 90.0 L 378.0 99.0 L 330.0 60.0 L 342.0 183.0 z" fill="rgb(255,217,194)" stroke="black"/>
  <text fill="rgb(9,33,173)" font-size="25" x="341.0" y="126.0">Rhood</text>
  <path d="M 483.0 186.0 L 867.0 186.0 L 765.0 141.0 Q 728.1 122.7 750.0 60.0 L 720.0 60.0 L 675.0 69.0 L 630.0 60.0 L 600.0 60.0 Q 621.9 122.69999999999999 585.0 141.0 L 483.0 186.0 z" fill="rgb(255,217,194)" stroke="black"/>
  <text fill="rgb(9,33,173)" font-size="25" x="650.0" y="110.0">back</text>
  <path d="M 927.0 183.0 L 975.0 144.0 L 1020.0 153.0 Q 1029.6 48.300000000000004 954.0 60.0 L 939.0 60.0 L 927.0 183.0 z" fill="rgb(255,217,194)" stroke="black"/>
  <text fill="rgb(9,33,173)" font-size="25" x="938.0" y="123.0">Lhood</text>
  <path d="M 1080.0 186.0 L 1272.0 186.0 L 1170.0 141.0 Q 1133.1 122.7 1155.0 60.0 L 1125.0 60.0 L 1080.0 99.0 L 1080.0 186.0 z" fill="rgb(255,217,194)" stroke="black"/>
  <text fill="rgb(9,33,173)" font-size="25" x="1122.0" y="125.0">front_left</text>
</svg>
