<?xml version="1.0" encoding="utf-8" ?>
<svg xmlns="http://www.w3.org/2000/svg" xmlns:ev="http://www.w3.org/2001/xml-events" xmlns:xlink="http://www.w3.org/1999/xlink" baseProfile="full" height="348px" version="1.1" width="1386px">
  <defs/>
  <path d="M 60 225 L 183 225 Q 215.1 154.20000000000002 174 129 L 60 60 L 60 225 z" fill="rgb(255,217,194)" stroke="black"/>
  <text fill="rgb(9,33,173)" font-size="25" x="94.25" y="162.75">rbsleeve</text>
  <path d="M 243 225 L 357 156 Q 398.1 130.8 366 60 L 243 60 L 243 225 z" fill="rgb(255,217,194)" stroke="black"/>
  <text fill="rgb(9,33,173)" font-size="25" x="277.25" y="128.25">rfsleeve</text>
  <path d="M 438 288 L 528 288 L 540 156 Q 498.9 130.8 531 60 L 507 60 L 483 69 L 459 60 L 435 60 Q 467.1 130.79999999999998 426 156 L 438 288 z" fill="rgb(255,217,194)" stroke="black"/>
  <text fill="rgb(9,33,173)" font-size="25" x="458.0" y="136.0">back</text>
  <path d="M 612 288 L 702 288 L 714 156 Q 672.9 130.8 705 60 L 681 60 L 657 60 L 633 60 L 609 60 Q 641.1 130.79999999999998 600 156 L 612 288 z" fill="rgb(255,217,194)" stroke="black"/>
  <text fill="rgb(9,33,173)" font-size="25" x="632.0" y="135.0">front</text>
  <path d="M 774 177 L 792 174 Q 873.9 166.8 837 60 L 810 69 L 783 60 L 774 177 z" fill="rgb(255,217,194)" stroke="black"/>
  <text fill="rgb(9,33,173)" font-size="25" x="774.2" y="111.0">Rhood</text>
  <path d="M 906 177 L 933 168 L 960 177 Q 996.9 70.2 915 63 L 897 60 L 906 177 z" fill="rgb(255,217,194)" stroke="black"/>
  <text fill="rgb(9,33,173)" font-size="25" x="897.2" y="132.0">Lhood</text>
  <path d="M 1020 225 L 1134 156 Q 1175.1000000000001 130.8 1143 60 L 1020 60 L 1020 225 z" fill="rgb(255,217,194)" stroke="black"/>
  <text fill="rgb(9,33,173)" font-size="25" x="1054.25" y="128.25">lbsleeve</text>
  <path d="M 1203 225 L 1326 225 Q 1358.1000000000001 154.20000000000002 1317 129 L 1203 60 L 1203 225 z" fill="rgb(255,217,194)" stroke="black"/>
  <text fill="rgb(9,33,173)" font-size="25" x="1237.25" y="162.75">lfsleeve</text>
</svg>
