<?xml version="1.0" encoding="utf-8" ?>
<svg xmlns="http://www.w3.org/2000/svg" xmlns:ev="http://www.w3.org/2001/xml-events" xmlns:xlink="http://www.w3.org/1999/xlink" baseProfile="full" height="399px" version="1.1" width="1140px">
  <defs/>
  <path d="M 60 339 L 135 339 Q 171.89999999999998 103.19999999999999 162 60 L 90 60 Q 104.7 141.75 60 153 Q 78.6 162.3 60 339 z" fill="rgb(255,217,194)" stroke="black"/>
  <text fill="rgb(9,33,173)" font-size="25" x="76.4" y="193.2">Rback</text>
  <path d="M 249 339 L 324 339 Q 305.4 162.3 324 153 Q 283.95 140.25 294 60 L 222 60 Q 212.10000000000002 103.19999999999999 249 339 z" fill="rgb(255,217,194)" stroke="black"/>
  <text fill="rgb(9,33,173)" font-size="25" x="257.6" y="193.2">Rfront</text>
  <path d="M 390 168 L 462 168 L 534 168 L 540 120 Q 512.4 106.8 528 60 L 489 60 Q 462.0 99.65737742819182 435 60 L 396 60 Q 411.6 106.8 384 120 L 390 168 z" fill="rgb(255,217,194)" stroke="black"/>
  <text fill="rgb(9,33,173)" font-size="25" x="437.0" y="112.33333333333333">up_back</text>
  <path d="M 606 165 L 678 165 L 750 165 L 756 120 Q 728.4 106.8 744 60 L 705 60 L 678 93 L 651 60 L 612 60 Q 627.6 106.8 600 120 L 606 165 z" fill="rgb(255,217,194)" stroke="black"/>
  <text fill="rgb(9,33,173)" font-size="25" x="653.0" y="109.8">up_front</text>
  <path d="M 843 339 L 918 339 Q 899.4 162.3 918 153 Q 873.3 141.75 888 60 L 816 60 Q 806.0999999999999 103.19999999999999 843 339 z" fill="rgb(255,217,194)" stroke="black"/>
  <text fill="rgb(9,33,173)" font-size="25" x="851.6" y="193.2">Lback</text>
  <path d="M 978 339 L 1053 339 Q 1089.9 103.19999999999999 1080 60 L 1008 60 Q 1018.05 140.25 978 153 Q 996.6 162.3 978 339 z" fill="rgb(255,217,194)" stroke="black"/>
  <text fill="rgb(9,33,173)" font-size="25" x="994.4" y="193.2">Lfront</text>
</svg>
