<?xml version="1.0" encoding="utf-8" ?>
<svg xmlns="http://www.w3.org/2000/svg" xmlns:ev="http://www.w3.org/2001/xml-events" xmlns:xlink="http://www.w3.org/1999/xlink" baseProfile="full" height="399px" version="1.1" width="1152px">
  <defs/>
  <path d="M 60 339 L 162 339 Q 178.5 102.0 165 60 L 90 60 Q 104.7 141.75 60 153 Q 78.6 162.3 60 339 z" fill="rgb(255,217,194)" stroke="black"/>
  <text fill="rgb(9,33,173)" font-size="25" x="82.4" y="193.2">Rback</text>
  <path d="M 228 339 L 330 339 Q 311.4 162.3 330 153 Q 289.95 140.25 300 60 L 225 60 Q 211.5 102.0 228 339 z" fill="rgb(255,217,194)" stroke="black"/>
  <text fill="rgb(9,33,173)" font-size="25" x="257.6" y="193.2">Rfront</text>
  <path d="M 390 168 L 468 168 L 546 168 L 534 129 Q 502.79999999999995 113.1 522 60 L 489 60 Q 468.0 63.58226743860903 447 60 L 414 60 Q 433.20000000000005 113.1 402 129 L 390 168 z" fill="rgb(255,217,194)" stroke="black"/>
  <text fill="rgb(9,33,173)" font-size="25" x="443.0" y="114.33333333333333">up_back</text>
  <path d="M 606 165 L 684 165 L 762 165 L 750 129 Q 718.8 113.1 738 60 L 705 60 L 684 93 L 663 60 L 630 60 Q 649.2 113.1 618 129 L 606 165 z" fill="rgb(255,217,194)" stroke="black"/>
  <text fill="rgb(9,33,173)" font-size="25" x="659.0" y="111.6">up_front</text>
  <path d="M 825 339 L 927 339 Q 908.4 162.3 927 153 Q 882.3 141.75 897 60 L 822 60 Q 808.5 102.0 825 339 z" fill="rgb(255,217,194)" stroke="black"/>
  <text fill="rgb(9,33,173)" font-size="25" x="854.6" y="193.2">Lback</text>
  <path d="M 987 339 L 1089 339 Q 1105.5 102.0 1092 60 L 1017 60 Q 1027.05 140.25 987 153 Q 1005.6 162.3 987 339 z" fill="rgb(255,217,194)" stroke="black"/>
  <text fill="rgb(9,33,173)" font-size="25" x="1009.4000000000001" y="193.2">Lfront</text>
</svg>
