<?xml version="1.0" encoding="utf-8" ?>
<svg xmlns="http://www.w3.org/2000/svg" xmlns:ev="http://www.w3.org/2001/xml-events" xmlns:xlink="http://www.w3.org/1999/xlink" baseProfile="full" height="384.0px" version="1.1" width="1604.0px">
  <defs/>
  <path d="M 60 213 L 150 213 Q 162.89999999999998 175.8 141 165 L 60 60 L 60 213 z" fill="rgb(255,217,194)" stroke="black"/>
  <text fill="rgb(9,33,173)" font-size="25" x="77.75" y="165.75">rbsleeve</text>
  <path d="M 217.75 213.0 L 298.75 108.0 Q 320.65 97.19999999999999 307.75 60.0 L 217.75 60.0 L 217.75 213.0 z" fill="rgb(255,217,194)" stroke="black"/>
  <text fill="rgb(9,33,173)" font-size="25" x="235.5" y="113.25">rfsleeve</text>
  <path d="M 375.5 324.0 L 480.5 324.0 L 480.5 114.0 L 447.5 60.0 L 432.5 60.0 Q 446.59999999999997 99.29999999999998 423.5 111.0 L 375.5 324.0 z" fill="rgb(255,217,194)" stroke="black"/>
  <text fill="rgb(9,33,173)" font-size="25" x="415.0" y="168.5">front_right</text>
  <path d="M 585.0 195.0 L 612.0 195.0 Q 676.8000000000001 194.1 654.0 108.0 L 621.0 117.0 L 588.0 60.0 L 585.0 195.0 z" fill="rgb(255,217,194)" stroke="black"/>
  <text fill="rgb(9,33,173)" font-size="25" x="587.0" y="138.0">Rhood</text>
  <path d="M 714.0 324.0 L 924.0 324.0 L 876.0 111.0 Q 852.9 99.3 867.0 60.0 L 852.0 60.0 L 819.0 69.0 L 786.0 60.0 L 771.0 60.0 Q 785.1 99.29999999999998 762.0 111.0 L 714.0 324.0 z" fill="rgb(255,217,194)" stroke="black"/>
  <text fill="rgb(9,33,173)" font-size="25" x="794.0" y="134.0">back</text>
  <path d="M 987.0 195.0 L 1020.0 138.0 L 1053.0 147.0 Q 1075.8 60.89999999999999 1011.0 60.0 L 984.0 60.0 L 987.0 195.0 z" fill="rgb(255,217,194)" stroke="black"/>
  <text fill="rgb(9,33,173)" font-size="25" x="986.0" y="123.0">Lhood</text>
  <path d="M 1113.0 324.0 L 1218.0 324.0 L 1170.0 111.0 Q 1146.8999999999999 99.3 1161.0 60.0 L 1146.0 60.0 L 1113.0 114.0 L 1113.0 324.0 z" fill="rgb(255,217,194)" stroke="black"/>
  <text fill="rgb(9,33,173)" font-size="25" x="1128.5" y="168.5">front_left</text>
  <path d="M 1288.5 213.0 L 1369.5 108.0 Q 1391.4 97.19999999999999 1378.5 60.0 L 1288.5 60.0 L 1288.5 213.0 z" fill="rgb(255,217,194)" stroke="black"/>
  <text fill="rgb(9,33,173)" font-size="25" x="1306.25" y="113.25">lbsleeve</text>
  <path d="M 1446.25 213.0 L 1536.25 213.0 Q 1549.15 175.8 1527.25 165.0 L 1446.25 60.0 L 1446.25 213.0 z" fill="rgb(255,217,194)" stroke="black"/>
  <text fill="rgb(9,33,173)" font-size="25" x="1464.0" y="165.75">lfsleeve</text>
</svg>
