<?xml version="1.0" encoding="utf-8" ?>
<svg xmlns="http://www.w3.org/2000/svg" xmlns:ev="http://www.w3.org/2001/xml-events" xmlns:xlink="http://www.w3.org/1999/xlink" baseProfile="full" height="327px" version="1.1" width="1144.0px">
  <defs/>
  <path d="M 60 267 L 216 267 L 216 93 L 189 60 L 159 60 Q 186.29999999999998 122.39999999999999 150 144 L 60 267 z" fill="rgb(255,217,194)" stroke="black"/>
  <text fill="rgb(9,33,173)" font-size="25" x="140.0" y="151.5">front_right</text>
  <path d="M 310.0 162.0 L 346.0 168.0 Q 404.5 159.0 373.0 84.0 L 346.0 93.0 L 316.0 60.0 L 310.0 162.0 z" fill="rgb(255,217,194)" stroke="black"/>
  <text fill="rgb(9,33,173)" font-size="25" x="313.2" y="116.4">Rhood</text>
  <path d="M 433.0 267.0 L 745.0 267.0 L 655.0 147.0 Q 617.5 124.5 646.0 60.0 L 616.0 60.0 L 589.0 69.0 L 562.0 60.0 L 532.0 60.0 Q 560.5 124.5 523.0 147.0 L 433.0 267.0 z" fill="rgb(255,217,194)" stroke="black"/>
  <text fill="rgb(9,33,173)" font-size="25" x="564.0" y="129.33333333333331">back</text>
  <path d="M 811.0 168.0 L 841.0 135.0 L 868.0 144.0 Q 899.5 69.0 841.0 60.0 L 805.0 66.0 L 811.0 168.0 z" fill="rgb(255,217,194)" stroke="black"/>
  <text fill="rgb(9,33,173)" font-size="25" x="808.2" y="117.6">Lhood</text>
  <path d="M 928.0 267.0 L 1084.0 267.0 L 994.0 144.0 Q 957.6999999999999 122.39999999999999 985.0 60.0 L 955.0 60.0 L 928.0 93.0 L 928.0 267.0 z" fill="rgb(255,217,194)" stroke="black"/>
  <text fill="rgb(9,33,173)" font-size="25" x="954.0" y="151.5">front_left</text>
</svg>
