<?xml version="1.0" encoding="utf-8" ?>
<svg xmlns="http://www.w3.org/2000/svg" xmlns:ev="http://www.w3.org/2001/xml-events" xmlns:xlink="http://www.w3.org/1999/xlink" baseProfile="full" height="276px" version="1.1" width="936.5px">
  <defs/>
  <path d="M 60 216 L 228 216 L 228 114 L 183 60 L 159 60 Q 198.6 148.8 147 180 L 60 216 z" fill="rgb(255,217,194)" stroke="black"/>
  <text fill="rgb(9,33,173)" font-size="25" x="142.5" y="144.0">front_right</text>
  <path d="M 312.5 216.0 L 648.5 216.0 L 561.5 180.0 Q 509.9 148.8 549.5 60.0 L 525.5 60.0 Q 480.5 172.67541579521037 435.5 60.0 L 411.5 60.0 Q 451.1 148.8 399.5 180.0 L 312.5 216.0 z" fill="rgb(255,217,194)" stroke="black"/>
  <text fill="rgb(9,33,173)" font-size="25" x="455.5" y="132.0">back</text>
  <path d="M 708.5 216.0 L 876.5 216.0 L 789.5 180.0 Q 737.9 148.8 777.5 60.0 L 753.5 60.0 L 708.5 114.0 L 708.5 216.0 z" fill="rgb(255,217,194)" stroke="black"/>
  <text fill="rgb(9,33,173)" font-size="25" x="744.0" y="144.0">front_left</text>
</svg>
