<?xml version="1.0" encoding="utf-8" ?>
<svg xmlns="http://www.w3.org/2000/svg" xmlns:ev="http://www.w3.org/2001/xml-events" xmlns:xlink="http://www.w3.org/1999/xlink" baseProfile="full" height="315px" version="1.1" width="979.0px">
  <defs/>
  <path d="M 60 255 Q 138.0 260.06215382578205 216 255 L 210 102 L 192 60 L 84 60 L 66 102 L 60 255 z" fill="rgb(255,217,194)" stroke="black"/>
  <text fill="rgb(9,33,173)" font-size="25" x="113.0" y="142.0">skirt_back</text>
  <path d="M 276 255 Q 354.0 322.3093891535631 432 255 L 426 102 L 408 60 L 300 60 L 282 102 L 276 255 z" fill="rgb(255,217,194)" stroke="black"/>
  <text fill="rgb(9,33,173)" font-size="25" x="329.0" y="142.0">skirt_front</text>
  <path d="M 535.0 168.0 L 643.0 168.0 L 679.0 120.0 Q 651.4 106.8 667.0 60.0 L 607.0 60.0 Q 589.0 122.01818728464087 571.0 60.0 L 511.0 60.0 Q 526.6 106.8 499.0 120.0 L 535.0 168.0 z" fill="rgb(255,217,194)" stroke="black"/>
  <text fill="rgb(9,33,173)" font-size="25" x="564.0" y="105.0">top_back</text>
  <path d="M 775.0 165.0 L 883.0 165.0 L 919.0 120.0 Q 891.4 106.8 907.0 60.0 L 847.0 60.0 L 829.0 120.0 L 811.0 60.0 L 751.0 60.0 Q 766.6 106.8 739.0 120.0 L 775.0 165.0 z" fill="rgb(255,217,194)" stroke="black"/>
  <text fill="rgb(9,33,173)" font-size="25" x="804.0" y="106.33333333333333">top_front</text>
</svg>
