<?xml version="1.0" encoding="utf-8" ?>
<svg xmlns="http://www.w3.org/2000/svg" xmlns:ev="http://www.w3.org/2001/xml-events" xmlns:xlink="http://www.w3.org/1999/xlink" baseProfile="full" height="234.0px" version="1.1" width="833.5px">
  <defs/>
  <path d="M 60 171 L 198 171 L 198 141 L 186 60 L 147 60 Q 179.1 130.79999999999998 138 156 L 60 171 z" fill="rgb(255,217,194)" stroke="black"/>
  <text fill="rgb(9,33,173)" font-size="25" x="129.5" y="129.5">front_right</text>
  <path d="M 299.5 174.0 L 575.5 174.0 L 497.5 156.0 Q 456.4 130.8 488.5 60.0 L 449.5 60.0 Q 437.5 145.00661100375152 425.5 60.0 L 386.5 60.0 Q 418.6 130.79999999999998 377.5 156.0 L 299.5 174.0 z" fill="rgb(255,217,194)" stroke="black"/>
  <text fill="rgb(9,33,173)" font-size="25" x="412.5" y="115.5">back</text>
  <path d="M 635.5 171.0 L 773.5 171.0 L 695.5 156.0 Q 654.4 130.8 686.5 60.0 L 647.5 60.0 L 635.5 141.0 L 635.5 171.0 z" fill="rgb(255,217,194)" stroke="black"/>
  <text fill="rgb(9,33,173)" font-size="25" x="654.0" y="129.5">front_left</text>
</svg>
