<?xml version="1.0" encoding="utf-8" ?>
<svg xmlns="http://www.w3.org/2000/svg" xmlns:ev="http://www.w3.org/2001/xml-events" xmlns:xlink="http://www.w3.org/1999/xlink" baseProfile="full" height="381px" version="1.1" width="941.0px">
  <defs/>
  <path d="M 60 321 L 228 321 L 228 144 L 192 60 L 168 60 Q 200.4 136.2 156 162 L 60 321 z" fill="rgb(255,217,194)" stroke="black"/>
  <text fill="rgb(9,33,173)" font-size="25" x="147.0" y="181.0">front_right</text>
  <path d="M 317.0 321.0 L 653.0 321.0 L 557.0 162.0 Q 512.6 136.20000000000002 545.0 60.0 L 521.0 60.0 Q 485.0 171.54245888461412 449.0 60.0 L 425.0 60.0 Q 457.40000000000003 136.2 413.0 162.0 L 317.0 321.0 z" fill="rgb(255,217,194)" stroke="black"/>
  <text fill="rgb(9,33,173)" font-size="25" x="460.0" y="153.75">back</text>
  <path d="M 713.0 321.0 L 881.0 321.0 L 785.0 162.0 Q 740.6 136.20000000000002 773.0 60.0 L 749.0 60.0 L 713.0 144.0 L 713.0 321.0 z" fill="rgb(255,217,194)" stroke="black"/>
  <text fill="rgb(9,33,173)" font-size="25" x="744.0" y="181.0">front_left</text>
</svg>
