<?xml version="1.0" encoding="utf-8" ?>
<svg xmlns="http://www.w3.org/2000/svg" xmlns:ev="http://www.w3.org/2001/xml-events" xmlns:xlink="http://www.w3.org/1999/xlink" baseProfile="full" height="279.0px" version="1.1" width="1295.0px">
  <defs/>
  <path d="M 60 162 L 135 162 Q 159.0 100.50000000000001 123 81 L 60 60 L 60 162 z" fill="rgb(255,217,194)" stroke="black"/>
  <text fill="rgb(9,33,173)" font-size="25" x="69.5" y="119.25">rbsleeve</text>
  <path d="M 209.5 162.0 L 272.5 141.0 Q 308.5 121.5 284.5 60.0 L 209.5 60.0 L 209.5 162.0 z" fill="rgb(255,217,194)" stroke="black"/>
  <text fill="rgb(9,33,173)" font-size="25" x="219.0" y="108.75">rfsleeve</text>
  <path d="M 359.0 219.0 L 458.0 219.0 L 458.0 75.0 L 431.0 60.0 L 395.0 60.0 Q 417.8 119.39999999999999 383.0 138.0 L 359.0 219.0 z" fill="rgb(255,217,194)" stroke="black"/>
  <text fill="rgb(9,33,173)" font-size="25" x="389.0" y="131.5">front_right</text>
  <path d="M 559.0 219.0 L 757.0 219.0 L 733.0 138.0 Q 698.1999999999999 119.39999999999999 721.0 60.0 L 685.0 60.0 Q 658.0 198.72132631211355 631.0 60.0 L 595.0 60.0 Q 617.8000000000001 119.39999999999999 583.0 138.0 L 559.0 219.0 z" fill="rgb(255,217,194)" stroke="black"/>
  <text fill="rgb(9,33,173)" font-size="25" x="633.0" y="122.25">back</text>
  <path d="M 817.0 219.0 L 916.0 219.0 L 892.0 138.0 Q 857.1999999999999 119.39999999999999 880.0 60.0 L 844.0 60.0 L 817.0 75.0 L 817.0 219.0 z" fill="rgb(255,217,194)" stroke="black"/>
  <text fill="rgb(9,33,173)" font-size="25" x="836.0" y="131.5">front_left</text>
  <path d="M 996.0 162.0 L 1059.0 141.0 Q 1095.0 121.5 1071.0 60.0 L 996.0 60.0 L 996.0 162.0 z" fill="rgb(255,217,194)" stroke="black"/>
  <text fill="rgb(9,33,173)" font-size="25" x="1005.5" y="108.75">lbsleeve</text>
  <path d="M 1145.5 162.0 L 1220.5 162.0 Q 1244.5 100.50000000000001 1208.5 81.0 L 1145.5 60.0 L 1145.5 162.0 z" fill="rgb(255,217,194)" stroke="black"/>
  <text fill="rgb(9,33,173)" font-size="25" x="1155.0" y="119.25">lfsleeve</text>
</svg>
