<?xml version="1.0" encoding="utf-8" ?>
<svg xmlns="http://www.w3.org/2000/svg" xmlns:ev="http://www.w3.org/2001/xml-events" xmlns:xlink="http://www.w3.org/1999/xlink" baseProfile="full" height="336.0px" version="1.1" width="1702.0px">
  <defs/>
  <path d="M 60 135 L 132 135 Q 149.4 75.3 114 60 L 60 72 L 60 135 z" fill="rgb(255,217,194)" stroke="black"/>
  <text fill="rgb(9,33,173)" font-size="25" x="66.5" y="103.5">rbsleeve</text>
  <path d="M 206.5 123.0 L 260.5 135.0 Q 295.9 119.7 278.5 60.0 L 206.5 60.0 L 206.5 123.0 z" fill="rgb(255,217,194)" stroke="black"/>
  <text fill="rgb(9,33,173)" font-size="25" x="213.0" y="97.5">rfsleeve</text>
  <path d="M 353.0 276.0 Q 455.0 253.7272862122502 557.0 276.0 L 539.0 102.0 L 530.0 60.0 L 380.0 60.0 L 371.0 102.0 L 353.0 276.0 z" fill="rgb(255,217,194)" stroke="black"/>
  <text fill="rgb(9,33,173)" font-size="25" x="430.0" y="149.0">skirt_back</text>
  <path d="M 617.0 276.0 Q 719.0 200.78139693716355 821.0 276.0 L 803.0 102.0 L 794.0 60.0 L 644.0 60.0 L 635.0 102.0 L 617.0 276.0 z" fill="rgb(255,217,194)" stroke="black"/>
  <text fill="rgb(9,33,173)" font-size="25" x="694.0" y="149.0">skirt_front</text>
  <path d="M 908.0 168.0 L 1058.0 168.0 L 1085.0 132.0 Q 1051.7 116.4 1070.0 60.0 L 1004.0 60.0 Q 983.0 147.78810787688593 962.0 60.0 L 896.0 60.0 Q 914.3 116.4 881.0 132.0 L 908.0 168.0 z" fill="rgb(255,217,194)" stroke="black"/>
  <text fill="rgb(9,33,173)" font-size="25" x="958.0" y="108.0">top_back</text>
  <path d="M 1172.0 165.0 L 1322.0 165.0 L 1349.0 132.0 Q 1315.7 116.4 1334.0 60.0 L 1268.0 60.0 L 1247.0 96.0 L 1226.0 60.0 L 1160.0 60.0 Q 1178.3 116.4 1145.0 132.0 L 1172.0 165.0 z" fill="rgb(255,217,194)" stroke="black"/>
  <text fill="rgb(9,33,173)" font-size="25" x="1222.0" y="106.33333333333333">top_front</text>
  <path d="M 1409.0 123.0 L 1463.0 135.0 Q 1498.4 119.7 1481.0 60.0 L 1409.0 60.0 L 1409.0 123.0 z" fill="rgb(255,217,194)" stroke="black"/>
  <text fill="rgb(9,33,173)" font-size="25" x="1415.5" y="97.5">lbsleeve</text>
  <path d="M 1555.5 135.0 L 1627.5 135.0 Q 1644.9 75.3 1609.5 60.0 L 1555.5 72.0 L 1555.5 135.0 z" fill="rgb(255,217,194)" stroke="black"/>
  <text fill="rgb(9,33,173)" font-size="25" x="1562.0" y="103.5">lfsleeve</text>
</svg>
