<?xml version="1.0" encoding="utf-8" ?>
<svg xmlns="http://www.w3.org/2000/svg" xmlns:ev="http://www.w3.org/2001/xml-events" xmlns:xlink="http://www.w3.org/1999/xlink" baseProfile="full" height="306px" version="1.1" width="1498.0px">
  <defs/>
  <path d="M 60 246 L 354 246 L 354 60 L 60 60 L 60 246 z" fill="rgb(255,217,194)" stroke="black"/>
  <text fill="rgb(9,33,173)" font-size="25" x="182.0" y="156.0">skirt_back</text>
  <path d="M 414 75 L 504 75 L 504 60 L 414 60 L 414 75 z" fill="rgb(255,217,194)" stroke="black"/>
  <text fill="rgb(9,33,173)" font-size="25" x="434.0" y="70.5">wb_back</text>
  <path d="M 564 75 L 654 75 L 654 60 L 564 60 L 564 75 z" fill="rgb(255,217,194)" stroke="black"/>
  <text fill="rgb(9,33,173)" font-size="25" x="584.0" y="70.5">wb_front</text>
  <path d="M 724.0 246.0 L 1018.0 246.0 L 1018.0 60.0 L 724.0 60.0 L 724.0 246.0 z" fill="rgb(255,217,194)" stroke="black"/>
  <text fill="rgb(9,33,173)" font-size="25" x="846.0" y="156.0">skirt_front</text>
  <path d="M 1078.0 171.0 L 1228.0 171.0 L 1228.0 114.0 Q 1202.8000000000002 102.6 1216.0 60.0 L 1195.0 60.0 Q 1153.0 103.76133019257063 1111.0 60.0 L 1090.0 60.0 Q 1103.1999999999998 102.6 1078.0 114.0 L 1078.0 171.0 z" fill="rgb(255,217,194)" stroke="black"/>
  <text fill="rgb(9,33,173)" font-size="25" x="1128.0" y="104.25">top_back</text>
  <path d="M 1288.0 171.0 L 1438.0 171.0 L 1438.0 114.0 Q 1412.8000000000002 102.6 1426.0 60.0 L 1405.0 60.0 L 1363.0 129.0 L 1321.0 60.0 L 1300.0 60.0 Q 1313.1999999999998 102.6 1288.0 114.0 L 1288.0 171.0 z" fill="rgb(255,217,194)" stroke="black"/>
  <text fill="rgb(9,33,173)" font-size="25" x="1338.0" y="107.33333333333333">top_front</text>
</svg>
