<?xml version="1.0" encoding="utf-8" ?>
<svg xmlns="http://www.w3.org/2000/svg" xmlns:ev="http://www.w3.org/2001/xml-events" xmlns:xlink="http://www.w3.org/1999/xlink" baseProfile="full" height="297px" version="1.1" width="1395.0px">
  <defs/>
  <path d="M 60 237 L 330 237 L 330 60 L 60 60 L 60 237 z" fill="rgb(255,217,194)" stroke="black"/>
  <text fill="rgb(9,33,173)" font-size="25" x="170.0" y="151.5">skirt_back</text>
  <path d="M 390 75 L 480 75 L 480 60 L 390 60 L 390 75 z" fill="rgb(255,217,194)" stroke="black"/>
  <text fill="rgb(9,33,173)" font-size="25" x="410.0" y="70.5">wb_back</text>
  <path d="M 540 75 L 630 75 L 630 60 L 540 60 L 540 75 z" fill="rgb(255,217,194)" stroke="black"/>
  <text fill="rgb(9,33,173)" font-size="25" x="560.0" y="70.5">wb_front</text>
  <path d="M 700.0 237.0 L 970.0 237.0 L 970.0 60.0 L 700.0 60.0 L 700.0 237.0 z" fill="rgb(255,217,194)" stroke="black"/>
  <text fill="rgb(9,33,173)" font-size="25" x="810.0" y="151.5">skirt_front</text>
  <path d="M 1030.0 168.0 L 1150.0 168.0 L 1150.0 117.0 Q 1124.5 103.5 1141.0 60.0 L 1117.0 60.0 Q 1090.0 131.6999795087309 1063.0 60.0 L 1039.0 60.0 Q 1055.5 103.5 1030.0 117.0 L 1030.0 168.0 z" fill="rgb(255,217,194)" stroke="black"/>
  <text fill="rgb(9,33,173)" font-size="25" x="1065.0" y="104.25">top_back</text>
  <path d="M 1210.0 168.0 L 1330.0 168.0 L 1330.0 117.0 Q 1304.5 103.5 1321.0 60.0 L 1297.0 60.0 L 1270.0 87.0 L 1243.0 60.0 L 1219.0 60.0 Q 1235.5 103.5 1210.0 117.0 L 1210.0 168.0 z" fill="rgb(255,217,194)" stroke="black"/>
  <text fill="rgb(9,33,173)" font-size="25" x="1245.0" y="102.66666666666667">top_front</text>
</svg>
