<?xml version="1.0" encoding="utf-8" ?>
<svg xmlns="http://www.w3.org/2000/svg" xmlns:ev="http://www.w3.org/2001/xml-events" xmlns:xlink="http://www.w3.org/1999/xlink" baseProfile="full" height="255.0px" version="1.1" width="1732.0px">
  <defs/>
  <path d="M 60 180 L 84 180 Q 100.8 131.1 72 117 L 60 60 L 60 180 z" fill="rgb(255,217,194)" stroke="black"/>
  <text fill="rgb(9,33,173)" font-size="25" x="44.0" y="137.25">rbsleeve</text>
  <path d="M 184.0 180.0 L 196.0 123.0 Q 224.8 108.89999999999999 208.0 60.0 L 184.0 60.0 L 184.0 180.0 z" fill="rgb(255,217,194)" stroke="black"/>
  <text fill="rgb(9,33,173)" font-size="25" x="168.0" y="108.75">rfsleeve</text>
  <path d="M 308.0 195.0 Q 467.0 289.6360471490843 626.0 195.0 L 542.0 102.0 L 539.0 60.0 L 395.0 60.0 L 392.0 102.0 L 308.0 195.0 z" fill="rgb(255,217,194)" stroke="black"/>
  <text fill="rgb(9,33,173)" font-size="25" x="442.0" y="122.0">skirt_back</text>
  <path d="M 686.0 195.0 Q 845.0 207.12457403380355 1004.0 195.0 L 920.0 102.0 L 917.0 60.0 L 773.0 60.0 L 770.0 102.0 L 686.0 195.0 z" fill="rgb(255,217,194)" stroke="black"/>
  <text fill="rgb(9,33,173)" font-size="25" x="820.0" y="122.0">skirt_front</text>
  <path d="M 1067.0 168.0 L 1211.0 168.0 L 1214.0 123.0 Q 1185.2 108.89999999999999 1202.0 60.0 L 1166.0 60.0 Q 1139.0 125.72886814778425 1112.0 60.0 L 1076.0 60.0 Q 1092.8 108.89999999999999 1064.0 123.0 L 1067.0 168.0 z" fill="rgb(255,217,194)" stroke="black"/>
  <text fill="rgb(9,33,173)" font-size="25" x="1114.0" y="105.75">top_back</text>
  <path d="M 1277.0 165.0 L 1421.0 165.0 L 1424.0 123.0 Q 1395.2 108.89999999999999 1412.0 60.0 L 1376.0 60.0 L 1349.0 117.0 L 1322.0 60.0 L 1286.0 60.0 Q 1302.8 108.89999999999999 1274.0 123.0 L 1277.0 165.0 z" fill="rgb(255,217,194)" stroke="black"/>
  <text fill="rgb(9,33,173)" font-size="25" x="1324.0" y="106.66666666666667">top_front</text>
  <path d="M 1484.0 180.0 L 1496.0 123.0 Q 1524.8 108.89999999999999 1508.0 60.0 L 1484.0 60.0 L 1484.0 180.0 z" fill="rgb(255,217,194)" stroke="black"/>
  <text fill="rgb(9,33,173)" font-size="25" x="1468.0" y="108.75">lbsleeve</text>
  <path d="M 1608.0 180.0 L 1632.0 180.0 Q 1648.8 131.1 1620.0 117.0 L 1608.0 60.0 L 1608.0 180.0 z" fill="rgb(255,217,194)" stroke="black"/>
  <text fill="rgb(9,33,173)" font-size="25" x="1592.0" y="137.25">lfsleeve</text>
</svg>
