<?xml version="1.0" encoding="utf-8" ?>
<svg xmlns="http://www.w3.org/2000/svg" xmlns:ev="http://www.w3.org/2001/xml-events" xmlns:xlink="http://www.w3.org/1999/xlink" baseProfile="full" height="414px" version="1.1" width="1342.0px">
  <defs/>
  <path d="M 60 354 L 270 354 L 270 60 L 60 60 L 60 354 z" fill="rgb(255,217,194)" stroke="black"/>
  <text fill="rgb(9,33,173)" font-size="25" x="140.0" y="210.0">skirt_back</text>
  <path d="M 330 78 L 420 78 L 420 60 L 330 60 L 330 78 z" fill="rgb(255,217,194)" stroke="black"/>
  <text fill="rgb(9,33,173)" font-size="25" x="350.0" y="72.0">wb_back</text>
  <path d="M 480 78 L 570 78 L 570 60 L 480 60 L 480 78 z" fill="rgb(255,217,194)" stroke="black"/>
  <text fill="rgb(9,33,173)" font-size="25" x="500.0" y="72.0">wb_front</text>
  <path d="M 640.0 354.0 L 850.0 354.0 L 850.0 60.0 L 640.0 60.0 L 640.0 354.0 z" fill="rgb(255,217,194)" stroke="black"/>
  <text fill="rgb(9,33,173)" font-size="25" x="720.0" y="210.0">skirt_front</text>
  <path d="M 910.0 171.0 L 1066.0 171.0 L 1066.0 147.0 Q 1027.6000000000001 125.7 1054.0 60.0 L 1030.0 60.0 Q 988.0 134.4627280973202 946.0 60.0 L 922.0 60.0 Q 948.4 125.7 910.0 147.0 L 910.0 171.0 z" fill="rgb(255,217,194)" stroke="black"/>
  <text fill="rgb(9,33,173)" font-size="25" x="963.0" y="112.5">top_back</text>
  <path d="M 1126.0 171.0 L 1282.0 171.0 L 1282.0 147.0 Q 1243.6000000000001 125.7 1270.0 60.0 L 1246.0 60.0 L 1204.0 66.0 L 1162.0 60.0 L 1138.0 60.0 Q 1164.3999999999999 125.7 1126.0 147.0 L 1126.0 171.0 z" fill="rgb(255,217,194)" stroke="black"/>
  <text fill="rgb(9,33,173)" font-size="25" x="1179.0" y="107.66666666666667">top_front</text>
</svg>
