<?xml version="1.0" encoding="utf-8" ?>
<svg xmlns="http://www.w3.org/2000/svg" xmlns:ev="http://www.w3.org/2001/xml-events" xmlns:xlink="http://www.w3.org/1999/xlink" baseProfile="full" height="246.0px" version="1.1" width="1203.5px">
  <defs/>
  <path d="M 60 147 L 228 147 L 228 93 L 216 60 L 168 60 Q 185.7 105.6 159 120 L 60 147 z" fill="rgb(255,217,194)" stroke="black"/>
  <text fill="rgb(9,33,173)" font-size="25" x="151.5" y="107.5">front_right</text>
  <path d="M 321.5 186.0 L 390.5 183.0 Q 444.5 142.5 372.5 84.0 L 357.5 93.0 L 342.5 60.0 L 321.5 186.0 z" fill="rgb(255,217,194)" stroke="black"/>
  <text fill="rgb(9,33,173)" font-size="25" x="331.9" y="124.2">Rhood</text>
  <path d="M 450.5 150.0 L 786.5 150.0 L 687.5 120.0 Q 660.8 105.6 678.5 60.0 L 630.5 60.0 L 618.5 69.0 L 606.5 60.0 L 558.5 60.0 Q 576.2 105.6 549.5 120.0 L 450.5 150.0 z" fill="rgb(255,217,194)" stroke="black"/>
  <text fill="rgb(9,33,173)" font-size="25" x="593.5" y="97.33333333333333">back</text>
  <path d="M 867.5 186.0 L 882.5 153.0 L 897.5 162.0 Q 969.5 103.5 915.5 63.0 L 846.5 60.0 L 867.5 186.0 z" fill="rgb(255,217,194)" stroke="black"/>
  <text fill="rgb(9,33,173)" font-size="25" x="856.9" y="127.8">Lhood</text>
  <path d="M 975.5 147.0 L 1143.5 147.0 L 1044.5 120.0 Q 1017.8 105.6 1035.5 60.0 L 987.5 60.0 L 975.5 93.0 L 975.5 147.0 z" fill="rgb(255,217,194)" stroke="black"/>
  <text fill="rgb(9,33,173)" font-size="25" x="1002.0" y="107.5">front_left</text>
</svg>
