<?xml version="1.0" encoding="utf-8" ?>
<svg xmlns="http://www.w3.org/2000/svg" xmlns:ev="http://www.w3.org/2001/xml-events" xmlns:xlink="http://www.w3.org/1999/xlink" baseProfile="full" height="324px" version="1.1" width="1606.0px">
  <defs/>
  <path d="M 60 264 L 150 264 L 207 60 L 90 60 Q 101.1 135.0 60 144 Q 72.0 150.0 60 264 z" fill="rgb(255,217,194)" stroke="black"/>
  <text fill="rgb(9,33,173)" font-size="25" x="88.4" y="161.4">Rback</text>
  <path d="M 324 264 L 414 264 Q 402.0 150.0 414 144 Q 377.1 133.5 384 60 L 267 60 L 324 264 z" fill="rgb(255,217,194)" stroke="black"/>
  <text fill="rgb(9,33,173)" font-size="25" x="335.6" y="161.4">Rfront</text>
  <path d="M 474 69 L 513 69 L 552 69 L 552 60 L 474 60 L 474 69 z" fill="rgb(255,217,194)" stroke="black"/>
  <text fill="rgb(9,33,173)" font-size="25" x="488.0" y="68.4">wb_back</text>
  <path d="M 618.0 69.0 L 657.0 69.0 L 696.0 69.0 L 696.0 60.0 L 618.0 60.0 L 618.0 69.0 z" fill="rgb(255,217,194)" stroke="black"/>
  <text fill="rgb(9,33,173)" font-size="25" x="632.0" y="68.4">wb_front</text>
  <path d="M 772.0 162.0 L 922.0 162.0 L 922.0 135.0 Q 888.4 117.3 910.0 60.0 L 868.0 60.0 Q 847.0 117.23033750993136 826.0 60.0 L 784.0 60.0 Q 805.6 117.3 772.0 135.0 L 772.0 162.0 z" fill="rgb(255,217,194)" stroke="black"/>
  <text fill="rgb(9,33,173)" font-size="25" x="822.0" y="107.25">top_back</text>
  <path d="M 982.0 162.0 L 1132.0 162.0 L 1132.0 135.0 Q 1098.4 117.3 1120.0 60.0 L 1078.0 60.0 L 1057.0 120.0 L 1036.0 60.0 L 994.0 60.0 Q 1015.6 117.3 982.0 135.0 L 982.0 162.0 z" fill="rgb(255,217,194)" stroke="black"/>
  <text fill="rgb(9,33,173)" font-size="25" x="1032.0" y="109.0">top_front</text>
  <path d="M 1249.0 264.0 L 1339.0 264.0 Q 1327.0 150.0 1339.0 144.0 Q 1297.9 135.0 1309.0 60.0 L 1192.0 60.0 L 1249.0 264.0 z" fill="rgb(255,217,194)" stroke="black"/>
  <text fill="rgb(9,33,173)" font-size="25" x="1260.6" y="161.4">Lback</text>
  <path d="M 1399.0 264.0 L 1489.0 264.0 L 1546.0 60.0 L 1429.0 60.0 Q 1435.9 133.5 1399.0 144.0 Q 1411.0 150.0 1399.0 264.0 z" fill="rgb(255,217,194)" stroke="black"/>
  <text fill="rgb(9,33,173)" font-size="25" x="1427.4" y="161.4">Lfront</text>
</svg>
