<?xml version="1.0" encoding="utf-8" ?>
<svg xmlns="http://www.w3.org/2000/svg" xmlns:ev="http://www.w3.org/2001/xml-events" xmlns:xlink="http://www.w3.org/1999/xlink" baseProfile="full" height="285px" version="1.1" width="1776.2px">
  <defs/>
  <path d="M 60 144 L 165 144 Q 190.2 80.4 153 60 L 60 66 L 60 144 z" fill="rgb(255,217,194)" stroke="black"/>
  <text fill="rgb(9,33,173)" font-size="25" x="84.5" y="106.5">rbsleeve</text>
  <path d="M 225 138 L 318 144 Q 355.20000000000005 123.6 330 60 L 225 60 L 225 138 z" fill="rgb(255,217,194)" stroke="black"/>
  <text fill="rgb(9,33,173)" font-size="25" x="249.5" y="103.5">rfsleeve</text>
  <path d="M 390 225 L 435 225 Q 489.15 87.45 489 60 L 420 60 Q 434.7 141.75 390 153 Q 397.2 156.6 390 225 z" fill="rgb(255,217,194)" stroke="black"/>
  <text fill="rgb(9,33,173)" font-size="25" x="399.8" y="147.6">Rback</text>
  <path d="M 603 225 L 648 225 Q 640.8 156.60000000000002 648 153 Q 607.95 140.25 618 60 L 549 60 Q 548.85 87.45 603 225 z" fill="rgb(255,217,194)" stroke="black"/>
  <text fill="rgb(9,33,173)" font-size="25" x="588.2" y="147.6">Rfront</text>
  <path d="M 711.2 168.0 L 783.2 168.0 L 855.2 168.0 L 858.2 141.0 Q 822.2 121.5 846.2 60.0 L 810.2 60.0 Q 783.2 106.61485638360243 756.2 60.0 L 720.2 60.0 Q 744.2 121.49999999999999 708.2 141.0 L 711.2 168.0 z" fill="rgb(255,217,194)" stroke="black"/>
  <text fill="rgb(9,33,173)" font-size="25" x="758.1999999999999" y="117.0">up_back</text>
  <path d="M 921.2 165.0 L 993.2 165.0 L 1065.2 165.0 L 1068.2 141.0 Q 1032.2 121.5 1056.2 60.0 L 1020.2 60.0 L 993.2 138.0 L 966.2 60.0 L 930.2 60.0 Q 954.2 121.49999999999999 918.2 141.0 L 921.2 165.0 z" fill="rgb(255,217,194)" stroke="black"/>
  <text fill="rgb(9,33,173)" font-size="25" x="968.2" y="118.5">up_front</text>
  <path d="M 1182.2 225.0 L 1227.2 225.0 Q 1220.0 156.60000000000002 1227.2 153.0 Q 1182.5 141.75 1197.2 60.0 L 1128.2 60.0 Q 1128.05 87.45 1182.2 225.0 z" fill="rgb(255,217,194)" stroke="black"/>
  <text fill="rgb(9,33,173)" font-size="25" x="1167.4" y="147.6">Lback</text>
  <path d="M 1287.2 225.0 L 1332.2 225.0 Q 1386.3500000000001 87.45 1386.2 60.0 L 1317.2 60.0 Q 1327.25 140.25 1287.2 153.0 Q 1294.4 156.6 1287.2 225.0 z" fill="rgb(255,217,194)" stroke="black"/>
  <text fill="rgb(9,33,173)" font-size="25" x="1297.0" y="147.6">Lfront</text>
  <path d="M 1446.2 138.0 L 1539.2 144.0 Q 1576.3999999999999 123.6 1551.2 60.0 L 1446.2 60.0 L 1446.2 138.0 z" fill="rgb(255,217,194)" stroke="black"/>
  <text fill="rgb(9,33,173)" font-size="25" x="1470.7" y="103.5">lbsleeve</text>
  <path d="M 1611.2 144.0 L 1716.2 144.0 Q 1741.3999999999999 80.4 1704.2 60.0 L 1611.2 66.0 L 1611.2 144.0 z" fill="rgb(255,217,194)" stroke="black"/>
  <text fill="rgb(9,33,173)" font-size="25" x="1635.7" y="106.5">lfsleeve</text>
</svg>
