<?xml version="1.0" encoding="utf-8" ?>
<svg xmlns="http://www.w3.org/2000/svg" xmlns:ev="http://www.w3.org/2001/xml-events" xmlns:xlink="http://www.w3.org/1999/xlink" baseProfile="full" height="396.0px" version="1.1" width="1445.0px">
  <defs/>
  <path d="M 60 180 L 117 180 Q 156.6 91.2 105 60 L 60 87 L 60 180 z" fill="rgb(255,217,194)" stroke="black"/>
  <text fill="rgb(9,33,173)" font-size="25" x="60.5" y="129.75">rbsleeve</text>
  <path d="M 200.5 153.0 L 245.5 180.0 Q 297.1 148.8 257.5 60.0 L 200.5 60.0 L 200.5 153.0 z" fill="rgb(255,217,194)" stroke="black"/>
  <text fill="rgb(9,33,173)" font-size="25" x="201.0" y="116.25">rfsleeve</text>
  <path d="M 341.0 336.0 L 422.0 336.0 L 422.0 69.0 L 398.0 60.0 L 362.0 60.0 Q 403.7 147.6 353.0 180.0 L 341.0 336.0 z" fill="rgb(255,217,194)" stroke="black"/>
  <text fill="rgb(9,33,173)" font-size="25" x="358.0" y="176.5">front_right</text>
  <path d="M 528.0 153.0 L 579.0 156.0 Q 639.3000000000001 132.6 588.0 60.0 L 564.0 69.0 L 537.0 60.0 L 528.0 153.0 z" fill="rgb(255,217,194)" stroke="black"/>
  <text fill="rgb(9,33,173)" font-size="25" x="534.2" y="102.6">Rhood</text>
  <path d="M 648.0 336.0 L 810.0 336.0 L 798.0 180.0 Q 747.3 147.6 789.0 60.0 L 753.0 60.0 L 729.0 69.0 L 705.0 60.0 L 669.0 60.0 Q 710.7 147.6 660.0 180.0 L 648.0 336.0 z" fill="rgb(255,217,194)" stroke="black"/>
  <text fill="rgb(9,33,173)" font-size="25" x="704.0" y="152.0">back</text>
  <path d="M 879.0 156.0 L 906.0 147.0 L 930.0 156.0 Q 981.3000000000001 83.4 921.0 60.0 L 870.0 63.0 L 879.0 156.0 z" fill="rgb(255,217,194)" stroke="black"/>
  <text fill="rgb(9,33,173)" font-size="25" x="876.2" y="119.4">Lhood</text>
  <path d="M 990.0 336.0 L 1071.0 336.0 L 1059.0 180.0 Q 1008.3 147.6 1050.0 60.0 L 1014.0 60.0 L 990.0 69.0 L 990.0 336.0 z" fill="rgb(255,217,194)" stroke="black"/>
  <text fill="rgb(9,33,173)" font-size="25" x="1004.0" y="176.5">front_left</text>
  <path d="M 1164.0 153.0 L 1209.0 180.0 Q 1260.6 148.8 1221.0 60.0 L 1164.0 60.0 L 1164.0 153.0 z" fill="rgb(255,217,194)" stroke="black"/>
  <text fill="rgb(9,33,173)" font-size="25" x="1164.5" y="116.25">lbsleeve</text>
  <path d="M 1304.5 180.0 L 1361.5 180.0 Q 1401.1 91.2 1349.5 60.0 L 1304.5 87.0 L 1304.5 180.0 z" fill="rgb(255,217,194)" stroke="black"/>
  <text fill="rgb(9,33,173)" font-size="25" x="1305.0" y="129.75">lfsleeve</text>
</svg>
