<?xml version="1.0" encoding="utf-8" ?>
<svg xmlns="http://www.w3.org/2000/svg" xmlns:ev="http://www.w3.org/2001/xml-events" xmlns:xlink="http://www.w3.org/1999/xlink" baseProfile="full" height="303px" version="1.1" width="432px">
  <defs/>
  <path d="M 60 243 L 186 243 L 186 111 Q 162.9 99.3 177 60 L 147 60 Q 123.0 74.4 99 60 L 69 60 Q 83.10000000000001 99.29999999999998 60 111 L 60 243 z" fill="rgb(255,217,194)" stroke="black"/>
  <text fill="rgb(9,33,173)" font-size="25" x="98.0" y="121.5">back</text>
  <text fill="rgb(245,96,66)" font-size="25" x="143.89778178128154" y="60.37415690812627">0</text>
  <text fill="rgb(245,96,66)" font-size="25" x="175.39140051366533" y="61.32598277686256">1</text>
  <text fill="rgb(245,96,66)" font-size="25" x="185.9649413709747" y="115.40893555107444">2</text>
  <text fill="rgb(245,96,66)" font-size="25" x="183.25754254096807" y="252.46133406905597">3</text>
  <text fill="rgb(245,96,66)" font-size="25" x="52.742457459031925" y="252.46133406905597">4</text>
  <text fill="rgb(245,96,66)" font-size="25" x="50.03505862902528" y="115.40893555107444">5</text>
  <text fill="rgb(245,96,66)" font-size="25" x="60.60859948633467" y="61.32598277686256">6</text>
  <text fill="rgb(245,96,66)" font-size="25" x="92.10221821871846" y="60.37415690812627">7</text>
  <text fill="rgb(50,179,101)" font-size="20" x="118.0" y="253.0">0</text>
  <text fill="rgb(50,179,101)" font-size="20" x="184.6639674581315" y="185.4022554968364">1</text>
  <text fill="rgb(50,179,101)" font-size="20" x="180.85489233871465" y="88.04339406534045">2</text>
  <text fill="rgb(50,179,101)" font-size="20" x="159.77350098112615" y="60.83974852831078">3</text>
  <text fill="rgb(50,179,101)" font-size="20" x="118.0" y="60.0">4</text>
  <text fill="rgb(50,179,101)" font-size="20" x="76.22649901887385" y="60.83974852831078">5</text>
  <text fill="rgb(50,179,101)" font-size="20" x="55.14510766128535" y="88.04339406534045">6</text>
  <text fill="rgb(50,179,101)" font-size="20" x="51.336032541868505" y="185.4022554968364">7</text>
  <path d="M 246 240 L 372 240 L 372 108 Q 350.1 97.19999999999999 363 60 L 333 60 L 309 93 L 285 60 L 255 60 Q 267.9 97.19999999999999 246 108 L 246 240 z" fill="rgb(255,217,194)" stroke="black"/>
  <text fill="rgb(9,33,173)" font-size="25" x="284.0" y="117.33333333333333">front</text>
  <text fill="rgb(245,96,66)" font-size="25" x="304.0" y="93.0">0</text>
  <text fill="rgb(245,96,66)" font-size="25" x="277.97972672396827" y="60.42632577787266">1</text>
  <text fill="rgb(245,96,66)" font-size="25" x="246.4753613445722" y="61.453604315835">2</text>
  <text fill="rgb(245,96,66)" font-size="25" x="236.02507534890475" y="112.49987529962534">3</text>
  <text fill="rgb(245,96,66)" font-size="25" x="238.7591908265008" y="249.46976221380532">4</text>
  <text fill="rgb(245,96,66)" font-size="25" x="369.2408091734992" y="249.46976221380532">5</text>
  <text fill="rgb(245,96,66)" font-size="25" x="371.97492465109525" y="112.49987529962534">6</text>
  <text fill="rgb(245,96,66)" font-size="25" x="361.5246386554278" y="61.453604315835">7</text>
  <text fill="rgb(245,96,66)" font-size="25" x="330.02027327603173" y="60.42632577787266">8</text>
  <text fill="rgb(50,179,101)" font-size="20" x="304.0" y="250.0">0</text>
  <text fill="rgb(50,179,101)" font-size="20" x="370.6302681100938" y="182.4381904323111">1</text>
  <text fill="rgb(50,179,101)" font-size="20" x="366.93877265724467" y="86.698414177725">2</text>
  <text fill="rgb(50,179,101)" font-size="20" x="345.9156122638425" y="60.93807864097158">3</text>
  <text fill="rgb(50,179,101)" font-size="20" x="317.5116846047921" y="76.73399437100264">4</text>
  <text fill="rgb(50,179,101)" font-size="20" x="290.4883153952079" y="76.73399437100264">5</text>
  <text fill="rgb(50,179,101)" font-size="20" x="262.0843877361575" y="60.93807864097158">6</text>
  <text fill="rgb(50,179,101)" font-size="20" x="241.06122734275536" y="86.698414177725">7</text>
  <text fill="rgb(50,179,101)" font-size="20" x="237.36973188990615" y="182.4381904323111">8</text>
</svg>
