<?xml version="1.0" encoding="utf-8" ?>
<svg xmlns="http://www.w3.org/2000/svg" xmlns:ev="http://www.w3.org/2001/xml-events" xmlns:xlink="http://www.w3.org/1999/xlink" baseProfile="full" height="408.0px" version="1.1" width="1797.0px">
  <defs/>
  <path d="M 60 183 L 135 183 Q 167.4 106.80000000000001 123 81 L 60 60 L 60 183 z" fill="rgb(255,217,194)" stroke="black"/>
  <text fill="rgb(9,33,173)" font-size="25" x="69.5" y="129.75">rbsleeve</text>
  <path d="M 209.5 183.0 L 272.5 162.0 Q 316.90000000000003 136.20000000000002 284.5 60.0 L 209.5 60.0 L 209.5 183.0 z" fill="rgb(255,217,194)" stroke="black"/>
  <text fill="rgb(9,33,173)" font-size="25" x="219.0" y="119.25">rfsleeve</text>
  <path d="M 359.0 348.0 L 527.0 348.0 L 527.0 102.0 L 491.0 60.0 L 467.0 60.0 Q 499.40000000000003 136.2 455.0 162.0 L 359.0 348.0 z" fill="rgb(255,217,194)" stroke="black"/>
  <text fill="rgb(9,33,173)" font-size="25" x="446.0" y="183.0">front_right</text>
  <path d="M 616.0 210.0 L 655.0 204.0 Q 730.6 188.7 685.0 93.0 L 652.0 102.0 L 616.0 60.0 L 616.0 210.0 z" fill="rgb(255,217,194)" stroke="black"/>
  <text fill="rgb(9,33,173)" font-size="25" x="619.8" y="136.8">Rhood</text>
  <path d="M 745.0 348.0 L 1081.0 348.0 L 985.0 162.0 Q 940.6 136.20000000000002 973.0 60.0 L 949.0 60.0 L 913.0 69.0 L 877.0 60.0 L 853.0 60.0 Q 885.4 136.2 841.0 162.0 L 745.0 348.0 z" fill="rgb(255,217,194)" stroke="black"/>
  <text fill="rgb(9,33,173)" font-size="25" x="888.0" y="150.66666666666666">back</text>
  <path d="M 1141.0 210.0 L 1177.0 168.0 L 1210.0 177.0 Q 1255.6 81.30000000000001 1180.0 66.0 L 1141.0 60.0 L 1141.0 210.0 z" fill="rgb(255,217,194)" stroke="black"/>
  <text fill="rgb(9,33,173)" font-size="25" x="1144.8" y="139.2">Lhood</text>
  <path d="M 1270.0 348.0 L 1438.0 348.0 L 1342.0 162.0 Q 1297.6000000000001 136.20000000000002 1330.0 60.0 L 1306.0 60.0 L 1270.0 102.0 L 1270.0 348.0 z" fill="rgb(255,217,194)" stroke="black"/>
  <text fill="rgb(9,33,173)" font-size="25" x="1301.0" y="183.0">front_left</text>
  <path d="M 1498.0 183.0 L 1561.0 162.0 Q 1605.3999999999999 136.20000000000002 1573.0 60.0 L 1498.0 60.0 L 1498.0 183.0 z" fill="rgb(255,217,194)" stroke="black"/>
  <text fill="rgb(9,33,173)" font-size="25" x="1507.5" y="119.25">lbsleeve</text>
  <path d="M 1647.5 183.0 L 1722.5 183.0 Q 1754.8999999999999 106.80000000000001 1710.5 81.0 L 1647.5 60.0 L 1647.5 183.0 z" fill="rgb(255,217,194)" stroke="black"/>
  <text fill="rgb(9,33,173)" font-size="25" x="1657.0" y="129.75">lfsleeve</text>
</svg>
