<?xml version="1.0" encoding="utf-8" ?>
<svg xmlns="http://www.w3.org/2000/svg" xmlns:ev="http://www.w3.org/2001/xml-events" xmlns:xlink="http://www.w3.org/1999/xlink" baseProfile="full" height="423px" version="1.1" width="1032px">
  <defs/>
  <path d="M 60 363 L 117 363 Q 162.75 107.24999999999999 153 60 L 90 60 Q 104.7 141.75 60 153 Q 81.0 163.5 60 363 z" fill="rgb(255,217,194)" stroke="black"/>
  <text fill="rgb(9,33,173)" font-size="25" x="71.0" y="202.8">Rback</text>
  <path d="M 249 363 L 306 363 Q 285.0 163.5 306 153 Q 265.95 140.25 276 60 L 213 60 Q 203.25 107.24999999999999 249 363 z" fill="rgb(255,217,194)" stroke="black"/>
  <text fill="rgb(9,33,173)" font-size="25" x="245.0" y="202.8">Rfront</text>
  <path d="M 366 168 L 426 168 L 486 168 L 486 126 Q 456.90000000000003 109.8 477 60 L 450 60 Q 426.0 102.66669171109831 402 60 L 375 60 Q 395.09999999999997 109.79999999999998 366 126 L 366 168 z" fill="rgb(255,217,194)" stroke="black"/>
  <text fill="rgb(9,33,173)" font-size="25" x="401.0" y="113.66666666666667">up_back</text>
  <path d="M 546 165 L 606 165 L 666 165 L 666 126 Q 636.9 109.8 657 60 L 630 60 L 606 63 L 582 60 L 555 60 Q 575.1 109.79999999999998 546 126 L 546 165 z" fill="rgb(255,217,194)" stroke="black"/>
  <text fill="rgb(9,33,173)" font-size="25" x="581.0" y="108.0">up_front</text>
  <path d="M 762 363 L 819 363 Q 798.0 163.5 819 153 Q 774.3 141.75 789 60 L 726 60 Q 716.25 107.24999999999999 762 363 z" fill="rgb(255,217,194)" stroke="black"/>
  <text fill="rgb(9,33,173)" font-size="25" x="758.0" y="202.8">Lback</text>
  <path d="M 879 363 L 936 363 Q 981.75 107.24999999999999 972 60 L 909 60 Q 919.05 140.25 879 153 Q 900.0 163.5 879 363 z" fill="rgb(255,217,194)" stroke="black"/>
  <text fill="rgb(9,33,173)" font-size="25" x="890.0" y="202.8">Lfront</text>
</svg>
