<?xml version="1.0" encoding="utf-8" ?>
<svg xmlns="http://www.w3.org/2000/svg" xmlns:ev="http://www.w3.org/2001/xml-events" xmlns:xlink="http://www.w3.org/1999/xlink" baseProfile="full" height="513.0px" version="1.1" width="1003.0px">
  <defs/>
  <path d="M 60 129 L 120 129 Q 141.3 77.10000000000001 111 60 L 60 72 L 60 129 z" fill="rgb(255,217,194)" stroke="black"/>
  <text fill="rgb(9,33,173)" font-size="25" x="62.75" y="100.5">rbsleeve</text>
  <path d="M 202.75 117.0 L 253.75 129.0 Q 284.05 111.89999999999999 262.75 60.0 L 202.75 60.0 L 202.75 117.0 z" fill="rgb(255,217,194)" stroke="black"/>
  <text fill="rgb(9,33,173)" font-size="25" x="205.5" y="94.5">rfsleeve</text>
  <path d="M 345.5 453.0 L 471.5 453.0 L 468.5 129.0 Q 438.2 111.89999999999999 459.5 60.0 L 423.5 60.0 Q 408.5 146.0345432880294 393.5 60.0 L 357.5 60.0 Q 378.8 111.89999999999999 348.5 129.0 L 345.5 453.0 z" fill="rgb(255,217,194)" stroke="black"/>
  <text fill="rgb(9,33,173)" font-size="25" x="383.5" y="178.5">back</text>
  <path d="M 531.5 453.0 L 657.5 453.0 L 654.5 129.0 Q 624.1999999999999 111.89999999999999 645.5 60.0 L 609.5 60.0 L 594.5 66.0 L 579.5 60.0 L 543.5 60.0 Q 564.8000000000001 111.89999999999999 534.5 129.0 L 531.5 453.0 z" fill="rgb(255,217,194)" stroke="black"/>
  <text fill="rgb(9,33,173)" font-size="25" x="569.5" y="166.33333333333334">front</text>
  <path d="M 717.5 117.0 L 768.5 129.0 Q 798.8000000000001 111.89999999999999 777.5 60.0 L 717.5 60.0 L 717.5 117.0 z" fill="rgb(255,217,194)" stroke="black"/>
  <text fill="rgb(9,33,173)" font-size="25" x="720.25" y="94.5">lbsleeve</text>
  <path d="M 860.25 129.0 L 920.25 129.0 Q 941.5500000000001 77.10000000000001 911.25 60.0 L 860.25 72.0 L 860.25 129.0 z" fill="rgb(255,217,194)" stroke="black"/>
  <text fill="rgb(9,33,173)" font-size="25" x="863.0" y="100.5">lfsleeve</text>
</svg>
