<?xml version="1.0" encoding="utf-8" ?>
<svg xmlns="http://www.w3.org/2000/svg" xmlns:ev="http://www.w3.org/2001/xml-events" xmlns:xlink="http://www.w3.org/1999/xlink" baseProfile="full" height="318.0px" version="1.1" width="1039.0px">
  <defs/>
  <path d="M 60 255 L 171 255 L 171 93 L 123 60 L 96 60 Q 122.7 131.1 81 153 L 60 255 z" fill="rgb(255,217,194)" stroke="black"/>
  <text fill="rgb(9,33,173)" font-size="25" x="92.0" y="149.0">front_right</text>
  <path d="M 274.0 180.0 L 292.0 180.0 Q 368.5 189.0 355.0 84.0 L 310.0 93.0 L 262.0 60.0 L 274.0 180.0 z" fill="rgb(255,217,194)" stroke="black"/>
  <text fill="rgb(9,33,173)" font-size="25" x="273.6" y="122.4">Rhood</text>
  <path d="M 415.0 258.0 L 637.0 258.0 L 616.0 156.0 Q 573.1 133.2 601.0 60.0 L 574.0 60.0 L 526.0 69.0 L 478.0 60.0 L 451.0 60.0 Q 478.9 133.2 436.0 156.0 L 415.0 258.0 z" fill="rgb(255,217,194)" stroke="black"/>
  <text fill="rgb(9,33,173)" font-size="25" x="501.0" y="129.33333333333331">back</text>
  <path d="M 697.0 180.0 L 745.0 147.0 L 790.0 156.0 Q 803.5 51.000000000000014 727.0 60.0 L 709.0 60.0 L 697.0 180.0 z" fill="rgb(255,217,194)" stroke="black"/>
  <text fill="rgb(9,33,173)" font-size="25" x="708.6" y="123.6">Lhood</text>
  <path d="M 850.0 255.0 L 961.0 255.0 L 940.0 153.0 Q 898.3 131.1 925.0 60.0 L 898.0 60.0 L 850.0 93.0 L 850.0 255.0 z" fill="rgb(255,217,194)" stroke="black"/>
  <text fill="rgb(9,33,173)" font-size="25" x="879.0" y="149.0">front_left</text>
</svg>
