<?xml version="1.0" encoding="utf-8" ?>
<svg xmlns="http://www.w3.org/2000/svg" xmlns:ev="http://www.w3.org/2001/xml-events" xmlns:xlink="http://www.w3.org/1999/xlink" baseProfile="full" height="270px" version="1.1" width="1286.0px">
  <defs/>
  <path d="M 60 210 L 165 210 Q 205.5 124.50000000000003 156 93 L 60 60 L 60 210 z" fill="rgb(255,217,194)" stroke="black"/>
  <text fill="rgb(9,33,173)" font-size="25" x="85.25" y="146.25">rbsleeve</text>
  <path d="M 225.25 210.0 L 321.25 177.0 Q 370.75 145.5 330.25 60.0 L 225.25 60.0 L 225.25 210.0 z" fill="rgb(255,217,194)" stroke="black"/>
  <text fill="rgb(9,33,173)" font-size="25" x="250.5" y="129.75">rfsleeve</text>
  <path d="M 390.5 198.0 L 465.5 198.0 L 465.5 78.0 L 450.5 60.0 L 417.5 60.0 Q 458.0 145.49999999999997 408.5 177.0 L 390.5 198.0 z" fill="rgb(255,217,194)" stroke="black"/>
  <text fill="rgb(9,33,173)" font-size="25" x="408.0" y="131.5">front_right</text>
  <path d="M 578.0 198.0 L 728.0 198.0 L 710.0 177.0 Q 660.5 145.5 701.0 60.0 L 668.0 60.0 Q 653.0 114.25447917742977 638.0 60.0 L 605.0 60.0 Q 645.5 145.49999999999997 596.0 177.0 L 578.0 198.0 z" fill="rgb(255,217,194)" stroke="black"/>
  <text fill="rgb(9,33,173)" font-size="25" x="628.0" y="126.75">back</text>
  <path d="M 788.0 198.0 L 863.0 198.0 L 845.0 177.0 Q 795.5 145.5 836.0 60.0 L 803.0 60.0 L 788.0 78.0 L 788.0 198.0 z" fill="rgb(255,217,194)" stroke="black"/>
  <text fill="rgb(9,33,173)" font-size="25" x="795.5" y="131.5">front_left</text>
  <path d="M 955.5 210.0 L 1051.5 177.0 Q 1101.0 145.5 1060.5 60.0 L 955.5 60.0 L 955.5 210.0 z" fill="rgb(255,217,194)" stroke="black"/>
  <text fill="rgb(9,33,173)" font-size="25" x="980.75" y="129.75">lbsleeve</text>
  <path d="M 1120.75 210.0 L 1225.75 210.0 Q 1266.25 124.50000000000003 1216.75 93.0 L 1120.75 60.0 L 1120.75 210.0 z" fill="rgb(255,217,194)" stroke="black"/>
  <text fill="rgb(9,33,173)" font-size="25" x="1146.0" y="146.25">lfsleeve</text>
</svg>
