<?xml version="1.0" encoding="utf-8" ?>
<svg xmlns="http://www.w3.org/2000/svg" xmlns:ev="http://www.w3.org/2001/xml-events" xmlns:xlink="http://www.w3.org/1999/xlink" baseProfile="full" height="486px" version="1.1" width="925.5px">
  <defs/>
  <path d="M 60 426 L 225 426 L 225 105 L 192 60 L 153 60 Q 166.5 108.0 138 120 L 60 426 z" fill="rgb(255,217,194)" stroke="black"/>
  <text fill="rgb(9,33,173)" font-size="25" x="140.5" y="202.5">front_right</text>
  <path d="M 310.5 426.0 L 640.5 426.0 L 562.5 120.0 Q 534.0 108.0 547.5 60.0 L 508.5 60.0 Q 475.5 100.73221007636181 442.5 60.0 L 403.5 60.0 Q 417.0 108.0 388.5 120.0 L 310.5 426.0 z" fill="rgb(255,217,194)" stroke="black"/>
  <text fill="rgb(9,33,173)" font-size="25" x="450.5" y="169.5">back</text>
  <path d="M 700.5 426.0 L 865.5 426.0 L 787.5 120.0 Q 759.0 108.0 772.5 60.0 L 733.5 60.0 L 700.5 105.0 L 700.5 426.0 z" fill="rgb(255,217,194)" stroke="black"/>
  <text fill="rgb(9,33,173)" font-size="25" x="735.0" y="202.5">front_left</text>
</svg>
