<?xml version="1.0" encoding="utf-8" ?>
<svg xmlns="http://www.w3.org/2000/svg" xmlns:ev="http://www.w3.org/2001/xml-events" xmlns:xlink="http://www.w3.org/1999/xlink" baseProfile="full" height="288px" version="1.1" width="1498.0px">
  <defs/>
  <path d="M 60 228 L 147 228 L 189 60 L 90 60 Q 95.1 123.75 60 129 Q 69.9 133.95 60 228 z" fill="rgb(255,217,194)" stroke="black"/>
  <text fill="rgb(9,33,173)" font-size="25" x="84.2" y="144.0">Rback</text>
  <path d="M 291 228 L 378 228 Q 368.1 133.95 378 129 Q 346.35 122.25 348 60 L 249 60 L 291 228 z" fill="rgb(255,217,194)" stroke="black"/>
  <text fill="rgb(9,33,173)" font-size="25" x="303.8" y="144.0">Rfront</text>
  <path d="M 438 72 L 477 72 L 516 72 L 516 60 L 438 60 L 438 72 z" fill="rgb(255,217,194)" stroke="black"/>
  <text fill="rgb(9,33,173)" font-size="25" x="452.0" y="70.2">wb_back</text>
  <path d="M 582.0 72.0 L 621.0 72.0 L 660.0 72.0 L 660.0 60.0 L 582.0 60.0 L 582.0 72.0 z" fill="rgb(255,217,194)" stroke="black"/>
  <text fill="rgb(9,33,173)" font-size="25" x="596.0" y="70.2">wb_front</text>
  <path d="M 736.0 162.0 L 868.0 162.0 L 868.0 108.0 Q 846.0999999999999 97.19999999999999 859.0 60.0 L 823.0 60.0 Q 802.0 78.63354298524102 781.0 60.0 L 745.0 60.0 Q 757.9000000000001 97.19999999999999 736.0 108.0 L 736.0 162.0 z" fill="rgb(255,217,194)" stroke="black"/>
  <text fill="rgb(9,33,173)" font-size="25" x="777.0" y="100.5">top_back</text>
  <path d="M 928.0 162.0 L 1060.0 162.0 L 1060.0 108.0 Q 1038.1 97.19999999999999 1051.0 60.0 L 1015.0 60.0 L 994.0 75.0 L 973.0 60.0 L 937.0 60.0 Q 949.9000000000001 97.19999999999999 928.0 108.0 L 928.0 162.0 z" fill="rgb(255,217,194)" stroke="black"/>
  <text fill="rgb(9,33,173)" font-size="25" x="969.0" y="98.0">top_front</text>
  <path d="M 1162.0 228.0 L 1249.0 228.0 Q 1239.1 133.95 1249.0 129.0 Q 1213.9 123.75 1219.0 60.0 L 1120.0 60.0 L 1162.0 228.0 z" fill="rgb(255,217,194)" stroke="black"/>
  <text fill="rgb(9,33,173)" font-size="25" x="1174.8" y="144.0">Lback</text>
  <path d="M 1309.0 228.0 L 1396.0 228.0 L 1438.0 60.0 L 1339.0 60.0 Q 1340.65 122.25 1309.0 129.0 Q 1318.9 133.95 1309.0 228.0 z" fill="rgb(255,217,194)" stroke="black"/>
  <text fill="rgb(9,33,173)" font-size="25" x="1333.2" y="144.0">Lfront</text>
</svg>
