<?xml version="1.0" encoding="utf-8" ?>
<svg xmlns="http://www.w3.org/2000/svg" xmlns:ev="http://www.w3.org/2001/xml-events" xmlns:xlink="http://www.w3.org/1999/xlink" baseProfile="full" height="474.0px" version="1.1" width="1268.0px">
  <defs/>
  <path d="M 60 189 L 117 189 Q 139.8 129.6 105 111 L 60 60 L 60 189 z" fill="rgb(255,217,194)" stroke="black"/>
  <text fill="rgb(9,33,173)" font-size="25" x="60.5" y="140.25">rbsleeve</text>
  <path d="M 200.5 189.0 L 245.5 138.0 Q 280.3 119.39999999999999 257.5 60.0 L 200.5 60.0 L 200.5 189.0 z" fill="rgb(255,217,194)" stroke="black"/>
  <text fill="rgb(9,33,173)" font-size="25" x="201.0" y="114.75">rfsleeve</text>
  <path d="M 341.0 414.0 L 443.0 414.0 L 443.0 78.0 L 431.0 60.0 L 389.0 60.0 Q 410.6 117.3 377.0 135.0 L 341.0 414.0 z" fill="rgb(255,217,194)" stroke="black"/>
  <text fill="rgb(9,33,173)" font-size="25" x="379.0" y="196.5">front_right</text>
  <path d="M 549.0 414.0 L 753.0 414.0 L 717.0 135.0 Q 683.4 117.3 705.0 60.0 L 663.0 60.0 Q 651.0 118.93150388981526 639.0 60.0 L 597.0 60.0 Q 618.6 117.3 585.0 135.0 L 549.0 414.0 z" fill="rgb(255,217,194)" stroke="black"/>
  <text fill="rgb(9,33,173)" font-size="25" x="626.0" y="170.25">back</text>
  <path d="M 813.0 414.0 L 915.0 414.0 L 879.0 135.0 Q 845.4 117.3 867.0 60.0 L 825.0 60.0 L 813.0 78.0 L 813.0 414.0 z" fill="rgb(255,217,194)" stroke="black"/>
  <text fill="rgb(9,33,173)" font-size="25" x="827.0" y="196.5">front_left</text>
  <path d="M 987.0 189.0 L 1032.0 138.0 Q 1066.8 119.39999999999999 1044.0 60.0 L 987.0 60.0 L 987.0 189.0 z" fill="rgb(255,217,194)" stroke="black"/>
  <text fill="rgb(9,33,173)" font-size="25" x="987.5" y="114.75">lbsleeve</text>
  <path d="M 1127.5 189.0 L 1184.5 189.0 Q 1207.3 129.6 1172.5 111.0 L 1127.5 60.0 L 1127.5 189.0 z" fill="rgb(255,217,194)" stroke="black"/>
  <text fill="rgb(9,33,173)" font-size="25" x="1128.0" y="140.25">lfsleeve</text>
</svg>
