<?xml version="1.0" encoding="utf-8" ?>
<svg xmlns="http://www.w3.org/2000/svg" xmlns:ev="http://www.w3.org/2001/xml-events" xmlns:xlink="http://www.w3.org/1999/xlink" baseProfile="full" height="249.0px" version="1.1" width="1205.0px">
  <defs/>
  <path d="M 60 165 L 216 165 L 216 60 L 60 60 L 60 165 z" fill="rgb(255,217,194)" stroke="black"/>
  <text fill="rgb(9,33,173)" font-size="25" x="113.0" y="115.5">skirt_back</text>
  <path d="M 276 72 L 366 72 L 366 60 L 276 60 L 276 72 z" fill="rgb(255,217,194)" stroke="black"/>
  <text fill="rgb(9,33,173)" font-size="25" x="296.0" y="69.0">wb_back</text>
  <path d="M 426 72 L 516 72 L 516 60 L 426 60 L 426 72 z" fill="rgb(255,217,194)" stroke="black"/>
  <text fill="rgb(9,33,173)" font-size="25" x="446.0" y="69.0">wb_front</text>
  <path d="M 586.0 165.0 L 742.0 165.0 L 742.0 60.0 L 586.0 60.0 L 586.0 165.0 z" fill="rgb(255,217,194)" stroke="black"/>
  <text fill="rgb(9,33,173)" font-size="25" x="639.0" y="115.5">skirt_front</text>
  <path d="M 809.0 189.0 L 947.0 189.0 L 947.0 129.0 Q 915.8 113.1 935.0 60.0 L 890.0 60.0 Q 878.0 72.91166723695999 866.0 60.0 L 821.0 60.0 Q 840.2 113.1 809.0 129.0 L 809.0 189.0 z" fill="rgb(255,217,194)" stroke="black"/>
  <text fill="rgb(9,33,173)" font-size="25" x="853.0" y="112.5">top_back</text>
  <path d="M 1007.0 189.0 L 1145.0 189.0 L 1145.0 126.0 Q 1115.0 111.0 1133.0 60.0 L 1088.0 60.0 L 1076.0 111.0 L 1064.0 60.0 L 1019.0 60.0 Q 1037.0 110.99999999999999 1007.0 126.0 L 1007.0 189.0 z" fill="rgb(255,217,194)" stroke="black"/>
  <text fill="rgb(9,33,173)" font-size="25" x="1051.0" y="112.0">top_front</text>
</svg>
