<?xml version="1.0" encoding="utf-8" ?>
<svg xmlns="http://www.w3.org/2000/svg" xmlns:ev="http://www.w3.org/2001/xml-events" xmlns:xlink="http://www.w3.org/1999/xlink" baseProfile="full" height="456.0px" version="1.1" width="1132.0px">
  <defs/>
  <path d="M 60 216 L 84 216 Q 98.39999999999999 171.29999999999998 72 159 L 60 60 L 60 216 z" fill="rgb(255,217,194)" stroke="black"/>
  <text fill="rgb(9,33,173)" font-size="25" x="44.0" y="165.75">rbsleeve</text>
  <path d="M 184.0 216.0 L 196.0 117.0 Q 222.4 104.7 208.0 60.0 L 184.0 60.0 L 184.0 216.0 z" fill="rgb(255,217,194)" stroke="black"/>
  <text fill="rgb(9,33,173)" font-size="25" x="168.0" y="116.25">rfsleeve</text>
  <path d="M 308.0 396.0 L 536.0 396.0 L 500.0 117.0 Q 473.59999999999997 104.7 488.0 60.0 L 449.0 60.0 Q 422.0 197.8321849833005 395.0 60.0 L 356.0 60.0 Q 370.40000000000003 104.7 344.0 117.0 L 308.0 396.0 z" fill="rgb(255,217,194)" stroke="black"/>
  <text fill="rgb(9,33,173)" font-size="25" x="397.0" y="161.25">back</text>
  <path d="M 596.0 396.0 L 824.0 396.0 L 788.0 117.0 Q 761.6 104.7 776.0 60.0 L 737.0 60.0 L 710.0 123.0 L 683.0 60.0 L 644.0 60.0 Q 658.4 104.7 632.0 117.0 L 596.0 396.0 z" fill="rgb(255,217,194)" stroke="black"/>
  <text fill="rgb(9,33,173)" font-size="25" x="685.0" y="157.33333333333334">front</text>
  <path d="M 884.0 216.0 L 896.0 117.0 Q 922.4 104.7 908.0 60.0 L 884.0 60.0 L 884.0 216.0 z" fill="rgb(255,217,194)" stroke="black"/>
  <text fill="rgb(9,33,173)" font-size="25" x="868.0" y="116.25">lbsleeve</text>
  <path d="M 1008.0 216.0 L 1032.0 216.0 Q 1046.4 171.29999999999998 1020.0 159.0 L 1008.0 60.0 L 1008.0 216.0 z" fill="rgb(255,217,194)" stroke="black"/>
  <text fill="rgb(9,33,173)" font-size="25" x="992.0" y="165.75">lfsleeve</text>
</svg>
