<?xml version="1.0" encoding="utf-8" ?>
<svg xmlns="http://www.w3.org/2000/svg" xmlns:ev="http://www.w3.org/2001/xml-events" xmlns:xlink="http://www.w3.org/1999/xlink" baseProfile="full" height="324.0px" version="1.1" width="2014.0px">
  <defs/>
  <path d="M 60 204 L 141 204 Q 159.0 153.0 129 138 L 60 60 L 60 204 z" fill="rgb(255,217,194)" stroke="black"/>
  <text fill="rgb(9,33,173)" font-size="25" x="72.5" y="154.5">rbsleeve</text>
  <path d="M 212.5 204.0 L 281.5 126.0 Q 311.5 111.0 293.5 60.0 L 212.5 60.0 L 212.5 204.0 z" fill="rgb(255,217,194)" stroke="black"/>
  <text fill="rgb(9,33,173)" font-size="25" x="225.0" y="115.5">rfsleeve</text>
  <path d="M 365.0 264.0 Q 560.0 180.83120337268048 755.0 264.0 L 629.0 102.0 L 626.0 60.0 L 494.0 60.0 L 491.0 102.0 L 365.0 264.0 z" fill="rgb(255,217,194)" stroke="black"/>
  <text fill="rgb(9,33,173)" font-size="25" x="535.0" y="145.0">skirt_back</text>
  <path d="M 815.0 264.0 Q 1010.0 369.43475289309265 1205.0 264.0 L 1079.0 102.0 L 1076.0 60.0 L 944.0 60.0 L 941.0 102.0 L 815.0 264.0 z" fill="rgb(255,217,194)" stroke="black"/>
  <text fill="rgb(9,33,173)" font-size="25" x="985.0" y="145.0">skirt_front</text>
  <path d="M 1280.0 168.0 L 1412.0 168.0 L 1427.0 126.0 Q 1397.0 111.0 1415.0 60.0 L 1376.0 60.0 Q 1346.0 81.79062228372473 1316.0 60.0 L 1277.0 60.0 Q 1295.0 110.99999999999999 1265.0 126.0 L 1280.0 168.0 z" fill="rgb(255,217,194)" stroke="black"/>
  <text fill="rgb(9,33,173)" font-size="25" x="1321.0" y="106.5">top_back</text>
  <path d="M 1502.0 165.0 L 1634.0 165.0 L 1649.0 126.0 Q 1619.0 111.0 1637.0 60.0 L 1598.0 60.0 L 1568.0 78.0 L 1538.0 60.0 L 1499.0 60.0 Q 1517.0 110.99999999999999 1487.0 126.0 L 1502.0 165.0 z" fill="rgb(255,217,194)" stroke="black"/>
  <text fill="rgb(9,33,173)" font-size="25" x="1543.0" y="103.0">top_front</text>
  <path d="M 1709.0 204.0 L 1778.0 126.0 Q 1808.0 111.0 1790.0 60.0 L 1709.0 60.0 L 1709.0 204.0 z" fill="rgb(255,217,194)" stroke="black"/>
  <text fill="rgb(9,33,173)" font-size="25" x="1721.5" y="115.5">lbsleeve</text>
  <path d="M 1861.5 204.0 L 1942.5 204.0 Q 1960.5 153.0 1930.5 138.0 L 1861.5 60.0 L 1861.5 204.0 z" fill="rgb(255,217,194)" stroke="black"/>
  <text fill="rgb(9,33,173)" font-size="25" x="1874.0" y="154.5">lfsleeve</text>
</svg>
