<?xml version="1.0" encoding="utf-8" ?>
<svg xmlns="http://www.w3.org/2000/svg" xmlns:ev="http://www.w3.org/2001/xml-events" xmlns:xlink="http://www.w3.org/1999/xlink" baseProfile="full" height="375px" version="1.1" width="1666.0px">
  <defs/>
  <path d="M 60 315 L 225 315 L 207 60 L 90 60 Q 101.1 135.0 60 144 Q 77.1 152.55 60 315 z" fill="rgb(255,217,194)" stroke="black"/>
  <text fill="rgb(9,33,173)" font-size="25" x="103.4" y="181.8">Rback</text>
  <path d="M 285 315 L 450 315 Q 432.9 152.55 450 144 Q 413.1 133.5 420 60 L 303 60 L 285 315 z" fill="rgb(255,217,194)" stroke="black"/>
  <text fill="rgb(9,33,173)" font-size="25" x="356.6" y="181.8">Rfront</text>
  <path d="M 510 75 L 549 75 L 588 75 L 588 60 L 510 60 L 510 75 z" fill="rgb(255,217,194)" stroke="black"/>
  <text fill="rgb(9,33,173)" font-size="25" x="524.0" y="72.0">wb_back</text>
  <path d="M 654.0 75.0 L 693.0 75.0 L 732.0 75.0 L 732.0 60.0 L 654.0 60.0 L 654.0 75.0 z" fill="rgb(255,217,194)" stroke="black"/>
  <text fill="rgb(9,33,173)" font-size="25" x="668.0" y="72.0">wb_front</text>
  <path d="M 808.0 141.0 L 952.0 141.0 L 952.0 135.0 Q 919.3 116.1 943.0 60.0 L 916.0 60.0 Q 880.0 111.64985367451503 844.0 60.0 L 817.0 60.0 Q 840.7 116.1 808.0 135.0 L 808.0 141.0 z" fill="rgb(255,217,194)" stroke="black"/>
  <text fill="rgb(9,33,173)" font-size="25" x="855.0" y="102.0">top_back</text>
  <path d="M 1012.0 141.0 L 1156.0 141.0 L 1156.0 132.0 Q 1124.5 114.0 1147.0 60.0 L 1120.0 60.0 L 1084.0 87.0 L 1048.0 60.0 L 1021.0 60.0 Q 1043.5 114.0 1012.0 132.0 L 1012.0 141.0 z" fill="rgb(255,217,194)" stroke="black"/>
  <text fill="rgb(9,33,173)" font-size="25" x="1059.0" y="100.0">top_front</text>
  <path d="M 1216.0 315.0 L 1381.0 315.0 Q 1363.9 152.55 1381.0 144.0 Q 1339.9 135.0 1351.0 60.0 L 1234.0 60.0 L 1216.0 315.0 z" fill="rgb(255,217,194)" stroke="black"/>
  <text fill="rgb(9,33,173)" font-size="25" x="1287.6" y="181.8">Lback</text>
  <path d="M 1441.0 315.0 L 1606.0 315.0 L 1588.0 60.0 L 1471.0 60.0 Q 1477.9 133.5 1441.0 144.0 Q 1458.1 152.55 1441.0 315.0 z" fill="rgb(255,217,194)" stroke="black"/>
  <text fill="rgb(9,33,173)" font-size="25" x="1484.4" y="181.8">Lfront</text>
</svg>
