<?xml version="1.0" encoding="utf-8" ?>
<svg xmlns="http://www.w3.org/2000/svg" xmlns:ev="http://www.w3.org/2001/xml-events" xmlns:xlink="http://www.w3.org/1999/xlink" baseProfile="full" height="243px" version="1.1" width="1740px">
  <defs/>
  <path d="M 60 183 L 168 183 Q 198.0 111.00000000000001 156 87 L 60 60 L 60 183 z" fill="rgb(255,217,194)" stroke="black"/>
  <text fill="rgb(9,33,173)" font-size="25" x="86.0" y="131.25">rbsleeve</text>
  <path d="M 228 183 L 324 156 Q 366.0 132.0 336 60 L 228 60 L 228 183 z" fill="rgb(255,217,194)" stroke="black"/>
  <text fill="rgb(9,33,173)" font-size="25" x="254.0" y="117.75">rfsleeve</text>
  <path d="M 396 180 L 480 180 Q 493.65 78.45 489 60 L 426 60 Q 440.7 141.75 396 153 Q 398.7 154.35 396 180 z" fill="rgb(255,217,194)" stroke="black"/>
  <text fill="rgb(9,33,173)" font-size="25" x="412.4" y="129.6">Rback</text>
  <path d="M 558 180 L 642 180 Q 639.3 154.35 642 153 Q 601.95 140.25 612 60 L 549 60 Q 544.35 78.45 558 180 z" fill="rgb(255,217,194)" stroke="black"/>
  <text fill="rgb(9,33,173)" font-size="25" x="575.6" y="129.6">Rfront</text>
  <path d="M 708 168 L 771 168 L 834 168 L 840 156 Q 798.9 130.8 831 60 L 804 60 Q 771.0 88.79991724019699 738 60 L 711 60 Q 743.1 130.79999999999998 702 156 L 708 168 z" fill="rgb(255,217,194)" stroke="black"/>
  <text fill="rgb(9,33,173)" font-size="25" x="746.0" y="120.33333333333333">up_back</text>
  <path d="M 906 165 L 969 165 L 1032 165 L 1038 156 Q 996.9 130.8 1029 60 L 1002 60 L 969 93 L 936 60 L 909 60 Q 941.1 130.79999999999998 900 156 L 906 165 z" fill="rgb(255,217,194)" stroke="black"/>
  <text fill="rgb(9,33,173)" font-size="25" x="944.0" y="117.0">up_front</text>
  <path d="M 1107 180 L 1191 180 Q 1188.3 154.35 1191 153 Q 1146.3 141.75 1161 60 L 1098 60 Q 1093.35 78.45 1107 180 z" fill="rgb(255,217,194)" stroke="black"/>
  <text fill="rgb(9,33,173)" font-size="25" x="1124.6" y="129.6">Lback</text>
  <path d="M 1251 180 L 1335 180 Q 1348.65 78.45 1344 60 L 1281 60 Q 1291.05 140.25 1251 153 Q 1253.7 154.35 1251 180 z" fill="rgb(255,217,194)" stroke="black"/>
  <text fill="rgb(9,33,173)" font-size="25" x="1267.4" y="129.6">Lfront</text>
  <path d="M 1404 183 L 1500 156 Q 1542.0 132.0 1512 60 L 1404 60 L 1404 183 z" fill="rgb(255,217,194)" stroke="black"/>
  <text fill="rgb(9,33,173)" font-size="25" x="1430.0" y="117.75">lbsleeve</text>
  <path d="M 1572 183 L 1680 183 Q 1710.0 111.00000000000001 1668 87 L 1572 60 L 1572 183 z" fill="rgb(255,217,194)" stroke="black"/>
  <text fill="rgb(9,33,173)" font-size="25" x="1598.0" y="131.25">lfsleeve</text>
</svg>
