<?xml version="1.0" encoding="utf-8" ?>
<svg xmlns="http://www.w3.org/2000/svg" xmlns:ev="http://www.w3.org/2001/xml-events" xmlns:xlink="http://www.w3.org/1999/xlink" baseProfile="full" height="417px" version="1.1" width="791.0px">
  <defs/>
  <path d="M 60 357 L 189 357 L 189 66 L 156 60 L 126 60 Q 139.2 102.6 114 114 L 60 357 z" fill="rgb(255,217,194)" stroke="black"/>
  <text fill="rgb(9,33,173)" font-size="25" x="114.0" y="172.0">front_right</text>
  <path d="M 284.0 357.0 L 542.0 357.0 L 488.0 114.0 Q 462.79999999999995 102.6 476.0 60.0 L 446.0 60.0 Q 413.0 87.04554283365312 380.0 60.0 L 350.0 60.0 Q 363.20000000000005 102.6 338.0 114.0 L 284.0 357.0 z" fill="rgb(255,217,194)" stroke="black"/>
  <text fill="rgb(9,33,173)" font-size="25" x="388.0" y="150.75">back</text>
  <path d="M 602.0 357.0 L 731.0 357.0 L 677.0 114.0 Q 651.8 102.6 665.0 60.0 L 635.0 60.0 L 602.0 66.0 L 602.0 357.0 z" fill="rgb(255,217,194)" stroke="black"/>
  <text fill="rgb(9,33,173)" font-size="25" x="627.0" y="172.0">front_left</text>
</svg>
