<?xml version="1.0" encoding="utf-8" ?>
<svg xmlns="http://www.w3.org/2000/svg" xmlns:ev="http://www.w3.org/2001/xml-events" xmlns:xlink="http://www.w3.org/1999/xlink" baseProfile="full" height="291px" version="1.1" width="1156.0px">
  <defs/>
  <path d="M 60 231 L 210 231 L 210 60 L 60 60 L 60 231 z" fill="rgb(255,217,194)" stroke="black"/>
  <text fill="rgb(9,33,173)" font-size="25" x="110.0" y="148.5">skirt_back</text>
  <path d="M 270 69 L 360 69 L 360 60 L 270 60 L 270 69 z" fill="rgb(255,217,194)" stroke="black"/>
  <text fill="rgb(9,33,173)" font-size="25" x="290.0" y="67.5">wb_back</text>
  <path d="M 420 69 L 510 69 L 510 60 L 420 60 L 420 69 z" fill="rgb(255,217,194)" stroke="black"/>
  <text fill="rgb(9,33,173)" font-size="25" x="440.0" y="67.5">wb_front</text>
  <path d="M 580.0 231.0 L 730.0 231.0 L 730.0 60.0 L 580.0 60.0 L 580.0 231.0 z" fill="rgb(255,217,194)" stroke="black"/>
  <text fill="rgb(9,33,173)" font-size="25" x="630.0" y="148.5">skirt_front</text>
  <path d="M 800.0 183.0 L 914.0 183.0 L 914.0 117.0 Q 888.5 103.5 905.0 60.0 L 884.0 60.0 Q 857.0 120.96675101667138 830.0 60.0 L 809.0 60.0 Q 825.5 103.5 800.0 117.0 L 800.0 183.0 z" fill="rgb(255,217,194)" stroke="black"/>
  <text fill="rgb(9,33,173)" font-size="25" x="832.0" y="108.0">top_back</text>
  <path d="M 974.0 183.0 L 1088.0 183.0 L 1088.0 117.0 Q 1062.5 103.5 1079.0 60.0 L 1058.0 60.0 L 1031.0 72.0 L 1004.0 60.0 L 983.0 60.0 Q 999.5 103.5 974.0 117.0 L 974.0 183.0 z" fill="rgb(255,217,194)" stroke="black"/>
  <text fill="rgb(9,33,173)" font-size="25" x="1006.0" y="104.33333333333333">top_front</text>
</svg>
