<?xml version="1.0" encoding="utf-8" ?>
<svg xmlns="http://www.w3.org/2000/svg" xmlns:ev="http://www.w3.org/2001/xml-events" xmlns:xlink="http://www.w3.org/1999/xlink" baseProfile="full" height="405px" version="1.1" width="1794px">
  <defs/>
  <path d="M 60 156 L 195 156 Q 225.0 84.00000000000001 183 60 L 60 102 L 60 156 z" fill="rgb(255,217,194)" stroke="black"/>
  <text fill="rgb(9,33,173)" font-size="25" x="99.5" y="121.5">rbsleeve</text>
  <path d="M 255 114 L 378 156 Q 420.0 132.0 390 60 L 255 60 L 255 114 z" fill="rgb(255,217,194)" stroke="black"/>
  <text fill="rgb(9,33,173)" font-size="25" x="294.5" y="100.5">rfsleeve</text>
  <path d="M 450 345 L 720 345 L 663 156 Q 621.0 132.0 651 60 L 627 60 L 585 69 L 543 60 L 519 60 Q 549.0 132.0 507 156 L 450 345 z" fill="rgb(255,217,194)" stroke="black"/>
  <text fill="rgb(9,33,173)" font-size="25" x="560.0" y="148.66666666666666">back</text>
  <path d="M 780 345 L 1050 345 L 993 156 Q 951.0 132.0 981 60 L 957 60 L 915 72 L 873 60 L 849 60 Q 879.0 132.0 837 156 L 780 345 z" fill="rgb(255,217,194)" stroke="black"/>
  <text fill="rgb(9,33,173)" font-size="25" x="890.0" y="149.0">front</text>
  <path d="M 1119 189 L 1188 177 Q 1253.7 150.9 1197 72 L 1155 81 L 1110 60 L 1119 189 z" fill="rgb(255,217,194)" stroke="black"/>
  <text fill="rgb(9,33,173)" font-size="25" x="1128.8" y="118.8">Rhood</text>
  <path d="M 1257 189 L 1302 168 L 1344 177 Q 1400.7 98.1 1335 72 L 1266 60 L 1257 189 z" fill="rgb(255,217,194)" stroke="black"/>
  <text fill="rgb(9,33,173)" font-size="25" x="1275.8" y="136.2">Lhood</text>
  <path d="M 1404 114 L 1527 156 Q 1569.0 132.0 1539 60 L 1404 60 L 1404 114 z" fill="rgb(255,217,194)" stroke="black"/>
  <text fill="rgb(9,33,173)" font-size="25" x="1443.5" y="100.5">lbsleeve</text>
  <path d="M 1599 156 L 1734 156 Q 1764.0 84.00000000000001 1722 60 L 1599 102 L 1599 156 z" fill="rgb(255,217,194)" stroke="black"/>
  <text fill="rgb(9,33,173)" font-size="25" x="1638.5" y="121.5">lfsleeve</text>
</svg>
