<?xml version="1.0" encoding="utf-8" ?>
<svg xmlns="http://www.w3.org/2000/svg" xmlns:ev="http://www.w3.org/2001/xml-events" xmlns:xlink="http://www.w3.org/1999/xlink" baseProfile="full" height="351px" version="1.1" width="1474.0px">
  <defs/>
  <path d="M 60 291 L 117 291 L 183 60 L 90 60 Q 104.7 141.75 60 153 Q 73.8 159.9 60 291 z" fill="rgb(255,217,194)" stroke="black"/>
  <text fill="rgb(9,33,173)" font-size="25" x="77.0" y="174.0">Rback</text>
  <path d="M 309 291 L 366 291 Q 352.2 159.9 366 153 Q 325.95 140.25 336 60 L 243 60 L 309 291 z" fill="rgb(255,217,194)" stroke="black"/>
  <text fill="rgb(9,33,173)" font-size="25" x="299.0" y="174.0">Rfront</text>
  <path d="M 426 69 L 465 69 L 504 69 L 504 60 L 426 60 L 426 69 z" fill="rgb(255,217,194)" stroke="black"/>
  <text fill="rgb(9,33,173)" font-size="25" x="440.0" y="68.4">wb_back</text>
  <path d="M 570.0 69.0 L 609.0 69.0 L 648.0 69.0 L 648.0 60.0 L 570.0 60.0 L 570.0 69.0 z" fill="rgb(255,217,194)" stroke="black"/>
  <text fill="rgb(9,33,173)" font-size="25" x="584.0" y="68.4">wb_front</text>
  <path d="M 724.0 153.0 L 856.0 153.0 L 856.0 120.0 Q 829.3 105.6 847.0 60.0 L 802.0 60.0 Q 790.0 64.24750559232277 778.0 60.0 L 733.0 60.0 Q 750.7 105.6 724.0 120.0 L 724.0 153.0 z" fill="rgb(255,217,194)" stroke="black"/>
  <text fill="rgb(9,33,173)" font-size="25" x="765.0" y="101.25">top_back</text>
  <path d="M 916.0 153.0 L 1048.0 153.0 L 1048.0 120.0 Q 1021.3 105.6 1039.0 60.0 L 994.0 60.0 L 982.0 105.0 L 970.0 60.0 L 925.0 60.0 Q 942.7 105.6 916.0 120.0 L 916.0 153.0 z" fill="rgb(255,217,194)" stroke="black"/>
  <text fill="rgb(9,33,173)" font-size="25" x="957.0" y="102.0">top_front</text>
  <path d="M 1174.0 291.0 L 1231.0 291.0 Q 1217.2 159.9 1231.0 153.0 Q 1186.3 141.75 1201.0 60.0 L 1108.0 60.0 L 1174.0 291.0 z" fill="rgb(255,217,194)" stroke="black"/>
  <text fill="rgb(9,33,173)" font-size="25" x="1164.0" y="174.0">Lback</text>
  <path d="M 1291.0 291.0 L 1348.0 291.0 L 1414.0 60.0 L 1321.0 60.0 Q 1331.05 140.25 1291.0 153.0 Q 1304.8 159.9 1291.0 291.0 z" fill="rgb(255,217,194)" stroke="black"/>
  <text fill="rgb(9,33,173)" font-size="25" x="1308.0" y="174.0">Lfront</text>
</svg>
