<?xml version="1.0" encoding="utf-8" ?>
<svg xmlns="http://www.w3.org/2000/svg" xmlns:ev="http://www.w3.org/2001/xml-events" xmlns:xlink="http://www.w3.org/1999/xlink" baseProfile="full" height="363px" version="1.1" width="715.0px">
  <defs/>
  <path d="M 60 303 L 165 303 L 165 84 L 114 60 L 84 60 Q 117.9 143.7 69 171 L 60 303 z" fill="rgb(255,217,194)" stroke="black"/>
  <text fill="rgb(9,33,173)" font-size="25" x="84.5" y="166.5">front_right</text>
  <path d="M 254.5 303.0 L 464.5 303.0 L 455.5 171.0 Q 406.6 143.7 440.5 60.0 L 410.5 60.0 Q 359.5 169.709176197477 308.5 60.0 L 278.5 60.0 Q 312.4 143.7 263.5 171.0 L 254.5 303.0 z" fill="rgb(255,217,194)" stroke="black"/>
  <text fill="rgb(9,33,173)" font-size="25" x="334.5" y="151.5">back</text>
  <path d="M 524.5 303.0 L 629.5 303.0 L 620.5 171.0 Q 571.6 143.7 605.5 60.0 L 575.5 60.0 L 524.5 84.0 L 524.5 303.0 z" fill="rgb(255,217,194)" stroke="black"/>
  <text fill="rgb(9,33,173)" font-size="25" x="555.0" y="166.5">front_left</text>
</svg>
