<?xml version="1.0" encoding="utf-8" ?>
<svg xmlns="http://www.w3.org/2000/svg" xmlns:ev="http://www.w3.org/2001/xml-events" xmlns:xlink="http://www.w3.org/1999/xlink" baseProfile="full" height="333.0px" version="1.1" width="598.0px">
  <defs/>
  <path d="M 78 270 L 126 270 L 126 141 L 93 60 L 69 60 Q 85.5 103.5 60 117 L 78 270 z" fill="rgb(255,217,194)" stroke="black"/>
  <text fill="rgb(9,33,173)" font-size="25" x="67.0" y="156.0">front_right</text>
  <path d="M 255.0 273.0 L 351.0 273.0 L 369.0 117.0 Q 343.5 103.5 360.0 60.0 L 336.0 60.0 Q 303.0 156.96269773378938 270.0 60.0 L 246.0 60.0 Q 262.5 103.5 237.0 117.0 L 255.0 273.0 z" fill="rgb(255,217,194)" stroke="black"/>
  <text fill="rgb(9,33,173)" font-size="25" x="278.0" y="130.5">back</text>
  <path d="M 429.0 270.0 L 477.0 270.0 L 495.0 117.0 Q 469.5 103.5 486.0 60.0 L 462.0 60.0 L 429.0 141.0 L 429.0 270.0 z" fill="rgb(255,217,194)" stroke="black"/>
  <text fill="rgb(9,33,173)" font-size="25" x="438.0" y="156.0">front_left</text>
</svg>
