<?xml version="1.0" encoding="utf-8" ?>
<svg xmlns="http://www.w3.org/2000/svg" xmlns:ev="http://www.w3.org/2001/xml-events" xmlns:xlink="http://www.w3.org/1999/xlink" baseProfile="full" height="480.0px" version="1.1" width="1427.0px">
  <defs/>
  <path d="M 60 231 L 111 231 Q 135.0 169.5 99 150 L 60 60 L 60 231 z" fill="rgb(255,217,194)" stroke="black"/>
  <text fill="rgb(9,33,173)" font-size="25" x="57.5" y="171.0">rbsleeve</text>
  <path d="M 197.5 231.0 L 236.5 141.0 Q 272.5 121.5 248.5 60.0 L 197.5 60.0 L 197.5 231.0 z" fill="rgb(255,217,194)" stroke="black"/>
  <text fill="rgb(9,33,173)" font-size="25" x="195.0" y="126.0">rfsleeve</text>
  <path d="M 353.0 420.0 L 404.0 420.0 L 404.0 90.0 L 365.0 60.0 L 347.0 60.0 Q 371.0 121.49999999999999 335.0 141.0 L 353.0 420.0 z" fill="rgb(255,217,194)" stroke="black"/>
  <text fill="rgb(9,33,173)" font-size="25" x="343.0" y="201.5">front_right</text>
  <path d="M 516.0 201.0 L 567.0 192.0 Q 639.9 171.29999999999998 588.0 81.0 L 552.0 90.0 L 513.0 60.0 L 516.0 201.0 z" fill="rgb(255,217,194)" stroke="black"/>
  <text fill="rgb(9,33,173)" font-size="25" x="522.2" y="127.8">Rhood</text>
  <path d="M 666.0 420.0 L 768.0 420.0 L 786.0 141.0 Q 750.0 121.5 774.0 60.0 L 756.0 60.0 L 717.0 69.0 L 678.0 60.0 L 660.0 60.0 Q 684.0 121.49999999999999 648.0 141.0 L 666.0 420.0 z" fill="rgb(255,217,194)" stroke="black"/>
  <text fill="rgb(9,33,173)" font-size="25" x="692.0" y="162.0">back</text>
  <path d="M 846.0 201.0 L 885.0 171.0 L 921.0 180.0 Q 972.9 89.70000000000002 900.0 69.0 L 849.0 60.0 L 846.0 201.0 z" fill="rgb(255,217,194)" stroke="black"/>
  <text fill="rgb(9,33,173)" font-size="25" x="855.2" y="139.2">Lhood</text>
  <path d="M 981.0 420.0 L 1032.0 420.0 L 1050.0 141.0 Q 1014.0000000000001 121.5 1038.0 60.0 L 1020.0 60.0 L 981.0 90.0 L 981.0 420.0 z" fill="rgb(255,217,194)" stroke="black"/>
  <text fill="rgb(9,33,173)" font-size="25" x="992.0" y="201.5">front_left</text>
  <path d="M 1152.0 231.0 L 1191.0 141.0 Q 1227.0 121.5 1203.0 60.0 L 1152.0 60.0 L 1152.0 231.0 z" fill="rgb(255,217,194)" stroke="black"/>
  <text fill="rgb(9,33,173)" font-size="25" x="1149.5" y="126.0">lbsleeve</text>
  <path d="M 1289.5 231.0 L 1340.5 231.0 Q 1364.5 169.5 1328.5 150.0 L 1289.5 60.0 L 1289.5 231.0 z" fill="rgb(255,217,194)" stroke="black"/>
  <text fill="rgb(9,33,173)" font-size="25" x="1287.0" y="171.0">lfsleeve</text>
</svg>
