<?xml version="1.0" encoding="utf-8" ?>
<svg xmlns="http://www.w3.org/2000/svg" xmlns:ev="http://www.w3.org/2001/xml-events" xmlns:xlink="http://www.w3.org/1999/xlink" baseProfile="full" height="264px" version="1.1" width="958.0px">
  <defs/>
  <path d="M 60 204 L 156 204 L 156 66 L 117 60 L 81 60 Q 115.8 140.4 69 168 L 60 204 z" fill="rgb(255,217,194)" stroke="black"/>
  <text fill="rgb(9,33,173)" font-size="25" x="81.5" y="130.0">front_right</text>
  <path d="M 254.5 162.0 L 275.5 162.0 Q 352.0 162.0 326.5 60.0 L 290.5 69.0 L 251.5 63.0 L 254.5 162.0 z" fill="rgb(255,217,194)" stroke="black"/>
  <text fill="rgb(9,33,173)" font-size="25" x="254.7" y="106.2">Rhood</text>
  <path d="M 386.5 204.0 L 578.5 204.0 L 569.5 168.0 Q 522.6999999999999 140.4 557.5 60.0 L 521.5 60.0 L 482.5 69.0 L 443.5 60.0 L 407.5 60.0 Q 442.3 140.4 395.5 168.0 L 386.5 204.0 z" fill="rgb(255,217,194)" stroke="black"/>
  <text fill="rgb(9,33,173)" font-size="25" x="457.5" y="120.0">back</text>
  <path d="M 638.5 159.0 L 677.5 153.0 L 713.5 162.0 Q 739.0 60.000000000000014 662.5 60.0 L 641.5 60.0 L 638.5 159.0 z" fill="rgb(255,217,194)" stroke="black"/>
  <text fill="rgb(9,33,173)" font-size="25" x="641.7" y="121.8">Lhood</text>
  <path d="M 773.5 204.0 L 869.5 204.0 L 860.5 168.0 Q 813.6999999999999 140.4 848.5 60.0 L 812.5 60.0 L 773.5 66.0 L 773.5 204.0 z" fill="rgb(255,217,194)" stroke="black"/>
  <text fill="rgb(9,33,173)" font-size="25" x="798.0" y="130.0">front_left</text>
</svg>
