<?xml version="1.0" encoding="utf-8" ?>
<svg xmlns="http://www.w3.org/2000/svg" xmlns:ev="http://www.w3.org/2001/xml-events" xmlns:xlink="http://www.w3.org/1999/xlink" baseProfile="full" height="324.0px" version="1.1" width="1270.0px">
  <defs/>
  <path d="M 60 210 L 78 210 Q 97.19999999999999 156.89999999999998 66 141 L 60 60 L 60 210 z" fill="rgb(255,217,194)" stroke="black"/>
  <text fill="rgb(9,33,173)" font-size="25" x="41.0" y="158.25">rbsleeve</text>
  <path d="M 181.0 210.0 L 187.0 129.0 Q 218.2 113.1 199.0 60.0 L 181.0 60.0 L 181.0 210.0 z" fill="rgb(255,217,194)" stroke="black"/>
  <text fill="rgb(9,33,173)" font-size="25" x="162.0" y="117.75">rfsleeve</text>
  <path d="M 320.0 264.0 L 452.0 264.0 L 470.0 129.0 Q 437.9 114.3 455.0 60.0 L 422.0 60.0 L 386.0 69.0 L 350.0 60.0 L 317.0 60.0 Q 334.1 114.3 302.0 129.0 L 320.0 264.0 z" fill="rgb(255,217,194)" stroke="black"/>
  <text fill="rgb(9,33,173)" font-size="25" x="361.0" y="124.66666666666667">back</text>
  <path d="M 548.0 261.0 L 680.0 261.0 L 698.0 126.0 Q 667.1 112.2 683.0 60.0 L 650.0 60.0 L 614.0 90.0 L 578.0 60.0 L 545.0 60.0 Q 560.9 112.19999999999999 530.0 126.0 L 548.0 261.0 z" fill="rgb(255,217,194)" stroke="black"/>
  <text fill="rgb(9,33,173)" font-size="25" x="589.0" y="125.66666666666667">front</text>
  <path d="M 761.0 186.0 L 773.0 186.0 Q 852.2 191.4 833.0 84.0 L 797.0 93.0 L 758.0 60.0 L 761.0 186.0 z" fill="rgb(255,217,194)" stroke="black"/>
  <text fill="rgb(9,33,173)" font-size="25" x="759.4" y="124.8">Rhood</text>
  <path d="M 893.0 186.0 L 932.0 153.0 L 968.0 162.0 Q 987.2 54.60000000000001 908.0 60.0 L 896.0 60.0 L 893.0 186.0 z" fill="rgb(255,217,194)" stroke="black"/>
  <text fill="rgb(9,33,173)" font-size="25" x="894.4" y="127.2">Lhood</text>
  <path d="M 1028.0 210.0 L 1034.0 129.0 Q 1065.1999999999998 113.1 1046.0 60.0 L 1028.0 60.0 L 1028.0 210.0 z" fill="rgb(255,217,194)" stroke="black"/>
  <text fill="rgb(9,33,173)" font-size="25" x="1009.0" y="117.75">lbsleeve</text>
  <path d="M 1149.0 210.0 L 1167.0 210.0 Q 1186.1999999999998 156.89999999999998 1155.0 141.0 L 1149.0 60.0 L 1149.0 210.0 z" fill="rgb(255,217,194)" stroke="black"/>
  <text fill="rgb(9,33,173)" font-size="25" x="1130.0" y="158.25">lfsleeve</text>
</svg>
