<?xml version="1.0" encoding="utf-8" ?>
<svg xmlns="http://www.w3.org/2000/svg" xmlns:ev="http://www.w3.org/2001/xml-events" xmlns:xlink="http://www.w3.org/1999/xlink" baseProfile="full" height="354px" version="1.1" width="1176px">
  <defs/>
  <path d="M 60 294 L 168 294 Q 166.95 94.35 153 60 L 90 60 Q 104.7 141.75 60 153 Q 74.1 160.05 60 294 z" fill="rgb(255,217,194)" stroke="black"/>
  <text fill="rgb(9,33,173)" font-size="25" x="81.2" y="175.2">Rback</text>
  <path d="M 228 294 L 336 294 Q 321.9 160.05 336 153 Q 295.95 140.25 306 60 L 243 60 Q 229.05 94.35 228 294 z" fill="rgb(255,217,194)" stroke="black"/>
  <text fill="rgb(9,33,173)" font-size="25" x="264.8" y="175.2">Rfront</text>
  <path d="M 411 168 L 477 168 L 543 168 L 558 111 Q 534.0 100.5 546 60 L 501 60 Q 477.0 78.7938016251315 453 60 L 408 60 Q 420.0 100.49999999999999 396 111 L 411 168 z" fill="rgb(255,217,194)" stroke="black"/>
  <text fill="rgb(9,33,173)" font-size="25" x="452.0" y="110.33333333333333">up_back</text>
  <path d="M 633 165 L 699 165 L 765 165 L 780 111 Q 756.0 100.5 768 60 L 723 60 L 699 69 L 675 60 L 630 60 Q 642.0 100.49999999999999 618 111 L 633 165 z" fill="rgb(255,217,194)" stroke="black"/>
  <text fill="rgb(9,33,173)" font-size="25" x="674.0" y="105.6">up_front</text>
  <path d="M 840 294 L 948 294 Q 933.9 160.05 948 153 Q 903.3 141.75 918 60 L 855 60 Q 841.05 94.35 840 294 z" fill="rgb(255,217,194)" stroke="black"/>
  <text fill="rgb(9,33,173)" font-size="25" x="876.8" y="175.2">Lback</text>
  <path d="M 1008 294 L 1116 294 Q 1114.95 94.35 1101 60 L 1038 60 Q 1048.05 140.25 1008 153 Q 1022.1 160.05 1008 294 z" fill="rgb(255,217,194)" stroke="black"/>
  <text fill="rgb(9,33,173)" font-size="25" x="1029.2" y="175.2">Lfront</text>
</svg>
