<?xml version="1.0" encoding="utf-8" ?>
<svg xmlns="http://www.w3.org/2000/svg" xmlns:ev="http://www.w3.org/2001/xml-events" xmlns:xlink="http://www.w3.org/1999/xlink" baseProfile="full" height="486.0px" version="1.1" width="1108.0px">
  <defs/>
  <path d="M 60 201 L 120 201 Q 141.6 143.7 108 126 L 60 60 L 60 201 z" fill="rgb(255,217,194)" stroke="black"/>
  <text fill="rgb(9,33,173)" font-size="25" x="62.0" y="150.0">rbsleeve</text>
  <path d="M 202.0 201.0 L 250.0 135.0 Q 283.6 117.3 262.0 60.0 L 202.0 60.0 L 202.0 201.0 z" fill="rgb(255,217,194)" stroke="black"/>
  <text fill="rgb(9,33,173)" font-size="25" x="204.0" y="117.0">rfsleeve</text>
  <path d="M 344.0 426.0 L 524.0 426.0 L 509.0 135.0 Q 475.4 117.3 497.0 60.0 L 455.0 60.0 Q 434.0 174.3310627234881 413.0 60.0 L 371.0 60.0 Q 392.6 117.3 359.0 135.0 L 344.0 426.0 z" fill="rgb(255,217,194)" stroke="black"/>
  <text fill="rgb(9,33,173)" font-size="25" x="409.0" y="173.25">back</text>
  <path d="M 584.0 426.0 L 764.0 426.0 L 749.0 135.0 Q 715.4 117.3 737.0 60.0 L 695.0 60.0 L 674.0 132.0 L 653.0 60.0 L 611.0 60.0 Q 632.6 117.3 599.0 135.0 L 584.0 426.0 z" fill="rgb(255,217,194)" stroke="black"/>
  <text fill="rgb(9,33,173)" font-size="25" x="649.0" y="169.0">front</text>
  <path d="M 824.0 201.0 L 872.0 135.0 Q 905.6 117.3 884.0 60.0 L 824.0 60.0 L 824.0 201.0 z" fill="rgb(255,217,194)" stroke="black"/>
  <text fill="rgb(9,33,173)" font-size="25" x="826.0" y="117.0">lbsleeve</text>
  <path d="M 966.0 201.0 L 1026.0 201.0 Q 1047.6 143.7 1014.0 126.0 L 966.0 60.0 L 966.0 201.0 z" fill="rgb(255,217,194)" stroke="black"/>
  <text fill="rgb(9,33,173)" font-size="25" x="968.0" y="150.0">lfsleeve</text>
</svg>
