<?xml version="1.0" encoding="utf-8" ?>
<svg xmlns="http://www.w3.org/2000/svg" xmlns:ev="http://www.w3.org/2001/xml-events" xmlns:xlink="http://www.w3.org/1999/xlink" baseProfile="full" height="372px" version="1.1" width="1164px">
  <defs/>
  <path d="M 60 312 L 114 312 Q 169.95 100.35000000000001 165 60 L 90 60 Q 104.7 141.75 60 153 Q 75.9 160.95 60 312 z" fill="rgb(255,217,194)" stroke="black"/>
  <text fill="rgb(9,33,173)" font-size="25" x="72.8" y="182.4">Rback</text>
  <path d="M 276 312 L 330 312 Q 314.1 160.95000000000002 330 153 Q 289.95 140.25 300 60 L 225 60 Q 220.05 100.35 276 312 z" fill="rgb(255,217,194)" stroke="black"/>
  <text fill="rgb(9,33,173)" font-size="25" x="267.2" y="182.4">Rfront</text>
  <path d="M 396 168 L 471 168 L 546 168 L 552 117 Q 525.6 104.7 540 60 L 501 60 Q 471.0 113.14832214739252 441 60 L 402 60 Q 416.40000000000003 104.7 390 117 L 396 168 z" fill="rgb(255,217,194)" stroke="black"/>
  <text fill="rgb(9,33,173)" font-size="25" x="446.0" y="111.66666666666667">up_back</text>
  <path d="M 618 165 L 693 165 L 768 165 L 774 114 Q 748.8 102.6 762 60 L 723 60 L 693 114 L 663 60 L 624 60 Q 637.2 102.6 612 114 L 618 165 z" fill="rgb(255,217,194)" stroke="black"/>
  <text fill="rgb(9,33,173)" font-size="25" x="668.0" y="110.7">up_front</text>
  <path d="M 885 312 L 939 312 Q 923.1 160.95000000000002 939 153 Q 894.3 141.75 909 60 L 834 60 Q 829.05 100.35 885 312 z" fill="rgb(255,217,194)" stroke="black"/>
  <text fill="rgb(9,33,173)" font-size="25" x="876.2" y="182.4">Lback</text>
  <path d="M 999 312 L 1053 312 Q 1108.9499999999998 100.35000000000001 1104 60 L 1029 60 Q 1039.05 140.25 999 153 Q 1014.9 160.95 999 312 z" fill="rgb(255,217,194)" stroke="black"/>
  <text fill="rgb(9,33,173)" font-size="25" x="1011.8" y="182.4">Lfront</text>
</svg>
