<?xml version="1.0" encoding="utf-8" ?>
<svg xmlns="http://www.w3.org/2000/svg" xmlns:ev="http://www.w3.org/2001/xml-events" xmlns:xlink="http://www.w3.org/1999/xlink" baseProfile="full" height="303.0px" version="1.1" width="1346.0px">
  <defs/>
  <path d="M 60 108 L 93 108 Q 105.9 70.80000000000001 84 60 L 60 60 L 60 108 z" fill="rgb(255,217,194)" stroke="black"/>
  <text fill="rgb(9,33,173)" font-size="25" x="49.25" y="87.0">rbsleeve</text>
  <text fill="rgb(245,96,66)" font-size="25" x="52.44730622922282" y="60.700726280796324">0</text>
  <text fill="rgb(245,96,66)" font-size="25" x="80.88188523477969" y="60.36766711438845">1</text>
  <text fill="rgb(245,96,66)" font-size="25" x="91.07822020986157" y="116.94012186862281">2</text>
  <text fill="rgb(245,96,66)" font-size="25" x="52.44730622922282" y="117.29927371920367">3</text>
  <text fill="rgb(50,179,101)" font-size="20" x="71.96670354346529" y="117.97817113029645">0</text>
  <text fill="rgb(50,179,101)" font-size="20" x="88.5" y="89.0">1</text>
  <text fill="rgb(50,179,101)" font-size="20" x="66.53329645653471" y="60.02182886970356">2</text>
  <text fill="rgb(50,179,101)" font-size="20" x="50.0" y="89.0">3</text>
  <path d="M 189.25 108.0 L 213.25 108.0 Q 235.14999999999998 97.19999999999999 222.25 60.0 L 189.25 60.0 L 189.25 108.0 z" fill="rgb(255,217,194)" stroke="black"/>
  <text fill="rgb(9,33,173)" font-size="25" x="178.5" y="87.0">rfsleeve</text>
  <text fill="rgb(245,96,66)" font-size="25" x="181.69730622922282" y="60.700726280796324">0</text>
  <text fill="rgb(245,96,66)" font-size="25" x="220.32822020986157" y="61.05987813137718">1</text>
  <text fill="rgb(245,96,66)" font-size="25" x="210.1318852347797" y="117.63233288561155">2</text>
  <text fill="rgb(245,96,66)" font-size="25" x="181.69730622922282" y="117.29927371920367">3</text>
  <text fill="rgb(50,179,101)" font-size="20" x="195.7832964565347" y="117.97817113029645">0</text>
  <text fill="rgb(50,179,101)" font-size="20" x="217.75" y="89.0">1</text>
  <text fill="rgb(50,179,101)" font-size="20" x="201.2167035434653" y="60.02182886970356">2</text>
  <text fill="rgb(50,179,101)" font-size="20" x="179.25" y="89.0">3</text>
  <path d="M 318.5 240.0 L 381.5 240.0 L 381.5 93.0 L 357.5 60.0 L 327.5 60.0 Q 340.4 97.19999999999999 318.5 108.0 L 318.5 240.0 z" fill="rgb(255,217,194)" stroke="black"/>
  <text fill="rgb(9,33,173)" font-size="25" x="322.5" y="136.5">front_right</text>
  <text fill="rgb(245,96,66)" font-size="25" x="379.71485154423925" y="94.17054448406795">0</text>
  <text fill="rgb(245,96,66)" font-size="25" x="353.1740620002431" y="60.04564429821311">1</text>
  <text fill="rgb(245,96,66)" font-size="25" x="321.187190286527" y="60.17542430298674">2</text>
  <text fill="rgb(245,96,66)" font-size="25" x="309.7451484303447" y="109.69832017151003">3</text>
  <text fill="rgb(245,96,66)" font-size="25" x="312.1863295701915" y="249.8243414060208">4</text>
  <text fill="rgb(245,96,66)" font-size="25" x="378.02063267271274" y="249.76315822482084">5</text>
  <text fill="rgb(50,179,101)" font-size="20" x="345.11733856752204" y="249.9986229764378">0</text>
  <text fill="rgb(50,179,101)" font-size="20" x="380.08790345814157" y="174.9823768858433">1</text>
  <text fill="rgb(50,179,101)" font-size="20" x="366.3003779702576" y="76.8353843497871">2</text>
  <text fill="rgb(50,179,101)" font-size="20" x="337.1606482485368" y="60.01152925349072">3</text>
  <text fill="rgb(50,179,101)" font-size="20" x="315.7820560131956" y="84.51884786339517">4</text>
  <text fill="rgb(50,179,101)" font-size="20" x="310.5890634432747" y="183.0652734671508">5</text>
  <path d="M 492.5 183.0 L 522.5 183.0 Q 589.1 172.2 552.5 87.0 L 528.5 96.0 L 501.5 60.0 L 492.5 183.0 z" fill="rgb(255,217,194)" stroke="black"/>
  <text fill="rgb(9,33,173)" font-size="25" x="494.5" y="124.8">Rhood</text>
  <text fill="rgb(245,96,66)" font-size="25" x="495.101789806363" y="60.19947833517965">0</text>
  <text fill="rgb(245,96,66)" font-size="25" x="525.1468607815915" y="96.27899909277112">1</text>
  <text fill="rgb(245,96,66)" font-size="25" x="550.9404579150464" y="88.37188074413282">2</text>
  <text fill="rgb(245,96,66)" font-size="25" x="517.7448040931273" y="192.99400349979734">3</text>
  <text fill="rgb(245,96,66)" font-size="25" x="485.48179896711855" y="192.57458900786466">4</text>
  <text fill="rgb(50,179,101)" font-size="20" x="501.53792769639495" y="192.90656874838578">0</text>
  <text fill="rgb(50,179,101)" font-size="20" x="536.5320249792785" y="142.95681831813758">1</text>
  <text fill="rgb(50,179,101)" font-size="20" x="538.3481652971512" y="92.39050435696747">2</text>
  <text fill="rgb(50,179,101)" font-size="20" x="509.4889912542262" y="78.02618154113534">3</text>
  <text fill="rgb(50,179,101)" font-size="20" x="487.000444385194" y="126.43333925846926">4</text>
  <path d="M 612.5 243.0 L 738.5 243.0 L 738.5 111.0 Q 715.4 99.3 729.5 60.0 L 699.5 60.0 L 675.5 69.0 L 651.5 60.0 L 621.5 60.0 Q 635.6 99.29999999999998 612.5 111.0 L 612.5 243.0 z" fill="rgb(255,217,194)" stroke="black"/>
  <text fill="rgb(9,33,173)" font-size="25" x="650.5" y="116.0">back</text>
  <text fill="rgb(245,96,66)" font-size="25" x="696.5625377665402" y="60.445229098890344">0</text>
  <text fill="rgb(245,96,66)" font-size="25" x="728.0684204424575" y="61.49766141758803">1</text>
  <text fill="rgb(245,96,66)" font-size="25" x="738.4974823764768" y="115.84134976582614">2</text>
  <text fill="rgb(245,96,66)" font-size="25" x="735.6805182920677" y="252.49948218998117">3</text>
  <text fill="rgb(245,96,66)" font-size="25" x="605.3194817079323" y="252.49948218998117">4</text>
  <text fill="rgb(245,96,66)" font-size="25" x="602.5025176235232" y="115.84134976582614">5</text>
  <text fill="rgb(245,96,66)" font-size="25" x="612.9315795575425" y="61.49766141758803">6</text>
  <text fill="rgb(245,96,66)" font-size="25" x="644.4374622334598" y="60.445229098890344">7</text>
  <text fill="rgb(245,96,66)" font-size="25" x="670.5" y="69.0">8</text>
  <text fill="rgb(50,179,101)" font-size="20" x="670.5" y="253.0">0</text>
  <text fill="rgb(50,179,101)" font-size="20" x="737.0075863225716" y="185.56326229594575">1</text>
  <text fill="rgb(50,179,101)" font-size="20" x="733.5249696138187" y="88.37287753196554">2</text>
  <text fill="rgb(50,179,101)" font-size="20" x="712.4634026382362" y="60.972811799320134">3</text>
  <text fill="rgb(50,179,101)" font-size="20" x="683.7009010137673" y="64.64635840269054">4</text>
  <text fill="rgb(50,179,101)" font-size="20" x="657.2990989862327" y="64.64635840269054">5</text>
  <text fill="rgb(50,179,101)" font-size="20" x="628.5365973617638" y="60.972811799320134">6</text>
  <text fill="rgb(50,179,101)" font-size="20" x="607.4750303861813" y="88.37287753196554">7</text>
  <text fill="rgb(50,179,101)" font-size="20" x="603.9924136774284" y="185.56326229594575">8</text>
  <path d="M 807.5 183.0 L 834.5 147.0 L 858.5 156.0 Q 895.1 70.80000000000001 828.5 60.0 L 798.5 60.0 L 807.5 183.0 z" fill="rgb(255,217,194)" stroke="black"/>
  <text fill="rgb(9,33,173)" font-size="25" x="800.5" y="124.2">Lhood</text>
  <text fill="rgb(245,96,66)" font-size="25" x="791.4817989671185" y="60.42541099213534">0</text>
  <text fill="rgb(245,96,66)" font-size="25" x="823.7448040931273" y="60.005996500202656">1</text>
  <text fill="rgb(245,96,66)" font-size="25" x="856.9404579150464" y="164.62811925586718">2</text>
  <text fill="rgb(245,96,66)" font-size="25" x="831.1468607815915" y="156.72100090722887">3</text>
  <text fill="rgb(245,96,66)" font-size="25" x="801.1017898063631" y="192.80052166482037">4</text>
  <text fill="rgb(50,179,101)" font-size="20" x="815.4889912542262" y="174.97381845886466">0</text>
  <text fill="rgb(50,179,101)" font-size="20" x="844.3481652971512" y="160.60949564303252">1</text>
  <text fill="rgb(50,179,101)" font-size="20" x="842.5320249792785" y="110.04318168186241">2</text>
  <text fill="rgb(50,179,101)" font-size="20" x="807.537927696395" y="60.09343125161421">3</text>
  <text fill="rgb(50,179,101)" font-size="20" x="793.000444385194" y="126.56666074153074">4</text>
  <path d="M 918.5 240.0 L 981.5 240.0 L 981.5 108.0 Q 959.5999999999999 97.19999999999999 972.5 60.0 L 942.5 60.0 L 918.5 93.0 L 918.5 240.0 z" fill="rgb(255,217,194)" stroke="black"/>
  <text fill="rgb(9,33,173)" font-size="25" x="927.5" y="136.5">front_left</text>
  <text fill="rgb(245,96,66)" font-size="25" x="910.2851484557607" y="94.17054448406795">0</text>
  <text fill="rgb(245,96,66)" font-size="25" x="911.9793673272873" y="249.76315822482084">1</text>
  <text fill="rgb(245,96,66)" font-size="25" x="977.8136704298084" y="249.8243414060208">2</text>
  <text fill="rgb(245,96,66)" font-size="25" x="980.2548515696552" y="109.69832017151003">3</text>
  <text fill="rgb(245,96,66)" font-size="25" x="968.812809713473" y="60.17542430298674">4</text>
  <text fill="rgb(245,96,66)" font-size="25" x="936.8259379997569" y="60.04564429821311">5</text>
  <text fill="rgb(50,179,101)" font-size="20" x="944.882661432478" y="249.9986229764378">0</text>
  <text fill="rgb(50,179,101)" font-size="20" x="979.4109365567252" y="183.0652734671508">1</text>
  <text fill="rgb(50,179,101)" font-size="20" x="974.2179439868045" y="84.51884786339517">2</text>
  <text fill="rgb(50,179,101)" font-size="20" x="952.8393517514633" y="60.01152925349072">3</text>
  <text fill="rgb(50,179,101)" font-size="20" x="923.6996220297424" y="76.8353843497871">4</text>
  <text fill="rgb(50,179,101)" font-size="20" x="909.9120965418584" y="174.9823768858433">5</text>
  <path d="M 1087.5 108.0 L 1111.5 108.0 Q 1133.4 97.19999999999999 1120.5 60.0 L 1087.5 60.0 L 1087.5 108.0 z" fill="rgb(255,217,194)" stroke="black"/>
  <text fill="rgb(9,33,173)" font-size="25" x="1076.75" y="87.0">lbsleeve</text>
  <text fill="rgb(245,96,66)" font-size="25" x="1079.947306229223" y="60.700726280796324">0</text>
  <text fill="rgb(245,96,66)" font-size="25" x="1118.5782202098617" y="61.05987813137718">1</text>
  <text fill="rgb(245,96,66)" font-size="25" x="1108.3818852347797" y="117.63233288561155">2</text>
  <text fill="rgb(245,96,66)" font-size="25" x="1079.947306229223" y="117.29927371920367">3</text>
  <text fill="rgb(50,179,101)" font-size="20" x="1094.0332964565348" y="117.97817113029645">0</text>
  <text fill="rgb(50,179,101)" font-size="20" x="1116.0" y="89.0">1</text>
  <text fill="rgb(50,179,101)" font-size="20" x="1099.4667035434652" y="60.02182886970356">2</text>
  <text fill="rgb(50,179,101)" font-size="20" x="1077.5" y="89.0">3</text>
  <path d="M 1216.75 108.0 L 1249.75 108.0 Q 1262.65 70.80000000000001 1240.75 60.0 L 1216.75 60.0 L 1216.75 108.0 z" fill="rgb(255,217,194)" stroke="black"/>
  <text fill="rgb(9,33,173)" font-size="25" x="1206.0" y="87.0">lfsleeve</text>
  <text fill="rgb(245,96,66)" font-size="25" x="1209.197306229223" y="60.700726280796324">0</text>
  <text fill="rgb(245,96,66)" font-size="25" x="1237.6318852347797" y="60.36766711438845">1</text>
  <text fill="rgb(245,96,66)" font-size="25" x="1247.8282202098617" y="116.94012186862281">2</text>
  <text fill="rgb(245,96,66)" font-size="25" x="1209.197306229223" y="117.29927371920367">3</text>
  <text fill="rgb(50,179,101)" font-size="20" x="1228.7167035434652" y="117.97817113029645">0</text>
  <text fill="rgb(50,179,101)" font-size="20" x="1245.25" y="89.0">1</text>
  <text fill="rgb(50,179,101)" font-size="20" x="1223.2832964565348" y="60.02182886970356">2</text>
  <text fill="rgb(50,179,101)" font-size="20" x="1206.75" y="89.0">3</text>
</svg>
