<?xml version="1.0" encoding="utf-8" ?>
<svg xmlns="http://www.w3.org/2000/svg" xmlns:ev="http://www.w3.org/2001/xml-events" xmlns:xlink="http://www.w3.org/1999/xlink" baseProfile="full" height="228px" version="1.1" width="1008px">
  <defs/>
  <path d="M 60 162 Q 153.0 253.72519063493186 246 162 L 225 102 L 225 60 L 81 60 L 81 102 L 60 162 z" fill="rgb(255,217,194)" stroke="black"/>
  <text fill="rgb(9,33,173)" font-size="25" x="128.0" y="111.0">skirt_back</text>
  <path d="M 306 162 Q 399.0 205.75962777297866 492 162 L 471 102 L 471 60 L 327 60 L 327 102 L 306 162 z" fill="rgb(255,217,194)" stroke="black"/>
  <text fill="rgb(9,33,173)" font-size="25" x="374.0" y="111.0">skirt_front</text>
  <path d="M 564 168 L 708 168 L 720 141 Q 683.1 122.7 705 60 L 681 60 Q 636.0 127.17585013274545 591 60 L 567 60 Q 588.9 122.69999999999999 552 141 L 564 168 z" fill="rgb(255,217,194)" stroke="black"/>
  <text fill="rgb(9,33,173)" font-size="25" x="611.0" y="110.25">top_back</text>
  <path d="M 792 165 L 936 165 L 948 141 Q 911.1 122.7 933 60 L 909 60 L 864 111 L 819 60 L 795 60 Q 816.9 122.69999999999999 780 141 L 792 165 z" fill="rgb(255,217,194)" stroke="black"/>
  <text fill="rgb(9,33,173)" font-size="25" x="839.0" y="110.0">top_front</text>
</svg>
