<?xml version="1.0" encoding="utf-8" ?>
<svg xmlns="http://www.w3.org/2000/svg" xmlns:ev="http://www.w3.org/2001/xml-events" xmlns:xlink="http://www.w3.org/1999/xlink" baseProfile="full" height="363px" version="1.1" width="1932px">
  <defs/>
  <path d="M 60 216 L 183 216 Q 192.6 179.7 171 171 L 60 60 L 60 216 z" fill="rgb(255,217,194)" stroke="black"/>
  <text fill="rgb(9,33,173)" font-size="25" x="93.5" y="168.75">rbsleeve</text>
  <path d="M 243 216 L 354 105 Q 375.6 96.3 366 60 L 243 60 L 243 216 z" fill="rgb(255,217,194)" stroke="black"/>
  <text fill="rgb(9,33,173)" font-size="25" x="276.5" y="113.25">rfsleeve</text>
  <path d="M 426 303 L 540 303 Q 547.05 96.15000000000002 534 60 L 456 60 Q 470.7 141.75 426 153 Q 441.0 160.5 426 303 z" fill="rgb(255,217,194)" stroke="black"/>
  <text fill="rgb(9,33,173)" font-size="25" x="451.4" y="178.8">Rback</text>
  <path d="M 600 303 L 714 303 Q 699.0 160.5 714 153 Q 673.95 140.25 684 60 L 606 60 Q 592.95 96.14999999999999 600 303 z" fill="rgb(255,217,194)" stroke="black"/>
  <text fill="rgb(9,33,173)" font-size="25" x="638.6" y="178.8">Rfront</text>
  <path d="M 774 168 L 855 168 L 936 168 L 924 108 Q 901.1999999999999 98.39999999999999 912 60 L 876 60 Q 855.0 99.25867951547662 834 60 L 798 60 Q 808.8000000000001 98.39999999999999 786 108 L 774 168 z" fill="rgb(255,217,194)" stroke="black"/>
  <text fill="rgb(9,33,173)" font-size="25" x="830.0" y="109.66666666666667">up_back</text>
  <path d="M 996 165 L 1077 165 L 1158 165 L 1146 105 Q 1124.4 96.3 1134 60 L 1098 60 L 1077 135 L 1056 60 L 1020 60 Q 1029.6 96.3 1008 105 L 996 165 z" fill="rgb(255,217,194)" stroke="black"/>
  <text fill="rgb(9,33,173)" font-size="25" x="1052.0" y="111.0">up_front</text>
  <path d="M 1218 303 L 1332 303 Q 1317.0 160.5 1332 153 Q 1287.3 141.75 1302 60 L 1224 60 Q 1210.9499999999998 96.14999999999999 1218 303 z" fill="rgb(255,217,194)" stroke="black"/>
  <text fill="rgb(9,33,173)" font-size="25" x="1256.6" y="178.8">Lback</text>
  <path d="M 1392 303 L 1506 303 Q 1513.0500000000002 96.15000000000002 1500 60 L 1422 60 Q 1432.05 140.25 1392 153 Q 1407.0 160.5 1392 303 z" fill="rgb(255,217,194)" stroke="black"/>
  <text fill="rgb(9,33,173)" font-size="25" x="1417.4" y="178.8">Lfront</text>
  <path d="M 1566 216 L 1677 105 Q 1698.6 96.3 1689 60 L 1566 60 L 1566 216 z" fill="rgb(255,217,194)" stroke="black"/>
  <text fill="rgb(9,33,173)" font-size="25" x="1599.5" y="113.25">lbsleeve</text>
  <path d="M 1749 216 L 1872 216 Q 1881.6 179.7 1860 171 L 1749 60 L 1749 216 z" fill="rgb(255,217,194)" stroke="black"/>
  <text fill="rgb(9,33,173)" font-size="25" x="1782.5" y="168.75">lfsleeve</text>
</svg>
