<?xml version="1.0" encoding="utf-8" ?>
<svg xmlns="http://www.w3.org/2000/svg" xmlns:ev="http://www.w3.org/2001/xml-events" xmlns:xlink="http://www.w3.org/1999/xlink" baseProfile="full" height="372px" version="1.1" width="1104.2px">
  <defs/>
  <path d="M 60 312 L 105 312 Q 163.5 100.50000000000001 159 60 L 90 60 Q 104.7 141.75 60 153 Q 75.9 160.95 60 312 z" fill="rgb(255,217,194)" stroke="black"/>
  <text fill="rgb(9,33,173)" font-size="25" x="69.8" y="182.4">Rback</text>
  <path d="M 273 312 L 318 312 Q 302.1 160.95000000000002 318 153 Q 277.95 140.25 288 60 L 219 60 Q 214.5 100.5 273 312 z" fill="rgb(255,217,194)" stroke="black"/>
  <text fill="rgb(9,33,173)" font-size="25" x="258.2" y="182.4">Rfront</text>
  <path d="M 378.2 168.0 L 450.2 168.0 L 522.2 168.0 L 516.2 123.0 Q 487.40000000000003 108.90000000000002 504.2 60.0 L 486.2 60.0 Q 450.2 84.56365321493078 414.2 60.0 L 396.2 60.0 Q 413.0 108.89999999999999 384.2 123.0 L 378.2 168.0 z" fill="rgb(255,217,194)" stroke="black"/>
  <text fill="rgb(9,33,173)" font-size="25" x="425.19999999999993" y="113.0">up_back</text>
  <path d="M 582.2 165.0 L 654.2 165.0 L 726.2 165.0 L 720.2 123.0 Q 691.4 108.89999999999999 708.2 60.0 L 690.2 60.0 L 654.2 126.0 L 618.2 60.0 L 600.2 60.0 Q 617.0000000000001 108.89999999999999 588.2 123.0 L 582.2 165.0 z" fill="rgb(255,217,194)" stroke="black"/>
  <text fill="rgb(9,33,173)" font-size="25" x="629.1999999999999" y="113.7">up_front</text>
  <path d="M 840.2 312.0 L 885.2 312.0 Q 869.3000000000001 160.95000000000002 885.2 153.0 Q 840.5 141.75 855.2 60.0 L 786.2 60.0 Q 781.7 100.5 840.2 312.0 z" fill="rgb(255,217,194)" stroke="black"/>
  <text fill="rgb(9,33,173)" font-size="25" x="825.4" y="182.4">Lback</text>
  <path d="M 945.2 312.0 L 990.2 312.0 Q 1048.7 100.50000000000001 1044.2 60.0 L 975.2 60.0 Q 985.25 140.25 945.2 153.0 Q 961.1 160.95 945.2 312.0 z" fill="rgb(255,217,194)" stroke="black"/>
  <text fill="rgb(9,33,173)" font-size="25" x="955.0" y="182.4">Lfront</text>
</svg>
