<?xml version="1.0" encoding="utf-8" ?>
<svg xmlns="http://www.w3.org/2000/svg" xmlns:ev="http://www.w3.org/2001/xml-events" xmlns:xlink="http://www.w3.org/1999/xlink" baseProfile="full" height="231px" version="1.1" width="1563.0px">
  <defs/>
  <path d="M 60 171 L 138 171 L 210 60 L 90 60 Q 99.9 132.75 60 141 Q 63.0 142.5 60 171 z" fill="rgb(255,217,194)" stroke="black"/>
  <text fill="rgb(9,33,173)" font-size="25" x="86.6" y="123.6">Rback</text>
  <path d="M 342 171 L 420 171 Q 417.0 142.5 420 141 Q 384.15 131.25 390 60 L 270 60 L 342 171 z" fill="rgb(255,217,194)" stroke="black"/>
  <text fill="rgb(9,33,173)" font-size="25" x="343.4" y="123.6">Rfront</text>
  <path d="M 480 75 L 519 75 L 558 75 L 558 60 L 480 60 L 480 75 z" fill="rgb(255,217,194)" stroke="black"/>
  <text fill="rgb(9,33,173)" font-size="25" x="494.0" y="72.0">wb_back</text>
  <path d="M 624.0 75.0 L 663.0 75.0 L 702.0 75.0 L 702.0 60.0 L 624.0 60.0 L 624.0 75.0 z" fill="rgb(255,217,194)" stroke="black"/>
  <text fill="rgb(9,33,173)" font-size="25" x="638.0" y="72.0">wb_front</text>
  <path d="M 778.0 171.0 L 898.0 171.0 L 898.0 135.0 Q 865.3 116.1 889.0 60.0 L 853.0 60.0 Q 838.0 110.36605119874227 823.0 60.0 L 787.0 60.0 Q 810.7 116.1 778.0 135.0 L 778.0 171.0 z" fill="rgb(255,217,194)" stroke="black"/>
  <text fill="rgb(9,33,173)" font-size="25" x="813.0" y="109.5">top_back</text>
  <path d="M 958.0 171.0 L 1078.0 171.0 L 1078.0 135.0 Q 1045.3 116.1 1069.0 60.0 L 1033.0 60.0 L 1018.0 120.0 L 1003.0 60.0 L 967.0 60.0 Q 990.7 116.1 958.0 135.0 L 958.0 171.0 z" fill="rgb(255,217,194)" stroke="black"/>
  <text fill="rgb(9,33,173)" font-size="25" x="993.0" y="111.0">top_front</text>
  <path d="M 1215.0 171.0 L 1293.0 171.0 Q 1290.0 142.5 1293.0 141.0 Q 1253.1 132.75 1263.0 60.0 L 1143.0 60.0 L 1215.0 171.0 z" fill="rgb(255,217,194)" stroke="black"/>
  <text fill="rgb(9,33,173)" font-size="25" x="1216.4" y="123.6">Lback</text>
  <path d="M 1353.0 171.0 L 1431.0 171.0 L 1503.0 60.0 L 1383.0 60.0 Q 1388.85 131.25 1353.0 141.0 Q 1356.0 142.5 1353.0 171.0 z" fill="rgb(255,217,194)" stroke="black"/>
  <text fill="rgb(9,33,173)" font-size="25" x="1379.6" y="123.6">Lfront</text>
</svg>
