<?xml version="1.0" encoding="utf-8" ?>
<svg xmlns="http://www.w3.org/2000/svg" xmlns:ev="http://www.w3.org/2001/xml-events" xmlns:xlink="http://www.w3.org/1999/xlink" baseProfile="full" height="291px" version="1.1" width="1738.0px">
  <defs/>
  <path d="M 60 231 L 81 231 Q 106.19999999999999 167.39999999999998 69 147 L 60 60 L 60 231 z" fill="rgb(255,217,194)" stroke="black"/>
  <text fill="rgb(9,33,173)" font-size="25" x="42.5" y="170.25">rbsleeve</text>
  <path d="M 182.5 231.0 L 191.5 144.0 Q 228.7 123.6 203.5 60.0 L 182.5 60.0 L 182.5 231.0 z" fill="rgb(255,217,194)" stroke="black"/>
  <text fill="rgb(9,33,173)" font-size="25" x="165.0" y="126.75">rfsleeve</text>
  <path d="M 305.0 186.0 L 431.0 186.0 Q 424.55 78.15 416.0 60.0 L 335.0 60.0 Q 349.7 141.75 305.0 153.0 Q 308.3 154.65 305.0 186.0 z" fill="rgb(255,217,194)" stroke="black"/>
  <text fill="rgb(9,33,173)" font-size="25" x="333.4" y="132.0">Rback</text>
  <path d="M 491.0 186.0 L 617.0 186.0 Q 613.7 154.65 617.0 153.0 Q 576.95 140.25 587.0 60.0 L 506.0 60.0 Q 497.45 78.15 491.0 186.0 z" fill="rgb(255,217,194)" stroke="black"/>
  <text fill="rgb(9,33,173)" font-size="25" x="538.6" y="132.0">Rfront</text>
  <path d="M 677.0 168.0 L 758.0 168.0 L 839.0 168.0 L 821.0 141.0 Q 785.9 120.3 812.0 60.0 L 773.0 60.0 Q 758.0 88.78721003085116 743.0 60.0 L 704.0 60.0 Q 730.1 120.29999999999998 695.0 141.0 L 677.0 168.0 z" fill="rgb(255,217,194)" stroke="black"/>
  <text fill="rgb(9,33,173)" font-size="25" x="733.0" y="117.0">up_back</text>
  <path d="M 899.0 165.0 L 980.0 165.0 L 1061.0 165.0 L 1043.0 141.0 Q 1007.9 120.3 1034.0 60.0 L 995.0 60.0 L 980.0 135.0 L 965.0 60.0 L 926.0 60.0 Q 952.1 120.29999999999998 917.0 141.0 L 899.0 165.0 z" fill="rgb(255,217,194)" stroke="black"/>
  <text fill="rgb(9,33,173)" font-size="25" x="955.0" y="118.2">up_front</text>
  <path d="M 1121.0 186.0 L 1247.0 186.0 Q 1243.7 154.65 1247.0 153.0 Q 1202.3 141.75 1217.0 60.0 L 1136.0 60.0 Q 1127.45 78.15 1121.0 186.0 z" fill="rgb(255,217,194)" stroke="black"/>
  <text fill="rgb(9,33,173)" font-size="25" x="1168.6" y="132.0">Lback</text>
  <path d="M 1307.0 186.0 L 1433.0 186.0 Q 1426.55 78.15 1418.0 60.0 L 1337.0 60.0 Q 1347.05 140.25 1307.0 153.0 Q 1310.3 154.65 1307.0 186.0 z" fill="rgb(255,217,194)" stroke="black"/>
  <text fill="rgb(9,33,173)" font-size="25" x="1335.4" y="132.0">Lfront</text>
  <path d="M 1493.0 231.0 L 1502.0 144.0 Q 1539.1999999999998 123.6 1514.0 60.0 L 1493.0 60.0 L 1493.0 231.0 z" fill="rgb(255,217,194)" stroke="black"/>
  <text fill="rgb(9,33,173)" font-size="25" x="1475.5" y="126.75">lbsleeve</text>
  <path d="M 1615.5 231.0 L 1636.5 231.0 Q 1661.6999999999998 167.39999999999998 1624.5 147.0 L 1615.5 60.0 L 1615.5 231.0 z" fill="rgb(255,217,194)" stroke="black"/>
  <text fill="rgb(9,33,173)" font-size="25" x="1598.0" y="170.25">lfsleeve</text>
</svg>
