<?xml version="1.0" encoding="utf-8" ?>
<svg xmlns="http://www.w3.org/2000/svg" xmlns:ev="http://www.w3.org/2001/xml-events" xmlns:xlink="http://www.w3.org/1999/xlink" baseProfile="full" height="288px" version="1.1" width="1624.0px">
  <defs/>
  <path d="M 60 228 L 186 228 Q 210.0 166.5 174 147 L 60 60 L 60 228 z" fill="rgb(255,217,194)" stroke="black"/>
  <text fill="rgb(9,33,173)" font-size="25" x="95.0" y="168.75">rbsleeve</text>
  <path d="M 246 228 L 360 141 Q 396.0 121.5 372 60 L 246 60 L 246 228 z" fill="rgb(255,217,194)" stroke="black"/>
  <text fill="rgb(9,33,173)" font-size="25" x="281.0" y="125.25">rfsleeve</text>
  <path d="M 444 159 Q 504.0 197.87114920553722 564 159 L 576 102 L 573 60 L 435 60 L 432 102 L 444 159 z" fill="rgb(255,217,194)" stroke="black"/>
  <text fill="rgb(9,33,173)" font-size="25" x="479.0" y="110.0">skirt_back</text>
  <path d="M 651.0 159.0 Q 711.0 197.72845645297775 771.0 159.0 L 783.0 102.0 L 780.0 60.0 L 642.0 60.0 L 639.0 102.0 L 651.0 159.0 z" fill="rgb(255,217,194)" stroke="black"/>
  <text fill="rgb(9,33,173)" font-size="25" x="686.0" y="110.0">skirt_front</text>
  <path d="M 856.0 168.0 L 994.0 168.0 L 994.0 141.0 Q 958.9 120.3 985.0 60.0 L 958.0 60.0 Q 925.0 93.02046792926478 892.0 60.0 L 865.0 60.0 Q 891.1 120.29999999999998 856.0 141.0 L 856.0 168.0 z" fill="rgb(255,217,194)" stroke="black"/>
  <text fill="rgb(9,33,173)" font-size="25" x="900.0" y="110.25">top_back</text>
  <path d="M 1054.0 165.0 L 1192.0 165.0 L 1192.0 141.0 Q 1156.8999999999999 120.3 1183.0 60.0 L 1156.0 60.0 L 1123.0 87.0 L 1090.0 60.0 L 1063.0 60.0 Q 1089.1000000000001 120.29999999999998 1054.0 141.0 L 1054.0 165.0 z" fill="rgb(255,217,194)" stroke="black"/>
  <text fill="rgb(9,33,173)" font-size="25" x="1098.0" y="107.33333333333333">top_front</text>
  <path d="M 1252.0 228.0 L 1366.0 141.0 Q 1402.0 121.5 1378.0 60.0 L 1252.0 60.0 L 1252.0 228.0 z" fill="rgb(255,217,194)" stroke="black"/>
  <text fill="rgb(9,33,173)" font-size="25" x="1287.0" y="125.25">lbsleeve</text>
  <path d="M 1438.0 228.0 L 1564.0 228.0 Q 1588.0 166.5 1552.0 147.0 L 1438.0 60.0 L 1438.0 228.0 z" fill="rgb(255,217,194)" stroke="black"/>
  <text fill="rgb(9,33,173)" font-size="25" x="1473.0" y="168.75">lfsleeve</text>
</svg>
