<?xml version="1.0" encoding="utf-8" ?>
<svg xmlns="http://www.w3.org/2000/svg" xmlns:ev="http://www.w3.org/2001/xml-events" xmlns:xlink="http://www.w3.org/1999/xlink" baseProfile="full" height="381px" version="1.1" width="1470.0px">
  <defs/>
  <path d="M 60 321 L 372 321 L 372 60 L 60 60 L 60 321 z" fill="rgb(255,217,194)" stroke="black"/>
  <text fill="rgb(9,33,173)" font-size="25" x="191.0" y="193.5">skirt_back</text>
  <path d="M 432 75 L 522 75 L 522 60 L 432 60 L 432 75 z" fill="rgb(255,217,194)" stroke="black"/>
  <text fill="rgb(9,33,173)" font-size="25" x="452.0" y="70.5">wb_back</text>
  <path d="M 582 75 L 672 75 L 672 60 L 582 60 L 582 75 z" fill="rgb(255,217,194)" stroke="black"/>
  <text fill="rgb(9,33,173)" font-size="25" x="602.0" y="70.5">wb_front</text>
  <path d="M 742.0 321.0 L 1054.0 321.0 L 1054.0 60.0 L 742.0 60.0 L 742.0 321.0 z" fill="rgb(255,217,194)" stroke="black"/>
  <text fill="rgb(9,33,173)" font-size="25" x="873.0" y="193.5">skirt_front</text>
  <path d="M 1114.0 159.0 L 1228.0 159.0 L 1228.0 132.0 Q 1196.5 114.0 1219.0 60.0 L 1198.0 60.0 Q 1171.0 152.59532130538116 1144.0 60.0 L 1123.0 60.0 Q 1145.5 114.0 1114.0 132.0 L 1114.0 159.0 z" fill="rgb(255,217,194)" stroke="black"/>
  <text fill="rgb(9,33,173)" font-size="25" x="1146.0" y="105.75">top_back</text>
  <path d="M 1288.0 159.0 L 1402.0 159.0 L 1402.0 132.0 Q 1370.5 114.0 1393.0 60.0 L 1372.0 60.0 L 1345.0 81.0 L 1318.0 60.0 L 1297.0 60.0 Q 1319.5 114.0 1288.0 132.0 L 1288.0 159.0 z" fill="rgb(255,217,194)" stroke="black"/>
  <text fill="rgb(9,33,173)" font-size="25" x="1320.0" y="103.33333333333333">top_front</text>
</svg>
