<?xml version="1.0" encoding="utf-8" ?>
<svg xmlns="http://www.w3.org/2000/svg" xmlns:ev="http://www.w3.org/2001/xml-events" xmlns:xlink="http://www.w3.org/1999/xlink" baseProfile="full" height="423px" version="1.1" width="1164px">
  <defs/>
  <path d="M 60 363 L 138 363 Q 178.65 106.94999999999999 168 60 L 90 60 Q 104.7 141.75 60 153 Q 81.0 163.5 60 363 z" fill="rgb(255,217,194)" stroke="black"/>
  <text fill="rgb(9,33,173)" font-size="25" x="78.2" y="202.8">Rback</text>
  <path d="M 258 363 L 336 363 Q 315.0 163.5 336 153 Q 295.95 140.25 306 60 L 228 60 Q 217.35 106.94999999999999 258 363 z" fill="rgb(255,217,194)" stroke="black"/>
  <text fill="rgb(9,33,173)" font-size="25" x="267.8" y="202.8">Rfront</text>
  <path d="M 396 168 L 474 168 L 552 168 L 540 147 Q 502.49999999999994 124.5 531 60 L 510 60 Q 474.0 163.16899741522712 438 60 L 417 60 Q 445.5 124.5 408 147 L 396 168 z" fill="rgb(255,217,194)" stroke="black"/>
  <text fill="rgb(9,33,173)" font-size="25" x="449.0" y="118.33333333333333">up_back</text>
  <path d="M 612 165 L 690 165 L 768 165 L 756 144 Q 719.6999999999999 122.39999999999999 747 60 L 726 60 L 690 78 L 654 60 L 633 60 Q 660.3000000000001 122.39999999999999 624 144 L 612 165 z" fill="rgb(255,217,194)" stroke="black"/>
  <text fill="rgb(9,33,173)" font-size="25" x="665.0" y="113.1">up_front</text>
  <path d="M 858 363 L 936 363 Q 915.0 163.5 936 153 Q 891.3 141.75 906 60 L 828 60 Q 817.35 106.94999999999999 858 363 z" fill="rgb(255,217,194)" stroke="black"/>
  <text fill="rgb(9,33,173)" font-size="25" x="867.8" y="202.8">Lback</text>
  <path d="M 996 363 L 1074 363 Q 1114.65 106.94999999999999 1104 60 L 1026 60 Q 1036.05 140.25 996 153 Q 1017.0 163.5 996 363 z" fill="rgb(255,217,194)" stroke="black"/>
  <text fill="rgb(9,33,173)" font-size="25" x="1014.2" y="202.8">Lfront</text>
</svg>
