<?xml version="1.0" encoding="utf-8" ?>
<svg xmlns="http://www.w3.org/2000/svg" xmlns:ev="http://www.w3.org/2001/xml-events" xmlns:xlink="http://www.w3.org/1999/xlink" baseProfile="full" height="285px" version="1.1" width="1246.0px">
  <defs/>
  <path d="M 60 225 L 240 225 L 240 60 L 60 60 L 60 225 z" fill="rgb(255,217,194)" stroke="black"/>
  <text fill="rgb(9,33,173)" font-size="25" x="125.0" y="145.5">skirt_back</text>
  <path d="M 300 72 L 390 72 L 390 60 L 300 60 L 300 72 z" fill="rgb(255,217,194)" stroke="black"/>
  <text fill="rgb(9,33,173)" font-size="25" x="320.0" y="69.0">wb_back</text>
  <path d="M 450 72 L 540 72 L 540 60 L 450 60 L 450 72 z" fill="rgb(255,217,194)" stroke="black"/>
  <text fill="rgb(9,33,173)" font-size="25" x="470.0" y="69.0">wb_front</text>
  <path d="M 610.0 225.0 L 790.0 225.0 L 790.0 60.0 L 610.0 60.0 L 610.0 225.0 z" fill="rgb(255,217,194)" stroke="black"/>
  <text fill="rgb(9,33,173)" font-size="25" x="675.0" y="145.5">skirt_front</text>
  <path d="M 850.0 165.0 L 988.0 165.0 L 988.0 126.0 Q 958.9 109.8 979.0 60.0 L 955.0 60.0 Q 919.0 119.37610104048616 883.0 60.0 L 859.0 60.0 Q 879.1 109.79999999999998 850.0 126.0 L 850.0 165.0 z" fill="rgb(255,217,194)" stroke="black"/>
  <text fill="rgb(9,33,173)" font-size="25" x="894.0" y="105.75">top_back</text>
  <path d="M 1048.0 165.0 L 1186.0 165.0 L 1186.0 123.0 Q 1158.1 107.69999999999999 1177.0 60.0 L 1153.0 60.0 L 1117.0 105.0 L 1081.0 60.0 L 1057.0 60.0 Q 1075.9 107.69999999999999 1048.0 123.0 L 1048.0 165.0 z" fill="rgb(255,217,194)" stroke="black"/>
  <text fill="rgb(9,33,173)" font-size="25" x="1092.0" y="105.33333333333333">top_front</text>
</svg>
