<?xml version="1.0" encoding="utf-8" ?>
<svg xmlns="http://www.w3.org/2000/svg" xmlns:ev="http://www.w3.org/2001/xml-events" xmlns:xlink="http://www.w3.org/1999/xlink" baseProfile="full" height="354px" version="1.1" width="1534.0px">
  <defs/>
  <path d="M 60 294 L 177 294 L 192 60 L 90 60 Q 107.1 146.25 60 159 Q 73.5 165.75 60 294 z" fill="rgb(255,217,194)" stroke="black"/>
  <text fill="rgb(9,33,173)" font-size="25" x="90.8" y="176.4">Rback</text>
  <path d="M 267 294 L 384 294 Q 370.5 165.75 384 159 Q 341.85 144.75 354 60 L 252 60 L 267 294 z" fill="rgb(255,217,194)" stroke="black"/>
  <text fill="rgb(9,33,173)" font-size="25" x="303.2" y="176.4">Rfront</text>
  <path d="M 444 72 L 483 72 L 522 72 L 522 60 L 444 60 L 444 72 z" fill="rgb(255,217,194)" stroke="black"/>
  <text fill="rgb(9,33,173)" font-size="25" x="458.0" y="70.2">wb_back</text>
  <path d="M 588.0 72.0 L 627.0 72.0 L 666.0 72.0 L 666.0 60.0 L 588.0 60.0 L 588.0 72.0 z" fill="rgb(255,217,194)" stroke="black"/>
  <text fill="rgb(9,33,173)" font-size="25" x="602.0" y="70.2">wb_front</text>
  <path d="M 742.0 141.0 L 886.0 141.0 L 886.0 132.0 Q 853.6 115.2 874.0 60.0 L 835.0 60.0 Q 814.0 72.07251719819884 793.0 60.0 L 754.0 60.0 Q 774.4 115.2 742.0 132.0 L 742.0 141.0 z" fill="rgb(255,217,194)" stroke="black"/>
  <text fill="rgb(9,33,173)" font-size="25" x="789.0" y="101.25">top_back</text>
  <path d="M 946.0 141.0 L 1090.0 141.0 L 1090.0 132.0 Q 1057.6000000000001 115.2 1078.0 60.0 L 1039.0 60.0 L 1018.0 84.0 L 997.0 60.0 L 958.0 60.0 Q 978.4 115.2 946.0 132.0 L 946.0 141.0 z" fill="rgb(255,217,194)" stroke="black"/>
  <text fill="rgb(9,33,173)" font-size="25" x="993.0" y="99.66666666666667">top_front</text>
  <path d="M 1165.0 294.0 L 1282.0 294.0 Q 1268.5 165.75 1282.0 159.0 Q 1234.9 146.25 1252.0 60.0 L 1150.0 60.0 L 1165.0 294.0 z" fill="rgb(255,217,194)" stroke="black"/>
  <text fill="rgb(9,33,173)" font-size="25" x="1201.2" y="176.4">Lback</text>
  <path d="M 1342.0 294.0 L 1459.0 294.0 L 1474.0 60.0 L 1372.0 60.0 Q 1384.15 144.75 1342.0 159.0 Q 1355.5 165.75 1342.0 294.0 z" fill="rgb(255,217,194)" stroke="black"/>
  <text fill="rgb(9,33,173)" font-size="25" x="1372.8" y="176.4">Lfront</text>
</svg>
