<?xml version="1.0" encoding="utf-8" ?>
<svg xmlns="http://www.w3.org/2000/svg" xmlns:ev="http://www.w3.org/2001/xml-events" xmlns:xlink="http://www.w3.org/1999/xlink" baseProfile="full" height="297px" version="1.1" width="1200px">
  <defs/>
  <path d="M 60 237 L 114 237 Q 171.29999999999998 89.4 171 60 L 90 60 Q 104.7 141.75 60 153 Q 68.4 157.2 60 237 z" fill="rgb(255,217,194)" stroke="black"/>
  <text fill="rgb(9,33,173)" font-size="25" x="74.0" y="152.4">Rback</text>
  <path d="M 288 237 L 342 237 Q 333.6 157.2 342 153 Q 301.95 140.25 312 60 L 231 60 Q 230.70000000000002 89.39999999999999 288 237 z" fill="rgb(255,217,194)" stroke="black"/>
  <text fill="rgb(9,33,173)" font-size="25" x="278.0" y="152.4">Rfront</text>
  <path d="M 402 168 L 486 168 L 570 168 L 552 126 Q 522.0 111.0 540 60 L 498 60 Q 486.0 75.43187884384756 474 60 L 432 60 Q 450.0 110.99999999999999 420 126 L 402 168 z" fill="rgb(255,217,194)" stroke="black"/>
  <text fill="rgb(9,33,173)" font-size="25" x="461.0" y="113.66666666666667">up_back</text>
  <path d="M 630 165 L 714 165 L 798 165 L 780 126 Q 750.0 111.0 768 60 L 726 60 L 714 135 L 702 60 L 660 60 Q 678.0 110.99999999999999 648 126 L 630 165 z" fill="rgb(255,217,194)" stroke="black"/>
  <text fill="rgb(9,33,173)" font-size="25" x="689.0" y="115.2">up_front</text>
  <path d="M 915 237 L 969 237 Q 960.6 157.2 969 153 Q 924.3 141.75 939 60 L 858 60 Q 857.6999999999999 89.39999999999999 915 237 z" fill="rgb(255,217,194)" stroke="black"/>
  <text fill="rgb(9,33,173)" font-size="25" x="905.0" y="152.4">Lback</text>
  <path d="M 1029 237 L 1083 237 Q 1140.3 89.4 1140 60 L 1059 60 Q 1069.05 140.25 1029 153 Q 1037.4 157.2 1029 237 z" fill="rgb(255,217,194)" stroke="black"/>
  <text fill="rgb(9,33,173)" font-size="25" x="1043.0" y="152.4">Lfront</text>
</svg>
