<?xml version="1.0" encoding="utf-8" ?>
<svg xmlns="http://www.w3.org/2000/svg" xmlns:ev="http://www.w3.org/2001/xml-events" xmlns:xlink="http://www.w3.org/1999/xlink" baseProfile="full" height="423.0px" version="1.1" width="1690.0px">
  <defs/>
  <path d="M 60 123 L 111 123 Q 127.8 74.10000000000001 99 60 L 60 63 L 60 123 z" fill="rgb(255,217,194)" stroke="black"/>
  <text fill="rgb(9,33,173)" font-size="25" x="57.5" y="95.25">rbsleeve</text>
  <path d="M 197.5 120.0 L 236.5 123.0 Q 265.3 108.89999999999999 248.5 60.0 L 197.5 60.0 L 197.5 120.0 z" fill="rgb(255,217,194)" stroke="black"/>
  <text fill="rgb(9,33,173)" font-size="25" x="195.0" y="93.75">rfsleeve</text>
  <path d="M 335.0 363.0 L 416.0 363.0 Q 449.0 106.49999999999999 437.0 60.0 L 365.0 60.0 Q 379.7 141.75 335.0 153.0 Q 356.0 163.5 335.0 363.0 z" fill="rgb(255,217,194)" stroke="black"/>
  <text fill="rgb(9,33,173)" font-size="25" x="352.6" y="202.8">Rback</text>
  <path d="M 518.0 363.0 L 599.0 363.0 Q 578.0 163.5 599.0 153.0 Q 558.95 140.25 569.0 60.0 L 497.0 60.0 Q 485.0 106.49999999999999 518.0 363.0 z" fill="rgb(255,217,194)" stroke="black"/>
  <text fill="rgb(9,33,173)" font-size="25" x="531.4" y="202.8">Rfront</text>
  <path d="M 662.0 168.0 L 737.0 168.0 L 812.0 168.0 L 815.0 123.0 Q 786.1999999999999 108.89999999999999 803.0 60.0 L 752.0 60.0 Q 737.0 88.77413348632093 722.0 60.0 L 671.0 60.0 Q 687.8000000000001 108.89999999999999 659.0 123.0 L 662.0 168.0 z" fill="rgb(255,217,194)" stroke="black"/>
  <text fill="rgb(9,33,173)" font-size="25" x="712.0" y="113.0">up_back</text>
  <path d="M 878.0 165.0 L 953.0 165.0 L 1028.0 165.0 L 1031.0 123.0 Q 1002.2 108.89999999999999 1019.0 60.0 L 968.0 60.0 L 953.0 135.0 L 938.0 60.0 L 887.0 60.0 Q 903.8000000000001 108.89999999999999 875.0 123.0 L 878.0 165.0 z" fill="rgb(255,217,194)" stroke="black"/>
  <text fill="rgb(9,33,173)" font-size="25" x="928.0" y="114.6">up_front</text>
  <path d="M 1112.0 363.0 L 1193.0 363.0 Q 1172.0 163.5 1193.0 153.0 Q 1148.3 141.75 1163.0 60.0 L 1091.0 60.0 Q 1079.0 106.49999999999999 1112.0 363.0 z" fill="rgb(255,217,194)" stroke="black"/>
  <text fill="rgb(9,33,173)" font-size="25" x="1125.4" y="202.8">Lback</text>
  <path d="M 1253.0 363.0 L 1334.0 363.0 Q 1367.0 106.49999999999999 1355.0 60.0 L 1283.0 60.0 Q 1293.05 140.25 1253.0 153.0 Q 1274.0 163.5 1253.0 363.0 z" fill="rgb(255,217,194)" stroke="black"/>
  <text fill="rgb(9,33,173)" font-size="25" x="1270.6" y="202.8">Lfront</text>
  <path d="M 1415.0 120.0 L 1454.0 123.0 Q 1482.8 108.89999999999999 1466.0 60.0 L 1415.0 60.0 L 1415.0 120.0 z" fill="rgb(255,217,194)" stroke="black"/>
  <text fill="rgb(9,33,173)" font-size="25" x="1412.5" y="93.75">lbsleeve</text>
  <path d="M 1552.5 123.0 L 1603.5 123.0 Q 1620.3 74.10000000000001 1591.5 60.0 L 1552.5 63.0 L 1552.5 123.0 z" fill="rgb(255,217,194)" stroke="black"/>
  <text fill="rgb(9,33,173)" font-size="25" x="1550.0" y="95.25">lfsleeve</text>
</svg>
