<?xml version="1.0" encoding="utf-8" ?>
<svg xmlns="http://www.w3.org/2000/svg" xmlns:ev="http://www.w3.org/2001/xml-events" xmlns:xlink="http://www.w3.org/1999/xlink" baseProfile="full" height="279.0px" version="1.1" width="1780.0px">
  <defs/>
  <path d="M 60 171 L 126 171 Q 142.8 122.10000000000001 114 108 L 60 60 L 60 171 z" fill="rgb(255,217,194)" stroke="black"/>
  <text fill="rgb(9,33,173)" font-size="25" x="65.0" y="130.5">rbsleeve</text>
  <path d="M 205.0 171.0 L 259.0 123.0 Q 287.8 108.89999999999999 271.0 60.0 L 205.0 60.0 L 205.0 171.0 z" fill="rgb(255,217,194)" stroke="black"/>
  <text fill="rgb(9,33,173)" font-size="25" x="210.0" y="106.5">rfsleeve</text>
  <path d="M 350.0 219.0 L 464.0 219.0 Q 469.4 83.69999999999999 461.0 60.0 L 380.0 60.0 Q 394.7 141.75 350.0 153.0 Q 356.6 156.3 350.0 219.0 z" fill="rgb(255,217,194)" stroke="black"/>
  <text fill="rgb(9,33,173)" font-size="25" x="376.0" y="145.2">Rback</text>
  <path d="M 524.0 219.0 L 638.0 219.0 Q 631.4 156.3 638.0 153.0 Q 597.95 140.25 608.0 60.0 L 527.0 60.0 Q 518.5999999999999 83.69999999999999 524.0 219.0 z" fill="rgb(255,217,194)" stroke="black"/>
  <text fill="rgb(9,33,173)" font-size="25" x="562.0" y="145.2">Rfront</text>
  <path d="M 698.0 168.0 L 779.0 168.0 L 860.0 168.0 L 848.0 120.0 Q 820.4 106.8 836.0 60.0 L 797.0 60.0 Q 779.0 111.30871404555371 761.0 60.0 L 722.0 60.0 Q 737.6 106.8 710.0 120.0 L 698.0 168.0 z" fill="rgb(255,217,194)" stroke="black"/>
  <text fill="rgb(9,33,173)" font-size="25" x="754.0" y="112.33333333333333">up_back</text>
  <path d="M 920.0 165.0 L 1001.0 165.0 L 1082.0 165.0 L 1070.0 120.0 Q 1042.4 106.8 1058.0 60.0 L 1019.0 60.0 L 1001.0 75.0 L 983.0 60.0 L 944.0 60.0 Q 959.6 106.8 932.0 120.0 L 920.0 165.0 z" fill="rgb(255,217,194)" stroke="black"/>
  <text fill="rgb(9,33,173)" font-size="25" x="976.0" y="108.0">up_front</text>
  <path d="M 1142.0 219.0 L 1256.0 219.0 Q 1249.4 156.3 1256.0 153.0 Q 1211.3 141.75 1226.0 60.0 L 1145.0 60.0 Q 1136.6 83.69999999999999 1142.0 219.0 z" fill="rgb(255,217,194)" stroke="black"/>
  <text fill="rgb(9,33,173)" font-size="25" x="1180.0" y="145.2">Lback</text>
  <path d="M 1316.0 219.0 L 1430.0 219.0 Q 1435.4 83.69999999999999 1427.0 60.0 L 1346.0 60.0 Q 1356.05 140.25 1316.0 153.0 Q 1322.6 156.3 1316.0 219.0 z" fill="rgb(255,217,194)" stroke="black"/>
  <text fill="rgb(9,33,173)" font-size="25" x="1342.0" y="145.2">Lfront</text>
  <path d="M 1490.0 171.0 L 1544.0 123.0 Q 1572.8 108.89999999999999 1556.0 60.0 L 1490.0 60.0 L 1490.0 171.0 z" fill="rgb(255,217,194)" stroke="black"/>
  <text fill="rgb(9,33,173)" font-size="25" x="1495.0" y="106.5">lbsleeve</text>
  <path d="M 1635.0 171.0 L 1701.0 171.0 Q 1717.8 122.10000000000001 1689.0 108.0 L 1635.0 60.0 L 1635.0 171.0 z" fill="rgb(255,217,194)" stroke="black"/>
  <text fill="rgb(9,33,173)" font-size="25" x="1640.0" y="130.5">lfsleeve</text>
</svg>
