<?xml version="1.0" encoding="utf-8" ?>
<svg xmlns="http://www.w3.org/2000/svg" xmlns:ev="http://www.w3.org/2001/xml-events" xmlns:xlink="http://www.w3.org/1999/xlink" baseProfile="full" height="318px" version="1.1" width="972px">
  <defs/>
  <path d="M 60 258 Q 150.0 173.4903890578684 240 258 L 231 102 L 216 60 L 84 60 L 69 102 L 60 258 z" fill="rgb(255,217,194)" stroke="black"/>
  <text fill="rgb(9,33,173)" font-size="25" x="125.0" y="143.0">skirt_back</text>
  <path d="M 300 258 Q 390.0 311.9661893279645 480 258 L 471 102 L 456 60 L 324 60 L 309 102 L 300 258 z" fill="rgb(255,217,194)" stroke="black"/>
  <text fill="rgb(9,33,173)" font-size="25" x="365.0" y="143.0">skirt_front</text>
  <path d="M 552 168 L 684 168 L 696 126 Q 666.0 111.0 684 60 L 654 60 Q 618.0 122.51510197574932 582 60 L 552 60 Q 570.0 110.99999999999999 540 126 L 552 168 z" fill="rgb(255,217,194)" stroke="black"/>
  <text fill="rgb(9,33,173)" font-size="25" x="593.0" y="106.5">top_back</text>
  <path d="M 768 165 L 900 165 L 912 126 Q 882.0 111.0 900 60 L 870 60 L 834 84 L 798 60 L 768 60 Q 786.0 110.99999999999999 756 126 L 768 165 z" fill="rgb(255,217,194)" stroke="black"/>
  <text fill="rgb(9,33,173)" font-size="25" x="809.0" y="103.66666666666667">top_front</text>
</svg>
