<?xml version="1.0" encoding="utf-8" ?>
<svg xmlns="http://www.w3.org/2000/svg" xmlns:ev="http://www.w3.org/2001/xml-events" xmlns:xlink="http://www.w3.org/1999/xlink" baseProfile="full" height="327px" version="1.1" width="1500px">
  <defs/>
  <path d="M 60 195 L 183 195 Q 208.2 131.39999999999998 171 111 L 60 60 L 60 195 z" fill="rgb(255,217,194)" stroke="black"/>
  <text fill="rgb(9,33,173)" font-size="25" x="93.5" y="143.25">rbsleeve</text>
  <path d="M 243 195 L 354 144 Q 391.20000000000005 123.6 366 60 L 243 60 L 243 195 z" fill="rgb(255,217,194)" stroke="black"/>
  <text fill="rgb(9,33,173)" font-size="25" x="276.5" y="117.75">rfsleeve</text>
  <path d="M 426 267 L 594 267 L 585 144 Q 547.8 123.6 573 60 L 540 60 L 510 69 L 480 60 L 447 60 Q 472.20000000000005 123.6 435 144 L 426 267 z" fill="rgb(255,217,194)" stroke="black"/>
  <text fill="rgb(9,33,173)" font-size="25" x="485.0" y="128.66666666666669">back</text>
  <path d="M 654 267 L 822 267 L 813 144 Q 775.8 123.6 801 60 L 768 60 L 738 60 L 708 60 L 675 60 Q 700.2 123.6 663 144 L 654 267 z" fill="rgb(255,217,194)" stroke="black"/>
  <text fill="rgb(9,33,173)" font-size="25" x="713.0" y="127.66666666666667">front</text>
  <path d="M 882 165 L 936 162 Q 1000.8000000000001 138.6 948 60 L 918 69 L 885 63 L 882 165 z" fill="rgb(255,217,194)" stroke="black"/>
  <text fill="rgb(9,33,173)" font-size="25" x="888.8" y="106.8">Rhood</text>
  <path d="M 1011 162 L 1044 156 L 1074 165 Q 1126.8 86.4 1062 63 L 1008 60 L 1011 162 z" fill="rgb(255,217,194)" stroke="black"/>
  <text fill="rgb(9,33,173)" font-size="25" x="1014.8" y="124.2">Lhood</text>
  <path d="M 1134 195 L 1245 144 Q 1282.1999999999998 123.6 1257 60 L 1134 60 L 1134 195 z" fill="rgb(255,217,194)" stroke="black"/>
  <text fill="rgb(9,33,173)" font-size="25" x="1167.5" y="117.75">lbsleeve</text>
  <path d="M 1317 195 L 1440 195 Q 1465.1999999999998 131.39999999999998 1428 111 L 1317 60 L 1317 195 z" fill="rgb(255,217,194)" stroke="black"/>
  <text fill="rgb(9,33,173)" font-size="25" x="1350.5" y="143.25">lfsleeve</text>
</svg>
