<?xml version="1.0" encoding="utf-8" ?>
<svg xmlns="http://www.w3.org/2000/svg" xmlns:ev="http://www.w3.org/2001/xml-events" xmlns:xlink="http://www.w3.org/1999/xlink" baseProfile="full" height="210px" version="1.1" width="1534.0px">
  <defs/>
  <path d="M 60 150 L 390 150 L 390 60 L 60 60 L 60 150 z" fill="rgb(255,217,194)" stroke="black"/>
  <text fill="rgb(9,33,173)" font-size="25" x="200.0" y="108.0">skirt_back</text>
  <path d="M 450 78 L 540 78 L 540 60 L 450 60 L 450 78 z" fill="rgb(255,217,194)" stroke="black"/>
  <text fill="rgb(9,33,173)" font-size="25" x="470.0" y="72.0">wb_back</text>
  <path d="M 600 78 L 690 78 L 690 60 L 600 60 L 600 78 z" fill="rgb(255,217,194)" stroke="black"/>
  <text fill="rgb(9,33,173)" font-size="25" x="620.0" y="72.0">wb_front</text>
  <path d="M 760.0 150.0 L 1090.0 150.0 L 1090.0 60.0 L 760.0 60.0 L 760.0 150.0 z" fill="rgb(255,217,194)" stroke="black"/>
  <text fill="rgb(9,33,173)" font-size="25" x="900.0" y="108.0">skirt_front</text>
  <path d="M 1150.0 138.0 L 1282.0 138.0 L 1282.0 135.0 Q 1248.4 117.3 1270.0 60.0 L 1243.0 60.0 Q 1216.0 126.86252102062534 1189.0 60.0 L 1162.0 60.0 Q 1183.6 117.3 1150.0 135.0 L 1150.0 138.0 z" fill="rgb(255,217,194)" stroke="black"/>
  <text fill="rgb(9,33,173)" font-size="25" x="1191.0" y="101.25">top_back</text>
  <path d="M 1342.0 135.0 L 1474.0 135.0 L 1474.0 135.0 Q 1440.4 117.3 1462.0 60.0 L 1435.0 60.0 L 1408.0 117.0 L 1381.0 60.0 L 1354.0 60.0 Q 1375.6 117.3 1342.0 135.0 L 1342.0 135.0 z" fill="rgb(255,217,194)" stroke="black"/>
  <text fill="rgb(9,33,173)" font-size="25" x="1383.0" y="102.66666666666667">top_front</text>
</svg>
