<?xml version="1.0" encoding="utf-8" ?>
<svg xmlns="http://www.w3.org/2000/svg" xmlns:ev="http://www.w3.org/2001/xml-events" xmlns:xlink="http://www.w3.org/1999/xlink" baseProfile="full" height="285px" version="1.1" width="1732.8px">
  <defs/>
  <path d="M 60 225 L 144 225 Q 165.6 167.7 132 150 L 60 60 L 60 225 z" fill="rgb(255,217,194)" stroke="black"/>
  <text fill="rgb(9,33,173)" font-size="25" x="74.0" y="168.0">rbsleeve</text>
  <path d="M 214.0 225.0 L 286.0 135.0 Q 319.6 117.3 298.0 60.0 L 214.0 60.0 L 214.0 225.0 z" fill="rgb(255,217,194)" stroke="black"/>
  <text fill="rgb(9,33,173)" font-size="25" x="228.0" y="123.0">rfsleeve</text>
  <path d="M 368.0 192.0 L 416.0 192.0 Q 460.85 82.05 461.0 60.0 L 398.0 60.0 Q 412.7 141.75 368.0 153.0 Q 371.9 154.95 368.0 192.0 z" fill="rgb(255,217,194)" stroke="black"/>
  <text fill="rgb(9,33,173)" font-size="25" x="377.2" y="134.4">Rback</text>
  <path d="M 566.0 192.0 L 614.0 192.0 Q 610.1 154.95 614.0 153.0 Q 573.95 140.25 584.0 60.0 L 521.0 60.0 Q 521.15 82.05 566.0 192.0 z" fill="rgb(255,217,194)" stroke="black"/>
  <text fill="rgb(9,33,173)" font-size="25" x="554.8" y="134.4">Rfront</text>
  <path d="M 695.8 168.0 L 755.8 168.0 L 815.8 168.0 L 836.8 135.0 Q 802.3 118.5 821.8 60.0 L 800.8 60.0 Q 755.8 143.93267291173282 710.8 60.0 L 689.8 60.0 Q 709.3 118.5 674.8 135.0 L 695.8 168.0 z" fill="rgb(255,217,194)" stroke="black"/>
  <text fill="rgb(9,33,173)" font-size="25" x="730.8000000000001" y="115.66666666666667">up_back</text>
  <path d="M 917.8 165.0 L 977.8 165.0 L 1037.8 165.0 L 1058.8 132.0 Q 1025.5 116.4 1043.8 60.0 L 1022.8 60.0 L 977.8 90.0 L 932.8 60.0 L 911.8 60.0 Q 930.0999999999999 116.4 896.8 132.0 L 917.8 165.0 z" fill="rgb(255,217,194)" stroke="black"/>
  <text fill="rgb(9,33,173)" font-size="25" x="952.8" y="111.9">up_front</text>
  <path d="M 1163.8 192.0 L 1211.8 192.0 Q 1207.8999999999999 154.95 1211.8 153.0 Q 1167.1 141.75 1181.8 60.0 L 1118.8 60.0 Q 1118.95 82.05 1163.8 192.0 z" fill="rgb(255,217,194)" stroke="black"/>
  <text fill="rgb(9,33,173)" font-size="25" x="1152.6" y="134.4">Lback</text>
  <path d="M 1271.8 192.0 L 1319.8 192.0 Q 1364.6499999999999 82.05 1364.8 60.0 L 1301.8 60.0 Q 1311.85 140.25 1271.8 153.0 Q 1275.7 154.95 1271.8 192.0 z" fill="rgb(255,217,194)" stroke="black"/>
  <text fill="rgb(9,33,173)" font-size="25" x="1281.0" y="134.4">Lfront</text>
  <path d="M 1424.8 225.0 L 1496.8 135.0 Q 1530.3999999999999 117.3 1508.8 60.0 L 1424.8 60.0 L 1424.8 225.0 z" fill="rgb(255,217,194)" stroke="black"/>
  <text fill="rgb(9,33,173)" font-size="25" x="1438.8" y="123.0">lbsleeve</text>
  <path d="M 1578.8 225.0 L 1662.8 225.0 Q 1684.3999999999999 167.7 1650.8 150.0 L 1578.8 60.0 L 1578.8 225.0 z" fill="rgb(255,217,194)" stroke="black"/>
  <text fill="rgb(9,33,173)" font-size="25" x="1592.8" y="168.0">lfsleeve</text>
</svg>
