<?xml version="1.0" encoding="utf-8" ?>
<svg xmlns="http://www.w3.org/2000/svg" xmlns:ev="http://www.w3.org/2001/xml-events" xmlns:xlink="http://www.w3.org/1999/xlink" baseProfile="full" height="486.0px" version="1.1" width="1867.0px">
  <defs/>
  <path d="M 60 171 L 162 171 Q 198.0 88.50000000000001 150 60 L 60 93 L 60 171 z" fill="rgb(255,217,194)" stroke="black"/>
  <text fill="rgb(9,33,173)" font-size="25" x="83.0" y="126.75">rbsleeve</text>
  <path d="M 223.0 138.0 L 313.0 171.0 Q 361.0 142.5 325.0 60.0 L 223.0 60.0 L 223.0 138.0 z" fill="rgb(255,217,194)" stroke="black"/>
  <text fill="rgb(9,33,173)" font-size="25" x="246.0" y="110.25">rfsleeve</text>
  <path d="M 386.0 426.0 L 563.0 426.0 L 563.0 102.0 L 548.0 60.0 L 503.0 60.0 Q 539.0 142.5 491.0 171.0 L 386.0 426.0 z" fill="rgb(255,217,194)" stroke="black"/>
  <text fill="rgb(9,33,173)" font-size="25" x="484.0" y="210.5">front_right</text>
  <path d="M 654.0 192.0 L 711.0 192.0 Q 768.6 158.70000000000002 705.0 93.0 L 690.0 102.0 L 675.0 60.0 L 654.0 192.0 z" fill="rgb(255,217,194)" stroke="black"/>
  <text fill="rgb(9,33,173)" font-size="25" x="662.0" y="130.8">Rhood</text>
  <path d="M 772.0 426.0 L 1126.0 426.0 L 1021.0 171.0 Q 973.0 142.5 1009.0 60.0 L 964.0 60.0 L 949.0 69.0 L 934.0 60.0 L 889.0 60.0 Q 925.0 142.5 877.0 171.0 L 772.0 426.0 z" fill="rgb(255,217,194)" stroke="black"/>
  <text fill="rgb(9,33,173)" font-size="25" x="924.0" y="170.0">back</text>
  <path d="M 1207.0 192.0 L 1222.0 150.0 L 1237.0 159.0 Q 1300.6000000000001 93.3 1243.0 60.0 L 1186.0 60.0 L 1207.0 192.0 z" fill="rgb(255,217,194)" stroke="black"/>
  <text fill="rgb(9,33,173)" font-size="25" x="1194.0" y="127.2">Lhood</text>
  <path d="M 1304.0 426.0 L 1481.0 426.0 L 1376.0 171.0 Q 1328.0 142.5 1364.0 60.0 L 1319.0 60.0 L 1304.0 102.0 L 1304.0 426.0 z" fill="rgb(255,217,194)" stroke="black"/>
  <text fill="rgb(9,33,173)" font-size="25" x="1333.0" y="210.5">front_left</text>
  <path d="M 1541.0 138.0 L 1631.0 171.0 Q 1679.0 142.5 1643.0 60.0 L 1541.0 60.0 L 1541.0 138.0 z" fill="rgb(255,217,194)" stroke="black"/>
  <text fill="rgb(9,33,173)" font-size="25" x="1564.0" y="110.25">lbsleeve</text>
  <path d="M 1704.0 171.0 L 1806.0 171.0 Q 1842.0 88.50000000000001 1794.0 60.0 L 1704.0 93.0 L 1704.0 171.0 z" fill="rgb(255,217,194)" stroke="black"/>
  <text fill="rgb(9,33,173)" font-size="25" x="1727.0" y="126.75">lfsleeve</text>
</svg>
