<?xml version="1.0" encoding="utf-8" ?>
<svg xmlns="http://www.w3.org/2000/svg" xmlns:ev="http://www.w3.org/2001/xml-events" xmlns:xlink="http://www.w3.org/1999/xlink" baseProfile="full" height="336px" version="1.1" width="850.0px">
  <defs/>
  <path d="M 60 276 L 126 276 L 126 99 L 96 60 L 75 60 Q 86.7 95.1 66 105 L 60 276 z" fill="rgb(255,217,194)" stroke="black"/>
  <text fill="rgb(9,33,173)" font-size="25" x="66.5" y="149.0">front_right</text>
  <path d="M 236.5 174.0 L 284.5 180.0 Q 343.9 163.8 302.5 90.0 L 272.5 99.0 L 242.5 60.0 L 236.5 174.0 z" fill="rgb(255,217,194)" stroke="black"/>
  <text fill="rgb(9,33,173)" font-size="25" x="242.7" y="123.6">Rhood</text>
  <path d="M 362.5 276.0 L 494.5 276.0 L 488.5 105.0 Q 467.8 95.1 479.5 60.0 L 458.5 60.0 L 428.5 69.0 L 398.5 60.0 L 377.5 60.0 Q 389.2 95.1 368.5 105.0 L 362.5 276.0 z" fill="rgb(255,217,194)" stroke="black"/>
  <text fill="rgb(9,33,173)" font-size="25" x="403.5" y="122.0">back</text>
  <path d="M 560.5 180.0 L 590.5 141.0 L 620.5 150.0 Q 661.9 76.2 602.5 60.0 L 554.5 66.0 L 560.5 180.0 z" fill="rgb(255,217,194)" stroke="black"/>
  <text fill="rgb(9,33,173)" font-size="25" x="560.7" y="122.4">Lhood</text>
  <path d="M 680.5 276.0 L 746.5 276.0 L 740.5 105.0 Q 719.8 95.1 731.5 60.0 L 710.5 60.0 L 680.5 99.0 L 680.5 276.0 z" fill="rgb(255,217,194)" stroke="black"/>
  <text fill="rgb(9,33,173)" font-size="25" x="690.0" y="149.0">front_left</text>
</svg>
