<?xml version="1.0" encoding="utf-8" ?>
<svg xmlns="http://www.w3.org/2000/svg" xmlns:ev="http://www.w3.org/2001/xml-events" xmlns:xlink="http://www.w3.org/1999/xlink" baseProfile="full" height="294.0px" version="1.1" width="946.0px">
  <defs/>
  <path d="M 60 144 L 81 144 Q 97.8 95.10000000000001 69 81 L 60 60 L 60 144 z" fill="rgb(255,217,194)" stroke="black"/>
  <text fill="rgb(9,33,173)" font-size="25" x="42.5" y="110.25">rbsleeve</text>
  <path d="M 182.5 144.0 L 191.5 123.0 Q 220.3 108.89999999999999 203.5 60.0 L 182.5 60.0 L 182.5 144.0 z" fill="rgb(255,217,194)" stroke="black"/>
  <text fill="rgb(9,33,173)" font-size="25" x="165.0" y="99.75">rfsleeve</text>
  <path d="M 308.0 234.0 L 440.0 234.0 L 443.0 123.0 Q 414.2 108.89999999999999 431.0 60.0 L 395.0 60.0 Q 374.0 94.46664042915081 353.0 60.0 L 317.0 60.0 Q 333.8 108.89999999999999 305.0 123.0 L 308.0 234.0 z" fill="rgb(255,217,194)" stroke="black"/>
  <text fill="rgb(9,33,173)" font-size="25" x="349.0" y="122.25">back</text>
  <path d="M 506.0 234.0 L 638.0 234.0 L 641.0 123.0 Q 612.1999999999999 108.89999999999999 629.0 60.0 L 593.0 60.0 L 572.0 132.0 L 551.0 60.0 L 515.0 60.0 Q 531.8000000000001 108.89999999999999 503.0 123.0 L 506.0 234.0 z" fill="rgb(255,217,194)" stroke="black"/>
  <text fill="rgb(9,33,173)" font-size="25" x="547.0" y="123.66666666666667">front</text>
  <path d="M 701.0 144.0 L 710.0 123.0 Q 738.8000000000001 108.89999999999999 722.0 60.0 L 701.0 60.0 L 701.0 144.0 z" fill="rgb(255,217,194)" stroke="black"/>
  <text fill="rgb(9,33,173)" font-size="25" x="683.5" y="99.75">lbsleeve</text>
  <path d="M 823.5 144.0 L 844.5 144.0 Q 861.3000000000001 95.10000000000001 832.5 81.0 L 823.5 60.0 L 823.5 144.0 z" fill="rgb(255,217,194)" stroke="black"/>
  <text fill="rgb(9,33,173)" font-size="25" x="806.0" y="110.25">lfsleeve</text>
</svg>
