<?xml version="1.0" encoding="utf-8" ?>
<svg xmlns="http://www.w3.org/2000/svg" xmlns:ev="http://www.w3.org/2001/xml-events" xmlns:xlink="http://www.w3.org/1999/xlink" baseProfile="full" height="408.0px" version="1.1" width="1369.0px">
  <defs/>
  <path d="M 60 171 L 108 171 Q 114.3 135.6 93 129 L 60 60 L 60 171 z" fill="rgb(255,217,194)" stroke="black"/>
  <text fill="rgb(9,33,173)" font-size="25" x="55.25" y="135.75">rbsleeve</text>
  <path d="M 195.25 171.0 L 228.25 102.0 Q 249.55 95.4 243.25 60.0 L 195.25 60.0 L 195.25 171.0 z" fill="rgb(255,217,194)" stroke="black"/>
  <text fill="rgb(9,33,173)" font-size="25" x="190.5" y="101.25">rfsleeve</text>
  <path d="M 348.5 348.0 L 492.5 348.0 L 510.5 105.0 Q 488.0 97.5 495.5 60.0 L 462.5 60.0 L 420.5 69.0 L 378.5 60.0 L 345.5 60.0 Q 353.0 97.5 330.5 105.0 L 348.5 348.0 z" fill="rgb(255,217,194)" stroke="black"/>
  <text fill="rgb(9,33,173)" font-size="25" x="395.5" y="138.0">back</text>
  <path d="M 588.5 348.0 L 732.5 348.0 L 750.5 105.0 Q 728.0 97.5 735.5 60.0 L 702.5 60.0 L 660.5 90.0 L 618.5 60.0 L 585.5 60.0 Q 593.0 97.5 570.5 105.0 L 588.5 348.0 z" fill="rgb(255,217,194)" stroke="black"/>
  <text fill="rgb(9,33,173)" font-size="25" x="635.5" y="140.33333333333334">front</text>
  <path d="M 819.5 198.0 L 843.5 195.0 Q 925.4 192.29999999999998 894.5 84.0 L 855.5 93.0 L 810.5 60.0 L 819.5 198.0 z" fill="rgb(255,217,194)" stroke="black"/>
  <text fill="rgb(9,33,173)" font-size="25" x="819.7" y="129.0">Rhood</text>
  <path d="M 954.5 198.0 L 999.5 165.0 L 1038.5 174.0 Q 1069.3999999999999 65.70000000000002 987.5 63.0 L 963.5 60.0 L 954.5 198.0 z" fill="rgb(255,217,194)" stroke="black"/>
  <text fill="rgb(9,33,173)" font-size="25" x="963.7" y="135.0">Lhood</text>
  <path d="M 1098.5 171.0 L 1131.5 102.0 Q 1152.8 95.4 1146.5 60.0 L 1098.5 60.0 L 1098.5 171.0 z" fill="rgb(255,217,194)" stroke="black"/>
  <text fill="rgb(9,33,173)" font-size="25" x="1093.75" y="101.25">lbsleeve</text>
  <path d="M 1233.75 171.0 L 1281.75 171.0 Q 1288.05 135.6 1266.75 129.0 L 1233.75 60.0 L 1233.75 171.0 z" fill="rgb(255,217,194)" stroke="black"/>
  <text fill="rgb(9,33,173)" font-size="25" x="1229.0" y="135.75">lfsleeve</text>
</svg>
