<?xml version="1.0" encoding="utf-8" ?>
<svg xmlns="http://www.w3.org/2000/svg" xmlns:ev="http://www.w3.org/2001/xml-events" xmlns:xlink="http://www.w3.org/1999/xlink" baseProfile="full" height="321.0px" version="1.1" width="1606.0px">
  <defs/>
  <path d="M 60 183 L 105 183 Q 135.0 111.00000000000001 93 87 L 60 60 L 60 183 z" fill="rgb(255,217,194)" stroke="black"/>
  <text fill="rgb(9,33,173)" font-size="25" x="54.5" y="131.25">rbsleeve</text>
  <path d="M 194.5 183.0 L 227.5 156.0 Q 269.5 132.0 239.5 60.0 L 194.5 60.0 L 194.5 183.0 z" fill="rgb(255,217,194)" stroke="black"/>
  <text fill="rgb(9,33,173)" font-size="25" x="189.0" y="117.75">rfsleeve</text>
  <path d="M 329.0 261.0 L 404.0 261.0 Q 429.35 91.05000000000001 422.0 60.0 L 359.0 60.0 Q 373.7 141.75 329.0 153.0 Q 339.8 158.4 329.0 261.0 z" fill="rgb(255,217,194)" stroke="black"/>
  <text fill="rgb(9,33,173)" font-size="25" x="343.6" y="162.0">Rback</text>
  <path d="M 500.0 261.0 L 575.0 261.0 Q 564.2 158.4 575.0 153.0 Q 534.95 140.25 545.0 60.0 L 482.0 60.0 Q 474.65 91.05000000000001 500.0 261.0 z" fill="rgb(255,217,194)" stroke="black"/>
  <text fill="rgb(9,33,173)" font-size="25" x="510.4" y="162.0">Rfront</text>
  <path d="M 638.0 168.0 L 704.0 168.0 L 770.0 168.0 L 773.0 156.0 Q 731.0 132.0 761.0 60.0 L 734.0 60.0 Q 704.0 119.2118157187605 674.0 60.0 L 647.0 60.0 Q 677.0 132.0 635.0 156.0 L 638.0 168.0 z" fill="rgb(255,217,194)" stroke="black"/>
  <text fill="rgb(9,33,173)" font-size="25" x="679.0" y="120.33333333333333">up_back</text>
  <path d="M 836.0 165.0 L 902.0 165.0 L 968.0 165.0 L 971.0 156.0 Q 929.0 132.0 959.0 60.0 L 932.0 60.0 L 902.0 99.0 L 872.0 60.0 L 845.0 60.0 Q 875.0 132.0 833.0 156.0 L 836.0 165.0 z" fill="rgb(255,217,194)" stroke="black"/>
  <text fill="rgb(9,33,173)" font-size="25" x="877.0" y="117.6">up_front</text>
  <path d="M 1049.0 261.0 L 1124.0 261.0 Q 1113.2 158.4 1124.0 153.0 Q 1079.3 141.75 1094.0 60.0 L 1031.0 60.0 Q 1023.6500000000001 91.05000000000001 1049.0 261.0 z" fill="rgb(255,217,194)" stroke="black"/>
  <text fill="rgb(9,33,173)" font-size="25" x="1059.4" y="162.0">Lback</text>
  <path d="M 1184.0 261.0 L 1259.0 261.0 Q 1284.35 91.05000000000001 1277.0 60.0 L 1214.0 60.0 Q 1224.05 140.25 1184.0 153.0 Q 1194.8 158.4 1184.0 261.0 z" fill="rgb(255,217,194)" stroke="black"/>
  <text fill="rgb(9,33,173)" font-size="25" x="1198.6" y="162.0">Lfront</text>
  <path d="M 1337.0 183.0 L 1370.0 156.0 Q 1412.0 132.0 1382.0 60.0 L 1337.0 60.0 L 1337.0 183.0 z" fill="rgb(255,217,194)" stroke="black"/>
  <text fill="rgb(9,33,173)" font-size="25" x="1331.5" y="117.75">lbsleeve</text>
  <path d="M 1471.5 183.0 L 1516.5 183.0 Q 1546.5 111.00000000000001 1504.5 87.0 L 1471.5 60.0 L 1471.5 183.0 z" fill="rgb(255,217,194)" stroke="black"/>
  <text fill="rgb(9,33,173)" font-size="25" x="1466.0" y="131.25">lfsleeve</text>
</svg>
