<?xml version="1.0" encoding="utf-8" ?>
<svg xmlns="http://www.w3.org/2000/svg" xmlns:ev="http://www.w3.org/2001/xml-events" xmlns:xlink="http://www.w3.org/1999/xlink" baseProfile="full" height="357.0px" version="1.1" width="1723.0px">
  <defs/>
  <path d="M 60 114 L 129 114 Q 140.1 70.2 114 60 L 60 66 L 60 114 z" fill="rgb(255,217,194)" stroke="black"/>
  <text fill="rgb(9,33,173)" font-size="25" x="65.75" y="91.5">rbsleeve</text>
  <path d="M 205.75 108.0 L 259.75 114.0 Q 285.85 103.8 274.75 60.0 L 205.75 60.0 L 205.75 108.0 z" fill="rgb(255,217,194)" stroke="black"/>
  <text fill="rgb(9,33,173)" font-size="25" x="211.5" y="88.5">rfsleeve</text>
  <path d="M 351.5 297.0 Q 477.5 260.9245529740156 603.5 297.0 L 561.5 102.0 L 543.5 60.0 L 411.5 60.0 L 393.5 102.0 L 351.5 297.0 z" fill="rgb(255,217,194)" stroke="black"/>
  <text fill="rgb(9,33,173)" font-size="25" x="452.5" y="156.0">skirt_back</text>
  <path d="M 663.5 297.0 Q 789.5 310.2948704520487 915.5 297.0 L 873.5 102.0 L 855.5 60.0 L 723.5 60.0 L 705.5 102.0 L 663.5 297.0 z" fill="rgb(255,217,194)" stroke="black"/>
  <text fill="rgb(9,33,173)" font-size="25" x="764.5" y="156.0">skirt_front</text>
  <path d="M 993.5 168.0 L 1125.5 168.0 L 1143.5 117.0 Q 1117.1000000000001 104.7 1131.5 60.0 L 1074.5 60.0 Q 1059.5 86.50112464207163 1044.5 60.0 L 987.5 60.0 Q 1001.9 104.7 975.5 117.0 L 993.5 168.0 z" fill="rgb(255,217,194)" stroke="black"/>
  <text fill="rgb(9,33,173)" font-size="25" x="1034.5" y="104.25">top_back</text>
  <path d="M 1221.5 165.0 L 1353.5 165.0 L 1371.5 114.0 Q 1346.3000000000002 102.6 1359.5 60.0 L 1302.5 60.0 L 1287.5 114.0 L 1272.5 60.0 L 1215.5 60.0 Q 1228.6999999999998 102.6 1203.5 114.0 L 1221.5 165.0 z" fill="rgb(255,217,194)" stroke="black"/>
  <text fill="rgb(9,33,173)" font-size="25" x="1262.5" y="104.33333333333333">top_front</text>
  <path d="M 1431.5 108.0 L 1485.5 114.0 Q 1511.6 103.8 1500.5 60.0 L 1431.5 60.0 L 1431.5 108.0 z" fill="rgb(255,217,194)" stroke="black"/>
  <text fill="rgb(9,33,173)" font-size="25" x="1437.25" y="88.5">lbsleeve</text>
  <path d="M 1577.25 114.0 L 1646.25 114.0 Q 1657.35 70.2 1631.25 60.0 L 1577.25 66.0 L 1577.25 114.0 z" fill="rgb(255,217,194)" stroke="black"/>
  <text fill="rgb(9,33,173)" font-size="25" x="1583.0" y="91.5">lfsleeve</text>
</svg>
