<?xml version="1.0" encoding="utf-8" ?>
<svg xmlns="http://www.w3.org/2000/svg" xmlns:ev="http://www.w3.org/2001/xml-events" xmlns:xlink="http://www.w3.org/1999/xlink" baseProfile="full" height="249px" version="1.1" width="1582.0px">
  <defs/>
  <path d="M 60 189 L 402 189 L 402 60 L 60 60 L 60 189 z" fill="rgb(255,217,194)" stroke="black"/>
  <text fill="rgb(9,33,173)" font-size="25" x="206.0" y="127.5">skirt_back</text>
  <path d="M 462 66 L 552 66 L 552 60 L 462 60 L 462 66 z" fill="rgb(255,217,194)" stroke="black"/>
  <text fill="rgb(9,33,173)" font-size="25" x="482.0" y="66.0">wb_back</text>
  <path d="M 612 66 L 702 66 L 702 60 L 612 60 L 612 66 z" fill="rgb(255,217,194)" stroke="black"/>
  <text fill="rgb(9,33,173)" font-size="25" x="632.0" y="66.0">wb_front</text>
  <path d="M 772.0 189.0 L 1114.0 189.0 L 1114.0 60.0 L 772.0 60.0 L 772.0 189.0 z" fill="rgb(255,217,194)" stroke="black"/>
  <text fill="rgb(9,33,173)" font-size="25" x="918.0" y="127.5">skirt_front</text>
  <path d="M 1174.0 147.0 L 1318.0 147.0 L 1318.0 138.0 Q 1283.2 119.39999999999999 1306.0 60.0 L 1270.0 60.0 Q 1246.0 80.80475001552155 1222.0 60.0 L 1186.0 60.0 Q 1208.8 119.39999999999999 1174.0 138.0 L 1174.0 147.0 z" fill="rgb(255,217,194)" stroke="black"/>
  <text fill="rgb(9,33,173)" font-size="25" x="1221.0" y="104.25">top_back</text>
  <path d="M 1378.0 147.0 L 1522.0 147.0 L 1522.0 138.0 Q 1487.2 119.39999999999999 1510.0 60.0 L 1474.0 60.0 L 1450.0 105.0 L 1426.0 60.0 L 1390.0 60.0 Q 1412.8 119.39999999999999 1378.0 138.0 L 1378.0 147.0 z" fill="rgb(255,217,194)" stroke="black"/>
  <text fill="rgb(9,33,173)" font-size="25" x="1425.0" y="104.66666666666667">top_front</text>
</svg>
