<?xml version="1.0" encoding="utf-8" ?>
<svg xmlns="http://www.w3.org/2000/svg" xmlns:ev="http://www.w3.org/2001/xml-events" xmlns:xlink="http://www.w3.org/1999/xlink" baseProfile="full" height="372.0px" version="1.1" width="1561.0px">
  <defs/>
  <path d="M 60 168 L 81 168 Q 93.9 130.8 72 120 L 60 60 L 60 168 z" fill="rgb(255,217,194)" stroke="black"/>
  <text fill="rgb(9,33,173)" font-size="25" x="43.25" y="132.0">rbsleeve</text>
  <path d="M 183.25 168.0 L 195.25 108.0 Q 217.14999999999998 97.19999999999999 204.25 60.0 L 183.25 60.0 L 183.25 168.0 z" fill="rgb(255,217,194)" stroke="black"/>
  <text fill="rgb(9,33,173)" font-size="25" x="166.5" y="102.0">rfsleeve</text>
  <path d="M 306.5 312.0 L 402.5 312.0 Q 415.1 97.80000000000001 402.5 60.0 L 336.5 60.0 Q 351.2 141.75 306.5 153.0 Q 322.4 160.95 306.5 312.0 z" fill="rgb(255,217,194)" stroke="black"/>
  <text fill="rgb(9,33,173)" font-size="25" x="325.9" y="182.4">Rback</text>
  <path d="M 462.5 312.0 L 558.5 312.0 Q 542.6 160.95000000000002 558.5 153.0 Q 518.45 140.25 528.5 60.0 L 462.5 60.0 Q 449.9 97.8 462.5 312.0 z" fill="rgb(255,217,194)" stroke="black"/>
  <text fill="rgb(9,33,173)" font-size="25" x="489.1" y="182.4">Rfront</text>
  <path d="M 618.5 168.0 L 684.5 168.0 L 750.5 168.0 L 747.5 111.0 Q 723.5 100.5 735.5 60.0 L 696.5 60.0 Q 684.5 90.44557723066303 672.5 60.0 L 633.5 60.0 Q 645.5 100.49999999999999 621.5 111.0 L 618.5 168.0 z" fill="rgb(255,217,194)" stroke="black"/>
  <text fill="rgb(9,33,173)" font-size="25" x="659.5" y="110.33333333333333">up_back</text>
  <path d="M 810.5 165.0 L 876.5 165.0 L 942.5 165.0 L 939.5 111.0 Q 915.5 100.5 927.5 60.0 L 888.5 60.0 L 876.5 75.0 L 864.5 60.0 L 825.5 60.0 Q 837.5 100.49999999999999 813.5 111.0 L 810.5 165.0 z" fill="rgb(255,217,194)" stroke="black"/>
  <text fill="rgb(9,33,173)" font-size="25" x="851.5" y="106.2">up_front</text>
  <path d="M 1002.5 312.0 L 1098.5 312.0 Q 1082.6 160.95000000000002 1098.5 153.0 Q 1053.8 141.75 1068.5 60.0 L 1002.5 60.0 Q 989.9 97.8 1002.5 312.0 z" fill="rgb(255,217,194)" stroke="black"/>
  <text fill="rgb(9,33,173)" font-size="25" x="1029.1" y="182.4">Lback</text>
  <path d="M 1158.5 312.0 L 1254.5 312.0 Q 1267.1 97.80000000000001 1254.5 60.0 L 1188.5 60.0 Q 1198.55 140.25 1158.5 153.0 Q 1174.4 160.95 1158.5 312.0 z" fill="rgb(255,217,194)" stroke="black"/>
  <text fill="rgb(9,33,173)" font-size="25" x="1177.9" y="182.4">Lfront</text>
  <path d="M 1314.5 168.0 L 1326.5 108.0 Q 1348.4 97.19999999999999 1335.5 60.0 L 1314.5 60.0 L 1314.5 168.0 z" fill="rgb(255,217,194)" stroke="black"/>
  <text fill="rgb(9,33,173)" font-size="25" x="1297.75" y="102.0">lbsleeve</text>
  <path d="M 1437.75 168.0 L 1458.75 168.0 Q 1471.65 130.8 1449.75 120.0 L 1437.75 60.0 L 1437.75 168.0 z" fill="rgb(255,217,194)" stroke="black"/>
  <text fill="rgb(9,33,173)" font-size="25" x="1421.0" y="132.0">lfsleeve</text>
</svg>
