<?xml version="1.0" encoding="utf-8" ?>
<svg xmlns="http://www.w3.org/2000/svg" xmlns:ev="http://www.w3.org/2001/xml-events" xmlns:xlink="http://www.w3.org/1999/xlink" baseProfile="full" height="249.0px" version="1.1" width="1780.0px">
  <defs/>
  <path d="M 60 156 L 150 156 Q 160.8 117.60000000000001 138 108 L 60 60 L 60 156 z" fill="rgb(255,217,194)" stroke="black"/>
  <text fill="rgb(9,33,173)" font-size="25" x="77.0" y="123.0">rbsleeve</text>
  <path d="M 217.0 156.0 L 295.0 108.0 Q 317.8 98.39999999999999 307.0 60.0 L 217.0 60.0 L 217.0 156.0 z" fill="rgb(255,217,194)" stroke="black"/>
  <text fill="rgb(9,33,173)" font-size="25" x="234.0" y="99.0">rfsleeve</text>
  <path d="M 374.0 189.0 L 479.0 189.0 Q 477.8 78.9 470.0 60.0 L 404.0 60.0 Q 418.7 141.75 374.0 153.0 Q 377.6 154.8 374.0 189.0 z" fill="rgb(255,217,194)" stroke="black"/>
  <text fill="rgb(9,33,173)" font-size="25" x="395.2" y="133.2">Rback</text>
  <path d="M 539.0 189.0 L 644.0 189.0 Q 640.4 154.8 644.0 153.0 Q 603.95 140.25 614.0 60.0 L 548.0 60.0 Q 540.1999999999999 78.89999999999999 539.0 189.0 z" fill="rgb(255,217,194)" stroke="black"/>
  <text fill="rgb(9,33,173)" font-size="25" x="572.8" y="133.2">Rfront</text>
  <path d="M 713.0 168.0 L 782.0 168.0 L 851.0 168.0 L 860.0 111.0 Q 836.0 100.5 848.0 60.0 L 809.0 60.0 Q 782.0 110.06531108656193 755.0 60.0 L 716.0 60.0 Q 728.0 100.49999999999999 704.0 111.0 L 713.0 168.0 z" fill="rgb(255,217,194)" stroke="black"/>
  <text fill="rgb(9,33,173)" font-size="25" x="757.0" y="110.33333333333333">up_back</text>
  <path d="M 929.0 165.0 L 998.0 165.0 L 1067.0 165.0 L 1076.0 111.0 Q 1052.0 100.5 1064.0 60.0 L 1025.0 60.0 L 998.0 96.0 L 971.0 60.0 L 932.0 60.0 Q 944.0 100.49999999999999 920.0 111.0 L 929.0 165.0 z" fill="rgb(255,217,194)" stroke="black"/>
  <text fill="rgb(9,33,173)" font-size="25" x="973.0" y="108.3">up_front</text>
  <path d="M 1136.0 189.0 L 1241.0 189.0 Q 1237.4 154.8 1241.0 153.0 Q 1196.3 141.75 1211.0 60.0 L 1145.0 60.0 Q 1137.2 78.89999999999999 1136.0 189.0 z" fill="rgb(255,217,194)" stroke="black"/>
  <text fill="rgb(9,33,173)" font-size="25" x="1169.8" y="133.2">Lback</text>
  <path d="M 1301.0 189.0 L 1406.0 189.0 Q 1404.8 78.9 1397.0 60.0 L 1331.0 60.0 Q 1341.05 140.25 1301.0 153.0 Q 1304.6 154.8 1301.0 189.0 z" fill="rgb(255,217,194)" stroke="black"/>
  <text fill="rgb(9,33,173)" font-size="25" x="1322.2" y="133.2">Lfront</text>
  <path d="M 1466.0 156.0 L 1544.0 108.0 Q 1566.8 98.39999999999999 1556.0 60.0 L 1466.0 60.0 L 1466.0 156.0 z" fill="rgb(255,217,194)" stroke="black"/>
  <text fill="rgb(9,33,173)" font-size="25" x="1483.0" y="99.0">lbsleeve</text>
  <path d="M 1623.0 156.0 L 1713.0 156.0 Q 1723.8 117.60000000000001 1701.0 108.0 L 1623.0 60.0 L 1623.0 156.0 z" fill="rgb(255,217,194)" stroke="black"/>
  <text fill="rgb(9,33,173)" font-size="25" x="1640.0" y="123.0">lfsleeve</text>
</svg>
