<?xml version="1.0" encoding="utf-8" ?>
<svg xmlns="http://www.w3.org/2000/svg" xmlns:ev="http://www.w3.org/2001/xml-events" xmlns:xlink="http://www.w3.org/1999/xlink" baseProfile="full" height="288px" version="1.1" width="1642.0px">
  <defs/>
  <path d="M 60 228 L 126 228 L 210 60 L 90 60 Q 102.30000000000001 137.25 60 147 Q 68.1 151.05 60 228 z" fill="rgb(255,217,194)" stroke="black"/>
  <text fill="rgb(9,33,173)" font-size="25" x="84.2" y="147.6">Rback</text>
  <path d="M 354 228 L 420 228 Q 411.9 151.05 420 147 Q 382.05 135.75 390 60 L 270 60 L 354 228 z" fill="rgb(255,217,194)" stroke="black"/>
  <text fill="rgb(9,33,173)" font-size="25" x="345.8" y="147.6">Rfront</text>
  <path d="M 480 69 L 519 69 L 558 69 L 558 60 L 480 60 L 480 69 z" fill="rgb(255,217,194)" stroke="black"/>
  <text fill="rgb(9,33,173)" font-size="25" x="494.0" y="68.4">wb_back</text>
  <path d="M 624.0 69.0 L 663.0 69.0 L 702.0 69.0 L 702.0 60.0 L 624.0 60.0 L 624.0 69.0 z" fill="rgb(255,217,194)" stroke="black"/>
  <text fill="rgb(9,33,173)" font-size="25" x="638.0" y="68.4">wb_front</text>
  <path d="M 778.0 177.0 L 940.0 177.0 L 940.0 114.0 Q 914.8 102.6 928.0 60.0 L 877.0 60.0 Q 859.0 99.9213116275661 841.0 60.0 L 790.0 60.0 Q 803.2 102.6 778.0 114.0 L 778.0 177.0 z" fill="rgb(255,217,194)" stroke="black"/>
  <text fill="rgb(9,33,173)" font-size="25" x="834.0" y="105.75">top_back</text>
  <path d="M 1000.0 177.0 L 1162.0 177.0 L 1162.0 114.0 Q 1136.8000000000002 102.6 1150.0 60.0 L 1099.0 60.0 L 1081.0 111.0 L 1063.0 60.0 L 1012.0 60.0 Q 1025.2 102.6 1000.0 114.0 L 1000.0 177.0 z" fill="rgb(255,217,194)" stroke="black"/>
  <text fill="rgb(9,33,173)" font-size="25" x="1056.0" y="106.66666666666667">top_front</text>
  <path d="M 1306.0 228.0 L 1372.0 228.0 Q 1363.9 151.05 1372.0 147.0 Q 1329.7 137.25 1342.0 60.0 L 1222.0 60.0 L 1306.0 228.0 z" fill="rgb(255,217,194)" stroke="black"/>
  <text fill="rgb(9,33,173)" font-size="25" x="1297.8" y="147.6">Lback</text>
  <path d="M 1432.0 228.0 L 1498.0 228.0 L 1582.0 60.0 L 1462.0 60.0 Q 1469.95 135.75 1432.0 147.0 Q 1440.1 151.05 1432.0 228.0 z" fill="rgb(255,217,194)" stroke="black"/>
  <text fill="rgb(9,33,173)" font-size="25" x="1456.2" y="147.6">Lfront</text>
</svg>
