<?xml version="1.0" encoding="utf-8" ?>
<svg xmlns="http://www.w3.org/2000/svg" xmlns:ev="http://www.w3.org/2001/xml-events" xmlns:xlink="http://www.w3.org/1999/xlink" baseProfile="full" height="411px" version="1.1" width="1546.0px">
  <defs/>
  <path d="M 60 351 L 390 351 L 390 60 L 60 60 L 60 351 z" fill="rgb(255,217,194)" stroke="black"/>
  <text fill="rgb(9,33,173)" font-size="25" x="200.0" y="208.5">skirt_back</text>
  <path d="M 450 78 L 540 78 L 540 60 L 450 60 L 450 78 z" fill="rgb(255,217,194)" stroke="black"/>
  <text fill="rgb(9,33,173)" font-size="25" x="470.0" y="72.0">wb_back</text>
  <path d="M 600 78 L 690 78 L 690 60 L 600 60 L 600 78 z" fill="rgb(255,217,194)" stroke="black"/>
  <text fill="rgb(9,33,173)" font-size="25" x="620.0" y="72.0">wb_front</text>
  <path d="M 760.0 351.0 L 1090.0 351.0 L 1090.0 60.0 L 760.0 60.0 L 760.0 351.0 z" fill="rgb(255,217,194)" stroke="black"/>
  <text fill="rgb(9,33,173)" font-size="25" x="900.0" y="208.5">skirt_front</text>
  <path d="M 1150.0 159.0 L 1288.0 159.0 L 1288.0 132.0 Q 1255.6000000000001 115.2 1276.0 60.0 L 1237.0 60.0 Q 1219.0 61.54962437488529 1201.0 60.0 L 1162.0 60.0 Q 1182.3999999999999 115.2 1150.0 132.0 L 1150.0 159.0 z" fill="rgb(255,217,194)" stroke="black"/>
  <text fill="rgb(9,33,173)" font-size="25" x="1194.0" y="105.75">top_back</text>
  <path d="M 1348.0 159.0 L 1486.0 159.0 L 1486.0 132.0 Q 1453.6000000000001 115.2 1474.0 60.0 L 1435.0 60.0 L 1417.0 144.0 L 1399.0 60.0 L 1360.0 60.0 Q 1380.3999999999999 115.2 1348.0 132.0 L 1348.0 159.0 z" fill="rgb(255,217,194)" stroke="black"/>
  <text fill="rgb(9,33,173)" font-size="25" x="1392.0" y="110.33333333333333">top_front</text>
</svg>
