<?xml version="1.0" encoding="utf-8" ?>
<svg xmlns="http://www.w3.org/2000/svg" xmlns:ev="http://www.w3.org/2001/xml-events" xmlns:xlink="http://www.w3.org/1999/xlink" baseProfile="full" height="408.0px" version="1.1" width="1315.0px">
  <defs/>
  <path d="M 60 216 L 108 216 Q 138.9 147.3 99 123 L 60 60 L 60 216 z" fill="rgb(255,217,194)" stroke="black"/>
  <text fill="rgb(9,33,173)" font-size="25" x="56.75" y="156.75">rbsleeve</text>
  <path d="M 196.75 216.0 L 235.75 153.0 Q 275.65 128.7 244.75 60.0 L 196.75 60.0 L 196.75 216.0 z" fill="rgb(255,217,194)" stroke="black"/>
  <text fill="rgb(9,33,173)" font-size="25" x="193.5" y="125.25">rfsleeve</text>
  <path d="M 333.5 348.0 L 627.5 348.0 L 543.5 150.0 Q 504.79999999999995 126.6 534.5 60.0 L 510.5 60.0 Q 480.5 64.810611193427 450.5 60.0 L 426.5 60.0 Q 456.2 126.6 417.5 150.0 L 333.5 348.0 z" fill="rgb(255,217,194)" stroke="black"/>
  <text fill="rgb(9,33,173)" font-size="25" x="455.5" y="157.5">back</text>
  <path d="M 687.5 348.0 L 981.5 348.0 L 897.5 150.0 Q 858.8 126.6 888.5 60.0 L 864.5 60.0 L 834.5 66.0 L 804.5 60.0 L 780.5 60.0 Q 810.2 126.6 771.5 150.0 L 687.5 348.0 z" fill="rgb(255,217,194)" stroke="black"/>
  <text fill="rgb(9,33,173)" font-size="25" x="809.5" y="147.66666666666666">front</text>
  <path d="M 1041.5 216.0 L 1080.5 153.0 Q 1120.4 128.7 1089.5 60.0 L 1041.5 60.0 L 1041.5 216.0 z" fill="rgb(255,217,194)" stroke="black"/>
  <text fill="rgb(9,33,173)" font-size="25" x="1038.25" y="125.25">lbsleeve</text>
  <path d="M 1178.25 216.0 L 1226.25 216.0 Q 1257.15 147.3 1217.25 123.0 L 1178.25 60.0 L 1178.25 216.0 z" fill="rgb(255,217,194)" stroke="black"/>
  <text fill="rgb(9,33,173)" font-size="25" x="1175.0" y="156.75">lfsleeve</text>
</svg>
