<?xml version="1.0" encoding="utf-8" ?>
<svg xmlns="http://www.w3.org/2000/svg" xmlns:ev="http://www.w3.org/2001/xml-events" xmlns:xlink="http://www.w3.org/1999/xlink" baseProfile="full" height="384px" version="1.1" width="1114.0px">
  <defs/>
  <path d="M 60 324 L 207 324 L 207 105 L 189 60 L 126 60 Q 133.5 97.5 111 105 L 60 324 z" fill="rgb(255,217,194)" stroke="black"/>
  <text fill="rgb(9,33,173)" font-size="25" x="125.0" y="166.0">front_right</text>
  <path d="M 295.0 210.0 L 364.0 201.0 Q 422.5 160.5 349.0 96.0 L 331.0 105.0 L 313.0 60.0 L 295.0 210.0 z" fill="rgb(255,217,194)" stroke="black"/>
  <text fill="rgb(9,33,173)" font-size="25" x="305.4" y="137.4">Rhood</text>
  <path d="M 424.0 324.0 L 718.0 324.0 L 667.0 105.0 Q 644.5 97.5 652.0 60.0 L 589.0 60.0 L 571.0 69.0 L 553.0 60.0 L 490.0 60.0 Q 497.5 97.5 475.0 105.0 L 424.0 324.0 z" fill="rgb(255,217,194)" stroke="black"/>
  <text fill="rgb(9,33,173)" font-size="25" x="546.0" y="132.66666666666666">back</text>
  <path d="M 796.0 210.0 L 814.0 165.0 L 832.0 174.0 Q 905.5 109.5 847.0 69.0 L 778.0 60.0 L 796.0 210.0 z" fill="rgb(255,217,194)" stroke="black"/>
  <text fill="rgb(9,33,173)" font-size="25" x="788.4" y="138.6">Lhood</text>
  <path d="M 907.0 324.0 L 1054.0 324.0 L 1003.0 105.0 Q 980.5 97.5 988.0 60.0 L 925.0 60.0 L 907.0 105.0 L 907.0 324.0 z" fill="rgb(255,217,194)" stroke="black"/>
  <text fill="rgb(9,33,173)" font-size="25" x="939.0" y="166.0">front_left</text>
</svg>
