<?xml version="1.0" encoding="utf-8" ?>
<svg xmlns="http://www.w3.org/2000/svg" xmlns:ev="http://www.w3.org/2001/xml-events" xmlns:xlink="http://www.w3.org/1999/xlink" baseProfile="full" height="303px" version="1.1" width="1032px">
  <defs/>
  <path d="M 60 243 L 147 243 Q 158.70000000000002 87.60000000000002 150 60 L 90 60 Q 104.7 141.75 60 153 Q 69.0 157.5 60 243 z" fill="rgb(255,217,194)" stroke="black"/>
  <text fill="rgb(9,33,173)" font-size="25" x="76.4" y="154.8">Rback</text>
  <path d="M 213 243 L 300 243 Q 291.0 157.5 300 153 Q 259.95 140.25 270 60 L 210 60 Q 201.29999999999998 87.60000000000001 213 243 z" fill="rgb(255,217,194)" stroke="black"/>
  <text fill="rgb(9,33,173)" font-size="25" x="233.60000000000002" y="154.8">Rfront</text>
  <path d="M 366 168 L 423 168 L 480 168 L 486 147 Q 447.59999999999997 125.7 474 60 L 444 60 Q 423.0 116.09665002026726 402 60 L 372 60 Q 398.40000000000003 125.7 360 147 L 366 168 z" fill="rgb(255,217,194)" stroke="black"/>
  <text fill="rgb(9,33,173)" font-size="25" x="398.0" y="118.33333333333333">up_back</text>
  <path d="M 552 165 L 609 165 L 666 165 L 672 147 Q 633.6 125.7 660 60 L 630 60 L 609 99 L 588 60 L 558 60 Q 584.4 125.7 546 147 L 552 165 z" fill="rgb(255,217,194)" stroke="black"/>
  <text fill="rgb(9,33,173)" font-size="25" x="584.0" y="115.8">up_front</text>
  <path d="M 735 243 L 822 243 Q 813.0 157.5 822 153 Q 777.3 141.75 792 60 L 732 60 Q 723.3000000000001 87.60000000000001 735 243 z" fill="rgb(255,217,194)" stroke="black"/>
  <text fill="rgb(9,33,173)" font-size="25" x="755.6" y="154.8">Lback</text>
  <path d="M 882 243 L 969 243 Q 980.6999999999999 87.60000000000002 972 60 L 912 60 Q 922.05 140.25 882 153 Q 891.0 157.5 882 243 z" fill="rgb(255,217,194)" stroke="black"/>
  <text fill="rgb(9,33,173)" font-size="25" x="898.4" y="154.8">Lfront</text>
</svg>
