<?xml version="1.0" encoding="utf-8" ?>
<svg xmlns="http://www.w3.org/2000/svg" xmlns:ev="http://www.w3.org/2001/xml-events" xmlns:xlink="http://www.w3.org/1999/xlink" baseProfile="full" height="417px" version="1.1" width="794.0px">
  <defs/>
  <path d="M 60 357 L 189 357 L 189 141 L 162 60 L 132 60 Q 154.8 119.39999999999999 120 138 L 60 357 z" fill="rgb(255,217,194)" stroke="black"/>
  <text fill="rgb(9,33,173)" font-size="25" x="117.0" y="188.5">front_right</text>
  <path d="M 287.0 357.0 L 545.0 357.0 L 485.0 141.0 Q 449.0 121.5 473.0 60.0 L 443.0 60.0 Q 416.0 85.19569027491572 389.0 60.0 L 359.0 60.0 Q 383.0 121.49999999999999 347.0 141.0 L 287.0 357.0 z" fill="rgb(255,217,194)" stroke="black"/>
  <text fill="rgb(9,33,173)" font-size="25" x="391.0" y="157.5">back</text>
  <path d="M 605.0 357.0 L 734.0 357.0 L 674.0 138.0 Q 639.1999999999999 119.39999999999999 662.0 60.0 L 632.0 60.0 L 605.0 141.0 L 605.0 357.0 z" fill="rgb(255,217,194)" stroke="black"/>
  <text fill="rgb(9,33,173)" font-size="25" x="627.0" y="188.5">front_left</text>
</svg>
