<?xml version="1.0" encoding="utf-8" ?>
<svg xmlns="http://www.w3.org/2000/svg" xmlns:ev="http://www.w3.org/2001/xml-events" xmlns:xlink="http://www.w3.org/1999/xlink" baseProfile="full" height="531px" version="1.1" width="1211.0px">
  <defs/>
  <path d="M 60 471 L 228 471 L 228 81 L 189 60 L 153 60 Q 159.3 95.4 138 102 L 60 471 z" fill="rgb(255,217,194)" stroke="black"/>
  <text fill="rgb(9,33,173)" font-size="25" x="141.0" y="210.5">front_right</text>
  <path d="M 317.0 153.0 L 326.0 156.0 Q 395.29999999999995 168.60000000000002 389.0 72.0 L 353.0 81.0 L 311.0 60.0 L 317.0 153.0 z" fill="rgb(255,217,194)" stroke="black"/>
  <text fill="rgb(9,33,173)" font-size="25" x="314.2" y="107.4">Rhood</text>
  <path d="M 449.0 471.0 L 785.0 471.0 L 707.0 105.0 Q 684.5 97.5 692.0 60.0 L 656.0 60.0 L 617.0 69.0 L 578.0 60.0 L 542.0 60.0 Q 549.5 97.5 527.0 105.0 L 449.0 471.0 z" fill="rgb(255,217,194)" stroke="black"/>
  <text fill="rgb(9,33,173)" font-size="25" x="592.0" y="165.33333333333334">back</text>
  <path d="M 845.0 156.0 L 887.0 135.0 L 923.0 144.0 Q 929.3 47.400000000000006 860.0 60.0 L 851.0 63.0 L 845.0 156.0 z" fill="rgb(255,217,194)" stroke="black"/>
  <text fill="rgb(9,33,173)" font-size="25" x="848.2" y="114.6">Lhood</text>
  <path d="M 983.0 471.0 L 1151.0 471.0 L 1073.0 102.0 Q 1051.7 95.4 1058.0 60.0 L 1022.0 60.0 L 983.0 81.0 L 983.0 471.0 z" fill="rgb(255,217,194)" stroke="black"/>
  <text fill="rgb(9,33,173)" font-size="25" x="1020.0" y="210.5">front_left</text>
</svg>
