<?xml version="1.0" encoding="utf-8" ?>
<svg xmlns="http://www.w3.org/2000/svg" xmlns:ev="http://www.w3.org/2001/xml-events" xmlns:xlink="http://www.w3.org/1999/xlink" baseProfile="full" height="222.0px" version="1.1" width="1402.0px">
  <defs/>
  <path d="M 60 147 L 294 147 L 294 60 L 60 60 L 60 147 z" fill="rgb(255,217,194)" stroke="black"/>
  <text fill="rgb(9,33,173)" font-size="25" x="152.0" y="106.5">skirt_back</text>
  <path d="M 354 72 L 444 72 L 444 60 L 354 60 L 354 72 z" fill="rgb(255,217,194)" stroke="black"/>
  <text fill="rgb(9,33,173)" font-size="25" x="374.0" y="69.0">wb_back</text>
  <path d="M 504 72 L 594 72 L 594 60 L 504 60 L 504 72 z" fill="rgb(255,217,194)" stroke="black"/>
  <text fill="rgb(9,33,173)" font-size="25" x="524.0" y="69.0">wb_front</text>
  <path d="M 664.0 147.0 L 898.0 147.0 L 898.0 60.0 L 664.0 60.0 L 664.0 147.0 z" fill="rgb(255,217,194)" stroke="black"/>
  <text fill="rgb(9,33,173)" font-size="25" x="756.0" y="106.5">skirt_front</text>
  <path d="M 958.0 162.0 L 1120.0 162.0 L 1120.0 117.0 Q 1092.7 105.9 1105.0 60.0 L 1066.0 60.0 Q 1039.0 112.66288718096177 1012.0 60.0 L 973.0 60.0 Q 985.3 105.9 958.0 117.0 L 958.0 162.0 z" fill="rgb(255,217,194)" stroke="black"/>
  <text fill="rgb(9,33,173)" font-size="25" x="1014.0" y="102.75">top_back</text>
  <path d="M 1180.0 162.0 L 1342.0 162.0 L 1342.0 114.0 Q 1315.9 103.8 1327.0 60.0 L 1288.0 60.0 L 1261.0 111.0 L 1234.0 60.0 L 1195.0 60.0 Q 1206.1 103.8 1180.0 114.0 L 1180.0 162.0 z" fill="rgb(255,217,194)" stroke="black"/>
  <text fill="rgb(9,33,173)" font-size="25" x="1236.0" y="103.33333333333333">top_front</text>
</svg>
