<?xml version="1.0" encoding="utf-8" ?>
<svg xmlns="http://www.w3.org/2000/svg" xmlns:ev="http://www.w3.org/2001/xml-events" xmlns:xlink="http://www.w3.org/1999/xlink" baseProfile="full" height="264.0px" version="1.1" width="1571.4px">
  <defs/>
  <path d="M 60 168 L 99 168 Q 123.0 106.50000000000001 87 87 L 60 60 L 60 168 z" fill="rgb(255,217,194)" stroke="black"/>
  <text fill="rgb(9,33,173)" font-size="25" x="51.5" y="123.75">rbsleeve</text>
  <path d="M 191.5 168.0 L 218.5 141.0 Q 254.5 121.5 230.5 60.0 L 191.5 60.0 L 191.5 168.0 z" fill="rgb(255,217,194)" stroke="black"/>
  <text fill="rgb(9,33,173)" font-size="25" x="183.0" y="110.25">rfsleeve</text>
  <path d="M 323.0 204.0 L 371.0 204.0 Q 413.9 83.7 413.0 60.0 L 353.0 60.0 Q 367.7 141.75 323.0 153.0 Q 328.1 155.55 323.0 204.0 z" fill="rgb(255,217,194)" stroke="black"/>
  <text fill="rgb(9,33,173)" font-size="25" x="331.6" y="139.2">Rback</text>
  <path d="M 515.0 204.0 L 563.0 204.0 Q 557.9 155.55 563.0 153.0 Q 522.95 140.25 533.0 60.0 L 473.0 60.0 Q 472.1 83.69999999999999 515.0 204.0 z" fill="rgb(255,217,194)" stroke="black"/>
  <text fill="rgb(9,33,173)" font-size="25" x="504.4" y="139.2">Rfront</text>
  <path d="M 630.4 168.0 L 690.4 168.0 L 750.4 168.0 L 756.4 138.0 Q 722.4999999999999 118.19999999999999 747.4 60.0 L 705.4 60.0 Q 690.4 65.77418660261617 675.4 60.0 L 633.4 60.0 Q 658.3000000000001 118.19999999999999 624.4 138.0 L 630.4 168.0 z" fill="rgb(255,217,194)" stroke="black"/>
  <text fill="rgb(9,33,173)" font-size="25" x="665.3999999999999" y="116.33333333333333">up_back</text>
  <path d="M 822.4 165.0 L 882.4 165.0 L 942.4 165.0 L 948.4 138.0 Q 914.4999999999999 118.19999999999999 939.4 60.0 L 897.4 60.0 L 882.4 63.0 L 867.4 60.0 L 825.4 60.0 Q 850.3000000000001 118.19999999999999 816.4 138.0 L 822.4 165.0 z" fill="rgb(255,217,194)" stroke="black"/>
  <text fill="rgb(9,33,173)" font-size="25" x="857.3999999999999" y="110.4">up_front</text>
  <path d="M 1050.4 204.0 L 1098.4 204.0 Q 1093.3000000000002 155.55 1098.4 153.0 Q 1053.7 141.75 1068.4 60.0 L 1008.4 60.0 Q 1007.5 83.7 1050.4 204.0 z" fill="rgb(255,217,194)" stroke="black"/>
  <text fill="rgb(9,33,173)" font-size="25" x="1039.8" y="139.2">Lback</text>
  <path d="M 1158.4 204.0 L 1206.4 204.0 Q 1249.3000000000002 83.7 1248.4 60.0 L 1188.4 60.0 Q 1198.45 140.25 1158.4 153.0 Q 1163.5 155.55 1158.4 204.0 z" fill="rgb(255,217,194)" stroke="black"/>
  <text fill="rgb(9,33,173)" font-size="25" x="1167.0" y="139.2">Lfront</text>
  <path d="M 1308.4 168.0 L 1335.4 141.0 Q 1371.4 121.5 1347.4 60.0 L 1308.4 60.0 L 1308.4 168.0 z" fill="rgb(255,217,194)" stroke="black"/>
  <text fill="rgb(9,33,173)" font-size="25" x="1299.9" y="110.25">lbsleeve</text>
  <path d="M 1439.9 168.0 L 1478.9 168.0 Q 1502.9 106.50000000000001 1466.9 87.0 L 1439.9 60.0 L 1439.9 168.0 z" fill="rgb(255,217,194)" stroke="black"/>
  <text fill="rgb(9,33,173)" font-size="25" x="1431.4" y="123.75">lfsleeve</text>
</svg>
