<?xml version="1.0" encoding="utf-8" ?>
<svg xmlns="http://www.w3.org/2000/svg" xmlns:ev="http://www.w3.org/2001/xml-events" xmlns:xlink="http://www.w3.org/1999/xlink" baseProfile="full" height="306px" version="1.1" width="1140px">
  <defs/>
  <path d="M 60 246 L 129 246 Q 168.9 89.7 165 60 L 90 60 Q 104.7 141.75 60 153 Q 69.3 157.65 60 246 z" fill="rgb(255,217,194)" stroke="black"/>
  <text fill="rgb(9,33,173)" font-size="25" x="75.8" y="156.0">Rback</text>
  <path d="M 261 246 L 330 246 Q 320.7 157.65 330 153 Q 289.95 140.25 300 60 L 225 60 Q 221.1 89.7 261 246 z" fill="rgb(255,217,194)" stroke="black"/>
  <text fill="rgb(9,33,173)" font-size="25" x="264.2" y="156.0">Rfront</text>
  <path d="M 390 168 L 465 168 L 540 168 L 528 105 Q 507.29999999999995 95.1 519 60 L 483 60 Q 465.0 67.7826883935874 447 60 L 411 60 Q 422.7 95.1 402 105 L 390 168 z" fill="rgb(255,217,194)" stroke="black"/>
  <text fill="rgb(9,33,173)" font-size="25" x="440.0" y="109.0">up_back</text>
  <path d="M 600 165 L 675 165 L 750 165 L 738 105 Q 717.3 95.1 729 60 L 693 60 L 675 78 L 657 60 L 621 60 Q 632.7 95.1 612 105 L 600 165 z" fill="rgb(255,217,194)" stroke="black"/>
  <text fill="rgb(9,33,173)" font-size="25" x="650.0" y="105.3">up_front</text>
  <path d="M 846 246 L 915 246 Q 905.7 157.65 915 153 Q 870.3 141.75 885 60 L 810 60 Q 806.1 89.7 846 246 z" fill="rgb(255,217,194)" stroke="black"/>
  <text fill="rgb(9,33,173)" font-size="25" x="849.2" y="156.0">Lback</text>
  <path d="M 975 246 L 1044 246 Q 1083.8999999999999 89.7 1080 60 L 1005 60 Q 1015.05 140.25 975 153 Q 984.3 157.65 975 246 z" fill="rgb(255,217,194)" stroke="black"/>
  <text fill="rgb(9,33,173)" font-size="25" x="990.8" y="156.0">Lfront</text>
</svg>
