<?xml version="1.0" encoding="utf-8" ?>
<svg xmlns="http://www.w3.org/2000/svg" xmlns:ev="http://www.w3.org/2001/xml-events" xmlns:xlink="http://www.w3.org/1999/xlink" baseProfile="full" height="381px" version="1.1" width="1570.0px">
  <defs/>
  <path d="M 60 321 L 189 321 L 198 60 L 90 60 Q 104.7 141.75 60 153 Q 76.8 161.4 60 321 z" fill="rgb(255,217,194)" stroke="black"/>
  <text fill="rgb(9,33,173)" font-size="25" x="94.4" y="186.0">Rback</text>
  <path d="M 267 321 L 396 321 Q 379.2 161.4 396 153 Q 355.95 140.25 366 60 L 258 60 L 267 321 z" fill="rgb(255,217,194)" stroke="black"/>
  <text fill="rgb(9,33,173)" font-size="25" x="311.6" y="186.0">Rfront</text>
  <path d="M 456 75 L 495 75 L 534 75 L 534 60 L 456 60 L 456 75 z" fill="rgb(255,217,194)" stroke="black"/>
  <text fill="rgb(9,33,173)" font-size="25" x="470.0" y="72.0">wb_back</text>
  <path d="M 600.0 75.0 L 639.0 75.0 L 678.0 75.0 L 678.0 60.0 L 600.0 60.0 L 600.0 75.0 z" fill="rgb(255,217,194)" stroke="black"/>
  <text fill="rgb(9,33,173)" font-size="25" x="614.0" y="72.0">wb_front</text>
  <path d="M 754.0 171.0 L 904.0 171.0 L 904.0 108.0 Q 881.1999999999999 98.39999999999999 892.0 60.0 L 853.0 60.0 Q 829.0 153.10715170748898 805.0 60.0 L 766.0 60.0 Q 776.8000000000001 98.39999999999999 754.0 108.0 L 754.0 171.0 z" fill="rgb(255,217,194)" stroke="black"/>
  <text fill="rgb(9,33,173)" font-size="25" x="804.0" y="102.75">top_back</text>
  <path d="M 964.0 171.0 L 1114.0 171.0 L 1114.0 105.0 Q 1092.4 96.3 1102.0 60.0 L 1063.0 60.0 L 1039.0 135.0 L 1015.0 60.0 L 976.0 60.0 Q 985.6 96.3 964.0 105.0 L 964.0 171.0 z" fill="rgb(255,217,194)" stroke="black"/>
  <text fill="rgb(9,33,173)" font-size="25" x="1014.0" y="106.0">top_front</text>
  <path d="M 1183.0 321.0 L 1312.0 321.0 Q 1295.2 161.4 1312.0 153.0 Q 1267.3 141.75 1282.0 60.0 L 1174.0 60.0 L 1183.0 321.0 z" fill="rgb(255,217,194)" stroke="black"/>
  <text fill="rgb(9,33,173)" font-size="25" x="1227.6" y="186.0">Lback</text>
  <path d="M 1372.0 321.0 L 1501.0 321.0 L 1510.0 60.0 L 1402.0 60.0 Q 1412.05 140.25 1372.0 153.0 Q 1388.8 161.4 1372.0 321.0 z" fill="rgb(255,217,194)" stroke="black"/>
  <text fill="rgb(9,33,173)" font-size="25" x="1406.4" y="186.0">Lfront</text>
</svg>
