<?xml version="1.0" encoding="utf-8" ?>
<svg xmlns="http://www.w3.org/2000/svg" xmlns:ev="http://www.w3.org/2001/xml-events" xmlns:xlink="http://www.w3.org/1999/xlink" baseProfile="full" height="315px" version="1.1" width="1570.0px">
  <defs/>
  <path d="M 60 255 L 150 255 L 201 60 L 90 60 Q 102.30000000000001 137.25 60 147 Q 70.8 152.4 60 255 z" fill="rgb(255,217,194)" stroke="black"/>
  <text fill="rgb(9,33,173)" font-size="25" x="87.2" y="158.4">Rback</text>
  <path d="M 312 255 L 402 255 Q 391.2 152.4 402 147 Q 364.05 135.75 372 60 L 261 60 L 312 255 z" fill="rgb(255,217,194)" stroke="black"/>
  <text fill="rgb(9,33,173)" font-size="25" x="324.8" y="158.4">Rfront</text>
  <path d="M 462 75 L 501 75 L 540 75 L 540 60 L 462 60 L 462 75 z" fill="rgb(255,217,194)" stroke="black"/>
  <text fill="rgb(9,33,173)" font-size="25" x="476.0" y="72.0">wb_back</text>
  <path d="M 606.0 75.0 L 645.0 75.0 L 684.0 75.0 L 684.0 60.0 L 606.0 60.0 L 606.0 75.0 z" fill="rgb(255,217,194)" stroke="black"/>
  <text fill="rgb(9,33,173)" font-size="25" x="620.0" y="72.0">wb_front</text>
  <path d="M 760.0 183.0 L 904.0 183.0 L 904.0 150.0 Q 864.4 127.8 892.0 60.0 L 850.0 60.0 Q 832.0 119.46572569701586 814.0 60.0 L 772.0 60.0 Q 799.6 127.8 760.0 150.0 L 760.0 183.0 z" fill="rgb(255,217,194)" stroke="black"/>
  <text fill="rgb(9,33,173)" font-size="25" x="807.0" y="116.25">top_back</text>
  <path d="M 964.0 183.0 L 1108.0 183.0 L 1108.0 150.0 Q 1068.4 127.8 1096.0 60.0 L 1054.0 60.0 L 1036.0 126.0 L 1018.0 60.0 L 976.0 60.0 Q 1003.6 127.8 964.0 150.0 L 964.0 183.0 z" fill="rgb(255,217,194)" stroke="black"/>
  <text fill="rgb(9,33,173)" font-size="25" x="1011.0" y="117.66666666666667">top_front</text>
  <path d="M 1219.0 255.0 L 1309.0 255.0 Q 1298.2 152.4 1309.0 147.0 Q 1266.7 137.25 1279.0 60.0 L 1168.0 60.0 L 1219.0 255.0 z" fill="rgb(255,217,194)" stroke="black"/>
  <text fill="rgb(9,33,173)" font-size="25" x="1231.8" y="158.4">Lback</text>
  <path d="M 1369.0 255.0 L 1459.0 255.0 L 1510.0 60.0 L 1399.0 60.0 Q 1406.95 135.75 1369.0 147.0 Q 1379.8 152.4 1369.0 255.0 z" fill="rgb(255,217,194)" stroke="black"/>
  <text fill="rgb(9,33,173)" font-size="25" x="1396.2" y="158.4">Lfront</text>
</svg>
