<?xml version="1.0" encoding="utf-8" ?>
<svg xmlns="http://www.w3.org/2000/svg" xmlns:ev="http://www.w3.org/2001/xml-events" xmlns:xlink="http://www.w3.org/1999/xlink" baseProfile="full" height="363.0px" version="1.1" width="1142.0px">
  <defs/>
  <path d="M 60 159 L 108 159 Q 136.8 89.10000000000001 96 66 L 60 60 L 60 159 z" fill="rgb(255,217,194)" stroke="black"/>
  <text fill="rgb(9,33,173)" font-size="25" x="56.0" y="114.0">rbsleeve</text>
  <path d="M 196.0 159.0 L 232.0 153.0 Q 272.8 129.9 244.0 60.0 L 196.0 60.0 L 196.0 159.0 z" fill="rgb(255,217,194)" stroke="black"/>
  <text fill="rgb(9,33,173)" font-size="25" x="192.0" y="111.0">rfsleeve</text>
  <path d="M 347.0 303.0 L 398.0 303.0 L 398.0 63.0 L 377.0 60.0 L 341.0 60.0 Q 371.9 128.7 332.0 153.0 L 347.0 303.0 z" fill="rgb(255,217,194)" stroke="black"/>
  <text fill="rgb(9,33,173)" font-size="25" x="340.5" y="160.0">front_right</text>
  <path d="M 525.5 303.0 L 627.5 303.0 L 642.5 153.0 Q 602.5999999999999 128.7 633.5 60.0 L 597.5 60.0 Q 576.5 62.91655653059183 555.5 60.0 L 519.5 60.0 Q 550.4000000000001 128.7 510.5 153.0 L 525.5 303.0 z" fill="rgb(255,217,194)" stroke="black"/>
  <text fill="rgb(9,33,173)" font-size="25" x="551.5" y="147.0">back</text>
  <path d="M 702.5 303.0 L 753.5 303.0 L 768.5 153.0 Q 728.5999999999999 128.7 759.5 60.0 L 723.5 60.0 L 702.5 63.0 L 702.5 303.0 z" fill="rgb(255,217,194)" stroke="black"/>
  <text fill="rgb(9,33,173)" font-size="25" x="710.0" y="160.0">front_left</text>
  <path d="M 870.0 159.0 L 906.0 153.0 Q 946.8000000000001 129.9 918.0 60.0 L 870.0 60.0 L 870.0 159.0 z" fill="rgb(255,217,194)" stroke="black"/>
  <text fill="rgb(9,33,173)" font-size="25" x="866.0" y="111.0">lbsleeve</text>
  <path d="M 1006.0 159.0 L 1054.0 159.0 Q 1082.8 89.10000000000001 1042.0 66.0 L 1006.0 60.0 L 1006.0 159.0 z" fill="rgb(255,217,194)" stroke="black"/>
  <text fill="rgb(9,33,173)" font-size="25" x="1002.0" y="114.0">lfsleeve</text>
</svg>
