<?xml version="1.0" encoding="utf-8" ?>
<svg xmlns="http://www.w3.org/2000/svg" xmlns:ev="http://www.w3.org/2001/xml-events" xmlns:xlink="http://www.w3.org/1999/xlink" baseProfile="full" height="393px" version="1.1" width="1591.5px">
  <defs/>
  <path d="M 60 231 L 168 231 Q 206.4 144.3 156 114 L 60 60 L 60 231 z" fill="rgb(255,217,194)" stroke="black"/>
  <text fill="rgb(9,33,173)" font-size="25" x="86.0" y="162.0">rbsleeve</text>
  <path d="M 228 231 L 324 177 Q 374.40000000000003 146.70000000000002 336 60 L 228 60 L 228 231 z" fill="rgb(255,217,194)" stroke="black"/>
  <text fill="rgb(9,33,173)" font-size="25" x="254.0" y="135.0">rfsleeve</text>
  <path d="M 396 333 L 558 333 L 558 105 L 528 60 L 498 60 Q 537.3 143.4 489 174 L 396 333 z" fill="rgb(255,217,194)" stroke="black"/>
  <text fill="rgb(9,33,173)" font-size="25" x="479.5" y="180.5">front_right</text>
  <path d="M 649.5 333.0 L 973.5 333.0 L 880.5 174.0 Q 832.1999999999999 143.4 871.5 60.0 L 841.5 60.0 Q 811.5 222.34644437809314 781.5 60.0 L 751.5 60.0 Q 790.8000000000001 143.4 742.5 174.0 L 649.5 333.0 z" fill="rgb(255,217,194)" stroke="black"/>
  <text fill="rgb(9,33,173)" font-size="25" x="786.5" y="159.75">back</text>
  <path d="M 1033.5 333.0 L 1195.5 333.0 L 1102.5 174.0 Q 1054.2 143.4 1093.5 60.0 L 1063.5 60.0 L 1033.5 105.0 L 1033.5 333.0 z" fill="rgb(255,217,194)" stroke="black"/>
  <text fill="rgb(9,33,173)" font-size="25" x="1062.0" y="180.5">front_left</text>
  <path d="M 1255.5 231.0 L 1351.5 177.0 Q 1401.8999999999999 146.70000000000002 1363.5 60.0 L 1255.5 60.0 L 1255.5 231.0 z" fill="rgb(255,217,194)" stroke="black"/>
  <text fill="rgb(9,33,173)" font-size="25" x="1281.5" y="135.0">lbsleeve</text>
  <path d="M 1423.5 231.0 L 1531.5 231.0 Q 1569.8999999999999 144.3 1519.5 114.0 L 1423.5 60.0 L 1423.5 231.0 z" fill="rgb(255,217,194)" stroke="black"/>
  <text fill="rgb(9,33,173)" font-size="25" x="1449.5" y="162.0">lfsleeve</text>
</svg>
