<?xml version="1.0" encoding="utf-8" ?>
<svg xmlns="http://www.w3.org/2000/svg" xmlns:ev="http://www.w3.org/2001/xml-events" xmlns:xlink="http://www.w3.org/1999/xlink" baseProfile="full" height="282px" version="1.1" width="1558.0px">
  <defs/>
  <path d="M 60 222 L 150 222 L 195 60 L 90 60 Q 101.1 135.0 60 144 Q 67.8 147.9 60 222 z" fill="rgb(255,217,194)" stroke="black"/>
  <text fill="rgb(9,33,173)" font-size="25" x="86.0" y="144.6">Rback</text>
  <path d="M 300 222 L 390 222 Q 382.2 147.9 390 144 Q 353.1 133.5 360 60 L 255 60 L 300 222 z" fill="rgb(255,217,194)" stroke="black"/>
  <text fill="rgb(9,33,173)" font-size="25" x="314.0" y="144.6">Rfront</text>
  <path d="M 450 81 L 489 81 L 528 81 L 528 60 L 450 60 L 450 81 z" fill="rgb(255,217,194)" stroke="black"/>
  <text fill="rgb(9,33,173)" font-size="25" x="464.0" y="75.6">wb_back</text>
  <path d="M 594.0 81.0 L 633.0 81.0 L 672.0 81.0 L 672.0 60.0 L 594.0 60.0 L 594.0 81.0 z" fill="rgb(255,217,194)" stroke="black"/>
  <text fill="rgb(9,33,173)" font-size="25" x="608.0" y="75.6">wb_front</text>
  <path d="M 748.0 159.0 L 898.0 159.0 L 898.0 144.0 Q 860.8 123.6 886.0 60.0 L 838.0 60.0 Q 823.0 98.05553258162455 808.0 60.0 L 760.0 60.0 Q 785.2 123.6 748.0 144.0 L 748.0 159.0 z" fill="rgb(255,217,194)" stroke="black"/>
  <text fill="rgb(9,33,173)" font-size="25" x="798.0" y="108.75">top_back</text>
  <path d="M 958.0 159.0 L 1108.0 159.0 L 1108.0 141.0 Q 1072.0 121.5 1096.0 60.0 L 1048.0 60.0 L 1033.0 138.0 L 1018.0 60.0 L 970.0 60.0 Q 994.0 121.49999999999999 958.0 141.0 L 958.0 159.0 z" fill="rgb(255,217,194)" stroke="black"/>
  <text fill="rgb(9,33,173)" font-size="25" x="1008.0" y="111.66666666666667">top_front</text>
  <path d="M 1213.0 222.0 L 1303.0 222.0 Q 1295.2 147.9 1303.0 144.0 Q 1261.9 135.0 1273.0 60.0 L 1168.0 60.0 L 1213.0 222.0 z" fill="rgb(255,217,194)" stroke="black"/>
  <text fill="rgb(9,33,173)" font-size="25" x="1227.0" y="144.6">Lback</text>
  <path d="M 1363.0 222.0 L 1453.0 222.0 L 1498.0 60.0 L 1393.0 60.0 Q 1399.9 133.5 1363.0 144.0 Q 1370.8 147.9 1363.0 222.0 z" fill="rgb(255,217,194)" stroke="black"/>
  <text fill="rgb(9,33,173)" font-size="25" x="1389.0" y="144.6">Lfront</text>
</svg>
