<?xml version="1.0" encoding="utf-8" ?>
<svg xmlns="http://www.w3.org/2000/svg" xmlns:ev="http://www.w3.org/2001/xml-events" xmlns:xlink="http://www.w3.org/1999/xlink" baseProfile="full" height="342.0px" version="1.1" width="1558.0px">
  <defs/>
  <path d="M 60 177 L 135 177 Q 162.6 109.2 123 87 L 60 60 L 60 177 z" fill="rgb(255,217,194)" stroke="black"/>
  <text fill="rgb(9,33,173)" font-size="25" x="69.5" y="128.25">rbsleeve</text>
  <path d="M 209.5 177.0 L 272.5 150.0 Q 312.1 127.8 284.5 60.0 L 209.5 60.0 L 209.5 177.0 z" fill="rgb(255,217,194)" stroke="black"/>
  <text fill="rgb(9,33,173)" font-size="25" x="219.0" y="114.75">rfsleeve</text>
  <path d="M 359.0 282.0 Q 452.0 313.39139058354533 545.0 282.0 L 530.0 102.0 L 521.0 60.0 L 383.0 60.0 L 374.0 102.0 L 359.0 282.0 z" fill="rgb(255,217,194)" stroke="black"/>
  <text fill="rgb(9,33,173)" font-size="25" x="427.0" y="151.0">skirt_back</text>
  <path d="M 605.0 282.0 Q 698.0 373.86913227441806 791.0 282.0 L 776.0 102.0 L 767.0 60.0 L 629.0 60.0 L 620.0 102.0 L 605.0 282.0 z" fill="rgb(255,217,194)" stroke="black"/>
  <text fill="rgb(9,33,173)" font-size="25" x="673.0" y="151.0">skirt_front</text>
  <path d="M 854.0 168.0 L 992.0 168.0 L 995.0 150.0 Q 955.4 127.8 983.0 60.0 L 953.0 60.0 Q 923.0 157.67586146137535 893.0 60.0 L 863.0 60.0 Q 890.6 127.8 851.0 150.0 L 854.0 168.0 z" fill="rgb(255,217,194)" stroke="black"/>
  <text fill="rgb(9,33,173)" font-size="25" x="898.0" y="112.5">top_back</text>
  <path d="M 1058.0 165.0 L 1196.0 165.0 L 1199.0 150.0 Q 1159.4 127.8 1187.0 60.0 L 1157.0 60.0 L 1127.0 75.0 L 1097.0 60.0 L 1067.0 60.0 Q 1094.6 127.8 1055.0 150.0 L 1058.0 165.0 z" fill="rgb(255,217,194)" stroke="black"/>
  <text fill="rgb(9,33,173)" font-size="25" x="1102.0" y="108.0">top_front</text>
  <path d="M 1259.0 177.0 L 1322.0 150.0 Q 1361.6 127.8 1334.0 60.0 L 1259.0 60.0 L 1259.0 177.0 z" fill="rgb(255,217,194)" stroke="black"/>
  <text fill="rgb(9,33,173)" font-size="25" x="1268.5" y="114.75">lbsleeve</text>
  <path d="M 1408.5 177.0 L 1483.5 177.0 Q 1511.1 109.2 1471.5 87.0 L 1408.5 60.0 L 1408.5 177.0 z" fill="rgb(255,217,194)" stroke="black"/>
  <text fill="rgb(9,33,173)" font-size="25" x="1418.0" y="128.25">lfsleeve</text>
</svg>
