<?xml version="1.0" encoding="utf-8" ?>
<svg xmlns="http://www.w3.org/2000/svg" xmlns:ev="http://www.w3.org/2001/xml-events" xmlns:xlink="http://www.w3.org/1999/xlink" baseProfile="full" height="408px" version="1.1" width="1718.0px">
  <defs/>
  <path d="M 60 144 L 192 144 Q 213.9 81.30000000000001 177 63 L 60 60 L 60 144 z" fill="rgb(255,217,194)" stroke="black"/>
  <text fill="rgb(9,33,173)" font-size="25" x="97.25" y="105.75">rbsleeve</text>
  <path d="M 252 144 L 369 141 Q 405.9 122.7 384 60 L 252 60 L 252 144 z" fill="rgb(255,217,194)" stroke="black"/>
  <text fill="rgb(9,33,173)" font-size="25" x="289.25" y="104.25">rfsleeve</text>
  <path d="M 444 348 L 615 348 L 615 123 L 597 60 L 540 60 Q 560.7 120.6 525 138 L 444 348 z" fill="rgb(255,217,194)" stroke="black"/>
  <text fill="rgb(9,33,173)" font-size="25" x="531.0" y="182.5">front_right</text>
  <path d="M 701.0 348.0 L 1043.0 348.0 L 962.0 138.0 Q 926.3 120.6 947.0 60.0 L 890.0 60.0 Q 872.0 173.00100899128256 854.0 60.0 L 797.0 60.0 Q 817.7 120.6 782.0 138.0 L 701.0 348.0 z" fill="rgb(255,217,194)" stroke="black"/>
  <text fill="rgb(9,33,173)" font-size="25" x="847.0" y="154.5">back</text>
  <path d="M 1103.0 348.0 L 1274.0 348.0 L 1193.0 138.0 Q 1157.3 120.6 1178.0 60.0 L 1121.0 60.0 L 1103.0 123.0 L 1103.0 348.0 z" fill="rgb(255,217,194)" stroke="black"/>
  <text fill="rgb(9,33,173)" font-size="25" x="1137.0" y="182.5">front_left</text>
  <path d="M 1334.0 144.0 L 1451.0 141.0 Q 1487.9 122.7 1466.0 60.0 L 1334.0 60.0 L 1334.0 144.0 z" fill="rgb(255,217,194)" stroke="black"/>
  <text fill="rgb(9,33,173)" font-size="25" x="1371.25" y="104.25">lbsleeve</text>
  <path d="M 1526.0 144.0 L 1658.0 144.0 Q 1679.9 81.30000000000001 1643.0 63.0 L 1526.0 60.0 L 1526.0 144.0 z" fill="rgb(255,217,194)" stroke="black"/>
  <text fill="rgb(9,33,173)" font-size="25" x="1563.25" y="105.75">lfsleeve</text>
</svg>
