<?xml version="1.0" encoding="utf-8" ?>
<svg xmlns="http://www.w3.org/2000/svg" xmlns:ev="http://www.w3.org/2001/xml-events" xmlns:xlink="http://www.w3.org/1999/xlink" baseProfile="full" height="264px" version="1.1" width="1140px">
  <defs/>
  <path d="M 60 204 L 162 204 Q 164.1 81.30000000000001 156 60 L 90 60 Q 104.7 141.75 60 153 Q 65.1 155.55 60 204 z" fill="rgb(255,217,194)" stroke="black"/>
  <text fill="rgb(9,33,173)" font-size="25" x="80.6" y="139.2">Rback</text>
  <path d="M 222 204 L 324 204 Q 318.9 155.55 324 153 Q 283.95 140.25 294 60 L 228 60 Q 219.9 81.3 222 204 z" fill="rgb(255,217,194)" stroke="black"/>
  <text fill="rgb(9,33,173)" font-size="25" x="253.39999999999998" y="139.2">Rfront</text>
  <path d="M 396 168 L 462 168 L 528 168 L 540 117 Q 513.6 104.7 528 60 L 492 60 Q 462.0 111.59936248190235 432 60 L 396 60 Q 410.40000000000003 104.7 384 117 L 396 168 z" fill="rgb(255,217,194)" stroke="black"/>
  <text fill="rgb(9,33,173)" font-size="25" x="437.0" y="111.66666666666667">up_back</text>
  <path d="M 612 165 L 678 165 L 744 165 L 756 117 Q 729.6 104.7 744 60 L 708 60 L 678 114 L 648 60 L 612 60 Q 626.4 104.7 600 117 L 612 165 z" fill="rgb(255,217,194)" stroke="black"/>
  <text fill="rgb(9,33,173)" font-size="25" x="653.0" y="111.3">up_front</text>
  <path d="M 816 204 L 918 204 Q 912.9 155.55 918 153 Q 873.3 141.75 888 60 L 822 60 Q 813.9 81.3 816 204 z" fill="rgb(255,217,194)" stroke="black"/>
  <text fill="rgb(9,33,173)" font-size="25" x="847.4" y="139.2">Lback</text>
  <path d="M 978 204 L 1080 204 Q 1082.1000000000001 81.30000000000001 1074 60 L 1008 60 Q 1018.05 140.25 978 153 Q 983.1 155.55 978 204 z" fill="rgb(255,217,194)" stroke="black"/>
  <text fill="rgb(9,33,173)" font-size="25" x="998.6" y="139.2">Lfront</text>
</svg>
