<?xml version="1.0" encoding="utf-8" ?>
<svg xmlns="http://www.w3.org/2000/svg" xmlns:ev="http://www.w3.org/2001/xml-events" xmlns:xlink="http://www.w3.org/1999/xlink" baseProfile="full" height="252.0px" version="1.1" width="1276.0px">
  <defs/>
  <path d="M 60 168 L 120 168 Q 154.8 87.60000000000001 108 60 L 60 117 L 60 168 z" fill="rgb(255,217,194)" stroke="black"/>
  <text fill="rgb(9,33,173)" font-size="25" x="62.0" y="131.25">rbsleeve</text>
  <path d="M 202.0 111.0 L 250.0 168.0 Q 296.8 140.4 262.0 60.0 L 202.0 60.0 L 202.0 111.0 z" fill="rgb(255,217,194)" stroke="black"/>
  <text fill="rgb(9,33,173)" font-size="25" x="204.0" y="102.75">rfsleeve</text>
  <path d="M 344.0 192.0 L 608.0 192.0 L 542.0 168.0 Q 496.09999999999997 139.2 533.0 60.0 L 497.0 60.0 Q 476.0 95.22276141651864 455.0 60.0 L 419.0 60.0 Q 455.9 139.2 410.0 168.0 L 344.0 192.0 z" fill="rgb(255,217,194)" stroke="black"/>
  <text fill="rgb(9,33,173)" font-size="25" x="451.0" y="123.0">back</text>
  <path d="M 668.0 192.0 L 932.0 192.0 L 866.0 168.0 Q 820.0999999999999 139.2 857.0 60.0 L 821.0 60.0 L 800.0 123.0 L 779.0 60.0 L 743.0 60.0 Q 779.9000000000001 139.2 734.0 168.0 L 668.0 192.0 z" fill="rgb(255,217,194)" stroke="black"/>
  <text fill="rgb(9,33,173)" font-size="25" x="775.0" y="123.33333333333333">front</text>
  <path d="M 992.0 111.0 L 1040.0 168.0 Q 1086.8 140.4 1052.0 60.0 L 992.0 60.0 L 992.0 111.0 z" fill="rgb(255,217,194)" stroke="black"/>
  <text fill="rgb(9,33,173)" font-size="25" x="994.0" y="102.75">lbsleeve</text>
  <path d="M 1134.0 168.0 L 1194.0 168.0 Q 1228.8 87.60000000000001 1182.0 60.0 L 1134.0 117.0 L 1134.0 168.0 z" fill="rgb(255,217,194)" stroke="black"/>
  <text fill="rgb(9,33,173)" font-size="25" x="1136.0" y="131.25">lfsleeve</text>
</svg>
