<?xml version="1.0" encoding="utf-8" ?>
<svg xmlns="http://www.w3.org/2000/svg" xmlns:ev="http://www.w3.org/2001/xml-events" xmlns:xlink="http://www.w3.org/1999/xlink" baseProfile="full" height="366px" version="1.1" width="1404px">
  <defs/>
  <path d="M 60 306 Q 264.0 282.84791351039064 468 306 L 339 102 L 321 60 L 207 60 L 189 102 L 60 306 z" fill="rgb(255,217,194)" stroke="black"/>
  <text fill="rgb(9,33,173)" font-size="25" x="239.0" y="159.0">skirt_back</text>
  <path d="M 528 306 Q 732.0 400.40070718487686 936 306 L 807 102 L 789 60 L 675 60 L 657 102 L 528 306 z" fill="rgb(255,217,194)" stroke="black"/>
  <text fill="rgb(9,33,173)" font-size="25" x="707.0" y="159.0">skirt_front</text>
  <path d="M 1011 168 L 1125 168 L 1140 126 Q 1110.0 111.0 1128 60 L 1092 60 Q 1068.0 68.19731544745578 1044 60 L 1008 60 Q 1026.0 110.99999999999999 996 126 L 1011 168 z" fill="rgb(255,217,194)" stroke="black"/>
  <text fill="rgb(9,33,173)" font-size="25" x="1043.0" y="106.5">top_back</text>
  <path d="M 1215 165 L 1329 165 L 1344 126 Q 1314.0 111.0 1332 60 L 1296 60 L 1272 138 L 1248 60 L 1212 60 Q 1230.0 110.99999999999999 1200 126 L 1215 165 z" fill="rgb(255,217,194)" stroke="black"/>
  <text fill="rgb(9,33,173)" font-size="25" x="1247.0" y="109.66666666666667">top_front</text>
</svg>
