<?xml version="1.0" encoding="utf-8" ?>
<svg xmlns="http://www.w3.org/2000/svg" xmlns:ev="http://www.w3.org/2001/xml-events" xmlns:xlink="http://www.w3.org/1999/xlink" baseProfile="full" height="285px" version="1.1" width="1342.0px">
  <defs/>
  <path d="M 60 225 L 264 225 L 264 60 L 60 60 L 60 225 z" fill="rgb(255,217,194)" stroke="black"/>
  <text fill="rgb(9,33,173)" font-size="25" x="137.0" y="145.5">skirt_back</text>
  <path d="M 324 72 L 414 72 L 414 60 L 324 60 L 324 72 z" fill="rgb(255,217,194)" stroke="black"/>
  <text fill="rgb(9,33,173)" font-size="25" x="344.0" y="69.0">wb_back</text>
  <path d="M 474 72 L 564 72 L 564 60 L 474 60 L 474 72 z" fill="rgb(255,217,194)" stroke="black"/>
  <text fill="rgb(9,33,173)" font-size="25" x="494.0" y="69.0">wb_front</text>
  <path d="M 634.0 225.0 L 838.0 225.0 L 838.0 60.0 L 634.0 60.0 L 634.0 225.0 z" fill="rgb(255,217,194)" stroke="black"/>
  <text fill="rgb(9,33,173)" font-size="25" x="711.0" y="145.5">skirt_front</text>
  <path d="M 898.0 156.0 L 1060.0 156.0 L 1060.0 126.0 Q 1030.0 111.0 1048.0 60.0 L 1000.0 60.0 Q 979.0 84.22584437051913 958.0 60.0 L 910.0 60.0 Q 928.0 110.99999999999999 898.0 126.0 L 898.0 156.0 z" fill="rgb(255,217,194)" stroke="black"/>
  <text fill="rgb(9,33,173)" font-size="25" x="954.0" y="103.5">top_back</text>
  <path d="M 1120.0 156.0 L 1282.0 156.0 L 1282.0 126.0 Q 1252.0 111.0 1270.0 60.0 L 1222.0 60.0 L 1201.0 108.0 L 1180.0 60.0 L 1132.0 60.0 Q 1150.0 110.99999999999999 1120.0 126.0 L 1120.0 156.0 z" fill="rgb(255,217,194)" stroke="black"/>
  <text fill="rgb(9,33,173)" font-size="25" x="1176.0" y="104.33333333333333">top_front</text>
</svg>
