<?xml version="1.0" encoding="utf-8" ?>
<svg xmlns="http://www.w3.org/2000/svg" xmlns:ev="http://www.w3.org/2001/xml-events" xmlns:xlink="http://www.w3.org/1999/xlink" baseProfile="full" height="429px" version="1.1" width="1252.5px">
  <defs/>
  <path d="M 60 369 L 246 369 L 246 105 L 222 60 L 171 60 Q 202.5 139.5 156 165 L 60 369 z" fill="rgb(255,217,194)" stroke="black"/>
  <text fill="rgb(9,33,173)" font-size="25" x="158.5" y="191.0">front_right</text>
  <path d="M 328.5 213.0 L 370.5 207.0 Q 443.4 186.29999999999998 391.5 96.0 L 364.5 105.0 L 337.5 60.0 L 328.5 213.0 z" fill="rgb(255,217,194)" stroke="black"/>
  <text fill="rgb(9,33,173)" font-size="25" x="333.5" y="139.2">Rhood</text>
  <path d="M 451.5 369.0 L 823.5 369.0 L 727.5 165.0 Q 681.0 139.5 712.5 60.0 L 661.5 60.0 L 637.5 69.0 L 613.5 60.0 L 562.5 60.0 Q 594.0 139.5 547.5 165.0 L 451.5 369.0 z" fill="rgb(255,217,194)" stroke="black"/>
  <text fill="rgb(9,33,173)" font-size="25" x="612.5" y="156.0">back</text>
  <path d="M 892.5 213.0 L 919.5 168.0 L 946.5 177.0 Q 998.4 86.70000000000002 925.5 66.0 L 883.5 60.0 L 892.5 213.0 z" fill="rgb(255,217,194)" stroke="black"/>
  <text fill="rgb(9,33,173)" font-size="25" x="888.5" y="139.8">Lhood</text>
  <path d="M 1006.5 369.0 L 1192.5 369.0 L 1096.5 165.0 Q 1050.0 139.5 1081.5 60.0 L 1030.5 60.0 L 1006.5 105.0 L 1006.5 369.0 z" fill="rgb(255,217,194)" stroke="black"/>
  <text fill="rgb(9,33,173)" font-size="25" x="1044.0" y="191.0">front_left</text>
</svg>
