<?xml version="1.0" encoding="utf-8" ?>
<svg xmlns="http://www.w3.org/2000/svg" xmlns:ev="http://www.w3.org/2001/xml-events" xmlns:xlink="http://www.w3.org/1999/xlink" baseProfile="full" height="297.0px" version="1.1" width="1379.0px">
  <defs/>
  <path d="M 60 153 L 84 153 Q 112.8 83.10000000000001 72 60 L 60 99 L 60 153 z" fill="rgb(255,217,194)" stroke="black"/>
  <text fill="rgb(9,33,173)" font-size="25" x="44.0" y="119.25">rbsleeve</text>
  <path d="M 184.0 114.0 L 196.0 153.0 Q 236.8 129.9 208.0 60.0 L 184.0 60.0 L 184.0 114.0 z" fill="rgb(255,217,194)" stroke="black"/>
  <text fill="rgb(9,33,173)" font-size="25" x="168.0" y="99.75">rfsleeve</text>
  <path d="M 314.0 237.0 L 383.0 237.0 L 383.0 81.0 L 353.0 60.0 L 320.0 60.0 Q 347.6 127.8 308.0 150.0 L 314.0 237.0 z" fill="rgb(255,217,194)" stroke="black"/>
  <text fill="rgb(9,33,173)" font-size="25" x="318.5" y="140.5">front_right</text>
  <path d="M 488.5 159.0 L 554.5 162.0 Q 609.4 136.8 557.5 72.0 L 524.5 81.0 L 491.5 60.0 L 488.5 159.0 z" fill="rgb(255,217,194)" stroke="black"/>
  <text fill="rgb(9,33,173)" font-size="25" x="498.29999999999995" y="109.8">Rhood</text>
  <path d="M 623.5 237.0 L 761.5 237.0 L 767.5 150.0 Q 727.9 127.8 755.5 60.0 L 722.5 60.0 L 692.5 69.0 L 662.5 60.0 L 629.5 60.0 Q 657.1 127.8 617.5 150.0 L 623.5 237.0 z" fill="rgb(255,217,194)" stroke="black"/>
  <text fill="rgb(9,33,173)" font-size="25" x="667.5" y="123.33333333333333">back</text>
  <path d="M 830.5 162.0 L 863.5 141.0 L 896.5 150.0 Q 948.4 85.2 893.5 60.0 L 827.5 63.0 L 830.5 162.0 z" fill="rgb(255,217,194)" stroke="black"/>
  <text fill="rgb(9,33,173)" font-size="25" x="837.3" y="118.2">Lhood</text>
  <path d="M 956.5 237.0 L 1025.5 237.0 L 1031.5 150.0 Q 991.9000000000001 127.8 1019.5 60.0 L 986.5 60.0 L 956.5 81.0 L 956.5 237.0 z" fill="rgb(255,217,194)" stroke="black"/>
  <text fill="rgb(9,33,173)" font-size="25" x="971.0" y="140.5">front_left</text>
  <path d="M 1131.0 114.0 L 1143.0 153.0 Q 1183.8 129.9 1155.0 60.0 L 1131.0 60.0 L 1131.0 114.0 z" fill="rgb(255,217,194)" stroke="black"/>
  <text fill="rgb(9,33,173)" font-size="25" x="1115.0" y="99.75">lbsleeve</text>
  <path d="M 1255.0 153.0 L 1279.0 153.0 Q 1307.8 83.10000000000001 1267.0 60.0 L 1255.0 99.0 L 1255.0 153.0 z" fill="rgb(255,217,194)" stroke="black"/>
  <text fill="rgb(9,33,173)" font-size="25" x="1239.0" y="119.25">lfsleeve</text>
</svg>
