<?xml version="1.0" encoding="utf-8" ?>
<svg xmlns="http://www.w3.org/2000/svg" xmlns:ev="http://www.w3.org/2001/xml-events" xmlns:xlink="http://www.w3.org/1999/xlink" baseProfile="full" height="357.0px" version="1.1" width="1945.0px">
  <defs/>
  <path d="M 60 156 L 90 156 Q 113.1 91.2 75 72 L 60 60 L 60 156 z" fill="rgb(255,217,194)" stroke="black"/>
  <text fill="rgb(9,33,173)" font-size="25" x="46.25" y="114.0">rbsleeve</text>
  <path d="M 186.25 156.0 L 201.25 144.0 Q 239.35 124.8 216.25 60.0 L 186.25 60.0 L 186.25 156.0 z" fill="rgb(255,217,194)" stroke="black"/>
  <text fill="rgb(9,33,173)" font-size="25" x="172.5" y="108.0">rfsleeve</text>
  <path d="M 312.5 297.0 Q 507.5 310.79374572808854 702.5 297.0 L 588.5 102.0 L 573.5 60.0 L 441.5 60.0 L 426.5 102.0 L 312.5 297.0 z" fill="rgb(255,217,194)" stroke="black"/>
  <text fill="rgb(9,33,173)" font-size="25" x="482.5" y="156.0">skirt_back</text>
  <path d="M 762.5 297.0 Q 957.5 478.5389369921048 1152.5 297.0 L 1038.5 102.0 L 1023.5 60.0 L 891.5 60.0 L 876.5 102.0 L 762.5 297.0 z" fill="rgb(255,217,194)" stroke="black"/>
  <text fill="rgb(9,33,173)" font-size="25" x="932.5" y="156.0">skirt_front</text>
  <path d="M 1236.5 168.0 L 1368.5 168.0 L 1392.5 144.0 Q 1354.4 124.8 1377.5 60.0 L 1320.5 60.0 Q 1302.5 68.26857606984564 1284.5 60.0 L 1227.5 60.0 Q 1250.6 124.8 1212.5 144.0 L 1236.5 168.0 z" fill="rgb(255,217,194)" stroke="black"/>
  <text fill="rgb(9,33,173)" font-size="25" x="1277.5" y="111.0">top_back</text>
  <path d="M 1476.5 165.0 L 1608.5 165.0 L 1632.5 141.0 Q 1595.6 122.7 1617.5 60.0 L 1560.5 60.0 L 1542.5 141.0 L 1524.5 60.0 L 1467.5 60.0 Q 1489.4 122.69999999999999 1452.5 141.0 L 1476.5 165.0 z" fill="rgb(255,217,194)" stroke="black"/>
  <text fill="rgb(9,33,173)" font-size="25" x="1517.5" y="113.33333333333333">top_front</text>
  <path d="M 1692.5 156.0 L 1707.5 144.0 Q 1745.6 124.8 1722.5 60.0 L 1692.5 60.0 L 1692.5 156.0 z" fill="rgb(255,217,194)" stroke="black"/>
  <text fill="rgb(9,33,173)" font-size="25" x="1678.75" y="108.0">lbsleeve</text>
  <path d="M 1818.75 156.0 L 1848.75 156.0 Q 1871.85 91.2 1833.75 72.0 L 1818.75 60.0 L 1818.75 156.0 z" fill="rgb(255,217,194)" stroke="black"/>
  <text fill="rgb(9,33,173)" font-size="25" x="1805.0" y="114.0">lfsleeve</text>
</svg>
