<?xml version="1.0" encoding="utf-8" ?>
<svg xmlns="http://www.w3.org/2000/svg" xmlns:ev="http://www.w3.org/2001/xml-events" xmlns:xlink="http://www.w3.org/1999/xlink" baseProfile="full" height="339px" version="1.1" width="1140px">
  <defs/>
  <path d="M 60 279 L 132 279 Q 165.89999999999998 94.19999999999999 159 60 L 90 60 Q 104.7 141.75 60 153 Q 72.6 159.3 60 279 z" fill="rgb(255,217,194)" stroke="black"/>
  <text fill="rgb(9,33,173)" font-size="25" x="75.2" y="169.2">Rback</text>
  <path d="M 246 279 L 318 279 Q 305.4 159.3 318 153 Q 277.95 140.25 288 60 L 219 60 Q 212.10000000000002 94.19999999999999 246 279 z" fill="rgb(255,217,194)" stroke="black"/>
  <text fill="rgb(9,33,173)" font-size="25" x="252.8" y="169.2">Rfront</text>
  <path d="M 387 168 L 459 168 L 531 168 L 540 108 Q 516.3 99.6 525 60 L 492 60 Q 459.0 145.92753973733596 426 60 L 393 60 Q 401.7 99.6 378 108 L 387 168 z" fill="rgb(255,217,194)" stroke="black"/>
  <text fill="rgb(9,33,173)" font-size="25" x="434.0" y="109.66666666666667">up_back</text>
  <path d="M 609 165 L 681 165 L 753 165 L 762 108 Q 738.3 99.6 747 60 L 714 60 L 681 66 L 648 60 L 615 60 Q 623.7 99.6 600 108 L 609 165 z" fill="rgb(255,217,194)" stroke="black"/>
  <text fill="rgb(9,33,173)" font-size="25" x="656.0" y="104.7">up_front</text>
  <path d="M 849 279 L 921 279 Q 908.4 159.3 921 153 Q 876.3 141.75 891 60 L 822 60 Q 815.0999999999999 94.19999999999999 849 279 z" fill="rgb(255,217,194)" stroke="black"/>
  <text fill="rgb(9,33,173)" font-size="25" x="855.8" y="169.2">Lback</text>
  <path d="M 981 279 L 1053 279 Q 1086.9 94.19999999999999 1080 60 L 1011 60 Q 1021.05 140.25 981 153 Q 993.6 159.3 981 279 z" fill="rgb(255,217,194)" stroke="black"/>
  <text fill="rgb(9,33,173)" font-size="25" x="996.2" y="169.2">Lfront</text>
</svg>
