<?xml version="1.0" encoding="utf-8" ?>
<svg xmlns="http://www.w3.org/2000/svg" xmlns:ev="http://www.w3.org/2001/xml-events" xmlns:xlink="http://www.w3.org/1999/xlink" baseProfile="full" height="429.0px" version="1.1" width="1735.0px">
  <defs/>
  <path d="M 60 210 L 117 210 Q 144.6 142.2 105 120 L 60 60 L 60 210 z" fill="rgb(255,217,194)" stroke="black"/>
  <text fill="rgb(9,33,173)" font-size="25" x="60.5" y="153.0">rbsleeve</text>
  <path d="M 200.5 210.0 L 245.5 150.0 Q 285.1 127.8 257.5 60.0 L 200.5 60.0 L 200.5 210.0 z" fill="rgb(255,217,194)" stroke="black"/>
  <text fill="rgb(9,33,173)" font-size="25" x="201.0" y="123.0">rfsleeve</text>
  <path d="M 341.0 369.0 L 503.0 369.0 L 503.0 105.0 L 476.0 60.0 L 446.0 60.0 Q 475.7 126.6 437.0 150.0 L 341.0 369.0 z" fill="rgb(255,217,194)" stroke="black"/>
  <text fill="rgb(9,33,173)" font-size="25" x="426.0" y="188.5">front_right</text>
  <path d="M 596.0 192.0 L 662.0 192.0 Q 718.7 161.39999999999998 659.0 96.0 L 632.0 105.0 L 605.0 60.0 L 596.0 192.0 z" fill="rgb(255,217,194)" stroke="black"/>
  <text fill="rgb(9,33,173)" font-size="25" x="605.8" y="132.0">Rhood</text>
  <path d="M 722.0 369.0 L 1046.0 369.0 L 950.0 150.0 Q 911.3 126.6 941.0 60.0 L 911.0 60.0 L 884.0 69.0 L 857.0 60.0 L 827.0 60.0 Q 856.7 126.6 818.0 150.0 L 722.0 369.0 z" fill="rgb(255,217,194)" stroke="black"/>
  <text fill="rgb(9,33,173)" font-size="25" x="859.0" y="152.66666666666666">back</text>
  <path d="M 1115.0 192.0 L 1142.0 147.0 L 1169.0 156.0 Q 1228.6999999999998 90.60000000000001 1172.0 60.0 L 1106.0 60.0 L 1115.0 192.0 z" fill="rgb(255,217,194)" stroke="black"/>
  <text fill="rgb(9,33,173)" font-size="25" x="1115.8" y="126.0">Lhood</text>
  <path d="M 1232.0 369.0 L 1394.0 369.0 L 1298.0 150.0 Q 1259.3 126.6 1289.0 60.0 L 1259.0 60.0 L 1232.0 105.0 L 1232.0 369.0 z" fill="rgb(255,217,194)" stroke="black"/>
  <text fill="rgb(9,33,173)" font-size="25" x="1259.0" y="188.5">front_left</text>
  <path d="M 1454.0 210.0 L 1499.0 150.0 Q 1538.6 127.8 1511.0 60.0 L 1454.0 60.0 L 1454.0 210.0 z" fill="rgb(255,217,194)" stroke="black"/>
  <text fill="rgb(9,33,173)" font-size="25" x="1454.5" y="123.0">lbsleeve</text>
  <path d="M 1594.5 210.0 L 1651.5 210.0 Q 1679.1 142.2 1639.5 120.0 L 1594.5 60.0 L 1594.5 210.0 z" fill="rgb(255,217,194)" stroke="black"/>
  <text fill="rgb(9,33,173)" font-size="25" x="1595.0" y="153.0">lfsleeve</text>
</svg>
