<?xml version="1.0" encoding="utf-8" ?>
<svg xmlns="http://www.w3.org/2000/svg" xmlns:ev="http://www.w3.org/2001/xml-events" xmlns:xlink="http://www.w3.org/1999/xlink" baseProfile="full" height="417.0px" version="1.1" width="1217.0px">
  <defs/>
  <path d="M 60 162 L 141 162 Q 173.4 85.80000000000001 129 60 L 60 105 L 60 162 z" fill="rgb(255,217,194)" stroke="black"/>
  <text fill="rgb(9,33,173)" font-size="25" x="72.5" y="125.25">rbsleeve</text>
  <path d="M 212.5 117.0 L 281.5 162.0 Q 325.90000000000003 136.20000000000002 293.5 60.0 L 212.5 60.0 L 212.5 117.0 z" fill="rgb(255,217,194)" stroke="black"/>
  <text fill="rgb(9,33,173)" font-size="25" x="225.0" y="102.75">rfsleeve</text>
  <path d="M 383.0 357.0 L 434.0 357.0 L 434.0 114.0 L 410.0 60.0 L 377.0 60.0 Q 409.40000000000003 136.2 365.0 162.0 L 383.0 357.0 z" fill="rgb(255,217,194)" stroke="black"/>
  <text fill="rgb(9,33,173)" font-size="25" x="375.5" y="188.0">front_right</text>
  <path d="M 563.5 357.0 L 665.5 357.0 L 683.5 162.0 Q 639.1 136.20000000000002 671.5 60.0 L 638.5 60.0 Q 614.5 218.3451861489923 590.5 60.0 L 557.5 60.0 Q 589.9 136.2 545.5 162.0 L 563.5 357.0 z" fill="rgb(255,217,194)" stroke="black"/>
  <text fill="rgb(9,33,173)" font-size="25" x="589.5" y="162.75">back</text>
  <path d="M 743.5 357.0 L 794.5 357.0 L 812.5 162.0 Q 768.1 136.20000000000002 800.5 60.0 L 767.5 60.0 L 743.5 114.0 L 743.5 357.0 z" fill="rgb(255,217,194)" stroke="black"/>
  <text fill="rgb(9,33,173)" font-size="25" x="752.0" y="188.0">front_left</text>
  <path d="M 912.0 117.0 L 981.0 162.0 Q 1025.4 136.20000000000002 993.0 60.0 L 912.0 60.0 L 912.0 117.0 z" fill="rgb(255,217,194)" stroke="black"/>
  <text fill="rgb(9,33,173)" font-size="25" x="924.5" y="102.75">lbsleeve</text>
  <path d="M 1064.5 162.0 L 1145.5 162.0 Q 1177.8999999999999 85.80000000000001 1133.5 60.0 L 1064.5 105.0 L 1064.5 162.0 z" fill="rgb(255,217,194)" stroke="black"/>
  <text fill="rgb(9,33,173)" font-size="25" x="1077.0" y="125.25">lfsleeve</text>
</svg>
