<?xml version="1.0" encoding="utf-8" ?>
<svg xmlns="http://www.w3.org/2000/svg" xmlns:ev="http://www.w3.org/2001/xml-events" xmlns:xlink="http://www.w3.org/1999/xlink" baseProfile="full" height="288px" version="1.1" width="1128px">
  <defs/>
  <path d="M 60 228 L 138 228 Q 166.8 86.40000000000002 162 60 L 90 60 Q 104.7 141.75 60 153 Q 67.5 156.75 60 228 z" fill="rgb(255,217,194)" stroke="black"/>
  <text fill="rgb(9,33,173)" font-size="25" x="77.0" y="148.8">Rback</text>
  <path d="M 246 228 L 324 228 Q 316.5 156.75 324 153 Q 283.95 140.25 294 60 L 222 60 Q 217.2 86.4 246 228 z" fill="rgb(255,217,194)" stroke="black"/>
  <text fill="rgb(9,33,173)" font-size="25" x="257.0" y="148.8">Rfront</text>
  <path d="M 384 168 L 459 168 L 534 168 L 528 123 Q 499.2 108.89999999999999 516 60 L 480 60 Q 459.0 105.94452700759317 438 60 L 402 60 Q 418.8 108.89999999999999 390 123 L 384 168 z" fill="rgb(255,217,194)" stroke="black"/>
  <text fill="rgb(9,33,173)" font-size="25" x="434.0" y="113.0">up_back</text>
  <path d="M 594 165 L 669 165 L 744 165 L 738 123 Q 709.1999999999999 108.89999999999999 726 60 L 690 60 L 669 102 L 648 60 L 612 60 Q 628.8000000000001 108.89999999999999 600 123 L 594 165 z" fill="rgb(255,217,194)" stroke="black"/>
  <text fill="rgb(9,33,173)" font-size="25" x="644.0" y="111.3">up_front</text>
  <path d="M 828 228 L 906 228 Q 898.5 156.75 906 153 Q 861.3 141.75 876 60 L 804 60 Q 799.2 86.4 828 228 z" fill="rgb(255,217,194)" stroke="black"/>
  <text fill="rgb(9,33,173)" font-size="25" x="839.0" y="148.8">Lback</text>
  <path d="M 966 228 L 1044 228 Q 1072.8000000000002 86.40000000000002 1068 60 L 996 60 Q 1006.05 140.25 966 153 Q 973.5 156.75 966 228 z" fill="rgb(255,217,194)" stroke="black"/>
  <text fill="rgb(9,33,173)" font-size="25" x="983.0" y="148.8">Lfront</text>
</svg>
