<?xml version="1.0" encoding="utf-8" ?>
<svg xmlns="http://www.w3.org/2000/svg" xmlns:ev="http://www.w3.org/2001/xml-events" xmlns:xlink="http://www.w3.org/1999/xlink" baseProfile="full" height="354.0px" version="1.1" width="1852.0px">
  <defs/>
  <path d="M 60 171 L 108 171 Q 132.0 109.50000000000001 96 90 L 60 60 L 60 171 z" fill="rgb(255,217,194)" stroke="black"/>
  <text fill="rgb(9,33,173)" font-size="25" x="56.0" y="126.0">rbsleeve</text>
  <path d="M 196.0 171.0 L 232.0 141.0 Q 268.0 121.5 244.0 60.0 L 196.0 60.0 L 196.0 171.0 z" fill="rgb(255,217,194)" stroke="black"/>
  <text fill="rgb(9,33,173)" font-size="25" x="192.0" y="111.0">rfsleeve</text>
  <path d="M 332.0 294.0 Q 506.0 328.93121395460327 680.0 294.0 L 575.0 102.0 L 557.0 60.0 L 455.0 60.0 L 437.0 102.0 L 332.0 294.0 z" fill="rgb(255,217,194)" stroke="black"/>
  <text fill="rgb(9,33,173)" font-size="25" x="481.0" y="155.0">skirt_back</text>
  <path d="M 740.0 294.0 Q 914.0 304.4705251441388 1088.0 294.0 L 983.0 102.0 L 965.0 60.0 L 863.0 60.0 L 845.0 102.0 L 740.0 294.0 z" fill="rgb(255,217,194)" stroke="black"/>
  <text fill="rgb(9,33,173)" font-size="25" x="889.0" y="155.0">skirt_front</text>
  <path d="M 1175.0 168.0 L 1277.0 168.0 L 1304.0 141.0 Q 1268.0 121.5 1292.0 60.0 L 1244.0 60.0 Q 1226.0 102.47823693983446 1208.0 60.0 L 1160.0 60.0 Q 1184.0 121.49999999999999 1148.0 141.0 L 1175.0 168.0 z" fill="rgb(255,217,194)" stroke="black"/>
  <text fill="rgb(9,33,173)" font-size="25" x="1201.0" y="110.25">top_back</text>
  <path d="M 1391.0 165.0 L 1493.0 165.0 L 1520.0 138.0 Q 1485.2 119.39999999999999 1508.0 60.0 L 1460.0 60.0 L 1442.0 75.0 L 1424.0 60.0 L 1376.0 60.0 Q 1398.8 119.39999999999999 1364.0 138.0 L 1391.0 165.0 z" fill="rgb(255,217,194)" stroke="black"/>
  <text fill="rgb(9,33,173)" font-size="25" x="1417.0" y="105.33333333333333">top_front</text>
  <path d="M 1580.0 171.0 L 1616.0 141.0 Q 1652.0 121.5 1628.0 60.0 L 1580.0 60.0 L 1580.0 171.0 z" fill="rgb(255,217,194)" stroke="black"/>
  <text fill="rgb(9,33,173)" font-size="25" x="1576.0" y="111.0">lbsleeve</text>
  <path d="M 1716.0 171.0 L 1764.0 171.0 Q 1788.0 109.50000000000001 1752.0 90.0 L 1716.0 60.0 L 1716.0 171.0 z" fill="rgb(255,217,194)" stroke="black"/>
  <text fill="rgb(9,33,173)" font-size="25" x="1712.0" y="126.0">lfsleeve</text>
</svg>
