<?xml version="1.0" encoding="utf-8" ?>
<svg xmlns="http://www.w3.org/2000/svg" xmlns:ev="http://www.w3.org/2001/xml-events" xmlns:xlink="http://www.w3.org/1999/xlink" baseProfile="full" height="393px" version="1.1" width="1121.5px">
  <defs/>
  <path d="M 60 333 L 207 333 L 207 105 L 174 60 L 153 60 Q 163.5 93.0 144 102 L 60 333 z" fill="rgb(255,217,194)" stroke="black"/>
  <text fill="rgb(9,33,173)" font-size="25" x="132.5" y="168.5">front_right</text>
  <path d="M 302.5 195.0 L 317.5 195.0 Q 393.09999999999997 197.70000000000002 371.5 96.0 L 338.5 105.0 L 302.5 60.0 L 302.5 195.0 z" fill="rgb(255,217,194)" stroke="black"/>
  <text fill="rgb(9,33,173)" font-size="25" x="301.5" y="133.2">Rhood</text>
  <path d="M 431.5 333.0 L 725.5 333.0 L 641.5 102.0 Q 622.0 93.0 632.5 60.0 L 611.5 60.0 L 578.5 69.0 L 545.5 60.0 L 524.5 60.0 Q 535.0 93.0 515.5 102.0 L 431.5 333.0 z" fill="rgb(255,217,194)" stroke="black"/>
  <text fill="rgb(9,33,173)" font-size="25" x="553.5" y="134.0">back</text>
  <path d="M 785.5 195.0 L 821.5 150.0 L 854.5 159.0 Q 876.1 57.300000000000004 800.5 60.0 L 785.5 60.0 L 785.5 195.0 z" fill="rgb(255,217,194)" stroke="black"/>
  <text fill="rgb(9,33,173)" font-size="25" x="784.5" y="127.8">Lhood</text>
  <path d="M 914.5 333.0 L 1061.5 333.0 L 977.5 102.0 Q 958.0 93.0 968.5 60.0 L 947.5 60.0 L 914.5 105.0 L 914.5 333.0 z" fill="rgb(255,217,194)" stroke="black"/>
  <text fill="rgb(9,33,173)" font-size="25" x="939.0" y="168.5">front_left</text>
</svg>
