<?xml version="1.0" encoding="utf-8" ?>
<svg xmlns="http://www.w3.org/2000/svg" xmlns:ev="http://www.w3.org/2001/xml-events" xmlns:xlink="http://www.w3.org/1999/xlink" baseProfile="full" height="474.0px" version="1.1" width="1226.0px">
  <defs/>
  <path d="M 60 177 L 105 177 Q 135.0 105.00000000000001 93 81 L 60 60 L 60 177 z" fill="rgb(255,217,194)" stroke="black"/>
  <text fill="rgb(9,33,173)" font-size="25" x="54.5" y="126.75">rbsleeve</text>
  <path d="M 194.5 177.0 L 227.5 156.0 Q 269.5 132.0 239.5 60.0 L 194.5 60.0 L 194.5 177.0 z" fill="rgb(255,217,194)" stroke="black"/>
  <text fill="rgb(9,33,173)" font-size="25" x="189.0" y="116.25">rfsleeve</text>
  <path d="M 329.0 414.0 L 425.0 414.0 L 425.0 93.0 L 410.0 60.0 L 359.0 60.0 Q 387.8 129.9 347.0 153.0 L 329.0 414.0 z" fill="rgb(255,217,194)" stroke="black"/>
  <text fill="rgb(9,33,173)" font-size="25" x="357.5" y="202.0">front_right</text>
  <path d="M 527.5 414.0 L 719.5 414.0 L 701.5 156.0 Q 659.5 132.0 689.5 60.0 L 638.5 60.0 Q 623.5 65.80595306931788 608.5 60.0 L 557.5 60.0 Q 587.5 132.0 545.5 156.0 L 527.5 414.0 z" fill="rgb(255,217,194)" stroke="black"/>
  <text fill="rgb(9,33,173)" font-size="25" x="598.5" y="175.5">back</text>
  <path d="M 779.5 414.0 L 875.5 414.0 L 857.5 153.0 Q 816.6999999999999 129.9 845.5 60.0 L 794.5 60.0 L 779.5 93.0 L 779.5 414.0 z" fill="rgb(255,217,194)" stroke="black"/>
  <text fill="rgb(9,33,173)" font-size="25" x="797.0" y="202.0">front_left</text>
  <path d="M 957.0 177.0 L 990.0 156.0 Q 1032.0 132.0 1002.0 60.0 L 957.0 60.0 L 957.0 177.0 z" fill="rgb(255,217,194)" stroke="black"/>
  <text fill="rgb(9,33,173)" font-size="25" x="951.5" y="116.25">lbsleeve</text>
  <path d="M 1091.5 177.0 L 1136.5 177.0 Q 1166.5 105.00000000000001 1124.5 81.0 L 1091.5 60.0 L 1091.5 177.0 z" fill="rgb(255,217,194)" stroke="black"/>
  <text fill="rgb(9,33,173)" font-size="25" x="1086.0" y="126.75">lfsleeve</text>
</svg>
