<?xml version="1.0" encoding="utf-8" ?>
<svg xmlns="http://www.w3.org/2000/svg" xmlns:ev="http://www.w3.org/2001/xml-events" xmlns:xlink="http://www.w3.org/1999/xlink" baseProfile="full" height="267px" version="1.1" width="1116px">
  <defs/>
  <path d="M 60 207 L 126 207 Q 156.29999999999998 83.39999999999999 153 60 L 90 60 Q 104.7 141.75 60 153 Q 65.4 155.7 60 207 z" fill="rgb(255,217,194)" stroke="black"/>
  <text fill="rgb(9,33,173)" font-size="25" x="72.8" y="140.4">Rback</text>
  <path d="M 240 207 L 306 207 Q 300.6 155.7 306 153 Q 265.95 140.25 276 60 L 213 60 Q 209.70000000000002 83.39999999999999 240 207 z" fill="rgb(255,217,194)" stroke="black"/>
  <text fill="rgb(9,33,173)" font-size="25" x="243.2" y="140.4">Rfront</text>
  <path d="M 381 168 L 447 168 L 513 168 L 528 156 Q 486.0 132.0 516 60 L 486 60 Q 447.0 140.70614540049553 408 60 L 378 60 Q 408.0 132.0 366 156 L 381 168 z" fill="rgb(255,217,194)" stroke="black"/>
  <text fill="rgb(9,33,173)" font-size="25" x="422.0" y="120.33333333333333">up_back</text>
  <path d="M 603 165 L 669 165 L 735 165 L 750 156 Q 708.0 132.0 738 60 L 708 60 L 669 129 L 630 60 L 600 60 Q 630.0 132.0 588 156 L 603 165 z" fill="rgb(255,217,194)" stroke="black"/>
  <text fill="rgb(9,33,173)" font-size="25" x="644.0" y="120.6">up_front</text>
  <path d="M 837 207 L 903 207 Q 897.6 155.7 903 153 Q 858.3 141.75 873 60 L 810 60 Q 806.6999999999999 83.39999999999999 837 207 z" fill="rgb(255,217,194)" stroke="black"/>
  <text fill="rgb(9,33,173)" font-size="25" x="840.2" y="140.4">Lback</text>
  <path d="M 963 207 L 1029 207 Q 1059.3 83.39999999999999 1056 60 L 993 60 Q 1003.05 140.25 963 153 Q 968.4 155.7 963 207 z" fill="rgb(255,217,194)" stroke="black"/>
  <text fill="rgb(9,33,173)" font-size="25" x="975.8" y="140.4">Lfront</text>
</svg>
