<?xml version="1.0" encoding="utf-8" ?>
<svg xmlns="http://www.w3.org/2000/svg" xmlns:ev="http://www.w3.org/2001/xml-events" xmlns:xlink="http://www.w3.org/1999/xlink" baseProfile="full" height="324px" version="1.1" width="1366.0px">
  <defs/>
  <path d="M 60 264 L 288 264 L 288 60 L 60 60 L 60 264 z" fill="rgb(255,217,194)" stroke="black"/>
  <text fill="rgb(9,33,173)" font-size="25" x="149.0" y="165.0">skirt_back</text>
  <path d="M 348 69 L 438 69 L 438 60 L 348 60 L 348 69 z" fill="rgb(255,217,194)" stroke="black"/>
  <text fill="rgb(9,33,173)" font-size="25" x="368.0" y="67.5">wb_back</text>
  <path d="M 498 69 L 588 69 L 588 60 L 498 60 L 498 69 z" fill="rgb(255,217,194)" stroke="black"/>
  <text fill="rgb(9,33,173)" font-size="25" x="518.0" y="67.5">wb_front</text>
  <path d="M 658.0 264.0 L 886.0 264.0 L 886.0 60.0 L 658.0 60.0 L 658.0 264.0 z" fill="rgb(255,217,194)" stroke="black"/>
  <text fill="rgb(9,33,173)" font-size="25" x="747.0" y="165.0">skirt_front</text>
  <path d="M 946.0 147.0 L 1096.0 147.0 L 1096.0 120.0 Q 1068.4 106.8 1084.0 60.0 L 1045.0 60.0 Q 1021.0 123.13742214083197 997.0 60.0 L 958.0 60.0 Q 973.6 106.8 946.0 120.0 L 946.0 147.0 z" fill="rgb(255,217,194)" stroke="black"/>
  <text fill="rgb(9,33,173)" font-size="25" x="996.0" y="99.75">top_back</text>
  <path d="M 1156.0 147.0 L 1306.0 147.0 L 1306.0 120.0 Q 1278.4 106.8 1294.0 60.0 L 1255.0 60.0 L 1231.0 114.0 L 1207.0 60.0 L 1168.0 60.0 Q 1183.6 106.8 1156.0 120.0 L 1156.0 147.0 z" fill="rgb(255,217,194)" stroke="black"/>
  <text fill="rgb(9,33,173)" font-size="25" x="1206.0" y="101.66666666666667">top_front</text>
</svg>
