<?xml version="1.0" encoding="utf-8" ?>
<svg xmlns="http://www.w3.org/2000/svg" xmlns:ev="http://www.w3.org/2001/xml-events" xmlns:xlink="http://www.w3.org/1999/xlink" baseProfile="full" height="360.0px" version="1.1" width="1735.2px">
  <defs/>
  <path d="M 60 213 L 150 213 Q 168.89999999999998 165.3 141 150 L 60 60 L 60 213 z" fill="rgb(255,217,194)" stroke="black"/>
  <text fill="rgb(9,33,173)" font-size="25" x="77.75" y="162.0">rbsleeve</text>
  <path d="M 217.75 213.0 L 298.75 123.0 Q 326.65 107.69999999999999 307.75 60.0 L 217.75 60.0 L 217.75 213.0 z" fill="rgb(255,217,194)" stroke="black"/>
  <text fill="rgb(9,33,173)" font-size="25" x="235.5" y="117.0">rfsleeve</text>
  <path d="M 375.5 300.0 L 420.5 300.0 Q 478.4 98.7 474.5 60.0 L 405.5 60.0 Q 420.2 141.75 375.5 153.0 Q 390.2 160.35 375.5 300.0 z" fill="rgb(255,217,194)" stroke="black"/>
  <text fill="rgb(9,33,173)" font-size="25" x="385.3" y="177.6">Rback</text>
  <path d="M 588.5 300.0 L 633.5 300.0 Q 618.8 160.35 633.5 153.0 Q 593.45 140.25 603.5 60.0 L 534.5 60.0 Q 530.6 98.7 588.5 300.0 z" fill="rgb(255,217,194)" stroke="black"/>
  <text fill="rgb(9,33,173)" font-size="25" x="573.7" y="177.6">Rfront</text>
  <path d="M 693.7 168.0 L 765.7 168.0 L 837.7 168.0 L 825.7 120.0 Q 799.0 105.6 816.7 60.0 L 795.7 60.0 Q 765.7 114.57815870391335 735.7 60.0 L 714.7 60.0 Q 732.4000000000001 105.6 705.7 120.0 L 693.7 168.0 z" fill="rgb(255,217,194)" stroke="black"/>
  <text fill="rgb(9,33,173)" font-size="25" x="740.6999999999999" y="112.33333333333333">up_back</text>
  <path d="M 897.7 165.0 L 969.7 165.0 L 1041.7 165.0 L 1029.7 120.0 Q 1003.0 105.6 1020.7 60.0 L 999.7 60.0 L 969.7 87.0 L 939.7 60.0 L 918.7 60.0 Q 936.4000000000001 105.6 909.7 120.0 L 897.7 165.0 z" fill="rgb(255,217,194)" stroke="black"/>
  <text fill="rgb(9,33,173)" font-size="25" x="944.7" y="109.2">up_front</text>
  <path d="M 1155.7 300.0 L 1200.7 300.0 Q 1186.0 160.35 1200.7 153.0 Q 1156.0 141.75 1170.7 60.0 L 1101.7 60.0 Q 1097.8 98.7 1155.7 300.0 z" fill="rgb(255,217,194)" stroke="black"/>
  <text fill="rgb(9,33,173)" font-size="25" x="1140.9" y="177.6">Lback</text>
  <path d="M 1260.7 300.0 L 1305.7 300.0 Q 1363.6000000000001 98.7 1359.7 60.0 L 1290.7 60.0 Q 1300.75 140.25 1260.7 153.0 Q 1275.4 160.35 1260.7 300.0 z" fill="rgb(255,217,194)" stroke="black"/>
  <text fill="rgb(9,33,173)" font-size="25" x="1270.5" y="177.6">Lfront</text>
  <path d="M 1419.7 213.0 L 1500.7 123.0 Q 1528.6000000000001 107.69999999999999 1509.7 60.0 L 1419.7 60.0 L 1419.7 213.0 z" fill="rgb(255,217,194)" stroke="black"/>
  <text fill="rgb(9,33,173)" font-size="25" x="1437.45" y="117.0">lbsleeve</text>
  <path d="M 1577.45 213.0 L 1667.45 213.0 Q 1686.3500000000001 165.3 1658.45 150.0 L 1577.45 60.0 L 1577.45 213.0 z" fill="rgb(255,217,194)" stroke="black"/>
  <text fill="rgb(9,33,173)" font-size="25" x="1595.2" y="162.0">lfsleeve</text>
</svg>
