<?xml version="1.0" encoding="utf-8" ?>
<svg xmlns="http://www.w3.org/2000/svg" xmlns:ev="http://www.w3.org/2001/xml-events" xmlns:xlink="http://www.w3.org/1999/xlink" baseProfile="full" height="231px" version="1.1" width="823.0px">
  <defs/>
  <path d="M 60 171 L 198 171 L 198 117 L 156 60 L 132 60 Q 152.4 115.2 120 132 L 60 171 z" fill="rgb(255,217,194)" stroke="black"/>
  <text fill="rgb(9,33,173)" font-size="25" x="119.0" y="121.5">front_right</text>
  <path d="M 289.0 171.0 L 565.0 171.0 L 505.0 132.0 Q 472.59999999999997 115.2 493.0 60.0 L 469.0 60.0 Q 427.0 92.2694659019001 385.0 60.0 L 361.0 60.0 Q 381.40000000000003 115.2 349.0 132.0 L 289.0 171.0 z" fill="rgb(255,217,194)" stroke="black"/>
  <text fill="rgb(9,33,173)" font-size="25" x="402.0" y="108.75">back</text>
  <path d="M 625.0 171.0 L 763.0 171.0 L 703.0 132.0 Q 670.6 115.2 691.0 60.0 L 667.0 60.0 L 625.0 117.0 L 625.0 171.0 z" fill="rgb(255,217,194)" stroke="black"/>
  <text fill="rgb(9,33,173)" font-size="25" x="654.0" y="121.5">front_left</text>
</svg>
