<?xml version="1.0" encoding="utf-8" ?>
<svg xmlns="http://www.w3.org/2000/svg" xmlns:ev="http://www.w3.org/2001/xml-events" xmlns:xlink="http://www.w3.org/1999/xlink" baseProfile="full" height="531.0px" version="1.1" width="762.0px">
  <defs/>
  <path d="M 60 468 L 180 468 L 180 84 L 147 60 L 132 60 Q 156.9 118.19999999999999 123 138 L 60 468 z" fill="rgb(255,217,194)" stroke="black"/>
  <text fill="rgb(9,33,173)" font-size="25" x="112.0" y="216.0">front_right</text>
  <path d="M 282.0 471.0 L 522.0 471.0 L 459.0 138.0 Q 425.1 118.19999999999999 450.0 60.0 L 435.0 60.0 Q 402.0 211.45350696555124 369.0 60.0 L 354.0 60.0 Q 378.9 118.19999999999999 345.0 138.0 L 282.0 471.0 z" fill="rgb(255,217,194)" stroke="black"/>
  <text fill="rgb(9,33,173)" font-size="25" x="377.0" y="185.25">back</text>
  <path d="M 582.0 468.0 L 702.0 468.0 L 639.0 138.0 Q 605.0999999999999 118.19999999999999 630.0 60.0 L 615.0 60.0 L 582.0 84.0 L 582.0 468.0 z" fill="rgb(255,217,194)" stroke="black"/>
  <text fill="rgb(9,33,173)" font-size="25" x="600.0" y="216.0">front_left</text>
</svg>
