<?xml version="1.0" encoding="utf-8" ?>
<svg xmlns="http://www.w3.org/2000/svg" xmlns:ev="http://www.w3.org/2001/xml-events" xmlns:xlink="http://www.w3.org/1999/xlink" baseProfile="full" height="513.0px" version="1.1" width="1643.0px">
  <defs/>
  <path d="M 60 180 L 132 180 Q 169.5 90.0 117 60 L 60 63 L 60 180 z" fill="rgb(255,217,194)" stroke="black"/>
  <text fill="rgb(9,33,173)" font-size="25" x="67.25" y="123.75">rbsleeve</text>
  <path d="M 207.25 177.0 L 264.25 180.0 Q 316.75 150.0 279.25 60.0 L 207.25 60.0 L 207.25 177.0 z" fill="rgb(255,217,194)" stroke="black"/>
  <text fill="rgb(9,33,173)" font-size="25" x="214.5" y="122.25">rfsleeve</text>
  <path d="M 354.5 453.0 L 480.5 453.0 L 480.5 75.0 L 441.5 60.0 L 408.5 60.0 Q 444.8 147.89999999999998 393.5 177.0 L 354.5 453.0 z" fill="rgb(255,217,194)" stroke="black"/>
  <text fill="rgb(9,33,173)" font-size="25" x="401.5" y="216.0">front_right</text>
  <path d="M 577.5 165.0 L 643.5 165.0 Q 704.6999999999999 138.9 649.5 66.0 L 613.5 75.0 L 571.5 60.0 L 577.5 165.0 z" fill="rgb(255,217,194)" stroke="black"/>
  <text fill="rgb(9,33,173)" font-size="25" x="586.1" y="109.2">Rhood</text>
  <path d="M 709.5 453.0 L 961.5 453.0 L 922.5 177.0 Q 871.2 147.9 907.5 60.0 L 874.5 60.0 L 835.5 69.0 L 796.5 60.0 L 763.5 60.0 Q 799.8 147.89999999999998 748.5 177.0 L 709.5 453.0 z" fill="rgb(255,217,194)" stroke="black"/>
  <text fill="rgb(9,33,173)" font-size="25" x="810.5" y="177.33333333333334">back</text>
  <path d="M 1021.5 165.0 L 1063.5 150.0 L 1099.5 159.0 Q 1154.7 86.10000000000001 1093.5 60.0 L 1027.5 60.0 L 1021.5 165.0 z" fill="rgb(255,217,194)" stroke="black"/>
  <text fill="rgb(9,33,173)" font-size="25" x="1036.1" y="121.8">Lhood</text>
  <path d="M 1159.5 453.0 L 1285.5 453.0 L 1246.5 177.0 Q 1195.2 147.9 1231.5 60.0 L 1198.5 60.0 L 1159.5 75.0 L 1159.5 453.0 z" fill="rgb(255,217,194)" stroke="black"/>
  <text fill="rgb(9,33,173)" font-size="25" x="1188.5" y="216.0">front_left</text>
  <path d="M 1348.5 177.0 L 1405.5 180.0 Q 1458.0 150.0 1420.5 60.0 L 1348.5 60.0 L 1348.5 177.0 z" fill="rgb(255,217,194)" stroke="black"/>
  <text fill="rgb(9,33,173)" font-size="25" x="1355.75" y="122.25">lbsleeve</text>
  <path d="M 1495.75 180.0 L 1567.75 180.0 Q 1605.25 90.0 1552.75 60.0 L 1495.75 63.0 L 1495.75 180.0 z" fill="rgb(255,217,194)" stroke="black"/>
  <text fill="rgb(9,33,173)" font-size="25" x="1503.0" y="123.75">lfsleeve</text>
</svg>
