<?xml version="1.0" encoding="utf-8" ?>
<svg xmlns="http://www.w3.org/2000/svg" xmlns:ev="http://www.w3.org/2001/xml-events" xmlns:xlink="http://www.w3.org/1999/xlink" baseProfile="full" height="321px" version="1.1" width="1356px">
  <defs/>
  <path d="M 60 261 Q 249.0 91.46273552828848 438 261 L 327 102 L 303 60 L 195 60 L 171 102 L 60 261 z" fill="rgb(255,217,194)" stroke="black"/>
  <text fill="rgb(9,33,173)" font-size="25" x="224.0" y="144.0">skirt_back</text>
  <path d="M 498 261 Q 687.0 420.2442993550461 876 261 L 765 102 L 741 60 L 633 60 L 609 102 L 498 261 z" fill="rgb(255,217,194)" stroke="black"/>
  <text fill="rgb(9,33,173)" font-size="25" x="662.0" y="144.0">skirt_front</text>
  <path d="M 957 168 L 1065 168 L 1086 117 Q 1059.6000000000001 104.7 1074 60 L 1041 60 Q 1011.0 69.30208001621993 981 60 L 948 60 Q 962.4 104.7 936 117 L 957 168 z" fill="rgb(255,217,194)" stroke="black"/>
  <text fill="rgb(9,33,173)" font-size="25" x="986.0" y="104.25">top_back</text>
  <path d="M 1167 165 L 1275 165 L 1296 114 Q 1270.8000000000002 102.6 1284 60 L 1251 60 L 1221 132 L 1191 60 L 1158 60 Q 1171.1999999999998 102.6 1146 114 L 1167 165 z" fill="rgb(255,217,194)" stroke="black"/>
  <text fill="rgb(9,33,173)" font-size="25" x="1196.0" y="106.33333333333333">top_front</text>
</svg>
