<?xml version="1.0" encoding="utf-8" ?>
<svg xmlns="http://www.w3.org/2000/svg" xmlns:ev="http://www.w3.org/2001/xml-events" xmlns:xlink="http://www.w3.org/1999/xlink" baseProfile="full" height="291px" version="1.1" width="940.5px">
  <defs/>
  <path d="M 60 231 L 228 231 L 228 147 L 207 60 L 159 60 Q 193.8 140.4 147 168 L 60 231 z" fill="rgb(255,217,194)" stroke="black"/>
  <text fill="rgb(9,33,173)" font-size="25" x="146.5" y="152.5">front_right</text>
  <path d="M 316.5 231.0 L 652.5 231.0 L 565.5 168.0 Q 518.6999999999999 140.4 553.5 60.0 L 505.5 60.0 Q 484.5 197.39898183456336 463.5 60.0 L 415.5 60.0 Q 450.3 140.4 403.5 168.0 L 316.5 231.0 z" fill="rgb(255,217,194)" stroke="black"/>
  <text fill="rgb(9,33,173)" font-size="25" x="459.5" y="132.75">back</text>
  <path d="M 712.5 231.0 L 880.5 231.0 L 793.5 168.0 Q 746.6999999999999 140.4 781.5 60.0 L 733.5 60.0 L 712.5 147.0 L 712.5 231.0 z" fill="rgb(255,217,194)" stroke="black"/>
  <text fill="rgb(9,33,173)" font-size="25" x="744.0" y="152.5">front_left</text>
</svg>
