<?xml version="1.0" encoding="utf-8" ?>
<svg xmlns="http://www.w3.org/2000/svg" xmlns:ev="http://www.w3.org/2001/xml-events" xmlns:xlink="http://www.w3.org/1999/xlink" baseProfile="full" height="252px" version="1.1" width="1498.0px">
  <defs/>
  <path d="M 60 192 L 144 192 L 177 60 L 90 60 Q 102.30000000000001 137.25 60 147 Q 64.5 149.25 60 192 z" fill="rgb(255,217,194)" stroke="black"/>
  <text fill="rgb(9,33,173)" font-size="25" x="81.2" y="133.2">Rback</text>
  <path d="M 270 192 L 354 192 Q 349.5 149.25 354 147 Q 316.05 135.75 324 60 L 237 60 L 270 192 z" fill="rgb(255,217,194)" stroke="black"/>
  <text fill="rgb(9,33,173)" font-size="25" x="282.8" y="133.2">Rfront</text>
  <path d="M 414 69 L 453 69 L 492 69 L 492 60 L 414 60 L 414 69 z" fill="rgb(255,217,194)" stroke="black"/>
  <text fill="rgb(9,33,173)" font-size="25" x="428.0" y="68.4">wb_back</text>
  <path d="M 558.0 69.0 L 597.0 69.0 L 636.0 69.0 L 636.0 60.0 L 558.0 60.0 L 558.0 69.0 z" fill="rgb(255,217,194)" stroke="black"/>
  <text fill="rgb(9,33,173)" font-size="25" x="572.0" y="68.4">wb_front</text>
  <path d="M 712.0 162.0 L 868.0 162.0 L 868.0 135.0 Q 834.4 117.3 856.0 60.0 L 826.0 60.0 Q 790.0 145.60887714251518 754.0 60.0 L 724.0 60.0 Q 745.6 117.3 712.0 135.0 L 712.0 162.0 z" fill="rgb(255,217,194)" stroke="black"/>
  <text fill="rgb(9,33,173)" font-size="25" x="765.0" y="107.25">top_back</text>
  <path d="M 928.0 162.0 L 1084.0 162.0 L 1084.0 135.0 Q 1050.4 117.3 1072.0 60.0 L 1042.0 60.0 L 1006.0 93.0 L 970.0 60.0 L 940.0 60.0 Q 961.6 117.3 928.0 135.0 L 928.0 162.0 z" fill="rgb(255,217,194)" stroke="black"/>
  <text fill="rgb(9,33,173)" font-size="25" x="981.0" y="106.0">top_front</text>
  <path d="M 1177.0 192.0 L 1261.0 192.0 Q 1256.5 149.25 1261.0 147.0 Q 1218.7 137.25 1231.0 60.0 L 1144.0 60.0 L 1177.0 192.0 z" fill="rgb(255,217,194)" stroke="black"/>
  <text fill="rgb(9,33,173)" font-size="25" x="1189.8" y="133.2">Lback</text>
  <path d="M 1321.0 192.0 L 1405.0 192.0 L 1438.0 60.0 L 1351.0 60.0 Q 1358.95 135.75 1321.0 147.0 Q 1325.5 149.25 1321.0 192.0 z" fill="rgb(255,217,194)" stroke="black"/>
  <text fill="rgb(9,33,173)" font-size="25" x="1342.2" y="133.2">Lfront</text>
</svg>
