<?xml version="1.0" encoding="utf-8" ?>
<svg xmlns="http://www.w3.org/2000/svg" xmlns:ev="http://www.w3.org/2001/xml-events" xmlns:xlink="http://www.w3.org/1999/xlink" baseProfile="full" height="240px" version="1.1" width="1530px">
  <defs/>
  <path d="M 60 156 L 180 156 Q 207.9 82.80000000000001 165 60 L 60 90 L 60 156 z" fill="rgb(255,217,194)" stroke="black"/>
  <text fill="rgb(9,33,173)" font-size="25" x="91.25" y="118.5">rbsleeve</text>
  <path d="M 240 126 L 345 156 Q 387.9 133.2 360 60 L 240 60 L 240 126 z" fill="rgb(255,217,194)" stroke="black"/>
  <text fill="rgb(9,33,173)" font-size="25" x="271.25" y="103.5">rfsleeve</text>
  <path d="M 435 156 L 579 156 L 594 156 Q 552.0 132.0 582 60 L 546 60 L 507 69 L 468 60 L 432 60 Q 462.0 132.0 420 156 L 435 156 z" fill="rgb(255,217,194)" stroke="black"/>
  <text fill="rgb(9,33,173)" font-size="25" x="482.0" y="106.66666666666667">back</text>
  <path d="M 669 153 L 813 153 L 828 156 Q 786.0 132.0 816 60 L 780 60 L 741 72 L 702 60 L 666 60 Q 696.0 132.0 654 156 L 669 153 z" fill="rgb(255,217,194)" stroke="black"/>
  <text fill="rgb(9,33,173)" font-size="25" x="716.0" y="106.33333333333333">front</text>
  <path d="M 894 180 L 921 177 Q 998.4 174.3 969 72 L 930 81 L 888 60 L 894 180 z" fill="rgb(255,217,194)" stroke="black"/>
  <text fill="rgb(9,33,173)" font-size="25" x="895.4" y="117.0">Rhood</text>
  <path d="M 1029 180 L 1071 159 L 1110 168 Q 1139.4 65.7 1062 63 L 1035 60 L 1029 180 z" fill="rgb(255,217,194)" stroke="black"/>
  <text fill="rgb(9,33,173)" font-size="25" x="1036.4" y="129.0">Lhood</text>
  <path d="M 1170 126 L 1275 156 Q 1317.9 133.2 1290 60 L 1170 60 L 1170 126 z" fill="rgb(255,217,194)" stroke="black"/>
  <text fill="rgb(9,33,173)" font-size="25" x="1201.25" y="103.5">lbsleeve</text>
  <path d="M 1350 156 L 1470 156 Q 1497.9 82.80000000000001 1455 60 L 1350 90 L 1350 156 z" fill="rgb(255,217,194)" stroke="black"/>
  <text fill="rgb(9,33,173)" font-size="25" x="1381.25" y="118.5">lfsleeve</text>
</svg>
