<?xml version="1.0" encoding="utf-8" ?>
<svg xmlns="http://www.w3.org/2000/svg" xmlns:ev="http://www.w3.org/2001/xml-events" xmlns:xlink="http://www.w3.org/1999/xlink" baseProfile="full" height="351px" version="1.1" width="1092px">
  <defs/>
  <path d="M 60 291 L 150 291 Q 169.20000000000002 95.10000000000001 159 60 L 90 60 Q 104.7 141.75 60 153 Q 73.8 159.9 60 291 z" fill="rgb(255,217,194)" stroke="black"/>
  <text fill="rgb(9,33,173)" font-size="25" x="78.8" y="174.0">Rback</text>
  <path d="M 228 291 L 318 291 Q 304.2 159.9 318 153 Q 277.95 140.25 288 60 L 219 60 Q 208.79999999999998 95.10000000000001 228 291 z" fill="rgb(255,217,194)" stroke="black"/>
  <text fill="rgb(9,33,173)" font-size="25" x="249.2" y="174.0">Rfront</text>
  <path d="M 378 168 L 447 168 L 516 168 L 516 138 Q 481.2 119.39999999999999 504 60 L 474 60 Q 447.0 125.07233557390813 420 60 L 390 60 Q 412.8 119.39999999999999 378 138 L 378 168 z" fill="rgb(255,217,194)" stroke="black"/>
  <text fill="rgb(9,33,173)" font-size="25" x="422.0" y="116.33333333333333">up_back</text>
  <path d="M 576 165 L 645 165 L 714 165 L 714 138 Q 679.1999999999999 119.39999999999999 702 60 L 672 60 L 645 138 L 618 60 L 588 60 Q 610.8000000000001 119.39999999999999 576 138 L 576 165 z" fill="rgb(255,217,194)" stroke="black"/>
  <text fill="rgb(9,33,173)" font-size="25" x="620.0" y="117.9">up_front</text>
  <path d="M 783 291 L 873 291 Q 859.2 159.9 873 153 Q 828.3 141.75 843 60 L 774 60 Q 763.8000000000001 95.10000000000001 783 291 z" fill="rgb(255,217,194)" stroke="black"/>
  <text fill="rgb(9,33,173)" font-size="25" x="804.2" y="174.0">Lback</text>
  <path d="M 933 291 L 1023 291 Q 1042.2 95.10000000000001 1032 60 L 963 60 Q 973.05 140.25 933 153 Q 946.8 159.9 933 291 z" fill="rgb(255,217,194)" stroke="black"/>
  <text fill="rgb(9,33,173)" font-size="25" x="951.8" y="174.0">Lfront</text>
</svg>
