<?xml version="1.0" encoding="utf-8" ?>
<svg xmlns="http://www.w3.org/2000/svg" xmlns:ev="http://www.w3.org/2001/xml-events" xmlns:xlink="http://www.w3.org/1999/xlink" baseProfile="full" height="507px" version="1.1" width="895.0px">
  <defs/>
  <path d="M 72 447 L 141 447 L 141 72 L 114 60 L 72 60 Q 84.0 100.49999999999999 60 111 L 72 447 z" fill="rgb(255,217,194)" stroke="black"/>
  <text fill="rgb(9,33,173)" font-size="25" x="75.0" y="202.5">front_right</text>
  <path d="M 245.0 153.0 L 269.0 153.0 Q 335.6 151.2 311.0 63.0 L 281.0 72.0 L 251.0 60.0 L 245.0 153.0 z" fill="rgb(255,217,194)" stroke="black"/>
  <text fill="rgb(9,33,173)" font-size="25" x="246.39999999999998" y="103.2">Rhood</text>
  <path d="M 383.0 447.0 L 521.0 447.0 L 533.0 111.0 Q 509.0 100.5 521.0 60.0 L 479.0 60.0 L 452.0 69.0 L 425.0 60.0 L 383.0 60.0 Q 395.0 100.49999999999999 371.0 111.0 L 383.0 447.0 z" fill="rgb(255,217,194)" stroke="black"/>
  <text fill="rgb(9,33,173)" font-size="25" x="427.0" y="161.33333333333334">back</text>
  <path d="M 599.0 153.0 L 629.0 141.0 L 659.0 150.0 Q 683.6 61.8 617.0 60.0 L 593.0 60.0 L 599.0 153.0 z" fill="rgb(255,217,194)" stroke="black"/>
  <text fill="rgb(9,33,173)" font-size="25" x="594.4" y="115.8">Lhood</text>
  <path d="M 719.0 447.0 L 788.0 447.0 L 800.0 111.0 Q 776.0 100.5 788.0 60.0 L 746.0 60.0 L 719.0 72.0 L 719.0 447.0 z" fill="rgb(255,217,194)" stroke="black"/>
  <text fill="rgb(9,33,173)" font-size="25" x="735.0" y="202.5">front_left</text>
</svg>
