<?xml version="1.0" encoding="utf-8" ?>
<svg xmlns="http://www.w3.org/2000/svg" xmlns:ev="http://www.w3.org/2001/xml-events" xmlns:xlink="http://www.w3.org/1999/xlink" baseProfile="full" height="366px" version="1.1" width="1848px">
  <defs/>
  <path d="M 60 141 L 177 141 Q 201.0 79.50000000000001 165 60 L 60 75 L 60 141 z" fill="rgb(255,217,194)" stroke="black"/>
  <text fill="rgb(9,33,173)" font-size="25" x="90.5" y="107.25">rbsleeve</text>
  <path d="M 237 126 L 342 141 Q 378.0 121.5 354 60 L 237 60 L 237 126 z" fill="rgb(255,217,194)" stroke="black"/>
  <text fill="rgb(9,33,173)" font-size="25" x="267.5" y="99.75">rfsleeve</text>
  <path d="M 414 306 L 501 306 Q 526.05 97.65 516 60 L 444 60 Q 458.7 141.75 414 153 Q 429.3 160.65 414 306 z" fill="rgb(255,217,194)" stroke="black"/>
  <text fill="rgb(9,33,173)" font-size="25" x="432.8" y="180.0">Rback</text>
  <path d="M 591 306 L 678 306 Q 662.7 160.65 678 153 Q 637.95 140.25 648 60 L 576 60 Q 565.95 97.65 591 306 z" fill="rgb(255,217,194)" stroke="black"/>
  <text fill="rgb(9,33,173)" font-size="25" x="609.2" y="180.0">Rfront</text>
  <path d="M 741 168 L 816 168 L 891 168 L 894 141 Q 858.0 121.5 882 60 L 834 60 Q 816.0 88.76374666380251 798 60 L 750 60 Q 774.0 121.49999999999999 738 141 L 741 168 z" fill="rgb(255,217,194)" stroke="black"/>
  <text fill="rgb(9,33,173)" font-size="25" x="791.0" y="117.0">up_back</text>
  <path d="M 957 165 L 1032 165 L 1107 165 L 1110 138 Q 1075.2 119.39999999999999 1098 60 L 1050 60 L 1032 75 L 1014 60 L 966 60 Q 988.8000000000001 119.39999999999999 954 138 L 957 165 z" fill="rgb(255,217,194)" stroke="black"/>
  <text fill="rgb(9,33,173)" font-size="25" x="1007.0" y="111.6">up_front</text>
  <path d="M 1185 306 L 1272 306 Q 1256.7 160.65 1272 153 Q 1227.3 141.75 1242 60 L 1170 60 Q 1159.95 97.65 1185 306 z" fill="rgb(255,217,194)" stroke="black"/>
  <text fill="rgb(9,33,173)" font-size="25" x="1203.2" y="180.0">Lback</text>
  <path d="M 1332 306 L 1419 306 Q 1444.05 97.65 1434 60 L 1362 60 Q 1372.05 140.25 1332 153 Q 1347.3 160.65 1332 306 z" fill="rgb(255,217,194)" stroke="black"/>
  <text fill="rgb(9,33,173)" font-size="25" x="1350.8" y="180.0">Lfront</text>
  <path d="M 1494 126 L 1599 141 Q 1635.0 121.5 1611 60 L 1494 60 L 1494 126 z" fill="rgb(255,217,194)" stroke="black"/>
  <text fill="rgb(9,33,173)" font-size="25" x="1524.5" y="99.75">lbsleeve</text>
  <path d="M 1671 141 L 1788 141 Q 1812.0 79.50000000000001 1776 60 L 1671 75 L 1671 141 z" fill="rgb(255,217,194)" stroke="black"/>
  <text fill="rgb(9,33,173)" font-size="25" x="1701.5" y="107.25">lfsleeve</text>
</svg>
