<?xml version="1.0" encoding="utf-8" ?>
<svg xmlns="http://www.w3.org/2000/svg" xmlns:ev="http://www.w3.org/2001/xml-events" xmlns:xlink="http://www.w3.org/1999/xlink" baseProfile="full" height="321px" version="1.1" width="1618.0px">
  <defs/>
  <path d="M 60 261 L 414 261 L 414 60 L 60 60 L 60 261 z" fill="rgb(255,217,194)" stroke="black"/>
  <text fill="rgb(9,33,173)" font-size="25" x="212.0" y="163.5">skirt_back</text>
  <path d="M 474 72 L 564 72 L 564 60 L 474 60 L 474 72 z" fill="rgb(255,217,194)" stroke="black"/>
  <text fill="rgb(9,33,173)" font-size="25" x="494.0" y="69.0">wb_back</text>
  <path d="M 624 72 L 714 72 L 714 60 L 624 60 L 624 72 z" fill="rgb(255,217,194)" stroke="black"/>
  <text fill="rgb(9,33,173)" font-size="25" x="644.0" y="69.0">wb_front</text>
  <path d="M 784.0 261.0 L 1138.0 261.0 L 1138.0 60.0 L 784.0 60.0 L 784.0 261.0 z" fill="rgb(255,217,194)" stroke="black"/>
  <text fill="rgb(9,33,173)" font-size="25" x="936.0" y="163.5">skirt_front</text>
  <path d="M 1198.0 150.0 L 1348.0 150.0 L 1348.0 123.0 Q 1319.2 108.89999999999999 1336.0 60.0 L 1291.0 60.0 Q 1273.0 93.78916955143343 1255.0 60.0 L 1210.0 60.0 Q 1226.8 108.89999999999999 1198.0 123.0 L 1198.0 150.0 z" fill="rgb(255,217,194)" stroke="black"/>
  <text fill="rgb(9,33,173)" font-size="25" x="1248.0" y="101.25">top_back</text>
  <path d="M 1408.0 150.0 L 1558.0 150.0 L 1558.0 123.0 Q 1529.2 108.89999999999999 1546.0 60.0 L 1501.0 60.0 L 1483.0 138.0 L 1465.0 60.0 L 1420.0 60.0 Q 1436.8 108.89999999999999 1408.0 123.0 L 1408.0 150.0 z" fill="rgb(255,217,194)" stroke="black"/>
  <text fill="rgb(9,33,173)" font-size="25" x="1458.0" y="105.66666666666667">top_front</text>
</svg>
