<?xml version="1.0" encoding="utf-8" ?>
<svg xmlns="http://www.w3.org/2000/svg" xmlns:ev="http://www.w3.org/2001/xml-events" xmlns:xlink="http://www.w3.org/1999/xlink" baseProfile="full" height="387px" version="1.1" width="1570.0px">
  <defs/>
  <path d="M 60 327 L 192 327 L 189 60 L 90 60 Q 99.9 132.75 60 141 Q 78.6 150.3 60 327 z" fill="rgb(255,217,194)" stroke="black"/>
  <text fill="rgb(9,33,173)" font-size="25" x="93.2" y="186.0">Rback</text>
  <path d="M 252 327 L 384 327 Q 365.4 150.3 384 141 Q 348.15 131.25 354 60 L 255 60 L 252 327 z" fill="rgb(255,217,194)" stroke="black"/>
  <text fill="rgb(9,33,173)" font-size="25" x="300.8" y="186.0">Rfront</text>
  <path d="M 444 75 L 483 75 L 522 75 L 522 60 L 444 60 L 444 75 z" fill="rgb(255,217,194)" stroke="black"/>
  <text fill="rgb(9,33,173)" font-size="25" x="458.0" y="72.0">wb_back</text>
  <path d="M 588.0 75.0 L 627.0 75.0 L 666.0 75.0 L 666.0 60.0 L 588.0 60.0 L 588.0 75.0 z" fill="rgb(255,217,194)" stroke="black"/>
  <text fill="rgb(9,33,173)" font-size="25" x="602.0" y="72.0">wb_front</text>
  <path d="M 742.0 180.0 L 904.0 180.0 L 904.0 105.0 Q 882.4 96.3 892.0 60.0 L 850.0 60.0 Q 823.0 160.14128803853558 796.0 60.0 L 754.0 60.0 Q 763.6 96.3 742.0 105.0 L 742.0 180.0 z" fill="rgb(255,217,194)" stroke="black"/>
  <text fill="rgb(9,33,173)" font-size="25" x="798.0" y="104.25">top_back</text>
  <path d="M 964.0 180.0 L 1126.0 180.0 L 1126.0 105.0 Q 1104.4 96.3 1114.0 60.0 L 1072.0 60.0 L 1045.0 111.0 L 1018.0 60.0 L 976.0 60.0 Q 985.6 96.3 964.0 105.0 L 964.0 180.0 z" fill="rgb(255,217,194)" stroke="black"/>
  <text fill="rgb(9,33,173)" font-size="25" x="1020.0" y="105.33333333333333">top_front</text>
  <path d="M 1186.0 327.0 L 1318.0 327.0 Q 1299.4 150.3 1318.0 141.0 Q 1278.1 132.75 1288.0 60.0 L 1189.0 60.0 L 1186.0 327.0 z" fill="rgb(255,217,194)" stroke="black"/>
  <text fill="rgb(9,33,173)" font-size="25" x="1234.8" y="186.0">Lback</text>
  <path d="M 1378.0 327.0 L 1510.0 327.0 L 1507.0 60.0 L 1408.0 60.0 Q 1413.85 131.25 1378.0 141.0 Q 1396.6 150.3 1378.0 327.0 z" fill="rgb(255,217,194)" stroke="black"/>
  <text fill="rgb(9,33,173)" font-size="25" x="1411.2" y="186.0">Lfront</text>
</svg>
