<?xml version="1.0" encoding="utf-8" ?>
<svg xmlns="http://www.w3.org/2000/svg" xmlns:ev="http://www.w3.org/2001/xml-events" xmlns:xlink="http://www.w3.org/1999/xlink" baseProfile="full" height="378px" version="1.1" width="1200px">
  <defs/>
  <path d="M 60 318 L 177 318 Q 172.05 97.65000000000002 156 60 L 90 60 Q 104.7 141.75 60 153 Q 76.5 161.25 60 318 z" fill="rgb(255,217,194)" stroke="black"/>
  <text fill="rgb(9,33,173)" font-size="25" x="83.6" y="184.8">Rback</text>
  <path d="M 237 318 L 354 318 Q 337.5 161.25 354 153 Q 313.95 140.25 324 60 L 258 60 Q 241.95 97.64999999999999 237 318 z" fill="rgb(255,217,194)" stroke="black"/>
  <text fill="rgb(9,33,173)" font-size="25" x="280.4" y="184.8">Rfront</text>
  <path d="M 423 168 L 492 168 L 561 168 L 570 114 Q 544.8 102.6 558 60 L 519 60 Q 492.0 82.24752807727882 465 60 L 426 60 Q 439.20000000000005 102.6 414 114 L 423 168 z" fill="rgb(255,217,194)" stroke="black"/>
  <text fill="rgb(9,33,173)" font-size="25" x="467.0" y="111.0">up_back</text>
  <path d="M 639 165 L 708 165 L 777 165 L 786 114 Q 760.8 102.6 774 60 L 735 60 L 708 132 L 681 60 L 642 60 Q 655.2 102.6 630 114 L 639 165 z" fill="rgb(255,217,194)" stroke="black"/>
  <text fill="rgb(9,33,173)" font-size="25" x="683.0" y="112.5">up_front</text>
  <path d="M 846 318 L 963 318 Q 946.5 161.25 963 153 Q 918.3 141.75 933 60 L 867 60 Q 850.95 97.64999999999999 846 318 z" fill="rgb(255,217,194)" stroke="black"/>
  <text fill="rgb(9,33,173)" font-size="25" x="889.4" y="184.8">Lback</text>
  <path d="M 1023 318 L 1140 318 Q 1135.0500000000002 97.65000000000002 1119 60 L 1053 60 Q 1063.05 140.25 1023 153 Q 1039.5 161.25 1023 318 z" fill="rgb(255,217,194)" stroke="black"/>
  <text fill="rgb(9,33,173)" font-size="25" x="1046.6" y="184.8">Lfront</text>
</svg>
