<?xml version="1.0" encoding="utf-8" ?>
<svg xmlns="http://www.w3.org/2000/svg" xmlns:ev="http://www.w3.org/2001/xml-events" xmlns:xlink="http://www.w3.org/1999/xlink" baseProfile="full" height="489px" version="1.1" width="1353.0px">
  <defs/>
  <path d="M 60 429 L 267 429 L 267 63 L 231 60 L 186 60 Q 197.1 103.8 171 114 L 60 429 z" fill="rgb(255,217,194)" stroke="black"/>
  <text fill="rgb(9,33,173)" font-size="25" x="172.0" y="195.5">front_right</text>
  <path d="M 345.0 165.0 L 360.0 165.0 Q 440.1 167.7 417.0 60.0 L 381.0 69.0 L 342.0 66.0 L 345.0 165.0 z" fill="rgb(255,217,194)" stroke="black"/>
  <text fill="rgb(9,33,173)" font-size="25" x="344.0" y="108.0">Rhood</text>
  <path d="M 477.0 429.0 L 891.0 429.0 L 780.0 114.0 Q 753.9 103.8 765.0 60.0 L 720.0 60.0 L 684.0 69.0 L 648.0 60.0 L 603.0 60.0 Q 614.1 103.8 588.0 114.0 L 477.0 429.0 z" fill="rgb(255,217,194)" stroke="black"/>
  <text fill="rgb(9,33,173)" font-size="25" x="659.0" y="158.0">back</text>
  <path d="M 951.0 159.0 L 990.0 156.0 L 1026.0 165.0 Q 1049.1 57.300000000000004 969.0 60.0 L 954.0 60.0 L 951.0 159.0 z" fill="rgb(255,217,194)" stroke="black"/>
  <text fill="rgb(9,33,173)" font-size="25" x="953.0" y="123.0">Lhood</text>
  <path d="M 1086.0 429.0 L 1293.0 429.0 L 1182.0 114.0 Q 1155.9 103.8 1167.0 60.0 L 1122.0 60.0 L 1086.0 63.0 L 1086.0 429.0 z" fill="rgb(255,217,194)" stroke="black"/>
  <text fill="rgb(9,33,173)" font-size="25" x="1131.0" y="195.5">front_left</text>
</svg>
