<?xml version="1.0" encoding="utf-8" ?>
<svg xmlns="http://www.w3.org/2000/svg" xmlns:ev="http://www.w3.org/2001/xml-events" xmlns:xlink="http://www.w3.org/1999/xlink" baseProfile="full" height="288.0px" version="1.1" width="1457.0px">
  <defs/>
  <path d="M 60 135 L 99 135 Q 106.19999999999999 102.9 87 96 L 60 60 L 60 135 z" fill="rgb(255,217,194)" stroke="black"/>
  <text fill="rgb(9,33,173)" font-size="25" x="51.5" y="109.5">rbsleeve</text>
  <path d="M 191.5 135.0 L 218.5 99.0 Q 237.7 92.1 230.5 60.0 L 191.5 60.0 L 191.5 135.0 z" fill="rgb(255,217,194)" stroke="black"/>
  <text fill="rgb(9,33,173)" font-size="25" x="183.0" y="91.5">rfsleeve</text>
  <path d="M 323.0 228.0 L 416.0 228.0 L 416.0 78.0 L 389.0 60.0 L 353.0 60.0 Q 361.40000000000003 94.2 341.0 102.0 L 323.0 228.0 z" fill="rgb(255,217,194)" stroke="black"/>
  <text fill="rgb(9,33,173)" font-size="25" x="348.0" y="129.0">front_right</text>
  <path d="M 518.0 162.0 L 548.0 162.0 Q 614.5999999999999 155.7 584.0 69.0 L 554.0 78.0 L 524.0 60.0 L 518.0 162.0 z" fill="rgb(255,217,194)" stroke="black"/>
  <text fill="rgb(9,33,173)" font-size="25" x="520.6" y="109.2">Rhood</text>
  <path d="M 644.0 228.0 L 830.0 228.0 L 812.0 102.0 Q 791.6 94.2 800.0 60.0 L 764.0 60.0 L 737.0 69.0 L 710.0 60.0 L 674.0 60.0 Q 682.4 94.2 662.0 102.0 L 644.0 228.0 z" fill="rgb(255,217,194)" stroke="black"/>
  <text fill="rgb(9,33,173)" font-size="25" x="712.0" y="110.66666666666667">back</text>
  <path d="M 896.0 162.0 L 926.0 144.0 L 956.0 153.0 Q 986.5999999999999 66.30000000000001 920.0 60.0 L 890.0 60.0 L 896.0 162.0 z" fill="rgb(255,217,194)" stroke="black"/>
  <text fill="rgb(9,33,173)" font-size="25" x="892.6" y="118.8">Lhood</text>
  <path d="M 1016.0 228.0 L 1109.0 228.0 L 1091.0 102.0 Q 1070.6000000000001 94.2 1079.0 60.0 L 1043.0 60.0 L 1016.0 78.0 L 1016.0 228.0 z" fill="rgb(255,217,194)" stroke="black"/>
  <text fill="rgb(9,33,173)" font-size="25" x="1034.0" y="129.0">front_left</text>
  <path d="M 1194.0 135.0 L 1221.0 99.0 Q 1240.1999999999998 92.1 1233.0 60.0 L 1194.0 60.0 L 1194.0 135.0 z" fill="rgb(255,217,194)" stroke="black"/>
  <text fill="rgb(9,33,173)" font-size="25" x="1185.5" y="91.5">lbsleeve</text>
  <path d="M 1325.5 135.0 L 1364.5 135.0 Q 1371.6999999999998 102.9 1352.5 96.0 L 1325.5 60.0 L 1325.5 135.0 z" fill="rgb(255,217,194)" stroke="black"/>
  <text fill="rgb(9,33,173)" font-size="25" x="1317.0" y="109.5">lfsleeve</text>
</svg>
