<?xml version="1.0" encoding="utf-8" ?>
<svg xmlns="http://www.w3.org/2000/svg" xmlns:ev="http://www.w3.org/2001/xml-events" xmlns:xlink="http://www.w3.org/1999/xlink" baseProfile="full" height="285.0px" version="1.1" width="1660.0px">
  <defs/>
  <path d="M 60 153 L 96 153 Q 124.8 83.10000000000001 84 60 L 60 87 L 60 153 z" fill="rgb(255,217,194)" stroke="black"/>
  <text fill="rgb(9,33,173)" font-size="25" x="50.0" y="116.25">rbsleeve</text>
  <path d="M 190.0 126.0 L 214.0 153.0 Q 254.8 129.9 226.0 60.0 L 190.0 60.0 L 190.0 126.0 z" fill="rgb(255,217,194)" stroke="black"/>
  <text fill="rgb(9,33,173)" font-size="25" x="180.0" y="102.75">rfsleeve</text>
  <path d="M 320.0 225.0 L 431.0 225.0 Q 423.95 83.85 413.0 60.0 L 350.0 60.0 Q 364.7 141.75 320.0 153.0 Q 327.2 156.6 320.0 225.0 z" fill="rgb(255,217,194)" stroke="black"/>
  <text fill="rgb(9,33,173)" font-size="25" x="341.8" y="147.6">Rback</text>
  <path d="M 491.0 225.0 L 602.0 225.0 Q 594.8 156.60000000000002 602.0 153.0 Q 561.95 140.25 572.0 60.0 L 509.0 60.0 Q 498.05 83.85 491.0 225.0 z" fill="rgb(255,217,194)" stroke="black"/>
  <text fill="rgb(9,33,173)" font-size="25" x="530.2" y="147.6">Rfront</text>
  <path d="M 665.0 168.0 L 731.0 168.0 L 797.0 168.0 L 800.0 153.0 Q 759.1999999999999 129.9 788.0 60.0 L 755.0 60.0 Q 731.0 74.82597761201808 707.0 60.0 L 674.0 60.0 Q 702.8000000000001 129.9 662.0 153.0 L 665.0 168.0 z" fill="rgb(255,217,194)" stroke="black"/>
  <text fill="rgb(9,33,173)" font-size="25" x="706.0" y="119.66666666666667">up_back</text>
  <path d="M 863.0 165.0 L 929.0 165.0 L 995.0 165.0 L 998.0 153.0 Q 957.1999999999999 129.9 986.0 60.0 L 953.0 60.0 L 929.0 105.0 L 905.0 60.0 L 872.0 60.0 Q 900.8000000000001 129.9 860.0 153.0 L 863.0 165.0 z" fill="rgb(255,217,194)" stroke="black"/>
  <text fill="rgb(9,33,173)" font-size="25" x="904.0" y="117.6">up_front</text>
  <path d="M 1058.0 225.0 L 1169.0 225.0 Q 1161.8 156.60000000000002 1169.0 153.0 Q 1124.3 141.75 1139.0 60.0 L 1076.0 60.0 Q 1065.05 83.85 1058.0 225.0 z" fill="rgb(255,217,194)" stroke="black"/>
  <text fill="rgb(9,33,173)" font-size="25" x="1097.2" y="147.6">Lback</text>
  <path d="M 1229.0 225.0 L 1340.0 225.0 Q 1332.95 83.85 1322.0 60.0 L 1259.0 60.0 Q 1269.05 140.25 1229.0 153.0 Q 1236.2 156.6 1229.0 225.0 z" fill="rgb(255,217,194)" stroke="black"/>
  <text fill="rgb(9,33,173)" font-size="25" x="1250.8" y="147.6">Lfront</text>
  <path d="M 1400.0 126.0 L 1424.0 153.0 Q 1464.8 129.9 1436.0 60.0 L 1400.0 60.0 L 1400.0 126.0 z" fill="rgb(255,217,194)" stroke="black"/>
  <text fill="rgb(9,33,173)" font-size="25" x="1390.0" y="102.75">lbsleeve</text>
  <path d="M 1530.0 153.0 L 1566.0 153.0 Q 1594.8 83.10000000000001 1554.0 60.0 L 1530.0 87.0 L 1530.0 153.0 z" fill="rgb(255,217,194)" stroke="black"/>
  <text fill="rgb(9,33,173)" font-size="25" x="1520.0" y="116.25">lfsleeve</text>
</svg>
