<?xml version="1.0" encoding="utf-8" ?>
<svg xmlns="http://www.w3.org/2000/svg" xmlns:ev="http://www.w3.org/2001/xml-events" xmlns:xlink="http://www.w3.org/1999/xlink" baseProfile="full" height="315.0px" version="1.1" width="1648.0px">
  <defs/>
  <path d="M 60 207 L 96 207 Q 105.6 170.7 84 162 L 60 60 L 60 207 z" fill="rgb(255,217,194)" stroke="black"/>
  <text fill="rgb(9,33,173)" font-size="25" x="50.0" y="162.0">rbsleeve</text>
  <path d="M 190.0 207.0 L 214.0 105.0 Q 235.6 96.3 226.0 60.0 L 190.0 60.0 L 190.0 207.0 z" fill="rgb(255,217,194)" stroke="black"/>
  <text fill="rgb(9,33,173)" font-size="25" x="180.0" y="111.0">rfsleeve</text>
  <path d="M 320.0 255.0 Q 455.0 180.3010131477541 590.0 255.0 L 533.0 102.0 L 527.0 60.0 L 383.0 60.0 L 377.0 102.0 L 320.0 255.0 z" fill="rgb(255,217,194)" stroke="black"/>
  <text fill="rgb(9,33,173)" font-size="25" x="430.0" y="142.0">skirt_back</text>
  <path d="M 650.0 255.0 Q 785.0 382.43914928972316 920.0 255.0 L 863.0 102.0 L 857.0 60.0 L 713.0 60.0 L 707.0 102.0 L 650.0 255.0 z" fill="rgb(255,217,194)" stroke="black"/>
  <text fill="rgb(9,33,173)" font-size="25" x="760.0" y="142.0">skirt_front</text>
  <path d="M 980.0 168.0 L 1124.0 168.0 L 1124.0 108.0 Q 1101.2 98.39999999999999 1112.0 60.0 L 1079.0 60.0 Q 1052.0 63.40268525750058 1025.0 60.0 L 992.0 60.0 Q 1002.8000000000001 98.39999999999999 980.0 108.0 L 980.0 168.0 z" fill="rgb(255,217,194)" stroke="black"/>
  <text fill="rgb(9,33,173)" font-size="25" x="1027.0" y="102.0">top_back</text>
  <path d="M 1184.0 165.0 L 1328.0 165.0 L 1328.0 108.0 Q 1305.2 98.39999999999999 1316.0 60.0 L 1283.0 60.0 L 1256.0 69.0 L 1229.0 60.0 L 1196.0 60.0 Q 1206.8 98.39999999999999 1184.0 108.0 L 1184.0 165.0 z" fill="rgb(255,217,194)" stroke="black"/>
  <text fill="rgb(9,33,173)" font-size="25" x="1231.0" y="98.0">top_front</text>
  <path d="M 1388.0 207.0 L 1412.0 105.0 Q 1433.6 96.3 1424.0 60.0 L 1388.0 60.0 L 1388.0 207.0 z" fill="rgb(255,217,194)" stroke="black"/>
  <text fill="rgb(9,33,173)" font-size="25" x="1378.0" y="111.0">lbsleeve</text>
  <path d="M 1518.0 207.0 L 1554.0 207.0 Q 1563.6 170.7 1542.0 162.0 L 1518.0 60.0 L 1518.0 207.0 z" fill="rgb(255,217,194)" stroke="black"/>
  <text fill="rgb(9,33,173)" font-size="25" x="1508.0" y="162.0">lfsleeve</text>
</svg>
