<?xml version="1.0" encoding="utf-8" ?>
<svg xmlns="http://www.w3.org/2000/svg" xmlns:ev="http://www.w3.org/2001/xml-events" xmlns:xlink="http://www.w3.org/1999/xlink" baseProfile="full" height="402px" version="1.1" width="1164px">
  <defs/>
  <path d="M 60 342 L 162 342 Q 178.65 102.45000000000002 165 60 L 90 60 Q 104.7 141.75 60 153 Q 78.9 162.45 60 342 z" fill="rgb(255,217,194)" stroke="black"/>
  <text fill="rgb(9,33,173)" font-size="25" x="82.4" y="194.4">Rback</text>
  <path d="M 228 342 L 330 342 Q 311.1 162.45000000000002 330 153 Q 289.95 140.25 300 60 L 225 60 Q 211.35 102.45 228 342 z" fill="rgb(255,217,194)" stroke="black"/>
  <text fill="rgb(9,33,173)" font-size="25" x="257.6" y="194.4">Rfront</text>
  <path d="M 396 168 L 471 168 L 546 168 L 552 147 Q 513.6 125.7 540 60 L 495 60 Q 471.0 83.44983588909834 447 60 L 402 60 Q 428.40000000000003 125.7 390 147 L 396 168 z" fill="rgb(255,217,194)" stroke="black"/>
  <text fill="rgb(9,33,173)" font-size="25" x="446.0" y="118.33333333333333">up_back</text>
  <path d="M 618 165 L 693 165 L 768 165 L 774 147 Q 735.6 125.7 762 60 L 717 60 L 693 63 L 669 60 L 624 60 Q 650.4 125.7 612 147 L 618 165 z" fill="rgb(255,217,194)" stroke="black"/>
  <text fill="rgb(9,33,173)" font-size="25" x="668.0" y="112.2">up_front</text>
  <path d="M 837 342 L 939 342 Q 920.1 162.45000000000002 939 153 Q 894.3 141.75 909 60 L 834 60 Q 820.35 102.45 837 342 z" fill="rgb(255,217,194)" stroke="black"/>
  <text fill="rgb(9,33,173)" font-size="25" x="866.6" y="194.4">Lback</text>
  <path d="M 999 342 L 1101 342 Q 1117.6499999999999 102.45000000000002 1104 60 L 1029 60 Q 1039.05 140.25 999 153 Q 1017.9 162.45 999 342 z" fill="rgb(255,217,194)" stroke="black"/>
  <text fill="rgb(9,33,173)" font-size="25" x="1021.4000000000001" y="194.4">Lfront</text>
</svg>
