<?xml version="1.0" encoding="utf-8" ?>
<svg xmlns="http://www.w3.org/2000/svg" xmlns:ev="http://www.w3.org/2001/xml-events" xmlns:xlink="http://www.w3.org/1999/xlink" baseProfile="full" height="282.0px" version="1.1" width="1609.0px">
  <defs/>
  <path d="M 60 207 L 141 207 Q 165.0 145.5 129 126 L 60 60 L 60 207 z" fill="rgb(255,217,194)" stroke="black"/>
  <text fill="rgb(9,33,173)" font-size="25" x="72.5" y="153.0">rbsleeve</text>
  <path d="M 212.5 207.0 L 281.5 141.0 Q 317.5 121.5 293.5 60.0 L 212.5 60.0 L 212.5 207.0 z" fill="rgb(255,217,194)" stroke="black"/>
  <text fill="rgb(9,33,173)" font-size="25" x="225.0" y="120.0">rfsleeve</text>
  <path d="M 365.0 222.0 L 548.0 222.0 L 548.0 162.0 L 521.0 60.0 L 485.0 60.0 Q 507.8 119.39999999999999 473.0 138.0 L 365.0 222.0 z" fill="rgb(255,217,194)" stroke="black"/>
  <text fill="rgb(9,33,173)" font-size="25" x="465.0" y="147.0">front_right</text>
  <path d="M 635.0 222.0 L 1001.0 222.0 L 893.0 138.0 Q 858.1999999999999 119.39999999999999 881.0 60.0 L 845.0 60.0 Q 818.0 123.32820941296296 791.0 60.0 L 755.0 60.0 Q 777.8000000000001 119.39999999999999 743.0 138.0 L 635.0 222.0 z" fill="rgb(255,217,194)" stroke="black"/>
  <text fill="rgb(9,33,173)" font-size="25" x="793.0" y="123.0">back</text>
  <path d="M 1061.0 222.0 L 1244.0 222.0 L 1136.0 138.0 Q 1101.2 119.39999999999999 1124.0 60.0 L 1088.0 60.0 L 1061.0 162.0 L 1061.0 222.0 z" fill="rgb(255,217,194)" stroke="black"/>
  <text fill="rgb(9,33,173)" font-size="25" x="1094.0" y="147.0">front_left</text>
  <path d="M 1304.0 207.0 L 1373.0 141.0 Q 1409.0 121.5 1385.0 60.0 L 1304.0 60.0 L 1304.0 207.0 z" fill="rgb(255,217,194)" stroke="black"/>
  <text fill="rgb(9,33,173)" font-size="25" x="1316.5" y="120.0">lbsleeve</text>
  <path d="M 1456.5 207.0 L 1537.5 207.0 Q 1561.5 145.5 1525.5 126.0 L 1456.5 60.0 L 1456.5 207.0 z" fill="rgb(255,217,194)" stroke="black"/>
  <text fill="rgb(9,33,173)" font-size="25" x="1469.0" y="153.0">lfsleeve</text>
</svg>
