<?xml version="1.0" encoding="utf-8" ?>
<svg xmlns="http://www.w3.org/2000/svg" xmlns:ev="http://www.w3.org/2001/xml-events" xmlns:xlink="http://www.w3.org/1999/xlink" baseProfile="full" height="231.0px" version="1.1" width="1624.0px">
  <defs/>
  <path d="M 60 135 L 108 135 Q 126.0 84.00000000000001 96 69 L 60 60 L 60 135 z" fill="rgb(255,217,194)" stroke="black"/>
  <text fill="rgb(9,33,173)" font-size="25" x="56.0" y="102.75">rbsleeve</text>
  <path d="M 196.0 135.0 L 232.0 126.0 Q 262.0 111.0 244.0 60.0 L 196.0 60.0 L 196.0 135.0 z" fill="rgb(255,217,194)" stroke="black"/>
  <text fill="rgb(9,33,173)" font-size="25" x="192.0" y="98.25">rfsleeve</text>
  <path d="M 332.0 159.0 L 656.0 159.0 L 557.0 126.0 Q 527.9 109.8 548.0 60.0 L 524.0 60.0 L 494.0 69.0 L 464.0 60.0 L 440.0 60.0 Q 460.09999999999997 109.79999999999998 431.0 126.0 L 332.0 159.0 z" fill="rgb(255,217,194)" stroke="black"/>
  <text fill="rgb(9,33,173)" font-size="25" x="469.0" y="100.66666666666667">back</text>
  <path d="M 716.0 159.0 L 1040.0 159.0 L 941.0 126.0 Q 911.9 109.8 932.0 60.0 L 908.0 60.0 L 878.0 63.0 L 848.0 60.0 L 824.0 60.0 Q 844.1 109.79999999999998 815.0 126.0 L 716.0 159.0 z" fill="rgb(255,217,194)" stroke="black"/>
  <text fill="rgb(9,33,173)" font-size="25" x="853.0" y="100.0">front</text>
  <path d="M 1100.0 171.0 L 1124.0 168.0 Q 1201.3999999999999 160.79999999999998 1166.0 60.0 L 1136.0 69.0 L 1103.0 60.0 L 1100.0 171.0 z" fill="rgb(255,217,194)" stroke="black"/>
  <text fill="rgb(9,33,173)" font-size="25" x="1100.8" y="108.6">Rhood</text>
  <path d="M 1229.0 171.0 L 1262.0 162.0 L 1292.0 171.0 Q 1327.3999999999999 70.2 1250.0 63.0 L 1226.0 60.0 L 1229.0 171.0 z" fill="rgb(255,217,194)" stroke="black"/>
  <text fill="rgb(9,33,173)" font-size="25" x="1226.8" y="128.4">Lhood</text>
  <path d="M 1352.0 135.0 L 1388.0 126.0 Q 1418.0 111.0 1400.0 60.0 L 1352.0 60.0 L 1352.0 135.0 z" fill="rgb(255,217,194)" stroke="black"/>
  <text fill="rgb(9,33,173)" font-size="25" x="1348.0" y="98.25">lbsleeve</text>
  <path d="M 1488.0 135.0 L 1536.0 135.0 Q 1554.0 84.00000000000001 1524.0 69.0 L 1488.0 60.0 L 1488.0 135.0 z" fill="rgb(255,217,194)" stroke="black"/>
  <text fill="rgb(9,33,173)" font-size="25" x="1484.0" y="102.75">lfsleeve</text>
</svg>
