<?xml version="1.0" encoding="utf-8" ?>
<svg xmlns="http://www.w3.org/2000/svg" xmlns:ev="http://www.w3.org/2001/xml-events" xmlns:xlink="http://www.w3.org/1999/xlink" baseProfile="full" height="291.0px" version="1.1" width="1828.0px">
  <defs/>
  <path d="M 60 153 L 120 153 Q 148.8 83.10000000000001 108 60 L 60 72 L 60 153 z" fill="rgb(255,217,194)" stroke="black"/>
  <text fill="rgb(9,33,173)" font-size="25" x="62.0" y="112.5">rbsleeve</text>
  <path d="M 202.0 141.0 L 250.0 153.0 Q 290.8 129.9 262.0 60.0 L 202.0 60.0 L 202.0 141.0 z" fill="rgb(255,217,194)" stroke="black"/>
  <text fill="rgb(9,33,173)" font-size="25" x="204.0" y="106.5">rfsleeve</text>
  <path d="M 344.0 231.0 Q 515.0 361.48806293430755 686.0 231.0 L 587.0 102.0 L 584.0 60.0 L 446.0 60.0 L 443.0 102.0 L 344.0 231.0 z" fill="rgb(255,217,194)" stroke="black"/>
  <text fill="rgb(9,33,173)" font-size="25" x="490.0" y="134.0">skirt_back</text>
  <path d="M 746.0 231.0 Q 917.0 399.52035120726634 1088.0 231.0 L 989.0 102.0 L 986.0 60.0 L 848.0 60.0 L 845.0 102.0 L 746.0 231.0 z" fill="rgb(255,217,194)" stroke="black"/>
  <text fill="rgb(9,33,173)" font-size="25" x="892.0" y="134.0">skirt_front</text>
  <path d="M 1148.0 168.0 L 1286.0 168.0 L 1283.0 150.0 Q 1243.4 127.8 1271.0 60.0 L 1232.0 60.0 Q 1217.0 121.55276576767835 1202.0 60.0 L 1163.0 60.0 Q 1190.6 127.8 1151.0 150.0 L 1148.0 168.0 z" fill="rgb(255,217,194)" stroke="black"/>
  <text fill="rgb(9,33,173)" font-size="25" x="1192.0" y="112.5">top_back</text>
  <path d="M 1346.0 165.0 L 1484.0 165.0 L 1481.0 150.0 Q 1441.4 127.8 1469.0 60.0 L 1430.0 60.0 L 1415.0 123.0 L 1400.0 60.0 L 1361.0 60.0 Q 1388.6 127.8 1349.0 150.0 L 1346.0 165.0 z" fill="rgb(255,217,194)" stroke="black"/>
  <text fill="rgb(9,33,173)" font-size="25" x="1390.0" y="113.33333333333333">top_front</text>
  <path d="M 1544.0 141.0 L 1592.0 153.0 Q 1632.8 129.9 1604.0 60.0 L 1544.0 60.0 L 1544.0 141.0 z" fill="rgb(255,217,194)" stroke="black"/>
  <text fill="rgb(9,33,173)" font-size="25" x="1546.0" y="106.5">lbsleeve</text>
  <path d="M 1686.0 153.0 L 1746.0 153.0 Q 1774.8 83.10000000000001 1734.0 60.0 L 1686.0 72.0 L 1686.0 153.0 z" fill="rgb(255,217,194)" stroke="black"/>
  <text fill="rgb(9,33,173)" font-size="25" x="1688.0" y="112.5">lfsleeve</text>
</svg>
