<?xml version="1.0" encoding="utf-8" ?>
<svg xmlns="http://www.w3.org/2000/svg" xmlns:ev="http://www.w3.org/2001/xml-events" xmlns:xlink="http://www.w3.org/1999/xlink" baseProfile="full" height="327.0px" version="1.1" width="1474.0px">
  <defs/>
  <path d="M 60 129 L 90 129 Q 109.19999999999999 75.9 78 60 L 60 60 L 60 129 z" fill="rgb(255,217,194)" stroke="black"/>
  <text fill="rgb(9,33,173)" font-size="25" x="47.0" y="97.5">rbsleeve</text>
  <path d="M 187.0 129.0 L 205.0 129.0 Q 236.2 113.1 217.0 60.0 L 187.0 60.0 L 187.0 129.0 z" fill="rgb(255,217,194)" stroke="black"/>
  <text fill="rgb(9,33,173)" font-size="25" x="174.0" y="97.5">rfsleeve</text>
  <path d="M 314.0 267.0 L 488.0 267.0 L 488.0 126.0 L 464.0 60.0 L 428.0 60.0 Q 447.20000000000005 113.1 416.0 129.0 L 314.0 267.0 z" fill="rgb(255,217,194)" stroke="black"/>
  <text fill="rgb(9,33,173)" font-size="25" x="408.0" y="154.5">front_right</text>
  <path d="M 578.0 267.0 L 926.0 267.0 L 824.0 129.0 Q 792.8 113.1 812.0 60.0 L 776.0 60.0 Q 752.0 223.5156689918158 728.0 60.0 L 692.0 60.0 Q 711.2 113.1 680.0 129.0 L 578.0 267.0 z" fill="rgb(255,217,194)" stroke="black"/>
  <text fill="rgb(9,33,173)" font-size="25" x="727.0" y="132.0">back</text>
  <path d="M 986.0 267.0 L 1160.0 267.0 L 1058.0 129.0 Q 1026.8000000000002 113.1 1046.0 60.0 L 1010.0 60.0 L 986.0 126.0 L 986.0 267.0 z" fill="rgb(255,217,194)" stroke="black"/>
  <text fill="rgb(9,33,173)" font-size="25" x="1016.0" y="154.5">front_left</text>
  <path d="M 1220.0 129.0 L 1238.0 129.0 Q 1269.1999999999998 113.1 1250.0 60.0 L 1220.0 60.0 L 1220.0 129.0 z" fill="rgb(255,217,194)" stroke="black"/>
  <text fill="rgb(9,33,173)" font-size="25" x="1207.0" y="97.5">lbsleeve</text>
  <path d="M 1347.0 129.0 L 1377.0 129.0 Q 1396.1999999999998 75.9 1365.0 60.0 L 1347.0 60.0 L 1347.0 129.0 z" fill="rgb(255,217,194)" stroke="black"/>
  <text fill="rgb(9,33,173)" font-size="25" x="1334.0" y="97.5">lfsleeve</text>
</svg>
