<?xml version="1.0" encoding="utf-8" ?>
<svg xmlns="http://www.w3.org/2000/svg" xmlns:ev="http://www.w3.org/2001/xml-events" xmlns:xlink="http://www.w3.org/1999/xlink" baseProfile="full" height="297.0px" version="1.1" width="1498.0px">
  <defs/>
  <path d="M 60 141 L 105 141 Q 115.8 102.60000000000001 93 93 L 60 60 L 60 141 z" fill="rgb(255,217,194)" stroke="black"/>
  <text fill="rgb(9,33,173)" font-size="25" x="54.5" y="111.75">rbsleeve</text>
  <path d="M 194.5 141.0 L 227.5 108.0 Q 250.3 98.39999999999999 239.5 60.0 L 194.5 60.0 L 194.5 141.0 z" fill="rgb(255,217,194)" stroke="black"/>
  <text fill="rgb(9,33,173)" font-size="25" x="189.0" y="95.25">rfsleeve</text>
  <path d="M 329.0 237.0 Q 422.0 182.1610588005388 515.0 237.0 L 497.0 102.0 L 485.0 60.0 L 359.0 60.0 L 347.0 102.0 L 329.0 237.0 z" fill="rgb(255,217,194)" stroke="black"/>
  <text fill="rgb(9,33,173)" font-size="25" x="397.0" y="136.0">skirt_back</text>
  <path d="M 575.0 237.0 Q 668.0 231.8849152875849 761.0 237.0 L 743.0 102.0 L 731.0 60.0 L 605.0 60.0 L 593.0 102.0 L 575.0 237.0 z" fill="rgb(255,217,194)" stroke="black"/>
  <text fill="rgb(9,33,173)" font-size="25" x="643.0" y="136.0">skirt_front</text>
  <path d="M 830.0 168.0 L 956.0 168.0 L 965.0 111.0 Q 941.9 99.3 956.0 60.0 L 911.0 60.0 Q 893.0 85.67140061204695 875.0 60.0 L 830.0 60.0 Q 844.1 99.29999999999998 821.0 111.0 L 830.0 168.0 z" fill="rgb(255,217,194)" stroke="black"/>
  <text fill="rgb(9,33,173)" font-size="25" x="868.0" y="102.75">top_back</text>
  <path d="M 1034.0 165.0 L 1160.0 165.0 L 1169.0 111.0 Q 1145.8999999999999 99.3 1160.0 60.0 L 1115.0 60.0 L 1097.0 123.0 L 1079.0 60.0 L 1034.0 60.0 Q 1048.1000000000001 99.29999999999998 1025.0 111.0 L 1034.0 165.0 z" fill="rgb(255,217,194)" stroke="black"/>
  <text fill="rgb(9,33,173)" font-size="25" x="1072.0" y="104.66666666666667">top_front</text>
  <path d="M 1229.0 141.0 L 1262.0 108.0 Q 1284.8 98.39999999999999 1274.0 60.0 L 1229.0 60.0 L 1229.0 141.0 z" fill="rgb(255,217,194)" stroke="black"/>
  <text fill="rgb(9,33,173)" font-size="25" x="1223.5" y="95.25">lbsleeve</text>
  <path d="M 1363.5 141.0 L 1408.5 141.0 Q 1419.3 102.60000000000001 1396.5 93.0 L 1363.5 60.0 L 1363.5 141.0 z" fill="rgb(255,217,194)" stroke="black"/>
  <text fill="rgb(9,33,173)" font-size="25" x="1358.0" y="111.75">lfsleeve</text>
</svg>
