<?xml version="1.0" encoding="utf-8" ?>
<svg xmlns="http://www.w3.org/2000/svg" xmlns:ev="http://www.w3.org/2001/xml-events" xmlns:xlink="http://www.w3.org/1999/xlink" baseProfile="full" height="393.0px" version="1.1" width="1564.0px">
  <defs/>
  <path d="M 60 219 L 84 219 Q 104.39999999999999 163.79999999999998 72 147 L 60 60 L 60 219 z" fill="rgb(255,217,194)" stroke="black"/>
  <text fill="rgb(9,33,173)" font-size="25" x="44.0" y="164.25">rbsleeve</text>
  <path d="M 184.0 219.0 L 196.0 132.0 Q 228.4 115.2 208.0 60.0 L 184.0 60.0 L 184.0 219.0 z" fill="rgb(255,217,194)" stroke="black"/>
  <text fill="rgb(9,33,173)" font-size="25" x="168.0" y="120.75">rfsleeve</text>
  <path d="M 308.0 333.0 L 401.0 333.0 Q 412.09999999999997 100.80000000000001 398.0 60.0 L 338.0 60.0 Q 352.7 141.75 308.0 153.0 Q 326.0 162.0 308.0 333.0 z" fill="rgb(255,217,194)" stroke="black"/>
  <text fill="rgb(9,33,173)" font-size="25" x="325.6" y="190.8">Rback</text>
  <path d="M 461.0 333.0 L 554.0 333.0 Q 536.0 162.0 554.0 153.0 Q 513.95 140.25 524.0 60.0 L 464.0 60.0 Q 449.90000000000003 100.79999999999998 461.0 333.0 z" fill="rgb(255,217,194)" stroke="black"/>
  <text fill="rgb(9,33,173)" font-size="25" x="486.4" y="190.8">Rfront</text>
  <path d="M 623.0 168.0 L 683.0 168.0 L 743.0 168.0 L 752.0 132.0 Q 720.5 114.0 743.0 60.0 L 716.0 60.0 Q 683.0 68.81845439123846 650.0 60.0 L 623.0 60.0 Q 645.5 114.0 614.0 132.0 L 623.0 168.0 z" fill="rgb(255,217,194)" stroke="black"/>
  <text fill="rgb(9,33,173)" font-size="25" x="658.0" y="115.0">up_back</text>
  <path d="M 821.0 165.0 L 881.0 165.0 L 941.0 165.0 L 950.0 129.0 Q 919.6999999999999 111.89999999999999 941.0 60.0 L 914.0 60.0 L 881.0 141.0 L 848.0 60.0 L 821.0 60.0 Q 842.3000000000001 111.89999999999999 812.0 129.0 L 821.0 165.0 z" fill="rgb(255,217,194)" stroke="black"/>
  <text fill="rgb(9,33,173)" font-size="25" x="856.0" y="116.4">up_front</text>
  <path d="M 1010.0 333.0 L 1103.0 333.0 Q 1085.0 162.0 1103.0 153.0 Q 1058.3 141.75 1073.0 60.0 L 1013.0 60.0 Q 998.9 100.79999999999998 1010.0 333.0 z" fill="rgb(255,217,194)" stroke="black"/>
  <text fill="rgb(9,33,173)" font-size="25" x="1035.4" y="190.8">Lback</text>
  <path d="M 1163.0 333.0 L 1256.0 333.0 Q 1267.1000000000001 100.80000000000001 1253.0 60.0 L 1193.0 60.0 Q 1203.05 140.25 1163.0 153.0 Q 1181.0 162.0 1163.0 333.0 z" fill="rgb(255,217,194)" stroke="black"/>
  <text fill="rgb(9,33,173)" font-size="25" x="1180.6" y="190.8">Lfront</text>
  <path d="M 1316.0 219.0 L 1328.0 132.0 Q 1360.3999999999999 115.2 1340.0 60.0 L 1316.0 60.0 L 1316.0 219.0 z" fill="rgb(255,217,194)" stroke="black"/>
  <text fill="rgb(9,33,173)" font-size="25" x="1300.0" y="120.75">lbsleeve</text>
  <path d="M 1440.0 219.0 L 1464.0 219.0 Q 1484.3999999999999 163.79999999999998 1452.0 147.0 L 1440.0 60.0 L 1440.0 219.0 z" fill="rgb(255,217,194)" stroke="black"/>
  <text fill="rgb(9,33,173)" font-size="25" x="1424.0" y="164.25">lfsleeve</text>
</svg>
