<?xml version="1.0" encoding="utf-8" ?>
<svg xmlns="http://www.w3.org/2000/svg" xmlns:ev="http://www.w3.org/2001/xml-events" xmlns:xlink="http://www.w3.org/1999/xlink" baseProfile="full" height="324px" version="1.1" width="1152px">
  <defs/>
  <path d="M 60 264 L 165 264 Q 165.0 90.0 153 60 L 90 60 Q 104.7 141.75 60 153 Q 71.1 158.55 60 264 z" fill="rgb(255,217,194)" stroke="black"/>
  <text fill="rgb(9,33,173)" font-size="25" x="80.6" y="163.2">Rback</text>
  <path d="M 225 264 L 330 264 Q 318.9 158.55 330 153 Q 289.95 140.25 300 60 L 237 60 Q 225.0 90.0 225 264 z" fill="rgb(255,217,194)" stroke="black"/>
  <text fill="rgb(9,33,173)" font-size="25" x="259.4" y="163.2">Rfront</text>
  <path d="M 405 168 L 468 168 L 531 168 L 546 132 Q 513.6 115.2 534 60 L 504 60 Q 468.0 103.67094286798135 432 60 L 402 60 Q 422.40000000000003 115.2 390 132 L 405 168 z" fill="rgb(255,217,194)" stroke="black"/>
  <text fill="rgb(9,33,173)" font-size="25" x="443.0" y="115.0">up_back</text>
  <path d="M 621 165 L 684 165 L 747 165 L 762 132 Q 729.6 115.2 750 60 L 720 60 L 684 123 L 648 60 L 618 60 Q 638.4 115.2 606 132 L 621 165 z" fill="rgb(255,217,194)" stroke="black"/>
  <text fill="rgb(9,33,173)" font-size="25" x="659.0" y="115.2">up_front</text>
  <path d="M 822 264 L 927 264 Q 915.9 158.55 927 153 Q 882.3 141.75 897 60 L 834 60 Q 822.0 90.0 822 264 z" fill="rgb(255,217,194)" stroke="black"/>
  <text fill="rgb(9,33,173)" font-size="25" x="856.4" y="163.2">Lback</text>
  <path d="M 987 264 L 1092 264 Q 1092.0 90.0 1080 60 L 1017 60 Q 1027.05 140.25 987 153 Q 998.1 158.55 987 264 z" fill="rgb(255,217,194)" stroke="black"/>
  <text fill="rgb(9,33,173)" font-size="25" x="1007.5999999999999" y="163.2">Lfront</text>
</svg>
