<?xml version="1.0" encoding="utf-8" ?>
<svg xmlns="http://www.w3.org/2000/svg" xmlns:ev="http://www.w3.org/2001/xml-events" xmlns:xlink="http://www.w3.org/1999/xlink" baseProfile="full" height="216.0px" version="1.1" width="1474.0px">
  <defs/>
  <path d="M 60 129 L 135 129 Q 142.2 96.9 123 90 L 60 60 L 60 129 z" fill="rgb(255,217,194)" stroke="black"/>
  <text fill="rgb(9,33,173)" font-size="25" x="69.5" y="105.0">rbsleeve</text>
  <path d="M 209.5 129.0 L 272.5 99.0 Q 291.70000000000005 92.1 284.5 60.0 L 209.5 60.0 L 209.5 129.0 z" fill="rgb(255,217,194)" stroke="black"/>
  <text fill="rgb(9,33,173)" font-size="25" x="219.0" y="90.0">rfsleeve</text>
  <path d="M 359.0 156.0 L 575.0 156.0 L 539.0 102.0 Q 518.6 94.2 527.0 60.0 L 503.0 60.0 L 467.0 69.0 L 431.0 60.0 L 407.0 60.0 Q 415.40000000000003 94.2 395.0 102.0 L 359.0 156.0 z" fill="rgb(255,217,194)" stroke="black"/>
  <text fill="rgb(9,33,173)" font-size="25" x="442.0" y="94.66666666666667">back</text>
  <path d="M 635.0 156.0 L 851.0 156.0 L 815.0 102.0 Q 794.6 94.2 803.0 60.0 L 779.0 60.0 L 743.0 60.0 L 707.0 60.0 L 683.0 60.0 Q 691.4 94.2 671.0 102.0 L 635.0 156.0 z" fill="rgb(255,217,194)" stroke="black"/>
  <text fill="rgb(9,33,173)" font-size="25" x="718.0" y="93.66666666666667">front</text>
  <path d="M 914.0 147.0 L 929.0 150.0 Q 999.2 155.4 983.0 60.0 L 950.0 69.0 L 911.0 60.0 L 914.0 147.0 z" fill="rgb(255,217,194)" stroke="black"/>
  <text fill="rgb(9,33,173)" font-size="25" x="912.4" y="100.2">Rhood</text>
  <path d="M 1043.0 150.0 L 1082.0 141.0 L 1115.0 150.0 Q 1131.2 54.6 1061.0 60.0 L 1046.0 63.0 L 1043.0 150.0 z" fill="rgb(255,217,194)" stroke="black"/>
  <text fill="rgb(9,33,173)" font-size="25" x="1044.4" y="115.8">Lhood</text>
  <path d="M 1175.0 129.0 L 1238.0 99.0 Q 1257.1999999999998 92.1 1250.0 60.0 L 1175.0 60.0 L 1175.0 129.0 z" fill="rgb(255,217,194)" stroke="black"/>
  <text fill="rgb(9,33,173)" font-size="25" x="1184.5" y="90.0">lbsleeve</text>
  <path d="M 1324.5 129.0 L 1399.5 129.0 Q 1406.6999999999998 96.9 1387.5 90.0 L 1324.5 60.0 L 1324.5 129.0 z" fill="rgb(255,217,194)" stroke="black"/>
  <text fill="rgb(9,33,173)" font-size="25" x="1334.0" y="105.0">lfsleeve</text>
</svg>
