<?xml version="1.0" encoding="utf-8" ?>
<svg xmlns="http://www.w3.org/2000/svg" xmlns:ev="http://www.w3.org/2001/xml-events" xmlns:xlink="http://www.w3.org/1999/xlink" baseProfile="full" height="252px" version="1.1" width="1258.0px">
  <defs/>
  <path d="M 60 192 L 240 192 L 240 60 L 60 60 L 60 192 z" fill="rgb(255,217,194)" stroke="black"/>
  <text fill="rgb(9,33,173)" font-size="25" x="125.0" y="129.0">skirt_back</text>
  <path d="M 300 72 L 390 72 L 390 60 L 300 60 L 300 72 z" fill="rgb(255,217,194)" stroke="black"/>
  <text fill="rgb(9,33,173)" font-size="25" x="320.0" y="69.0">wb_back</text>
  <path d="M 450 72 L 540 72 L 540 60 L 450 60 L 450 72 z" fill="rgb(255,217,194)" stroke="black"/>
  <text fill="rgb(9,33,173)" font-size="25" x="470.0" y="69.0">wb_front</text>
  <path d="M 610.0 192.0 L 790.0 192.0 L 790.0 60.0 L 610.0 60.0 L 610.0 192.0 z" fill="rgb(255,217,194)" stroke="black"/>
  <text fill="rgb(9,33,173)" font-size="25" x="675.0" y="129.0">skirt_front</text>
  <path d="M 850.0 162.0 L 994.0 162.0 L 994.0 111.0 Q 970.0 100.5 982.0 60.0 L 937.0 60.0 Q 922.0 88.87209352097037 907.0 60.0 L 862.0 60.0 Q 874.0 100.49999999999999 850.0 111.0 L 850.0 162.0 z" fill="rgb(255,217,194)" stroke="black"/>
  <text fill="rgb(9,33,173)" font-size="25" x="897.0" y="101.25">top_back</text>
  <path d="M 1054.0 162.0 L 1198.0 162.0 L 1198.0 111.0 Q 1174.0 100.5 1186.0 60.0 L 1141.0 60.0 L 1126.0 111.0 L 1111.0 60.0 L 1066.0 60.0 Q 1078.0 100.49999999999999 1054.0 111.0 L 1054.0 162.0 z" fill="rgb(255,217,194)" stroke="black"/>
  <text fill="rgb(9,33,173)" font-size="25" x="1101.0" y="102.66666666666667">top_front</text>
</svg>
