<?xml version="1.0" encoding="utf-8" ?>
<svg xmlns="http://www.w3.org/2000/svg" xmlns:ev="http://www.w3.org/2001/xml-events" xmlns:xlink="http://www.w3.org/1999/xlink" baseProfile="full" height="522.0px" version="1.1" width="1624.0px">
  <defs/>
  <path d="M 60 129 L 123 129 Q 135.0 88.50000000000001 111 78 L 60 60 L 60 129 z" fill="rgb(255,217,194)" stroke="black"/>
  <text fill="rgb(9,33,173)" font-size="25" x="63.5" y="102.0">rbsleeve</text>
  <path d="M 203.5 129.0 L 254.5 111.0 Q 278.5 100.5 266.5 60.0 L 203.5 60.0 L 203.5 129.0 z" fill="rgb(255,217,194)" stroke="black"/>
  <text fill="rgb(9,33,173)" font-size="25" x="207.0" y="93.0">rfsleeve</text>
  <path d="M 347.0 462.0 L 647.0 462.0 L 575.0 111.0 Q 551.0 100.5 563.0 60.0 L 536.0 60.0 L 497.0 69.0 L 458.0 60.0 L 431.0 60.0 Q 443.0 100.49999999999999 419.0 111.0 L 347.0 462.0 z" fill="rgb(255,217,194)" stroke="black"/>
  <text fill="rgb(9,33,173)" font-size="25" x="472.0" y="164.66666666666666">back</text>
  <path d="M 707.0 462.0 L 1007.0 462.0 L 935.0 111.0 Q 911.0 100.5 923.0 60.0 L 896.0 60.0 L 857.0 87.0 L 818.0 60.0 L 791.0 60.0 Q 803.0 100.49999999999999 779.0 111.0 L 707.0 462.0 z" fill="rgb(255,217,194)" stroke="black"/>
  <text fill="rgb(9,33,173)" font-size="25" x="832.0" y="166.66666666666666">front</text>
  <path d="M 1070.0 162.0 L 1133.0 168.0 Q 1187.9 147.3 1142.0 81.0 L 1106.0 90.0 L 1067.0 60.0 L 1070.0 162.0 z" fill="rgb(255,217,194)" stroke="black"/>
  <text fill="rgb(9,33,173)" font-size="25" x="1078.6" y="115.2">Rhood</text>
  <path d="M 1202.0 168.0 L 1241.0 138.0 L 1277.0 147.0 Q 1322.9 80.69999999999999 1268.0 60.0 L 1205.0 66.0 L 1202.0 168.0 z" fill="rgb(255,217,194)" stroke="black"/>
  <text fill="rgb(9,33,173)" font-size="25" x="1213.6" y="118.8">Lhood</text>
  <path d="M 1337.0 129.0 L 1388.0 111.0 Q 1412.0 100.5 1400.0 60.0 L 1337.0 60.0 L 1337.0 129.0 z" fill="rgb(255,217,194)" stroke="black"/>
  <text fill="rgb(9,33,173)" font-size="25" x="1340.5" y="93.0">lbsleeve</text>
  <path d="M 1480.5 129.0 L 1543.5 129.0 Q 1555.5 88.50000000000001 1531.5 78.0 L 1480.5 60.0 L 1480.5 129.0 z" fill="rgb(255,217,194)" stroke="black"/>
  <text fill="rgb(9,33,173)" font-size="25" x="1484.0" y="102.0">lfsleeve</text>
</svg>
