<?xml version="1.0" encoding="utf-8" ?>
<svg xmlns="http://www.w3.org/2000/svg" xmlns:ev="http://www.w3.org/2001/xml-events" xmlns:xlink="http://www.w3.org/1999/xlink" baseProfile="full" height="294.0px" version="1.1" width="1517.0px">
  <defs/>
  <path d="M 60 171 L 141 171 Q 179.1 89.70000000000002 132 60 L 60 102 L 60 171 z" fill="rgb(255,217,194)" stroke="black"/>
  <text fill="rgb(9,33,173)" font-size="25" x="73.25" y="129.0">rbsleeve</text>
  <path d="M 213.25 129.0 L 285.25 171.0 Q 332.35 141.29999999999998 294.25 60.0 L 213.25 60.0 L 213.25 129.0 z" fill="rgb(255,217,194)" stroke="black"/>
  <text fill="rgb(9,33,173)" font-size="25" x="226.5" y="108.0">rfsleeve</text>
  <path d="M 366.5 234.0 L 456.5 234.0 L 456.5 63.0 L 438.5 60.0 L 408.5 60.0 Q 445.4 139.2 399.5 168.0 L 366.5 234.0 z" fill="rgb(255,217,194)" stroke="black"/>
  <text fill="rgb(9,33,173)" font-size="25" x="396.0" y="139.5">front_right</text>
  <path d="M 566.0 159.0 L 608.0 156.0 Q 670.1 136.2 623.0 60.0 L 602.0 69.0 L 581.0 66.0 L 566.0 159.0 z" fill="rgb(255,217,194)" stroke="black"/>
  <text fill="rgb(9,33,173)" font-size="25" x="571.0" y="105.0">Rhood</text>
  <path d="M 683.0 234.0 L 863.0 234.0 L 830.0 168.0 Q 784.0999999999999 139.2 821.0 60.0 L 791.0 60.0 L 773.0 69.0 L 755.0 60.0 L 725.0 60.0 Q 761.9000000000001 139.2 716.0 168.0 L 683.0 234.0 z" fill="rgb(255,217,194)" stroke="black"/>
  <text fill="rgb(9,33,173)" font-size="25" x="748.0" y="126.66666666666667">back</text>
  <path d="M 938.0 153.0 L 959.0 150.0 L 980.0 159.0 Q 1027.1 82.80000000000001 965.0 63.0 L 923.0 60.0 L 938.0 153.0 z" fill="rgb(255,217,194)" stroke="black"/>
  <text fill="rgb(9,33,173)" font-size="25" x="928.0" y="120.0">Lhood</text>
  <path d="M 1040.0 234.0 L 1130.0 234.0 L 1097.0 168.0 Q 1051.1 139.2 1088.0 60.0 L 1058.0 60.0 L 1040.0 63.0 L 1040.0 234.0 z" fill="rgb(255,217,194)" stroke="black"/>
  <text fill="rgb(9,33,173)" font-size="25" x="1050.5" y="139.5">front_left</text>
  <path d="M 1210.5 129.0 L 1282.5 171.0 Q 1329.6000000000001 141.29999999999998 1291.5 60.0 L 1210.5 60.0 L 1210.5 129.0 z" fill="rgb(255,217,194)" stroke="black"/>
  <text fill="rgb(9,33,173)" font-size="25" x="1223.75" y="108.0">lbsleeve</text>
  <path d="M 1363.75 171.0 L 1444.75 171.0 Q 1482.8500000000001 89.70000000000002 1435.75 60.0 L 1363.75 102.0 L 1363.75 171.0 z" fill="rgb(255,217,194)" stroke="black"/>
  <text fill="rgb(9,33,173)" font-size="25" x="1377.0" y="129.0">lfsleeve</text>
</svg>
