<?xml version="1.0" encoding="utf-8" ?>
<svg xmlns="http://www.w3.org/2000/svg" xmlns:ev="http://www.w3.org/2001/xml-events" xmlns:xlink="http://www.w3.org/1999/xlink" baseProfile="full" height="240.0px" version="1.1" width="1202.0px">
  <defs/>
  <path d="M 60 150 L 222 150 L 222 60 L 60 60 L 60 150 z" fill="rgb(255,217,194)" stroke="black"/>
  <text fill="rgb(9,33,173)" font-size="25" x="116.0" y="108.0">skirt_back</text>
  <path d="M 282 78 L 372 78 L 372 60 L 282 60 L 282 78 z" fill="rgb(255,217,194)" stroke="black"/>
  <text fill="rgb(9,33,173)" font-size="25" x="302.0" y="72.0">wb_back</text>
  <path d="M 432 78 L 522 78 L 522 60 L 432 60 L 432 78 z" fill="rgb(255,217,194)" stroke="black"/>
  <text fill="rgb(9,33,173)" font-size="25" x="452.0" y="72.0">wb_front</text>
  <path d="M 592.0 150.0 L 754.0 150.0 L 754.0 60.0 L 592.0 60.0 L 592.0 150.0 z" fill="rgb(255,217,194)" stroke="black"/>
  <text fill="rgb(9,33,173)" font-size="25" x="648.0" y="108.0">skirt_front</text>
  <path d="M 818.0 180.0 L 950.0 180.0 L 950.0 135.0 Q 917.3 116.1 941.0 60.0 L 902.0 60.0 Q 884.0 67.21683522455915 866.0 60.0 L 827.0 60.0 Q 850.7 116.1 818.0 135.0 L 818.0 180.0 z" fill="rgb(255,217,194)" stroke="black"/>
  <text fill="rgb(9,33,173)" font-size="25" x="859.0" y="111.75">top_back</text>
  <path d="M 1010.0 180.0 L 1142.0 180.0 L 1142.0 135.0 Q 1109.3 116.1 1133.0 60.0 L 1094.0 60.0 L 1076.0 69.0 L 1058.0 60.0 L 1019.0 60.0 Q 1042.7 116.1 1010.0 135.0 L 1010.0 180.0 z" fill="rgb(255,217,194)" stroke="black"/>
  <text fill="rgb(9,33,173)" font-size="25" x="1051.0" y="107.33333333333333">top_front</text>
</svg>
