<?xml version="1.0" encoding="utf-8" ?>
<svg xmlns="http://www.w3.org/2000/svg" xmlns:ev="http://www.w3.org/2001/xml-events" xmlns:xlink="http://www.w3.org/1999/xlink" baseProfile="full" height="297px" version="1.1" width="1172.5px">
  <defs/>
  <path d="M 60 237 L 225 237 L 225 96 L 201 60 L 168 60 Q 177.6 96.3 156 105 L 60 237 z" fill="rgb(255,217,194)" stroke="black"/>
  <text fill="rgb(9,33,173)" font-size="25" x="147.5" y="135.5">front_right</text>
  <path d="M 317.5 195.0 L 353.5 192.0 Q 423.7 174.9 377.5 87.0 L 353.5 96.0 L 326.5 60.0 L 317.5 195.0 z" fill="rgb(255,217,194)" stroke="black"/>
  <text fill="rgb(9,33,173)" font-size="25" x="320.7" y="129.0">Rhood</text>
  <path d="M 437.5 237.0 L 767.5 237.0 L 671.5 105.0 Q 649.9 96.3 659.5 60.0 L 626.5 60.0 L 602.5 69.0 L 578.5 60.0 L 545.5 60.0 Q 555.1 96.3 533.5 105.0 L 437.5 237.0 z" fill="rgb(255,217,194)" stroke="black"/>
  <text fill="rgb(9,33,173)" font-size="25" x="577.5" y="113.33333333333333">back</text>
  <path d="M 836.5 195.0 L 863.5 159.0 L 887.5 168.0 Q 933.7 80.1 863.5 63.0 L 827.5 60.0 L 836.5 195.0 z" fill="rgb(255,217,194)" stroke="black"/>
  <text fill="rgb(9,33,173)" font-size="25" x="830.7" y="132.0">Lhood</text>
  <path d="M 947.5 237.0 L 1112.5 237.0 L 1016.5 105.0 Q 994.9 96.3 1004.5 60.0 L 971.5 60.0 L 947.5 96.0 L 947.5 237.0 z" fill="rgb(255,217,194)" stroke="black"/>
  <text fill="rgb(9,33,173)" font-size="25" x="975.0" y="135.5">front_left</text>
</svg>
