<?xml version="1.0" encoding="utf-8" ?>
<svg xmlns="http://www.w3.org/2000/svg" xmlns:ev="http://www.w3.org/2001/xml-events" xmlns:xlink="http://www.w3.org/1999/xlink" baseProfile="full" height="351px" version="1.1" width="1164px">
  <defs/>
  <path d="M 60 291 L 171 291 Q 172.35000000000002 94.05000000000001 159 60 L 90 60 Q 104.7 141.75 60 153 Q 73.8 159.9 60 291 z" fill="rgb(255,217,194)" stroke="black"/>
  <text fill="rgb(9,33,173)" font-size="25" x="83.0" y="174.0">Rback</text>
  <path d="M 231 291 L 342 291 Q 328.2 159.9 342 153 Q 301.95 140.25 312 60 L 243 60 Q 229.64999999999998 94.05000000000001 231 291 z" fill="rgb(255,217,194)" stroke="black"/>
  <text fill="rgb(9,33,173)" font-size="25" x="269.0" y="174.0">Rfront</text>
  <path d="M 408 168 L 477 168 L 546 168 L 552 138 Q 517.1999999999999 119.39999999999999 540 60 L 513 60 Q 477.0 66.76940213999798 441 60 L 414 60 Q 436.8 119.39999999999999 402 138 L 408 168 z" fill="rgb(255,217,194)" stroke="black"/>
  <text fill="rgb(9,33,173)" font-size="25" x="452.0" y="116.33333333333333">up_back</text>
  <path d="M 618 165 L 687 165 L 756 165 L 762 138 Q 727.1999999999999 119.39999999999999 750 60 L 723 60 L 687 102 L 651 60 L 624 60 Q 646.8000000000001 119.39999999999999 612 138 L 618 165 z" fill="rgb(255,217,194)" stroke="black"/>
  <text fill="rgb(9,33,173)" font-size="25" x="662.0" y="114.3">up_front</text>
  <path d="M 822 291 L 933 291 Q 919.2 159.9 933 153 Q 888.3 141.75 903 60 L 834 60 Q 820.6500000000001 94.05000000000001 822 291 z" fill="rgb(255,217,194)" stroke="black"/>
  <text fill="rgb(9,33,173)" font-size="25" x="860.0" y="174.0">Lback</text>
  <path d="M 993 291 L 1104 291 Q 1105.35 94.05000000000001 1092 60 L 1023 60 Q 1033.05 140.25 993 153 Q 1006.8 159.9 993 291 z" fill="rgb(255,217,194)" stroke="black"/>
  <text fill="rgb(9,33,173)" font-size="25" x="1016.0" y="174.0">Lfront</text>
</svg>
