<?xml version="1.0" encoding="utf-8" ?>
<svg xmlns="http://www.w3.org/2000/svg" xmlns:ev="http://www.w3.org/2001/xml-events" xmlns:xlink="http://www.w3.org/1999/xlink" baseProfile="full" height="330.0px" version="1.1" width="1630.0px">
  <defs/>
  <path d="M 60 183 L 132 183 Q 166.8 102.60000000000001 120 75 L 60 60 L 60 183 z" fill="rgb(255,217,194)" stroke="black"/>
  <text fill="rgb(9,33,173)" font-size="25" x="68.0" y="128.25">rbsleeve</text>
  <path d="M 208.0 183.0 L 268.0 168.0 Q 314.8 140.4 280.0 60.0 L 208.0 60.0 L 208.0 183.0 z" fill="rgb(255,217,194)" stroke="black"/>
  <text fill="rgb(9,33,173)" font-size="25" x="216.0" y="120.75">rfsleeve</text>
  <path d="M 356.0 270.0 L 650.0 270.0 L 575.0 168.0 Q 528.1999999999999 140.4 563.0 60.0 L 539.0 60.0 L 503.0 69.0 L 467.0 60.0 L 443.0 60.0 Q 477.8 140.4 431.0 168.0 L 356.0 270.0 z" fill="rgb(255,217,194)" stroke="black"/>
  <text fill="rgb(9,33,173)" font-size="25" x="478.0" y="134.66666666666666">back</text>
  <path d="M 710.0 270.0 L 1004.0 270.0 L 929.0 165.0 Q 883.4 138.3 917.0 60.0 L 893.0 60.0 L 857.0 63.0 L 821.0 60.0 L 797.0 60.0 Q 830.6 138.3 785.0 165.0 L 710.0 270.0 z" fill="rgb(255,217,194)" stroke="black"/>
  <text fill="rgb(9,33,173)" font-size="25" x="832.0" y="133.33333333333334">front</text>
  <path d="M 1067.0 150.0 L 1103.0 153.0 Q 1167.8 147.6 1139.0 63.0 L 1103.0 72.0 L 1064.0 60.0 L 1067.0 150.0 z" fill="rgb(255,217,194)" stroke="black"/>
  <text fill="rgb(9,33,173)" font-size="25" x="1070.2" y="102.6">Rhood</text>
  <path d="M 1199.0 153.0 L 1238.0 141.0 L 1274.0 150.0 Q 1302.8 65.4 1238.0 60.0 L 1202.0 63.0 L 1199.0 153.0 z" fill="rgb(255,217,194)" stroke="black"/>
  <text fill="rgb(9,33,173)" font-size="25" x="1205.2" y="116.4">Lhood</text>
  <path d="M 1334.0 183.0 L 1394.0 168.0 Q 1440.8 140.4 1406.0 60.0 L 1334.0 60.0 L 1334.0 183.0 z" fill="rgb(255,217,194)" stroke="black"/>
  <text fill="rgb(9,33,173)" font-size="25" x="1342.0" y="120.75">lbsleeve</text>
  <path d="M 1482.0 183.0 L 1554.0 183.0 Q 1588.8 102.60000000000001 1542.0 75.0 L 1482.0 60.0 L 1482.0 183.0 z" fill="rgb(255,217,194)" stroke="black"/>
  <text fill="rgb(9,33,173)" font-size="25" x="1490.0" y="128.25">lfsleeve</text>
</svg>
