<?xml version="1.0" encoding="utf-8" ?>
<svg xmlns="http://www.w3.org/2000/svg" xmlns:ev="http://www.w3.org/2001/xml-events" xmlns:xlink="http://www.w3.org/1999/xlink" baseProfile="full" height="303px" version="1.1" width="1570.0px">
  <defs/>
  <path d="M 60 243 L 390 243 L 390 60 L 60 60 L 60 243 z" fill="rgb(255,217,194)" stroke="black"/>
  <text fill="rgb(9,33,173)" font-size="25" x="200.0" y="154.5">skirt_back</text>
  <path d="M 450 69 L 540 69 L 540 60 L 450 60 L 450 69 z" fill="rgb(255,217,194)" stroke="black"/>
  <text fill="rgb(9,33,173)" font-size="25" x="470.0" y="67.5">wb_back</text>
  <path d="M 600 69 L 690 69 L 690 60 L 600 60 L 600 69 z" fill="rgb(255,217,194)" stroke="black"/>
  <text fill="rgb(9,33,173)" font-size="25" x="620.0" y="67.5">wb_front</text>
  <path d="M 760.0 243.0 L 1090.0 243.0 L 1090.0 60.0 L 760.0 60.0 L 760.0 243.0 z" fill="rgb(255,217,194)" stroke="black"/>
  <text fill="rgb(9,33,173)" font-size="25" x="900.0" y="154.5">skirt_front</text>
  <path d="M 1150.0 174.0 L 1300.0 174.0 L 1300.0 147.0 Q 1261.6000000000001 125.7 1288.0 60.0 L 1255.0 60.0 Q 1225.0 123.52097414949105 1195.0 60.0 L 1162.0 60.0 Q 1188.3999999999999 125.7 1150.0 147.0 L 1150.0 174.0 z" fill="rgb(255,217,194)" stroke="black"/>
  <text fill="rgb(9,33,173)" font-size="25" x="1200.0" y="113.25">top_back</text>
  <path d="M 1360.0 174.0 L 1510.0 174.0 L 1510.0 147.0 Q 1471.6000000000001 125.7 1498.0 60.0 L 1465.0 60.0 L 1435.0 114.0 L 1405.0 60.0 L 1372.0 60.0 Q 1398.3999999999999 125.7 1360.0 147.0 L 1360.0 174.0 z" fill="rgb(255,217,194)" stroke="black"/>
  <text fill="rgb(9,33,173)" font-size="25" x="1410.0" y="113.66666666666667">top_front</text>
</svg>
