<?xml version="1.0" encoding="utf-8" ?>
<svg xmlns="http://www.w3.org/2000/svg" xmlns:ev="http://www.w3.org/2001/xml-events" xmlns:xlink="http://www.w3.org/1999/xlink" baseProfile="full" height="414px" version="1.1" width="1332px">
  <defs/>
  <path d="M 60 156 L 174 156 Q 187.2 113.4 162 102 L 60 60 L 60 156 z" fill="rgb(255,217,194)" stroke="black"/>
  <text fill="rgb(9,33,173)" font-size="25" x="89.0" y="121.5">rbsleeve</text>
  <path d="M 234 156 L 336 114 Q 361.20000000000005 102.6 348 60 L 234 60 L 234 156 z" fill="rgb(255,217,194)" stroke="black"/>
  <text fill="rgb(9,33,173)" font-size="25" x="263.0" y="100.5">rfsleeve</text>
  <path d="M 408 354 L 636 354 L 585 117 Q 559.5 103.5 576 60 L 555 60 Q 522.0 235.83914534299518 489 60 L 468 60 Q 484.5 103.5 459 117 L 408 354 z" fill="rgb(255,217,194)" stroke="black"/>
  <text fill="rgb(9,33,173)" font-size="25" x="497.0" y="150.75">back</text>
  <path d="M 696 354 L 924 354 L 873 114 Q 848.6999999999999 101.39999999999999 864 60 L 843 60 L 810 114 L 777 60 L 756 60 Q 771.3000000000001 101.39999999999999 747 114 L 696 354 z" fill="rgb(255,217,194)" stroke="black"/>
  <text fill="rgb(9,33,173)" font-size="25" x="785.0" y="146.33333333333334">front</text>
  <path d="M 984 156 L 1086 114 Q 1111.1999999999998 102.6 1098 60 L 984 60 L 984 156 z" fill="rgb(255,217,194)" stroke="black"/>
  <text fill="rgb(9,33,173)" font-size="25" x="1013.0" y="100.5">lbsleeve</text>
  <path d="M 1158 156 L 1272 156 Q 1285.1999999999998 113.4 1260 102 L 1158 60 L 1158 156 z" fill="rgb(255,217,194)" stroke="black"/>
  <text fill="rgb(9,33,173)" font-size="25" x="1187.0" y="121.5">lfsleeve</text>
</svg>
