<?xml version="1.0" encoding="utf-8" ?>
<svg xmlns="http://www.w3.org/2000/svg" xmlns:ev="http://www.w3.org/2001/xml-events" xmlns:xlink="http://www.w3.org/1999/xlink" baseProfile="full" height="324px" version="1.1" width="1824px">
  <defs/>
  <path d="M 60 159 L 174 159 Q 185.1 115.2 159 105 L 60 60 L 60 159 z" fill="rgb(255,217,194)" stroke="black"/>
  <text fill="rgb(9,33,173)" font-size="25" x="88.25" y="123.75">rbsleeve</text>
  <path d="M 234 159 L 333 114 Q 359.1 103.8 348 60 L 234 60 L 234 159 z" fill="rgb(255,217,194)" stroke="black"/>
  <text fill="rgb(9,33,173)" font-size="25" x="262.25" y="101.25">rfsleeve</text>
  <path d="M 408 264 Q 522.0 314.43139065616185 636 264 L 597 102 L 573 60 L 471 60 L 447 102 L 408 264 z" fill="rgb(255,217,194)" stroke="black"/>
  <text fill="rgb(9,33,173)" font-size="25" x="497.0" y="145.0">skirt_back</text>
  <path d="M 696 264 Q 810.0 198.90409622786694 924 264 L 885 102 L 861 60 L 759 60 L 735 102 L 696 264 z" fill="rgb(255,217,194)" stroke="black"/>
  <text fill="rgb(9,33,173)" font-size="25" x="785.0" y="145.0">skirt_front</text>
  <path d="M 1026 168 L 1128 168 L 1170 117 Q 1142.7 105.9 1155 60 L 1101 60 Q 1077.0 156.06600901297628 1053 60 L 999 60 Q 1011.3 105.9 984 117 L 1026 168 z" fill="rgb(255,217,194)" stroke="black"/>
  <text fill="rgb(9,33,173)" font-size="25" x="1052.0" y="104.25">top_back</text>
  <path d="M 1272 165 L 1374 165 L 1416 114 Q 1389.9 103.8 1401 60 L 1347 60 L 1323 72 L 1299 60 L 1245 60 Q 1256.1 103.8 1230 114 L 1272 165 z" fill="rgb(255,217,194)" stroke="black"/>
  <text fill="rgb(9,33,173)" font-size="25" x="1298.0" y="99.66666666666667">top_front</text>
  <path d="M 1476 159 L 1575 114 Q 1601.1 103.8 1590 60 L 1476 60 L 1476 159 z" fill="rgb(255,217,194)" stroke="black"/>
  <text fill="rgb(9,33,173)" font-size="25" x="1504.25" y="101.25">lbsleeve</text>
  <path d="M 1650 159 L 1764 159 Q 1775.1 115.2 1749 105 L 1650 60 L 1650 159 z" fill="rgb(255,217,194)" stroke="black"/>
  <text fill="rgb(9,33,173)" font-size="25" x="1678.25" y="123.75">lfsleeve</text>
</svg>
