<?xml version="1.0" encoding="utf-8" ?>
<svg xmlns="http://www.w3.org/2000/svg" xmlns:ev="http://www.w3.org/2001/xml-events" xmlns:xlink="http://www.w3.org/1999/xlink" baseProfile="full" height="348.0px" version="1.1" width="1762.0px">
  <defs/>
  <path d="M 60 213 L 123 213 Q 142.2 159.89999999999998 111 144 L 60 60 L 60 213 z" fill="rgb(255,217,194)" stroke="black"/>
  <text fill="rgb(9,33,173)" font-size="25" x="63.5" y="160.5">rbsleeve</text>
  <path d="M 203.5 213.0 L 254.5 129.0 Q 285.70000000000005 113.1 266.5 60.0 L 203.5 60.0 L 203.5 213.0 z" fill="rgb(255,217,194)" stroke="black"/>
  <text fill="rgb(9,33,173)" font-size="25" x="207.0" y="118.5">rfsleeve</text>
  <path d="M 347.0 288.0 Q 500.0 400.91218950987127 653.0 288.0 L 569.0 102.0 L 566.0 60.0 L 434.0 60.0 L 431.0 102.0 L 347.0 288.0 z" fill="rgb(255,217,194)" stroke="black"/>
  <text fill="rgb(9,33,173)" font-size="25" x="475.0" y="153.0">skirt_back</text>
  <path d="M 713.0 288.0 Q 866.0 152.36882832221127 1019.0 288.0 L 935.0 102.0 L 932.0 60.0 L 800.0 60.0 L 797.0 102.0 L 713.0 288.0 z" fill="rgb(255,217,194)" stroke="black"/>
  <text fill="rgb(9,33,173)" font-size="25" x="841.0" y="153.0">skirt_front</text>
  <path d="M 1082.0 168.0 L 1214.0 168.0 L 1217.0 129.0 Q 1186.7 111.89999999999999 1208.0 60.0 L 1184.0 60.0 Q 1148.0 116.69124922666424 1112.0 60.0 L 1088.0 60.0 Q 1109.3 111.89999999999999 1079.0 129.0 L 1082.0 168.0 z" fill="rgb(255,217,194)" stroke="black"/>
  <text fill="rgb(9,33,173)" font-size="25" x="1123.0" y="107.25">top_back</text>
  <path d="M 1280.0 165.0 L 1412.0 165.0 L 1415.0 129.0 Q 1384.7 111.89999999999999 1406.0 60.0 L 1382.0 60.0 L 1346.0 78.0 L 1310.0 60.0 L 1286.0 60.0 Q 1307.3 111.89999999999999 1277.0 129.0 L 1280.0 165.0 z" fill="rgb(255,217,194)" stroke="black"/>
  <text fill="rgb(9,33,173)" font-size="25" x="1321.0" y="103.66666666666667">top_front</text>
  <path d="M 1475.0 213.0 L 1526.0 129.0 Q 1557.1999999999998 113.1 1538.0 60.0 L 1475.0 60.0 L 1475.0 213.0 z" fill="rgb(255,217,194)" stroke="black"/>
  <text fill="rgb(9,33,173)" font-size="25" x="1478.5" y="118.5">lbsleeve</text>
  <path d="M 1618.5 213.0 L 1681.5 213.0 Q 1700.6999999999998 159.89999999999998 1669.5 144.0 L 1618.5 60.0 L 1618.5 213.0 z" fill="rgb(255,217,194)" stroke="black"/>
  <text fill="rgb(9,33,173)" font-size="25" x="1622.0" y="160.5">lfsleeve</text>
</svg>
