<?xml version="1.0" encoding="utf-8" ?>
<svg xmlns="http://www.w3.org/2000/svg" xmlns:ev="http://www.w3.org/2001/xml-events" xmlns:xlink="http://www.w3.org/1999/xlink" baseProfile="full" height="336px" version="1.1" width="1486.0px">
  <defs/>
  <path d="M 60 276 L 342 276 L 342 60 L 60 60 L 60 276 z" fill="rgb(255,217,194)" stroke="black"/>
  <text fill="rgb(9,33,173)" font-size="25" x="176.0" y="171.0">skirt_back</text>
  <path d="M 402 81 L 492 81 L 492 60 L 402 60 L 402 81 z" fill="rgb(255,217,194)" stroke="black"/>
  <text fill="rgb(9,33,173)" font-size="25" x="422.0" y="73.5">wb_back</text>
  <path d="M 552 81 L 642 81 L 642 60 L 552 60 L 552 81 z" fill="rgb(255,217,194)" stroke="black"/>
  <text fill="rgb(9,33,173)" font-size="25" x="572.0" y="73.5">wb_front</text>
  <path d="M 712.0 276.0 L 994.0 276.0 L 994.0 60.0 L 712.0 60.0 L 712.0 276.0 z" fill="rgb(255,217,194)" stroke="black"/>
  <text fill="rgb(9,33,173)" font-size="25" x="828.0" y="171.0">skirt_front</text>
  <path d="M 1054.0 186.0 L 1210.0 186.0 L 1210.0 141.0 Q 1174.0 121.5 1198.0 60.0 L 1162.0 60.0 Q 1132.0 165.8229626847429 1102.0 60.0 L 1066.0 60.0 Q 1090.0 121.49999999999999 1054.0 141.0 L 1054.0 186.0 z" fill="rgb(255,217,194)" stroke="black"/>
  <text fill="rgb(9,33,173)" font-size="25" x="1107.0" y="114.75">top_back</text>
  <path d="M 1270.0 186.0 L 1426.0 186.0 L 1426.0 141.0 Q 1390.0 121.5 1414.0 60.0 L 1378.0 60.0 L 1348.0 87.0 L 1318.0 60.0 L 1282.0 60.0 Q 1306.0 121.49999999999999 1270.0 141.0 L 1270.0 186.0 z" fill="rgb(255,217,194)" stroke="black"/>
  <text fill="rgb(9,33,173)" font-size="25" x="1323.0" y="112.0">top_front</text>
</svg>
