<?xml version="1.0" encoding="utf-8" ?>
<svg xmlns="http://www.w3.org/2000/svg" xmlns:ev="http://www.w3.org/2001/xml-events" xmlns:xlink="http://www.w3.org/1999/xlink" baseProfile="full" height="360px" version="1.1" width="832.0px">
  <defs/>
  <path d="M 78 300 L 120 300 L 120 78 L 90 60 L 69 60 Q 105.9 139.2 60 168 L 78 300 z" fill="rgb(255,217,194)" stroke="black"/>
  <text fill="rgb(9,33,173)" font-size="25" x="64.5" y="164.0">front_right</text>
  <path d="M 234.5 171.0 L 270.5 168.0 Q 338.9 156.3 300.5 69.0 L 270.5 78.0 L 240.5 60.0 L 234.5 171.0 z" fill="rgb(255,217,194)" stroke="black"/>
  <text fill="rgb(9,33,173)" font-size="25" x="238.3" y="112.2">Rhood</text>
  <path d="M 378.5 300.0 L 462.5 300.0 L 480.5 168.0 Q 434.6 139.2 471.5 60.0 L 450.5 60.0 L 420.5 69.0 L 390.5 60.0 L 369.5 60.0 Q 406.4 139.2 360.5 168.0 L 378.5 300.0 z" fill="rgb(255,217,194)" stroke="black"/>
  <text fill="rgb(9,33,173)" font-size="25" x="395.5" y="141.33333333333334">back</text>
  <path d="M 546.5 171.0 L 576.5 153.0 L 606.5 162.0 Q 644.9 74.7 576.5 63.0 L 540.5 60.0 L 546.5 171.0 z" fill="rgb(255,217,194)" stroke="black"/>
  <text fill="rgb(9,33,173)" font-size="25" x="544.3" y="124.8">Lhood</text>
  <path d="M 666.5 300.0 L 708.5 300.0 L 726.5 168.0 Q 680.5999999999999 139.2 717.5 60.0 L 696.5 60.0 L 666.5 78.0 L 666.5 300.0 z" fill="rgb(255,217,194)" stroke="black"/>
  <text fill="rgb(9,33,173)" font-size="25" x="672.0" y="164.0">front_left</text>
</svg>
