<?xml version="1.0" encoding="utf-8" ?>
<svg xmlns="http://www.w3.org/2000/svg" xmlns:ev="http://www.w3.org/2001/xml-events" xmlns:xlink="http://www.w3.org/1999/xlink" baseProfile="full" height="309.0px" version="1.1" width="1732.0px">
  <defs/>
  <path d="M 60 222 L 156 222 Q 184.8 152.1 144 129 L 60 60 L 60 222 z" fill="rgb(255,217,194)" stroke="black"/>
  <text fill="rgb(9,33,173)" font-size="25" x="80.0" y="161.25">rbsleeve</text>
  <path d="M 220.0 222.0 L 304.0 153.0 Q 344.8 129.9 316.0 60.0 L 220.0 60.0 L 220.0 222.0 z" fill="rgb(255,217,194)" stroke="black"/>
  <text fill="rgb(9,33,173)" font-size="25" x="240.0" y="126.75">rfsleeve</text>
  <path d="M 380.0 249.0 L 437.0 249.0 Q 474.5 90.0 470.0 60.0 L 410.0 60.0 Q 424.7 141.75 380.0 153.0 Q 389.6 157.8 380.0 249.0 z" fill="rgb(255,217,194)" stroke="black"/>
  <text fill="rgb(9,33,173)" font-size="25" x="390.4" y="157.2">Rback</text>
  <path d="M 563.0 249.0 L 620.0 249.0 Q 610.4 157.8 620.0 153.0 Q 579.95 140.25 590.0 60.0 L 530.0 60.0 Q 525.5 90.0 563.0 249.0 z" fill="rgb(255,217,194)" stroke="black"/>
  <text fill="rgb(9,33,173)" font-size="25" x="559.6" y="157.2">Rfront</text>
  <path d="M 698.0 168.0 L 758.0 168.0 L 818.0 168.0 L 836.0 153.0 Q 795.1999999999999 129.9 824.0 60.0 L 779.0 60.0 Q 758.0 92.1128415574396 737.0 60.0 L 692.0 60.0 Q 720.8000000000001 129.9 680.0 153.0 L 698.0 168.0 z" fill="rgb(255,217,194)" stroke="black"/>
  <text fill="rgb(9,33,173)" font-size="25" x="733.0" y="119.66666666666667">up_back</text>
  <path d="M 914.0 165.0 L 974.0 165.0 L 1034.0 165.0 L 1052.0 153.0 Q 1011.2 129.9 1040.0 60.0 L 995.0 60.0 L 974.0 126.0 L 953.0 60.0 L 908.0 60.0 Q 936.8000000000001 129.9 896.0 153.0 L 914.0 165.0 z" fill="rgb(255,217,194)" stroke="black"/>
  <text fill="rgb(9,33,173)" font-size="25" x="949.0" y="119.7">up_front</text>
  <path d="M 1145.0 249.0 L 1202.0 249.0 Q 1192.4 157.8 1202.0 153.0 Q 1157.3 141.75 1172.0 60.0 L 1112.0 60.0 Q 1107.5 90.0 1145.0 249.0 z" fill="rgb(255,217,194)" stroke="black"/>
  <text fill="rgb(9,33,173)" font-size="25" x="1141.6" y="157.2">Lback</text>
  <path d="M 1262.0 249.0 L 1319.0 249.0 Q 1356.5 90.0 1352.0 60.0 L 1292.0 60.0 Q 1302.05 140.25 1262.0 153.0 Q 1271.6 157.8 1262.0 249.0 z" fill="rgb(255,217,194)" stroke="black"/>
  <text fill="rgb(9,33,173)" font-size="25" x="1272.4" y="157.2">Lfront</text>
  <path d="M 1412.0 222.0 L 1496.0 153.0 Q 1536.8 129.9 1508.0 60.0 L 1412.0 60.0 L 1412.0 222.0 z" fill="rgb(255,217,194)" stroke="black"/>
  <text fill="rgb(9,33,173)" font-size="25" x="1432.0" y="126.75">lbsleeve</text>
  <path d="M 1572.0 222.0 L 1668.0 222.0 Q 1696.8 152.1 1656.0 129.0 L 1572.0 60.0 L 1572.0 222.0 z" fill="rgb(255,217,194)" stroke="black"/>
  <text fill="rgb(9,33,173)" font-size="25" x="1592.0" y="161.25">lfsleeve</text>
</svg>
