<?xml version="1.0" encoding="utf-8" ?>
<svg xmlns="http://www.w3.org/2000/svg" xmlns:ev="http://www.w3.org/2001/xml-events" xmlns:xlink="http://www.w3.org/1999/xlink" baseProfile="full" height="393px" version="1.1" width="1752px">
  <defs/>
  <path d="M 60 156 L 174 156 Q 192.0 105.00000000000001 162 90 L 60 60 L 60 156 z" fill="rgb(255,217,194)" stroke="black"/>
  <text fill="rgb(9,33,173)" font-size="25" x="89.0" y="118.5">rbsleeve</text>
  <path d="M 234 156 L 336 126 Q 366.0 111.0 348 60 L 234 60 L 234 156 z" fill="rgb(255,217,194)" stroke="black"/>
  <text fill="rgb(9,33,173)" font-size="25" x="263.0" y="103.5">rfsleeve</text>
  <path d="M 408 333 L 468 333 Q 509.7 102.60000000000002 501 60 L 438 60 Q 452.7 141.75 408 153 Q 426.0 162.0 408 333 z" fill="rgb(255,217,194)" stroke="black"/>
  <text fill="rgb(9,33,173)" font-size="25" x="419.6" y="190.8">Rback</text>
  <path d="M 594 333 L 654 333 Q 636.0 162.0 654 153 Q 613.95 140.25 624 60 L 561 60 Q 552.3000000000001 102.6 594 333 z" fill="rgb(255,217,194)" stroke="black"/>
  <text fill="rgb(9,33,173)" font-size="25" x="592.4" y="190.8">Rfront</text>
  <path d="M 720 168 L 780 168 L 840 168 L 846 126 Q 816.0 111.0 834 60 L 795 60 Q 780.0 67.5333236423556 765 60 L 726 60 Q 744.0 110.99999999999999 714 126 L 720 168 z" fill="rgb(255,217,194)" stroke="black"/>
  <text fill="rgb(9,33,173)" font-size="25" x="755.0" y="113.66666666666667">up_back</text>
  <path d="M 912 165 L 972 165 L 1032 165 L 1038 123 Q 1009.2 108.89999999999999 1026 60 L 987 60 L 972 93 L 957 60 L 918 60 Q 934.8000000000001 108.89999999999999 906 123 L 912 165 z" fill="rgb(255,217,194)" stroke="black"/>
  <text fill="rgb(9,33,173)" font-size="25" x="947.0" y="110.4">up_front</text>
  <path d="M 1131 333 L 1191 333 Q 1173.0 162.0 1191 153 Q 1146.3 141.75 1161 60 L 1098 60 Q 1089.3 102.6 1131 333 z" fill="rgb(255,217,194)" stroke="black"/>
  <text fill="rgb(9,33,173)" font-size="25" x="1129.4" y="190.8">Lback</text>
  <path d="M 1251 333 L 1311 333 Q 1352.7 102.60000000000002 1344 60 L 1281 60 Q 1291.05 140.25 1251 153 Q 1269.0 162.0 1251 333 z" fill="rgb(255,217,194)" stroke="black"/>
  <text fill="rgb(9,33,173)" font-size="25" x="1262.6" y="190.8">Lfront</text>
  <path d="M 1404 156 L 1506 126 Q 1536.0 111.0 1518 60 L 1404 60 L 1404 156 z" fill="rgb(255,217,194)" stroke="black"/>
  <text fill="rgb(9,33,173)" font-size="25" x="1433.0" y="103.5">lbsleeve</text>
  <path d="M 1578 156 L 1692 156 Q 1710.0 105.00000000000001 1680 90 L 1578 60 L 1578 156 z" fill="rgb(255,217,194)" stroke="black"/>
  <text fill="rgb(9,33,173)" font-size="25" x="1607.0" y="118.5">lfsleeve</text>
</svg>
