<?xml version="1.0" encoding="utf-8" ?>
<svg xmlns="http://www.w3.org/2000/svg" xmlns:ev="http://www.w3.org/2001/xml-events" xmlns:xlink="http://www.w3.org/1999/xlink" baseProfile="full" height="405px" version="1.1" width="1200px">
  <defs/>
  <path d="M 60 345 L 147 345 Q 181.65 103.95 171 60 L 90 60 Q 104.7 141.75 60 153 Q 79.2 162.6 60 345 z" fill="rgb(255,217,194)" stroke="black"/>
  <text fill="rgb(9,33,173)" font-size="25" x="80.6" y="195.6">Rback</text>
  <path d="M 255 345 L 342 345 Q 322.8 162.60000000000002 342 153 Q 301.95 140.25 312 60 L 231 60 Q 220.35 103.95 255 345 z" fill="rgb(255,217,194)" stroke="black"/>
  <text fill="rgb(9,33,173)" font-size="25" x="271.4" y="195.6">Rfront</text>
  <path d="M 402 168 L 486 168 L 570 168 L 555 132 Q 522.6 115.2 543 60 L 519 60 Q 486.0 92.97587310037531 453 60 L 429 60 Q 449.40000000000003 115.2 417 132 L 402 168 z" fill="rgb(255,217,194)" stroke="black"/>
  <text fill="rgb(9,33,173)" font-size="25" x="461.0" y="115.0">up_back</text>
  <path d="M 630 165 L 714 165 L 798 165 L 783 132 Q 750.6 115.2 771 60 L 747 60 L 714 84 L 681 60 L 657 60 Q 677.4 115.2 645 132 L 630 165 z" fill="rgb(255,217,194)" stroke="black"/>
  <text fill="rgb(9,33,173)" font-size="25" x="689.0" y="111.3">up_front</text>
  <path d="M 882 345 L 969 345 Q 949.8 162.60000000000002 969 153 Q 924.3 141.75 939 60 L 858 60 Q 847.35 103.95 882 345 z" fill="rgb(255,217,194)" stroke="black"/>
  <text fill="rgb(9,33,173)" font-size="25" x="898.4" y="195.6">Lback</text>
  <path d="M 1029 345 L 1116 345 Q 1150.65 103.95 1140 60 L 1059 60 Q 1069.05 140.25 1029 153 Q 1048.2 162.6 1029 345 z" fill="rgb(255,217,194)" stroke="black"/>
  <text fill="rgb(9,33,173)" font-size="25" x="1049.6" y="195.6">Lfront</text>
</svg>
