<?xml version="1.0" encoding="utf-8" ?>
<svg xmlns="http://www.w3.org/2000/svg" xmlns:ev="http://www.w3.org/2001/xml-events" xmlns:xlink="http://www.w3.org/1999/xlink" baseProfile="full" height="468.0px" version="1.1" width="1402.0px">
  <defs/>
  <path d="M 60 123 L 108 123 Q 117.6 86.7 96 78 L 60 60 L 60 123 z" fill="rgb(255,217,194)" stroke="black"/>
  <text fill="rgb(9,33,173)" font-size="25" x="56.0" y="99.0">rbsleeve</text>
  <path d="M 196.0 123.0 L 232.0 105.0 Q 253.6 96.3 244.0 60.0 L 196.0 60.0 L 196.0 123.0 z" fill="rgb(255,217,194)" stroke="black"/>
  <text fill="rgb(9,33,173)" font-size="25" x="192.0" y="90.0">rfsleeve</text>
  <path d="M 332.0 408.0 L 542.0 408.0 L 503.0 108.0 Q 480.2 98.39999999999999 491.0 60.0 L 467.0 60.0 L 437.0 69.0 L 407.0 60.0 L 383.0 60.0 Q 393.8 98.39999999999999 371.0 108.0 L 332.0 408.0 z" fill="rgb(255,217,194)" stroke="black"/>
  <text fill="rgb(9,33,173)" font-size="25" x="412.0" y="152.0">back</text>
  <path d="M 602.0 408.0 L 812.0 408.0 L 773.0 108.0 Q 750.1999999999999 98.39999999999999 761.0 60.0 L 737.0 60.0 L 707.0 81.0 L 677.0 60.0 L 653.0 60.0 Q 663.8000000000001 98.39999999999999 641.0 108.0 L 602.0 408.0 z" fill="rgb(255,217,194)" stroke="black"/>
  <text fill="rgb(9,33,173)" font-size="25" x="682.0" y="153.33333333333334">front</text>
  <path d="M 872.0 183.0 L 920.0 180.0 Q 987.5 162.0 941.0 78.0 L 908.0 87.0 L 875.0 60.0 L 872.0 183.0 z" fill="rgb(255,217,194)" stroke="black"/>
  <text fill="rgb(9,33,173)" font-size="25" x="878.2" y="120.6">Rhood</text>
  <path d="M 1004.0 183.0 L 1037.0 156.0 L 1070.0 165.0 Q 1116.5 81.00000000000001 1049.0 63.0 L 1001.0 60.0 L 1004.0 183.0 z" fill="rgb(255,217,194)" stroke="black"/>
  <text fill="rgb(9,33,173)" font-size="25" x="1007.2" y="128.4">Lhood</text>
  <path d="M 1130.0 123.0 L 1166.0 105.0 Q 1187.6 96.3 1178.0 60.0 L 1130.0 60.0 L 1130.0 123.0 z" fill="rgb(255,217,194)" stroke="black"/>
  <text fill="rgb(9,33,173)" font-size="25" x="1126.0" y="90.0">lbsleeve</text>
  <path d="M 1266.0 123.0 L 1314.0 123.0 Q 1323.6 86.7 1302.0 78.0 L 1266.0 60.0 L 1266.0 123.0 z" fill="rgb(255,217,194)" stroke="black"/>
  <text fill="rgb(9,33,173)" font-size="25" x="1262.0" y="99.0">lfsleeve</text>
</svg>
