<?xml version="1.0" encoding="utf-8" ?>
<svg xmlns="http://www.w3.org/2000/svg" xmlns:ev="http://www.w3.org/2001/xml-events" xmlns:xlink="http://www.w3.org/1999/xlink" baseProfile="full" height="354px" version="1.1" width="1080.2px">
  <defs/>
  <path d="M 60 294 L 114 294 Q 156.29999999999998 96.89999999999999 150 60 L 90 60 Q 104.7 141.75 60 153 Q 74.1 160.05 60 294 z" fill="rgb(255,217,194)" stroke="black"/>
  <text fill="rgb(9,33,173)" font-size="25" x="69.8" y="175.2">Rback</text>
  <path d="M 246 294 L 300 294 Q 285.9 160.05 300 153 Q 259.95 140.25 270 60 L 210 60 Q 203.70000000000002 96.89999999999999 246 294 z" fill="rgb(255,217,194)" stroke="black"/>
  <text fill="rgb(9,33,173)" font-size="25" x="240.2" y="175.2">Rfront</text>
  <path d="M 378.2 168.0 L 435.2 168.0 L 492.2 168.0 L 510.2 147.0 Q 471.79999999999995 125.7 498.2 60.0 L 459.2 60.0 Q 435.2 120.02658110166547 411.2 60.0 L 372.2 60.0 Q 398.6 125.7 360.2 147.0 L 378.2 168.0 z" fill="rgb(255,217,194)" stroke="black"/>
  <text fill="rgb(9,33,173)" font-size="25" x="410.19999999999993" y="118.33333333333333">up_back</text>
  <path d="M 588.2 165.0 L 645.2 165.0 L 702.2 165.0 L 720.2 147.0 Q 681.8000000000001 125.7 708.2 60.0 L 669.2 60.0 L 645.2 120.0 L 621.2 60.0 L 582.2 60.0 Q 608.6 125.7 570.2 147.0 L 588.2 165.0 z" fill="rgb(255,217,194)" stroke="black"/>
  <text fill="rgb(9,33,173)" font-size="25" x="620.1999999999999" y="117.9">up_front</text>
  <path d="M 816.2 294.0 L 870.2 294.0 Q 856.1 160.05 870.2 153.0 Q 825.5 141.75 840.2 60.0 L 780.2 60.0 Q 773.9 96.89999999999999 816.2 294.0 z" fill="rgb(255,217,194)" stroke="black"/>
  <text fill="rgb(9,33,173)" font-size="25" x="810.4" y="175.2">Lback</text>
  <path d="M 930.2 294.0 L 984.2 294.0 Q 1026.5 96.89999999999999 1020.2 60.0 L 960.2 60.0 Q 970.25 140.25 930.2 153.0 Q 944.3000000000001 160.05 930.2 294.0 z" fill="rgb(255,217,194)" stroke="black"/>
  <text fill="rgb(9,33,173)" font-size="25" x="940.0" y="175.2">Lfront</text>
</svg>
