<?xml version="1.0" encoding="utf-8" ?>
<svg xmlns="http://www.w3.org/2000/svg" xmlns:ev="http://www.w3.org/2001/xml-events" xmlns:xlink="http://www.w3.org/1999/xlink" baseProfile="full" height="345px" version="1.1" width="724.0px">
  <defs/>
  <path d="M 60 285 L 168 285 L 168 150 L 138 60 L 114 60 Q 148.8 140.4 102 168 L 60 285 z" fill="rgb(255,217,194)" stroke="black"/>
  <text fill="rgb(9,33,173)" font-size="25" x="100.0" y="171.0">front_right</text>
  <path d="M 270.0 285.0 L 486.0 285.0 L 444.0 168.0 Q 397.2 140.4 432.0 60.0 L 408.0 60.0 Q 378.0 129.96647020914963 348.0 60.0 L 324.0 60.0 Q 358.8 140.4 312.0 168.0 L 270.0 285.0 z" fill="rgb(255,217,194)" stroke="black"/>
  <text fill="rgb(9,33,173)" font-size="25" x="353.0" y="146.25">back</text>
  <path d="M 546.0 285.0 L 654.0 285.0 L 612.0 168.0 Q 565.1999999999999 140.4 600.0 60.0 L 576.0 60.0 L 546.0 150.0 L 546.0 285.0 z" fill="rgb(255,217,194)" stroke="black"/>
  <text fill="rgb(9,33,173)" font-size="25" x="564.0" y="171.0">front_left</text>
</svg>
