<?xml version="1.0" encoding="utf-8" ?>
<svg xmlns="http://www.w3.org/2000/svg" xmlns:ev="http://www.w3.org/2001/xml-events" xmlns:xlink="http://www.w3.org/1999/xlink" baseProfile="full" height="255.0px" version="1.1" width="1546.0px">
  <defs/>
  <path d="M 60 162 L 366 162 L 366 60 L 60 60 L 60 162 z" fill="rgb(255,217,194)" stroke="black"/>
  <text fill="rgb(9,33,173)" font-size="25" x="188.0" y="114.0">skirt_back</text>
  <path d="M 426 78 L 516 78 L 516 60 L 426 60 L 426 78 z" fill="rgb(255,217,194)" stroke="black"/>
  <text fill="rgb(9,33,173)" font-size="25" x="446.0" y="72.0">wb_back</text>
  <path d="M 576 78 L 666 78 L 666 60 L 576 60 L 576 78 z" fill="rgb(255,217,194)" stroke="black"/>
  <text fill="rgb(9,33,173)" font-size="25" x="596.0" y="72.0">wb_front</text>
  <path d="M 736.0 162.0 L 1042.0 162.0 L 1042.0 60.0 L 736.0 60.0 L 736.0 162.0 z" fill="rgb(255,217,194)" stroke="black"/>
  <text fill="rgb(9,33,173)" font-size="25" x="864.0" y="114.0">skirt_front</text>
  <path d="M 1102.0 195.0 L 1264.0 195.0 L 1264.0 111.0 Q 1240.0 100.5 1252.0 60.0 L 1201.0 60.0 Q 1183.0 69.1565948301578 1165.0 60.0 L 1114.0 60.0 Q 1126.0 100.49999999999999 1102.0 111.0 L 1102.0 195.0 z" fill="rgb(255,217,194)" stroke="black"/>
  <text fill="rgb(9,33,173)" font-size="25" x="1158.0" y="109.5">top_back</text>
  <path d="M 1324.0 195.0 L 1486.0 195.0 L 1486.0 111.0 Q 1462.0 100.5 1474.0 60.0 L 1423.0 60.0 L 1405.0 102.0 L 1387.0 60.0 L 1336.0 60.0 Q 1348.0 100.49999999999999 1324.0 111.0 L 1324.0 195.0 z" fill="rgb(255,217,194)" stroke="black"/>
  <text fill="rgb(9,33,173)" font-size="25" x="1380.0" y="109.0">top_front</text>
</svg>
