<?xml version="1.0" encoding="utf-8" ?>
<svg xmlns="http://www.w3.org/2000/svg" xmlns:ev="http://www.w3.org/2001/xml-events" xmlns:xlink="http://www.w3.org/1999/xlink" baseProfile="full" height="372px" version="1.1" width="1104px">
  <defs/>
  <path d="M 60 312 L 123 312 Q 163.65 99.45000000000002 156 60 L 90 60 Q 104.7 141.75 60 153 Q 75.9 160.95 60 312 z" fill="rgb(255,217,194)" stroke="black"/>
  <text fill="rgb(9,33,173)" font-size="25" x="72.8" y="182.4">Rback</text>
  <path d="M 249 312 L 312 312 Q 296.1 160.95000000000002 312 153 Q 271.95 140.25 282 60 L 216 60 Q 208.35 99.45 249 312 z" fill="rgb(255,217,194)" stroke="black"/>
  <text fill="rgb(9,33,173)" font-size="25" x="249.2" y="182.4">Rfront</text>
  <path d="M 378 168 L 447 168 L 516 168 L 522 141 Q 486.0 121.5 510 60 L 483 60 Q 447.0 95.7375934437053 411 60 L 384 60 Q 408.0 121.49999999999999 372 141 L 378 168 z" fill="rgb(255,217,194)" stroke="black"/>
  <text fill="rgb(9,33,173)" font-size="25" x="422.0" y="117.0">up_back</text>
  <path d="M 588 165 L 657 165 L 726 165 L 732 138 Q 697.1999999999999 119.39999999999999 720 60 L 693 60 L 657 135 L 621 60 L 594 60 Q 616.8000000000001 119.39999999999999 582 138 L 588 165 z" fill="rgb(255,217,194)" stroke="black"/>
  <text fill="rgb(9,33,173)" font-size="25" x="632.0" y="117.6">up_front</text>
  <path d="M 825 312 L 888 312 Q 872.1 160.95000000000002 888 153 Q 843.3 141.75 858 60 L 792 60 Q 784.35 99.45 825 312 z" fill="rgb(255,217,194)" stroke="black"/>
  <text fill="rgb(9,33,173)" font-size="25" x="825.2" y="182.4">Lback</text>
  <path d="M 948 312 L 1011 312 Q 1051.6499999999999 99.45000000000002 1044 60 L 978 60 Q 988.05 140.25 948 153 Q 963.9 160.95 948 312 z" fill="rgb(255,217,194)" stroke="black"/>
  <text fill="rgb(9,33,173)" font-size="25" x="960.8" y="182.4">Lfront</text>
</svg>
