<?xml version="1.0" encoding="utf-8" ?>
<svg xmlns="http://www.w3.org/2000/svg" xmlns:ev="http://www.w3.org/2001/xml-events" xmlns:xlink="http://www.w3.org/1999/xlink" baseProfile="full" height="405px" version="1.1" width="1678.0px">
  <defs/>
  <path d="M 60 180 L 177 180 Q 214.5 90.0 162 60 L 60 132 L 60 180 z" fill="rgb(255,217,194)" stroke="black"/>
  <text fill="rgb(9,33,173)" font-size="25" x="89.75" y="141.0">rbsleeve</text>
  <path d="M 237 108 L 339 180 Q 391.5 150.0 354 60 L 237 60 L 237 108 z" fill="rgb(255,217,194)" stroke="black"/>
  <text fill="rgb(9,33,173)" font-size="25" x="266.75" y="105.0">rfsleeve</text>
  <path d="M 414 345 L 591 345 L 591 108 L 567 60 L 510 60 Q 547.5 150.0 495 180 L 414 345 z" fill="rgb(255,217,194)" stroke="black"/>
  <text fill="rgb(9,33,173)" font-size="25" x="503.0" y="186.0">front_right</text>
  <path d="M 673.0 345.0 L 1027.0 345.0 L 946.0 180.0 Q 893.5 150.0 931.0 60.0 L 874.0 60.0 Q 850.0 181.80883867262673 826.0 60.0 L 769.0 60.0 Q 806.5 150.0 754.0 180.0 L 673.0 345.0 z" fill="rgb(255,217,194)" stroke="black"/>
  <text fill="rgb(9,33,173)" font-size="25" x="825.0" y="164.25">back</text>
  <path d="M 1087.0 345.0 L 1264.0 345.0 L 1183.0 180.0 Q 1130.5 150.0 1168.0 60.0 L 1111.0 60.0 L 1087.0 108.0 L 1087.0 345.0 z" fill="rgb(255,217,194)" stroke="black"/>
  <text fill="rgb(9,33,173)" font-size="25" x="1125.0" y="186.0">front_left</text>
  <path d="M 1324.0 108.0 L 1426.0 180.0 Q 1478.5 150.0 1441.0 60.0 L 1324.0 60.0 L 1324.0 108.0 z" fill="rgb(255,217,194)" stroke="black"/>
  <text fill="rgb(9,33,173)" font-size="25" x="1353.75" y="105.0">lbsleeve</text>
  <path d="M 1501.0 180.0 L 1618.0 180.0 Q 1655.5 90.0 1603.0 60.0 L 1501.0 132.0 L 1501.0 180.0 z" fill="rgb(255,217,194)" stroke="black"/>
  <text fill="rgb(9,33,173)" font-size="25" x="1530.75" y="141.0">lfsleeve</text>
</svg>
