<?xml version="1.0" encoding="utf-8" ?>
<svg xmlns="http://www.w3.org/2000/svg" xmlns:ev="http://www.w3.org/2001/xml-events" xmlns:xlink="http://www.w3.org/1999/xlink" baseProfile="full" height="384px" version="1.1" width="1606.0px">
  <defs/>
  <path d="M 60 324 L 183 324 L 201 60 L 90 60 Q 98.7 130.5 60 138 Q 78.6 147.3 60 324 z" fill="rgb(255,217,194)" stroke="black"/>
  <text fill="rgb(9,33,173)" font-size="25" x="93.8" y="184.2">Rback</text>
  <path d="M 279 324 L 402 324 Q 383.4 147.3 402 138 Q 367.2 129.0 372 60 L 261 60 L 279 324 z" fill="rgb(255,217,194)" stroke="black"/>
  <text fill="rgb(9,33,173)" font-size="25" x="318.2" y="184.2">Rfront</text>
  <path d="M 462 72 L 501 72 L 540 72 L 540 60 L 462 60 L 462 72 z" fill="rgb(255,217,194)" stroke="black"/>
  <text fill="rgb(9,33,173)" font-size="25" x="476.0" y="70.2">wb_back</text>
  <path d="M 606.0 72.0 L 645.0 72.0 L 684.0 72.0 L 684.0 60.0 L 606.0 60.0 L 606.0 72.0 z" fill="rgb(255,217,194)" stroke="black"/>
  <text fill="rgb(9,33,173)" font-size="25" x="620.0" y="70.2">wb_front</text>
  <path d="M 760.0 174.0 L 922.0 174.0 L 922.0 132.0 Q 888.7 116.4 907.0 60.0 L 859.0 60.0 Q 841.0 111.71404744805474 823.0 60.0 L 775.0 60.0 Q 793.3 116.4 760.0 132.0 L 760.0 174.0 z" fill="rgb(255,217,194)" stroke="black"/>
  <text fill="rgb(9,33,173)" font-size="25" x="816.0" y="109.5">top_back</text>
  <path d="M 982.0 171.0 L 1144.0 171.0 L 1144.0 129.0 Q 1111.9 114.3 1129.0 60.0 L 1081.0 60.0 L 1063.0 102.0 L 1045.0 60.0 L 997.0 60.0 Q 1014.1 114.3 982.0 129.0 L 982.0 171.0 z" fill="rgb(255,217,194)" stroke="black"/>
  <text fill="rgb(9,33,173)" font-size="25" x="1038.0" y="107.66666666666667">top_front</text>
  <path d="M 1222.0 324.0 L 1345.0 324.0 Q 1326.4 147.3 1345.0 138.0 Q 1306.3 130.5 1315.0 60.0 L 1204.0 60.0 L 1222.0 324.0 z" fill="rgb(255,217,194)" stroke="black"/>
  <text fill="rgb(9,33,173)" font-size="25" x="1261.2" y="184.2">Lback</text>
  <path d="M 1405.0 324.0 L 1528.0 324.0 L 1546.0 60.0 L 1435.0 60.0 Q 1439.8 129.0 1405.0 138.0 Q 1423.6 147.3 1405.0 324.0 z" fill="rgb(255,217,194)" stroke="black"/>
  <text fill="rgb(9,33,173)" font-size="25" x="1438.8" y="184.2">Lfront</text>
</svg>
