<?xml version="1.0" encoding="utf-8" ?>
<svg xmlns="http://www.w3.org/2000/svg" xmlns:ev="http://www.w3.org/2001/xml-events" xmlns:xlink="http://www.w3.org/1999/xlink" baseProfile="full" height="303px" version="1.1" width="1188px">
  <defs/>
  <path d="M 60 243 L 144 243 Q 176.1 88.80000000000001 171 60 L 90 60 Q 104.7 141.75 60 153 Q 69.0 157.5 60 243 z" fill="rgb(255,217,194)" stroke="black"/>
  <text fill="rgb(9,33,173)" font-size="25" x="80.0" y="154.8">Rback</text>
  <path d="M 258 243 L 342 243 Q 333.0 157.5 342 153 Q 301.95 140.25 312 60 L 231 60 Q 225.9 88.8 258 243 z" fill="rgb(255,217,194)" stroke="black"/>
  <text fill="rgb(9,33,173)" font-size="25" x="272.0" y="154.8">Rfront</text>
  <path d="M 402 168 L 483 168 L 564 168 L 558 132 Q 525.6 115.2 546 60 L 510 60 Q 483.0 66.10672100019377 456 60 L 420 60 Q 440.40000000000003 115.2 408 132 L 402 168 z" fill="rgb(255,217,194)" stroke="black"/>
  <text fill="rgb(9,33,173)" font-size="25" x="458.0" y="115.0">up_back</text>
  <path d="M 624 165 L 705 165 L 786 165 L 780 132 Q 747.6 115.2 768 60 L 732 60 L 705 114 L 678 60 L 642 60 Q 662.4 115.2 630 132 L 624 165 z" fill="rgb(255,217,194)" stroke="black"/>
  <text fill="rgb(9,33,173)" font-size="25" x="680.0" y="114.3">up_front</text>
  <path d="M 873 243 L 957 243 Q 948.0 157.5 957 153 Q 912.3 141.75 927 60 L 846 60 Q 840.9 88.8 873 243 z" fill="rgb(255,217,194)" stroke="black"/>
  <text fill="rgb(9,33,173)" font-size="25" x="887.0" y="154.8">Lback</text>
  <path d="M 1017 243 L 1101 243 Q 1133.1000000000001 88.80000000000001 1128 60 L 1047 60 Q 1057.05 140.25 1017 153 Q 1026.0 157.5 1017 243 z" fill="rgb(255,217,194)" stroke="black"/>
  <text fill="rgb(9,33,173)" font-size="25" x="1037.0" y="154.8">Lfront</text>
</svg>
