<?xml version="1.0" encoding="utf-8" ?>
<svg xmlns="http://www.w3.org/2000/svg" xmlns:ev="http://www.w3.org/2001/xml-events" xmlns:xlink="http://www.w3.org/1999/xlink" baseProfile="full" height="390px" version="1.1" width="1128px">
  <defs/>
  <path d="M 60 330 L 171 330 Q 166.65 99.45 150 60 L 90 60 Q 104.7 141.75 60 153 Q 77.7 161.85 60 330 z" fill="rgb(255,217,194)" stroke="black"/>
  <text fill="rgb(9,33,173)" font-size="25" x="81.2" y="189.6">Rback</text>
  <path d="M 231 330 L 342 330 Q 324.3 161.85 342 153 Q 301.95 140.25 312 60 L 252 60 Q 235.35 99.45 231 330 z" fill="rgb(255,217,194)" stroke="black"/>
  <text fill="rgb(9,33,173)" font-size="25" x="270.8" y="189.6">Rfront</text>
  <path d="M 411 168 L 468 168 L 525 168 L 534 153 Q 493.2 129.9 522 60 L 495 60 Q 468.0 133.02965498141765 441 60 L 414 60 Q 442.8 129.9 402 153 L 411 168 z" fill="rgb(255,217,194)" stroke="black"/>
  <text fill="rgb(9,33,173)" font-size="25" x="443.0" y="119.66666666666667">up_back</text>
  <path d="M 603 165 L 660 165 L 717 165 L 726 150 Q 686.4 127.8 714 60 L 687 60 L 660 69 L 633 60 L 606 60 Q 633.6 127.8 594 150 L 603 165 z" fill="rgb(255,217,194)" stroke="black"/>
  <text fill="rgb(9,33,173)" font-size="25" x="635.0" y="113.4">up_front</text>
  <path d="M 786 330 L 897 330 Q 879.3 161.85 897 153 Q 852.3 141.75 867 60 L 807 60 Q 790.35 99.45 786 330 z" fill="rgb(255,217,194)" stroke="black"/>
  <text fill="rgb(9,33,173)" font-size="25" x="825.8" y="189.6">Lback</text>
  <path d="M 957 330 L 1068 330 Q 1063.65 99.45 1047 60 L 987 60 Q 997.05 140.25 957 153 Q 974.7 161.85 957 330 z" fill="rgb(255,217,194)" stroke="black"/>
  <text fill="rgb(9,33,173)" font-size="25" x="978.2" y="189.6">Lfront</text>
</svg>
