<?xml version="1.0" encoding="utf-8" ?>
<svg xmlns="http://www.w3.org/2000/svg" xmlns:ev="http://www.w3.org/2001/xml-events" xmlns:xlink="http://www.w3.org/1999/xlink" baseProfile="full" height="408.0px" version="1.1" width="1117.0px">
  <defs/>
  <path d="M 60 159 L 102 159 Q 131.1 83.7 87 60 L 60 75 L 60 159 z" fill="rgb(255,217,194)" stroke="black"/>
  <text fill="rgb(9,33,173)" font-size="25" x="52.25" y="116.25">rbsleeve</text>
  <path d="M 192.25 144.0 L 219.25 159.0 Q 263.35 135.3 234.25 60.0 L 192.25 60.0 L 192.25 144.0 z" fill="rgb(255,217,194)" stroke="black"/>
  <text fill="rgb(9,33,173)" font-size="25" x="184.5" y="108.75">rfsleeve</text>
  <path d="M 324.5 348.0 L 528.5 348.0 L 522.5 159.0 Q 478.4 135.3 507.5 60.0 L 468.5 60.0 Q 426.5 308.66688463833646 384.5 60.0 L 345.5 60.0 Q 374.6 135.3 330.5 159.0 L 324.5 348.0 z" fill="rgb(255,217,194)" stroke="black"/>
  <text fill="rgb(9,33,173)" font-size="25" x="401.5" y="159.75">back</text>
  <path d="M 588.5 348.0 L 792.5 348.0 L 786.5 159.0 Q 742.4 135.3 771.5 60.0 L 732.5 60.0 L 690.5 111.0 L 648.5 60.0 L 609.5 60.0 Q 638.6 135.3 594.5 159.0 L 588.5 348.0 z" fill="rgb(255,217,194)" stroke="black"/>
  <text fill="rgb(9,33,173)" font-size="25" x="665.5" y="154.66666666666666">front</text>
  <path d="M 852.5 144.0 L 879.5 159.0 Q 923.6 135.3 894.5 60.0 L 852.5 60.0 L 852.5 144.0 z" fill="rgb(255,217,194)" stroke="black"/>
  <text fill="rgb(9,33,173)" font-size="25" x="844.75" y="108.75">lbsleeve</text>
  <path d="M 984.75 159.0 L 1026.75 159.0 Q 1055.85 83.7 1011.75 60.0 L 984.75 75.0 L 984.75 159.0 z" fill="rgb(255,217,194)" stroke="black"/>
  <text fill="rgb(9,33,173)" font-size="25" x="977.0" y="116.25">lfsleeve</text>
</svg>
