<?xml version="1.0" encoding="utf-8" ?>
<svg xmlns="http://www.w3.org/2000/svg" xmlns:ev="http://www.w3.org/2001/xml-events" xmlns:xlink="http://www.w3.org/1999/xlink" baseProfile="full" height="465.0px" version="1.1" width="1612.0px">
  <defs/>
  <path d="M 60 216 L 102 216 Q 128.4 150.29999999999998 90 129 L 60 60 L 60 216 z" fill="rgb(255,217,194)" stroke="black"/>
  <text fill="rgb(9,33,173)" font-size="25" x="53.0" y="158.25">rbsleeve</text>
  <path d="M 193.0 216.0 L 223.0 147.0 Q 261.4 125.7 235.0 60.0 L 193.0 60.0 L 193.0 216.0 z" fill="rgb(255,217,194)" stroke="black"/>
  <text fill="rgb(9,33,173)" font-size="25" x="186.0" y="123.75">rfsleeve</text>
  <path d="M 326.0 405.0 L 650.0 405.0 L 560.0 147.0 Q 521.6 125.7 548.0 60.0 L 515.0 60.0 L 488.0 69.0 L 461.0 60.0 L 428.0 60.0 Q 454.40000000000003 125.7 416.0 147.0 L 326.0 405.0 z" fill="rgb(255,217,194)" stroke="black"/>
  <text fill="rgb(9,33,173)" font-size="25" x="463.0" y="160.0">back</text>
  <path d="M 710.0 405.0 L 1034.0 405.0 L 944.0 147.0 Q 905.6 125.7 932.0 60.0 L 899.0 60.0 L 872.0 60.0 L 845.0 60.0 L 812.0 60.0 Q 838.4 125.7 800.0 147.0 L 710.0 405.0 z" fill="rgb(255,217,194)" stroke="black"/>
  <text fill="rgb(9,33,173)" font-size="25" x="847.0" y="159.0">front</text>
  <path d="M 1094.0 159.0 L 1106.0 159.0 Q 1181.6000000000001 161.70000000000002 1160.0 60.0 L 1130.0 69.0 L 1100.0 60.0 L 1094.0 159.0 z" fill="rgb(255,217,194)" stroke="black"/>
  <text fill="rgb(9,33,173)" font-size="25" x="1093.0" y="104.4">Rhood</text>
  <path d="M 1226.0 159.0 L 1256.0 150.0 L 1286.0 159.0 Q 1307.6000000000001 57.300000000000004 1232.0 60.0 L 1220.0 60.0 L 1226.0 159.0 z" fill="rgb(255,217,194)" stroke="black"/>
  <text fill="rgb(9,33,173)" font-size="25" x="1219.0" y="120.6">Lhood</text>
  <path d="M 1346.0 216.0 L 1376.0 147.0 Q 1414.3999999999999 125.7 1388.0 60.0 L 1346.0 60.0 L 1346.0 216.0 z" fill="rgb(255,217,194)" stroke="black"/>
  <text fill="rgb(9,33,173)" font-size="25" x="1339.0" y="123.75">lbsleeve</text>
  <path d="M 1479.0 216.0 L 1521.0 216.0 Q 1547.3999999999999 150.29999999999998 1509.0 129.0 L 1479.0 60.0 L 1479.0 216.0 z" fill="rgb(255,217,194)" stroke="black"/>
  <text fill="rgb(9,33,173)" font-size="25" x="1472.0" y="158.25">lfsleeve</text>
</svg>
