<?xml version="1.0" encoding="utf-8" ?>
<svg xmlns="http://www.w3.org/2000/svg" xmlns:ev="http://www.w3.org/2001/xml-events" xmlns:xlink="http://www.w3.org/1999/xlink" baseProfile="full" height="471px" version="1.1" width="1384.0px">
  <defs/>
  <path d="M 60 195 L 165 195 Q 192.6 127.2 153 105 L 60 60 L 60 195 z" fill="rgb(255,217,194)" stroke="black"/>
  <text fill="rgb(9,33,173)" font-size="25" x="84.5" y="141.75">rbsleeve</text>
  <path d="M 225 195 L 318 150 Q 357.6 127.8 330 60 L 225 60 L 225 195 z" fill="rgb(255,217,194)" stroke="black"/>
  <text fill="rgb(9,33,173)" font-size="25" x="249.5" y="119.25">rfsleeve</text>
  <path d="M 390 411 L 498 411 L 498 162 L 459 60 L 438 60 Q 465.6 127.8 426 150 L 390 411 z" fill="rgb(255,217,194)" stroke="black"/>
  <text fill="rgb(9,33,173)" font-size="25" x="426.5" y="212.0">front_right</text>
  <path d="M 596.5 411.0 L 812.5 411.0 L 776.5 150.0 Q 736.9 127.8 764.5 60.0 L 743.5 60.0 Q 704.5 336.8583821493536 665.5 60.0 L 644.5 60.0 Q 672.1 127.8 632.5 150.0 L 596.5 411.0 z" fill="rgb(255,217,194)" stroke="black"/>
  <text fill="rgb(9,33,173)" font-size="25" x="679.5" y="173.25">back</text>
  <path d="M 872.5 411.0 L 980.5 411.0 L 944.5 150.0 Q 904.9 127.8 932.5 60.0 L 911.5 60.0 L 872.5 162.0 L 872.5 411.0 z" fill="rgb(255,217,194)" stroke="black"/>
  <text fill="rgb(9,33,173)" font-size="25" x="894.0" y="212.0">front_left</text>
  <path d="M 1054.0 195.0 L 1147.0 150.0 Q 1186.6 127.8 1159.0 60.0 L 1054.0 60.0 L 1054.0 195.0 z" fill="rgb(255,217,194)" stroke="black"/>
  <text fill="rgb(9,33,173)" font-size="25" x="1078.5" y="119.25">lbsleeve</text>
  <path d="M 1219.0 195.0 L 1324.0 195.0 Q 1351.6 127.2 1312.0 105.0 L 1219.0 60.0 L 1219.0 195.0 z" fill="rgb(255,217,194)" stroke="black"/>
  <text fill="rgb(9,33,173)" font-size="25" x="1243.5" y="141.75">lfsleeve</text>
</svg>
