<?xml version="1.0" encoding="utf-8" ?>
<svg xmlns="http://www.w3.org/2000/svg" xmlns:ev="http://www.w3.org/2001/xml-events" xmlns:xlink="http://www.w3.org/1999/xlink" baseProfile="full" height="432.0px" version="1.1" width="1442.0px">
  <defs/>
  <path d="M 60 120 L 99 120 Q 112.5 72.0 84 60 L 60 60 L 60 120 z" fill="rgb(255,217,194)" stroke="black"/>
  <text fill="rgb(9,33,173)" font-size="25" x="50.75" y="93.0">rbsleeve</text>
  <path d="M 190.75 120.0 L 214.75 120.0 Q 243.25 108.0 229.75 60.0 L 190.75 60.0 L 190.75 120.0 z" fill="rgb(255,217,194)" stroke="black"/>
  <text fill="rgb(9,33,173)" font-size="25" x="181.5" y="93.0">rfsleeve</text>
  <path d="M 339.5 372.0 L 408.5 372.0 L 408.5 105.0 L 375.5 60.0 L 336.5 60.0 Q 350.0 108.0 321.5 120.0 L 339.5 372.0 z" fill="rgb(255,217,194)" stroke="black"/>
  <text fill="rgb(9,33,173)" font-size="25" x="340.0" y="184.5">front_right</text>
  <path d="M 510.0 174.0 L 558.0 180.0 Q 614.6999999999999 167.4 579.0 96.0 L 546.0 105.0 L 510.0 60.0 L 510.0 174.0 z" fill="rgb(255,217,194)" stroke="black"/>
  <text fill="rgb(9,33,173)" font-size="25" x="515.6" y="126.0">Rhood</text>
  <path d="M 657.0 372.0 L 795.0 372.0 L 813.0 120.0 Q 784.5 108.0 798.0 60.0 L 759.0 60.0 L 726.0 69.0 L 693.0 60.0 L 654.0 60.0 Q 667.5 108.0 639.0 120.0 L 657.0 372.0 z" fill="rgb(255,217,194)" stroke="black"/>
  <text fill="rgb(9,33,173)" font-size="25" x="701.0" y="146.66666666666666">back</text>
  <path d="M 873.0 180.0 L 909.0 135.0 L 942.0 144.0 Q 977.6999999999999 72.60000000000001 921.0 60.0 L 873.0 66.0 L 873.0 180.0 z" fill="rgb(255,217,194)" stroke="black"/>
  <text fill="rgb(9,33,173)" font-size="25" x="878.6" y="120.0">Lhood</text>
  <path d="M 1002.0 372.0 L 1071.0 372.0 L 1089.0 120.0 Q 1060.5 108.0 1074.0 60.0 L 1035.0 60.0 L 1002.0 105.0 L 1002.0 372.0 z" fill="rgb(255,217,194)" stroke="black"/>
  <text fill="rgb(9,33,173)" font-size="25" x="1020.5" y="184.5">front_left</text>
  <path d="M 1180.5 120.0 L 1204.5 120.0 Q 1233.0 108.0 1219.5 60.0 L 1180.5 60.0 L 1180.5 120.0 z" fill="rgb(255,217,194)" stroke="black"/>
  <text fill="rgb(9,33,173)" font-size="25" x="1171.25" y="93.0">lbsleeve</text>
  <path d="M 1311.25 120.0 L 1350.25 120.0 Q 1363.75 72.0 1335.25 60.0 L 1311.25 60.0 L 1311.25 120.0 z" fill="rgb(255,217,194)" stroke="black"/>
  <text fill="rgb(9,33,173)" font-size="25" x="1302.0" y="93.0">lfsleeve</text>
</svg>
