<?xml version="1.0" encoding="utf-8" ?>
<svg xmlns="http://www.w3.org/2000/svg" xmlns:ev="http://www.w3.org/2001/xml-events" xmlns:xlink="http://www.w3.org/1999/xlink" baseProfile="full" height="462.0px" version="1.1" width="1490.5px">
  <defs/>
  <path d="M 60 222 L 78 222 Q 86.7 182.4 63 174 L 60 60 L 60 222 z" fill="rgb(255,217,194)" stroke="black"/>
  <text fill="rgb(9,33,173)" font-size="25" x="40.25" y="172.5">rbsleeve</text>
  <path d="M 180.25 222.0 L 183.25 108.0 Q 206.95 99.6 198.25 60.0 L 180.25 60.0 L 180.25 222.0 z" fill="rgb(255,217,194)" stroke="black"/>
  <text fill="rgb(9,33,173)" font-size="25" x="160.5" y="115.5">rfsleeve</text>
  <path d="M 300.5 402.0 L 486.5 402.0 L 486.5 132.0 L 468.5 60.0 L 417.5 60.0 Q 426.2 99.6 402.5 108.0 L 300.5 402.0 z" fill="rgb(255,217,194)" stroke="black"/>
  <text fill="rgb(9,33,173)" font-size="25" x="402.0" y="197.0">front_right</text>
  <path d="M 572.0 402.0 L 944.0 402.0 L 842.0 108.0 Q 818.3 99.6 827.0 60.0 L 776.0 60.0 Q 758.0 181.29977858282393 740.0 60.0 L 689.0 60.0 Q 697.7 99.6 674.0 108.0 L 572.0 402.0 z" fill="rgb(255,217,194)" stroke="black"/>
  <text fill="rgb(9,33,173)" font-size="25" x="733.0" y="160.5">back</text>
  <path d="M 1004.0 402.0 L 1190.0 402.0 L 1088.0 108.0 Q 1064.3 99.6 1073.0 60.0 L 1022.0 60.0 L 1004.0 132.0 L 1004.0 402.0 z" fill="rgb(255,217,194)" stroke="black"/>
  <text fill="rgb(9,33,173)" font-size="25" x="1038.5" y="197.0">front_left</text>
  <path d="M 1250.0 222.0 L 1253.0 108.0 Q 1276.7 99.6 1268.0 60.0 L 1250.0 60.0 L 1250.0 222.0 z" fill="rgb(255,217,194)" stroke="black"/>
  <text fill="rgb(9,33,173)" font-size="25" x="1230.25" y="115.5">lbsleeve</text>
  <path d="M 1370.25 222.0 L 1388.25 222.0 Q 1396.95 182.4 1373.25 174.0 L 1370.25 60.0 L 1370.25 222.0 z" fill="rgb(255,217,194)" stroke="black"/>
  <text fill="rgb(9,33,173)" font-size="25" x="1350.5" y="172.5">lfsleeve</text>
</svg>
