<?xml version="1.0" encoding="utf-8" ?>
<svg xmlns="http://www.w3.org/2000/svg" xmlns:ev="http://www.w3.org/2001/xml-events" xmlns:xlink="http://www.w3.org/1999/xlink" baseProfile="full" height="306px" version="1.1" width="1092px">
  <defs/>
  <path d="M 60 246 Q 177.0 293.721981544151 294 246 L 258 102 L 243 60 L 111 60 L 96 102 L 60 246 z" fill="rgb(255,217,194)" stroke="black"/>
  <text fill="rgb(9,33,173)" font-size="25" x="152.0" y="139.0">skirt_back</text>
  <path d="M 354 246 Q 471.0 222.32203603451538 588 246 L 552 102 L 537 60 L 405 60 L 390 102 L 354 246 z" fill="rgb(255,217,194)" stroke="black"/>
  <text fill="rgb(9,33,173)" font-size="25" x="446.0" y="139.0">skirt_front</text>
  <path d="M 663 168 L 795 168 L 810 150 Q 769.5 129.0 795 60 L 768 60 Q 729.0 108.11993546750901 690 60 L 663 60 Q 688.5 129.0 648 150 L 663 168 z" fill="rgb(255,217,194)" stroke="black"/>
  <text fill="rgb(9,33,173)" font-size="25" x="704.0" y="112.5">top_back</text>
  <path d="M 885 165 L 1017 165 L 1032 150 Q 991.5 129.0 1017 60 L 990 60 L 951 72 L 912 60 L 885 60 Q 910.5 129.0 870 150 L 885 165 z" fill="rgb(255,217,194)" stroke="black"/>
  <text fill="rgb(9,33,173)" font-size="25" x="926.0" y="107.66666666666667">top_front</text>
</svg>
