<?xml version="1.0" encoding="utf-8" ?>
<svg xmlns="http://www.w3.org/2000/svg" xmlns:ev="http://www.w3.org/2001/xml-events" xmlns:xlink="http://www.w3.org/1999/xlink" baseProfile="full" height="234px" version="1.1" width="1036.0px">
  <defs/>
  <path d="M 60 174 L 186 174 L 186 78 L 153 60 L 108 60 Q 140.4 136.2 96 162 L 60 174 z" fill="rgb(255,217,194)" stroke="black"/>
  <text fill="rgb(9,33,173)" font-size="25" x="106.5" y="121.0">front_right</text>
  <path d="M 276.5 171.0 L 321.5 168.0 Q 388.09999999999997 152.70000000000002 345.5 69.0 L 312.5 78.0 L 279.5 60.0 L 276.5 171.0 z" fill="rgb(255,217,194)" stroke="black"/>
  <text fill="rgb(9,33,173)" font-size="25" x="282.1" y="112.2">Rhood</text>
  <path d="M 405.5 174.0 L 657.5 174.0 L 621.5 162.0 Q 577.1 136.20000000000002 609.5 60.0 L 564.5 60.0 L 531.5 69.0 L 498.5 60.0 L 453.5 60.0 Q 485.90000000000003 136.2 441.5 162.0 L 405.5 174.0 z" fill="rgb(255,217,194)" stroke="black"/>
  <text fill="rgb(9,33,173)" font-size="25" x="506.5" y="112.0">back</text>
  <path d="M 720.5 171.0 L 753.5 153.0 L 786.5 162.0 Q 829.1 78.30000000000001 762.5 63.0 L 717.5 60.0 L 720.5 171.0 z" fill="rgb(255,217,194)" stroke="black"/>
  <text fill="rgb(9,33,173)" font-size="25" x="723.1" y="124.8">Lhood</text>
  <path d="M 846.5 174.0 L 972.5 174.0 L 936.5 162.0 Q 892.1 136.20000000000002 924.5 60.0 L 879.5 60.0 L 846.5 78.0 L 846.5 174.0 z" fill="rgb(255,217,194)" stroke="black"/>
  <text fill="rgb(9,33,173)" font-size="25" x="876.0" y="121.0">front_left</text>
</svg>
