<?xml version="1.0" encoding="utf-8" ?>
<svg xmlns="http://www.w3.org/2000/svg" xmlns:ev="http://www.w3.org/2001/xml-events" xmlns:xlink="http://www.w3.org/1999/xlink" baseProfile="full" height="282px" version="1.1" width="1188px">
  <defs/>
  <path d="M 60 222 Q 213.0 111.6241893441834 366 222 L 288 102 L 270 60 L 156 60 L 138 102 L 60 222 z" fill="rgb(255,217,194)" stroke="black"/>
  <text fill="rgb(9,33,173)" font-size="25" x="188.0" y="131.0">skirt_back</text>
  <path d="M 426 222 Q 579.0 92.58702234429845 732 222 L 654 102 L 636 60 L 522 60 L 504 102 L 426 222 z" fill="rgb(255,217,194)" stroke="black"/>
  <text fill="rgb(9,33,173)" font-size="25" x="554.0" y="131.0">skirt_front</text>
  <path d="M 804 168 L 918 168 L 930 141 Q 894.9 120.3 921 60 L 882 60 Q 861.0 67.40223754593416 840 60 L 801 60 Q 827.1 120.29999999999998 792 141 L 804 168 z" fill="rgb(255,217,194)" stroke="black"/>
  <text fill="rgb(9,33,173)" font-size="25" x="836.0" y="110.25">top_back</text>
  <path d="M 1002 165 L 1116 165 L 1128 141 Q 1092.8999999999999 120.3 1119 60 L 1080 60 L 1059 105 L 1038 60 L 999 60 Q 1025.1000000000001 120.29999999999998 990 141 L 1002 165 z" fill="rgb(255,217,194)" stroke="black"/>
  <text fill="rgb(9,33,173)" font-size="25" x="1034.0" y="109.33333333333333">top_front</text>
</svg>
