<?xml version="1.0" encoding="utf-8" ?>
<svg xmlns="http://www.w3.org/2000/svg" xmlns:ev="http://www.w3.org/2001/xml-events" xmlns:xlink="http://www.w3.org/1999/xlink" baseProfile="full" height="333.0px" version="1.1" width="1316.8000000000002px">
  <defs/>
  <path d="M 60 123 L 87 123 Q 99.9 85.80000000000001 78 75 L 60 60 L 60 123 z" fill="rgb(255,217,194)" stroke="black"/>
  <text fill="rgb(9,33,173)" font-size="25" x="46.25" y="98.25">rbsleeve</text>
  <path d="M 186.25 123.0 L 204.25 108.0 Q 226.14999999999998 97.19999999999999 213.25 60.0 L 186.25 60.0 L 186.25 123.0 z" fill="rgb(255,217,194)" stroke="black"/>
  <text fill="rgb(9,33,173)" font-size="25" x="172.5" y="90.75">rfsleeve</text>
  <path d="M 312.5 270.0 L 375.5 270.0 L 375.5 96.0 L 363.5 60.0 L 324.5 60.0 Q 338.59999999999997 99.29999999999998 315.5 111.0 L 312.5 270.0 z" fill="rgb(255,217,194)" stroke="black"/>
  <text fill="rgb(9,33,173)" font-size="25" x="319.5" y="147.5">front_right</text>
  <path d="M 489.5 186.0 L 516.5 186.0 Q 582.1999999999999 168.9 537.5 87.0 L 525.5 96.0 L 510.5 60.0 L 489.5 186.0 z" fill="rgb(255,217,194)" stroke="black"/>
  <text fill="rgb(9,33,173)" font-size="25" x="490.9" y="126.0">Rhood</text>
  <path d="M 600.9 273.0 L 726.9 273.0 L 723.9 111.0 Q 700.8 99.3 714.9 60.0 L 675.9 60.0 L 663.9 69.0 L 651.9 60.0 L 612.9 60.0 Q 627.0 99.29999999999998 603.9 111.0 L 600.9 273.0 z" fill="rgb(255,217,194)" stroke="black"/>
  <text fill="rgb(9,33,173)" font-size="25" x="638.9" y="122.66666666666667">back</text>
  <path d="M 807.9 186.0 L 822.9 150.0 L 834.9 159.0 Q 879.5999999999999 77.10000000000001 813.9 60.0 L 786.9 60.0 L 807.9 186.0 z" fill="rgb(255,217,194)" stroke="black"/>
  <text fill="rgb(9,33,173)" font-size="25" x="788.3" y="126.0">Lhood</text>
  <path d="M 898.3 270.0 L 961.3 270.0 L 958.3 111.0 Q 935.1999999999999 99.3 949.3 60.0 L 910.3 60.0 L 898.3 96.0 L 898.3 270.0 z" fill="rgb(255,217,194)" stroke="black"/>
  <text fill="rgb(9,33,173)" font-size="25" x="904.3000000000001" y="147.5">front_left</text>
  <path d="M 1064.3000000000002 123.0 L 1082.3000000000002 108.0 Q 1104.2000000000003 97.19999999999999 1091.3000000000002 60.0 L 1064.3000000000002 60.0 L 1064.3000000000002 123.0 z" fill="rgb(255,217,194)" stroke="black"/>
  <text fill="rgb(9,33,173)" font-size="25" x="1050.5500000000002" y="90.75">lbsleeve</text>
  <path d="M 1190.5500000000002 123.0 L 1217.5500000000002 123.0 Q 1230.4500000000003 85.80000000000001 1208.5500000000002 75.0 L 1190.5500000000002 60.0 L 1190.5500000000002 123.0 z" fill="rgb(255,217,194)" stroke="black"/>
  <text fill="rgb(9,33,173)" font-size="25" x="1176.8000000000002" y="98.25">lfsleeve</text>
</svg>
