<?xml version="1.0" encoding="utf-8" ?>
<svg xmlns="http://www.w3.org/2000/svg" xmlns:ev="http://www.w3.org/2001/xml-events" xmlns:xlink="http://www.w3.org/1999/xlink" baseProfile="full" height="393px" version="1.1" width="893.0px">
  <defs/>
  <path d="M 60 333 L 216 333 L 216 135 L 180 60 L 150 60 Q 163.2 102.6 138 114 L 60 333 z" fill="rgb(255,217,194)" stroke="black"/>
  <text fill="rgb(9,33,173)" font-size="25" x="135.0" y="175.5">front_right</text>
  <path d="M 305.0 333.0 L 617.0 333.0 L 539.0 117.0 Q 512.6 104.7 527.0 60.0 L 497.0 60.0 Q 461.0 118.33711204765754 425.0 60.0 L 395.0 60.0 Q 409.40000000000003 104.7 383.0 117.0 L 305.0 333.0 z" fill="rgb(255,217,194)" stroke="black"/>
  <text fill="rgb(9,33,173)" font-size="25" x="436.0" y="145.5">back</text>
  <path d="M 677.0 333.0 L 833.0 333.0 L 755.0 114.0 Q 729.8 102.6 743.0 60.0 L 713.0 60.0 L 677.0 135.0 L 677.0 333.0 z" fill="rgb(255,217,194)" stroke="black"/>
  <text fill="rgb(9,33,173)" font-size="25" x="708.0" y="175.5">front_left</text>
</svg>
