<?xml version="1.0" encoding="utf-8" ?>
<svg xmlns="http://www.w3.org/2000/svg" xmlns:ev="http://www.w3.org/2001/xml-events" xmlns:xlink="http://www.w3.org/1999/xlink" baseProfile="full" height="288px" version="1.1" width="1128px">
  <defs/>
  <path d="M 60 228 L 156 228 Q 166.95000000000002 85.35000000000002 159 60 L 90 60 Q 104.7 141.75 60 153 Q 67.5 156.75 60 228 z" fill="rgb(255,217,194)" stroke="black"/>
  <text fill="rgb(9,33,173)" font-size="25" x="80.0" y="148.8">Rback</text>
  <path d="M 222 228 L 318 228 Q 310.5 156.75 318 153 Q 277.95 140.25 288 60 L 219 60 Q 211.04999999999998 85.35000000000001 222 228 z" fill="rgb(255,217,194)" stroke="black"/>
  <text fill="rgb(9,33,173)" font-size="25" x="248.0" y="148.8">Rfront</text>
  <path d="M 384 168 L 456 168 L 528 168 L 534 102 Q 513.6 94.2 522 60 L 492 60 Q 456.0 100.93102078839692 420 60 L 390 60 Q 398.40000000000003 94.2 378 102 L 384 168 z" fill="rgb(255,217,194)" stroke="black"/>
  <text fill="rgb(9,33,173)" font-size="25" x="431.0" y="108.33333333333333">up_back</text>
  <path d="M 600 165 L 672 165 L 744 165 L 750 102 Q 729.6 94.2 738 60 L 708 60 L 672 93 L 636 60 L 606 60 Q 614.4 94.2 594 102 L 600 165 z" fill="rgb(255,217,194)" stroke="black"/>
  <text fill="rgb(9,33,173)" font-size="25" x="647.0" y="106.2">up_front</text>
  <path d="M 813 228 L 909 228 Q 901.5 156.75 909 153 Q 864.3 141.75 879 60 L 810 60 Q 802.0500000000001 85.35000000000001 813 228 z" fill="rgb(255,217,194)" stroke="black"/>
  <text fill="rgb(9,33,173)" font-size="25" x="839.0" y="148.8">Lback</text>
  <path d="M 969 228 L 1065 228 Q 1075.95 85.35000000000002 1068 60 L 999 60 Q 1009.05 140.25 969 153 Q 976.5 156.75 969 228 z" fill="rgb(255,217,194)" stroke="black"/>
  <text fill="rgb(9,33,173)" font-size="25" x="989.0" y="148.8">Lfront</text>
</svg>
