<?xml version="1.0" encoding="utf-8" ?>
<svg xmlns="http://www.w3.org/2000/svg" xmlns:ev="http://www.w3.org/2001/xml-events" xmlns:xlink="http://www.w3.org/1999/xlink" baseProfile="full" height="264px" version="1.1" width="1768.0px">
  <defs/>
  <path d="M 60 204 L 162 204 Q 187.2 140.39999999999998 150 120 L 60 60 L 60 204 z" fill="rgb(255,217,194)" stroke="black"/>
  <text fill="rgb(9,33,173)" font-size="25" x="83.0" y="150.0">rbsleeve</text>
  <path d="M 223.0 204.0 L 313.0 144.0 Q 350.20000000000005 123.6 325.0 60.0 L 223.0 60.0 L 223.0 204.0 z" fill="rgb(255,217,194)" stroke="black"/>
  <text fill="rgb(9,33,173)" font-size="25" x="246.0" y="120.0">rfsleeve</text>
  <path d="M 386.0 204.0 L 440.0 204.0 Q 488.0 84.00000000000001 488.0 60.0 L 416.0 60.0 Q 430.7 141.75 386.0 153.0 Q 391.1 155.55 386.0 204.0 z" fill="rgb(255,217,194)" stroke="black"/>
  <text fill="rgb(9,33,173)" font-size="25" x="398.2" y="139.2">Rback</text>
  <path d="M 596.0 204.0 L 650.0 204.0 Q 644.9 155.55 650.0 153.0 Q 609.95 140.25 620.0 60.0 L 548.0 60.0 Q 548.0 84.0 596.0 204.0 z" fill="rgb(255,217,194)" stroke="black"/>
  <text fill="rgb(9,33,173)" font-size="25" x="587.8" y="139.2">Rfront</text>
  <path d="M 710.0 168.0 L 782.0 168.0 L 854.0 168.0 L 854.0 141.0 Q 818.0 121.5 842.0 60.0 L 815.0 60.0 Q 782.0 139.2159021605163 749.0 60.0 L 722.0 60.0 Q 746.0 121.49999999999999 710.0 141.0 L 710.0 168.0 z" fill="rgb(255,217,194)" stroke="black"/>
  <text fill="rgb(9,33,173)" font-size="25" x="757.0" y="117.0">up_back</text>
  <path d="M 914.0 165.0 L 986.0 165.0 L 1058.0 165.0 L 1058.0 141.0 Q 1022.0000000000001 121.5 1046.0 60.0 L 1019.0 60.0 L 986.0 144.0 L 953.0 60.0 L 926.0 60.0 Q 950.0 121.49999999999999 914.0 141.0 L 914.0 165.0 z" fill="rgb(255,217,194)" stroke="black"/>
  <text fill="rgb(9,33,173)" font-size="25" x="961.0" y="119.1">up_front</text>
  <path d="M 1166.0 204.0 L 1220.0 204.0 Q 1214.9 155.55 1220.0 153.0 Q 1175.3 141.75 1190.0 60.0 L 1118.0 60.0 Q 1118.0 84.0 1166.0 204.0 z" fill="rgb(255,217,194)" stroke="black"/>
  <text fill="rgb(9,33,173)" font-size="25" x="1157.8" y="139.2">Lback</text>
  <path d="M 1280.0 204.0 L 1334.0 204.0 Q 1382.0 84.00000000000001 1382.0 60.0 L 1310.0 60.0 Q 1320.05 140.25 1280.0 153.0 Q 1285.1 155.55 1280.0 204.0 z" fill="rgb(255,217,194)" stroke="black"/>
  <text fill="rgb(9,33,173)" font-size="25" x="1292.2" y="139.2">Lfront</text>
  <path d="M 1442.0 204.0 L 1532.0 144.0 Q 1569.1999999999998 123.6 1544.0 60.0 L 1442.0 60.0 L 1442.0 204.0 z" fill="rgb(255,217,194)" stroke="black"/>
  <text fill="rgb(9,33,173)" font-size="25" x="1465.0" y="120.0">lbsleeve</text>
  <path d="M 1605.0 204.0 L 1707.0 204.0 Q 1732.1999999999998 140.39999999999998 1695.0 120.0 L 1605.0 60.0 L 1605.0 204.0 z" fill="rgb(255,217,194)" stroke="black"/>
  <text fill="rgb(9,33,173)" font-size="25" x="1628.0" y="150.0">lfsleeve</text>
</svg>
