<?xml version="1.0" encoding="utf-8" ?>
<svg xmlns="http://www.w3.org/2000/svg" xmlns:ev="http://www.w3.org/2001/xml-events" xmlns:xlink="http://www.w3.org/1999/xlink" baseProfile="full" height="339px" version="1.1" width="1223.0px">
  <defs/>
  <path d="M 60 279 L 228 279 L 228 60 L 60 60 L 60 279 z" fill="rgb(255,217,194)" stroke="black"/>
  <text fill="rgb(9,33,173)" font-size="25" x="119.0" y="172.5">skirt_back</text>
  <path d="M 288 66 L 378 66 L 378 60 L 288 60 L 288 66 z" fill="rgb(255,217,194)" stroke="black"/>
  <text fill="rgb(9,33,173)" font-size="25" x="308.0" y="66.0">wb_back</text>
  <path d="M 438 66 L 528 66 L 528 60 L 438 60 L 438 66 z" fill="rgb(255,217,194)" stroke="black"/>
  <text fill="rgb(9,33,173)" font-size="25" x="458.0" y="66.0">wb_front</text>
  <path d="M 598.0 279.0 L 766.0 279.0 L 766.0 60.0 L 598.0 60.0 L 598.0 279.0 z" fill="rgb(255,217,194)" stroke="black"/>
  <text fill="rgb(9,33,173)" font-size="25" x="657.0" y="172.5">skirt_front</text>
  <path d="M 827.0 192.0 L 965.0 192.0 L 965.0 108.0 Q 943.0999999999999 97.19999999999999 956.0 60.0 L 917.0 60.0 Q 896.0 75.8643446747176 875.0 60.0 L 836.0 60.0 Q 848.9000000000001 97.19999999999999 827.0 108.0 L 827.0 192.0 z" fill="rgb(255,217,194)" stroke="black"/>
  <text fill="rgb(9,33,173)" font-size="25" x="871.0" y="108.0">top_back</text>
  <path d="M 1025.0 189.0 L 1163.0 189.0 L 1163.0 105.0 Q 1142.3 95.1 1154.0 60.0 L 1115.0 60.0 L 1094.0 69.0 L 1073.0 60.0 L 1034.0 60.0 Q 1045.7 95.1 1025.0 105.0 L 1025.0 189.0 z" fill="rgb(255,217,194)" stroke="black"/>
  <text fill="rgb(9,33,173)" font-size="25" x="1069.0" y="102.66666666666667">top_front</text>
</svg>
