<?xml version="1.0" encoding="utf-8" ?>
<svg xmlns="http://www.w3.org/2000/svg" xmlns:ev="http://www.w3.org/2001/xml-events" xmlns:xlink="http://www.w3.org/1999/xlink" baseProfile="full" height="303.0px" version="1.1" width="829.0px">
  <defs/>
  <path d="M 60 240 L 123 240 L 123 93 L 99 60 L 69 60 Q 81.9 97.19999999999999 60 108 L 60 240 z" fill="rgb(255,217,194)" stroke="black"/>
  <text fill="rgb(9,33,173)" font-size="25" x="64.0" y="136.5">front_right</text>
  <text fill="rgb(245,96,66)" font-size="25" x="121.21485154423925" y="94.17054448406795">0</text>
  <text fill="rgb(245,96,66)" font-size="25" x="94.67406200024311" y="60.04564429821311">1</text>
  <text fill="rgb(245,96,66)" font-size="25" x="62.687190286527006" y="60.17542430298674">2</text>
  <text fill="rgb(245,96,66)" font-size="25" x="51.24514843034475" y="109.69832017151003">3</text>
  <text fill="rgb(245,96,66)" font-size="25" x="53.68632957019152" y="249.8243414060208">4</text>
  <text fill="rgb(245,96,66)" font-size="25" x="119.52063267271276" y="249.76315822482084">5</text>
  <text fill="rgb(50,179,101)" font-size="20" x="86.61733856752201" y="249.9986229764378">0</text>
  <text fill="rgb(50,179,101)" font-size="20" x="121.58790345814158" y="174.9823768858433">1</text>
  <text fill="rgb(50,179,101)" font-size="20" x="107.80037797025761" y="76.8353843497871">2</text>
  <text fill="rgb(50,179,101)" font-size="20" x="78.66064824853679" y="60.01152925349072">3</text>
  <text fill="rgb(50,179,101)" font-size="20" x="57.282056013195586" y="84.51884786339517">4</text>
  <text fill="rgb(50,179,101)" font-size="20" x="52.089063443274725" y="183.0652734671508">5</text>
  <path d="M 234.0 183.0 L 264.0 183.0 Q 330.6 172.2 294.0 87.0 L 270.0 96.0 L 243.0 60.0 L 234.0 183.0 z" fill="rgb(255,217,194)" stroke="black"/>
  <text fill="rgb(9,33,173)" font-size="25" x="236.0" y="124.8">Rhood</text>
  <text fill="rgb(245,96,66)" font-size="25" x="236.601789806363" y="60.19947833517965">0</text>
  <text fill="rgb(245,96,66)" font-size="25" x="266.6468607815915" y="96.27899909277112">1</text>
  <text fill="rgb(245,96,66)" font-size="25" x="292.44045791504647" y="88.37188074413282">2</text>
  <text fill="rgb(245,96,66)" font-size="25" x="259.2448040931273" y="192.99400349979734">3</text>
  <text fill="rgb(245,96,66)" font-size="25" x="226.98179896711852" y="192.57458900786466">4</text>
  <text fill="rgb(50,179,101)" font-size="20" x="243.03792769639495" y="192.90656874838578">0</text>
  <text fill="rgb(50,179,101)" font-size="20" x="278.0320249792785" y="142.95681831813758">1</text>
  <text fill="rgb(50,179,101)" font-size="20" x="279.84816529715124" y="92.39050435696747">2</text>
  <text fill="rgb(50,179,101)" font-size="20" x="250.98899125422622" y="78.02618154113534">3</text>
  <text fill="rgb(50,179,101)" font-size="20" x="228.50044438519396" y="126.43333925846926">4</text>
  <path d="M 354.0 243.0 L 480.0 243.0 L 480.0 111.0 Q 456.90000000000003 99.3 471.0 60.0 L 441.0 60.0 L 417.0 69.0 L 393.0 60.0 L 363.0 60.0 Q 377.09999999999997 99.29999999999998 354.0 111.0 L 354.0 243.0 z" fill="rgb(255,217,194)" stroke="black"/>
  <text fill="rgb(9,33,173)" font-size="25" x="392.0" y="116.0">back</text>
  <text fill="rgb(245,96,66)" font-size="25" x="438.06253776654023" y="60.445229098890344">0</text>
  <text fill="rgb(245,96,66)" font-size="25" x="469.56842044245747" y="61.49766141758803">1</text>
  <text fill="rgb(245,96,66)" font-size="25" x="479.99748237647685" y="115.84134976582614">2</text>
  <text fill="rgb(245,96,66)" font-size="25" x="477.1805182920678" y="252.49948218998117">3</text>
  <text fill="rgb(245,96,66)" font-size="25" x="346.8194817079322" y="252.49948218998117">4</text>
  <text fill="rgb(245,96,66)" font-size="25" x="344.00251762352315" y="115.84134976582614">5</text>
  <text fill="rgb(245,96,66)" font-size="25" x="354.43157955754253" y="61.49766141758803">6</text>
  <text fill="rgb(245,96,66)" font-size="25" x="385.93746223345977" y="60.445229098890344">7</text>
  <text fill="rgb(245,96,66)" font-size="25" x="412.0" y="69.0">8</text>
  <text fill="rgb(50,179,101)" font-size="20" x="412.0" y="253.0">0</text>
  <text fill="rgb(50,179,101)" font-size="20" x="478.5075863225716" y="185.56326229594575">1</text>
  <text fill="rgb(50,179,101)" font-size="20" x="475.02496961381877" y="88.37287753196554">2</text>
  <text fill="rgb(50,179,101)" font-size="20" x="453.9634026382361" y="60.972811799320134">3</text>
  <text fill="rgb(50,179,101)" font-size="20" x="425.2009010137673" y="64.64635840269054">4</text>
  <text fill="rgb(50,179,101)" font-size="20" x="398.7990989862327" y="64.64635840269054">5</text>
  <text fill="rgb(50,179,101)" font-size="20" x="370.0365973617639" y="60.972811799320134">6</text>
  <text fill="rgb(50,179,101)" font-size="20" x="348.97503038618123" y="88.37287753196554">7</text>
  <text fill="rgb(50,179,101)" font-size="20" x="345.4924136774284" y="185.56326229594575">8</text>
  <path d="M 549.0 183.0 L 576.0 147.0 L 600.0 156.0 Q 636.6 70.80000000000001 570.0 60.0 L 540.0 60.0 L 549.0 183.0 z" fill="rgb(255,217,194)" stroke="black"/>
  <text fill="rgb(9,33,173)" font-size="25" x="542.0" y="124.2">Lhood</text>
  <text fill="rgb(245,96,66)" font-size="25" x="532.9817989671185" y="60.42541099213534">0</text>
  <text fill="rgb(245,96,66)" font-size="25" x="565.2448040931273" y="60.005996500202656">1</text>
  <text fill="rgb(245,96,66)" font-size="25" x="598.4404579150464" y="164.62811925586718">2</text>
  <text fill="rgb(245,96,66)" font-size="25" x="572.6468607815915" y="156.72100090722887">3</text>
  <text fill="rgb(245,96,66)" font-size="25" x="542.6017898063631" y="192.80052166482037">4</text>
  <text fill="rgb(50,179,101)" font-size="20" x="556.9889912542262" y="174.97381845886466">0</text>
  <text fill="rgb(50,179,101)" font-size="20" x="585.8481652971512" y="160.60949564303252">1</text>
  <text fill="rgb(50,179,101)" font-size="20" x="584.0320249792785" y="110.04318168186241">2</text>
  <text fill="rgb(50,179,101)" font-size="20" x="549.037927696395" y="60.09343125161421">3</text>
  <text fill="rgb(50,179,101)" font-size="20" x="534.500444385194" y="126.56666074153074">4</text>
  <path d="M 660.0 240.0 L 723.0 240.0 L 723.0 108.0 Q 701.0999999999999 97.19999999999999 714.0 60.0 L 684.0 60.0 L 660.0 93.0 L 660.0 240.0 z" fill="rgb(255,217,194)" stroke="black"/>
  <text fill="rgb(9,33,173)" font-size="25" x="669.0" y="136.5">front_left</text>
  <text fill="rgb(245,96,66)" font-size="25" x="651.7851484557607" y="94.17054448406795">0</text>
  <text fill="rgb(245,96,66)" font-size="25" x="653.4793673272873" y="249.76315822482084">1</text>
  <text fill="rgb(245,96,66)" font-size="25" x="719.3136704298084" y="249.8243414060208">2</text>
  <text fill="rgb(245,96,66)" font-size="25" x="721.7548515696552" y="109.69832017151003">3</text>
  <text fill="rgb(245,96,66)" font-size="25" x="710.312809713473" y="60.17542430298674">4</text>
  <text fill="rgb(245,96,66)" font-size="25" x="678.3259379997569" y="60.04564429821311">5</text>
  <text fill="rgb(50,179,101)" font-size="20" x="686.382661432478" y="249.9986229764378">0</text>
  <text fill="rgb(50,179,101)" font-size="20" x="720.9109365567252" y="183.0652734671508">1</text>
  <text fill="rgb(50,179,101)" font-size="20" x="715.7179439868045" y="84.51884786339517">2</text>
  <text fill="rgb(50,179,101)" font-size="20" x="694.3393517514633" y="60.01152925349072">3</text>
  <text fill="rgb(50,179,101)" font-size="20" x="665.1996220297424" y="76.8353843497871">4</text>
  <text fill="rgb(50,179,101)" font-size="20" x="651.4120965418584" y="174.9823768858433">5</text>
</svg>
