<?xml version="1.0" encoding="utf-8" ?>
<svg xmlns="http://www.w3.org/2000/svg" xmlns:ev="http://www.w3.org/2001/xml-events" xmlns:xlink="http://www.w3.org/1999/xlink" baseProfile="full" height="276px" version="1.1" width="1522.0px">
  <defs/>
  <path d="M 60 216 L 372 216 L 372 60 L 60 60 L 60 216 z" fill="rgb(255,217,194)" stroke="black"/>
  <text fill="rgb(9,33,173)" font-size="25" x="191.0" y="141.0">skirt_back</text>
  <path d="M 432 69 L 522 69 L 522 60 L 432 60 L 432 69 z" fill="rgb(255,217,194)" stroke="black"/>
  <text fill="rgb(9,33,173)" font-size="25" x="452.0" y="67.5">wb_back</text>
  <path d="M 582 69 L 672 69 L 672 60 L 582 60 L 582 69 z" fill="rgb(255,217,194)" stroke="black"/>
  <text fill="rgb(9,33,173)" font-size="25" x="602.0" y="67.5">wb_front</text>
  <path d="M 742.0 216.0 L 1054.0 216.0 L 1054.0 60.0 L 742.0 60.0 L 742.0 216.0 z" fill="rgb(255,217,194)" stroke="black"/>
  <text fill="rgb(9,33,173)" font-size="25" x="873.0" y="141.0">skirt_front</text>
  <path d="M 1114.0 141.0 L 1258.0 141.0 L 1258.0 135.0 Q 1225.3 116.1 1249.0 60.0 L 1222.0 60.0 Q 1186.0 133.95533809142384 1150.0 60.0 L 1123.0 60.0 Q 1146.7 116.1 1114.0 135.0 L 1114.0 141.0 z" fill="rgb(255,217,194)" stroke="black"/>
  <text fill="rgb(9,33,173)" font-size="25" x="1161.0" y="102.0">top_back</text>
  <path d="M 1318.0 141.0 L 1462.0 141.0 L 1462.0 135.0 Q 1429.3 116.1 1453.0 60.0 L 1426.0 60.0 L 1390.0 123.0 L 1354.0 60.0 L 1327.0 60.0 Q 1350.7 116.1 1318.0 135.0 L 1318.0 141.0 z" fill="rgb(255,217,194)" stroke="black"/>
  <text fill="rgb(9,33,173)" font-size="25" x="1365.0" y="104.66666666666667">top_front</text>
</svg>
