<?xml version="1.0" encoding="utf-8" ?>
<svg xmlns="http://www.w3.org/2000/svg" xmlns:ev="http://www.w3.org/2001/xml-events" xmlns:xlink="http://www.w3.org/1999/xlink" baseProfile="full" height="351px" version="1.1" width="1232.0px">
  <defs/>
  <path d="M 60 291 L 210 291 L 210 60 L 60 60 L 60 291 z" fill="rgb(255,217,194)" stroke="black"/>
  <text fill="rgb(9,33,173)" font-size="25" x="110.0" y="178.5">skirt_back</text>
  <path d="M 270 69 L 360 69 L 360 60 L 270 60 L 270 69 z" fill="rgb(255,217,194)" stroke="black"/>
  <text fill="rgb(9,33,173)" font-size="25" x="290.0" y="67.5">wb_back</text>
  <path d="M 420 69 L 510 69 L 510 60 L 420 60 L 420 69 z" fill="rgb(255,217,194)" stroke="black"/>
  <text fill="rgb(9,33,173)" font-size="25" x="440.0" y="67.5">wb_front</text>
  <path d="M 580.0 291.0 L 730.0 291.0 L 730.0 60.0 L 580.0 60.0 L 580.0 291.0 z" fill="rgb(255,217,194)" stroke="black"/>
  <text fill="rgb(9,33,173)" font-size="25" x="630.0" y="178.5">skirt_front</text>
  <path d="M 800.0 192.0 L 956.0 192.0 L 956.0 135.0 Q 922.4 117.3 944.0 60.0 L 896.0 60.0 Q 878.0 67.60289857925213 860.0 60.0 L 812.0 60.0 Q 833.6 117.3 800.0 135.0 L 800.0 192.0 z" fill="rgb(255,217,194)" stroke="black"/>
  <text fill="rgb(9,33,173)" font-size="25" x="853.0" y="114.75">top_back</text>
  <path d="M 1016.0 192.0 L 1172.0 192.0 L 1172.0 135.0 Q 1138.4 117.3 1160.0 60.0 L 1112.0 60.0 L 1094.0 105.0 L 1076.0 60.0 L 1028.0 60.0 Q 1049.6 117.3 1016.0 135.0 L 1016.0 192.0 z" fill="rgb(255,217,194)" stroke="black"/>
  <text fill="rgb(9,33,173)" font-size="25" x="1069.0" y="114.0">top_front</text>
</svg>
