<?xml version="1.0" encoding="utf-8" ?>
<svg xmlns="http://www.w3.org/2000/svg" xmlns:ev="http://www.w3.org/2001/xml-events" xmlns:xlink="http://www.w3.org/1999/xlink" baseProfile="full" height="288.0px" version="1.1" width="1771.0px">
  <defs/>
  <path d="M 60 159 L 117 159 Q 136.5 100.5 102 84 L 60 60 L 60 159 z" fill="rgb(255,217,194)" stroke="black"/>
  <text fill="rgb(9,33,173)" font-size="25" x="59.75" y="118.5">rbsleeve</text>
  <path d="M 199.75 159.0 L 241.75 135.0 Q 276.25 118.5 256.75 60.0 L 199.75 60.0 L 199.75 159.0 z" fill="rgb(255,217,194)" stroke="black"/>
  <text fill="rgb(9,33,173)" font-size="25" x="199.5" y="106.5">rfsleeve</text>
  <path d="M 339.5 228.0 Q 477.5 167.20006610708438 615.5 228.0 L 555.5 102.0 L 546.5 60.0 L 408.5 60.0 L 399.5 102.0 L 339.5 228.0 z" fill="rgb(255,217,194)" stroke="black"/>
  <text fill="rgb(9,33,173)" font-size="25" x="452.5" y="133.0">skirt_back</text>
  <path d="M 675.5 228.0 Q 813.5 177.8452159063402 951.5 228.0 L 891.5 102.0 L 882.5 60.0 L 744.5 60.0 L 735.5 102.0 L 675.5 228.0 z" fill="rgb(255,217,194)" stroke="black"/>
  <text fill="rgb(9,33,173)" font-size="25" x="788.5" y="133.0">skirt_front</text>
  <path d="M 1032.5 168.0 L 1170.5 168.0 L 1191.5 132.0 Q 1158.2 116.4 1176.5 60.0 L 1128.5 60.0 Q 1101.5 127.24514554010138 1074.5 60.0 L 1026.5 60.0 Q 1044.8 116.4 1011.5 132.0 L 1032.5 168.0 z" fill="rgb(255,217,194)" stroke="black"/>
  <text fill="rgb(9,33,173)" font-size="25" x="1076.5" y="108.0">top_back</text>
  <path d="M 1272.5 165.0 L 1410.5 165.0 L 1431.5 132.0 Q 1398.2 116.4 1416.5 60.0 L 1368.5 60.0 L 1341.5 108.0 L 1314.5 60.0 L 1266.5 60.0 Q 1284.8 116.4 1251.5 132.0 L 1272.5 165.0 z" fill="rgb(255,217,194)" stroke="black"/>
  <text fill="rgb(9,33,173)" font-size="25" x="1316.5" y="107.66666666666667">top_front</text>
  <path d="M 1491.5 159.0 L 1533.5 135.0 Q 1568.0 118.5 1548.5 60.0 L 1491.5 60.0 L 1491.5 159.0 z" fill="rgb(255,217,194)" stroke="black"/>
  <text fill="rgb(9,33,173)" font-size="25" x="1491.25" y="106.5">lbsleeve</text>
  <path d="M 1631.25 159.0 L 1688.25 159.0 Q 1707.75 100.5 1673.25 84.0 L 1631.25 60.0 L 1631.25 159.0 z" fill="rgb(255,217,194)" stroke="black"/>
  <text fill="rgb(9,33,173)" font-size="25" x="1631.0" y="118.5">lfsleeve</text>
</svg>
