<?xml version="1.0" encoding="utf-8" ?>
<svg xmlns="http://www.w3.org/2000/svg" xmlns:ev="http://www.w3.org/2001/xml-events" xmlns:xlink="http://www.w3.org/1999/xlink" baseProfile="full" height="327px" version="1.1" width="1081.0px">
  <defs/>
  <path d="M 60 267 L 189 267 L 189 96 L 144 60 L 114 60 Q 131.1 114.3 99 129 L 60 267 z" fill="rgb(255,217,194)" stroke="black"/>
  <text fill="rgb(9,33,173)" font-size="25" x="107.5" y="149.5">front_right</text>
  <path d="M 286.5 180.0 L 313.5 180.0 Q 384.6 182.7 364.5 87.0 L 322.5 96.0 L 277.5 60.0 L 286.5 180.0 z" fill="rgb(255,217,194)" stroke="black"/>
  <text fill="rgb(9,33,173)" font-size="25" x="287.9" y="123.6">Rhood</text>
  <path d="M 424.5 267.0 L 682.5 267.0 L 643.5 129.0 Q 611.4 114.3 628.5 60.0 L 598.5 60.0 L 553.5 69.0 L 508.5 60.0 L 478.5 60.0 Q 495.6 114.3 463.5 129.0 L 424.5 267.0 z" fill="rgb(255,217,194)" stroke="black"/>
  <text fill="rgb(9,33,173)" font-size="25" x="528.5" y="125.33333333333333">back</text>
  <path d="M 742.5 180.0 L 787.5 144.0 L 829.5 153.0 Q 849.5999999999999 57.30000000000001 778.5 60.0 L 751.5 60.0 L 742.5 180.0 z" fill="rgb(255,217,194)" stroke="black"/>
  <text fill="rgb(9,33,173)" font-size="25" x="752.9" y="122.4">Lhood</text>
  <path d="M 889.5 267.0 L 1018.5 267.0 L 979.5 129.0 Q 947.4 114.3 964.5 60.0 L 934.5 60.0 L 889.5 96.0 L 889.5 267.0 z" fill="rgb(255,217,194)" stroke="black"/>
  <text fill="rgb(9,33,173)" font-size="25" x="921.0" y="149.5">front_left</text>
</svg>
