<?xml version="1.0" encoding="utf-8" ?>
<svg xmlns="http://www.w3.org/2000/svg" xmlns:ev="http://www.w3.org/2001/xml-events" xmlns:xlink="http://www.w3.org/1999/xlink" baseProfile="full" height="273px" version="1.1" width="1717.0px">
  <defs/>
  <path d="M 60 213 L 165 213 Q 177.89999999999998 175.8 156 165 L 60 60 L 60 213 z" fill="rgb(255,217,194)" stroke="black"/>
  <text fill="rgb(9,33,173)" font-size="25" x="85.25" y="165.75">rbsleeve</text>
  <path d="M 225.25 213.0 L 321.25 108.0 Q 343.15 97.19999999999999 330.25 60.0 L 225.25 60.0 L 225.25 213.0 z" fill="rgb(255,217,194)" stroke="black"/>
  <text fill="rgb(9,33,173)" font-size="25" x="250.5" y="113.25">rfsleeve</text>
  <path d="M 390.5 204.0 L 444.5 204.0 Q 484.84999999999997 83.55000000000001 483.5 60.0 L 420.5 60.0 Q 435.2 141.75 390.5 153.0 Q 395.6 155.55 390.5 204.0 z" fill="rgb(255,217,194)" stroke="black"/>
  <text fill="rgb(9,33,173)" font-size="25" x="400.9" y="139.2">Rback</text>
  <path d="M 582.5 204.0 L 636.5 204.0 Q 631.4 155.55 636.5 153.0 Q 596.45 140.25 606.5 60.0 L 543.5 60.0 Q 542.15 83.55 582.5 204.0 z" fill="rgb(255,217,194)" stroke="black"/>
  <text fill="rgb(9,33,173)" font-size="25" x="576.1" y="139.2">Rfront</text>
  <path d="M 696.5 168.0 L 762.5 168.0 L 828.5 168.0 L 822.5 108.0 Q 800.5999999999999 97.19999999999999 813.5 60.0 L 777.5 60.0 Q 762.5 71.43174732797658 747.5 60.0 L 711.5 60.0 Q 724.4000000000001 97.19999999999999 702.5 108.0 L 696.5 168.0 z" fill="rgb(255,217,194)" stroke="black"/>
  <text fill="rgb(9,33,173)" font-size="25" x="737.5" y="109.66666666666667">up_back</text>
  <path d="M 888.5 165.0 L 954.5 165.0 L 1020.5 165.0 L 1014.5 108.0 Q 992.5999999999999 97.19999999999999 1005.5 60.0 L 969.5 60.0 L 954.5 66.0 L 939.5 60.0 L 903.5 60.0 Q 916.4000000000001 97.19999999999999 894.5 108.0 L 888.5 165.0 z" fill="rgb(255,217,194)" stroke="black"/>
  <text fill="rgb(9,33,173)" font-size="25" x="929.5" y="104.7">up_front</text>
  <path d="M 1119.5 204.0 L 1173.5 204.0 Q 1168.4 155.55 1173.5 153.0 Q 1128.8 141.75 1143.5 60.0 L 1080.5 60.0 Q 1079.1499999999999 83.55 1119.5 204.0 z" fill="rgb(255,217,194)" stroke="black"/>
  <text fill="rgb(9,33,173)" font-size="25" x="1113.1" y="139.2">Lback</text>
  <path d="M 1233.5 204.0 L 1287.5 204.0 Q 1327.8500000000001 83.55000000000001 1326.5 60.0 L 1263.5 60.0 Q 1273.55 140.25 1233.5 153.0 Q 1238.6 155.55 1233.5 204.0 z" fill="rgb(255,217,194)" stroke="black"/>
  <text fill="rgb(9,33,173)" font-size="25" x="1243.9" y="139.2">Lfront</text>
  <path d="M 1386.5 213.0 L 1482.5 108.0 Q 1504.4 97.19999999999999 1491.5 60.0 L 1386.5 60.0 L 1386.5 213.0 z" fill="rgb(255,217,194)" stroke="black"/>
  <text fill="rgb(9,33,173)" font-size="25" x="1411.75" y="113.25">lbsleeve</text>
  <path d="M 1551.75 213.0 L 1656.75 213.0 Q 1669.65 175.8 1647.75 165.0 L 1551.75 60.0 L 1551.75 213.0 z" fill="rgb(255,217,194)" stroke="black"/>
  <text fill="rgb(9,33,173)" font-size="25" x="1577.0" y="165.75">lfsleeve</text>
</svg>
