<?xml version="1.0" encoding="utf-8" ?>
<svg xmlns="http://www.w3.org/2000/svg" xmlns:ev="http://www.w3.org/2001/xml-events" xmlns:xlink="http://www.w3.org/1999/xlink" baseProfile="full" height="438.0px" version="1.1" width="1144.0px">
  <defs/>
  <path d="M 60 219 L 126 219 Q 150.0 157.5 114 138 L 60 60 L 60 219 z" fill="rgb(255,217,194)" stroke="black"/>
  <text fill="rgb(9,33,173)" font-size="25" x="65.0" y="162.0">rbsleeve</text>
  <path d="M 205.0 219.0 L 259.0 141.0 Q 295.0 121.5 271.0 60.0 L 205.0 60.0 L 205.0 219.0 z" fill="rgb(255,217,194)" stroke="black"/>
  <text fill="rgb(9,33,173)" font-size="25" x="210.0" y="123.0">rfsleeve</text>
  <path d="M 350.0 378.0 L 542.0 378.0 L 515.0 141.0 Q 479.9 120.3 506.0 60.0 L 473.0 60.0 Q 446.0 225.57270890155024 419.0 60.0 L 386.0 60.0 Q 412.09999999999997 120.29999999999998 377.0 141.0 L 350.0 378.0 z" fill="rgb(255,217,194)" stroke="black"/>
  <text fill="rgb(9,33,173)" font-size="25" x="421.0" y="162.75">back</text>
  <path d="M 602.0 378.0 L 794.0 378.0 L 767.0 141.0 Q 731.9 120.3 758.0 60.0 L 725.0 60.0 L 698.0 129.0 L 671.0 60.0 L 638.0 60.0 Q 664.1 120.29999999999998 629.0 141.0 L 602.0 378.0 z" fill="rgb(255,217,194)" stroke="black"/>
  <text fill="rgb(9,33,173)" font-size="25" x="673.0" y="159.33333333333334">front</text>
  <path d="M 854.0 219.0 L 908.0 141.0 Q 944.0 121.5 920.0 60.0 L 854.0 60.0 L 854.0 219.0 z" fill="rgb(255,217,194)" stroke="black"/>
  <text fill="rgb(9,33,173)" font-size="25" x="859.0" y="123.0">lbsleeve</text>
  <path d="M 999.0 219.0 L 1065.0 219.0 Q 1089.0 157.5 1053.0 138.0 L 999.0 60.0 L 999.0 219.0 z" fill="rgb(255,217,194)" stroke="black"/>
  <text fill="rgb(9,33,173)" font-size="25" x="1004.0" y="162.0">lfsleeve</text>
</svg>
