<?xml version="1.0" encoding="utf-8" ?>
<svg xmlns="http://www.w3.org/2000/svg" xmlns:ev="http://www.w3.org/2001/xml-events" xmlns:xlink="http://www.w3.org/1999/xlink" baseProfile="full" height="318px" version="1.1" width="1332px">
  <defs/>
  <path d="M 60 258 Q 237.0 119.58045052782379 414 258 L 309 102 L 297 60 L 177 60 L 165 102 L 60 258 z" fill="rgb(255,217,194)" stroke="black"/>
  <text fill="rgb(9,33,173)" font-size="25" x="212.0" y="143.0">skirt_back</text>
  <path d="M 474 258 Q 651.0 171.35997040482988 828 258 L 723 102 L 711 60 L 591 60 L 579 102 L 474 258 z" fill="rgb(255,217,194)" stroke="black"/>
  <text fill="rgb(9,33,173)" font-size="25" x="626.0" y="143.0">skirt_front</text>
  <path d="M 909 168 L 1029 168 L 1050 120 Q 1021.5 108.0 1035 60 L 993 60 Q 969.0 118.40697014757748 945 60 L 903 60 Q 916.5 108.0 888 120 L 909 168 z" fill="rgb(255,217,194)" stroke="black"/>
  <text fill="rgb(9,33,173)" font-size="25" x="944.0" y="105.0">top_back</text>
  <path d="M 1131 165 L 1251 165 L 1272 120 Q 1243.5 108.0 1257 60 L 1215 60 L 1191 117 L 1167 60 L 1125 60 Q 1138.5 108.0 1110 120 L 1131 165 z" fill="rgb(255,217,194)" stroke="black"/>
  <text fill="rgb(9,33,173)" font-size="25" x="1166.0" y="106.0">top_front</text>
</svg>
