<?xml version="1.0" encoding="utf-8" ?>
<svg xmlns="http://www.w3.org/2000/svg" xmlns:ev="http://www.w3.org/2001/xml-events" xmlns:xlink="http://www.w3.org/1999/xlink" baseProfile="full" height="393px" version="1.1" width="1200px">
  <defs/>
  <path d="M 60 333 L 147 333 Q 181.05 102.15000000000002 171 60 L 90 60 Q 104.7 141.75 60 153 Q 78.0 162.0 60 333 z" fill="rgb(255,217,194)" stroke="black"/>
  <text fill="rgb(9,33,173)" font-size="25" x="80.6" y="190.8">Rback</text>
  <path d="M 255 333 L 342 333 Q 324.0 162.0 342 153 Q 301.95 140.25 312 60 L 231 60 Q 220.95 102.14999999999999 255 333 z" fill="rgb(255,217,194)" stroke="black"/>
  <text fill="rgb(9,33,173)" font-size="25" x="271.4" y="190.8">Rfront</text>
  <path d="M 402 168 L 486 168 L 570 168 L 558 111 Q 534.9 99.3 549 60 L 504 60 Q 486.0 64.07364916978024 468 60 L 423 60 Q 437.09999999999997 99.29999999999998 414 111 L 402 168 z" fill="rgb(255,217,194)" stroke="black"/>
  <text fill="rgb(9,33,173)" font-size="25" x="461.0" y="110.33333333333333">up_back</text>
  <path d="M 630 165 L 714 165 L 798 165 L 786 111 Q 762.9 99.3 777 60 L 732 60 L 714 96 L 696 60 L 651 60 Q 665.1 99.29999999999998 642 111 L 630 165 z" fill="rgb(255,217,194)" stroke="black"/>
  <text fill="rgb(9,33,173)" font-size="25" x="689.0" y="108.3">up_front</text>
  <path d="M 882 333 L 969 333 Q 951.0 162.0 969 153 Q 924.3 141.75 939 60 L 858 60 Q 847.95 102.14999999999999 882 333 z" fill="rgb(255,217,194)" stroke="black"/>
  <text fill="rgb(9,33,173)" font-size="25" x="898.4" y="190.8">Lback</text>
  <path d="M 1029 333 L 1116 333 Q 1150.0500000000002 102.15000000000002 1140 60 L 1059 60 Q 1069.05 140.25 1029 153 Q 1047.0 162.0 1029 333 z" fill="rgb(255,217,194)" stroke="black"/>
  <text fill="rgb(9,33,173)" font-size="25" x="1049.6" y="190.8">Lfront</text>
</svg>
