<?xml version="1.0" encoding="utf-8" ?>
<svg xmlns="http://www.w3.org/2000/svg" xmlns:ev="http://www.w3.org/2001/xml-events" xmlns:xlink="http://www.w3.org/1999/xlink" baseProfile="full" height="477.0px" version="1.1" width="1426.0px">
  <defs/>
  <path d="M 60 165 L 144 165 Q 177.6 86.7 132 60 L 60 84 L 60 165 z" fill="rgb(255,217,194)" stroke="black"/>
  <text fill="rgb(9,33,173)" font-size="25" x="74.0" y="121.5">rbsleeve</text>
  <path d="M 214.0 141.0 L 286.0 165.0 Q 331.6 138.3 298.0 60.0 L 214.0 60.0 L 214.0 141.0 z" fill="rgb(255,217,194)" stroke="black"/>
  <text fill="rgb(9,33,173)" font-size="25" x="228.0" y="109.5">rfsleeve</text>
  <path d="M 368.0 417.0 L 548.0 417.0 L 533.0 165.0 Q 487.4 138.3 521.0 60.0 L 494.0 60.0 L 458.0 69.0 L 422.0 60.0 L 395.0 60.0 Q 428.6 138.3 383.0 165.0 L 368.0 417.0 z" fill="rgb(255,217,194)" stroke="black"/>
  <text fill="rgb(9,33,173)" font-size="25" x="433.0" y="166.66666666666666">back</text>
  <path d="M 608.0 417.0 L 788.0 417.0 L 773.0 165.0 Q 727.4 138.3 761.0 60.0 L 734.0 60.0 L 698.0 69.0 L 662.0 60.0 L 635.0 60.0 Q 668.6 138.3 623.0 165.0 L 608.0 417.0 z" fill="rgb(255,217,194)" stroke="black"/>
  <text fill="rgb(9,33,173)" font-size="25" x="673.0" y="166.66666666666666">front</text>
  <path d="M 851.0 150.0 L 869.0 150.0 Q 933.8000000000001 158.1 923.0 69.0 L 887.0 78.0 L 848.0 60.0 L 851.0 150.0 z" fill="rgb(255,217,194)" stroke="black"/>
  <text fill="rgb(9,33,173)" font-size="25" x="850.6" y="104.4">Rhood</text>
  <path d="M 983.0 150.0 L 1022.0 132.0 L 1058.0 141.0 Q 1068.8 51.90000000000001 1004.0 60.0 L 986.0 60.0 L 983.0 150.0 z" fill="rgb(255,217,194)" stroke="black"/>
  <text fill="rgb(9,33,173)" font-size="25" x="985.6" y="111.6">Lhood</text>
  <path d="M 1118.0 141.0 L 1190.0 165.0 Q 1235.6 138.3 1202.0 60.0 L 1118.0 60.0 L 1118.0 141.0 z" fill="rgb(255,217,194)" stroke="black"/>
  <text fill="rgb(9,33,173)" font-size="25" x="1132.0" y="109.5">lbsleeve</text>
  <path d="M 1272.0 165.0 L 1356.0 165.0 Q 1389.6 86.7 1344.0 60.0 L 1272.0 84.0 L 1272.0 165.0 z" fill="rgb(255,217,194)" stroke="black"/>
  <text fill="rgb(9,33,173)" font-size="25" x="1286.0" y="121.5">lfsleeve</text>
</svg>
