<?xml version="1.0" encoding="utf-8" ?>
<svg xmlns="http://www.w3.org/2000/svg" xmlns:ev="http://www.w3.org/2001/xml-events" xmlns:xlink="http://www.w3.org/1999/xlink" baseProfile="full" height="258px" version="1.1" width="1020px">
  <defs/>
  <path d="M 60 198 Q 168.0 97.40855617952171 276 198 L 237 102 L 231 60 L 105 60 L 99 102 L 60 198 z" fill="rgb(255,217,194)" stroke="black"/>
  <text fill="rgb(9,33,173)" font-size="25" x="143.0" y="123.0">skirt_back</text>
  <path d="M 336 198 Q 444.0 125.47155588823122 552 198 L 513 102 L 507 60 L 381 60 L 375 102 L 336 198 z" fill="rgb(255,217,194)" stroke="black"/>
  <text fill="rgb(9,33,173)" font-size="25" x="419.0" y="123.0">skirt_front</text>
  <path d="M 621 168 L 747 168 L 756 114 Q 730.8 102.6 744 60 L 726 60 Q 684.0 147.90475783368603 642 60 L 624 60 Q 637.2 102.6 612 114 L 621 168 z" fill="rgb(255,217,194)" stroke="black"/>
  <text fill="rgb(9,33,173)" font-size="25" x="659.0" y="103.5">top_back</text>
  <path d="M 825 165 L 951 165 L 960 114 Q 934.8 102.6 948 60 L 930 60 L 888 120 L 846 60 L 828 60 Q 841.2 102.6 816 114 L 825 165 z" fill="rgb(255,217,194)" stroke="black"/>
  <text fill="rgb(9,33,173)" font-size="25" x="863.0" y="105.0">top_front</text>
</svg>
