<?xml version="1.0" encoding="utf-8" ?>
<svg xmlns="http://www.w3.org/2000/svg" xmlns:ev="http://www.w3.org/2001/xml-events" xmlns:xlink="http://www.w3.org/1999/xlink" baseProfile="full" height="270px" version="1.1" width="1057.4px">
  <defs/>
  <path d="M 60 210 L 105 210 Q 153.3 84.9 153 60 L 90 60 Q 104.7 141.75 60 153 Q 65.7 155.85 60 210 z" fill="rgb(255,217,194)" stroke="black"/>
  <text fill="rgb(9,33,173)" font-size="25" x="68.6" y="141.6">Rback</text>
  <path d="M 261 210 L 306 210 Q 300.3 155.85 306 153 Q 265.95 140.25 276 60 L 213 60 Q 212.7 84.9 261 210 z" fill="rgb(255,217,194)" stroke="black"/>
  <text fill="rgb(9,33,173)" font-size="25" x="247.39999999999998" y="141.6">Rfront</text>
  <path d="M 367.4 168.0 L 433.4 168.0 L 499.4 168.0 L 496.4 123.0 Q 468.5 107.69999999999999 487.4 60.0 L 445.4 60.0 Q 433.4 64.43887953649835 421.4 60.0 L 379.4 60.0 Q 398.29999999999995 107.69999999999999 370.4 123.0 L 367.4 168.0 z" fill="rgb(255,217,194)" stroke="black"/>
  <text fill="rgb(9,33,173)" font-size="25" x="408.40000000000003" y="113.0">up_back</text>
  <path d="M 559.4 165.0 L 625.4 165.0 L 691.4 165.0 L 688.4 123.0 Q 660.4999999999999 107.69999999999999 679.4 60.0 L 637.4 60.0 L 625.4 135.0 L 613.4 60.0 L 571.4 60.0 Q 590.3000000000001 107.69999999999999 562.4 123.0 L 559.4 165.0 z" fill="rgb(255,217,194)" stroke="black"/>
  <text fill="rgb(9,33,173)" font-size="25" x="600.3999999999999" y="114.6">up_front</text>
  <path d="M 799.4 210.0 L 844.4 210.0 Q 838.6999999999999 155.85 844.4 153.0 Q 799.6999999999999 141.75 814.4 60.0 L 751.4 60.0 Q 751.1 84.9 799.4 210.0 z" fill="rgb(255,217,194)" stroke="black"/>
  <text fill="rgb(9,33,173)" font-size="25" x="785.8" y="141.6">Lback</text>
  <path d="M 904.4 210.0 L 949.4 210.0 Q 997.6999999999999 84.9 997.4 60.0 L 934.4 60.0 Q 944.4499999999999 140.25 904.4 153.0 Q 910.1 155.85 904.4 210.0 z" fill="rgb(255,217,194)" stroke="black"/>
  <text fill="rgb(9,33,173)" font-size="25" x="913.0" y="141.6">Lfront</text>
</svg>
