<?xml version="1.0" encoding="utf-8" ?>
<svg xmlns="http://www.w3.org/2000/svg" xmlns:ev="http://www.w3.org/2001/xml-events" xmlns:xlink="http://www.w3.org/1999/xlink" baseProfile="full" height="315px" version="1.1" width="1431.0px">
  <defs/>
  <path d="M 60 255 L 348 255 L 348 60 L 60 60 L 60 255 z" fill="rgb(255,217,194)" stroke="black"/>
  <text fill="rgb(9,33,173)" font-size="25" x="179.0" y="160.5">skirt_back</text>
  <path d="M 408 69 L 498 69 L 498 60 L 408 60 L 408 69 z" fill="rgb(255,217,194)" stroke="black"/>
  <text fill="rgb(9,33,173)" font-size="25" x="428.0" y="67.5">wb_back</text>
  <path d="M 558 69 L 648 69 L 648 60 L 558 60 L 558 69 z" fill="rgb(255,217,194)" stroke="black"/>
  <text fill="rgb(9,33,173)" font-size="25" x="578.0" y="67.5">wb_front</text>
  <path d="M 718.0 255.0 L 1006.0 255.0 L 1006.0 60.0 L 718.0 60.0 L 718.0 255.0 z" fill="rgb(255,217,194)" stroke="black"/>
  <text fill="rgb(9,33,173)" font-size="25" x="837.0" y="160.5">skirt_front</text>
  <path d="M 1066.0 171.0 L 1186.0 171.0 L 1186.0 141.0 Q 1150.8999999999999 120.3 1177.0 60.0 L 1138.0 60.0 Q 1126.0 101.50513434698307 1114.0 60.0 L 1075.0 60.0 Q 1101.1000000000001 120.29999999999998 1066.0 141.0 L 1066.0 171.0 z" fill="rgb(255,217,194)" stroke="black"/>
  <text fill="rgb(9,33,173)" font-size="25" x="1101.0" y="111.0">top_back</text>
  <path d="M 1246.0 171.0 L 1366.0 171.0 L 1366.0 141.0 Q 1330.8999999999999 120.3 1357.0 60.0 L 1318.0 60.0 L 1306.0 135.0 L 1294.0 60.0 L 1255.0 60.0 Q 1281.1000000000001 120.29999999999998 1246.0 141.0 L 1246.0 171.0 z" fill="rgb(255,217,194)" stroke="black"/>
  <text fill="rgb(9,33,173)" font-size="25" x="1281.0" y="114.0">top_front</text>
</svg>
