<?xml version="1.0" encoding="utf-8" ?>
<svg xmlns="http://www.w3.org/2000/svg" xmlns:ev="http://www.w3.org/2001/xml-events" xmlns:xlink="http://www.w3.org/1999/xlink" baseProfile="full" height="381px" version="1.1" width="961.0px">
  <defs/>
  <path d="M 60 321 L 165 321 L 165 108 L 141 60 L 99 60 Q 120.6 117.3 87 135 L 60 321 z" fill="rgb(255,217,194)" stroke="black"/>
  <text fill="rgb(9,33,173)" font-size="25" x="94.5" y="170.5">front_right</text>
  <path d="M 264.5 183.0 L 276.5 186.0 Q 344.0 190.5 327.5 99.0 L 300.5 108.0 L 273.5 60.0 L 264.5 183.0 z" fill="rgb(255,217,194)" stroke="black"/>
  <text fill="rgb(9,33,173)" font-size="25" x="263.5" y="130.2">Rhood</text>
  <path d="M 387.5 321.0 L 597.5 321.0 L 570.5 135.0 Q 536.9 117.3 558.5 60.0 L 516.5 60.0 L 492.5 69.0 L 468.5 60.0 L 426.5 60.0 Q 448.1 117.3 414.5 135.0 L 387.5 321.0 z" fill="rgb(255,217,194)" stroke="black"/>
  <text fill="rgb(9,33,173)" font-size="25" x="467.5" y="138.66666666666666">back</text>
  <path d="M 666.5 186.0 L 693.5 138.0 L 720.5 147.0 Q 737.0 55.5 669.5 60.0 L 657.5 63.0 L 666.5 186.0 z" fill="rgb(255,217,194)" stroke="black"/>
  <text fill="rgb(9,33,173)" font-size="25" x="656.5" y="121.8">Lhood</text>
  <path d="M 780.5 321.0 L 885.5 321.0 L 858.5 135.0 Q 824.9 117.3 846.5 60.0 L 804.5 60.0 L 780.5 108.0 L 780.5 321.0 z" fill="rgb(255,217,194)" stroke="black"/>
  <text fill="rgb(9,33,173)" font-size="25" x="801.0" y="170.5">front_left</text>
</svg>
