<?xml version="1.0" encoding="utf-8" ?>
<svg xmlns="http://www.w3.org/2000/svg" xmlns:ev="http://www.w3.org/2001/xml-events" xmlns:xlink="http://www.w3.org/1999/xlink" baseProfile="full" height="396px" version="1.1" width="874.0px">
  <defs/>
  <path d="M 60 336 L 144 336 L 144 81 L 129 60 L 96 60 Q 110.10000000000001 99.29999999999998 87 111 L 60 336 z" fill="rgb(255,217,194)" stroke="black"/>
  <text fill="rgb(9,33,173)" font-size="25" x="85.0" y="167.0">front_right</text>
  <path d="M 255.0 180.0 L 276.0 180.0 Q 349.8 165.6 306.0 72.0 L 291.0 81.0 L 273.0 60.0 L 255.0 180.0 z" fill="rgb(255,217,194)" stroke="black"/>
  <text fill="rgb(9,33,173)" font-size="25" x="255.2" y="117.6">Rhood</text>
  <path d="M 366.0 336.0 L 534.0 336.0 L 507.0 111.0 Q 483.90000000000003 99.3 498.0 60.0 L 465.0 60.0 L 450.0 69.0 L 435.0 60.0 L 402.0 60.0 Q 416.09999999999997 99.29999999999998 393.0 111.0 L 366.0 336.0 z" fill="rgb(255,217,194)" stroke="black"/>
  <text fill="rgb(9,33,173)" font-size="25" x="425.0" y="136.66666666666666">back</text>
  <path d="M 612.0 180.0 L 630.0 159.0 L 645.0 168.0 Q 688.8 74.4 615.0 60.0 L 594.0 60.0 L 612.0 180.0 z" fill="rgb(255,217,194)" stroke="black"/>
  <text fill="rgb(9,33,173)" font-size="25" x="594.2" y="128.4">Lhood</text>
  <path d="M 705.0 336.0 L 789.0 336.0 L 762.0 111.0 Q 738.9 99.3 753.0 60.0 L 720.0 60.0 L 705.0 81.0 L 705.0 336.0 z" fill="rgb(255,217,194)" stroke="black"/>
  <text fill="rgb(9,33,173)" font-size="25" x="714.0" y="167.0">front_left</text>
</svg>
