<?xml version="1.0" encoding="utf-8" ?>
<svg xmlns="http://www.w3.org/2000/svg" xmlns:ev="http://www.w3.org/2001/xml-events" xmlns:xlink="http://www.w3.org/1999/xlink" baseProfile="full" height="513.0px" version="1.1" width="1379.5px">
  <defs/>
  <path d="M 60 117 L 138 117 Q 145.5 79.5 123 72 L 60 60 L 60 117 z" fill="rgb(255,217,194)" stroke="black"/>
  <text fill="rgb(9,33,173)" font-size="25" x="70.25" y="94.5">rbsleeve</text>
  <path d="M 210.25 117.0 L 273.25 105.0 Q 295.75 97.5 288.25 60.0 L 210.25 60.0 L 210.25 117.0 z" fill="rgb(255,217,194)" stroke="black"/>
  <text fill="rgb(9,33,173)" font-size="25" x="220.5" y="88.5">rfsleeve</text>
  <path d="M 360.5 453.0 L 486.5 453.0 L 486.5 69.0 L 468.5 60.0 L 414.5 60.0 Q 422.0 97.5 399.5 105.0 L 360.5 453.0 z" fill="rgb(255,217,194)" stroke="black"/>
  <text fill="rgb(9,33,173)" font-size="25" x="411.0" y="203.0">front_right</text>
  <path d="M 581.0 453.0 L 833.0 453.0 L 794.0 108.0 Q 770.3 99.6 779.0 60.0 L 725.0 60.0 Q 707.0 90.21642609423975 689.0 60.0 L 635.0 60.0 Q 643.7 99.6 620.0 108.0 L 581.0 453.0 z" fill="rgb(255,217,194)" stroke="black"/>
  <text fill="rgb(9,33,173)" font-size="25" x="682.0" y="173.25">back</text>
  <path d="M 893.0 453.0 L 1019.0 453.0 L 980.0 105.0 Q 957.5 97.5 965.0 60.0 L 911.0 60.0 L 893.0 69.0 L 893.0 453.0 z" fill="rgb(255,217,194)" stroke="black"/>
  <text fill="rgb(9,33,173)" font-size="25" x="918.5" y="203.0">front_left</text>
  <path d="M 1079.0 117.0 L 1142.0 105.0 Q 1164.5 97.5 1157.0 60.0 L 1079.0 60.0 L 1079.0 117.0 z" fill="rgb(255,217,194)" stroke="black"/>
  <text fill="rgb(9,33,173)" font-size="25" x="1089.25" y="88.5">lbsleeve</text>
  <path d="M 1229.25 117.0 L 1307.25 117.0 Q 1314.75 79.5 1292.25 72.0 L 1229.25 60.0 L 1229.25 117.0 z" fill="rgb(255,217,194)" stroke="black"/>
  <text fill="rgb(9,33,173)" font-size="25" x="1239.5" y="94.5">lfsleeve</text>
</svg>
