<?xml version="1.0" encoding="utf-8" ?>
<svg xmlns="http://www.w3.org/2000/svg" xmlns:ev="http://www.w3.org/2001/xml-events" xmlns:xlink="http://www.w3.org/1999/xlink" baseProfile="full" height="276px" version="1.1" width="1399.0px">
  <defs/>
  <path d="M 60 216 L 138 216 Q 153.29999999999998 174.6 129 162 L 60 60 L 60 216 z" fill="rgb(255,217,194)" stroke="black"/>
  <text fill="rgb(9,33,173)" font-size="25" x="71.75" y="166.5">rbsleeve</text>
  <path d="M 211.75 216.0 L 280.75 114.0 Q 305.05 101.39999999999999 289.75 60.0 L 211.75 60.0 L 211.75 216.0 z" fill="rgb(255,217,194)" stroke="black"/>
  <text fill="rgb(9,33,173)" font-size="25" x="223.5" y="115.5">rfsleeve</text>
  <path d="M 363.5 156.0 L 669.5 156.0 L 576.5 117.0 Q 551.0 103.5 567.5 60.0 L 531.5 60.0 Q 516.5 85.45119835101983 501.5 60.0 L 465.5 60.0 Q 482.0 103.5 456.5 117.0 L 363.5 156.0 z" fill="rgb(255,217,194)" stroke="black"/>
  <text fill="rgb(9,33,173)" font-size="25" x="491.5" y="101.25">back</text>
  <path d="M 729.5 156.0 L 1035.5 156.0 L 942.5 114.0 Q 918.1999999999999 101.39999999999999 933.5 60.0 L 897.5 60.0 L 882.5 117.0 L 867.5 60.0 L 831.5 60.0 Q 846.8000000000001 101.39999999999999 822.5 114.0 L 729.5 156.0 z" fill="rgb(255,217,194)" stroke="black"/>
  <text fill="rgb(9,33,173)" font-size="25" x="857.5" y="102.66666666666667">front</text>
  <path d="M 1095.5 216.0 L 1164.5 114.0 Q 1188.8 101.39999999999999 1173.5 60.0 L 1095.5 60.0 L 1095.5 216.0 z" fill="rgb(255,217,194)" stroke="black"/>
  <text fill="rgb(9,33,173)" font-size="25" x="1107.25" y="115.5">lbsleeve</text>
  <path d="M 1247.25 216.0 L 1325.25 216.0 Q 1340.55 174.6 1316.25 162.0 L 1247.25 60.0 L 1247.25 216.0 z" fill="rgb(255,217,194)" stroke="black"/>
  <text fill="rgb(9,33,173)" font-size="25" x="1259.0" y="166.5">lfsleeve</text>
</svg>
