<?xml version="1.0" encoding="utf-8" ?>
<svg xmlns="http://www.w3.org/2000/svg" xmlns:ev="http://www.w3.org/2001/xml-events" xmlns:xlink="http://www.w3.org/1999/xlink" baseProfile="full" height="237.0px" version="1.1" width="1541.0px">
  <defs/>
  <path d="M 60 159 L 120 159 Q 143.1 94.2 105 75 L 60 60 L 60 159 z" fill="rgb(255,217,194)" stroke="black"/>
  <text fill="rgb(9,33,173)" font-size="25" x="61.25" y="116.25">rbsleeve</text>
  <path d="M 201.25 159.0 L 246.25 144.0 Q 284.35 124.8 261.25 60.0 L 201.25 60.0 L 201.25 159.0 z" fill="rgb(255,217,194)" stroke="black"/>
  <text fill="rgb(9,33,173)" font-size="25" x="202.5" y="108.75">rfsleeve</text>
  <path d="M 348.5 177.0 Q 423.5 182.95353958916306 498.5 177.0 L 504.5 102.0 L 501.5 60.0 L 345.5 60.0 L 342.5 102.0 L 348.5 177.0 z" fill="rgb(255,217,194)" stroke="black"/>
  <text fill="rgb(9,33,173)" font-size="25" x="398.5" y="116.0">skirt_back</text>
  <path d="M 570.5 177.0 Q 645.5 188.10456788828452 720.5 177.0 L 726.5 102.0 L 723.5 60.0 L 567.5 60.0 L 564.5 102.0 L 570.5 177.0 z" fill="rgb(255,217,194)" stroke="black"/>
  <text fill="rgb(9,33,173)" font-size="25" x="620.5" y="116.0">skirt_front</text>
  <path d="M 799.5 168.0 L 955.5 168.0 L 964.5 144.0 Q 926.4 124.8 949.5 60.0 L 898.5 60.0 Q 877.5 68.25499091896828 856.5 60.0 L 805.5 60.0 Q 828.6 124.8 790.5 144.0 L 799.5 168.0 z" fill="rgb(255,217,194)" stroke="black"/>
  <text fill="rgb(9,33,173)" font-size="25" x="852.5" y="111.0">top_back</text>
  <path d="M 1033.5 165.0 L 1189.5 165.0 L 1198.5 144.0 Q 1160.4 124.8 1183.5 60.0 L 1132.5 60.0 L 1111.5 117.0 L 1090.5 60.0 L 1039.5 60.0 Q 1062.6 124.8 1024.5 144.0 L 1033.5 165.0 z" fill="rgb(255,217,194)" stroke="black"/>
  <text fill="rgb(9,33,173)" font-size="25" x="1086.5" y="111.33333333333333">top_front</text>
  <path d="M 1258.5 159.0 L 1303.5 144.0 Q 1341.6 124.8 1318.5 60.0 L 1258.5 60.0 L 1258.5 159.0 z" fill="rgb(255,217,194)" stroke="black"/>
  <text fill="rgb(9,33,173)" font-size="25" x="1259.75" y="108.75">lbsleeve</text>
  <path d="M 1399.75 159.0 L 1459.75 159.0 Q 1482.85 94.2 1444.75 75.0 L 1399.75 60.0 L 1399.75 159.0 z" fill="rgb(255,217,194)" stroke="black"/>
  <text fill="rgb(9,33,173)" font-size="25" x="1401.0" y="116.25">lfsleeve</text>
</svg>
