<?xml version="1.0" encoding="utf-8" ?>
<svg xmlns="http://www.w3.org/2000/svg" xmlns:ev="http://www.w3.org/2001/xml-events" xmlns:xlink="http://www.w3.org/1999/xlink" baseProfile="full" height="249px" version="1.1" width="1498.0px">
  <defs/>
  <path d="M 60 189 L 147 189 L 180 60 L 90 60 Q 97.5 128.25 60 135 Q 65.4 137.7 60 189 z" fill="rgb(255,217,194)" stroke="black"/>
  <text fill="rgb(9,33,173)" font-size="25" x="82.4" y="129.6">Rback</text>
  <path d="M 273 189 L 360 189 Q 354.6 137.7 360 135 Q 326.25 126.75 330 60 L 240 60 L 273 189 z" fill="rgb(255,217,194)" stroke="black"/>
  <text fill="rgb(9,33,173)" font-size="25" x="287.6" y="129.6">Rfront</text>
  <path d="M 420 69 L 459 69 L 498 69 L 498 60 L 420 60 L 420 69 z" fill="rgb(255,217,194)" stroke="black"/>
  <text fill="rgb(9,33,173)" font-size="25" x="434.0" y="68.4">wb_back</text>
  <path d="M 564.0 69.0 L 603.0 69.0 L 642.0 69.0 L 642.0 60.0 L 564.0 60.0 L 564.0 69.0 z" fill="rgb(255,217,194)" stroke="black"/>
  <text fill="rgb(9,33,173)" font-size="25" x="578.0" y="68.4">wb_front</text>
  <path d="M 718.0 180.0 L 868.0 180.0 L 868.0 117.0 Q 841.6 104.7 856.0 60.0 L 820.0 60.0 Q 793.0 64.17751136760401 766.0 60.0 L 730.0 60.0 Q 744.4 104.7 718.0 117.0 L 718.0 180.0 z" fill="rgb(255,217,194)" stroke="black"/>
  <text fill="rgb(9,33,173)" font-size="25" x="768.0" y="107.25">top_back</text>
  <path d="M 928.0 180.0 L 1078.0 180.0 L 1078.0 117.0 Q 1051.6000000000001 104.7 1066.0 60.0 L 1030.0 60.0 L 1003.0 69.0 L 976.0 60.0 L 940.0 60.0 Q 954.4 104.7 928.0 117.0 L 928.0 180.0 z" fill="rgb(255,217,194)" stroke="black"/>
  <text fill="rgb(9,33,173)" font-size="25" x="978.0" y="103.33333333333333">top_front</text>
  <path d="M 1171.0 189.0 L 1258.0 189.0 Q 1252.6 137.7 1258.0 135.0 Q 1220.5 128.25 1228.0 60.0 L 1138.0 60.0 L 1171.0 189.0 z" fill="rgb(255,217,194)" stroke="black"/>
  <text fill="rgb(9,33,173)" font-size="25" x="1185.6" y="129.6">Lback</text>
  <path d="M 1318.0 189.0 L 1405.0 189.0 L 1438.0 60.0 L 1348.0 60.0 Q 1351.75 126.75 1318.0 135.0 Q 1323.4 137.7 1318.0 189.0 z" fill="rgb(255,217,194)" stroke="black"/>
  <text fill="rgb(9,33,173)" font-size="25" x="1340.4" y="129.6">Lfront</text>
</svg>
