<?xml version="1.0" encoding="utf-8" ?>
<svg xmlns="http://www.w3.org/2000/svg" xmlns:ev="http://www.w3.org/2001/xml-events" xmlns:xlink="http://www.w3.org/1999/xlink" baseProfile="full" height="270px" version="1.1" width="742.0px">
  <defs/>
  <path d="M 60 210 L 174 210 L 174 126 L 156 60 L 114 60 Q 128.4 104.7 102 117 L 60 210 z" fill="rgb(255,217,194)" stroke="black"/>
  <text fill="rgb(9,33,173)" font-size="25" x="105.0" y="133.5">front_right</text>
  <path d="M 275.0 210.0 L 503.0 210.0 L 461.0 117.0 Q 434.59999999999997 104.7 449.0 60.0 L 407.0 60.0 Q 389.0 62.778305422859404 371.0 60.0 L 329.0 60.0 Q 343.40000000000003 104.7 317.0 117.0 L 275.0 210.0 z" fill="rgb(255,217,194)" stroke="black"/>
  <text fill="rgb(9,33,173)" font-size="25" x="364.0" y="114.75">back</text>
  <path d="M 563.0 210.0 L 677.0 210.0 L 635.0 117.0 Q 608.6 104.7 623.0 60.0 L 581.0 60.0 L 563.0 126.0 L 563.0 210.0 z" fill="rgb(255,217,194)" stroke="black"/>
  <text fill="rgb(9,33,173)" font-size="25" x="582.0" y="133.5">front_left</text>
</svg>
