<?xml version="1.0" encoding="utf-8" ?>
<svg xmlns="http://www.w3.org/2000/svg" xmlns:ev="http://www.w3.org/2001/xml-events" xmlns:xlink="http://www.w3.org/1999/xlink" baseProfile="full" height="267px" version="1.1" width="1296px">
  <defs/>
  <path d="M 60 207 Q 225.0 267.51664545580485 390 207 L 303 102 L 282 60 L 168 60 L 147 102 L 60 207 z" fill="rgb(255,217,194)" stroke="black"/>
  <text fill="rgb(9,33,173)" font-size="25" x="200.0" y="126.0">skirt_back</text>
  <path d="M 450 207 Q 615.0 195.28617744124793 780 207 L 693 102 L 672 60 L 558 60 L 537 102 L 450 207 z" fill="rgb(255,217,194)" stroke="black"/>
  <text fill="rgb(9,33,173)" font-size="25" x="590.0" y="126.0">skirt_front</text>
  <path d="M 867 168 L 981 168 L 1008 120 Q 980.4 106.8 996 60 L 939 60 Q 924.0 80.05120506656984 909 60 L 852 60 Q 867.6 106.8 840 120 L 867 168 z" fill="rgb(255,217,194)" stroke="black"/>
  <text fill="rgb(9,33,173)" font-size="25" x="899.0" y="105.0">top_back</text>
  <path d="M 1095 165 L 1209 165 L 1236 120 Q 1208.4 106.8 1224 60 L 1167 60 L 1152 129 L 1137 60 L 1080 60 Q 1095.6 106.8 1068 120 L 1095 165 z" fill="rgb(255,217,194)" stroke="black"/>
  <text fill="rgb(9,33,173)" font-size="25" x="1127.0" y="107.33333333333333">top_front</text>
</svg>
