<?xml version="1.0" encoding="utf-8" ?>
<svg xmlns="http://www.w3.org/2000/svg" xmlns:ev="http://www.w3.org/2001/xml-events" xmlns:xlink="http://www.w3.org/1999/xlink" baseProfile="full" height="519.0px" version="1.1" width="1570.0px">
  <defs/>
  <path d="M 60 222 L 78 222 Q 88.8 183.6 66 174 L 60 60 L 60 222 z" fill="rgb(255,217,194)" stroke="black"/>
  <text fill="rgb(9,33,173)" font-size="25" x="41.0" y="172.5">rbsleeve</text>
  <path d="M 181.0 222.0 L 187.0 108.0 Q 209.8 98.39999999999999 199.0 60.0 L 181.0 60.0 L 181.0 222.0 z" fill="rgb(255,217,194)" stroke="black"/>
  <text fill="rgb(9,33,173)" font-size="25" x="162.0" y="115.5">rfsleeve</text>
  <path d="M 302.0 459.0 L 626.0 459.0 L 539.0 111.0 Q 515.0 100.5 527.0 60.0 L 500.0 60.0 L 464.0 69.0 L 428.0 60.0 L 401.0 60.0 Q 413.0 100.49999999999999 389.0 111.0 L 302.0 459.0 z" fill="rgb(255,217,194)" stroke="black"/>
  <text fill="rgb(9,33,173)" font-size="25" x="439.0" y="164.0">back</text>
  <path d="M 686.0 459.0 L 1010.0 459.0 L 923.0 111.0 Q 899.0 100.5 911.0 60.0 L 884.0 60.0 L 848.0 72.0 L 812.0 60.0 L 785.0 60.0 Q 797.0 100.49999999999999 773.0 111.0 L 686.0 459.0 z" fill="rgb(255,217,194)" stroke="black"/>
  <text fill="rgb(9,33,173)" font-size="25" x="823.0" y="164.33333333333334">front</text>
  <path d="M 1070.0 156.0 L 1091.0 156.0 Q 1155.8000000000002 159.60000000000002 1139.0 72.0 L 1106.0 81.0 L 1070.0 60.0 L 1070.0 156.0 z" fill="rgb(255,217,194)" stroke="black"/>
  <text fill="rgb(9,33,173)" font-size="25" x="1070.2" y="108.0">Rhood</text>
  <path d="M 1199.0 156.0 L 1235.0 135.0 L 1268.0 144.0 Q 1284.8000000000002 56.400000000000006 1220.0 60.0 L 1199.0 60.0 L 1199.0 156.0 z" fill="rgb(255,217,194)" stroke="black"/>
  <text fill="rgb(9,33,173)" font-size="25" x="1199.2" y="114.0">Lhood</text>
  <path d="M 1328.0 222.0 L 1334.0 108.0 Q 1356.8 98.39999999999999 1346.0 60.0 L 1328.0 60.0 L 1328.0 222.0 z" fill="rgb(255,217,194)" stroke="black"/>
  <text fill="rgb(9,33,173)" font-size="25" x="1309.0" y="115.5">lbsleeve</text>
  <path d="M 1449.0 222.0 L 1467.0 222.0 Q 1477.8 183.6 1455.0 174.0 L 1449.0 60.0 L 1449.0 222.0 z" fill="rgb(255,217,194)" stroke="black"/>
  <text fill="rgb(9,33,173)" font-size="25" x="1430.0" y="172.5">lfsleeve</text>
</svg>
