<?xml version="1.0" encoding="utf-8" ?>
<svg xmlns="http://www.w3.org/2000/svg" xmlns:ev="http://www.w3.org/2001/xml-events" xmlns:xlink="http://www.w3.org/1999/xlink" baseProfile="full" height="399px" version="1.1" width="1020px">
  <defs/>
  <path d="M 60 339 L 129 339 Q 160.79999999999998 102.89999999999999 150 60 L 90 60 Q 104.7 141.75 60 153 Q 78.6 162.3 60 339 z" fill="rgb(255,217,194)" stroke="black"/>
  <text fill="rgb(9,33,173)" font-size="25" x="72.8" y="193.2">Rback</text>
  <path d="M 231 339 L 300 339 Q 281.4 162.3 300 153 Q 259.95 140.25 270 60 L 210 60 Q 199.20000000000002 102.89999999999999 231 339 z" fill="rgb(255,217,194)" stroke="black"/>
  <text fill="rgb(9,33,173)" font-size="25" x="237.2" y="193.2">Rfront</text>
  <path d="M 360 168 L 420 168 L 480 168 L 480 117 Q 454.5 103.5 471 60 L 435 60 Q 420.0 88.46905863341998 405 60 L 369 60 Q 385.5 103.5 360 117 L 360 168 z" fill="rgb(255,217,194)" stroke="black"/>
  <text fill="rgb(9,33,173)" font-size="25" x="395.0" y="111.66666666666667">up_back</text>
  <path d="M 540 165 L 600 165 L 660 165 L 660 114 Q 635.6999999999999 101.39999999999999 651 60 L 615 60 L 600 111 L 585 60 L 549 60 Q 564.3000000000001 101.39999999999999 540 114 L 540 165 z" fill="rgb(255,217,194)" stroke="black"/>
  <text fill="rgb(9,33,173)" font-size="25" x="575.0" y="110.4">up_front</text>
  <path d="M 741 339 L 810 339 Q 791.4 162.3 810 153 Q 765.3 141.75 780 60 L 720 60 Q 709.1999999999999 102.89999999999999 741 339 z" fill="rgb(255,217,194)" stroke="black"/>
  <text fill="rgb(9,33,173)" font-size="25" x="747.2" y="193.2">Lback</text>
  <path d="M 870 339 L 939 339 Q 970.8000000000001 102.89999999999999 960 60 L 900 60 Q 910.05 140.25 870 153 Q 888.6 162.3 870 339 z" fill="rgb(255,217,194)" stroke="black"/>
  <text fill="rgb(9,33,173)" font-size="25" x="882.8" y="193.2">Lfront</text>
</svg>
