<?xml version="1.0" encoding="utf-8" ?>
<svg xmlns="http://www.w3.org/2000/svg" xmlns:ev="http://www.w3.org/2001/xml-events" xmlns:xlink="http://www.w3.org/1999/xlink" baseProfile="full" height="309.0px" version="1.1" width="1577.4px">
  <defs/>
  <path d="M 60 183 L 84 183 Q 106.8 123.60000000000001 72 105 L 60 60 L 60 183 z" fill="rgb(255,217,194)" stroke="black"/>
  <text fill="rgb(9,33,173)" font-size="25" x="44.0" y="135.75">rbsleeve</text>
  <path d="M 184.0 183.0 L 196.0 138.0 Q 230.8 119.39999999999999 208.0 60.0 L 184.0 60.0 L 184.0 183.0 z" fill="rgb(255,217,194)" stroke="black"/>
  <text fill="rgb(9,33,173)" font-size="25" x="168.0" y="113.25">rfsleeve</text>
  <path d="M 308.0 249.0 L 353.0 249.0 Q 403.25 90.75 401.0 60.0 L 338.0 60.0 Q 352.7 141.75 308.0 153.0 Q 317.6 157.8 308.0 249.0 z" fill="rgb(255,217,194)" stroke="black"/>
  <text fill="rgb(9,33,173)" font-size="25" x="316.6" y="157.2">Rback</text>
  <path d="M 509.0 249.0 L 554.0 249.0 Q 544.4 157.8 554.0 153.0 Q 513.95 140.25 524.0 60.0 L 461.0 60.0 Q 458.75 90.75 509.0 249.0 z" fill="rgb(255,217,194)" stroke="black"/>
  <text fill="rgb(9,33,173)" font-size="25" x="495.4" y="157.2">Rfront</text>
  <path d="M 627.4 168.0 L 687.4 168.0 L 747.4 168.0 L 759.4 138.0 Q 724.5999999999999 119.39999999999999 747.4 60.0 L 723.4 60.0 Q 687.4 90.29235175347961 651.4 60.0 L 627.4 60.0 Q 650.2 119.39999999999999 615.4 138.0 L 627.4 168.0 z" fill="rgb(255,217,194)" stroke="black"/>
  <text fill="rgb(9,33,173)" font-size="25" x="662.3999999999999" y="116.33333333333333">up_back</text>
  <path d="M 831.4 165.0 L 891.4 165.0 L 951.4 165.0 L 963.4 138.0 Q 928.5999999999999 119.39999999999999 951.4 60.0 L 927.4 60.0 L 891.4 90.0 L 855.4 60.0 L 831.4 60.0 Q 854.2 119.39999999999999 819.4 138.0 L 831.4 165.0 z" fill="rgb(255,217,194)" stroke="black"/>
  <text fill="rgb(9,33,173)" font-size="25" x="866.3999999999999" y="113.1">up_front</text>
  <path d="M 1071.4 249.0 L 1116.4 249.0 Q 1106.8000000000002 157.8 1116.4 153.0 Q 1071.7 141.75 1086.4 60.0 L 1023.4 60.0 Q 1021.1499999999999 90.75 1071.4 249.0 z" fill="rgb(255,217,194)" stroke="black"/>
  <text fill="rgb(9,33,173)" font-size="25" x="1057.8" y="157.2">Lback</text>
  <path d="M 1176.4 249.0 L 1221.4 249.0 Q 1271.65 90.75 1269.4 60.0 L 1206.4 60.0 Q 1216.45 140.25 1176.4 153.0 Q 1186.0 157.8 1176.4 249.0 z" fill="rgb(255,217,194)" stroke="black"/>
  <text fill="rgb(9,33,173)" font-size="25" x="1185.0" y="157.2">Lfront</text>
  <path d="M 1329.4 183.0 L 1341.4 138.0 Q 1376.2 119.39999999999999 1353.4 60.0 L 1329.4 60.0 L 1329.4 183.0 z" fill="rgb(255,217,194)" stroke="black"/>
  <text fill="rgb(9,33,173)" font-size="25" x="1313.4" y="113.25">lbsleeve</text>
  <path d="M 1453.4 183.0 L 1477.4 183.0 Q 1500.2 123.60000000000001 1465.4 105.0 L 1453.4 60.0 L 1453.4 183.0 z" fill="rgb(255,217,194)" stroke="black"/>
  <text fill="rgb(9,33,173)" font-size="25" x="1437.4" y="135.75">lfsleeve</text>
</svg>
