<?xml version="1.0" encoding="utf-8" ?>
<svg xmlns="http://www.w3.org/2000/svg" xmlns:ev="http://www.w3.org/2001/xml-events" xmlns:xlink="http://www.w3.org/1999/xlink" baseProfile="full" height="246px" version="1.1" width="1546.0px">
  <defs/>
  <path d="M 60 186 L 186 186 L 192 60 L 90 60 Q 96.3 126.0 60 132 Q 65.4 134.7 60 186 z" fill="rgb(255,217,194)" stroke="black"/>
  <text fill="rgb(9,33,173)" font-size="25" x="92.6" y="127.8">Rback</text>
  <path d="M 258 186 L 384 186 Q 378.6 134.7 384 132 Q 351.3 124.5 354 60 L 252 60 L 258 186 z" fill="rgb(255,217,194)" stroke="black"/>
  <text fill="rgb(9,33,173)" font-size="25" x="301.4" y="127.8">Rfront</text>
  <path d="M 444 69 L 483 69 L 522 69 L 522 60 L 444 60 L 444 69 z" fill="rgb(255,217,194)" stroke="black"/>
  <text fill="rgb(9,33,173)" font-size="25" x="458.0" y="68.4">wb_back</text>
  <path d="M 588.0 69.0 L 627.0 69.0 L 666.0 69.0 L 666.0 60.0 L 588.0 60.0 L 588.0 69.0 z" fill="rgb(255,217,194)" stroke="black"/>
  <text fill="rgb(9,33,173)" font-size="25" x="602.0" y="68.4">wb_front</text>
  <path d="M 742.0 168.0 L 892.0 168.0 L 892.0 132.0 Q 859.6 115.2 880.0 60.0 L 841.0 60.0 Q 817.0 102.96603449035052 793.0 60.0 L 754.0 60.0 Q 774.4 115.2 742.0 132.0 L 742.0 168.0 z" fill="rgb(255,217,194)" stroke="black"/>
  <text fill="rgb(9,33,173)" font-size="25" x="792.0" y="108.0">top_back</text>
  <path d="M 952.0 168.0 L 1102.0 168.0 L 1102.0 132.0 Q 1069.6000000000001 115.2 1090.0 60.0 L 1051.0 60.0 L 1027.0 99.0 L 1003.0 60.0 L 964.0 60.0 Q 984.4 115.2 952.0 132.0 L 952.0 168.0 z" fill="rgb(255,217,194)" stroke="black"/>
  <text fill="rgb(9,33,173)" font-size="25" x="1002.0" y="107.33333333333333">top_front</text>
  <path d="M 1168.0 186.0 L 1294.0 186.0 Q 1288.6 134.7 1294.0 132.0 Q 1257.7 126.0 1264.0 60.0 L 1162.0 60.0 L 1168.0 186.0 z" fill="rgb(255,217,194)" stroke="black"/>
  <text fill="rgb(9,33,173)" font-size="25" x="1211.4" y="127.8">Lback</text>
  <path d="M 1354.0 186.0 L 1480.0 186.0 L 1486.0 60.0 L 1384.0 60.0 Q 1386.7 124.5 1354.0 132.0 Q 1359.4 134.7 1354.0 186.0 z" fill="rgb(255,217,194)" stroke="black"/>
  <text fill="rgb(9,33,173)" font-size="25" x="1386.6" y="127.8">Lfront</text>
</svg>
