<?xml version="1.0" encoding="utf-8" ?>
<svg xmlns="http://www.w3.org/2000/svg" xmlns:ev="http://www.w3.org/2001/xml-events" xmlns:xlink="http://www.w3.org/1999/xlink" baseProfile="full" height="294px" version="1.1" width="1224.0px">
  <defs/>
  <path d="M 60 234 L 240 234 L 240 60 L 60 60 L 60 234 z" fill="rgb(255,217,194)" stroke="black"/>
  <text fill="rgb(9,33,173)" font-size="25" x="125.0" y="150.0">skirt_back</text>
  <path d="M 300 78 L 390 78 L 390 60 L 300 60 L 300 78 z" fill="rgb(255,217,194)" stroke="black"/>
  <text fill="rgb(9,33,173)" font-size="25" x="320.0" y="72.0">wb_back</text>
  <path d="M 450 78 L 540 78 L 540 60 L 450 60 L 450 78 z" fill="rgb(255,217,194)" stroke="black"/>
  <text fill="rgb(9,33,173)" font-size="25" x="470.0" y="72.0">wb_front</text>
  <path d="M 610.0 234.0 L 790.0 234.0 L 790.0 60.0 L 610.0 60.0 L 610.0 234.0 z" fill="rgb(255,217,194)" stroke="black"/>
  <text fill="rgb(9,33,173)" font-size="25" x="675.0" y="150.0">skirt_front</text>
  <path d="M 850.0 153.0 L 976.0 153.0 L 976.0 144.0 Q 938.8 123.6 964.0 60.0 L 931.0 60.0 Q 913.0 131.46903989703756 895.0 60.0 L 862.0 60.0 Q 887.2 123.6 850.0 144.0 L 850.0 153.0 z" fill="rgb(255,217,194)" stroke="black"/>
  <text fill="rgb(9,33,173)" font-size="25" x="888.0" y="107.25">top_back</text>
  <path d="M 1036.0 150.0 L 1162.0 150.0 L 1162.0 144.0 Q 1124.8000000000002 123.6 1150.0 60.0 L 1117.0 60.0 L 1099.0 132.0 L 1081.0 60.0 L 1048.0 60.0 Q 1073.1999999999998 123.6 1036.0 144.0 L 1036.0 150.0 z" fill="rgb(255,217,194)" stroke="black"/>
  <text fill="rgb(9,33,173)" font-size="25" x="1074.0" y="109.66666666666667">top_front</text>
</svg>
