<?xml version="1.0" encoding="utf-8" ?>
<svg xmlns="http://www.w3.org/2000/svg" xmlns:ev="http://www.w3.org/2001/xml-events" xmlns:xlink="http://www.w3.org/1999/xlink" baseProfile="full" height="447.0px" version="1.1" width="1322.0px">
  <defs/>
  <path d="M 60 213 L 105 213 Q 130.5 144.0 90 123 L 60 60 L 60 213 z" fill="rgb(255,217,194)" stroke="black"/>
  <text fill="rgb(9,33,173)" font-size="25" x="53.75" y="155.25">rbsleeve</text>
  <path d="M 193.75 213.0 L 223.75 150.0 Q 264.25 129.0 238.75 60.0 L 193.75 60.0 L 193.75 213.0 z" fill="rgb(255,217,194)" stroke="black"/>
  <text fill="rgb(9,33,173)" font-size="25" x="187.5" y="123.75">rfsleeve</text>
  <path d="M 327.5 387.0 L 456.5 387.0 L 456.5 72.0 L 411.5 60.0 L 381.5 60.0 Q 409.1 127.8 369.5 150.0 L 327.5 387.0 z" fill="rgb(255,217,194)" stroke="black"/>
  <text fill="rgb(9,33,173)" font-size="25" x="375.5" y="189.0">front_right</text>
  <path d="M 545.5 387.0 L 803.5 387.0 L 761.5 150.0 Q 721.9 127.8 749.5 60.0 L 719.5 60.0 Q 674.5 331.0141960703548 629.5 60.0 L 599.5 60.0 Q 627.1 127.8 587.5 150.0 L 545.5 387.0 z" fill="rgb(255,217,194)" stroke="black"/>
  <text fill="rgb(9,33,173)" font-size="25" x="649.5" y="167.25">back</text>
  <path d="M 863.5 387.0 L 992.5 387.0 L 950.5 150.0 Q 910.9 127.8 938.5 60.0 L 908.5 60.0 L 863.5 72.0 L 863.5 387.0 z" fill="rgb(255,217,194)" stroke="black"/>
  <text fill="rgb(9,33,173)" font-size="25" x="894.5" y="189.0">front_left</text>
  <path d="M 1054.5 213.0 L 1084.5 150.0 Q 1125.0 129.0 1099.5 60.0 L 1054.5 60.0 L 1054.5 213.0 z" fill="rgb(255,217,194)" stroke="black"/>
  <text fill="rgb(9,33,173)" font-size="25" x="1048.25" y="123.75">lbsleeve</text>
  <path d="M 1188.25 213.0 L 1233.25 213.0 Q 1258.75 144.0 1218.25 123.0 L 1188.25 60.0 L 1188.25 213.0 z" fill="rgb(255,217,194)" stroke="black"/>
  <text fill="rgb(9,33,173)" font-size="25" x="1182.0" y="155.25">lfsleeve</text>
</svg>
