<?xml version="1.0" encoding="utf-8" ?>
<svg xmlns="http://www.w3.org/2000/svg" xmlns:ev="http://www.w3.org/2001/xml-events" xmlns:xlink="http://www.w3.org/1999/xlink" baseProfile="full" height="297px" version="1.1" width="1128px">
  <defs/>
  <path d="M 60 237 L 111 237 Q 163.2 89.10000000000001 162 60 L 90 60 Q 104.7 141.75 60 153 Q 68.4 157.2 60 237 z" fill="rgb(255,217,194)" stroke="black"/>
  <text fill="rgb(9,33,173)" font-size="25" x="71.6" y="152.4">Rback</text>
  <path d="M 273 237 L 324 237 Q 315.6 157.2 324 153 Q 283.95 140.25 294 60 L 222 60 Q 220.8 89.1 273 237 z" fill="rgb(255,217,194)" stroke="black"/>
  <text fill="rgb(9,33,173)" font-size="25" x="262.4" y="152.4">Rfront</text>
  <path d="M 384 168 L 459 168 L 534 168 L 534 102 Q 513.6 94.2 522 60 L 495 60 Q 459.0 111.26357400413494 423 60 L 396 60 Q 404.40000000000003 94.2 384 102 L 384 168 z" fill="rgb(255,217,194)" stroke="black"/>
  <text fill="rgb(9,33,173)" font-size="25" x="434.0" y="108.33333333333333">up_back</text>
  <path d="M 594 165 L 669 165 L 744 165 L 744 102 Q 723.6 94.2 732 60 L 705 60 L 669 111 L 633 60 L 606 60 Q 614.4 94.2 594 102 L 594 165 z" fill="rgb(255,217,194)" stroke="black"/>
  <text fill="rgb(9,33,173)" font-size="25" x="644.0" y="108.0">up_front</text>
  <path d="M 855 237 L 906 237 Q 897.6 157.2 906 153 Q 861.3 141.75 876 60 L 804 60 Q 802.8 89.1 855 237 z" fill="rgb(255,217,194)" stroke="black"/>
  <text fill="rgb(9,33,173)" font-size="25" x="844.4" y="152.4">Lback</text>
  <path d="M 966 237 L 1017 237 Q 1069.1999999999998 89.10000000000001 1068 60 L 996 60 Q 1006.05 140.25 966 153 Q 974.4 157.2 966 237 z" fill="rgb(255,217,194)" stroke="black"/>
  <text fill="rgb(9,33,173)" font-size="25" x="977.6" y="152.4">Lfront</text>
</svg>
