<?xml version="1.0" encoding="utf-8" ?>
<svg xmlns="http://www.w3.org/2000/svg" xmlns:ev="http://www.w3.org/2001/xml-events" xmlns:xlink="http://www.w3.org/1999/xlink" baseProfile="full" height="282.0px" version="1.1" width="1699.0px">
  <defs/>
  <path d="M 60 201 L 114 201 Q 150.3 113.10000000000001 99 84 L 60 60 L 60 201 z" fill="rgb(255,217,194)" stroke="black"/>
  <text fill="rgb(9,33,173)" font-size="25" x="58.25" y="139.5">rbsleeve</text>
  <path d="M 198.25 201.0 L 237.25 177.0 Q 288.55 147.9 252.25 60.0 L 198.25 60.0 L 198.25 201.0 z" fill="rgb(255,217,194)" stroke="black"/>
  <text fill="rgb(9,33,173)" font-size="25" x="196.5" y="127.5">rfsleeve</text>
  <path d="M 336.5 222.0 L 672.5 222.0 L 591.5 177.0 Q 540.2 147.9 576.5 60.0 L 549.5 60.0 L 504.5 69.0 L 459.5 60.0 L 432.5 60.0 Q 468.8 147.89999999999998 417.5 177.0 L 336.5 222.0 z" fill="rgb(255,217,194)" stroke="black"/>
  <text fill="rgb(9,33,173)" font-size="25" x="479.5" y="126.0">back</text>
  <path d="M 732.5 222.0 L 1068.5 222.0 L 987.5 177.0 Q 936.2 147.9 972.5 60.0 L 945.5 60.0 L 900.5 66.0 L 855.5 60.0 L 828.5 60.0 Q 864.8 147.89999999999998 813.5 177.0 L 732.5 222.0 z" fill="rgb(255,217,194)" stroke="black"/>
  <text fill="rgb(9,33,173)" font-size="25" x="875.5" y="125.66666666666667">front</text>
  <path d="M 1137.5 150.0 L 1197.5 156.0 Q 1256.9 139.8 1215.5 66.0 L 1173.5 75.0 L 1128.5 60.0 L 1137.5 150.0 z" fill="rgb(255,217,194)" stroke="black"/>
  <text fill="rgb(9,33,173)" font-size="25" x="1145.5" y="104.4">Rhood</text>
  <path d="M 1275.5 156.0 L 1320.5 141.0 L 1362.5 150.0 Q 1403.9 76.2 1344.5 60.0 L 1284.5 66.0 L 1275.5 156.0 z" fill="rgb(255,217,194)" stroke="black"/>
  <text fill="rgb(9,33,173)" font-size="25" x="1292.5" y="117.6">Lhood</text>
  <path d="M 1422.5 201.0 L 1461.5 177.0 Q 1512.8 147.9 1476.5 60.0 L 1422.5 60.0 L 1422.5 201.0 z" fill="rgb(255,217,194)" stroke="black"/>
  <text fill="rgb(9,33,173)" font-size="25" x="1420.75" y="127.5">lbsleeve</text>
  <path d="M 1560.75 201.0 L 1614.75 201.0 Q 1651.05 113.10000000000001 1599.75 84.0 L 1560.75 60.0 L 1560.75 201.0 z" fill="rgb(255,217,194)" stroke="black"/>
  <text fill="rgb(9,33,173)" font-size="25" x="1559.0" y="139.5">lfsleeve</text>
</svg>
