<?xml version="1.0" encoding="utf-8" ?>
<svg xmlns="http://www.w3.org/2000/svg" xmlns:ev="http://www.w3.org/2001/xml-events" xmlns:xlink="http://www.w3.org/1999/xlink" baseProfile="full" height="315px" version="1.1" width="1530.0px">
  <defs/>
  <path d="M 60 255 L 402 255 L 402 60 L 60 60 L 60 255 z" fill="rgb(255,217,194)" stroke="black"/>
  <text fill="rgb(9,33,173)" font-size="25" x="206.0" y="160.5">skirt_back</text>
  <path d="M 462 81 L 552 81 L 552 60 L 462 60 L 462 81 z" fill="rgb(255,217,194)" stroke="black"/>
  <text fill="rgb(9,33,173)" font-size="25" x="482.0" y="73.5">wb_back</text>
  <path d="M 612 81 L 702 81 L 702 60 L 612 60 L 612 81 z" fill="rgb(255,217,194)" stroke="black"/>
  <text fill="rgb(9,33,173)" font-size="25" x="632.0" y="73.5">wb_front</text>
  <path d="M 772.0 255.0 L 1114.0 255.0 L 1114.0 60.0 L 772.0 60.0 L 772.0 255.0 z" fill="rgb(255,217,194)" stroke="black"/>
  <text fill="rgb(9,33,173)" font-size="25" x="918.0" y="160.5">skirt_front</text>
  <path d="M 1174.0 180.0 L 1288.0 180.0 L 1288.0 123.0 Q 1260.1 107.69999999999999 1279.0 60.0 L 1258.0 60.0 Q 1231.0 86.99468842609429 1204.0 60.0 L 1183.0 60.0 Q 1201.9 107.69999999999999 1174.0 123.0 L 1174.0 180.0 z" fill="rgb(255,217,194)" stroke="black"/>
  <text fill="rgb(9,33,173)" font-size="25" x="1206.0" y="108.75">top_back</text>
  <path d="M 1348.0 180.0 L 1462.0 180.0 L 1462.0 123.0 Q 1434.1 107.69999999999999 1453.0 60.0 L 1432.0 60.0 L 1405.0 99.0 L 1378.0 60.0 L 1357.0 60.0 Q 1375.9 107.69999999999999 1348.0 123.0 L 1348.0 180.0 z" fill="rgb(255,217,194)" stroke="black"/>
  <text fill="rgb(9,33,173)" font-size="25" x="1380.0" y="108.0">top_front</text>
</svg>
