<?xml version="1.0" encoding="utf-8" ?>
<svg xmlns="http://www.w3.org/2000/svg" xmlns:ev="http://www.w3.org/2001/xml-events" xmlns:xlink="http://www.w3.org/1999/xlink" baseProfile="full" height="333.0px" version="1.1" width="1112.0px">
  <defs/>
  <path d="M 60 168 L 75 168 Q 109.8 87.60000000000001 63 60 L 60 90 L 60 168 z" fill="rgb(255,217,194)" stroke="black"/>
  <text fill="rgb(9,33,173)" font-size="25" x="39.5" y="124.5">rbsleeve</text>
  <path d="M 179.5 138.0 L 182.5 168.0 Q 229.3 140.4 194.5 60.0 L 179.5 60.0 L 179.5 138.0 z" fill="rgb(255,217,194)" stroke="black"/>
  <text fill="rgb(9,33,173)" font-size="25" x="159.0" y="109.5">rfsleeve</text>
  <path d="M 311.0 273.0 L 377.0 273.0 L 377.0 84.0 L 332.0 60.0 L 311.0 60.0 Q 345.8 140.4 299.0 168.0 L 311.0 273.0 z" fill="rgb(255,217,194)" stroke="black"/>
  <text fill="rgb(9,33,173)" font-size="25" x="309.5" y="156.0">front_right</text>
  <path d="M 491.5 273.0 L 623.5 273.0 L 635.5 168.0 Q 588.6999999999999 140.4 623.5 60.0 L 602.5 60.0 Q 557.5 233.23380949524824 512.5 60.0 L 491.5 60.0 Q 526.3000000000001 140.4 479.5 168.0 L 491.5 273.0 z" fill="rgb(255,217,194)" stroke="black"/>
  <text fill="rgb(9,33,173)" font-size="25" x="532.5" y="143.25">back</text>
  <path d="M 695.5 273.0 L 761.5 273.0 L 773.5 168.0 Q 726.6999999999999 140.4 761.5 60.0 L 740.5 60.0 L 695.5 84.0 L 695.5 273.0 z" fill="rgb(255,217,194)" stroke="black"/>
  <text fill="rgb(9,33,173)" font-size="25" x="713.0" y="156.0">front_left</text>
  <path d="M 873.0 138.0 L 876.0 168.0 Q 922.8000000000001 140.4 888.0 60.0 L 873.0 60.0 L 873.0 138.0 z" fill="rgb(255,217,194)" stroke="black"/>
  <text fill="rgb(9,33,173)" font-size="25" x="852.5" y="109.5">lbsleeve</text>
  <path d="M 992.5 168.0 L 1007.5 168.0 Q 1042.3 87.60000000000001 995.5 60.0 L 992.5 90.0 L 992.5 168.0 z" fill="rgb(255,217,194)" stroke="black"/>
  <text fill="rgb(9,33,173)" font-size="25" x="972.0" y="124.5">lfsleeve</text>
</svg>
