<?xml version="1.0" encoding="utf-8" ?>
<svg xmlns="http://www.w3.org/2000/svg" xmlns:ev="http://www.w3.org/2001/xml-events" xmlns:xlink="http://www.w3.org/1999/xlink" baseProfile="full" height="249px" version="1.1" width="1220.0px">
  <defs/>
  <path d="M 60 189 L 210 189 L 210 60 L 60 60 L 60 189 z" fill="rgb(255,217,194)" stroke="black"/>
  <text fill="rgb(9,33,173)" font-size="25" x="110.0" y="127.5">skirt_back</text>
  <path d="M 270 75 L 360 75 L 360 60 L 270 60 L 270 75 z" fill="rgb(255,217,194)" stroke="black"/>
  <text fill="rgb(9,33,173)" font-size="25" x="290.0" y="70.5">wb_back</text>
  <path d="M 420 75 L 510 75 L 510 60 L 420 60 L 420 75 z" fill="rgb(255,217,194)" stroke="black"/>
  <text fill="rgb(9,33,173)" font-size="25" x="440.0" y="70.5">wb_front</text>
  <path d="M 580.0 189.0 L 730.0 189.0 L 730.0 60.0 L 580.0 60.0 L 580.0 189.0 z" fill="rgb(255,217,194)" stroke="black"/>
  <text fill="rgb(9,33,173)" font-size="25" x="630.0" y="127.5">skirt_front</text>
  <path d="M 800.0 177.0 L 950.0 177.0 L 950.0 117.0 Q 923.6 104.7 938.0 60.0 L 905.0 60.0 Q 875.0 97.99687122081009 845.0 60.0 L 812.0 60.0 Q 826.4 104.7 800.0 117.0 L 800.0 177.0 z" fill="rgb(255,217,194)" stroke="black"/>
  <text fill="rgb(9,33,173)" font-size="25" x="850.0" y="106.5">top_back</text>
  <path d="M 1010.0 177.0 L 1160.0 177.0 L 1160.0 117.0 Q 1133.6000000000001 104.7 1148.0 60.0 L 1115.0 60.0 L 1085.0 132.0 L 1055.0 60.0 L 1022.0 60.0 Q 1036.4 104.7 1010.0 117.0 L 1010.0 177.0 z" fill="rgb(255,217,194)" stroke="black"/>
  <text fill="rgb(9,33,173)" font-size="25" x="1060.0" y="109.66666666666667">top_front</text>
</svg>
