<?xml version="1.0" encoding="utf-8" ?>
<svg xmlns="http://www.w3.org/2000/svg" xmlns:ev="http://www.w3.org/2001/xml-events" xmlns:xlink="http://www.w3.org/1999/xlink" baseProfile="full" height="294.0px" version="1.1" width="1678.0px">
  <defs/>
  <path d="M 60 138 L 111 138 Q 133.8 78.60000000000001 99 60 L 60 90 L 60 138 z" fill="rgb(255,217,194)" stroke="black"/>
  <text fill="rgb(9,33,173)" font-size="25" x="57.5" y="109.5">rbsleeve</text>
  <path d="M 197.5 108.0 L 236.5 138.0 Q 271.3 119.39999999999999 248.5 60.0 L 197.5 60.0 L 197.5 108.0 z" fill="rgb(255,217,194)" stroke="black"/>
  <text fill="rgb(9,33,173)" font-size="25" x="195.0" y="94.5">rfsleeve</text>
  <path d="M 335.0 234.0 L 437.0 234.0 Q 445.7 86.1 437.0 60.0 L 365.0 60.0 Q 379.7 141.75 335.0 153.0 Q 343.1 157.05 335.0 234.0 z" fill="rgb(255,217,194)" stroke="black"/>
  <text fill="rgb(9,33,173)" font-size="25" x="356.8" y="151.2">Rback</text>
  <path d="M 497.0 234.0 L 599.0 234.0 Q 590.9 157.05 599.0 153.0 Q 558.95 140.25 569.0 60.0 L 497.0 60.0 Q 488.3 86.1 497.0 234.0 z" fill="rgb(255,217,194)" stroke="black"/>
  <text fill="rgb(9,33,173)" font-size="25" x="527.2" y="151.2">Rfront</text>
  <path d="M 659.0 168.0 L 734.0 168.0 L 809.0 168.0 L 803.0 138.0 Q 768.1999999999999 119.39999999999999 791.0 60.0 L 752.0 60.0 Q 734.0 113.28722399683915 716.0 60.0 L 677.0 60.0 Q 699.8000000000001 119.39999999999999 665.0 138.0 L 659.0 168.0 z" fill="rgb(255,217,194)" stroke="black"/>
  <text fill="rgb(9,33,173)" font-size="25" x="709.0" y="116.33333333333333">up_back</text>
  <path d="M 869.0 165.0 L 944.0 165.0 L 1019.0 165.0 L 1013.0 138.0 Q 978.1999999999999 119.39999999999999 1001.0 60.0 L 962.0 60.0 L 944.0 114.0 L 926.0 60.0 L 887.0 60.0 Q 909.8000000000001 119.39999999999999 875.0 138.0 L 869.0 165.0 z" fill="rgb(255,217,194)" stroke="black"/>
  <text fill="rgb(9,33,173)" font-size="25" x="919.0" y="115.5">up_front</text>
  <path d="M 1079.0 234.0 L 1181.0 234.0 Q 1172.9 157.05 1181.0 153.0 Q 1136.3 141.75 1151.0 60.0 L 1079.0 60.0 Q 1070.3 86.1 1079.0 234.0 z" fill="rgb(255,217,194)" stroke="black"/>
  <text fill="rgb(9,33,173)" font-size="25" x="1109.2" y="151.2">Lback</text>
  <path d="M 1241.0 234.0 L 1343.0 234.0 Q 1351.7 86.1 1343.0 60.0 L 1271.0 60.0 Q 1281.05 140.25 1241.0 153.0 Q 1249.1 157.05 1241.0 234.0 z" fill="rgb(255,217,194)" stroke="black"/>
  <text fill="rgb(9,33,173)" font-size="25" x="1262.8" y="151.2">Lfront</text>
  <path d="M 1403.0 108.0 L 1442.0 138.0 Q 1476.8 119.39999999999999 1454.0 60.0 L 1403.0 60.0 L 1403.0 108.0 z" fill="rgb(255,217,194)" stroke="black"/>
  <text fill="rgb(9,33,173)" font-size="25" x="1400.5" y="94.5">lbsleeve</text>
  <path d="M 1540.5 138.0 L 1591.5 138.0 Q 1614.3 78.60000000000001 1579.5 60.0 L 1540.5 90.0 L 1540.5 138.0 z" fill="rgb(255,217,194)" stroke="black"/>
  <text fill="rgb(9,33,173)" font-size="25" x="1538.0" y="109.5">lfsleeve</text>
</svg>
