<?xml version="1.0" encoding="utf-8" ?>
<svg xmlns="http://www.w3.org/2000/svg" xmlns:ev="http://www.w3.org/2001/xml-events" xmlns:xlink="http://www.w3.org/1999/xlink" baseProfile="full" height="399.0px" version="1.1" width="1082.0px">
  <defs/>
  <path d="M 60 159 L 81 159 Q 93.9 121.80000000000001 72 111 L 60 60 L 60 159 z" fill="rgb(255,217,194)" stroke="black"/>
  <text fill="rgb(9,33,173)" font-size="25" x="43.25" y="125.25">rbsleeve</text>
  <path d="M 183.25 159.0 L 195.25 108.0 Q 217.14999999999998 97.19999999999999 204.25 60.0 L 183.25 60.0 L 183.25 159.0 z" fill="rgb(255,217,194)" stroke="black"/>
  <text fill="rgb(9,33,173)" font-size="25" x="166.5" y="99.75">rfsleeve</text>
  <path d="M 306.5 339.0 L 369.5 339.0 L 369.5 123.0 L 348.5 60.0 L 321.5 60.0 Q 335.59999999999997 99.29999999999998 312.5 111.0 L 306.5 339.0 z" fill="rgb(255,217,194)" stroke="black"/>
  <text fill="rgb(9,33,173)" font-size="25" x="313.0" y="175.0">front_right</text>
  <path d="M 483.0 339.0 L 609.0 339.0 L 603.0 111.0 Q 579.9 99.3 594.0 60.0 L 567.0 60.0 Q 546.0 152.88935595972924 525.0 60.0 L 498.0 60.0 Q 512.1 99.29999999999998 489.0 111.0 L 483.0 339.0 z" fill="rgb(255,217,194)" stroke="black"/>
  <text fill="rgb(9,33,173)" font-size="25" x="521.0" y="145.5">back</text>
  <path d="M 669.0 339.0 L 732.0 339.0 L 726.0 111.0 Q 702.9 99.3 717.0 60.0 L 690.0 60.0 L 669.0 123.0 L 669.0 339.0 z" fill="rgb(255,217,194)" stroke="black"/>
  <text fill="rgb(9,33,173)" font-size="25" x="675.5" y="175.0">front_left</text>
  <path d="M 835.5 159.0 L 847.5 108.0 Q 869.4000000000001 97.19999999999999 856.5 60.0 L 835.5 60.0 L 835.5 159.0 z" fill="rgb(255,217,194)" stroke="black"/>
  <text fill="rgb(9,33,173)" font-size="25" x="818.75" y="99.75">lbsleeve</text>
  <path d="M 958.75 159.0 L 979.75 159.0 Q 992.6500000000001 121.80000000000001 970.75 111.0 L 958.75 60.0 L 958.75 159.0 z" fill="rgb(255,217,194)" stroke="black"/>
  <text fill="rgb(9,33,173)" font-size="25" x="942.0" y="125.25">lfsleeve</text>
</svg>
