<?xml version="1.0" encoding="utf-8" ?>
<svg xmlns="http://www.w3.org/2000/svg" xmlns:ev="http://www.w3.org/2001/xml-events" xmlns:xlink="http://www.w3.org/1999/xlink" baseProfile="full" height="465.0px" version="1.1" width="1382.0px">
  <defs/>
  <path d="M 60 114 L 84 114 Q 94.8 75.60000000000001 72 66 L 60 60 L 60 114 z" fill="rgb(255,217,194)" stroke="black"/>
  <text fill="rgb(9,33,173)" font-size="25" x="44.0" y="91.5">rbsleeve</text>
  <path d="M 184.0 114.0 L 196.0 108.0 Q 218.8 98.39999999999999 208.0 60.0 L 184.0 60.0 L 184.0 114.0 z" fill="rgb(255,217,194)" stroke="black"/>
  <text fill="rgb(9,33,173)" font-size="25" x="168.0" y="88.5">rfsleeve</text>
  <path d="M 332.0 405.0 L 386.0 405.0 L 386.0 78.0 L 356.0 60.0 L 320.0 60.0 Q 332.0 100.49999999999999 308.0 111.0 L 332.0 405.0 z" fill="rgb(255,217,194)" stroke="black"/>
  <text fill="rgb(9,33,173)" font-size="25" x="323.0" y="189.5">front_right</text>
  <path d="M 493.0 177.0 L 526.0 174.0 Q 598.9 162.3 559.0 69.0 L 529.0 78.0 L 499.0 60.0 L 493.0 177.0 z" fill="rgb(255,217,194)" stroke="black"/>
  <text fill="rgb(9,33,173)" font-size="25" x="496.20000000000005" y="114.6">Rhood</text>
  <path d="M 643.0 405.0 L 751.0 405.0 L 775.0 111.0 Q 751.0 100.5 763.0 60.0 L 727.0 60.0 L 697.0 69.0 L 667.0 60.0 L 631.0 60.0 Q 643.0 100.49999999999999 619.0 111.0 L 643.0 405.0 z" fill="rgb(255,217,194)" stroke="black"/>
  <text fill="rgb(9,33,173)" font-size="25" x="672.0" y="152.0">back</text>
  <path d="M 841.0 177.0 L 871.0 159.0 L 901.0 168.0 Q 940.9 74.7 868.0 63.0 L 835.0 60.0 L 841.0 177.0 z" fill="rgb(255,217,194)" stroke="black"/>
  <text fill="rgb(9,33,173)" font-size="25" x="838.2" y="128.4">Lhood</text>
  <path d="M 961.0 405.0 L 1015.0 405.0 L 1039.0 111.0 Q 1015.0000000000001 100.5 1027.0 60.0 L 991.0 60.0 L 961.0 78.0 L 961.0 405.0 z" fill="rgb(255,217,194)" stroke="black"/>
  <text fill="rgb(9,33,173)" font-size="25" x="974.0" y="189.5">front_left</text>
  <path d="M 1134.0 114.0 L 1146.0 108.0 Q 1168.8 98.39999999999999 1158.0 60.0 L 1134.0 60.0 L 1134.0 114.0 z" fill="rgb(255,217,194)" stroke="black"/>
  <text fill="rgb(9,33,173)" font-size="25" x="1118.0" y="88.5">lbsleeve</text>
  <path d="M 1258.0 114.0 L 1282.0 114.0 Q 1292.8 75.60000000000001 1270.0 66.0 L 1258.0 60.0 L 1258.0 114.0 z" fill="rgb(255,217,194)" stroke="black"/>
  <text fill="rgb(9,33,173)" font-size="25" x="1242.0" y="91.5">lfsleeve</text>
</svg>
