<?xml version="1.0" encoding="utf-8" ?>
<svg xmlns="http://www.w3.org/2000/svg" xmlns:ev="http://www.w3.org/2001/xml-events" xmlns:xlink="http://www.w3.org/1999/xlink" baseProfile="full" height="312px" version="1.1" width="1080px">
  <defs/>
  <path d="M 60 252 L 153 252 Q 165.15 88.95000000000002 156 60 L 90 60 Q 104.7 141.75 60 153 Q 69.9 157.95 60 252 z" fill="rgb(255,217,194)" stroke="black"/>
  <text fill="rgb(9,33,173)" font-size="25" x="78.8" y="158.4">Rback</text>
  <path d="M 219 252 L 312 252 Q 302.1 157.95 312 153 Q 271.95 140.25 282 60 L 216 60 Q 206.85 88.95 219 252 z" fill="rgb(255,217,194)" stroke="black"/>
  <text fill="rgb(9,33,173)" font-size="25" x="243.2" y="158.4">Rfront</text>
  <path d="M 372 168 L 441 168 L 510 168 L 510 120 Q 483.3 105.6 501 60 L 468 60 Q 441.0 102.42450199267455 414 60 L 381 60 Q 398.7 105.6 372 120 L 372 168 z" fill="rgb(255,217,194)" stroke="black"/>
  <text fill="rgb(9,33,173)" font-size="25" x="416.0" y="112.33333333333333">up_back</text>
  <path d="M 570 165 L 639 165 L 708 165 L 708 120 Q 681.3 105.6 699 60 L 666 60 L 639 117 L 612 60 L 579 60 Q 596.7 105.6 570 120 L 570 165 z" fill="rgb(255,217,194)" stroke="black"/>
  <text fill="rgb(9,33,173)" font-size="25" x="614.0" y="112.2">up_front</text>
  <path d="M 771 252 L 864 252 Q 854.1 157.95 864 153 Q 819.3 141.75 834 60 L 768 60 Q 758.85 88.95 771 252 z" fill="rgb(255,217,194)" stroke="black"/>
  <text fill="rgb(9,33,173)" font-size="25" x="795.2" y="158.4">Lback</text>
  <path d="M 924 252 L 1017 252 Q 1029.1499999999999 88.95000000000002 1020 60 L 954 60 Q 964.05 140.25 924 153 Q 933.9 157.95 924 252 z" fill="rgb(255,217,194)" stroke="black"/>
  <text fill="rgb(9,33,173)" font-size="25" x="942.8" y="158.4">Lfront</text>
</svg>
