<?xml version="1.0" encoding="utf-8" ?>
<svg xmlns="http://www.w3.org/2000/svg" xmlns:ev="http://www.w3.org/2001/xml-events" xmlns:xlink="http://www.w3.org/1999/xlink" baseProfile="full" height="525.0px" version="1.1" width="1514.5px">
  <defs/>
  <path d="M 60 189 L 105 189 Q 131.4 123.3 93 102 L 60 60 L 60 189 z" fill="rgb(255,217,194)" stroke="black"/>
  <text fill="rgb(9,33,173)" font-size="25" x="54.5" y="138.0">rbsleeve</text>
  <path d="M 194.5 189.0 L 227.5 147.0 Q 265.9 125.7 239.5 60.0 L 194.5 60.0 L 194.5 189.0 z" fill="rgb(255,217,194)" stroke="black"/>
  <text fill="rgb(9,33,173)" font-size="25" x="189.0" y="117.0">rfsleeve</text>
  <path d="M 329.0 465.0 L 506.0 465.0 L 506.0 63.0 L 482.0 60.0 L 443.0 60.0 Q 469.40000000000003 125.7 431.0 147.0 L 329.0 465.0 z" fill="rgb(255,217,194)" stroke="black"/>
  <text fill="rgb(9,33,173)" font-size="25" x="424.5" y="213.0">front_right</text>
  <path d="M 594.5 465.0 L 948.5 465.0 L 846.5 147.0 Q 808.1 125.7 834.5 60.0 L 795.5 60.0 Q 771.5 202.19501903567044 747.5 60.0 L 708.5 60.0 Q 734.9 125.7 696.5 147.0 L 594.5 465.0 z" fill="rgb(255,217,194)" stroke="black"/>
  <text fill="rgb(9,33,173)" font-size="25" x="746.5" y="186.0">back</text>
  <path d="M 1008.5 465.0 L 1185.5 465.0 L 1083.5 147.0 Q 1045.1000000000001 125.7 1071.5 60.0 L 1032.5 60.0 L 1008.5 63.0 L 1008.5 465.0 z" fill="rgb(255,217,194)" stroke="black"/>
  <text fill="rgb(9,33,173)" font-size="25" x="1040.0" y="213.0">front_left</text>
  <path d="M 1245.5 189.0 L 1278.5 147.0 Q 1316.8999999999999 125.7 1290.5 60.0 L 1245.5 60.0 L 1245.5 189.0 z" fill="rgb(255,217,194)" stroke="black"/>
  <text fill="rgb(9,33,173)" font-size="25" x="1240.0" y="117.0">lbsleeve</text>
  <path d="M 1380.0 189.0 L 1425.0 189.0 Q 1451.3999999999999 123.3 1413.0 102.0 L 1380.0 60.0 L 1380.0 189.0 z" fill="rgb(255,217,194)" stroke="black"/>
  <text fill="rgb(9,33,173)" font-size="25" x="1374.5" y="138.0">lfsleeve</text>
</svg>
