<?xml version="1.0" encoding="utf-8" ?>
<svg xmlns="http://www.w3.org/2000/svg" xmlns:ev="http://www.w3.org/2001/xml-events" xmlns:xlink="http://www.w3.org/1999/xlink" baseProfile="full" height="279px" version="1.1" width="1223.0px">
  <defs/>
  <path d="M 60 219 L 147 219 Q 182.7 141.9 138 114 L 60 60 L 60 219 z" fill="rgb(255,217,194)" stroke="black"/>
  <text fill="rgb(9,33,173)" font-size="25" x="76.25" y="156.0">rbsleeve</text>
  <path d="M 216.25 219.0 L 294.25 165.0 Q 338.95 137.1 303.25 60.0 L 216.25 60.0 L 216.25 219.0 z" fill="rgb(255,217,194)" stroke="black"/>
  <text fill="rgb(9,33,173)" font-size="25" x="232.5" y="129.0">rfsleeve</text>
  <path d="M 372.5 177.0 L 438.5 177.0 L 438.5 138.0 L 411.5 60.0 L 390.5 60.0 Q 425.0 134.99999999999997 381.5 162.0 L 372.5 177.0 z" fill="rgb(255,217,194)" stroke="black"/>
  <text fill="rgb(9,33,173)" font-size="25" x="380.5" y="132.0">front_right</text>
  <path d="M 550.5 177.0 L 682.5 177.0 L 673.5 162.0 Q 630.0 135.0 664.5 60.0 L 643.5 60.0 Q 616.5 138.5468345730228 589.5 60.0 L 568.5 60.0 Q 603.0 134.99999999999997 559.5 162.0 L 550.5 177.0 z" fill="rgb(255,217,194)" stroke="black"/>
  <text fill="rgb(9,33,173)" font-size="25" x="591.5" y="117.75">back</text>
  <path d="M 742.5 177.0 L 808.5 177.0 L 799.5 162.0 Q 756.0 135.0 790.5 60.0 L 769.5 60.0 L 742.5 138.0 L 742.5 177.0 z" fill="rgb(255,217,194)" stroke="black"/>
  <text fill="rgb(9,33,173)" font-size="25" x="750.5" y="132.0">front_left</text>
  <path d="M 910.5 219.0 L 988.5 165.0 Q 1033.2 137.1 997.5 60.0 L 910.5 60.0 L 910.5 219.0 z" fill="rgb(255,217,194)" stroke="black"/>
  <text fill="rgb(9,33,173)" font-size="25" x="926.75" y="129.0">lbsleeve</text>
  <path d="M 1066.75 219.0 L 1153.75 219.0 Q 1189.45 141.9 1144.75 114.0 L 1066.75 60.0 L 1066.75 219.0 z" fill="rgb(255,217,194)" stroke="black"/>
  <text fill="rgb(9,33,173)" font-size="25" x="1083.0" y="156.0">lfsleeve</text>
</svg>
