<?xml version="1.0" encoding="utf-8" ?>
<svg xmlns="http://www.w3.org/2000/svg" xmlns:ev="http://www.w3.org/2001/xml-events" xmlns:xlink="http://www.w3.org/1999/xlink" baseProfile="full" height="474.0px" version="1.1" width="1381.0px">
  <defs/>
  <path d="M 60 195 L 87 195 Q 107.7 134.4 72 117 L 60 60 L 60 195 z" fill="rgb(255,217,194)" stroke="black"/>
  <text fill="rgb(9,33,173)" font-size="25" x="44.75" y="144.75">rbsleeve</text>
  <path d="M 184.75 195.0 L 196.75 138.0 Q 232.45 120.6 211.75 60.0 L 184.75 60.0 L 184.75 195.0 z" fill="rgb(255,217,194)" stroke="black"/>
  <text fill="rgb(9,33,173)" font-size="25" x="169.5" y="116.25">rfsleeve</text>
  <path d="M 324.5 414.0 L 486.5 414.0 L 501.5 135.0 Q 467.0 118.5 486.5 60.0 L 453.5 60.0 L 405.5 69.0 L 357.5 60.0 L 324.5 60.0 Q 344.0 118.5 309.5 135.0 L 324.5 414.0 z" fill="rgb(255,217,194)" stroke="black"/>
  <text fill="rgb(9,33,173)" font-size="25" x="380.5" y="159.33333333333334">back</text>
  <path d="M 576.5 414.0 L 738.5 414.0 L 753.5 135.0 Q 719.0 118.5 738.5 60.0 L 705.5 60.0 L 657.5 60.0 L 609.5 60.0 L 576.5 60.0 Q 596.0 118.5 561.5 135.0 L 576.5 414.0 z" fill="rgb(255,217,194)" stroke="black"/>
  <text fill="rgb(9,33,173)" font-size="25" x="632.5" y="158.33333333333334">front</text>
  <path d="M 828.5 168.0 L 897.5 162.0 Q 963.2 140.4 912.5 60.0 L 864.5 69.0 L 813.5 63.0 L 828.5 168.0 z" fill="rgb(255,217,194)" stroke="black"/>
  <text fill="rgb(9,33,173)" font-size="25" x="838.3" y="107.4">Rhood</text>
  <path d="M 972.5 165.0 L 1023.5 159.0 L 1071.5 168.0 Q 1122.2 87.60000000000001 1056.5 66.0 L 987.5 60.0 L 972.5 165.0 z" fill="rgb(255,217,194)" stroke="black"/>
  <text fill="rgb(9,33,173)" font-size="25" x="997.3" y="126.6">Lhood</text>
  <path d="M 1131.5 195.0 L 1143.5 138.0 Q 1179.2 120.6 1158.5 60.0 L 1131.5 60.0 L 1131.5 195.0 z" fill="rgb(255,217,194)" stroke="black"/>
  <text fill="rgb(9,33,173)" font-size="25" x="1116.25" y="116.25">lbsleeve</text>
  <path d="M 1256.25 195.0 L 1283.25 195.0 Q 1303.95 134.4 1268.25 117.0 L 1256.25 60.0 L 1256.25 195.0 z" fill="rgb(255,217,194)" stroke="black"/>
  <text fill="rgb(9,33,173)" font-size="25" x="1241.0" y="144.75">lfsleeve</text>
</svg>
