<?xml version="1.0" encoding="utf-8" ?>
<svg xmlns="http://www.w3.org/2000/svg" xmlns:ev="http://www.w3.org/2001/xml-events" xmlns:xlink="http://www.w3.org/1999/xlink" baseProfile="full" height="483px" version="1.1" width="679.0px">
  <defs/>
  <path d="M 69 423 L 153 423 L 153 144 L 117 60 L 75 60 Q 100.5 129.0 60 150 L 69 423 z" fill="rgb(255,217,194)" stroke="black"/>
  <text fill="rgb(9,33,173)" font-size="25" x="79.5" y="213.0">front_right</text>
  <path d="M 258.5 423.0 L 426.5 423.0 L 435.5 153.0 Q 393.8 131.1 420.5 60.0 L 378.5 60.0 Q 342.5 210.11383239485616 306.5 60.0 L 264.5 60.0 Q 291.2 131.1 249.5 153.0 L 258.5 423.0 z" fill="rgb(255,217,194)" stroke="black"/>
  <text fill="rgb(9,33,173)" font-size="25" x="317.5" y="177.0">back</text>
  <path d="M 495.5 423.0 L 579.5 423.0 L 588.5 150.0 Q 548.0 129.0 573.5 60.0 L 531.5 60.0 L 495.5 144.0 L 495.5 423.0 z" fill="rgb(255,217,194)" stroke="black"/>
  <text fill="rgb(9,33,173)" font-size="25" x="519.0" y="213.0">front_left</text>
</svg>
