<?xml version="1.0" encoding="utf-8" ?>
<svg xmlns="http://www.w3.org/2000/svg" xmlns:ev="http://www.w3.org/2001/xml-events" xmlns:xlink="http://www.w3.org/1999/xlink" baseProfile="full" height="294.0px" version="1.1" width="1491.0px">
  <defs/>
  <path d="M 60 174 L 159 174 Q 198.29999999999998 90.60000000000001 150 60 L 60 75 L 60 174 z" fill="rgb(255,217,194)" stroke="black"/>
  <text fill="rgb(9,33,173)" font-size="25" x="82.25" y="123.75">rbsleeve</text>
  <path d="M 222.25 159.0 L 312.25 174.0 Q 360.55 143.4 321.25 60.0 L 222.25 60.0 L 222.25 159.0 z" fill="rgb(255,217,194)" stroke="black"/>
  <text fill="rgb(9,33,173)" font-size="25" x="244.5" y="116.25">rfsleeve</text>
  <path d="M 384.5 234.0 L 525.5 234.0 L 525.5 93.0 L 495.5 60.0 L 474.5 60.0 Q 513.8 143.4 465.5 174.0 L 384.5 234.0 z" fill="rgb(255,217,194)" stroke="black"/>
  <text fill="rgb(9,33,173)" font-size="25" x="453.5" y="145.5">front_right</text>
  <path d="M 623.5 234.0 L 905.5 234.0 L 824.5 174.0 Q 776.1999999999999 143.4 815.5 60.0 L 794.5 60.0 Q 764.5 140.9069800845096 734.5 60.0 L 713.5 60.0 Q 752.8000000000001 143.4 704.5 174.0 L 623.5 234.0 z" fill="rgb(255,217,194)" stroke="black"/>
  <text fill="rgb(9,33,173)" font-size="25" x="739.5" y="135.0">back</text>
  <path d="M 965.5 234.0 L 1106.5 234.0 L 1025.5 174.0 Q 977.1999999999999 143.4 1016.5 60.0 L 995.5 60.0 L 965.5 93.0 L 965.5 234.0 z" fill="rgb(255,217,194)" stroke="black"/>
  <text fill="rgb(9,33,173)" font-size="25" x="987.5" y="145.5">front_left</text>
  <path d="M 1166.5 159.0 L 1256.5 174.0 Q 1304.8 143.4 1265.5 60.0 L 1166.5 60.0 L 1166.5 159.0 z" fill="rgb(255,217,194)" stroke="black"/>
  <text fill="rgb(9,33,173)" font-size="25" x="1188.75" y="116.25">lbsleeve</text>
  <path d="M 1328.75 174.0 L 1427.75 174.0 Q 1467.05 90.60000000000001 1418.75 60.0 L 1328.75 75.0 L 1328.75 174.0 z" fill="rgb(255,217,194)" stroke="black"/>
  <text fill="rgb(9,33,173)" font-size="25" x="1351.0" y="123.75">lfsleeve</text>
</svg>
