<?xml version="1.0" encoding="utf-8" ?>
<svg xmlns="http://www.w3.org/2000/svg" xmlns:ev="http://www.w3.org/2001/xml-events" xmlns:xlink="http://www.w3.org/1999/xlink" baseProfile="full" height="237.0px" version="1.1" width="1331.0px">
  <defs/>
  <path d="M 60 120 L 90 120 Q 104.10000000000001 80.70000000000002 81 69 L 60 60 L 60 120 z" fill="rgb(255,217,194)" stroke="black"/>
  <text fill="rgb(9,33,173)" font-size="25" x="47.75" y="95.25">rbsleeve</text>
  <path d="M 187.75 120.0 L 208.75 111.0 Q 231.85 99.3 217.75 60.0 L 187.75 60.0 L 187.75 120.0 z" fill="rgb(255,217,194)" stroke="black"/>
  <text fill="rgb(9,33,173)" font-size="25" x="175.5" y="90.75">rfsleeve</text>
  <path d="M 315.5 174.0 L 450.5 174.0 L 450.5 114.0 L 426.5 60.0 L 399.5 60.0 Q 413.59999999999997 99.29999999999998 390.5 111.0 L 315.5 174.0 z" fill="rgb(255,217,194)" stroke="black"/>
  <text fill="rgb(9,33,173)" font-size="25" x="380.5" y="118.5">front_right</text>
  <path d="M 550.5 177.0 L 820.5 177.0 L 745.5 111.0 Q 722.4 99.3 736.5 60.0 L 709.5 60.0 Q 685.5 134.29539894526343 661.5 60.0 L 634.5 60.0 Q 648.6 99.29999999999998 625.5 111.0 L 550.5 177.0 z" fill="rgb(255,217,194)" stroke="black"/>
  <text fill="rgb(9,33,173)" font-size="25" x="660.5" y="105.0">back</text>
  <path d="M 880.5 174.0 L 1015.5 174.0 L 940.5 111.0 Q 917.4 99.3 931.5 60.0 L 904.5 60.0 L 880.5 114.0 L 880.5 174.0 z" fill="rgb(255,217,194)" stroke="black"/>
  <text fill="rgb(9,33,173)" font-size="25" x="900.5" y="118.5">front_left</text>
  <path d="M 1075.5 120.0 L 1096.5 111.0 Q 1119.6000000000001 99.3 1105.5 60.0 L 1075.5 60.0 L 1075.5 120.0 z" fill="rgb(255,217,194)" stroke="black"/>
  <text fill="rgb(9,33,173)" font-size="25" x="1063.25" y="90.75">lbsleeve</text>
  <path d="M 1203.25 120.0 L 1233.25 120.0 Q 1247.3500000000001 80.70000000000002 1224.25 69.0 L 1203.25 60.0 L 1203.25 120.0 z" fill="rgb(255,217,194)" stroke="black"/>
  <text fill="rgb(9,33,173)" font-size="25" x="1191.0" y="95.25">lfsleeve</text>
</svg>
