<?xml version="1.0" encoding="utf-8" ?>
<svg xmlns="http://www.w3.org/2000/svg" xmlns:ev="http://www.w3.org/2001/xml-events" xmlns:xlink="http://www.w3.org/1999/xlink" baseProfile="full" height="357px" version="1.1" width="1659.0px">
  <defs/>
  <path d="M 60 198 L 192 198 Q 210.0 147.0 180 132 L 60 60 L 60 198 z" fill="rgb(255,217,194)" stroke="black"/>
  <text fill="rgb(9,33,173)" font-size="25" x="98.0" y="150.0">rbsleeve</text>
  <path d="M 252 198 L 372 126 Q 402.0 111.0 384 60 L 252 60 L 252 198 z" fill="rgb(255,217,194)" stroke="black"/>
  <text fill="rgb(9,33,173)" font-size="25" x="290.0" y="114.0">rfsleeve</text>
  <path d="M 444 297 Q 528.0 290.2446907008227 612 297 L 597 102 L 576 60 L 480 60 L 459 102 L 444 297 z" fill="rgb(255,217,194)" stroke="black"/>
  <text fill="rgb(9,33,173)" font-size="25" x="503.0" y="156.0">skirt_back</text>
  <path d="M 672 297 Q 756.0 232.28095967175886 840 297 L 825 102 L 804 60 L 708 60 L 687 102 L 672 297 z" fill="rgb(255,217,194)" stroke="black"/>
  <text fill="rgb(9,33,173)" font-size="25" x="731.0" y="156.0">skirt_front</text>
  <path d="M 916.0 168.0 L 1012.0 168.0 L 1027.0 126.0 Q 997.9 109.8 1018.0 60.0 L 994.0 60.0 Q 964.0 138.6988884616007 934.0 60.0 L 910.0 60.0 Q 930.1 109.79999999999998 901.0 126.0 L 916.0 168.0 z" fill="rgb(255,217,194)" stroke="black"/>
  <text fill="rgb(9,33,173)" font-size="25" x="939.0" y="106.5">top_back</text>
  <path d="M 1102.0 165.0 L 1198.0 165.0 L 1213.0 126.0 Q 1183.8999999999999 109.8 1204.0 60.0 L 1180.0 60.0 L 1150.0 78.0 L 1120.0 60.0 L 1096.0 60.0 Q 1116.1000000000001 109.79999999999998 1087.0 126.0 L 1102.0 165.0 z" fill="rgb(255,217,194)" stroke="black"/>
  <text fill="rgb(9,33,173)" font-size="25" x="1125.0" y="103.0">top_front</text>
  <path d="M 1275.0 198.0 L 1395.0 126.0 Q 1425.0 111.0 1407.0 60.0 L 1275.0 60.0 L 1275.0 198.0 z" fill="rgb(255,217,194)" stroke="black"/>
  <text fill="rgb(9,33,173)" font-size="25" x="1313.0" y="114.0">lbsleeve</text>
  <path d="M 1467.0 198.0 L 1599.0 198.0 Q 1617.0 147.0 1587.0 132.0 L 1467.0 60.0 L 1467.0 198.0 z" fill="rgb(255,217,194)" stroke="black"/>
  <text fill="rgb(9,33,173)" font-size="25" x="1505.0" y="150.0">lfsleeve</text>
</svg>
