<?xml version="1.0" encoding="utf-8" ?>
<svg xmlns="http://www.w3.org/2000/svg" xmlns:ev="http://www.w3.org/2001/xml-events" xmlns:xlink="http://www.w3.org/1999/xlink" baseProfile="full" height="393.0px" version="1.1" width="994.0px">
  <defs/>
  <path d="M 60 141 L 99 141 Q 115.8 92.10000000000001 87 78 L 60 60 L 60 141 z" fill="rgb(255,217,194)" stroke="black"/>
  <text fill="rgb(9,33,173)" font-size="25" x="51.5" y="108.0">rbsleeve</text>
  <path d="M 191.5 141.0 L 218.5 123.0 Q 247.3 108.89999999999999 230.5 60.0 L 191.5 60.0 L 191.5 141.0 z" fill="rgb(255,217,194)" stroke="black"/>
  <text fill="rgb(9,33,173)" font-size="25" x="183.0" y="99.0">rfsleeve</text>
  <path d="M 341.0 333.0 L 449.0 333.0 L 467.0 120.0 Q 439.4 106.8 455.0 60.0 L 431.0 60.0 Q 395.0 315.71224301273827 359.0 60.0 L 335.0 60.0 Q 350.6 106.8 323.0 120.0 L 341.0 333.0 z" fill="rgb(255,217,194)" stroke="black"/>
  <text fill="rgb(9,33,173)" font-size="25" x="370.0" y="146.25">back</text>
  <path d="M 545.0 330.0 L 653.0 330.0 L 671.0 120.0 Q 643.4 106.8 659.0 60.0 L 635.0 60.0 L 599.0 63.0 L 563.0 60.0 L 539.0 60.0 Q 554.6 106.8 527.0 120.0 L 545.0 330.0 z" fill="rgb(255,217,194)" stroke="black"/>
  <text fill="rgb(9,33,173)" font-size="25" x="574.0" y="136.66666666666666">front</text>
  <path d="M 731.0 141.0 L 758.0 123.0 Q 786.8000000000001 108.89999999999999 770.0 60.0 L 731.0 60.0 L 731.0 141.0 z" fill="rgb(255,217,194)" stroke="black"/>
  <text fill="rgb(9,33,173)" font-size="25" x="722.5" y="99.0">lbsleeve</text>
  <path d="M 862.5 141.0 L 901.5 141.0 Q 918.3000000000001 92.10000000000001 889.5 78.0 L 862.5 60.0 L 862.5 141.0 z" fill="rgb(255,217,194)" stroke="black"/>
  <text fill="rgb(9,33,173)" font-size="25" x="854.0" y="108.0">lfsleeve</text>
</svg>
