<?xml version="1.0" encoding="utf-8" ?>
<svg xmlns="http://www.w3.org/2000/svg" xmlns:ev="http://www.w3.org/2001/xml-events" xmlns:xlink="http://www.w3.org/1999/xlink" baseProfile="full" height="399px" version="1.1" width="853.0px">
  <defs/>
  <path d="M 63 339 L 123 339 L 123 72 L 102 60 L 69 60 Q 91.5 114.0 60 132 L 63 339 z" fill="rgb(255,217,194)" stroke="black"/>
  <text fill="rgb(9,33,173)" font-size="25" x="65.0" y="170.0">front_right</text>
  <path d="M 235.0 177.0 L 307.0 168.0 Q 365.5 127.5 292.0 63.0 L 271.0 72.0 L 247.0 60.0 L 235.0 177.0 z" fill="rgb(255,217,194)" stroke="black"/>
  <text fill="rgb(9,33,173)" font-size="25" x="245.39999999999998" y="111.0">Rhood</text>
  <path d="M 370.0 339.0 L 490.0 339.0 L 493.0 132.0 Q 461.5 114.0 484.0 60.0 L 451.0 60.0 L 430.0 69.0 L 409.0 60.0 L 376.0 60.0 Q 398.5 114.0 367.0 132.0 L 370.0 339.0 z" fill="rgb(255,217,194)" stroke="black"/>
  <text fill="rgb(9,33,173)" font-size="25" x="405.0" y="142.0">back</text>
  <path d="M 565.0 177.0 L 589.0 165.0 L 610.0 174.0 Q 683.5 109.5 625.0 69.0 L 553.0 60.0 L 565.0 177.0 z" fill="rgb(255,217,194)" stroke="black"/>
  <text fill="rgb(9,33,173)" font-size="25" x="563.4" y="132.0">Lhood</text>
  <path d="M 685.0 339.0 L 745.0 339.0 L 748.0 132.0 Q 716.5 114.0 739.0 60.0 L 706.0 60.0 L 685.0 72.0 L 685.0 339.0 z" fill="rgb(255,217,194)" stroke="black"/>
  <text fill="rgb(9,33,173)" font-size="25" x="693.0" y="170.0">front_left</text>
</svg>
