<?xml version="1.0" encoding="utf-8" ?>
<svg xmlns="http://www.w3.org/2000/svg" xmlns:ev="http://www.w3.org/2001/xml-events" xmlns:xlink="http://www.w3.org/1999/xlink" baseProfile="full" height="285px" version="1.1" width="1140px">
  <defs/>
  <path d="M 60 225 L 165 225 Q 163.05 84.15 153 60 L 90 60 Q 104.7 141.75 60 153 Q 67.2 156.6 60 225 z" fill="rgb(255,217,194)" stroke="black"/>
  <text fill="rgb(9,33,173)" font-size="25" x="80.6" y="147.6">Rback</text>
  <path d="M 225 225 L 330 225 Q 322.8 156.60000000000002 330 153 Q 289.95 140.25 300 60 L 237 60 Q 226.95 84.15 225 225 z" fill="rgb(255,217,194)" stroke="black"/>
  <text fill="rgb(9,33,173)" font-size="25" x="259.4" y="147.6">Rfront</text>
  <path d="M 405 168 L 465 168 L 525 168 L 540 156 Q 498.0 132.0 528 60 L 495 60 Q 465.0 114.8350085762502 435 60 L 402 60 Q 432.0 132.0 390 156 L 405 168 z" fill="rgb(255,217,194)" stroke="black"/>
  <text fill="rgb(9,33,173)" font-size="25" x="440.0" y="120.33333333333333">up_back</text>
  <path d="M 615 165 L 675 165 L 735 165 L 750 153 Q 709.1999999999999 129.9 738 60 L 705 60 L 675 135 L 645 60 L 612 60 Q 640.8000000000001 129.9 600 153 L 615 165 z" fill="rgb(255,217,194)" stroke="black"/>
  <text fill="rgb(9,33,173)" font-size="25" x="650.0" y="120.6">up_front</text>
  <path d="M 810 225 L 915 225 Q 907.8 156.60000000000002 915 153 Q 870.3 141.75 885 60 L 822 60 Q 811.95 84.15 810 225 z" fill="rgb(255,217,194)" stroke="black"/>
  <text fill="rgb(9,33,173)" font-size="25" x="844.4" y="147.6">Lback</text>
  <path d="M 975 225 L 1080 225 Q 1078.05 84.15 1068 60 L 1005 60 Q 1015.05 140.25 975 153 Q 982.2 156.6 975 225 z" fill="rgb(255,217,194)" stroke="black"/>
  <text fill="rgb(9,33,173)" font-size="25" x="995.6" y="147.6">Lfront</text>
</svg>
