<?xml version="1.0" encoding="utf-8" ?>
<svg xmlns="http://www.w3.org/2000/svg" xmlns:ev="http://www.w3.org/2001/xml-events" xmlns:xlink="http://www.w3.org/1999/xlink" baseProfile="full" height="297.0px" version="1.1" width="1750.2px">
  <defs/>
  <path d="M 60 204 L 159 204 Q 175.8 155.1 147 141 L 60 60 L 60 204 z" fill="rgb(255,217,194)" stroke="black"/>
  <text fill="rgb(9,33,173)" font-size="25" x="81.5" y="155.25">rbsleeve</text>
  <path d="M 221.5 204.0 L 308.5 123.0 Q 337.3 108.89999999999999 320.5 60.0 L 221.5 60.0 L 221.5 204.0 z" fill="rgb(255,217,194)" stroke="black"/>
  <text fill="rgb(9,33,173)" font-size="25" x="243.0" y="114.75">rfsleeve</text>
  <path d="M 383.0 237.0 L 434.0 237.0 Q 478.55 88.65 476.0 60.0 L 413.0 60.0 Q 427.7 141.75 383.0 153.0 Q 391.4 157.2 383.0 237.0 z" fill="rgb(255,217,194)" stroke="black"/>
  <text fill="rgb(9,33,173)" font-size="25" x="392.8" y="152.4">Rback</text>
  <path d="M 578.0 237.0 L 629.0 237.0 Q 620.6 157.2 629.0 153.0 Q 588.95 140.25 599.0 60.0 L 536.0 60.0 Q 533.4499999999999 88.64999999999999 578.0 237.0 z" fill="rgb(255,217,194)" stroke="black"/>
  <text fill="rgb(9,33,173)" font-size="25" x="569.2" y="152.4">Rfront</text>
  <path d="M 707.2 168.0 L 767.2 168.0 L 827.2 168.0 L 845.2 123.0 Q 816.4 108.89999999999999 833.2 60.0 L 797.2 60.0 Q 767.2 62.369624441968334 737.2 60.0 L 701.2 60.0 Q 718.0000000000001 108.89999999999999 689.2 123.0 L 707.2 168.0 z" fill="rgb(255,217,194)" stroke="black"/>
  <text fill="rgb(9,33,173)" font-size="25" x="742.1999999999999" y="113.0">up_back</text>
  <path d="M 923.2 165.0 L 983.2 165.0 L 1043.2 165.0 L 1061.2 123.0 Q 1032.4 108.89999999999999 1049.2 60.0 L 1013.2 60.0 L 983.2 66.0 L 953.2 60.0 L 917.2 60.0 Q 934.0000000000001 108.89999999999999 905.2 123.0 L 923.2 165.0 z" fill="rgb(255,217,194)" stroke="black"/>
  <text fill="rgb(9,33,173)" font-size="25" x="958.2" y="107.7">up_front</text>
  <path d="M 1163.2 237.0 L 1214.2 237.0 Q 1205.8 157.2 1214.2 153.0 Q 1169.5 141.75 1184.2 60.0 L 1121.2 60.0 Q 1118.65 88.64999999999999 1163.2 237.0 z" fill="rgb(255,217,194)" stroke="black"/>
  <text fill="rgb(9,33,173)" font-size="25" x="1154.4" y="152.4">Lback</text>
  <path d="M 1274.2 237.0 L 1325.2 237.0 Q 1369.75 88.65 1367.2 60.0 L 1304.2 60.0 Q 1314.25 140.25 1274.2 153.0 Q 1282.6000000000001 157.2 1274.2 237.0 z" fill="rgb(255,217,194)" stroke="black"/>
  <text fill="rgb(9,33,173)" font-size="25" x="1284.0" y="152.4">Lfront</text>
  <path d="M 1427.2 204.0 L 1514.2 123.0 Q 1543.0 108.89999999999999 1526.2 60.0 L 1427.2 60.0 L 1427.2 204.0 z" fill="rgb(255,217,194)" stroke="black"/>
  <text fill="rgb(9,33,173)" font-size="25" x="1448.7" y="114.75">lbsleeve</text>
  <path d="M 1588.7 204.0 L 1687.7 204.0 Q 1704.5 155.1 1675.7 141.0 L 1588.7 60.0 L 1588.7 204.0 z" fill="rgb(255,217,194)" stroke="black"/>
  <text fill="rgb(9,33,173)" font-size="25" x="1610.2" y="155.25">lfsleeve</text>
</svg>
