<?xml version="1.0" encoding="utf-8" ?>
<svg xmlns="http://www.w3.org/2000/svg" xmlns:ev="http://www.w3.org/2001/xml-events" xmlns:xlink="http://www.w3.org/1999/xlink" baseProfile="full" height="297px" version="1.1" width="1003.0px">
  <defs/>
  <path d="M 69 237 L 153 237 L 153 75 L 102 60 L 75 60 Q 89.7 110.1 60 123 L 69 237 z" fill="rgb(255,217,194)" stroke="black"/>
  <text fill="rgb(9,33,173)" font-size="25" x="77.0" y="135.0">front_right</text>
  <path d="M 265.0 156.0 L 277.0 156.0 Q 352.6 172.2 349.0 66.0 L 301.0 75.0 L 247.0 60.0 L 265.0 156.0 z" fill="rgb(255,217,194)" stroke="black"/>
  <text fill="rgb(9,33,173)" font-size="25" x="262.8" y="105.6">Rhood</text>
  <path d="M 418.0 237.0 L 586.0 237.0 L 595.0 123.0 Q 565.3 110.1 580.0 60.0 L 553.0 60.0 L 502.0 69.0 L 451.0 60.0 L 424.0 60.0 Q 438.7 110.1 409.0 123.0 L 418.0 237.0 z" fill="rgb(255,217,194)" stroke="black"/>
  <text fill="rgb(9,33,173)" font-size="25" x="477.0" y="117.33333333333333">back</text>
  <path d="M 655.0 156.0 L 709.0 141.0 L 757.0 150.0 Q 760.6 43.800000000000004 685.0 60.0 L 673.0 60.0 L 655.0 156.0 z" fill="rgb(255,217,194)" stroke="black"/>
  <text fill="rgb(9,33,173)" font-size="25" x="670.8" y="116.4">Lhood</text>
  <path d="M 817.0 237.0 L 901.0 237.0 L 910.0 123.0 Q 880.3 110.1 895.0 60.0 L 868.0 60.0 L 817.0 75.0 L 817.0 237.0 z" fill="rgb(255,217,194)" stroke="black"/>
  <text fill="rgb(9,33,173)" font-size="25" x="843.0" y="135.0">front_left</text>
</svg>
