<?xml version="1.0" encoding="utf-8" ?>
<svg xmlns="http://www.w3.org/2000/svg" xmlns:ev="http://www.w3.org/2001/xml-events" xmlns:xlink="http://www.w3.org/1999/xlink" baseProfile="full" height="318px" version="1.1" width="1570.0px">
  <defs/>
  <path d="M 60 258 L 150 258 L 192 60 L 90 60 Q 102.30000000000001 137.25 60 147 Q 71.1 152.55 60 258 z" fill="rgb(255,217,194)" stroke="black"/>
  <text fill="rgb(9,33,173)" font-size="25" x="85.4" y="159.6">Rback</text>
  <path d="M 294 258 L 384 258 Q 372.9 152.55 384 147 Q 346.05 135.75 354 60 L 252 60 L 294 258 z" fill="rgb(255,217,194)" stroke="black"/>
  <text fill="rgb(9,33,173)" font-size="25" x="308.6" y="159.6">Rfront</text>
  <path d="M 444 75 L 483 75 L 522 75 L 522 60 L 444 60 L 444 75 z" fill="rgb(255,217,194)" stroke="black"/>
  <text fill="rgb(9,33,173)" font-size="25" x="458.0" y="72.0">wb_back</text>
  <path d="M 588.0 75.0 L 627.0 75.0 L 666.0 75.0 L 666.0 60.0 L 588.0 60.0 L 588.0 75.0 z" fill="rgb(255,217,194)" stroke="black"/>
  <text fill="rgb(9,33,173)" font-size="25" x="602.0" y="72.0">wb_front</text>
  <path d="M 742.0 171.0 L 904.0 171.0 L 904.0 120.0 Q 876.4 106.8 892.0 60.0 L 844.0 60.0 Q 823.0 85.05751120311392 802.0 60.0 L 754.0 60.0 Q 769.6 106.8 742.0 120.0 L 742.0 171.0 z" fill="rgb(255,217,194)" stroke="black"/>
  <text fill="rgb(9,33,173)" font-size="25" x="798.0" y="105.75">top_back</text>
  <path d="M 964.0 171.0 L 1126.0 171.0 L 1126.0 120.0 Q 1098.4 106.8 1114.0 60.0 L 1066.0 60.0 L 1045.0 72.0 L 1024.0 60.0 L 976.0 60.0 Q 991.6 106.8 964.0 120.0 L 964.0 171.0 z" fill="rgb(255,217,194)" stroke="black"/>
  <text fill="rgb(9,33,173)" font-size="25" x="1020.0" y="102.33333333333333">top_front</text>
  <path d="M 1228.0 258.0 L 1318.0 258.0 Q 1306.9 152.55 1318.0 147.0 Q 1275.7 137.25 1288.0 60.0 L 1186.0 60.0 L 1228.0 258.0 z" fill="rgb(255,217,194)" stroke="black"/>
  <text fill="rgb(9,33,173)" font-size="25" x="1242.6" y="159.6">Lback</text>
  <path d="M 1378.0 258.0 L 1468.0 258.0 L 1510.0 60.0 L 1408.0 60.0 Q 1415.95 135.75 1378.0 147.0 Q 1389.1 152.55 1378.0 258.0 z" fill="rgb(255,217,194)" stroke="black"/>
  <text fill="rgb(9,33,173)" font-size="25" x="1403.4" y="159.6">Lfront</text>
</svg>
