<?xml version="1.0" encoding="utf-8" ?>
<svg xmlns="http://www.w3.org/2000/svg" xmlns:ev="http://www.w3.org/2001/xml-events" xmlns:xlink="http://www.w3.org/1999/xlink" baseProfile="full" height="273px" version="1.1" width="1056.8px">
  <defs/>
  <path d="M 60 213 L 108 213 Q 153.9 85.20000000000002 153 60 L 90 60 Q 104.7 141.75 60 153 Q 66.0 156.0 60 213 z" fill="rgb(255,217,194)" stroke="black"/>
  <text fill="rgb(9,33,173)" font-size="25" x="69.2" y="142.8">Rback</text>
  <path d="M 258 213 L 306 213 Q 300.0 156.0 306 153 Q 265.95 140.25 276 60 L 213 60 Q 212.1 85.2 258 213 z" fill="rgb(255,217,194)" stroke="black"/>
  <text fill="rgb(9,33,173)" font-size="25" x="246.8" y="142.8">Rfront</text>
  <path d="M 369.8 168.0 L 432.8 168.0 L 495.8 168.0 L 498.8 111.0 Q 475.70000000000005 99.3 489.8 60.0 L 447.8 60.0 Q 432.8 96.84097247356894 417.8 60.0 L 375.8 60.0 Q 389.9 99.29999999999998 366.8 111.0 L 369.8 168.0 z" fill="rgb(255,217,194)" stroke="black"/>
  <text fill="rgb(9,33,173)" font-size="25" x="407.80000000000007" y="110.33333333333333">up_back</text>
  <path d="M 561.8 165.0 L 624.8 165.0 L 687.8 165.0 L 690.8 111.0 Q 667.6999999999999 99.3 681.8 60.0 L 639.8 60.0 L 624.8 69.0 L 609.8 60.0 L 567.8 60.0 Q 581.9 99.29999999999998 558.8 111.0 L 561.8 165.0 z" fill="rgb(255,217,194)" stroke="black"/>
  <text fill="rgb(9,33,173)" font-size="25" x="599.8000000000001" y="105.6">up_front</text>
  <path d="M 795.8 213.0 L 843.8 213.0 Q 837.8 156.0 843.8 153.0 Q 799.0999999999999 141.75 813.8 60.0 L 750.8 60.0 Q 749.9 85.2 795.8 213.0 z" fill="rgb(255,217,194)" stroke="black"/>
  <text fill="rgb(9,33,173)" font-size="25" x="784.6" y="142.8">Lback</text>
  <path d="M 903.8 213.0 L 951.8 213.0 Q 997.6999999999999 85.20000000000002 996.8 60.0 L 933.8 60.0 Q 943.8499999999999 140.25 903.8 153.0 Q 909.8 156.0 903.8 213.0 z" fill="rgb(255,217,194)" stroke="black"/>
  <text fill="rgb(9,33,173)" font-size="25" x="913.0" y="142.8">Lfront</text>
</svg>
