<?xml version="1.0" encoding="utf-8" ?>
<svg xmlns="http://www.w3.org/2000/svg" xmlns:ev="http://www.w3.org/2001/xml-events" xmlns:xlink="http://www.w3.org/1999/xlink" baseProfile="full" height="336.0px" version="1.1" width="1603.5px">
  <defs/>
  <path d="M 60 228 L 102 228 Q 138.3 140.10000000000002 87 111 L 60 60 L 60 228 z" fill="rgb(255,217,194)" stroke="black"/>
  <text fill="rgb(9,33,173)" font-size="25" x="52.25" y="159.75">rbsleeve</text>
  <path d="M 192.25 228.0 L 219.25 177.0 Q 270.55 147.9 234.25 60.0 L 192.25 60.0 L 192.25 228.0 z" fill="rgb(255,217,194)" stroke="black"/>
  <text fill="rgb(9,33,173)" font-size="25" x="184.5" y="134.25">rfsleeve</text>
  <path d="M 324.5 276.0 L 528.5 276.0 L 528.5 111.0 L 498.5 60.0 L 453.5 60.0 Q 489.8 147.89999999999998 438.5 177.0 L 324.5 276.0 z" fill="rgb(255,217,194)" stroke="black"/>
  <text fill="rgb(9,33,173)" font-size="25" x="437.0" y="163.0">front_right</text>
  <path d="M 607.0 276.0 L 1015.0 276.0 L 901.0 177.0 Q 849.7 147.9 886.0 60.0 L 841.0 60.0 Q 811.0 164.49967065621195 781.0 60.0 L 736.0 60.0 Q 772.3 147.89999999999998 721.0 177.0 L 607.0 276.0 z" fill="rgb(255,217,194)" stroke="black"/>
  <text fill="rgb(9,33,173)" font-size="25" x="786.0" y="146.25">back</text>
  <path d="M 1075.0 276.0 L 1279.0 276.0 L 1165.0 177.0 Q 1113.7 147.9 1150.0 60.0 L 1105.0 60.0 L 1075.0 111.0 L 1075.0 276.0 z" fill="rgb(255,217,194)" stroke="black"/>
  <text fill="rgb(9,33,173)" font-size="25" x="1116.5" y="163.0">front_left</text>
  <path d="M 1339.0 228.0 L 1366.0 177.0 Q 1417.3 147.9 1381.0 60.0 L 1339.0 60.0 L 1339.0 228.0 z" fill="rgb(255,217,194)" stroke="black"/>
  <text fill="rgb(9,33,173)" font-size="25" x="1331.25" y="134.25">lbsleeve</text>
  <path d="M 1471.25 228.0 L 1513.25 228.0 Q 1549.55 140.10000000000002 1498.25 111.0 L 1471.25 60.0 L 1471.25 228.0 z" fill="rgb(255,217,194)" stroke="black"/>
  <text fill="rgb(9,33,173)" font-size="25" x="1463.5" y="159.75">lfsleeve</text>
</svg>
