<?xml version="1.0" encoding="utf-8" ?>
<svg xmlns="http://www.w3.org/2000/svg" xmlns:ev="http://www.w3.org/2001/xml-events" xmlns:xlink="http://www.w3.org/1999/xlink" baseProfile="full" height="291px" version="1.1" width="1264.0px">
  <defs/>
  <path d="M 60 231 L 144 231 Q 180.0 148.5 132 120 L 60 60 L 60 231 z" fill="rgb(255,217,194)" stroke="black"/>
  <text fill="rgb(9,33,173)" font-size="25" x="74.0" y="163.5">rbsleeve</text>
  <path d="M 214.0 231.0 L 286.0 171.0 Q 334.0 142.5 298.0 60.0 L 214.0 60.0 L 214.0 231.0 z" fill="rgb(255,217,194)" stroke="black"/>
  <text fill="rgb(9,33,173)" font-size="25" x="228.0" y="133.5">rfsleeve</text>
  <path d="M 368.0 195.0 L 602.0 195.0 L 566.0 171.0 Q 517.1 143.7 551.0 60.0 L 506.0 60.0 Q 485.0 142.35565901707446 464.0 60.0 L 419.0 60.0 Q 452.9 143.7 404.0 171.0 L 368.0 195.0 z" fill="rgb(255,217,194)" stroke="black"/>
  <text fill="rgb(9,33,173)" font-size="25" x="460.0" y="124.5">back</text>
  <path d="M 662.0 195.0 L 896.0 195.0 L 860.0 171.0 Q 811.1 143.7 845.0 60.0 L 800.0 60.0 L 779.0 162.0 L 758.0 60.0 L 713.0 60.0 Q 746.9 143.7 698.0 171.0 L 662.0 195.0 z" fill="rgb(255,217,194)" stroke="black"/>
  <text fill="rgb(9,33,173)" font-size="25" x="754.0" y="129.0">front</text>
  <path d="M 956.0 231.0 L 1028.0 171.0 Q 1076.0 142.5 1040.0 60.0 L 956.0 60.0 L 956.0 231.0 z" fill="rgb(255,217,194)" stroke="black"/>
  <text fill="rgb(9,33,173)" font-size="25" x="970.0" y="133.5">lbsleeve</text>
  <path d="M 1110.0 231.0 L 1194.0 231.0 Q 1230.0 148.5 1182.0 120.0 L 1110.0 60.0 L 1110.0 231.0 z" fill="rgb(255,217,194)" stroke="black"/>
  <text fill="rgb(9,33,173)" font-size="25" x="1124.0" y="163.5">lfsleeve</text>
</svg>
