<?xml version="1.0" encoding="utf-8" ?>
<svg xmlns="http://www.w3.org/2000/svg" xmlns:ev="http://www.w3.org/2001/xml-events" xmlns:xlink="http://www.w3.org/1999/xlink" baseProfile="full" height="378px" version="1.1" width="1896px">
  <defs/>
  <path d="M 60 150 L 183 150 Q 197.4 105.3 171 93 L 60 60 L 60 150 z" fill="rgb(255,217,194)" stroke="black"/>
  <text fill="rgb(9,33,173)" font-size="25" x="93.5" y="116.25">rbsleeve</text>
  <path d="M 243 150 L 354 117 Q 380.40000000000003 104.7 366 60 L 243 60 L 243 150 z" fill="rgb(255,217,194)" stroke="black"/>
  <text fill="rgb(9,33,173)" font-size="25" x="276.5" y="99.75">rfsleeve</text>
  <path d="M 426 318 Q 567.0 235.9370404698637 708 318 L 636 102 L 624 60 L 510 60 L 498 102 L 426 318 z" fill="rgb(255,217,194)" stroke="black"/>
  <text fill="rgb(9,33,173)" font-size="25" x="542.0" y="163.0">skirt_back</text>
  <path d="M 768 318 Q 909.0 242.41189835953384 1050 318 L 978 102 L 966 60 L 852 60 L 840 102 L 768 318 z" fill="rgb(255,217,194)" stroke="black"/>
  <text fill="rgb(9,33,173)" font-size="25" x="884.0" y="163.0">skirt_front</text>
  <path d="M 1128 168 L 1242 168 L 1260 117 Q 1233.6000000000001 104.7 1248 60 L 1209 60 Q 1185.0 129.59060486054568 1161 60 L 1122 60 Q 1136.3999999999999 104.7 1110 117 L 1128 168 z" fill="rgb(255,217,194)" stroke="black"/>
  <text fill="rgb(9,33,173)" font-size="25" x="1160.0" y="104.25">top_back</text>
  <path d="M 1338 165 L 1452 165 L 1470 114 Q 1444.8000000000002 102.6 1458 60 L 1419 60 L 1395 72 L 1371 60 L 1332 60 Q 1345.1999999999998 102.6 1320 114 L 1338 165 z" fill="rgb(255,217,194)" stroke="black"/>
  <text fill="rgb(9,33,173)" font-size="25" x="1370.0" y="99.66666666666667">top_front</text>
  <path d="M 1530 150 L 1641 117 Q 1667.3999999999999 104.7 1653 60 L 1530 60 L 1530 150 z" fill="rgb(255,217,194)" stroke="black"/>
  <text fill="rgb(9,33,173)" font-size="25" x="1563.5" y="99.75">lbsleeve</text>
  <path d="M 1713 150 L 1836 150 Q 1850.3999999999999 105.3 1824 93 L 1713 60 L 1713 150 z" fill="rgb(255,217,194)" stroke="black"/>
  <text fill="rgb(9,33,173)" font-size="25" x="1746.5" y="116.25">lfsleeve</text>
</svg>
