<?xml version="1.0" encoding="utf-8" ?>
<svg xmlns="http://www.w3.org/2000/svg" xmlns:ev="http://www.w3.org/2001/xml-events" xmlns:xlink="http://www.w3.org/1999/xlink" baseProfile="full" height="393px" version="1.1" width="1402.0px">
  <defs/>
  <path d="M 60 333 L 318 333 L 318 60 L 60 60 L 60 333 z" fill="rgb(255,217,194)" stroke="black"/>
  <text fill="rgb(9,33,173)" font-size="25" x="164.0" y="199.5">skirt_back</text>
  <path d="M 378 75 L 468 75 L 468 60 L 378 60 L 378 75 z" fill="rgb(255,217,194)" stroke="black"/>
  <text fill="rgb(9,33,173)" font-size="25" x="398.0" y="70.5">wb_back</text>
  <path d="M 528 75 L 618 75 L 618 60 L 528 60 L 528 75 z" fill="rgb(255,217,194)" stroke="black"/>
  <text fill="rgb(9,33,173)" font-size="25" x="548.0" y="70.5">wb_front</text>
  <path d="M 688.0 333.0 L 946.0 333.0 L 946.0 60.0 L 688.0 60.0 L 688.0 333.0 z" fill="rgb(255,217,194)" stroke="black"/>
  <text fill="rgb(9,33,173)" font-size="25" x="792.0" y="199.5">skirt_front</text>
  <path d="M 1006.0 192.0 L 1144.0 192.0 L 1144.0 144.0 Q 1106.8000000000002 123.6 1132.0 60.0 L 1096.0 60.0 Q 1075.0 146.6071001775574 1054.0 60.0 L 1018.0 60.0 Q 1043.2 123.6 1006.0 144.0 L 1006.0 192.0 z" fill="rgb(255,217,194)" stroke="black"/>
  <text fill="rgb(9,33,173)" font-size="25" x="1050.0" y="117.0">top_back</text>
  <path d="M 1204.0 192.0 L 1342.0 192.0 L 1342.0 144.0 Q 1304.8000000000002 123.6 1330.0 60.0 L 1294.0 60.0 L 1273.0 84.0 L 1252.0 60.0 L 1216.0 60.0 Q 1241.1999999999998 123.6 1204.0 144.0 L 1204.0 192.0 z" fill="rgb(255,217,194)" stroke="black"/>
  <text fill="rgb(9,33,173)" font-size="25" x="1248.0" y="113.66666666666667">top_front</text>
</svg>
