<?xml version="1.0" encoding="utf-8" ?>
<svg xmlns="http://www.w3.org/2000/svg" xmlns:ev="http://www.w3.org/2001/xml-events" xmlns:xlink="http://www.w3.org/1999/xlink" baseProfile="full" height="414.0px" version="1.1" width="661.0px">
  <defs/>
  <path d="M 60 351 L 147 351 L 147 156 L 105 60 L 84 60 Q 99.6 106.8 72 120 L 60 351 z" fill="rgb(255,217,194)" stroke="black"/>
  <text fill="rgb(9,33,173)" font-size="25" x="77.5" y="186.0">front_right</text>
  <path d="M 247.5 354.0 L 421.5 354.0 L 409.5 120.0 Q 381.9 106.8 397.5 60.0 L 376.5 60.0 Q 334.5 168.91125658680085 292.5 60.0 L 271.5 60.0 Q 287.1 106.8 259.5 120.0 L 247.5 354.0 z" fill="rgb(255,217,194)" stroke="black"/>
  <text fill="rgb(9,33,173)" font-size="25" x="309.5" y="151.5">back</text>
  <path d="M 481.5 351.0 L 568.5 351.0 L 556.5 120.0 Q 528.9 106.8 544.5 60.0 L 523.5 60.0 L 481.5 156.0 L 481.5 351.0 z" fill="rgb(255,217,194)" stroke="black"/>
  <text fill="rgb(9,33,173)" font-size="25" x="501.0" y="186.0">front_left</text>
</svg>
