<?xml version="1.0" encoding="utf-8" ?>
<svg xmlns="http://www.w3.org/2000/svg" xmlns:ev="http://www.w3.org/2001/xml-events" xmlns:xlink="http://www.w3.org/1999/xlink" baseProfile="full" height="336.0px" version="1.1" width="1687.0px">
  <defs/>
  <path d="M 60 144 L 162 144 Q 186.89999999999998 85.80000000000001 153 66 L 60 60 L 60 144 z" fill="rgb(255,217,194)" stroke="black"/>
  <text fill="rgb(9,33,173)" font-size="25" x="83.75" y="106.5">rbsleeve</text>
  <path d="M 223.75 144.0 L 316.75 138.0 Q 350.65 118.19999999999999 325.75 60.0 L 223.75 60.0 L 223.75 144.0 z" fill="rgb(255,217,194)" stroke="black"/>
  <text fill="rgb(9,33,173)" font-size="25" x="247.5" y="103.5">rfsleeve</text>
  <path d="M 387.5 276.0 L 474.5 276.0 Q 487.85 92.55000000000001 477.5 60.0 L 417.5 60.0 Q 432.2 141.75 387.5 153.0 Q 399.8 159.15 387.5 276.0 z" fill="rgb(255,217,194)" stroke="black"/>
  <text fill="rgb(9,33,173)" font-size="25" x="403.9" y="168.0">Rback</text>
  <path d="M 540.5 276.0 L 627.5 276.0 Q 615.2 159.15 627.5 153.0 Q 587.45 140.25 597.5 60.0 L 537.5 60.0 Q 527.1500000000001 92.55000000000001 540.5 276.0 z" fill="rgb(255,217,194)" stroke="black"/>
  <text fill="rgb(9,33,173)" font-size="25" x="561.1" y="168.0">Rfront</text>
  <path d="M 690.5 168.0 L 750.5 168.0 L 810.5 168.0 L 813.5 138.0 Q 779.5999999999999 118.19999999999999 804.5 60.0 L 780.5 60.0 Q 750.5 113.8391344777394 720.5 60.0 L 696.5 60.0 Q 721.4000000000001 118.19999999999999 687.5 138.0 L 690.5 168.0 z" fill="rgb(255,217,194)" stroke="black"/>
  <text fill="rgb(9,33,173)" font-size="25" x="725.5" y="116.33333333333333">up_back</text>
  <path d="M 876.5 165.0 L 936.5 165.0 L 996.5 165.0 L 999.5 138.0 Q 965.5999999999999 118.19999999999999 990.5 60.0 L 966.5 60.0 L 936.5 141.0 L 906.5 60.0 L 882.5 60.0 Q 907.4000000000001 118.19999999999999 873.5 138.0 L 876.5 165.0 z" fill="rgb(255,217,194)" stroke="black"/>
  <text fill="rgb(9,33,173)" font-size="25" x="911.5" y="118.2">up_front</text>
  <path d="M 1062.5 276.0 L 1149.5 276.0 Q 1137.2 159.15 1149.5 153.0 Q 1104.8 141.75 1119.5 60.0 L 1059.5 60.0 Q 1049.15 92.55000000000001 1062.5 276.0 z" fill="rgb(255,217,194)" stroke="black"/>
  <text fill="rgb(9,33,173)" font-size="25" x="1083.1" y="168.0">Lback</text>
  <path d="M 1209.5 276.0 L 1296.5 276.0 Q 1309.85 92.55000000000001 1299.5 60.0 L 1239.5 60.0 Q 1249.55 140.25 1209.5 153.0 Q 1221.8 159.15 1209.5 276.0 z" fill="rgb(255,217,194)" stroke="black"/>
  <text fill="rgb(9,33,173)" font-size="25" x="1225.9" y="168.0">Lfront</text>
  <path d="M 1359.5 144.0 L 1452.5 138.0 Q 1486.4 118.19999999999999 1461.5 60.0 L 1359.5 60.0 L 1359.5 144.0 z" fill="rgb(255,217,194)" stroke="black"/>
  <text fill="rgb(9,33,173)" font-size="25" x="1383.25" y="103.5">lbsleeve</text>
  <path d="M 1523.25 144.0 L 1625.25 144.0 Q 1650.15 85.80000000000001 1616.25 66.0 L 1523.25 60.0 L 1523.25 144.0 z" fill="rgb(255,217,194)" stroke="black"/>
  <text fill="rgb(9,33,173)" font-size="25" x="1547.0" y="106.5">lfsleeve</text>
</svg>
