<?xml version="1.0" encoding="utf-8" ?>
<svg xmlns="http://www.w3.org/2000/svg" xmlns:ev="http://www.w3.org/2001/xml-events" xmlns:xlink="http://www.w3.org/1999/xlink" baseProfile="full" height="267px" version="1.1" width="1152px">
  <defs/>
  <path d="M 60 207 Q 171.0 161.404988169425 282 207 L 252 102 L 234 60 L 108 60 L 90 102 L 60 207 z" fill="rgb(255,217,194)" stroke="black"/>
  <text fill="rgb(9,33,173)" font-size="25" x="146.0" y="126.0">skirt_back</text>
  <path d="M 342 207 Q 453.0 236.4780403092857 564 207 L 534 102 L 516 60 L 390 60 L 372 102 L 342 207 z" fill="rgb(255,217,194)" stroke="black"/>
  <text fill="rgb(9,33,173)" font-size="25" x="428.0" y="126.0">skirt_front</text>
  <path d="M 663 168 L 789 168 L 828 144 Q 789.0 126.0 810 60 L 753 60 Q 726.0 151.48876488193832 699 60 L 642 60 Q 663.0 126.0 624 144 L 663 168 z" fill="rgb(255,217,194)" stroke="black"/>
  <text fill="rgb(9,33,173)" font-size="25" x="701.0" y="111.0">top_back</text>
  <path d="M 927 165 L 1053 165 L 1092 144 Q 1053.0 126.0 1074 60 L 1017 60 L 990 72 L 963 60 L 906 60 Q 927.0 126.0 888 144 L 927 165 z" fill="rgb(255,217,194)" stroke="black"/>
  <text fill="rgb(9,33,173)" font-size="25" x="965.0" y="106.33333333333333">top_front</text>
</svg>
