<?xml version="1.0" encoding="utf-8" ?>
<svg xmlns="http://www.w3.org/2000/svg" xmlns:ev="http://www.w3.org/2001/xml-events" xmlns:xlink="http://www.w3.org/1999/xlink" baseProfile="full" height="408px" version="1.1" width="1140px">
  <defs/>
  <path d="M 60 348 L 168 348 Q 164.55 102.15000000000002 147 60 L 90 60 Q 104.7 141.75 60 153 Q 79.5 162.75 60 348 z" fill="rgb(255,217,194)" stroke="black"/>
  <text fill="rgb(9,33,173)" font-size="25" x="80.0" y="196.8">Rback</text>
  <path d="M 228 348 L 336 348 Q 316.5 162.75 336 153 Q 295.95 140.25 306 60 L 249 60 Q 231.45 102.14999999999999 228 348 z" fill="rgb(255,217,194)" stroke="black"/>
  <text fill="rgb(9,33,173)" font-size="25" x="266.0" y="196.8">Rfront</text>
  <path d="M 411 168 L 468 168 L 525 168 L 540 153 Q 499.2 129.9 528 60 L 483 60 Q 468.0 62.80815521919607 453 60 L 408 60 Q 436.8 129.9 396 153 L 411 168 z" fill="rgb(255,217,194)" stroke="black"/>
  <text fill="rgb(9,33,173)" font-size="25" x="443.0" y="119.66666666666667">up_back</text>
  <path d="M 615 165 L 672 165 L 729 165 L 744 153 Q 703.1999999999999 129.9 732 60 L 687 60 L 672 78 L 657 60 L 612 60 Q 640.8000000000001 129.9 600 153 L 615 165 z" fill="rgb(255,217,194)" stroke="black"/>
  <text fill="rgb(9,33,173)" font-size="25" x="647.0" y="114.9">up_front</text>
  <path d="M 804 348 L 912 348 Q 892.5 162.75 912 153 Q 867.3 141.75 882 60 L 825 60 Q 807.45 102.14999999999999 804 348 z" fill="rgb(255,217,194)" stroke="black"/>
  <text fill="rgb(9,33,173)" font-size="25" x="842.0" y="196.8">Lback</text>
  <path d="M 972 348 L 1080 348 Q 1076.5500000000002 102.15000000000002 1059 60 L 1002 60 Q 1012.05 140.25 972 153 Q 991.5 162.75 972 348 z" fill="rgb(255,217,194)" stroke="black"/>
  <text fill="rgb(9,33,173)" font-size="25" x="992.0" y="196.8">Lfront</text>
</svg>
