<?xml version="1.0" encoding="utf-8" ?>
<svg xmlns="http://www.w3.org/2000/svg" xmlns:ev="http://www.w3.org/2001/xml-events" xmlns:xlink="http://www.w3.org/1999/xlink" baseProfile="full" height="408px" version="1.1" width="1116px">
  <defs/>
  <path d="M 60 348 L 171 348 Q 170.1 102.30000000000001 153 60 L 90 60 Q 104.7 141.75 60 153 Q 79.5 162.75 60 348 z" fill="rgb(255,217,194)" stroke="black"/>
  <text fill="rgb(9,33,173)" font-size="25" x="81.8" y="196.8">Rback</text>
  <path d="M 231 348 L 342 348 Q 322.5 162.75 342 153 Q 301.95 140.25 312 60 L 249 60 Q 231.9 102.29999999999998 231 348 z" fill="rgb(255,217,194)" stroke="black"/>
  <text fill="rgb(9,33,173)" font-size="25" x="270.2" y="196.8">Rfront</text>
  <path d="M 402 168 L 465 168 L 528 168 L 528 105 Q 506.4 96.3 516 60 L 489 60 Q 465.0 128.99610175666515 441 60 L 414 60 Q 423.6 96.3 402 105 L 402 168 z" fill="rgb(255,217,194)" stroke="black"/>
  <text fill="rgb(9,33,173)" font-size="25" x="440.0" y="109.0">up_back</text>
  <path d="M 588 165 L 651 165 L 714 165 L 714 105 Q 692.4 96.3 702 60 L 675 60 L 651 135 L 627 60 L 600 60 Q 609.6 96.3 588 105 L 588 165 z" fill="rgb(255,217,194)" stroke="black"/>
  <text fill="rgb(9,33,173)" font-size="25" x="626.0" y="111.0">up_front</text>
  <path d="M 774 348 L 885 348 Q 865.5 162.75 885 153 Q 840.3 141.75 855 60 L 792 60 Q 774.9 102.29999999999998 774 348 z" fill="rgb(255,217,194)" stroke="black"/>
  <text fill="rgb(9,33,173)" font-size="25" x="813.2" y="196.8">Lback</text>
  <path d="M 945 348 L 1056 348 Q 1055.1000000000001 102.30000000000001 1038 60 L 975 60 Q 985.05 140.25 945 153 Q 964.5 162.75 945 348 z" fill="rgb(255,217,194)" stroke="black"/>
  <text fill="rgb(9,33,173)" font-size="25" x="966.8" y="196.8">Lfront</text>
</svg>
