<?xml version="1.0" encoding="utf-8" ?>
<svg xmlns="http://www.w3.org/2000/svg" xmlns:ev="http://www.w3.org/2001/xml-events" xmlns:xlink="http://www.w3.org/1999/xlink" baseProfile="full" height="231.0px" version="1.1" width="1390.0px">
  <defs/>
  <path d="M 60 147 L 288 147 L 288 60 L 60 60 L 60 147 z" fill="rgb(255,217,194)" stroke="black"/>
  <text fill="rgb(9,33,173)" font-size="25" x="149.0" y="106.5">skirt_back</text>
  <path d="M 348 75 L 438 75 L 438 60 L 348 60 L 348 75 z" fill="rgb(255,217,194)" stroke="black"/>
  <text fill="rgb(9,33,173)" font-size="25" x="368.0" y="70.5">wb_back</text>
  <path d="M 498 75 L 588 75 L 588 60 L 498 60 L 498 75 z" fill="rgb(255,217,194)" stroke="black"/>
  <text fill="rgb(9,33,173)" font-size="25" x="518.0" y="70.5">wb_front</text>
  <path d="M 658.0 147.0 L 886.0 147.0 L 886.0 60.0 L 658.0 60.0 L 658.0 147.0 z" fill="rgb(255,217,194)" stroke="black"/>
  <text fill="rgb(9,33,173)" font-size="25" x="747.0" y="106.5">skirt_front</text>
  <path d="M 946.0 171.0 L 1108.0 171.0 L 1108.0 123.0 Q 1079.2 108.89999999999999 1096.0 60.0 L 1072.0 60.0 Q 1027.0 153.9384638602482 982.0 60.0 L 958.0 60.0 Q 974.8000000000001 108.89999999999999 946.0 123.0 L 946.0 171.0 z" fill="rgb(255,217,194)" stroke="black"/>
  <text fill="rgb(9,33,173)" font-size="25" x="1002.0" y="106.5">top_back</text>
  <path d="M 1168.0 171.0 L 1330.0 171.0 L 1330.0 123.0 Q 1301.2 108.89999999999999 1318.0 60.0 L 1294.0 60.0 L 1249.0 96.0 L 1204.0 60.0 L 1180.0 60.0 Q 1196.8 108.89999999999999 1168.0 123.0 L 1168.0 171.0 z" fill="rgb(255,217,194)" stroke="black"/>
  <text fill="rgb(9,33,173)" font-size="25" x="1224.0" y="105.66666666666667">top_front</text>
</svg>
