<?xml version="1.0" encoding="utf-8" ?>
<svg xmlns="http://www.w3.org/2000/svg" xmlns:ev="http://www.w3.org/2001/xml-events" xmlns:xlink="http://www.w3.org/1999/xlink" baseProfile="full" height="276px" version="1.1" width="1512.0px">
  <defs/>
  <path d="M 60 216 L 195 216 L 183 60 L 90 60 Q 104.7 141.75 60 153 Q 66.3 156.15 60 216 z" fill="rgb(255,217,194)" stroke="black"/>
  <text fill="rgb(9,33,173)" font-size="25" x="92.6" y="144.0">Rback</text>
  <path d="M 255 216 L 390 216 Q 383.7 156.15 390 153 Q 349.95 140.25 360 60 L 267 60 L 255 216 z" fill="rgb(255,217,194)" stroke="black"/>
  <text fill="rgb(9,33,173)" font-size="25" x="307.4" y="144.0">Rfront</text>
  <path d="M 450 75 L 489 75 L 528 75 L 528 60 L 450 60 L 450 75 z" fill="rgb(255,217,194)" stroke="black"/>
  <text fill="rgb(9,33,173)" font-size="25" x="464.0" y="72.0">wb_back</text>
  <path d="M 594.0 75.0 L 633.0 75.0 L 672.0 75.0 L 672.0 60.0 L 594.0 60.0 L 594.0 75.0 z" fill="rgb(255,217,194)" stroke="black"/>
  <text fill="rgb(9,33,173)" font-size="25" x="608.0" y="72.0">wb_front</text>
  <path d="M 748.0 165.0 L 874.0 165.0 L 874.0 105.0 Q 852.4 96.3 862.0 60.0 L 832.0 60.0 Q 811.0 116.65854025713253 790.0 60.0 L 760.0 60.0 Q 769.6 96.3 748.0 105.0 L 748.0 165.0 z" fill="rgb(255,217,194)" stroke="black"/>
  <text fill="rgb(9,33,173)" font-size="25" x="786.0" y="100.5">top_back</text>
  <path d="M 934.0 165.0 L 1060.0 165.0 L 1060.0 102.0 Q 1039.6000000000001 94.2 1048.0 60.0 L 1018.0 60.0 L 997.0 135.0 L 976.0 60.0 L 946.0 60.0 Q 954.4 94.2 934.0 102.0 L 934.0 165.0 z" fill="rgb(255,217,194)" stroke="black"/>
  <text fill="rgb(9,33,173)" font-size="25" x="972.0" y="104.0">top_front</text>
  <path d="M 1122.0 216.0 L 1257.0 216.0 Q 1250.7 156.15 1257.0 153.0 Q 1212.3 141.75 1227.0 60.0 L 1134.0 60.0 L 1122.0 216.0 z" fill="rgb(255,217,194)" stroke="black"/>
  <text fill="rgb(9,33,173)" font-size="25" x="1174.4" y="144.0">Lback</text>
  <path d="M 1317.0 216.0 L 1452.0 216.0 L 1440.0 60.0 L 1347.0 60.0 Q 1357.05 140.25 1317.0 153.0 Q 1323.3 156.15 1317.0 216.0 z" fill="rgb(255,217,194)" stroke="black"/>
  <text fill="rgb(9,33,173)" font-size="25" x="1349.6" y="144.0">Lfront</text>
</svg>
