<?xml version="1.0" encoding="utf-8" ?>
<svg xmlns="http://www.w3.org/2000/svg" xmlns:ev="http://www.w3.org/2001/xml-events" xmlns:xlink="http://www.w3.org/1999/xlink" baseProfile="full" height="519.0px" version="1.1" width="907.0px">
  <defs/>
  <path d="M 78 456 L 135 456 L 135 69 L 93 60 L 72 60 Q 110.4 146.7 60 177 L 78 456 z" fill="rgb(255,217,194)" stroke="black"/>
  <text fill="rgb(9,33,173)" font-size="25" x="70.5" y="216.0">front_right</text>
  <path d="M 246.5 138.0 L 264.5 141.0 Q 330.20000000000005 150.9 321.5 60.0 L 282.5 69.0 L 240.5 60.0 L 246.5 138.0 z" fill="rgb(255,217,194)" stroke="black"/>
  <text fill="rgb(9,33,173)" font-size="25" x="246.10000000000002" y="96.6">Rhood</text>
  <path d="M 399.5 459.0 L 513.5 459.0 L 531.5 180.0 Q 479.9 148.8 519.5 60.0 L 498.5 60.0 L 456.5 69.0 L 414.5 60.0 L 393.5 60.0 Q 433.1 148.8 381.5 180.0 L 399.5 459.0 z" fill="rgb(255,217,194)" stroke="black"/>
  <text fill="rgb(9,33,173)" font-size="25" x="431.5" y="179.33333333333334">back</text>
  <path d="M 591.5 141.0 L 633.5 132.0 L 672.5 141.0 Q 681.2 50.100000000000016 615.5 60.0 L 597.5 63.0 L 591.5 141.0 z" fill="rgb(255,217,194)" stroke="black"/>
  <text fill="rgb(9,33,173)" font-size="25" x="597.1" y="110.4">Lhood</text>
  <path d="M 732.5 456.0 L 789.5 456.0 L 807.5 177.0 Q 757.1 146.70000000000002 795.5 60.0 L 774.5 60.0 L 732.5 69.0 L 732.5 456.0 z" fill="rgb(255,217,194)" stroke="black"/>
  <text fill="rgb(9,33,173)" font-size="25" x="747.0" y="216.0">front_left</text>
</svg>
