<?xml version="1.0" encoding="utf-8" ?>
<svg xmlns="http://www.w3.org/2000/svg" xmlns:ev="http://www.w3.org/2001/xml-events" xmlns:xlink="http://www.w3.org/1999/xlink" baseProfile="full" height="402px" version="1.1" width="1650px">
  <defs/>
  <path d="M 60 141 L 177 141 Q 192.9 88.80000000000001 162 75 L 60 60 L 60 141 z" fill="rgb(255,217,194)" stroke="black"/>
  <text fill="rgb(9,33,173)" font-size="25" x="89.75" y="107.25">rbsleeve</text>
  <path d="M 237 141 L 339 126 Q 369.9 112.2 354 60 L 237 60 L 237 141 z" fill="rgb(255,217,194)" stroke="black"/>
  <text fill="rgb(9,33,173)" font-size="25" x="266.75" y="99.75">rfsleeve</text>
  <path d="M 414 342 L 666 342 L 627 126 Q 597.0 111.0 615 60 L 573 60 L 540 69 L 507 60 L 465 60 Q 483.0 110.99999999999999 453 126 L 414 342 z" fill="rgb(255,217,194)" stroke="black"/>
  <text fill="rgb(9,33,173)" font-size="25" x="515.0" y="141.33333333333334">back</text>
  <path d="M 726 342 L 978 342 L 939 126 Q 909.0 111.0 927 60 L 885 60 L 852 75 L 819 60 L 777 60 Q 795.0 110.99999999999999 765 126 L 726 342 z" fill="rgb(255,217,194)" stroke="black"/>
  <text fill="rgb(9,33,173)" font-size="25" x="827.0" y="142.0">front</text>
  <path d="M 1038 171 L 1104 171 Q 1162.5 144.0 1107 75 L 1074 84 L 1038 60 L 1038 171 z" fill="rgb(255,217,194)" stroke="black"/>
  <text fill="rgb(9,33,173)" font-size="25" x="1047.2" y="115.2">Rhood</text>
  <path d="M 1167 171 L 1203 147 L 1236 156 Q 1291.5 87.00000000000001 1233 60 L 1167 60 L 1167 171 z" fill="rgb(255,217,194)" stroke="black"/>
  <text fill="rgb(9,33,173)" font-size="25" x="1176.2" y="121.8">Lhood</text>
  <path d="M 1296 141 L 1398 126 Q 1428.9 112.2 1413 60 L 1296 60 L 1296 141 z" fill="rgb(255,217,194)" stroke="black"/>
  <text fill="rgb(9,33,173)" font-size="25" x="1325.75" y="99.75">lbsleeve</text>
  <path d="M 1473 141 L 1590 141 Q 1605.9 88.80000000000001 1575 75 L 1473 60 L 1473 141 z" fill="rgb(255,217,194)" stroke="black"/>
  <text fill="rgb(9,33,173)" font-size="25" x="1502.75" y="107.25">lfsleeve</text>
</svg>
