<?xml version="1.0" encoding="utf-8" ?>
<svg xmlns="http://www.w3.org/2000/svg" xmlns:ev="http://www.w3.org/2001/xml-events" xmlns:xlink="http://www.w3.org/1999/xlink" baseProfile="full" height="321.0px" version="1.1" width="1735.0px">
  <defs/>
  <path d="M 60 129 L 126 129 Q 147.3 77.10000000000001 117 60 L 60 78 L 60 129 z" fill="rgb(255,217,194)" stroke="black"/>
  <text fill="rgb(9,33,173)" font-size="25" x="65.75" y="102.0">rbsleeve</text>
  <path d="M 205.75 111.0 L 262.75 129.0 Q 293.05 111.89999999999999 271.75 60.0 L 205.75 60.0 L 205.75 111.0 z" fill="rgb(255,217,194)" stroke="black"/>
  <text fill="rgb(9,33,173)" font-size="25" x="211.5" y="93.0">rfsleeve</text>
  <path d="M 351.5 261.0 L 444.5 261.0 Q 464.75 90.75 456.5 60.0 L 381.5 60.0 Q 396.2 141.75 351.5 153.0 Q 362.3 158.4 351.5 261.0 z" fill="rgb(255,217,194)" stroke="black"/>
  <text fill="rgb(9,33,173)" font-size="25" x="372.1" y="162.0">Rback</text>
  <path d="M 528.5 261.0 L 621.5 261.0 Q 610.7 158.4 621.5 153.0 Q 581.45 140.25 591.5 60.0 L 516.5 60.0 Q 508.24999999999994 90.75 528.5 261.0 z" fill="rgb(255,217,194)" stroke="black"/>
  <text fill="rgb(9,33,173)" font-size="25" x="550.9" y="162.0">Rfront</text>
  <path d="M 681.5 168.0 L 759.5 168.0 L 837.5 168.0 L 819.5 129.0 Q 789.1999999999999 111.89999999999999 810.5 60.0 L 789.5 60.0 Q 759.5 76.63532880395059 729.5 60.0 L 708.5 60.0 Q 729.8000000000001 111.89999999999999 699.5 129.0 L 681.5 168.0 z" fill="rgb(255,217,194)" stroke="black"/>
  <text fill="rgb(9,33,173)" font-size="25" x="734.5" y="114.33333333333333">up_back</text>
  <path d="M 897.5 165.0 L 975.5 165.0 L 1053.5 165.0 L 1035.5 129.0 Q 1005.1999999999999 111.89999999999999 1026.5 60.0 L 1005.5 60.0 L 975.5 63.0 L 945.5 60.0 L 924.5 60.0 Q 945.8000000000001 111.89999999999999 915.5 129.0 L 897.5 165.0 z" fill="rgb(255,217,194)" stroke="black"/>
  <text fill="rgb(9,33,173)" font-size="25" x="950.5" y="108.6">up_front</text>
  <path d="M 1125.5 261.0 L 1218.5 261.0 Q 1207.7 158.4 1218.5 153.0 Q 1173.8 141.75 1188.5 60.0 L 1113.5 60.0 Q 1105.25 90.75 1125.5 261.0 z" fill="rgb(255,217,194)" stroke="black"/>
  <text fill="rgb(9,33,173)" font-size="25" x="1147.9" y="162.0">Lback</text>
  <path d="M 1278.5 261.0 L 1371.5 261.0 Q 1391.75 90.75 1383.5 60.0 L 1308.5 60.0 Q 1318.55 140.25 1278.5 153.0 Q 1289.3 158.4 1278.5 261.0 z" fill="rgb(255,217,194)" stroke="black"/>
  <text fill="rgb(9,33,173)" font-size="25" x="1299.1" y="162.0">Lfront</text>
  <path d="M 1443.5 111.0 L 1500.5 129.0 Q 1530.8 111.89999999999999 1509.5 60.0 L 1443.5 60.0 L 1443.5 111.0 z" fill="rgb(255,217,194)" stroke="black"/>
  <text fill="rgb(9,33,173)" font-size="25" x="1449.25" y="93.0">lbsleeve</text>
  <path d="M 1589.25 129.0 L 1655.25 129.0 Q 1676.55 77.10000000000001 1646.25 60.0 L 1589.25 78.0 L 1589.25 129.0 z" fill="rgb(255,217,194)" stroke="black"/>
  <text fill="rgb(9,33,173)" font-size="25" x="1595.0" y="102.0">lfsleeve</text>
</svg>
