<?xml version="1.0" encoding="utf-8" ?>
<svg xmlns="http://www.w3.org/2000/svg" xmlns:ev="http://www.w3.org/2001/xml-events" xmlns:xlink="http://www.w3.org/1999/xlink" baseProfile="full" height="228px" version="1.1" width="916.0px">
  <defs/>
  <path d="M 60 168 Q 141.0 144.08422034779665 222 168 L 219 102 L 195 60 L 87 60 L 63 102 L 60 168 z" fill="rgb(255,217,194)" stroke="black"/>
  <text fill="rgb(9,33,173)" font-size="25" x="116.0" y="113.0">skirt_back</text>
  <path d="M 282 168 Q 363.0 108.65564700649065 444 168 L 441 102 L 417 60 L 309 60 L 285 102 L 282 168 z" fill="rgb(255,217,194)" stroke="black"/>
  <text fill="rgb(9,33,173)" font-size="25" x="338.0" y="113.0">skirt_front</text>
  <path d="M 526.0 168.0 L 634.0 168.0 L 652.0 144.0 Q 614.8 123.6 640.0 60.0 L 598.0 60.0 Q 580.0 80.62369537005138 562.0 60.0 L 520.0 60.0 Q 545.2 123.6 508.0 144.0 L 526.0 168.0 z" fill="rgb(255,217,194)" stroke="black"/>
  <text fill="rgb(9,33,173)" font-size="25" x="555.0" y="111.0">top_back</text>
  <path d="M 730.0 165.0 L 838.0 165.0 L 856.0 141.0 Q 820.0 121.5 844.0 60.0 L 802.0 60.0 L 784.0 123.0 L 766.0 60.0 L 724.0 60.0 Q 748.0 121.49999999999999 712.0 141.0 L 730.0 165.0 z" fill="rgb(255,217,194)" stroke="black"/>
  <text fill="rgb(9,33,173)" font-size="25" x="759.0" y="111.33333333333333">top_front</text>
</svg>
