<?xml version="1.0" encoding="utf-8" ?>
<svg xmlns="http://www.w3.org/2000/svg" xmlns:ev="http://www.w3.org/2001/xml-events" xmlns:xlink="http://www.w3.org/1999/xlink" baseProfile="full" height="363px" version="1.1" width="1354.0px">
  <defs/>
  <path d="M 60 303 L 294 303 L 294 60 L 60 60 L 60 303 z" fill="rgb(255,217,194)" stroke="black"/>
  <text fill="rgb(9,33,173)" font-size="25" x="152.0" y="184.5">skirt_back</text>
  <path d="M 354 75 L 444 75 L 444 60 L 354 60 L 354 75 z" fill="rgb(255,217,194)" stroke="black"/>
  <text fill="rgb(9,33,173)" font-size="25" x="374.0" y="70.5">wb_back</text>
  <path d="M 504 75 L 594 75 L 594 60 L 504 60 L 504 75 z" fill="rgb(255,217,194)" stroke="black"/>
  <text fill="rgb(9,33,173)" font-size="25" x="524.0" y="70.5">wb_front</text>
  <path d="M 664.0 303.0 L 898.0 303.0 L 898.0 60.0 L 664.0 60.0 L 664.0 303.0 z" fill="rgb(255,217,194)" stroke="black"/>
  <text fill="rgb(9,33,173)" font-size="25" x="756.0" y="184.5">skirt_front</text>
  <path d="M 958.0 153.0 L 1096.0 153.0 L 1096.0 123.0 Q 1067.2 108.89999999999999 1084.0 60.0 L 1045.0 60.0 Q 1027.0 106.30887389287034 1009.0 60.0 L 970.0 60.0 Q 986.8000000000001 108.89999999999999 958.0 123.0 L 958.0 153.0 z" fill="rgb(255,217,194)" stroke="black"/>
  <text fill="rgb(9,33,173)" font-size="25" x="1002.0" y="102.0">top_back</text>
  <path d="M 1156.0 150.0 L 1294.0 150.0 L 1294.0 123.0 Q 1265.2 108.89999999999999 1282.0 60.0 L 1243.0 60.0 L 1225.0 117.0 L 1207.0 60.0 L 1168.0 60.0 Q 1184.8 108.89999999999999 1156.0 123.0 L 1156.0 150.0 z" fill="rgb(255,217,194)" stroke="black"/>
  <text fill="rgb(9,33,173)" font-size="25" x="1200.0" y="103.33333333333333">top_front</text>
</svg>
