<?xml version="1.0" encoding="utf-8" ?>
<svg xmlns="http://www.w3.org/2000/svg" xmlns:ev="http://www.w3.org/2001/xml-events" xmlns:xlink="http://www.w3.org/1999/xlink" baseProfile="full" height="321px" version="1.1" width="1174.0px">
  <defs/>
  <path d="M 60 261 L 222 261 L 222 60 L 60 60 L 60 261 z" fill="rgb(255,217,194)" stroke="black"/>
  <text fill="rgb(9,33,173)" font-size="25" x="116.0" y="163.5">skirt_back</text>
  <path d="M 282 72 L 372 72 L 372 60 L 282 60 L 282 72 z" fill="rgb(255,217,194)" stroke="black"/>
  <text fill="rgb(9,33,173)" font-size="25" x="302.0" y="69.0">wb_back</text>
  <path d="M 432 72 L 522 72 L 522 60 L 432 60 L 432 72 z" fill="rgb(255,217,194)" stroke="black"/>
  <text fill="rgb(9,33,173)" font-size="25" x="452.0" y="69.0">wb_front</text>
  <path d="M 592.0 261.0 L 754.0 261.0 L 754.0 60.0 L 592.0 60.0 L 592.0 261.0 z" fill="rgb(255,217,194)" stroke="black"/>
  <text fill="rgb(9,33,173)" font-size="25" x="648.0" y="163.5">skirt_front</text>
  <path d="M 818.0 189.0 L 932.0 189.0 L 932.0 111.0 Q 908.9 99.3 923.0 60.0 L 896.0 60.0 Q 875.0 105.603374386159 854.0 60.0 L 827.0 60.0 Q 841.1 99.29999999999998 818.0 111.0 L 818.0 189.0 z" fill="rgb(255,217,194)" stroke="black"/>
  <text fill="rgb(9,33,173)" font-size="25" x="850.0" y="108.0">top_back</text>
  <path d="M 992.0 189.0 L 1106.0 189.0 L 1106.0 111.0 Q 1082.8999999999999 99.3 1097.0 60.0 L 1070.0 60.0 L 1049.0 138.0 L 1028.0 60.0 L 1001.0 60.0 Q 1015.1 99.29999999999998 992.0 111.0 L 992.0 189.0 z" fill="rgb(255,217,194)" stroke="black"/>
  <text fill="rgb(9,33,173)" font-size="25" x="1024.0" y="111.66666666666667">top_front</text>
</svg>
