<?xml version="1.0" encoding="utf-8" ?>
<svg xmlns="http://www.w3.org/2000/svg" xmlns:ev="http://www.w3.org/2001/xml-events" xmlns:xlink="http://www.w3.org/1999/xlink" baseProfile="full" height="513.0px" version="1.1" width="859.0px">
  <defs/>
  <path d="M 66 450 L 129 450 L 129 66 L 111 60 L 72 60 Q 100.80000000000001 129.9 60 153 L 66 450 z" fill="rgb(255,217,194)" stroke="black"/>
  <text fill="rgb(9,33,173)" font-size="25" x="69.5" y="209.5">front_right</text>
  <path d="M 239.5 141.0 L 305.5 150.0 Q 355.9 115.8 293.5 60.0 L 275.5 69.0 L 257.5 63.0 L 239.5 141.0 z" fill="rgb(255,217,194)" stroke="black"/>
  <text fill="rgb(9,33,173)" font-size="25" x="249.3" y="99.6">Rhood</text>
  <path d="M 371.5 453.0 L 497.5 453.0 L 503.5 153.0 Q 462.7 129.9 491.5 60.0 L 452.5 60.0 L 434.5 69.0 L 416.5 60.0 L 377.5 60.0 Q 406.3 129.9 365.5 153.0 L 371.5 453.0 z" fill="rgb(255,217,194)" stroke="black"/>
  <text fill="rgb(9,33,173)" font-size="25" x="409.5" y="172.0">back</text>
  <path d="M 581.5 147.0 L 599.5 141.0 L 617.5 150.0 Q 679.9 94.2 629.5 60.0 L 563.5 69.0 L 581.5 147.0 z" fill="rgb(255,217,194)" stroke="black"/>
  <text fill="rgb(9,33,173)" font-size="25" x="573.3" y="116.4">Lhood</text>
  <path d="M 689.5 450.0 L 752.5 450.0 L 758.5 153.0 Q 717.6999999999999 129.9 746.5 60.0 L 707.5 60.0 L 689.5 66.0 L 689.5 450.0 z" fill="rgb(255,217,194)" stroke="black"/>
  <text fill="rgb(9,33,173)" font-size="25" x="699.0" y="209.5">front_left</text>
</svg>
