<?xml version="1.0" encoding="utf-8" ?>
<svg xmlns="http://www.w3.org/2000/svg" xmlns:ev="http://www.w3.org/2001/xml-events" xmlns:xlink="http://www.w3.org/1999/xlink" baseProfile="full" height="366px" version="1.1" width="1812px">
  <defs/>
  <path d="M 60 123 L 183 123 Q 199.8 74.10000000000001 171 60 L 60 66 L 60 123 z" fill="rgb(255,217,194)" stroke="black"/>
  <text fill="rgb(9,33,173)" font-size="25" x="93.5" y="96.0">rbsleeve</text>
  <path d="M 243 117 L 354 123 Q 382.8 108.89999999999999 366 60 L 243 60 L 243 117 z" fill="rgb(255,217,194)" stroke="black"/>
  <text fill="rgb(9,33,173)" font-size="25" x="276.5" y="93.0">rfsleeve</text>
  <path d="M 426 306 L 519 306 Q 531.3 96.9 519 60 L 456 60 Q 470.7 141.75 426 153 Q 441.3 160.65 426 306 z" fill="rgb(255,217,194)" stroke="black"/>
  <text fill="rgb(9,33,173)" font-size="25" x="444.2" y="180.0">Rback</text>
  <path d="M 579 306 L 672 306 Q 656.7 160.65 672 153 Q 631.95 140.25 642 60 L 579 60 Q 566.7 96.9 579 306 z" fill="rgb(255,217,194)" stroke="black"/>
  <text fill="rgb(9,33,173)" font-size="25" x="603.8" y="180.0">Rfront</text>
  <path d="M 741 168 L 804 168 L 867 168 L 876 123 Q 847.1999999999999 108.89999999999999 864 60 L 819 60 Q 804.0 77.5694608927856 789 60 L 744 60 Q 760.8000000000001 108.89999999999999 732 123 L 741 168 z" fill="rgb(255,217,194)" stroke="black"/>
  <text fill="rgb(9,33,173)" font-size="25" x="779.0" y="113.0">up_back</text>
  <path d="M 945 165 L 1008 165 L 1071 165 L 1080 123 Q 1051.2 108.89999999999999 1068 60 L 1023 60 L 1008 117 L 993 60 L 948 60 Q 964.8000000000001 108.89999999999999 936 123 L 945 165 z" fill="rgb(255,217,194)" stroke="black"/>
  <text fill="rgb(9,33,173)" font-size="25" x="983.0" y="112.8">up_front</text>
  <path d="M 1140 306 L 1233 306 Q 1217.7 160.65 1233 153 Q 1188.3 141.75 1203 60 L 1140 60 Q 1127.7 96.9 1140 306 z" fill="rgb(255,217,194)" stroke="black"/>
  <text fill="rgb(9,33,173)" font-size="25" x="1164.8" y="180.0">Lback</text>
  <path d="M 1293 306 L 1386 306 Q 1398.3 96.9 1386 60 L 1323 60 Q 1333.05 140.25 1293 153 Q 1308.3 160.65 1293 306 z" fill="rgb(255,217,194)" stroke="black"/>
  <text fill="rgb(9,33,173)" font-size="25" x="1311.2" y="180.0">Lfront</text>
  <path d="M 1446 117 L 1557 123 Q 1585.8 108.89999999999999 1569 60 L 1446 60 L 1446 117 z" fill="rgb(255,217,194)" stroke="black"/>
  <text fill="rgb(9,33,173)" font-size="25" x="1479.5" y="93.0">lbsleeve</text>
  <path d="M 1629 123 L 1752 123 Q 1768.8 74.10000000000001 1740 60 L 1629 66 L 1629 123 z" fill="rgb(255,217,194)" stroke="black"/>
  <text fill="rgb(9,33,173)" font-size="25" x="1662.5" y="96.0">lfsleeve</text>
</svg>
