<?xml version="1.0" encoding="utf-8" ?>
<svg xmlns="http://www.w3.org/2000/svg" xmlns:ev="http://www.w3.org/2001/xml-events" xmlns:xlink="http://www.w3.org/1999/xlink" baseProfile="full" height="363px" version="1.1" width="1887.0px">
  <defs/>
  <path d="M 60 165 L 189 165 Q 222.6 86.7 177 60 L 60 117 L 60 165 z" fill="rgb(255,217,194)" stroke="black"/>
  <text fill="rgb(9,33,173)" font-size="25" x="96.5" y="129.75">rbsleeve</text>
  <path d="M 249 108 L 366 165 Q 411.6 138.3 378 60 L 249 60 L 249 108 z" fill="rgb(255,217,194)" stroke="black"/>
  <text fill="rgb(9,33,173)" font-size="25" x="285.5" y="101.25">rfsleeve</text>
  <path d="M 438 303 L 588 303 L 588 84 L 555 60 L 528 60 Q 562.5 134.99999999999997 519 162 L 438 303 z" fill="rgb(255,217,194)" stroke="black"/>
  <text fill="rgb(9,33,173)" font-size="25" x="511.0" y="165.0">front_right</text>
  <path d="M 681.0 174.0 L 693.0 174.0 Q 767.7 179.39999999999998 750.0 78.0 L 717.0 87.0 L 681.0 60.0 L 681.0 174.0 z" fill="rgb(255,217,194)" stroke="black"/>
  <text fill="rgb(9,33,173)" font-size="25" x="679.4" y="117.6">Rhood</text>
  <path d="M 810.0 303.0 L 1110.0 303.0 L 1029.0 162.0 Q 985.5 135.0 1020.0 60.0 L 993.0 60.0 L 960.0 69.0 L 927.0 60.0 L 900.0 60.0 Q 934.5 134.99999999999997 891.0 162.0 L 810.0 303.0 z" fill="rgb(255,217,194)" stroke="black"/>
  <text fill="rgb(9,33,173)" font-size="25" x="935.0" y="140.66666666666666">back</text>
  <path d="M 1170.0 174.0 L 1206.0 147.0 L 1239.0 156.0 Q 1256.6999999999998 54.600000000000016 1182.0 60.0 L 1170.0 60.0 L 1170.0 174.0 z" fill="rgb(255,217,194)" stroke="black"/>
  <text fill="rgb(9,33,173)" font-size="25" x="1168.4" y="122.4">Lhood</text>
  <path d="M 1299.0 303.0 L 1449.0 303.0 L 1368.0 162.0 Q 1324.5 135.0 1359.0 60.0 L 1332.0 60.0 L 1299.0 84.0 L 1299.0 303.0 z" fill="rgb(255,217,194)" stroke="black"/>
  <text fill="rgb(9,33,173)" font-size="25" x="1326.0" y="165.0">front_left</text>
  <path d="M 1509.0 108.0 L 1626.0 165.0 Q 1671.6 138.3 1638.0 60.0 L 1509.0 60.0 L 1509.0 108.0 z" fill="rgb(255,217,194)" stroke="black"/>
  <text fill="rgb(9,33,173)" font-size="25" x="1545.5" y="101.25">lbsleeve</text>
  <path d="M 1698.0 165.0 L 1827.0 165.0 Q 1860.6 86.7 1815.0 60.0 L 1698.0 117.0 L 1698.0 165.0 z" fill="rgb(255,217,194)" stroke="black"/>
  <text fill="rgb(9,33,173)" font-size="25" x="1734.5" y="129.75">lfsleeve</text>
</svg>
