<?xml version="1.0" encoding="utf-8" ?>
<svg xmlns="http://www.w3.org/2000/svg" xmlns:ev="http://www.w3.org/2001/xml-events" xmlns:xlink="http://www.w3.org/1999/xlink" baseProfile="full" height="333.0px" version="1.1" width="1657.0px">
  <defs/>
  <path d="M 60 210 L 153 210 Q 190.5 120.0 138 90 L 60 60 L 60 210 z" fill="rgb(255,217,194)" stroke="black"/>
  <text fill="rgb(9,33,173)" font-size="25" x="77.75" y="145.5">rbsleeve</text>
  <path d="M 217.75 210.0 L 295.75 180.0 Q 348.25 150.0 310.75 60.0 L 217.75 60.0 L 217.75 210.0 z" fill="rgb(255,217,194)" stroke="black"/>
  <text fill="rgb(9,33,173)" font-size="25" x="235.5" y="130.5">rfsleeve</text>
  <path d="M 375.5 273.0 L 651.5 273.0 L 600.5 180.0 Q 548.0 150.0 585.5 60.0 L 555.5 60.0 L 513.5 69.0 L 471.5 60.0 L 441.5 60.0 Q 479.0 150.0 426.5 180.0 L 375.5 273.0 z" fill="rgb(255,217,194)" stroke="black"/>
  <text fill="rgb(9,33,173)" font-size="25" x="488.5" y="138.0">back</text>
  <path d="M 711.5 273.0 L 987.5 273.0 L 936.5 180.0 Q 884.0 150.0 921.5 60.0 L 891.5 60.0 L 849.5 90.0 L 807.5 60.0 L 777.5 60.0 Q 815.0 150.0 762.5 180.0 L 711.5 273.0 z" fill="rgb(255,217,194)" stroke="black"/>
  <text fill="rgb(9,33,173)" font-size="25" x="824.5" y="140.33333333333334">front</text>
  <path d="M 1056.5 204.0 L 1098.5 198.0 Q 1177.7 185.4 1134.5 84.0 L 1092.5 93.0 L 1047.5 60.0 L 1056.5 204.0 z" fill="rgb(255,217,194)" stroke="black"/>
  <text fill="rgb(9,33,173)" font-size="25" x="1060.9" y="130.8">Rhood</text>
  <path d="M 1194.5 204.0 L 1239.5 171.0 L 1281.5 180.0 Q 1324.7 78.60000000000001 1245.5 66.0 L 1203.5 60.0 L 1194.5 204.0 z" fill="rgb(255,217,194)" stroke="black"/>
  <text fill="rgb(9,33,173)" font-size="25" x="1207.9" y="139.2">Lhood</text>
  <path d="M 1341.5 210.0 L 1419.5 180.0 Q 1472.0 150.0 1434.5 60.0 L 1341.5 60.0 L 1341.5 210.0 z" fill="rgb(255,217,194)" stroke="black"/>
  <text fill="rgb(9,33,173)" font-size="25" x="1359.25" y="130.5">lbsleeve</text>
  <path d="M 1499.25 210.0 L 1592.25 210.0 Q 1629.75 120.0 1577.25 90.0 L 1499.25 60.0 L 1499.25 210.0 z" fill="rgb(255,217,194)" stroke="black"/>
  <text fill="rgb(9,33,173)" font-size="25" x="1517.0" y="145.5">lfsleeve</text>
</svg>
