<?xml version="1.0" encoding="utf-8" ?>
<svg xmlns="http://www.w3.org/2000/svg" xmlns:ev="http://www.w3.org/2001/xml-events" xmlns:xlink="http://www.w3.org/1999/xlink" baseProfile="full" height="300.0px" version="1.1" width="1561.0px">
  <defs/>
  <path d="M 60 108 L 93 108 Q 105.9 70.80000000000001 84 60 L 60 60 L 60 108 z" fill="rgb(255,217,194)" stroke="black"/>
  <text fill="rgb(9,33,173)" font-size="25" x="49.25" y="87.0">rbsleeve</text>
  <text fill="rgb(245,96,66)" font-size="25" x="52.44730622922282" y="60.700726280796324">0</text>
  <text fill="rgb(245,96,66)" font-size="25" x="80.88188523477969" y="60.36766711438845">1</text>
  <text fill="rgb(245,96,66)" font-size="25" x="91.07822020986157" y="116.94012186862281">2</text>
  <text fill="rgb(245,96,66)" font-size="25" x="52.44730622922282" y="117.29927371920367">3</text>
  <text fill="rgb(50,179,101)" font-size="20" x="71.96670354346529" y="117.97817113029645">0</text>
  <text fill="rgb(50,179,101)" font-size="20" x="88.5" y="89.0">1</text>
  <text fill="rgb(50,179,101)" font-size="20" x="66.53329645653471" y="60.02182886970356">2</text>
  <text fill="rgb(50,179,101)" font-size="20" x="50.0" y="89.0">3</text>
  <path d="M 189.25 108.0 L 213.25 108.0 Q 235.14999999999998 97.19999999999999 222.25 60.0 L 189.25 60.0 L 189.25 108.0 z" fill="rgb(255,217,194)" stroke="black"/>
  <text fill="rgb(9,33,173)" font-size="25" x="178.5" y="87.0">rfsleeve</text>
  <text fill="rgb(245,96,66)" font-size="25" x="181.69730622922282" y="60.700726280796324">0</text>
  <text fill="rgb(245,96,66)" font-size="25" x="220.32822020986157" y="61.05987813137718">1</text>
  <text fill="rgb(245,96,66)" font-size="25" x="210.1318852347797" y="117.63233288561155">2</text>
  <text fill="rgb(245,96,66)" font-size="25" x="181.69730622922282" y="117.29927371920367">3</text>
  <text fill="rgb(50,179,101)" font-size="20" x="195.7832964565347" y="117.97817113029645">0</text>
  <text fill="rgb(50,179,101)" font-size="20" x="217.75" y="89.0">1</text>
  <text fill="rgb(50,179,101)" font-size="20" x="201.2167035434653" y="60.02182886970356">2</text>
  <text fill="rgb(50,179,101)" font-size="20" x="179.25" y="89.0">3</text>
  <path d="M 318.5 240.0 L 411.5 240.0 Q 420.5 87.0 411.5 60.0 L 348.5 60.0 Q 363.2 141.75 318.5 153.0 Q 327.2 157.35 318.5 240.0 z" fill="rgb(255,217,194)" stroke="black"/>
  <text fill="rgb(9,33,173)" font-size="25" x="336.7" y="153.6">Rback</text>
  <text fill="rgb(245,96,66)" font-size="25" x="342.77913396393063" y="60.05223766152398">0</text>
  <text fill="rgb(245,96,66)" font-size="25" x="408.9084797428267" y="60.618307937749">1</text>
  <text fill="rgb(245,96,66)" font-size="25" x="408.9331911943178" y="249.36801792714888">2</text>
  <text fill="rgb(245,96,66)" font-size="25" x="311.32456491668535" y="249.50194204741507">3</text>
  <text fill="rgb(245,96,66)" font-size="25" x="308.5076982339729" y="158.2773500981126">4</text>
  <text fill="rgb(50,179,101)" font-size="20" x="360.1844381479491" y="249.99659709898458">0</text>
  <text fill="rgb(50,179,101)" font-size="20" x="411.49963714213095" y="154.93976340792614">1</text>
  <text fill="rgb(50,179,101)" font-size="20" x="375.98994151243954" y="60.09897808595504">2</text>
  <text fill="rgb(50,179,101)" font-size="20" x="325.8063580392625" y="107.28760246565518">3</text>
  <text fill="rgb(50,179,101)" font-size="20" x="310.07317650497504" y="205.14099996346403">4</text>
  <path d="M 471.5 240.0 L 564.5 240.0 Q 555.8 157.35000000000002 564.5 153.0 Q 524.45 140.25 534.5 60.0 L 471.5 60.0 Q 462.5 87.0 471.5 240.0 z" fill="rgb(255,217,194)" stroke="black"/>
  <text fill="rgb(9,33,173)" font-size="25" x="496.29999999999995" y="153.6">Rfront</text>
  <text fill="rgb(245,96,66)" font-size="25" x="530.2208660360693" y="60.05223766152398">0</text>
  <text fill="rgb(245,96,66)" font-size="25" x="464.0915202571733" y="60.618307937749">1</text>
  <text fill="rgb(245,96,66)" font-size="25" x="464.0668088056822" y="249.36801792714888">2</text>
  <text fill="rgb(245,96,66)" font-size="25" x="561.6754350833147" y="249.50194204741507">3</text>
  <text fill="rgb(245,96,66)" font-size="25" x="564.492301766027" y="158.2773500981126">4</text>
  <text fill="rgb(50,179,101)" font-size="20" x="512.8155618520509" y="249.99659709898458">0</text>
  <text fill="rgb(50,179,101)" font-size="20" x="562.9268234950249" y="205.14099996346403">1</text>
  <text fill="rgb(50,179,101)" font-size="20" x="547.1936419607375" y="107.2876024656552">2</text>
  <text fill="rgb(50,179,101)" font-size="20" x="497.01005848756046" y="60.09897808595504">3</text>
  <text fill="rgb(50,179,101)" font-size="20" x="461.50036285786905" y="154.93976340792614">4</text>
  <path d="M 624.5 168.0 L 687.5 168.0 L 750.5 168.0 L 750.5 111.0 Q 727.4 99.3 741.5 60.0 L 711.5 60.0 Q 687.5 74.4 663.5 60.0 L 633.5 60.0 Q 647.6 99.29999999999998 624.5 111.0 L 624.5 168.0 z" fill="rgb(255,217,194)" stroke="black"/>
  <text fill="rgb(9,33,173)" font-size="25" x="662.5" y="110.33333333333333">up_back</text>
  <text fill="rgb(245,96,66)" font-size="25" x="708.7611566541373" y="60.540496598784735">0</text>
  <text fill="rgb(245,96,66)" font-size="25" x="740.2600064735665" y="61.704191856503456">1</text>
  <text fill="rgb(245,96,66)" font-size="25" x="750.4915530456898" y="116.29051366932586">2</text>
  <text fill="rgb(245,96,66)" font-size="25" x="749.1016010674574" y="176.46820843532936">3</text>
  <text fill="rgb(245,96,66)" font-size="25" x="682.5" y="178.0">4</text>
  <text fill="rgb(245,96,66)" font-size="25" x="615.8983989325426" y="176.46820843532936">5</text>
  <text fill="rgb(245,96,66)" font-size="25" x="614.5084469543102" y="116.29051366932586">6</text>
  <text fill="rgb(245,96,66)" font-size="25" x="624.7399935264335" y="61.704191856503456">7</text>
  <text fill="rgb(245,96,66)" font-size="25" x="656.2388433458627" y="60.540496598784735">8</text>
  <text fill="rgb(50,179,101)" font-size="20" x="648.6959236467648" y="177.4374803840087">0</text>
  <text fill="rgb(50,179,101)" font-size="20" x="716.3040763532352" y="177.4374803840087">1</text>
  <text fill="rgb(50,179,101)" font-size="20" x="749.9531278419233" y="146.77368696690795">2</text>
  <text fill="rgb(50,179,101)" font-size="20" x="745.6843824681008" y="88.75169771133558">3</text>
  <text fill="rgb(50,179,101)" font-size="20" x="724.6794886973861" y="61.141133375822065">4</text>
  <text fill="rgb(50,179,101)" font-size="20" x="682.5" y="60.0">5</text>
  <text fill="rgb(50,179,101)" font-size="20" x="640.3205113026139" y="61.141133375822065">6</text>
  <text fill="rgb(50,179,101)" font-size="20" x="619.3156175318991" y="88.75169771133558">7</text>
  <text fill="rgb(50,179,101)" font-size="20" x="615.0468721580767" y="146.77368696690795">8</text>
  <path d="M 810.5 165.0 L 873.5 165.0 L 936.5 165.0 L 936.5 108.0 Q 914.5999999999999 97.19999999999999 927.5 60.0 L 897.5 60.0 L 873.5 93.0 L 849.5 60.0 L 819.5 60.0 Q 832.4000000000001 97.19999999999999 810.5 108.0 L 810.5 165.0 z" fill="rgb(255,217,194)" stroke="black"/>
  <text fill="rgb(9,33,173)" font-size="25" x="848.5" y="107.4">up_front</text>
  <text fill="rgb(245,96,66)" font-size="25" x="868.5" y="93.0">0</text>
  <text fill="rgb(245,96,66)" font-size="25" x="842.1224148281726" y="60.601467432119364">1</text>
  <text fill="rgb(245,96,66)" font-size="25" x="810.6378725700453" y="61.82447300203717">2</text>
  <text fill="rgb(245,96,66)" font-size="25" x="800.5081433278801" y="113.28524895269257">3</text>
  <text fill="rgb(245,96,66)" font-size="25" x="801.8964942162036" y="173.4662293729852">4</text>
  <text fill="rgb(245,96,66)" font-size="25" x="868.5" y="175.0">5</text>
  <text fill="rgb(245,96,66)" font-size="25" x="935.1035057837964" y="173.4662293729852">6</text>
  <text fill="rgb(245,96,66)" font-size="25" x="936.4918566721199" y="113.28524895269257">7</text>
  <text fill="rgb(245,96,66)" font-size="25" x="926.3621274299547" y="61.82447300203717">8</text>
  <text fill="rgb(245,96,66)" font-size="25" x="894.8775851718274" y="60.601467432119364">9</text>
  <text fill="rgb(50,179,101)" font-size="20" x="834.693927862191" y="174.43644354130882">0</text>
  <text fill="rgb(50,179,101)" font-size="20" x="902.306072137809" y="174.43644354130882">1</text>
  <text fill="rgb(50,179,101)" font-size="20" x="935.9550355763287" y="143.7699466984151">2</text>
  <text fill="rgb(50,179,101)" font-size="20" x="931.7211759853564" y="87.3536411948501">3</text>
  <text fill="rgb(50,179,101)" font-size="20" x="910.7997049531836" y="61.243412822529486">4</text>
  <text fill="rgb(50,179,101)" font-size="20" x="882.4755555642139" y="76.90683331320278">5</text>
  <text fill="rgb(50,179,101)" font-size="20" x="854.5244444357861" y="76.90683331320278">6</text>
  <text fill="rgb(50,179,101)" font-size="20" x="826.2002950468164" y="61.243412822529486">7</text>
  <text fill="rgb(50,179,101)" font-size="20" x="805.2788240146436" y="87.3536411948501">8</text>
  <text fill="rgb(50,179,101)" font-size="20" x="801.0449644236713" y="143.7699466984151">9</text>
  <path d="M 996.5 240.0 L 1089.5 240.0 Q 1080.8 157.35000000000002 1089.5 153.0 Q 1044.8 141.75 1059.5 60.0 L 996.5 60.0 Q 987.5 87.0 996.5 240.0 z" fill="rgb(255,217,194)" stroke="black"/>
  <text fill="rgb(9,33,173)" font-size="25" x="1021.3" y="153.6">Lback</text>
  <text fill="rgb(245,96,66)" font-size="25" x="1055.2208660360693" y="60.05223766152398">0</text>
  <text fill="rgb(245,96,66)" font-size="25" x="989.0915202571733" y="60.618307937749">1</text>
  <text fill="rgb(245,96,66)" font-size="25" x="989.0668088056822" y="249.36801792714888">2</text>
  <text fill="rgb(245,96,66)" font-size="25" x="1086.6754350833146" y="249.50194204741507">3</text>
  <text fill="rgb(245,96,66)" font-size="25" x="1089.4923017660271" y="158.2773500981126">4</text>
  <text fill="rgb(50,179,101)" font-size="20" x="1037.815561852051" y="249.99659709898458">0</text>
  <text fill="rgb(50,179,101)" font-size="20" x="1087.926823495025" y="205.14099996346403">1</text>
  <text fill="rgb(50,179,101)" font-size="20" x="1072.1936419607375" y="107.2876024656552">2</text>
  <text fill="rgb(50,179,101)" font-size="20" x="1022.0100584875605" y="60.09897808595504">3</text>
  <text fill="rgb(50,179,101)" font-size="20" x="986.500362857869" y="154.93976340792614">4</text>
  <path d="M 1149.5 240.0 L 1242.5 240.0 Q 1251.5 87.0 1242.5 60.0 L 1179.5 60.0 Q 1189.55 140.25 1149.5 153.0 Q 1158.2 157.35 1149.5 240.0 z" fill="rgb(255,217,194)" stroke="black"/>
  <text fill="rgb(9,33,173)" font-size="25" x="1167.7" y="153.6">Lfront</text>
  <text fill="rgb(245,96,66)" font-size="25" x="1173.7791339639307" y="60.05223766152398">0</text>
  <text fill="rgb(245,96,66)" font-size="25" x="1239.9084797428268" y="60.618307937749">1</text>
  <text fill="rgb(245,96,66)" font-size="25" x="1239.933191194318" y="249.36801792714888">2</text>
  <text fill="rgb(245,96,66)" font-size="25" x="1142.3245649166854" y="249.50194204741507">3</text>
  <text fill="rgb(245,96,66)" font-size="25" x="1139.5076982339729" y="158.2773500981126">4</text>
  <text fill="rgb(50,179,101)" font-size="20" x="1191.184438147949" y="249.99659709898458">0</text>
  <text fill="rgb(50,179,101)" font-size="20" x="1242.499637142131" y="154.93976340792614">1</text>
  <text fill="rgb(50,179,101)" font-size="20" x="1206.9899415124396" y="60.09897808595504">2</text>
  <text fill="rgb(50,179,101)" font-size="20" x="1156.8063580392625" y="107.2876024656552">3</text>
  <text fill="rgb(50,179,101)" font-size="20" x="1141.073176504975" y="205.14099996346403">4</text>
  <path d="M 1302.5 108.0 L 1326.5 108.0 Q 1348.4 97.19999999999999 1335.5 60.0 L 1302.5 60.0 L 1302.5 108.0 z" fill="rgb(255,217,194)" stroke="black"/>
  <text fill="rgb(9,33,173)" font-size="25" x="1291.75" y="87.0">lbsleeve</text>
  <text fill="rgb(245,96,66)" font-size="25" x="1294.947306229223" y="60.700726280796324">0</text>
  <text fill="rgb(245,96,66)" font-size="25" x="1333.5782202098617" y="61.05987813137718">1</text>
  <text fill="rgb(245,96,66)" font-size="25" x="1323.3818852347797" y="117.63233288561155">2</text>
  <text fill="rgb(245,96,66)" font-size="25" x="1294.947306229223" y="117.29927371920367">3</text>
  <text fill="rgb(50,179,101)" font-size="20" x="1309.0332964565348" y="117.97817113029645">0</text>
  <text fill="rgb(50,179,101)" font-size="20" x="1331.0" y="89.0">1</text>
  <text fill="rgb(50,179,101)" font-size="20" x="1314.4667035434652" y="60.02182886970356">2</text>
  <text fill="rgb(50,179,101)" font-size="20" x="1292.5" y="89.0">3</text>
  <path d="M 1431.75 108.0 L 1464.75 108.0 Q 1477.65 70.80000000000001 1455.75 60.0 L 1431.75 60.0 L 1431.75 108.0 z" fill="rgb(255,217,194)" stroke="black"/>
  <text fill="rgb(9,33,173)" font-size="25" x="1421.0" y="87.0">lfsleeve</text>
  <text fill="rgb(245,96,66)" font-size="25" x="1424.197306229223" y="60.700726280796324">0</text>
  <text fill="rgb(245,96,66)" font-size="25" x="1452.6318852347797" y="60.36766711438845">1</text>
  <text fill="rgb(245,96,66)" font-size="25" x="1462.8282202098617" y="116.94012186862281">2</text>
  <text fill="rgb(245,96,66)" font-size="25" x="1424.197306229223" y="117.29927371920367">3</text>
  <text fill="rgb(50,179,101)" font-size="20" x="1443.7167035434652" y="117.97817113029645">0</text>
  <text fill="rgb(50,179,101)" font-size="20" x="1460.25" y="89.0">1</text>
  <text fill="rgb(50,179,101)" font-size="20" x="1438.2832964565348" y="60.02182886970356">2</text>
  <text fill="rgb(50,179,101)" font-size="20" x="1421.75" y="89.0">3</text>
</svg>
