<?xml version="1.0" encoding="utf-8" ?>
<svg xmlns="http://www.w3.org/2000/svg" xmlns:ev="http://www.w3.org/2001/xml-events" xmlns:xlink="http://www.w3.org/1999/xlink" baseProfile="full" height="375.0px" version="1.1" width="1357.0px">
  <defs/>
  <path d="M 60 174 L 153 174 Q 192.29999999999998 90.60000000000001 144 60 L 60 66 L 60 174 z" fill="rgb(255,217,194)" stroke="black"/>
  <text fill="rgb(9,33,173)" font-size="25" x="79.25" y="121.5">rbsleeve</text>
  <path d="M 219.25 168.0 L 303.25 174.0 Q 351.55 143.4 312.25 60.0 L 219.25 60.0 L 219.25 168.0 z" fill="rgb(255,217,194)" stroke="black"/>
  <text fill="rgb(9,33,173)" font-size="25" x="238.5" y="118.5">rfsleeve</text>
  <path d="M 378.5 315.0 L 648.5 315.0 L 576.5 171.0 Q 529.4 141.29999999999998 567.5 60.0 L 537.5 60.0 Q 513.5 181.42481452186408 489.5 60.0 L 459.5 60.0 Q 497.6 141.29999999999998 450.5 171.0 L 378.5 315.0 z" fill="rgb(255,217,194)" stroke="black"/>
  <text fill="rgb(9,33,173)" font-size="25" x="488.5" y="154.5">back</text>
  <path d="M 708.5 315.0 L 978.5 315.0 L 906.5 171.0 Q 859.4 141.29999999999998 897.5 60.0 L 867.5 60.0 L 843.5 93.0 L 819.5 60.0 L 789.5 60.0 Q 827.6 141.29999999999998 780.5 171.0 L 708.5 315.0 z" fill="rgb(255,217,194)" stroke="black"/>
  <text fill="rgb(9,33,173)" font-size="25" x="818.5" y="148.0">front</text>
  <path d="M 1038.5 168.0 L 1122.5 174.0 Q 1170.8 143.4 1131.5 60.0 L 1038.5 60.0 L 1038.5 168.0 z" fill="rgb(255,217,194)" stroke="black"/>
  <text fill="rgb(9,33,173)" font-size="25" x="1057.75" y="118.5">lbsleeve</text>
  <path d="M 1197.75 174.0 L 1290.75 174.0 Q 1330.05 90.60000000000001 1281.75 60.0 L 1197.75 66.0 L 1197.75 174.0 z" fill="rgb(255,217,194)" stroke="black"/>
  <text fill="rgb(9,33,173)" font-size="25" x="1217.0" y="121.5">lfsleeve</text>
</svg>
