<?xml version="1.0" encoding="utf-8" ?>
<svg xmlns="http://www.w3.org/2000/svg" xmlns:ev="http://www.w3.org/2001/xml-events" xmlns:xlink="http://www.w3.org/1999/xlink" baseProfile="full" height="366px" version="1.1" width="1692px">
  <defs/>
  <path d="M 60 177 L 183 177 Q 198.6 130.2 171 117 L 60 60 L 60 177 z" fill="rgb(255,217,194)" stroke="black"/>
  <text fill="rgb(9,33,173)" font-size="25" x="93.5" y="135.75">rbsleeve</text>
  <path d="M 243 177 L 354 120 Q 381.6 106.8 366 60 L 243 60 L 243 177 z" fill="rgb(255,217,194)" stroke="black"/>
  <text fill="rgb(9,33,173)" font-size="25" x="276.5" y="107.25">rfsleeve</text>
  <path d="M 426 306 Q 513.0 261.4119759652495 600 306 L 600 102 L 591 60 L 435 60 L 426 102 L 426 306 z" fill="rgb(255,217,194)" stroke="black"/>
  <text fill="rgb(9,33,173)" font-size="25" x="488.0" y="159.0">skirt_back</text>
  <path d="M 660 306 Q 747.0 241.9788454122015 834 306 L 834 102 L 825 60 L 669 60 L 660 102 L 660 306 z" fill="rgb(255,217,194)" stroke="black"/>
  <text fill="rgb(9,33,173)" font-size="25" x="722.0" y="159.0">skirt_front</text>
  <path d="M 894 168 L 1050 168 L 1050 120 Q 1022.4000000000001 106.8 1038 60 L 1017 60 Q 972.0 106.24502455134225 927 60 L 906 60 Q 921.6 106.8 894 120 L 894 168 z" fill="rgb(255,217,194)" stroke="black"/>
  <text fill="rgb(9,33,173)" font-size="25" x="947.0" y="105.0">top_back</text>
  <path d="M 1110 165 L 1266 165 L 1266 120 Q 1238.4 106.8 1254 60 L 1233 60 L 1188 111 L 1143 60 L 1122 60 Q 1137.6 106.8 1110 120 L 1110 165 z" fill="rgb(255,217,194)" stroke="black"/>
  <text fill="rgb(9,33,173)" font-size="25" x="1163.0" y="105.33333333333333">top_front</text>
  <path d="M 1326 177 L 1437 120 Q 1464.6 106.8 1449 60 L 1326 60 L 1326 177 z" fill="rgb(255,217,194)" stroke="black"/>
  <text fill="rgb(9,33,173)" font-size="25" x="1359.5" y="107.25">lbsleeve</text>
  <path d="M 1509 177 L 1632 177 Q 1647.6 130.2 1620 117 L 1509 60 L 1509 177 z" fill="rgb(255,217,194)" stroke="black"/>
  <text fill="rgb(9,33,173)" font-size="25" x="1542.5" y="135.75">lfsleeve</text>
</svg>
