<?xml version="1.0" encoding="utf-8" ?>
<svg xmlns="http://www.w3.org/2000/svg" xmlns:ev="http://www.w3.org/2001/xml-events" xmlns:xlink="http://www.w3.org/1999/xlink" baseProfile="full" height="228.0px" version="1.1" width="940.0px">
  <defs/>
  <path d="M 63 162 Q 132.0 152.42221298018202 201 162 L 204 102 L 186 60 L 78 60 L 60 102 L 63 162 z" fill="rgb(255,217,194)" stroke="black"/>
  <text fill="rgb(9,33,173)" font-size="25" x="107.0" y="111.0">skirt_back</text>
  <path d="M 270.0 162.0 Q 339.0 105.8833845581928 408.0 162.0 L 411.0 102.0 L 393.0 60.0 L 285.0 60.0 L 267.0 102.0 L 270.0 162.0 z" fill="rgb(255,217,194)" stroke="black"/>
  <text fill="rgb(9,33,173)" font-size="25" x="314.0" y="111.0">skirt_front</text>
  <path d="M 514.0 168.0 L 622.0 168.0 L 652.0 120.0 Q 623.5 108.0 637.0 60.0 L 601.0 60.0 Q 568.0 136.80944762731372 535.0 60.0 L 499.0 60.0 Q 512.5 108.0 484.0 120.0 L 514.0 168.0 z" fill="rgb(255,217,194)" stroke="black"/>
  <text fill="rgb(9,33,173)" font-size="25" x="543.0" y="105.0">top_back</text>
  <path d="M 742.0 165.0 L 850.0 165.0 L 880.0 120.0 Q 851.5 108.0 865.0 60.0 L 829.0 60.0 L 796.0 99.0 L 763.0 60.0 L 727.0 60.0 Q 740.5 108.0 712.0 120.0 L 742.0 165.0 z" fill="rgb(255,217,194)" stroke="black"/>
  <text fill="rgb(9,33,173)" font-size="25" x="771.0" y="104.0">top_front</text>
</svg>
