<?xml version="1.0" encoding="utf-8" ?>
<svg xmlns="http://www.w3.org/2000/svg" xmlns:ev="http://www.w3.org/2001/xml-events" xmlns:xlink="http://www.w3.org/1999/xlink" baseProfile="full" height="282.0px" version="1.1" width="1684.0px">
  <defs/>
  <path d="M 60 132 L 102 132 Q 122.39999999999999 76.8 90 60 L 60 75 L 60 132 z" fill="rgb(255,217,194)" stroke="black"/>
  <text fill="rgb(9,33,173)" font-size="25" x="53.0" y="102.75">rbsleeve</text>
  <path d="M 193.0 117.0 L 223.0 132.0 Q 255.4 115.2 235.0 60.0 L 193.0 60.0 L 193.0 117.0 z" fill="rgb(255,217,194)" stroke="black"/>
  <text fill="rgb(9,33,173)" font-size="25" x="186.0" y="95.25">rfsleeve</text>
  <path d="M 326.0 222.0 L 368.0 222.0 Q 429.65000000000003 87.45000000000002 431.0 60.0 L 356.0 60.0 Q 370.7 141.75 326.0 153.0 Q 332.9 156.45 326.0 222.0 z" fill="rgb(255,217,194)" stroke="black"/>
  <text fill="rgb(9,33,173)" font-size="25" x="336.4" y="146.4">Rback</text>
  <path d="M 554.0 222.0 L 596.0 222.0 Q 589.1 156.45 596.0 153.0 Q 555.95 140.25 566.0 60.0 L 491.0 60.0 Q 492.34999999999997 87.45 554.0 222.0 z" fill="rgb(255,217,194)" stroke="black"/>
  <text fill="rgb(9,33,173)" font-size="25" x="535.6" y="146.4">Rfront</text>
  <path d="M 656.0 168.0 L 734.0 168.0 L 812.0 168.0 L 800.0 132.0 Q 767.6 115.2 788.0 60.0 L 767.0 60.0 Q 734.0 119.66946024989602 701.0 60.0 L 680.0 60.0 Q 700.4 115.2 668.0 132.0 L 656.0 168.0 z" fill="rgb(255,217,194)" stroke="black"/>
  <text fill="rgb(9,33,173)" font-size="25" x="709.0" y="115.0">up_back</text>
  <path d="M 872.0 165.0 L 950.0 165.0 L 1028.0 165.0 L 1016.0 132.0 Q 983.6 115.2 1004.0 60.0 L 983.0 60.0 L 950.0 117.0 L 917.0 60.0 L 896.0 60.0 Q 916.4 115.2 884.0 132.0 L 872.0 165.0 z" fill="rgb(255,217,194)" stroke="black"/>
  <text fill="rgb(9,33,173)" font-size="25" x="925.0" y="114.6">up_front</text>
  <path d="M 1151.0 222.0 L 1193.0 222.0 Q 1186.1 156.45 1193.0 153.0 Q 1148.3 141.75 1163.0 60.0 L 1088.0 60.0 Q 1089.3500000000001 87.45 1151.0 222.0 z" fill="rgb(255,217,194)" stroke="black"/>
  <text fill="rgb(9,33,173)" font-size="25" x="1132.6" y="146.4">Lback</text>
  <path d="M 1253.0 222.0 L 1295.0 222.0 Q 1356.6499999999999 87.45000000000002 1358.0 60.0 L 1283.0 60.0 Q 1293.05 140.25 1253.0 153.0 Q 1259.9 156.45 1253.0 222.0 z" fill="rgb(255,217,194)" stroke="black"/>
  <text fill="rgb(9,33,173)" font-size="25" x="1263.4" y="146.4">Lfront</text>
  <path d="M 1418.0 117.0 L 1448.0 132.0 Q 1480.3999999999999 115.2 1460.0 60.0 L 1418.0 60.0 L 1418.0 117.0 z" fill="rgb(255,217,194)" stroke="black"/>
  <text fill="rgb(9,33,173)" font-size="25" x="1411.0" y="95.25">lbsleeve</text>
  <path d="M 1551.0 132.0 L 1593.0 132.0 Q 1613.3999999999999 76.8 1581.0 60.0 L 1551.0 75.0 L 1551.0 132.0 z" fill="rgb(255,217,194)" stroke="black"/>
  <text fill="rgb(9,33,173)" font-size="25" x="1544.0" y="102.75">lfsleeve</text>
</svg>
