<?xml version="1.0" encoding="utf-8" ?>
<svg xmlns="http://www.w3.org/2000/svg" xmlns:ev="http://www.w3.org/2001/xml-events" xmlns:xlink="http://www.w3.org/1999/xlink" baseProfile="full" height="342px" version="1.1" width="1773.5px">
  <defs/>
  <path d="M 60 126 L 183 126 Q 197.1 86.70000000000002 174 75 L 60 60 L 60 126 z" fill="rgb(255,217,194)" stroke="black"/>
  <text fill="rgb(9,33,173)" font-size="25" x="94.25" y="99.75">rbsleeve</text>
  <path d="M 243 126 L 357 111 Q 380.09999999999997 99.3 366 60 L 243 60 L 243 126 z" fill="rgb(255,217,194)" stroke="black"/>
  <text fill="rgb(9,33,173)" font-size="25" x="277.25" y="92.25">rfsleeve</text>
  <path d="M 426 282 L 555 282 L 555 114 L 528 60 L 501 60 Q 515.1 99.29999999999998 492 111 L 426 282 z" fill="rgb(255,217,194)" stroke="black"/>
  <text fill="rgb(9,33,173)" font-size="25" x="484.5" y="154.5">front_right</text>
  <path d="M 654.5 225.0 L 672.5 222.0 Q 756.2 213.9 717.5 105.0 L 690.5 114.0 L 660.5 60.0 L 654.5 225.0 z" fill="rgb(255,217,194)" stroke="black"/>
  <text fill="rgb(9,33,173)" font-size="25" x="654.1" y="148.2">Rhood</text>
  <path d="M 777.5 282.0 L 1035.5 282.0 L 969.5 114.0 Q 945.1999999999999 101.39999999999999 960.5 60.0 L 933.5 60.0 L 906.5 69.0 L 879.5 60.0 L 852.5 60.0 Q 867.8000000000001 101.39999999999999 843.5 114.0 L 777.5 282.0 z" fill="rgb(255,217,194)" stroke="black"/>
  <text fill="rgb(9,33,173)" font-size="25" x="881.5" y="125.33333333333333">back</text>
  <path d="M 1101.5 225.0 L 1131.5 171.0 L 1158.5 180.0 Q 1197.2 71.10000000000001 1113.5 63.0 L 1095.5 60.0 L 1101.5 225.0 z" fill="rgb(255,217,194)" stroke="black"/>
  <text fill="rgb(9,33,173)" font-size="25" x="1095.1" y="142.8">Lhood</text>
  <path d="M 1218.5 282.0 L 1347.5 282.0 L 1281.5 111.0 Q 1258.3999999999999 99.3 1272.5 60.0 L 1245.5 60.0 L 1218.5 114.0 L 1218.5 282.0 z" fill="rgb(255,217,194)" stroke="black"/>
  <text fill="rgb(9,33,173)" font-size="25" x="1239.0" y="154.5">front_left</text>
  <path d="M 1407.5 126.0 L 1521.5 111.0 Q 1544.6000000000001 99.3 1530.5 60.0 L 1407.5 60.0 L 1407.5 126.0 z" fill="rgb(255,217,194)" stroke="black"/>
  <text fill="rgb(9,33,173)" font-size="25" x="1441.75" y="92.25">lbsleeve</text>
  <path d="M 1590.5 126.0 L 1713.5 126.0 Q 1727.6000000000001 86.70000000000002 1704.5 75.0 L 1590.5 60.0 L 1590.5 126.0 z" fill="rgb(255,217,194)" stroke="black"/>
  <text fill="rgb(9,33,173)" font-size="25" x="1624.75" y="99.75">lfsleeve</text>
</svg>
