<?xml version="1.0" encoding="utf-8" ?>
<svg xmlns="http://www.w3.org/2000/svg" xmlns:ev="http://www.w3.org/2001/xml-events" xmlns:xlink="http://www.w3.org/1999/xlink" baseProfile="full" height="501px" version="1.1" width="1042.0px">
  <defs/>
  <path d="M 60 441 L 255 441 L 255 105 L 222 60 L 186 60 Q 200.4 104.7 174 117 L 60 441 z" fill="rgb(255,217,194)" stroke="black"/>
  <text fill="rgb(9,33,173)" font-size="25" x="167.0" y="207.0">front_right</text>
  <path d="M 337.0 441.0 L 727.0 441.0 L 613.0 117.0 Q 586.6 104.7 601.0 60.0 L 565.0 60.0 Q 532.0 100.18746349346897 499.0 60.0 L 463.0 60.0 Q 477.40000000000003 104.7 451.0 117.0 L 337.0 441.0 z" fill="rgb(255,217,194)" stroke="black"/>
  <text fill="rgb(9,33,173)" font-size="25" x="507.0" y="172.5">back</text>
  <path d="M 787.0 441.0 L 982.0 441.0 L 868.0 117.0 Q 841.6 104.7 856.0 60.0 L 820.0 60.0 L 787.0 105.0 L 787.0 441.0 z" fill="rgb(255,217,194)" stroke="black"/>
  <text fill="rgb(9,33,173)" font-size="25" x="825.0" y="207.0">front_left</text>
</svg>
