<?xml version="1.0" encoding="utf-8" ?>
<svg xmlns="http://www.w3.org/2000/svg" xmlns:ev="http://www.w3.org/2001/xml-events" xmlns:xlink="http://www.w3.org/1999/xlink" baseProfile="full" height="366.0px" version="1.1" width="1318.0px">
  <defs/>
  <path d="M 60 177 L 171 177 Q 191.4 121.8 159 105 L 60 60 L 60 177 z" fill="rgb(255,217,194)" stroke="black"/>
  <text fill="rgb(9,33,173)" font-size="25" x="87.5" y="132.75">rbsleeve</text>
  <path d="M 231 177 L 330 132 Q 362.40000000000003 115.2 342 60 L 231 60 L 231 177 z" fill="rgb(255,217,194)" stroke="black"/>
  <text fill="rgb(9,33,173)" font-size="25" x="258.5" y="110.25">rfsleeve</text>
  <path d="M 426 303 L 480 303 L 480 105 L 456 60 L 414 60 Q 433.20000000000005 113.1 402 129 L 426 303 z" fill="rgb(255,217,194)" stroke="black"/>
  <text fill="rgb(9,33,173)" font-size="25" x="418.0" y="163.0">front_right</text>
  <path d="M 612.0 306.0 L 720.0 306.0 L 744.0 129.0 Q 712.8 113.1 732.0 60.0 L 690.0 60.0 Q 666.0 200.88296394858688 642.0 60.0 L 600.0 60.0 Q 619.2 113.1 588.0 129.0 L 612.0 306.0 z" fill="rgb(255,217,194)" stroke="black"/>
  <text fill="rgb(9,33,173)" font-size="25" x="641.0" y="141.75">back</text>
  <path d="M 804.0 303.0 L 858.0 303.0 L 882.0 129.0 Q 850.8 113.1 870.0 60.0 L 828.0 60.0 L 804.0 105.0 L 804.0 303.0 z" fill="rgb(255,217,194)" stroke="black"/>
  <text fill="rgb(9,33,173)" font-size="25" x="816.0" y="163.0">front_left</text>
  <path d="M 976.0 177.0 L 1075.0 132.0 Q 1107.3999999999999 115.2 1087.0 60.0 L 976.0 60.0 L 976.0 177.0 z" fill="rgb(255,217,194)" stroke="black"/>
  <text fill="rgb(9,33,173)" font-size="25" x="1003.5" y="110.25">lbsleeve</text>
  <path d="M 1147.0 177.0 L 1258.0 177.0 Q 1278.3999999999999 121.8 1246.0 105.0 L 1147.0 60.0 L 1147.0 177.0 z" fill="rgb(255,217,194)" stroke="black"/>
  <text fill="rgb(9,33,173)" font-size="25" x="1174.5" y="132.75">lfsleeve</text>
</svg>
