<?xml version="1.0" encoding="utf-8" ?>
<svg xmlns="http://www.w3.org/2000/svg" xmlns:ev="http://www.w3.org/2001/xml-events" xmlns:xlink="http://www.w3.org/1999/xlink" baseProfile="full" height="258px" version="1.1" width="1068px">
  <defs/>
  <path d="M 60 198 Q 171.0 246.77135335896784 282 198 L 240 102 L 237 60 L 105 60 L 102 102 L 60 198 z" fill="rgb(255,217,194)" stroke="black"/>
  <text fill="rgb(9,33,173)" font-size="25" x="146.0" y="123.0">skirt_back</text>
  <path d="M 342 198 Q 453.0 161.3195137956131 564 198 L 522 102 L 519 60 L 387 60 L 384 102 L 342 198 z" fill="rgb(255,217,194)" stroke="black"/>
  <text fill="rgb(9,33,173)" font-size="25" x="428.0" y="123.0">skirt_front</text>
  <path d="M 639 168 L 771 168 L 786 144 Q 748.8 123.6 774 60 L 720 60 Q 705.0 87.43960857114355 690 60 L 636 60 Q 661.2 123.6 624 144 L 639 168 z" fill="rgb(255,217,194)" stroke="black"/>
  <text fill="rgb(9,33,173)" font-size="25" x="680.0" y="111.0">top_back</text>
  <path d="M 861 165 L 993 165 L 1008 144 Q 970.8 123.6 996 60 L 942 60 L 927 114 L 912 60 L 858 60 Q 883.2 123.6 846 144 L 861 165 z" fill="rgb(255,217,194)" stroke="black"/>
  <text fill="rgb(9,33,173)" font-size="25" x="902.0" y="111.0">top_front</text>
</svg>
