<?xml version="1.0" encoding="utf-8" ?>
<svg xmlns="http://www.w3.org/2000/svg" xmlns:ev="http://www.w3.org/2001/xml-events" xmlns:xlink="http://www.w3.org/1999/xlink" baseProfile="full" height="294.0px" version="1.1" width="1630.0px">
  <defs/>
  <path d="M 60 228 L 93 228 Q 108.6 181.2 81 168 L 60 60 L 60 228 z" fill="rgb(255,217,194)" stroke="black"/>
  <text fill="rgb(9,33,173)" font-size="25" x="48.5" y="174.0">rbsleeve</text>
  <path d="M 188.5 228.0 L 209.5 120.0 Q 237.1 106.8 221.5 60.0 L 188.5 60.0 L 188.5 228.0 z" fill="rgb(255,217,194)" stroke="black"/>
  <text fill="rgb(9,33,173)" font-size="25" x="177.0" y="120.0">rfsleeve</text>
  <path d="M 317.0 234.0 L 458.0 234.0 L 458.0 87.0 L 416.0 60.0 L 392.0 60.0 Q 405.5 108.0 377.0 120.0 L 317.0 234.0 z" fill="rgb(255,217,194)" stroke="black"/>
  <text fill="rgb(9,33,173)" font-size="25" x="378.0" y="135.5">front_right</text>
  <path d="M 554.0 180.0 L 620.0 177.0 Q 682.1 152.70000000000002 629.0 78.0 L 590.0 87.0 L 548.0 60.0 L 554.0 180.0 z" fill="rgb(255,217,194)" stroke="black"/>
  <text fill="rgb(9,33,173)" font-size="25" x="563.2" y="119.4">Rhood</text>
  <path d="M 689.0 234.0 L 971.0 234.0 L 911.0 120.0 Q 882.5 108.0 896.0 60.0 L 872.0 60.0 L 830.0 69.0 L 788.0 60.0 L 764.0 60.0 Q 777.5 108.0 749.0 120.0 L 689.0 234.0 z" fill="rgb(255,217,194)" stroke="black"/>
  <text fill="rgb(9,33,173)" font-size="25" x="805.0" y="116.0">back</text>
  <path d="M 1031.0 180.0 L 1073.0 153.0 L 1112.0 162.0 Q 1165.1000000000001 87.3 1103.0 63.0 L 1037.0 60.0 L 1031.0 180.0 z" fill="rgb(255,217,194)" stroke="black"/>
  <text fill="rgb(9,33,173)" font-size="25" x="1046.2" y="126.6">Lhood</text>
  <path d="M 1172.0 234.0 L 1313.0 234.0 L 1253.0 120.0 Q 1224.5 108.0 1238.0 60.0 L 1214.0 60.0 L 1172.0 87.0 L 1172.0 234.0 z" fill="rgb(255,217,194)" stroke="black"/>
  <text fill="rgb(9,33,173)" font-size="25" x="1202.0" y="135.5">front_left</text>
  <path d="M 1373.0 228.0 L 1394.0 120.0 Q 1421.6 106.8 1406.0 60.0 L 1373.0 60.0 L 1373.0 228.0 z" fill="rgb(255,217,194)" stroke="black"/>
  <text fill="rgb(9,33,173)" font-size="25" x="1361.5" y="120.0">lbsleeve</text>
  <path d="M 1501.5 228.0 L 1534.5 228.0 Q 1550.1 181.2 1522.5 168.0 L 1501.5 60.0 L 1501.5 228.0 z" fill="rgb(255,217,194)" stroke="black"/>
  <text fill="rgb(9,33,173)" font-size="25" x="1490.0" y="174.0">lfsleeve</text>
</svg>
