<?xml version="1.0" encoding="utf-8" ?>
<svg xmlns="http://www.w3.org/2000/svg" xmlns:ev="http://www.w3.org/2001/xml-events" xmlns:xlink="http://www.w3.org/1999/xlink" baseProfile="full" height="474px" version="1.1" width="589.0px">
  <defs/>
  <path d="M 60 414 L 123 414 L 123 135 L 111 60 L 72 60 Q 113.7 147.6 63 180 L 60 414 z" fill="rgb(255,217,194)" stroke="black"/>
  <text fill="rgb(9,33,173)" font-size="25" x="67.0" y="213.5">front_right</text>
  <path d="M 237.0 414.0 L 363.0 414.0 L 360.0 180.0 Q 309.3 147.6 351.0 60.0 L 312.0 60.0 Q 300.0 83.00179687378976 288.0 60.0 L 249.0 60.0 Q 290.7 147.6 240.0 180.0 L 237.0 414.0 z" fill="rgb(255,217,194)" stroke="black"/>
  <text fill="rgb(9,33,173)" font-size="25" x="275.0" y="181.5">back</text>
  <path d="M 423.0 414.0 L 486.0 414.0 L 483.0 180.0 Q 432.3 147.6 474.0 60.0 L 435.0 60.0 L 423.0 135.0 L 423.0 414.0 z" fill="rgb(255,217,194)" stroke="black"/>
  <text fill="rgb(9,33,173)" font-size="25" x="429.0" y="213.5">front_left</text>
</svg>
