<?xml version="1.0" encoding="utf-8" ?>
<svg xmlns="http://www.w3.org/2000/svg" xmlns:ev="http://www.w3.org/2001/xml-events" xmlns:xlink="http://www.w3.org/1999/xlink" baseProfile="full" height="441px" version="1.1" width="930.0px">
  <defs/>
  <path d="M 60 381 L 225 381 L 225 105 L 198 60 L 162 60 Q 188.4 125.7 150 147 L 60 381 z" fill="rgb(255,217,194)" stroke="black"/>
  <text fill="rgb(9,33,173)" font-size="25" x="145.0" y="192.0">front_right</text>
  <path d="M 315.0 381.0 L 645.0 381.0 L 555.0 147.0 Q 516.6 125.7 543.0 60.0 L 507.0 60.0 Q 480.0 239.71755869925417 453.0 60.0 L 417.0 60.0 Q 443.40000000000003 125.7 405.0 147.0 L 315.0 381.0 z" fill="rgb(255,217,194)" stroke="black"/>
  <text fill="rgb(9,33,173)" font-size="25" x="455.0" y="165.0">back</text>
  <path d="M 705.0 381.0 L 870.0 381.0 L 780.0 147.0 Q 741.6 125.7 768.0 60.0 L 732.0 60.0 L 705.0 105.0 L 705.0 381.0 z" fill="rgb(255,217,194)" stroke="black"/>
  <text fill="rgb(9,33,173)" font-size="25" x="735.0" y="192.0">front_left</text>
</svg>
