<?xml version="1.0" encoding="utf-8" ?>
<svg xmlns="http://www.w3.org/2000/svg" xmlns:ev="http://www.w3.org/2001/xml-events" xmlns:xlink="http://www.w3.org/1999/xlink" baseProfile="full" height="318px" version="1.1" width="1354.0px">
  <defs/>
  <path d="M 60 258 L 270 258 L 270 60 L 60 60 L 60 258 z" fill="rgb(255,217,194)" stroke="black"/>
  <text fill="rgb(9,33,173)" font-size="25" x="140.0" y="162.0">skirt_back</text>
  <path d="M 330 78 L 420 78 L 420 60 L 330 60 L 330 78 z" fill="rgb(255,217,194)" stroke="black"/>
  <text fill="rgb(9,33,173)" font-size="25" x="350.0" y="72.0">wb_back</text>
  <path d="M 480 78 L 570 78 L 570 60 L 480 60 L 480 78 z" fill="rgb(255,217,194)" stroke="black"/>
  <text fill="rgb(9,33,173)" font-size="25" x="500.0" y="72.0">wb_front</text>
  <path d="M 640.0 258.0 L 850.0 258.0 L 850.0 60.0 L 640.0 60.0 L 640.0 258.0 z" fill="rgb(255,217,194)" stroke="black"/>
  <text fill="rgb(9,33,173)" font-size="25" x="720.0" y="162.0">skirt_front</text>
  <path d="M 910.0 138.0 L 1072.0 138.0 L 1072.0 105.0 Q 1050.4 96.3 1060.0 60.0 L 1012.0 60.0 Q 991.0 124.18112572950673 970.0 60.0 L 922.0 60.0 Q 931.6 96.3 910.0 105.0 L 910.0 138.0 z" fill="rgb(255,217,194)" stroke="black"/>
  <text fill="rgb(9,33,173)" font-size="25" x="966.0" y="93.75">top_back</text>
  <path d="M 1132.0 138.0 L 1294.0 138.0 L 1294.0 105.0 Q 1272.4 96.3 1282.0 60.0 L 1234.0 60.0 L 1213.0 90.0 L 1192.0 60.0 L 1144.0 60.0 Q 1153.6 96.3 1132.0 105.0 L 1132.0 138.0 z" fill="rgb(255,217,194)" stroke="black"/>
  <text fill="rgb(9,33,173)" font-size="25" x="1188.0" y="93.66666666666667">top_front</text>
</svg>
