<?xml version="1.0" encoding="utf-8" ?>
<svg xmlns="http://www.w3.org/2000/svg" xmlns:ev="http://www.w3.org/2001/xml-events" xmlns:xlink="http://www.w3.org/1999/xlink" baseProfile="full" height="369px" version="1.1" width="924px">
  <defs/>
  <path d="M 60 309 Q 150.0 323.06348489748075 240 309 L 219 102 L 201 60 L 99 60 L 81 102 L 60 309 z" fill="rgb(255,217,194)" stroke="black"/>
  <text fill="rgb(9,33,173)" font-size="25" x="125.0" y="160.0">skirt_back</text>
  <path d="M 300 309 Q 390.0 398.9043657292256 480 309 L 459 102 L 441 60 L 339 60 L 321 102 L 300 309 z" fill="rgb(255,217,194)" stroke="black"/>
  <text fill="rgb(9,33,173)" font-size="25" x="365.0" y="160.0">skirt_front</text>
  <path d="M 555 168 L 657 168 L 672 126 Q 642.0 111.0 660 60 L 624 60 Q 606.0 114.66741024074378 588 60 L 552 60 Q 570.0 110.99999999999999 540 126 L 555 168 z" fill="rgb(255,217,194)" stroke="black"/>
  <text fill="rgb(9,33,173)" font-size="25" x="581.0" y="106.5">top_back</text>
  <path d="M 747 165 L 849 165 L 864 126 Q 834.0 111.0 852 60 L 816 60 L 798 108 L 780 60 L 744 60 Q 762.0 110.99999999999999 732 126 L 747 165 z" fill="rgb(255,217,194)" stroke="black"/>
  <text fill="rgb(9,33,173)" font-size="25" x="773.0" y="106.33333333333333">top_front</text>
</svg>
