<?xml version="1.0" encoding="utf-8" ?>
<svg xmlns="http://www.w3.org/2000/svg" xmlns:ev="http://www.w3.org/2001/xml-events" xmlns:xlink="http://www.w3.org/1999/xlink" baseProfile="full" height="288px" version="1.1" width="1648.0px">
  <defs/>
  <path d="M 60 228 L 108 228 Q 128.4 172.79999999999998 96 156 L 60 60 L 60 228 z" fill="rgb(255,217,194)" stroke="black"/>
  <text fill="rgb(9,33,173)" font-size="25" x="56.0" y="171.0">rbsleeve</text>
  <path d="M 196.0 228.0 L 232.0 132.0 Q 264.4 115.2 244.0 60.0 L 196.0 60.0 L 196.0 228.0 z" fill="rgb(255,217,194)" stroke="black"/>
  <text fill="rgb(9,33,173)" font-size="25" x="192.0" y="123.0">rfsleeve</text>
  <path d="M 332.0 228.0 L 410.0 228.0 Q 428.59999999999997 85.80000000000001 422.0 60.0 L 362.0 60.0 Q 376.7 141.75 332.0 153.0 Q 339.5 156.75 332.0 228.0 z" fill="rgb(255,217,194)" stroke="black"/>
  <text fill="rgb(9,33,173)" font-size="25" x="346.6" y="148.8">Rback</text>
  <path d="M 494.0 228.0 L 572.0 228.0 Q 564.5 156.75 572.0 153.0 Q 531.95 140.25 542.0 60.0 L 482.0 60.0 Q 475.40000000000003 85.8 494.0 228.0 z" fill="rgb(255,217,194)" stroke="black"/>
  <text fill="rgb(9,33,173)" font-size="25" x="507.4" y="148.8">Rfront</text>
  <path d="M 653.0 168.0 L 713.0 168.0 L 773.0 168.0 L 794.0 132.0 Q 760.7 116.4 779.0 60.0 L 743.0 60.0 Q 713.0 95.66111660727245 683.0 60.0 L 647.0 60.0 Q 665.3 116.4 632.0 132.0 L 653.0 168.0 z" fill="rgb(255,217,194)" stroke="black"/>
  <text fill="rgb(9,33,173)" font-size="25" x="688.0" y="115.0">up_back</text>
  <path d="M 875.0 165.0 L 935.0 165.0 L 995.0 165.0 L 1016.0 129.0 Q 983.9 114.3 1001.0 60.0 L 965.0 60.0 L 935.0 114.0 L 905.0 60.0 L 869.0 60.0 Q 886.1 114.3 854.0 129.0 L 875.0 165.0 z" fill="rgb(255,217,194)" stroke="black"/>
  <text fill="rgb(9,33,173)" font-size="25" x="910.0" y="113.7">up_front</text>
  <path d="M 1088.0 228.0 L 1166.0 228.0 Q 1158.5 156.75 1166.0 153.0 Q 1121.3 141.75 1136.0 60.0 L 1076.0 60.0 Q 1069.3999999999999 85.8 1088.0 228.0 z" fill="rgb(255,217,194)" stroke="black"/>
  <text fill="rgb(9,33,173)" font-size="25" x="1101.4" y="148.8">Lback</text>
  <path d="M 1226.0 228.0 L 1304.0 228.0 Q 1322.6000000000001 85.80000000000001 1316.0 60.0 L 1256.0 60.0 Q 1266.05 140.25 1226.0 153.0 Q 1233.5 156.75 1226.0 228.0 z" fill="rgb(255,217,194)" stroke="black"/>
  <text fill="rgb(9,33,173)" font-size="25" x="1240.6" y="148.8">Lfront</text>
  <path d="M 1376.0 228.0 L 1412.0 132.0 Q 1444.3999999999999 115.2 1424.0 60.0 L 1376.0 60.0 L 1376.0 228.0 z" fill="rgb(255,217,194)" stroke="black"/>
  <text fill="rgb(9,33,173)" font-size="25" x="1372.0" y="123.0">lbsleeve</text>
  <path d="M 1512.0 228.0 L 1560.0 228.0 Q 1580.3999999999999 172.79999999999998 1548.0 156.0 L 1512.0 60.0 L 1512.0 228.0 z" fill="rgb(255,217,194)" stroke="black"/>
  <text fill="rgb(9,33,173)" font-size="25" x="1508.0" y="171.0">lfsleeve</text>
</svg>
