<?xml version="1.0" encoding="utf-8" ?>
<svg xmlns="http://www.w3.org/2000/svg" xmlns:ev="http://www.w3.org/2001/xml-events" xmlns:xlink="http://www.w3.org/1999/xlink" baseProfile="full" height="369px" version="1.1" width="1386px">
  <defs/>
  <path d="M 60 153 L 168 153 Q 181.2 110.4 156 99 L 60 60 L 60 153 z" fill="rgb(255,217,194)" stroke="black"/>
  <text fill="rgb(9,33,173)" font-size="25" x="86.0" y="119.25">rbsleeve</text>
  <path d="M 228 153 L 324 114 Q 349.20000000000005 102.6 336 60 L 228 60 L 228 153 z" fill="rgb(255,217,194)" stroke="black"/>
  <text fill="rgb(9,33,173)" font-size="25" x="254.0" y="99.75">rfsleeve</text>
  <path d="M 405 309 L 525 309 L 534 117 Q 507.59999999999997 104.7 522 60 L 501 60 L 465 69 L 429 60 L 408 60 Q 422.40000000000003 104.7 396 117 L 405 309 z" fill="rgb(255,217,194)" stroke="black"/>
  <text fill="rgb(9,33,173)" font-size="25" x="440.0" y="132.0">back</text>
  <path d="M 603 309 L 723 309 L 732 114 Q 706.8 102.6 720 60 L 699 60 L 663 63 L 627 60 L 606 60 Q 619.2 102.6 594 114 L 603 309 z" fill="rgb(255,217,194)" stroke="black"/>
  <text fill="rgb(9,33,173)" font-size="25" x="638.0" y="130.66666666666669">front</text>
  <path d="M 792 183 L 810 180 Q 895.5 175.5 861 63 L 828 72 L 792 60 L 792 183 z" fill="rgb(255,217,194)" stroke="black"/>
  <text fill="rgb(9,33,173)" font-size="25" x="791.6" y="114.6">Rhood</text>
  <path d="M 921 183 L 957 171 L 990 180 Q 1024.5 67.50000000000001 939 63 L 921 60 L 921 183 z" fill="rgb(255,217,194)" stroke="black"/>
  <text fill="rgb(9,33,173)" font-size="25" x="920.6" y="134.4">Lhood</text>
  <path d="M 1050 153 L 1146 114 Q 1171.1999999999998 102.6 1158 60 L 1050 60 L 1050 153 z" fill="rgb(255,217,194)" stroke="black"/>
  <text fill="rgb(9,33,173)" font-size="25" x="1076.0" y="99.75">lbsleeve</text>
  <path d="M 1218 153 L 1326 153 Q 1339.1999999999998 110.4 1314 99 L 1218 60 L 1218 153 z" fill="rgb(255,217,194)" stroke="black"/>
  <text fill="rgb(9,33,173)" font-size="25" x="1244.0" y="119.25">lfsleeve</text>
</svg>
