<?xml version="1.0" encoding="utf-8" ?>
<svg xmlns="http://www.w3.org/2000/svg" xmlns:ev="http://www.w3.org/2001/xml-events" xmlns:xlink="http://www.w3.org/1999/xlink" baseProfile="full" height="378px" version="1.1" width="1632px">
  <defs/>
  <path d="M 60 189 L 201 189 Q 237.3 101.10000000000001 186 72 L 60 60 L 60 189 z" fill="rgb(255,217,194)" stroke="black"/>
  <text fill="rgb(9,33,173)" font-size="25" x="101.75" y="130.5">rbsleeve</text>
  <path d="M 261 189 L 387 177 Q 438.3 147.9 402 60 L 261 60 L 261 189 z" fill="rgb(255,217,194)" stroke="black"/>
  <text fill="rgb(9,33,173)" font-size="25" x="302.75" y="124.5">rfsleeve</text>
  <path d="M 462 318 L 786 318 L 711 177 Q 659.7 147.9 696 60 L 669 60 Q 624.0 115.48217803777173 579 60 L 552 60 Q 588.3 147.89999999999998 537 177 L 462 318 z" fill="rgb(255,217,194)" stroke="black"/>
  <text fill="rgb(9,33,173)" font-size="25" x="599.0" y="156.75">back</text>
  <path d="M 846 318 L 1170 318 L 1095 177 Q 1043.7 147.9 1080 60 L 1053 60 L 1008 108 L 963 60 L 936 60 Q 972.3 147.89999999999998 921 177 L 846 318 z" fill="rgb(255,217,194)" stroke="black"/>
  <text fill="rgb(9,33,173)" font-size="25" x="983.0" y="151.66666666666666">front</text>
  <path d="M 1230 189 L 1356 177 Q 1407.3 147.9 1371 60 L 1230 60 L 1230 189 z" fill="rgb(255,217,194)" stroke="black"/>
  <text fill="rgb(9,33,173)" font-size="25" x="1271.75" y="124.5">lbsleeve</text>
  <path d="M 1431 189 L 1572 189 Q 1608.3 101.10000000000001 1557 72 L 1431 60 L 1431 189 z" fill="rgb(255,217,194)" stroke="black"/>
  <text fill="rgb(9,33,173)" font-size="25" x="1472.75" y="130.5">lfsleeve</text>
</svg>
