<?xml version="1.0" encoding="utf-8" ?>
<svg xmlns="http://www.w3.org/2000/svg" xmlns:ev="http://www.w3.org/2001/xml-events" xmlns:xlink="http://www.w3.org/1999/xlink" baseProfile="full" height="288px" version="1.1" width="1527.5px">
  <defs/>
  <path d="M 60 228 L 165 228 Q 182.7 182.4 156 168 L 60 60 L 60 228 z" fill="rgb(255,217,194)" stroke="black"/>
  <text fill="rgb(9,33,173)" font-size="25" x="85.25" y="174.0">rbsleeve</text>
  <path d="M 225.25 228.0 L 321.25 120.0 Q 347.95 105.6 330.25 60.0 L 225.25 60.0 L 225.25 228.0 z" fill="rgb(255,217,194)" stroke="black"/>
  <text fill="rgb(9,33,173)" font-size="25" x="250.5" y="120.0">rfsleeve</text>
  <path d="M 390.5 165.0 L 537.5 165.0 L 537.5 90.0 L 510.5 60.0 L 489.5 60.0 Q 506.0 103.5 480.5 117.0 L 390.5 165.0 z" fill="rgb(255,217,194)" stroke="black"/>
  <text fill="rgb(9,33,173)" font-size="25" x="466.0" y="112.5">front_right</text>
  <path d="M 636.0 165.0 L 930.0 165.0 L 840.0 120.0 Q 813.3 105.6 831.0 60.0 L 810.0 60.0 Q 783.0 143.59023849170137 756.0 60.0 L 735.0 60.0 Q 752.7 105.6 726.0 120.0 L 636.0 165.0 z" fill="rgb(255,217,194)" stroke="black"/>
  <text fill="rgb(9,33,173)" font-size="25" x="758.0" y="104.25">back</text>
  <path d="M 990.0 165.0 L 1137.0 165.0 L 1047.0 117.0 Q 1021.5 103.5 1038.0 60.0 L 1017.0 60.0 L 990.0 90.0 L 990.0 165.0 z" fill="rgb(255,217,194)" stroke="black"/>
  <text fill="rgb(9,33,173)" font-size="25" x="1011.5" y="112.5">front_left</text>
  <path d="M 1197.0 228.0 L 1293.0 120.0 Q 1319.7 105.6 1302.0 60.0 L 1197.0 60.0 L 1197.0 228.0 z" fill="rgb(255,217,194)" stroke="black"/>
  <text fill="rgb(9,33,173)" font-size="25" x="1222.25" y="120.0">lbsleeve</text>
  <path d="M 1362.25 228.0 L 1467.25 228.0 Q 1484.95 182.4 1458.25 168.0 L 1362.25 60.0 L 1362.25 228.0 z" fill="rgb(255,217,194)" stroke="black"/>
  <text fill="rgb(9,33,173)" font-size="25" x="1387.5" y="174.0">lfsleeve</text>
</svg>
