<?xml version="1.0" encoding="utf-8" ?>
<svg xmlns="http://www.w3.org/2000/svg" xmlns:ev="http://www.w3.org/2001/xml-events" xmlns:xlink="http://www.w3.org/1999/xlink" baseProfile="full" height="399px" version="1.1" width="827.0px">
  <defs/>
  <path d="M 60 339 L 201 339 L 201 141 L 147 60 L 120 60 Q 134.7 110.1 105 123 L 60 339 z" fill="rgb(255,217,194)" stroke="black"/>
  <text fill="rgb(9,33,173)" font-size="25" x="114.0" y="180.0">front_right</text>
  <path d="M 284.0 339.0 L 566.0 339.0 L 521.0 123.0 Q 491.3 110.1 506.0 60.0 L 479.0 60.0 Q 425.0 248.1506884895338 371.0 60.0 L 344.0 60.0 Q 358.7 110.1 329.0 123.0 L 284.0 339.0 z" fill="rgb(255,217,194)" stroke="black"/>
  <text fill="rgb(9,33,173)" font-size="25" x="400.0" y="148.5">back</text>
  <path d="M 626.0 339.0 L 767.0 339.0 L 722.0 123.0 Q 692.3 110.1 707.0 60.0 L 680.0 60.0 L 626.0 141.0 L 626.0 339.0 z" fill="rgb(255,217,194)" stroke="black"/>
  <text fill="rgb(9,33,173)" font-size="25" x="663.0" y="180.0">front_left</text>
</svg>
