<?xml version="1.0" encoding="utf-8" ?>
<svg xmlns="http://www.w3.org/2000/svg" xmlns:ev="http://www.w3.org/2001/xml-events" xmlns:xlink="http://www.w3.org/1999/xlink" baseProfile="full" height="270.0px" version="1.1" width="1583.4px">
  <defs/>
  <path d="M 60 153 L 81 153 Q 91.8 114.60000000000001 69 105 L 60 60 L 60 153 z" fill="rgb(255,217,194)" stroke="black"/>
  <text fill="rgb(9,33,173)" font-size="25" x="42.5" y="120.75">rbsleeve</text>
  <path d="M 182.5 153.0 L 191.5 108.0 Q 214.3 98.39999999999999 203.5 60.0 L 182.5 60.0 L 182.5 153.0 z" fill="rgb(255,217,194)" stroke="black"/>
  <text fill="rgb(9,33,173)" font-size="25" x="165.0" y="98.25">rfsleeve</text>
  <path d="M 305.0 210.0 L 350.0 210.0 Q 398.3 84.9 398.0 60.0 L 335.0 60.0 Q 349.7 141.75 305.0 153.0 Q 310.7 155.85 305.0 210.0 z" fill="rgb(255,217,194)" stroke="black"/>
  <text fill="rgb(9,33,173)" font-size="25" x="313.6" y="141.6">Rback</text>
  <path d="M 506.0 210.0 L 551.0 210.0 Q 545.3 155.85 551.0 153.0 Q 510.95 140.25 521.0 60.0 L 458.0 60.0 Q 457.7 84.9 506.0 210.0 z" fill="rgb(255,217,194)" stroke="black"/>
  <text fill="rgb(9,33,173)" font-size="25" x="492.4" y="141.6">Rfront</text>
  <path d="M 624.4 168.0 L 687.4 168.0 L 750.4 168.0 L 762.4 111.0 Q 738.4 100.5 750.4 60.0 L 702.4 60.0 Q 687.4 89.01964514123557 672.4 60.0 L 624.4 60.0 Q 636.4 100.49999999999999 612.4 111.0 L 624.4 168.0 z" fill="rgb(255,217,194)" stroke="black"/>
  <text fill="rgb(9,33,173)" font-size="25" x="662.3999999999999" y="110.33333333333333">up_back</text>
  <path d="M 834.4 165.0 L 897.4 165.0 L 960.4 165.0 L 972.4 111.0 Q 948.4 100.5 960.4 60.0 L 912.4 60.0 L 897.4 126.0 L 882.4 60.0 L 834.4 60.0 Q 846.4 100.49999999999999 822.4 111.0 L 834.4 165.0 z" fill="rgb(255,217,194)" stroke="black"/>
  <text fill="rgb(9,33,173)" font-size="25" x="872.3999999999999" y="111.3">up_front</text>
  <path d="M 1080.4 210.0 L 1125.4 210.0 Q 1119.7 155.85 1125.4 153.0 Q 1080.7 141.75 1095.4 60.0 L 1032.4 60.0 Q 1032.1000000000001 84.9 1080.4 210.0 z" fill="rgb(255,217,194)" stroke="black"/>
  <text fill="rgb(9,33,173)" font-size="25" x="1066.8" y="141.6">Lback</text>
  <path d="M 1185.4 210.0 L 1230.4 210.0 Q 1278.7 84.9 1278.4 60.0 L 1215.4 60.0 Q 1225.45 140.25 1185.4 153.0 Q 1191.1000000000001 155.85 1185.4 210.0 z" fill="rgb(255,217,194)" stroke="black"/>
  <text fill="rgb(9,33,173)" font-size="25" x="1194.0" y="141.6">Lfront</text>
  <path d="M 1338.4 153.0 L 1347.4 108.0 Q 1370.2 98.39999999999999 1359.4 60.0 L 1338.4 60.0 L 1338.4 153.0 z" fill="rgb(255,217,194)" stroke="black"/>
  <text fill="rgb(9,33,173)" font-size="25" x="1320.9" y="98.25">lbsleeve</text>
  <path d="M 1460.9 153.0 L 1481.9 153.0 Q 1492.7 114.60000000000001 1469.9 105.0 L 1460.9 60.0 L 1460.9 153.0 z" fill="rgb(255,217,194)" stroke="black"/>
  <text fill="rgb(9,33,173)" font-size="25" x="1443.4" y="120.75">lfsleeve</text>
</svg>
