<?xml version="1.0" encoding="utf-8" ?>
<svg xmlns="http://www.w3.org/2000/svg" xmlns:ev="http://www.w3.org/2001/xml-events" xmlns:xlink="http://www.w3.org/1999/xlink" baseProfile="full" height="228.0px" version="1.1" width="1390.0px">
  <defs/>
  <path d="M 60 150 L 288 150 L 288 60 L 60 60 L 60 150 z" fill="rgb(255,217,194)" stroke="black"/>
  <text fill="rgb(9,33,173)" font-size="25" x="149.0" y="108.0">skirt_back</text>
  <path d="M 348 75 L 438 75 L 438 60 L 348 60 L 348 75 z" fill="rgb(255,217,194)" stroke="black"/>
  <text fill="rgb(9,33,173)" font-size="25" x="368.0" y="70.5">wb_back</text>
  <path d="M 498 75 L 588 75 L 588 60 L 498 60 L 498 75 z" fill="rgb(255,217,194)" stroke="black"/>
  <text fill="rgb(9,33,173)" font-size="25" x="518.0" y="70.5">wb_front</text>
  <path d="M 658.0 150.0 L 886.0 150.0 L 886.0 60.0 L 658.0 60.0 L 658.0 150.0 z" fill="rgb(255,217,194)" stroke="black"/>
  <text fill="rgb(9,33,173)" font-size="25" x="747.0" y="108.0">skirt_front</text>
  <path d="M 946.0 168.0 L 1108.0 168.0 L 1108.0 108.0 Q 1085.2 98.39999999999999 1096.0 60.0 L 1060.0 60.0 Q 1027.0 151.70505734388598 994.0 60.0 L 958.0 60.0 Q 968.8000000000001 98.39999999999999 946.0 108.0 L 946.0 168.0 z" fill="rgb(255,217,194)" stroke="black"/>
  <text fill="rgb(9,33,173)" font-size="25" x="1002.0" y="102.0">top_back</text>
  <path d="M 1168.0 168.0 L 1330.0 168.0 L 1330.0 108.0 Q 1307.2 98.39999999999999 1318.0 60.0 L 1282.0 60.0 L 1249.0 114.0 L 1216.0 60.0 L 1180.0 60.0 Q 1190.8 98.39999999999999 1168.0 108.0 L 1168.0 168.0 z" fill="rgb(255,217,194)" stroke="black"/>
  <text fill="rgb(9,33,173)" font-size="25" x="1224.0" y="103.66666666666667">top_front</text>
</svg>
