<?xml version="1.0" encoding="utf-8" ?>
<svg xmlns="http://www.w3.org/2000/svg" xmlns:ev="http://www.w3.org/2001/xml-events" xmlns:xlink="http://www.w3.org/1999/xlink" baseProfile="full" height="453px" version="1.1" width="1620px">
  <defs/>
  <path d="M 60 195 L 171 195 Q 195.3 128.1 156 108 L 60 60 L 60 195 z" fill="rgb(255,217,194)" stroke="black"/>
  <text fill="rgb(9,33,173)" font-size="25" x="86.75" y="142.5">rbsleeve</text>
  <path d="M 231 195 L 327 147 Q 366.3 126.9 342 60 L 231 60 L 231 195 z" fill="rgb(255,217,194)" stroke="black"/>
  <text fill="rgb(9,33,173)" font-size="25" x="257.75" y="118.5">rfsleeve</text>
  <path d="M 402 393 L 780 393 L 678 147 Q 639.6 125.7 666 60 L 633 60 Q 591.0 65.04622067463296 549 60 L 516 60 Q 542.4 125.7 504 147 L 402 393 z" fill="rgb(255,217,194)" stroke="black"/>
  <text fill="rgb(9,33,173)" font-size="25" x="566.0" y="168.0">back</text>
  <path d="M 840 393 L 1218 393 L 1116 144 Q 1078.8000000000002 123.6 1104 60 L 1071 60 L 1029 66 L 987 60 L 954 60 Q 979.2 123.6 942 144 L 840 393 z" fill="rgb(255,217,194)" stroke="black"/>
  <text fill="rgb(9,33,173)" font-size="25" x="1004.0" y="156.33333333333334">front</text>
  <path d="M 1278 195 L 1374 147 Q 1413.3 126.9 1389 60 L 1278 60 L 1278 195 z" fill="rgb(255,217,194)" stroke="black"/>
  <text fill="rgb(9,33,173)" font-size="25" x="1304.75" y="118.5">lbsleeve</text>
  <path d="M 1449 195 L 1560 195 Q 1584.3 128.1 1545 108 L 1449 60 L 1449 195 z" fill="rgb(255,217,194)" stroke="black"/>
  <text fill="rgb(9,33,173)" font-size="25" x="1475.75" y="142.5">lfsleeve</text>
</svg>
