<?xml version="1.0" encoding="utf-8" ?>
<svg xmlns="http://www.w3.org/2000/svg" xmlns:ev="http://www.w3.org/2001/xml-events" xmlns:xlink="http://www.w3.org/1999/xlink" baseProfile="full" height="375px" version="1.1" width="1236px">
  <defs/>
  <path d="M 60 315 Q 210.0 227.72548325312093 360 315 L 282 102 L 261 60 L 159 60 L 138 102 L 60 315 z" fill="rgb(255,217,194)" stroke="black"/>
  <text fill="rgb(9,33,173)" font-size="25" x="185.0" y="162.0">skirt_back</text>
  <path d="M 420 315 Q 570.0 270.39924364375787 720 315 L 642 102 L 621 60 L 519 60 L 498 102 L 420 315 z" fill="rgb(255,217,194)" stroke="black"/>
  <text fill="rgb(9,33,173)" font-size="25" x="545.0" y="162.0">skirt_front</text>
  <path d="M 813 168 L 915 168 L 948 147 Q 908.7 126.9 933 60 L 906 60 Q 864.0 114.29931143345443 822 60 L 795 60 Q 819.3 126.9 780 147 L 813 168 z" fill="rgb(255,217,194)" stroke="black"/>
  <text fill="rgb(9,33,173)" font-size="25" x="839.0" y="111.75">top_back</text>
  <path d="M 1041 165 L 1143 165 L 1176 147 Q 1136.7 126.9 1161 60 L 1134 60 L 1092 84 L 1050 60 L 1023 60 Q 1047.3 126.9 1008 147 L 1041 165 z" fill="rgb(255,217,194)" stroke="black"/>
  <text fill="rgb(9,33,173)" font-size="25" x="1067.0" y="108.33333333333333">top_front</text>
</svg>
