<?xml version="1.0" encoding="utf-8" ?>
<svg xmlns="http://www.w3.org/2000/svg" xmlns:ev="http://www.w3.org/2001/xml-events" xmlns:xlink="http://www.w3.org/1999/xlink" baseProfile="full" height="276.0px" version="1.1" width="1769.0px">
  <defs/>
  <path d="M 60 126 L 180 126 Q 200.1 76.20000000000002 171 60 L 60 66 L 60 126 z" fill="rgb(255,217,194)" stroke="black"/>
  <text fill="rgb(9,33,173)" font-size="25" x="92.75" y="97.5">rbsleeve</text>
  <path d="M 240 120 L 351 126 Q 380.09999999999997 109.8 360 60 L 240 60 L 240 120 z" fill="rgb(255,217,194)" stroke="black"/>
  <text fill="rgb(9,33,173)" font-size="25" x="272.75" y="94.5">rfsleeve</text>
  <path d="M 420 186 L 549 186 L 549 114 L 525 60 L 498 60 Q 518.1 109.79999999999998 489 126 L 420 186 z" fill="rgb(255,217,194)" stroke="black"/>
  <text fill="rgb(9,33,173)" font-size="25" x="480.0" y="125.0">front_right</text>
  <path d="M 650.0 216.0 L 716.0 210.0 Q 777.2 174.9 710.0 105.0 L 686.0 114.0 L 659.0 60.0 L 650.0 216.0 z" fill="rgb(255,217,194)" stroke="black"/>
  <text fill="rgb(9,33,173)" font-size="25" x="659.2" y="144.0">Rhood</text>
  <path d="M 776.0 186.0 L 1034.0 186.0 L 965.0 126.0 Q 935.9 109.8 956.0 60.0 L 929.0 60.0 L 905.0 69.0 L 881.0 60.0 L 854.0 60.0 Q 874.1 109.79999999999998 845.0 126.0 L 776.0 186.0 z" fill="rgb(255,217,194)" stroke="black"/>
  <text fill="rgb(9,33,173)" font-size="25" x="880.0" y="106.66666666666667">back</text>
  <path d="M 1103.0 216.0 L 1130.0 162.0 L 1154.0 171.0 Q 1221.2 101.1 1160.0 66.0 L 1094.0 60.0 L 1103.0 216.0 z" fill="rgb(255,217,194)" stroke="black"/>
  <text fill="rgb(9,33,173)" font-size="25" x="1103.2" y="138.0">Lhood</text>
  <path d="M 1220.0 186.0 L 1349.0 186.0 L 1280.0 126.0 Q 1250.8999999999999 109.8 1271.0 60.0 L 1244.0 60.0 L 1220.0 114.0 L 1220.0 186.0 z" fill="rgb(255,217,194)" stroke="black"/>
  <text fill="rgb(9,33,173)" font-size="25" x="1239.0" y="125.0">front_left</text>
  <path d="M 1409.0 120.0 L 1520.0 126.0 Q 1549.1000000000001 109.8 1529.0 60.0 L 1409.0 60.0 L 1409.0 120.0 z" fill="rgb(255,217,194)" stroke="black"/>
  <text fill="rgb(9,33,173)" font-size="25" x="1441.75" y="94.5">lbsleeve</text>
  <path d="M 1589.0 126.0 L 1709.0 126.0 Q 1729.1000000000001 76.20000000000002 1700.0 60.0 L 1589.0 66.0 L 1589.0 126.0 z" fill="rgb(255,217,194)" stroke="black"/>
  <text fill="rgb(9,33,173)" font-size="25" x="1621.75" y="97.5">lfsleeve</text>
</svg>
