<?xml version="1.0" encoding="utf-8" ?>
<svg xmlns="http://www.w3.org/2000/svg" xmlns:ev="http://www.w3.org/2001/xml-events" xmlns:xlink="http://www.w3.org/1999/xlink" baseProfile="full" height="399px" version="1.1" width="1030.0px">
  <defs/>
  <path d="M 60 339 L 192 339 L 192 90 L 177 60 L 135 60 Q 150.29999999999998 101.39999999999999 126 114 L 60 339 z" fill="rgb(255,217,194)" stroke="black"/>
  <text fill="rgb(9,33,173)" font-size="25" x="122.0" y="170.0">front_right</text>
  <path d="M 292.0 198.0 L 307.0 198.0 Q 388.0 184.5 343.0 81.0 L 328.0 90.0 L 313.0 60.0 L 292.0 198.0 z" fill="rgb(255,217,194)" stroke="black"/>
  <text fill="rgb(9,33,173)" font-size="25" x="291.6" y="128.4">Rhood</text>
  <path d="M 403.0 339.0 L 667.0 339.0 L 601.0 117.0 Q 575.5 103.5 592.0 60.0 L 550.0 60.0 L 535.0 69.0 L 520.0 60.0 L 478.0 60.0 Q 494.5 103.5 469.0 117.0 L 403.0 339.0 z" fill="rgb(255,217,194)" stroke="black"/>
  <text fill="rgb(9,33,173)" font-size="25" x="510.0" y="138.66666666666666">back</text>
  <path d="M 748.0 198.0 L 763.0 168.0 L 778.0 177.0 Q 823.0 73.50000000000001 742.0 60.0 L 727.0 60.0 L 748.0 198.0 z" fill="rgb(255,217,194)" stroke="black"/>
  <text fill="rgb(9,33,173)" font-size="25" x="726.6" y="135.6">Lhood</text>
  <path d="M 838.0 339.0 L 970.0 339.0 L 904.0 114.0 Q 879.6999999999999 101.39999999999999 895.0 60.0 L 853.0 60.0 L 838.0 90.0 L 838.0 339.0 z" fill="rgb(255,217,194)" stroke="black"/>
  <text fill="rgb(9,33,173)" font-size="25" x="858.0" y="170.0">front_left</text>
</svg>
