<?xml version="1.0" encoding="utf-8" ?>
<svg xmlns="http://www.w3.org/2000/svg" xmlns:ev="http://www.w3.org/2001/xml-events" xmlns:xlink="http://www.w3.org/1999/xlink" baseProfile="full" height="240px" version="1.1" width="760.0px">
  <defs/>
  <path d="M 60 180 L 180 180 L 180 81 L 153 60 L 123 60 Q 151.8 129.9 111 153 L 60 180 z" fill="rgb(255,217,194)" stroke="black"/>
  <text fill="rgb(9,33,173)" font-size="25" x="109.5" y="122.0">front_right</text>
  <path d="M 279.5 180.0 L 519.5 180.0 L 468.5 153.0 Q 427.7 129.9 456.5 60.0 L 426.5 60.0 Q 399.5 109.16477693295042 372.5 60.0 L 342.5 60.0 Q 371.3 129.9 330.5 153.0 L 279.5 180.0 z" fill="rgb(255,217,194)" stroke="black"/>
  <text fill="rgb(9,33,173)" font-size="25" x="374.5" y="116.25">back</text>
  <path d="M 579.5 180.0 L 699.5 180.0 L 648.5 153.0 Q 607.6999999999999 129.9 636.5 60.0 L 606.5 60.0 L 579.5 81.0 L 579.5 180.0 z" fill="rgb(255,217,194)" stroke="black"/>
  <text fill="rgb(9,33,173)" font-size="25" x="600.0" y="122.0">front_left</text>
</svg>
