<?xml version="1.0" encoding="utf-8" ?>
<svg xmlns="http://www.w3.org/2000/svg" xmlns:ev="http://www.w3.org/2001/xml-events" xmlns:xlink="http://www.w3.org/1999/xlink" baseProfile="full" height="465.0px" version="1.1" width="1375.0px">
  <defs/>
  <path d="M 60 153 L 108 153 Q 134.7 81.9 93 60 L 60 60 L 60 153 z" fill="rgb(255,217,194)" stroke="black"/>
  <text fill="rgb(9,33,173)" font-size="25" x="55.25" y="109.5">rbsleeve</text>
  <path d="M 195.25 153.0 L 228.25 153.0 Q 269.95 131.1 243.25 60.0 L 195.25 60.0 L 195.25 153.0 z" fill="rgb(255,217,194)" stroke="black"/>
  <text fill="rgb(9,33,173)" font-size="25" x="190.5" y="109.5">rfsleeve</text>
  <path d="M 330.5 405.0 L 504.5 405.0 L 501.5 153.0 Q 460.7 129.9 489.5 60.0 L 462.5 60.0 L 417.5 69.0 L 372.5 60.0 L 345.5 60.0 Q 374.3 129.9 333.5 153.0 L 330.5 405.0 z" fill="rgb(255,217,194)" stroke="black"/>
  <text fill="rgb(9,33,173)" font-size="25" x="392.5" y="161.33333333333334">back</text>
  <path d="M 564.5 405.0 L 738.5 405.0 L 735.5 150.0 Q 695.9 127.8 723.5 60.0 L 696.5 60.0 L 651.5 78.0 L 606.5 60.0 L 579.5 60.0 Q 607.1 127.8 567.5 150.0 L 564.5 405.0 z" fill="rgb(255,217,194)" stroke="black"/>
  <text fill="rgb(9,33,173)" font-size="25" x="626.5" y="161.66666666666666">front</text>
  <path d="M 810.5 174.0 L 825.5 174.0 Q 904.6999999999999 183.9 891.5 75.0 L 846.5 84.0 L 798.5 60.0 L 810.5 174.0 z" fill="rgb(255,217,194)" stroke="black"/>
  <text fill="rgb(9,33,173)" font-size="25" x="809.5" y="116.4">Rhood</text>
  <path d="M 951.5 174.0 L 999.5 150.0 L 1044.5 159.0 Q 1057.7 50.1 978.5 60.0 L 963.5 60.0 L 951.5 174.0 z" fill="rgb(255,217,194)" stroke="black"/>
  <text fill="rgb(9,33,173)" font-size="25" x="962.5" y="123.6">Lhood</text>
  <path d="M 1104.5 153.0 L 1137.5 153.0 Q 1179.2 131.1 1152.5 60.0 L 1104.5 60.0 L 1104.5 153.0 z" fill="rgb(255,217,194)" stroke="black"/>
  <text fill="rgb(9,33,173)" font-size="25" x="1099.75" y="109.5">lbsleeve</text>
  <path d="M 1239.75 153.0 L 1287.75 153.0 Q 1314.45 81.9 1272.75 60.0 L 1239.75 60.0 L 1239.75 153.0 z" fill="rgb(255,217,194)" stroke="black"/>
  <text fill="rgb(9,33,173)" font-size="25" x="1235.0" y="109.5">lfsleeve</text>
</svg>
