<?xml version="1.0" encoding="utf-8" ?>
<svg xmlns="http://www.w3.org/2000/svg" xmlns:ev="http://www.w3.org/2001/xml-events" xmlns:xlink="http://www.w3.org/1999/xlink" baseProfile="full" height="231px" version="1.1" width="1642.0px">
  <defs/>
  <path d="M 60 171 L 180 171 Q 190.8 132.6 168 123 L 60 60 L 60 171 z" fill="rgb(255,217,194)" stroke="black"/>
  <text fill="rgb(9,33,173)" font-size="25" x="92.0" y="134.25">rbsleeve</text>
  <path d="M 240 171 L 348 108 Q 370.8 98.39999999999999 360 60 L 240 60 L 240 171 z" fill="rgb(255,217,194)" stroke="black"/>
  <text fill="rgb(9,33,173)" font-size="25" x="272.0" y="102.75">rfsleeve</text>
  <path d="M 435 162 Q 495.0 146.13513423154498 555 162 L 570 102 L 564 60 L 426 60 L 420 102 L 435 162 z" fill="rgb(255,217,194)" stroke="black"/>
  <text fill="rgb(9,33,173)" font-size="25" x="470.0" y="111.0">skirt_back</text>
  <path d="M 645 162 Q 705.0 142.41641082204205 765 162 L 780 102 L 774 60 L 636 60 L 630 102 L 645 162 z" fill="rgb(255,217,194)" stroke="black"/>
  <text fill="rgb(9,33,173)" font-size="25" x="680.0" y="111.0">skirt_front</text>
  <path d="M 859.0 168.0 L 997.0 168.0 L 1006.0 111.0 Q 982.0 100.5 994.0 60.0 L 967.0 60.0 Q 928.0 104.0794859027134 889.0 60.0 L 862.0 60.0 Q 874.0 100.49999999999999 850.0 111.0 L 859.0 168.0 z" fill="rgb(255,217,194)" stroke="black"/>
  <text fill="rgb(9,33,173)" font-size="25" x="903.0" y="102.75">top_back</text>
  <path d="M 1075.0 165.0 L 1213.0 165.0 L 1222.0 111.0 Q 1198.0 100.5 1210.0 60.0 L 1183.0 60.0 L 1144.0 126.0 L 1105.0 60.0 L 1078.0 60.0 Q 1090.0 100.49999999999999 1066.0 111.0 L 1075.0 165.0 z" fill="rgb(255,217,194)" stroke="black"/>
  <text fill="rgb(9,33,173)" font-size="25" x="1119.0" y="105.0">top_front</text>
  <path d="M 1282.0 171.0 L 1390.0 108.0 Q 1412.8 98.39999999999999 1402.0 60.0 L 1282.0 60.0 L 1282.0 171.0 z" fill="rgb(255,217,194)" stroke="black"/>
  <text fill="rgb(9,33,173)" font-size="25" x="1314.0" y="102.75">lbsleeve</text>
  <path d="M 1462.0 171.0 L 1582.0 171.0 Q 1592.8 132.6 1570.0 123.0 L 1462.0 60.0 L 1462.0 171.0 z" fill="rgb(255,217,194)" stroke="black"/>
  <text fill="rgb(9,33,173)" font-size="25" x="1494.0" y="134.25">lfsleeve</text>
</svg>
