<?xml version="1.0" encoding="utf-8" ?>
<svg xmlns="http://www.w3.org/2000/svg" xmlns:ev="http://www.w3.org/2001/xml-events" xmlns:xlink="http://www.w3.org/1999/xlink" baseProfile="full" height="393.0px" version="1.1" width="1786.0px">
  <defs/>
  <path d="M 60 183 L 129 183 Q 156.6 115.2 117 93 L 60 60 L 60 183 z" fill="rgb(255,217,194)" stroke="black"/>
  <text fill="rgb(9,33,173)" font-size="25" x="66.5" y="132.75">rbsleeve</text>
  <path d="M 206.5 183.0 L 263.5 150.0 Q 303.1 127.8 275.5 60.0 L 206.5 60.0 L 206.5 183.0 z" fill="rgb(255,217,194)" stroke="black"/>
  <text fill="rgb(9,33,173)" font-size="25" x="213.0" y="116.25">rfsleeve</text>
  <path d="M 353.0 333.0 L 470.0 333.0 Q 460.7 99.60000000000002 443.0 60.0 L 383.0 60.0 Q 397.7 141.75 353.0 153.0 Q 371.0 162.0 353.0 333.0 z" fill="rgb(255,217,194)" stroke="black"/>
  <text fill="rgb(9,33,173)" font-size="25" x="375.4" y="190.8">Rback</text>
  <path d="M 530.0 333.0 L 647.0 333.0 Q 629.0 162.0 647.0 153.0 Q 606.95 140.25 617.0 60.0 L 557.0 60.0 Q 539.3000000000001 99.6 530.0 333.0 z" fill="rgb(255,217,194)" stroke="black"/>
  <text fill="rgb(9,33,173)" font-size="25" x="574.6" y="190.8">Rfront</text>
  <path d="M 725.0 168.0 L 785.0 168.0 L 845.0 168.0 L 863.0 147.0 Q 824.6 125.7 851.0 60.0 L 812.0 60.0 Q 785.0 112.98378533657485 758.0 60.0 L 719.0 60.0 Q 745.4 125.7 707.0 147.0 L 725.0 168.0 z" fill="rgb(255,217,194)" stroke="black"/>
  <text fill="rgb(9,33,173)" font-size="25" x="760.0" y="118.33333333333333">up_back</text>
  <path d="M 941.0 165.0 L 1001.0 165.0 L 1061.0 165.0 L 1079.0 147.0 Q 1040.6000000000001 125.7 1067.0 60.0 L 1028.0 60.0 L 1001.0 90.0 L 974.0 60.0 L 935.0 60.0 Q 961.4 125.7 923.0 147.0 L 941.0 165.0 z" fill="rgb(255,217,194)" stroke="black"/>
  <text fill="rgb(9,33,173)" font-size="25" x="976.0" y="114.9">up_front</text>
  <path d="M 1139.0 333.0 L 1256.0 333.0 Q 1238.0 162.0 1256.0 153.0 Q 1211.3 141.75 1226.0 60.0 L 1166.0 60.0 Q 1148.3 99.6 1139.0 333.0 z" fill="rgb(255,217,194)" stroke="black"/>
  <text fill="rgb(9,33,173)" font-size="25" x="1183.6" y="190.8">Lback</text>
  <path d="M 1316.0 333.0 L 1433.0 333.0 Q 1423.7 99.60000000000002 1406.0 60.0 L 1346.0 60.0 Q 1356.05 140.25 1316.0 153.0 Q 1334.0 162.0 1316.0 333.0 z" fill="rgb(255,217,194)" stroke="black"/>
  <text fill="rgb(9,33,173)" font-size="25" x="1338.4" y="190.8">Lfront</text>
  <path d="M 1493.0 183.0 L 1550.0 150.0 Q 1589.6 127.8 1562.0 60.0 L 1493.0 60.0 L 1493.0 183.0 z" fill="rgb(255,217,194)" stroke="black"/>
  <text fill="rgb(9,33,173)" font-size="25" x="1499.5" y="116.25">lbsleeve</text>
  <path d="M 1639.5 183.0 L 1708.5 183.0 Q 1736.1 115.2 1696.5 93.0 L 1639.5 60.0 L 1639.5 183.0 z" fill="rgb(255,217,194)" stroke="black"/>
  <text fill="rgb(9,33,173)" font-size="25" x="1646.0" y="132.75">lfsleeve</text>
</svg>
