<?xml version="1.0" encoding="utf-8" ?>
<svg xmlns="http://www.w3.org/2000/svg" xmlns:ev="http://www.w3.org/2001/xml-events" xmlns:xlink="http://www.w3.org/1999/xlink" baseProfile="full" height="303px" version="1.1" width="1056px">
  <defs/>
  <path d="M 60 243 L 126 243 Q 158.1 88.80000000000001 153 60 L 90 60 Q 104.7 141.75 60 153 Q 69.0 157.5 60 243 z" fill="rgb(255,217,194)" stroke="black"/>
  <text fill="rgb(9,33,173)" font-size="25" x="72.8" y="154.8">Rback</text>
  <path d="M 240 243 L 306 243 Q 297.0 157.5 306 153 Q 265.95 140.25 276 60 L 213 60 Q 207.9 88.8 240 243 z" fill="rgb(255,217,194)" stroke="black"/>
  <text fill="rgb(9,33,173)" font-size="25" x="243.2" y="154.8">Rfront</text>
  <path d="M 366 168 L 432 168 L 498 168 L 492 114 Q 467.7 101.39999999999999 483 60 L 459 60 Q 432.0 123.74942867116889 405 60 L 381 60 Q 396.3 101.39999999999999 372 114 L 366 168 z" fill="rgb(255,217,194)" stroke="black"/>
  <text fill="rgb(9,33,173)" font-size="25" x="407.0" y="111.0">up_back</text>
  <path d="M 558 165 L 624 165 L 690 165 L 684 114 Q 659.6999999999999 101.39999999999999 675 60 L 651 60 L 624 93 L 597 60 L 573 60 Q 588.3000000000001 101.39999999999999 564 114 L 558 165 z" fill="rgb(255,217,194)" stroke="black"/>
  <text fill="rgb(9,33,173)" font-size="25" x="599.0" y="108.6">up_front</text>
  <path d="M 777 243 L 843 243 Q 834.0 157.5 843 153 Q 798.3 141.75 813 60 L 750 60 Q 744.9 88.8 777 243 z" fill="rgb(255,217,194)" stroke="black"/>
  <text fill="rgb(9,33,173)" font-size="25" x="780.2" y="154.8">Lback</text>
  <path d="M 903 243 L 969 243 Q 1001.1 88.80000000000001 996 60 L 933 60 Q 943.05 140.25 903 153 Q 912.0 157.5 903 243 z" fill="rgb(255,217,194)" stroke="black"/>
  <text fill="rgb(9,33,173)" font-size="25" x="915.8" y="154.8">Lfront</text>
</svg>
