<?xml version="1.0" encoding="utf-8" ?>
<svg xmlns="http://www.w3.org/2000/svg" xmlns:ev="http://www.w3.org/2001/xml-events" xmlns:xlink="http://www.w3.org/1999/xlink" baseProfile="full" height="306.0px" version="1.1" width="801.5px">
  <defs/>
  <path d="M 60 243 L 192 243 L 192 90 L 165 60 L 123 60 Q 150.6 127.8 111 150 L 60 243 z" fill="rgb(255,217,194)" stroke="black"/>
  <text fill="rgb(9,33,173)" font-size="25" x="115.5" y="144.0">front_right</text>
  <path d="M 285.5 246.0 L 549.5 246.0 L 498.5 153.0 Q 457.7 129.9 486.5 60.0 L 444.5 60.0 Q 417.5 231.36634140997649 390.5 60.0 L 348.5 60.0 Q 377.3 129.9 336.5 153.0 L 285.5 246.0 z" fill="rgb(255,217,194)" stroke="black"/>
  <text fill="rgb(9,33,173)" font-size="25" x="392.5" y="132.75">back</text>
  <path d="M 609.5 243.0 L 741.5 243.0 L 690.5 150.0 Q 650.9 127.8 678.5 60.0 L 636.5 60.0 L 609.5 90.0 L 609.5 243.0 z" fill="rgb(255,217,194)" stroke="black"/>
  <text fill="rgb(9,33,173)" font-size="25" x="636.0" y="144.0">front_left</text>
</svg>
