<?xml version="1.0" encoding="utf-8" ?>
<svg xmlns="http://www.w3.org/2000/svg" xmlns:ev="http://www.w3.org/2001/xml-events" xmlns:xlink="http://www.w3.org/1999/xlink" baseProfile="full" height="339px" version="1.1" width="1908px">
  <defs/>
  <path d="M 60 174 L 198 174 Q 210.0 133.5 186 123 L 60 60 L 60 174 z" fill="rgb(255,217,194)" stroke="black"/>
  <text fill="rgb(9,33,173)" font-size="25" x="101.0" y="135.75">rbsleeve</text>
  <path d="M 258 174 L 384 111 Q 408.0 100.5 396 60 L 258 60 L 258 174 z" fill="rgb(255,217,194)" stroke="black"/>
  <text fill="rgb(9,33,173)" font-size="25" x="299.0" y="104.25">rfsleeve</text>
  <path d="M 456 279 L 561 279 Q 566.85 92.55 555 60 L 486 60 Q 500.7 141.75 456 153 Q 468.6 159.3 456 279 z" fill="rgb(255,217,194)" stroke="black"/>
  <text fill="rgb(9,33,173)" font-size="25" x="477.8" y="169.2">Rback</text>
  <path d="M 621 279 L 726 279 Q 713.4 159.3 726 153 Q 685.95 140.25 696 60 L 627 60 Q 615.15 92.55 621 279 z" fill="rgb(255,217,194)" stroke="black"/>
  <text fill="rgb(9,33,173)" font-size="25" x="654.2" y="169.2">Rfront</text>
  <path d="M 786 168 L 855 168 L 924 168 L 921 114 Q 895.8 102.6 909 60 L 891 60 Q 855.0 156.61738292692797 819 60 L 801 60 Q 814.2 102.6 789 114 L 786 168 z" fill="rgb(255,217,194)" stroke="black"/>
  <text fill="rgb(9,33,173)" font-size="25" x="830.0" y="111.0">up_back</text>
  <path d="M 984 165 L 1053 165 L 1122 165 L 1119 114 Q 1093.8000000000002 102.6 1107 60 L 1089 60 L 1053 144 L 1017 60 L 999 60 Q 1012.2 102.6 987 114 L 984 165 z" fill="rgb(255,217,194)" stroke="black"/>
  <text fill="rgb(9,33,173)" font-size="25" x="1028.0" y="113.7">up_front</text>
  <path d="M 1182 279 L 1287 279 Q 1274.4 159.3 1287 153 Q 1242.3 141.75 1257 60 L 1188 60 Q 1176.1499999999999 92.55 1182 279 z" fill="rgb(255,217,194)" stroke="black"/>
  <text fill="rgb(9,33,173)" font-size="25" x="1215.2" y="169.2">Lback</text>
  <path d="M 1347 279 L 1452 279 Q 1457.8500000000001 92.55 1446 60 L 1377 60 Q 1387.05 140.25 1347 153 Q 1359.6 159.3 1347 279 z" fill="rgb(255,217,194)" stroke="black"/>
  <text fill="rgb(9,33,173)" font-size="25" x="1368.8" y="169.2">Lfront</text>
  <path d="M 1512 174 L 1638 111 Q 1662.0 100.5 1650 60 L 1512 60 L 1512 174 z" fill="rgb(255,217,194)" stroke="black"/>
  <text fill="rgb(9,33,173)" font-size="25" x="1553.0" y="104.25">lbsleeve</text>
  <path d="M 1710 174 L 1848 174 Q 1860.0 133.5 1836 123 L 1710 60 L 1710 174 z" fill="rgb(255,217,194)" stroke="black"/>
  <text fill="rgb(9,33,173)" font-size="25" x="1751.0" y="135.75">lfsleeve</text>
</svg>
