<?xml version="1.0" encoding="utf-8" ?>
<svg xmlns="http://www.w3.org/2000/svg" xmlns:ev="http://www.w3.org/2001/xml-events" xmlns:xlink="http://www.w3.org/1999/xlink" baseProfile="full" height="312px" version="1.1" width="580.0px">
  <defs/>
  <path d="M 63 252 L 120 252 L 120 102 L 105 60 L 69 60 Q 97.5 124.5 60 147 L 63 252 z" fill="rgb(255,217,194)" stroke="black"/>
  <text fill="rgb(9,33,173)" font-size="25" x="64.5" y="148.5">front_right</text>
  <path d="M 237.5 252.0 L 351.5 252.0 L 354.5 147.0 Q 317.0 124.5 345.5 60.0 L 309.5 60.0 Q 294.5 116.92237783722331 279.5 60.0 L 243.5 60.0 Q 272.0 124.5 234.5 147.0 L 237.5 252.0 z" fill="rgb(255,217,194)" stroke="black"/>
  <text fill="rgb(9,33,173)" font-size="25" x="269.5" y="132.75">back</text>
  <path d="M 414.5 252.0 L 471.5 252.0 L 474.5 147.0 Q 437.0 124.5 465.5 60.0 L 429.5 60.0 L 414.5 102.0 L 414.5 252.0 z" fill="rgb(255,217,194)" stroke="black"/>
  <text fill="rgb(9,33,173)" font-size="25" x="420.0" y="148.5">front_left</text>
</svg>
