<?xml version="1.0" encoding="utf-8" ?>
<svg xmlns="http://www.w3.org/2000/svg" xmlns:ev="http://www.w3.org/2001/xml-events" xmlns:xlink="http://www.w3.org/1999/xlink" baseProfile="full" height="402px" version="1.1" width="887.5px">
  <defs/>
  <path d="M 60 342 L 213 342 L 213 132 L 195 60 L 156 60 Q 172.8 108.89999999999999 144 123 L 60 342 z" fill="rgb(255,217,194)" stroke="black"/>
  <text fill="rgb(9,33,173)" font-size="25" x="138.5" y="179.5">front_right</text>
  <path d="M 308.5 342.0 L 614.5 342.0 L 530.5 123.0 Q 501.7 108.89999999999999 518.5 60.0 L 479.5 60.0 Q 461.5 184.0983142528867 443.5 60.0 L 404.5 60.0 Q 421.3 108.89999999999999 392.5 123.0 L 308.5 342.0 z" fill="rgb(255,217,194)" stroke="black"/>
  <text fill="rgb(9,33,173)" font-size="25" x="436.5" y="149.25">back</text>
  <path d="M 674.5 342.0 L 827.5 342.0 L 743.5 123.0 Q 714.6999999999999 108.89999999999999 731.5 60.0 L 692.5 60.0 L 674.5 132.0 L 674.5 342.0 z" fill="rgb(255,217,194)" stroke="black"/>
  <text fill="rgb(9,33,173)" font-size="25" x="699.0" y="179.5">front_left</text>
</svg>
