<?xml version="1.0" encoding="utf-8" ?>
<svg xmlns="http://www.w3.org/2000/svg" xmlns:ev="http://www.w3.org/2001/xml-events" xmlns:xlink="http://www.w3.org/1999/xlink" baseProfile="full" height="444.0px" version="1.1" width="1801.0px">
  <defs/>
  <path d="M 60 144 L 138 144 Q 161.1 79.2 123 60 L 60 84 L 60 144 z" fill="rgb(255,217,194)" stroke="black"/>
  <text fill="rgb(9,33,173)" font-size="25" x="70.25" y="111.0">rbsleeve</text>
  <path d="M 210.25 120.0 L 273.25 144.0 Q 311.35 124.8 288.25 60.0 L 210.25 60.0 L 210.25 120.0 z" fill="rgb(255,217,194)" stroke="black"/>
  <text fill="rgb(9,33,173)" font-size="25" x="220.5" y="99.0">rfsleeve</text>
  <path d="M 360.5 384.0 L 714.5 384.0 L 633.5 141.0 Q 596.6 122.7 618.5 60.0 L 585.5 60.0 L 537.5 69.0 L 489.5 60.0 L 456.5 60.0 Q 478.4 122.69999999999999 441.5 141.0 L 360.5 384.0 z" fill="rgb(255,217,194)" stroke="black"/>
  <text fill="rgb(9,33,173)" font-size="25" x="512.5" y="154.0">back</text>
  <path d="M 774.5 384.0 L 1128.5 384.0 L 1047.5 141.0 Q 1010.6 122.7 1032.5 60.0 L 999.5 60.0 L 951.5 90.0 L 903.5 60.0 L 870.5 60.0 Q 892.4 122.69999999999999 855.5 141.0 L 774.5 384.0 z" fill="rgb(255,217,194)" stroke="black"/>
  <text fill="rgb(9,33,173)" font-size="25" x="926.5" y="156.33333333333334">front</text>
  <path d="M 1203.5 192.0 L 1254.5 189.0 Q 1326.5 175.5 1284.5 84.0 L 1239.5 93.0 L 1188.5 60.0 L 1203.5 192.0 z" fill="rgb(255,217,194)" stroke="black"/>
  <text fill="rgb(9,33,173)" font-size="25" x="1209.1" y="126.6">Rhood</text>
  <path d="M 1344.5 192.0 L 1395.5 159.0 L 1440.5 168.0 Q 1482.5 76.5 1410.5 63.0 L 1359.5 60.0 L 1344.5 192.0 z" fill="rgb(255,217,194)" stroke="black"/>
  <text fill="rgb(9,33,173)" font-size="25" x="1365.1" y="131.4">Lhood</text>
  <path d="M 1500.5 120.0 L 1563.5 144.0 Q 1601.6 124.8 1578.5 60.0 L 1500.5 60.0 L 1500.5 120.0 z" fill="rgb(255,217,194)" stroke="black"/>
  <text fill="rgb(9,33,173)" font-size="25" x="1510.75" y="99.0">lbsleeve</text>
  <path d="M 1650.75 144.0 L 1728.75 144.0 Q 1751.85 79.2 1713.75 60.0 L 1650.75 84.0 L 1650.75 144.0 z" fill="rgb(255,217,194)" stroke="black"/>
  <text fill="rgb(9,33,173)" font-size="25" x="1661.0" y="111.0">lfsleeve</text>
</svg>
