<?xml version="1.0" encoding="utf-8" ?>
<svg xmlns="http://www.w3.org/2000/svg" xmlns:ev="http://www.w3.org/2001/xml-events" xmlns:xlink="http://www.w3.org/1999/xlink" baseProfile="full" height="249.0px" version="1.1" width="1484.0px">
  <defs/>
  <path d="M 60 174 L 141 174 Q 157.8 125.10000000000001 129 111 L 60 60 L 60 174 z" fill="rgb(255,217,194)" stroke="black"/>
  <text fill="rgb(9,33,173)" font-size="25" x="72.5" y="132.75">rbsleeve</text>
  <path d="M 212.5 174.0 L 281.5 123.0 Q 310.3 108.89999999999999 293.5 60.0 L 212.5 60.0 L 212.5 174.0 z" fill="rgb(255,217,194)" stroke="black"/>
  <text fill="rgb(9,33,173)" font-size="25" x="225.0" y="107.25">rfsleeve</text>
  <path d="M 377.0 150.0 L 437.0 150.0 L 437.0 78.0 L 404.0 60.0 L 377.0 60.0 Q 393.8 108.89999999999999 365.0 123.0 L 377.0 150.0 z" fill="rgb(255,217,194)" stroke="black"/>
  <text fill="rgb(9,33,173)" font-size="25" x="374.5" y="106.5">front_right</text>
  <path d="M 544.5 189.0 L 607.5 177.0 Q 674.0999999999999 148.2 613.5 69.0 L 580.5 78.0 L 544.5 60.0 L 544.5 189.0 z" fill="rgb(255,217,194)" stroke="black"/>
  <text fill="rgb(9,33,173)" font-size="25" x="553.1" y="117.6">Rhood</text>
  <path d="M 685.5 150.0 L 805.5 150.0 L 817.5 123.0 Q 788.6999999999999 108.89999999999999 805.5 60.0 L 778.5 60.0 L 745.5 69.0 L 712.5 60.0 L 685.5 60.0 Q 702.3000000000001 108.89999999999999 673.5 123.0 L 685.5 150.0 z" fill="rgb(255,217,194)" stroke="black"/>
  <text fill="rgb(9,33,173)" font-size="25" x="720.5" y="98.0">back</text>
  <path d="M 877.5 189.0 L 913.5 171.0 L 946.5 180.0 Q 1007.0999999999999 100.80000000000001 940.5 72.0 L 877.5 60.0 L 877.5 189.0 z" fill="rgb(255,217,194)" stroke="black"/>
  <text fill="rgb(9,33,173)" font-size="25" x="886.1" y="137.4">Lhood</text>
  <path d="M 1006.5 150.0 L 1066.5 150.0 L 1078.5 123.0 Q 1049.7 108.89999999999999 1066.5 60.0 L 1039.5 60.0 L 1006.5 78.0 L 1006.5 150.0 z" fill="rgb(255,217,194)" stroke="black"/>
  <text fill="rgb(9,33,173)" font-size="25" x="1019.0" y="106.5">front_left</text>
  <path d="M 1179.0 174.0 L 1248.0 123.0 Q 1276.8 108.89999999999999 1260.0 60.0 L 1179.0 60.0 L 1179.0 174.0 z" fill="rgb(255,217,194)" stroke="black"/>
  <text fill="rgb(9,33,173)" font-size="25" x="1191.5" y="107.25">lbsleeve</text>
  <path d="M 1331.5 174.0 L 1412.5 174.0 Q 1429.3 125.10000000000001 1400.5 111.0 L 1331.5 60.0 L 1331.5 174.0 z" fill="rgb(255,217,194)" stroke="black"/>
  <text fill="rgb(9,33,173)" font-size="25" x="1344.0" y="132.75">lfsleeve</text>
</svg>
