<?xml version="1.0" encoding="utf-8" ?>
<svg xmlns="http://www.w3.org/2000/svg" xmlns:ev="http://www.w3.org/2001/xml-events" xmlns:xlink="http://www.w3.org/1999/xlink" baseProfile="full" height="363.0px" version="1.1" width="1570.0px">
  <defs/>
  <path d="M 60 120 L 81 120 Q 91.8 81.60000000000001 69 72 L 60 60 L 60 120 z" fill="rgb(255,217,194)" stroke="black"/>
  <text fill="rgb(9,33,173)" font-size="25" x="42.5" y="96.0">rbsleeve</text>
  <path d="M 182.5 120.0 L 191.5 108.0 Q 214.3 98.39999999999999 203.5 60.0 L 182.5 60.0 L 182.5 120.0 z" fill="rgb(255,217,194)" stroke="black"/>
  <text fill="rgb(9,33,173)" font-size="25" x="165.0" y="90.0">rfsleeve</text>
  <path d="M 305.0 303.0 Q 422.0 292.8314663655604 539.0 303.0 L 506.0 102.0 L 479.0 60.0 L 365.0 60.0 L 338.0 102.0 L 305.0 303.0 z" fill="rgb(255,217,194)" stroke="black"/>
  <text fill="rgb(9,33,173)" font-size="25" x="397.0" y="158.0">skirt_back</text>
  <path d="M 599.0 303.0 Q 716.0 239.95142896152262 833.0 303.0 L 800.0 102.0 L 773.0 60.0 L 659.0 60.0 L 632.0 102.0 L 599.0 303.0 z" fill="rgb(255,217,194)" stroke="black"/>
  <text fill="rgb(9,33,173)" font-size="25" x="691.0" y="158.0">skirt_front</text>
  <path d="M 914.0 168.0 L 1028.0 168.0 L 1049.0 111.0 Q 1025.0 100.5 1037.0 60.0 L 986.0 60.0 Q 971.0 68.93038840110921 956.0 60.0 L 905.0 60.0 Q 917.0 100.49999999999999 893.0 111.0 L 914.0 168.0 z" fill="rgb(255,217,194)" stroke="black"/>
  <text fill="rgb(9,33,173)" font-size="25" x="946.0" y="102.75">top_back</text>
  <path d="M 1130.0 165.0 L 1244.0 165.0 L 1265.0 111.0 Q 1241.0 100.5 1253.0 60.0 L 1202.0 60.0 L 1187.0 138.0 L 1172.0 60.0 L 1121.0 60.0 Q 1133.0 100.49999999999999 1109.0 111.0 L 1130.0 165.0 z" fill="rgb(255,217,194)" stroke="black"/>
  <text fill="rgb(9,33,173)" font-size="25" x="1162.0" y="106.33333333333333">top_front</text>
  <path d="M 1325.0 120.0 L 1334.0 108.0 Q 1356.8 98.39999999999999 1346.0 60.0 L 1325.0 60.0 L 1325.0 120.0 z" fill="rgb(255,217,194)" stroke="black"/>
  <text fill="rgb(9,33,173)" font-size="25" x="1307.5" y="90.0">lbsleeve</text>
  <path d="M 1447.5 120.0 L 1468.5 120.0 Q 1479.3 81.60000000000001 1456.5 72.0 L 1447.5 60.0 L 1447.5 120.0 z" fill="rgb(255,217,194)" stroke="black"/>
  <text fill="rgb(9,33,173)" font-size="25" x="1430.0" y="96.0">lfsleeve</text>
</svg>
