<?xml version="1.0" encoding="utf-8" ?>
<svg xmlns="http://www.w3.org/2000/svg" xmlns:ev="http://www.w3.org/2001/xml-events" xmlns:xlink="http://www.w3.org/1999/xlink" baseProfile="full" height="315px" version="1.1" width="1594.0px">
  <defs/>
  <path d="M 60 255 L 390 255 L 390 60 L 60 60 L 60 255 z" fill="rgb(255,217,194)" stroke="black"/>
  <text fill="rgb(9,33,173)" font-size="25" x="200.0" y="160.5">skirt_back</text>
  <path d="M 450 72 L 540 72 L 540 60 L 450 60 L 450 72 z" fill="rgb(255,217,194)" stroke="black"/>
  <text fill="rgb(9,33,173)" font-size="25" x="470.0" y="69.0">wb_back</text>
  <path d="M 600 72 L 690 72 L 690 60 L 600 60 L 600 72 z" fill="rgb(255,217,194)" stroke="black"/>
  <text fill="rgb(9,33,173)" font-size="25" x="620.0" y="69.0">wb_front</text>
  <path d="M 760.0 255.0 L 1090.0 255.0 L 1090.0 60.0 L 760.0 60.0 L 760.0 255.0 z" fill="rgb(255,217,194)" stroke="black"/>
  <text fill="rgb(9,33,173)" font-size="25" x="900.0" y="160.5">skirt_front</text>
  <path d="M 1150.0 177.0 L 1312.0 177.0 L 1312.0 132.0 Q 1279.6000000000001 115.2 1300.0 60.0 L 1246.0 60.0 Q 1231.0 105.30774600427759 1216.0 60.0 L 1162.0 60.0 Q 1182.3999999999999 115.2 1150.0 132.0 L 1150.0 177.0 z" fill="rgb(255,217,194)" stroke="black"/>
  <text fill="rgb(9,33,173)" font-size="25" x="1206.0" y="110.25">top_back</text>
  <path d="M 1372.0 177.0 L 1534.0 177.0 L 1534.0 132.0 Q 1501.6000000000001 115.2 1522.0 60.0 L 1468.0 60.0 L 1453.0 69.0 L 1438.0 60.0 L 1384.0 60.0 Q 1404.3999999999999 115.2 1372.0 132.0 L 1372.0 177.0 z" fill="rgb(255,217,194)" stroke="black"/>
  <text fill="rgb(9,33,173)" font-size="25" x="1428.0" y="106.0">top_front</text>
</svg>
