<?xml version="1.0" encoding="utf-8" ?>
<svg xmlns="http://www.w3.org/2000/svg" xmlns:ev="http://www.w3.org/2001/xml-events" xmlns:xlink="http://www.w3.org/1999/xlink" baseProfile="full" height="285px" version="1.1" width="1217.0px">
  <defs/>
  <path d="M 60 225 L 87 225 Q 113.4 159.29999999999998 75 138 L 60 60 L 60 225 z" fill="rgb(255,217,194)" stroke="black"/>
  <text fill="rgb(9,33,173)" font-size="25" x="45.5" y="165.0">rbsleeve</text>
  <path d="M 185.5 225.0 L 200.5 147.0 Q 238.9 125.7 212.5 60.0 L 185.5 60.0 L 185.5 225.0 z" fill="rgb(255,217,194)" stroke="black"/>
  <text fill="rgb(9,33,173)" font-size="25" x="171.0" y="126.0">rfsleeve</text>
  <path d="M 311.0 168.0 L 416.0 168.0 L 416.0 81.0 L 401.0 60.0 L 353.0 60.0 Q 379.40000000000003 125.7 341.0 147.0 L 311.0 168.0 z" fill="rgb(255,217,194)" stroke="black"/>
  <text fill="rgb(9,33,173)" font-size="25" x="348.0" y="117.0">front_right</text>
  <path d="M 518.0 168.0 L 728.0 168.0 L 698.0 147.0 Q 659.6 125.7 686.0 60.0 L 638.0 60.0 Q 623.0 143.9490285661684 608.0 60.0 L 560.0 60.0 Q 586.4 125.7 548.0 147.0 L 518.0 168.0 z" fill="rgb(255,217,194)" stroke="black"/>
  <text fill="rgb(9,33,173)" font-size="25" x="598.0" y="111.75">back</text>
  <path d="M 788.0 168.0 L 893.0 168.0 L 863.0 147.0 Q 824.6 125.7 851.0 60.0 L 803.0 60.0 L 788.0 81.0 L 788.0 168.0 z" fill="rgb(255,217,194)" stroke="black"/>
  <text fill="rgb(9,33,173)" font-size="25" x="806.0" y="117.0">front_left</text>
  <path d="M 966.0 225.0 L 981.0 147.0 Q 1019.4 125.7 993.0 60.0 L 966.0 60.0 L 966.0 225.0 z" fill="rgb(255,217,194)" stroke="black"/>
  <text fill="rgb(9,33,173)" font-size="25" x="951.5" y="126.0">lbsleeve</text>
  <path d="M 1091.5 225.0 L 1118.5 225.0 Q 1144.8999999999999 159.29999999999998 1106.5 138.0 L 1091.5 60.0 L 1091.5 225.0 z" fill="rgb(255,217,194)" stroke="black"/>
  <text fill="rgb(9,33,173)" font-size="25" x="1077.0" y="165.0">lfsleeve</text>
</svg>
