<?xml version="1.0" encoding="utf-8" ?>
<svg xmlns="http://www.w3.org/2000/svg" xmlns:ev="http://www.w3.org/2001/xml-events" xmlns:xlink="http://www.w3.org/1999/xlink" baseProfile="full" height="333.0px" version="1.1" width="1309.0px">
  <defs/>
  <path d="M 60 162 L 99 162 Q 129.9 93.30000000000001 90 69 L 60 60 L 60 162 z" fill="rgb(255,217,194)" stroke="black"/>
  <text fill="rgb(9,33,173)" font-size="25" x="52.25" y="116.25">rbsleeve</text>
  <path d="M 192.25 162.0 L 222.25 153.0 Q 262.15 128.7 231.25 60.0 L 192.25 60.0 L 192.25 162.0 z" fill="rgb(255,217,194)" stroke="black"/>
  <text fill="rgb(9,33,173)" font-size="25" x="184.5" y="111.75">rfsleeve</text>
  <path d="M 324.5 273.0 L 498.5 273.0 L 471.5 150.0 Q 431.9 127.8 459.5 60.0 L 441.5 60.0 L 411.5 69.0 L 381.5 60.0 L 363.5 60.0 Q 391.1 127.8 351.5 150.0 L 324.5 273.0 z" fill="rgb(255,217,194)" stroke="black"/>
  <text fill="rgb(9,33,173)" font-size="25" x="386.5" y="131.33333333333334">back</text>
  <path d="M 558.5 273.0 L 732.5 273.0 L 705.5 150.0 Q 665.9 127.8 693.5 60.0 L 675.5 60.0 L 645.5 81.0 L 615.5 60.0 L 597.5 60.0 Q 625.1 127.8 585.5 150.0 L 558.5 273.0 z" fill="rgb(255,217,194)" stroke="black"/>
  <text fill="rgb(9,33,173)" font-size="25" x="620.5" y="132.66666666666666">front</text>
  <path d="M 792.5 192.0 L 831.5 189.0 Q 906.2 171.89999999999998 858.5 78.0 L 828.5 87.0 L 798.5 60.0 L 792.5 192.0 z" fill="rgb(255,217,194)" stroke="black"/>
  <text fill="rgb(9,33,173)" font-size="25" x="796.9" y="124.2">Rhood</text>
  <path d="M 924.5 192.0 L 954.5 165.0 L 984.5 174.0 Q 1032.2 80.10000000000001 957.5 63.0 L 918.5 60.0 L 924.5 192.0 z" fill="rgb(255,217,194)" stroke="black"/>
  <text fill="rgb(9,33,173)" font-size="25" x="922.9" y="133.8">Lhood</text>
  <path d="M 1044.5 162.0 L 1074.5 153.0 Q 1114.4 128.7 1083.5 60.0 L 1044.5 60.0 L 1044.5 162.0 z" fill="rgb(255,217,194)" stroke="black"/>
  <text fill="rgb(9,33,173)" font-size="25" x="1036.75" y="111.75">lbsleeve</text>
  <path d="M 1176.75 162.0 L 1215.75 162.0 Q 1246.65 93.30000000000001 1206.75 69.0 L 1176.75 60.0 L 1176.75 162.0 z" fill="rgb(255,217,194)" stroke="black"/>
  <text fill="rgb(9,33,173)" font-size="25" x="1169.0" y="116.25">lfsleeve</text>
</svg>
