<?xml version="1.0" encoding="utf-8" ?>
<svg xmlns="http://www.w3.org/2000/svg" xmlns:ev="http://www.w3.org/2001/xml-events" xmlns:xlink="http://www.w3.org/1999/xlink" baseProfile="full" height="348px" version="1.1" width="1558.0px">
  <defs/>
  <path d="M 60 288 L 192 288 L 186 60 L 90 60 Q 103.5 139.5 60 150 Q 73.8 156.9 60 288 z" fill="rgb(255,217,194)" stroke="black"/>
  <text fill="rgb(9,33,173)" font-size="25" x="92.6" y="172.2">Rback</text>
  <path d="M 252 288 L 384 288 Q 370.2 156.9 384 150 Q 345.0 138.0 354 60 L 258 60 L 252 288 z" fill="rgb(255,217,194)" stroke="black"/>
  <text fill="rgb(9,33,173)" font-size="25" x="301.4" y="172.2">Rfront</text>
  <path d="M 444 72 L 483 72 L 522 72 L 522 60 L 444 60 L 444 72 z" fill="rgb(255,217,194)" stroke="black"/>
  <text fill="rgb(9,33,173)" font-size="25" x="458.0" y="70.2">wb_back</text>
  <path d="M 588.0 72.0 L 627.0 72.0 L 666.0 72.0 L 666.0 60.0 L 588.0 60.0 L 588.0 72.0 z" fill="rgb(255,217,194)" stroke="black"/>
  <text fill="rgb(9,33,173)" font-size="25" x="602.0" y="70.2">wb_front</text>
  <path d="M 742.0 180.0 L 898.0 180.0 L 898.0 144.0 Q 860.8 123.6 886.0 60.0 L 859.0 60.0 Q 820.0 173.99889273061996 781.0 60.0 L 754.0 60.0 Q 779.2 123.6 742.0 144.0 L 742.0 180.0 z" fill="rgb(255,217,194)" stroke="black"/>
  <text fill="rgb(9,33,173)" font-size="25" x="795.0" y="114.0">top_back</text>
  <path d="M 958.0 180.0 L 1114.0 180.0 L 1114.0 144.0 Q 1076.8000000000002 123.6 1102.0 60.0 L 1075.0 60.0 L 1036.0 66.0 L 997.0 60.0 L 970.0 60.0 Q 995.2 123.6 958.0 144.0 L 958.0 180.0 z" fill="rgb(255,217,194)" stroke="black"/>
  <text fill="rgb(9,33,173)" font-size="25" x="1011.0" y="109.0">top_front</text>
  <path d="M 1174.0 288.0 L 1306.0 288.0 Q 1292.2 156.9 1306.0 150.0 Q 1262.5 139.5 1276.0 60.0 L 1180.0 60.0 L 1174.0 288.0 z" fill="rgb(255,217,194)" stroke="black"/>
  <text fill="rgb(9,33,173)" font-size="25" x="1223.4" y="172.2">Lback</text>
  <path d="M 1366.0 288.0 L 1498.0 288.0 L 1492.0 60.0 L 1396.0 60.0 Q 1405.0 138.0 1366.0 150.0 Q 1379.8 156.9 1366.0 288.0 z" fill="rgb(255,217,194)" stroke="black"/>
  <text fill="rgb(9,33,173)" font-size="25" x="1398.6" y="172.2">Lfront</text>
</svg>
