<?xml version="1.0" encoding="utf-8" ?>
<svg xmlns="http://www.w3.org/2000/svg" xmlns:ev="http://www.w3.org/2001/xml-events" xmlns:xlink="http://www.w3.org/1999/xlink" baseProfile="full" height="249.0px" version="1.1" width="1065.5px">
  <defs/>
  <path d="M 60 174 L 195 174 L 195 93 L 165 60 L 129 60 Q 166.2 144.60000000000002 117 174 L 60 174 z" fill="rgb(255,217,194)" stroke="black"/>
  <text fill="rgb(9,33,173)" font-size="25" x="118.5" y="125.5">front_right</text>
  <path d="M 288.5 189.0 L 351.5 186.0 Q 413.59999999999997 157.20000000000002 354.5 84.0 L 324.5 93.0 L 291.5 60.0 L 288.5 189.0 z" fill="rgb(255,217,194)" stroke="black"/>
  <text fill="rgb(9,33,173)" font-size="25" x="297.1" y="125.4">Rhood</text>
  <path d="M 414.5 177.0 L 684.5 177.0 L 627.5 174.0 Q 578.3 144.60000000000002 615.5 60.0 L 579.5 60.0 L 549.5 69.0 L 519.5 60.0 L 483.5 60.0 Q 520.7 144.60000000000002 471.5 174.0 L 414.5 177.0 z" fill="rgb(255,217,194)" stroke="black"/>
  <text fill="rgb(9,33,173)" font-size="25" x="524.5" y="115.33333333333333">back</text>
  <path d="M 747.5 189.0 L 780.5 156.0 L 810.5 165.0 Q 869.6 91.80000000000001 807.5 63.0 L 744.5 60.0 L 747.5 189.0 z" fill="rgb(255,217,194)" stroke="black"/>
  <text fill="rgb(9,33,173)" font-size="25" x="753.1" y="129.6">Lhood</text>
  <path d="M 870.5 174.0 L 1005.5 174.0 L 948.5 174.0 Q 899.3 144.60000000000002 936.5 60.0 L 900.5 60.0 L 870.5 93.0 L 870.5 174.0 z" fill="rgb(255,217,194)" stroke="black"/>
  <text fill="rgb(9,33,173)" font-size="25" x="897.0" y="125.5">front_left</text>
</svg>
