<?xml version="1.0" encoding="utf-8" ?>
<svg xmlns="http://www.w3.org/2000/svg" xmlns:ev="http://www.w3.org/2001/xml-events" xmlns:xlink="http://www.w3.org/1999/xlink" baseProfile="full" height="432.0px" version="1.1" width="1354.0px">
  <defs/>
  <path d="M 60 219 L 141 219 Q 153.0 178.5 129 168 L 60 60 L 60 219 z" fill="rgb(255,217,194)" stroke="black"/>
  <text fill="rgb(9,33,173)" font-size="25" x="72.5" y="169.5">rbsleeve</text>
  <path d="M 212.5 219.0 L 281.5 111.0 Q 305.5 100.5 293.5 60.0 L 212.5 60.0 L 212.5 219.0 z" fill="rgb(255,217,194)" stroke="black"/>
  <text fill="rgb(9,33,173)" font-size="25" x="225.0" y="115.5">rfsleeve</text>
  <path d="M 365.0 372.0 L 521.0 372.0 L 521.0 114.0 Q 495.79999999999995 102.6 509.0 60.0 L 473.0 60.0 L 443.0 69.0 L 413.0 60.0 L 377.0 60.0 Q 390.20000000000005 102.6 365.0 114.0 L 365.0 372.0 z" fill="rgb(255,217,194)" stroke="black"/>
  <text fill="rgb(9,33,173)" font-size="25" x="418.0" y="145.33333333333334">back</text>
  <path d="M 581.0 369.0 L 737.0 369.0 L 737.0 111.0 Q 713.0 100.5 725.0 60.0 L 689.0 60.0 L 659.0 75.0 L 629.0 60.0 L 593.0 60.0 Q 605.0 100.49999999999999 581.0 111.0 L 581.0 369.0 z" fill="rgb(255,217,194)" stroke="black"/>
  <text fill="rgb(9,33,173)" font-size="25" x="634.0" y="144.66666666666666">front</text>
  <path d="M 797.0 186.0 L 842.0 180.0 Q 913.0999999999999 160.2 863.0 72.0 L 833.0 81.0 L 800.0 60.0 L 797.0 186.0 z" fill="rgb(255,217,194)" stroke="black"/>
  <text fill="rgb(9,33,173)" font-size="25" x="802.0" y="118.8">Rhood</text>
  <path d="M 926.0 186.0 L 959.0 165.0 L 989.0 174.0 Q 1039.1 85.80000000000001 968.0 66.0 L 923.0 60.0 L 926.0 186.0 z" fill="rgb(255,217,194)" stroke="black"/>
  <text fill="rgb(9,33,173)" font-size="25" x="928.0" y="133.2">Lhood</text>
  <path d="M 1049.0 219.0 L 1118.0 111.0 Q 1142.0 100.5 1130.0 60.0 L 1049.0 60.0 L 1049.0 219.0 z" fill="rgb(255,217,194)" stroke="black"/>
  <text fill="rgb(9,33,173)" font-size="25" x="1061.5" y="115.5">lbsleeve</text>
  <path d="M 1201.5 219.0 L 1282.5 219.0 Q 1294.5 178.5 1270.5 168.0 L 1201.5 60.0 L 1201.5 219.0 z" fill="rgb(255,217,194)" stroke="black"/>
  <text fill="rgb(9,33,173)" font-size="25" x="1214.0" y="169.5">lfsleeve</text>
</svg>
