<?xml version="1.0" encoding="utf-8" ?>
<svg xmlns="http://www.w3.org/2000/svg" xmlns:ev="http://www.w3.org/2001/xml-events" xmlns:xlink="http://www.w3.org/1999/xlink" baseProfile="full" height="438.0px" version="1.1" width="1579.0px">
  <defs/>
  <path d="M 60 222 L 132 222 Q 153.3 170.1 123 153 L 60 60 L 60 222 z" fill="rgb(255,217,194)" stroke="black"/>
  <text fill="rgb(9,33,173)" font-size="25" x="68.75" y="167.25">rbsleeve</text>
  <path d="M 208.75 222.0 L 271.75 129.0 Q 302.05 111.89999999999999 280.75 60.0 L 208.75 60.0 L 208.75 222.0 z" fill="rgb(255,217,194)" stroke="black"/>
  <text fill="rgb(9,33,173)" font-size="25" x="217.5" y="120.75">rfsleeve</text>
  <path d="M 357.5 378.0 L 639.5 378.0 L 558.5 126.0 Q 529.4 109.8 549.5 60.0 L 522.5 60.0 L 498.5 69.0 L 474.5 60.0 L 447.5 60.0 Q 467.59999999999997 109.79999999999998 438.5 126.0 L 357.5 378.0 z" fill="rgb(255,217,194)" stroke="black"/>
  <text fill="rgb(9,33,173)" font-size="25" x="473.5" y="149.33333333333334">back</text>
  <path d="M 699.5 378.0 L 981.5 378.0 L 900.5 126.0 Q 871.4 109.8 891.5 60.0 L 864.5 60.0 L 840.5 60.0 L 816.5 60.0 L 789.5 60.0 Q 809.6 109.79999999999998 780.5 126.0 L 699.5 378.0 z" fill="rgb(255,217,194)" stroke="black"/>
  <text fill="rgb(9,33,173)" font-size="25" x="815.5" y="148.33333333333334">front</text>
  <path d="M 1041.5 180.0 L 1059.5 177.0 Q 1142.3 167.1 1101.5 60.0 L 1077.5 69.0 L 1053.5 63.0 L 1041.5 180.0 z" fill="rgb(255,217,194)" stroke="black"/>
  <text fill="rgb(9,33,173)" font-size="25" x="1041.7" y="112.8">Rhood</text>
  <path d="M 1173.5 177.0 L 1197.5 171.0 L 1221.5 180.0 Q 1262.3 72.9 1179.5 63.0 L 1161.5 60.0 L 1173.5 177.0 z" fill="rgb(255,217,194)" stroke="black"/>
  <text fill="rgb(9,33,173)" font-size="25" x="1161.7" y="133.2">Lhood</text>
  <path d="M 1281.5 222.0 L 1344.5 129.0 Q 1374.8 111.89999999999999 1353.5 60.0 L 1281.5 60.0 L 1281.5 222.0 z" fill="rgb(255,217,194)" stroke="black"/>
  <text fill="rgb(9,33,173)" font-size="25" x="1290.25" y="120.75">lbsleeve</text>
  <path d="M 1430.25 222.0 L 1502.25 222.0 Q 1523.55 170.1 1493.25 153.0 L 1430.25 60.0 L 1430.25 222.0 z" fill="rgb(255,217,194)" stroke="black"/>
  <text fill="rgb(9,33,173)" font-size="25" x="1439.0" y="167.25">lfsleeve</text>
</svg>
