<?xml version="1.0" encoding="utf-8" ?>
<svg xmlns="http://www.w3.org/2000/svg" xmlns:ev="http://www.w3.org/2001/xml-events" xmlns:xlink="http://www.w3.org/1999/xlink" baseProfile="full" height="282px" version="1.1" width="1572.0px">
  <defs/>
  <path d="M 60 222 L 159 222 L 210 60 L 90 60 Q 98.7 130.5 60 138 Q 68.4 142.2 60 222 z" fill="rgb(255,217,194)" stroke="black"/>
  <text fill="rgb(9,33,173)" font-size="25" x="90.8" y="143.4">Rback</text>
  <path d="M 321 222 L 420 222 Q 411.6 142.2 420 138 Q 385.2 129.0 390 60 L 270 60 L 321 222 z" fill="rgb(255,217,194)" stroke="black"/>
  <text fill="rgb(9,33,173)" font-size="25" x="339.2" y="143.4">Rfront</text>
  <path d="M 480 66 L 519 66 L 558 66 L 558 60 L 480 60 L 480 66 z" fill="rgb(255,217,194)" stroke="black"/>
  <text fill="rgb(9,33,173)" font-size="25" x="494.0" y="66.6">wb_back</text>
  <path d="M 624.0 66.0 L 663.0 66.0 L 702.0 66.0 L 702.0 60.0 L 624.0 60.0 L 624.0 66.0 z" fill="rgb(255,217,194)" stroke="black"/>
  <text fill="rgb(9,33,173)" font-size="25" x="638.0" y="66.6">wb_front</text>
  <path d="M 778.0 171.0 L 904.0 171.0 L 904.0 126.0 Q 874.9 109.8 895.0 60.0 L 862.0 60.0 Q 841.0 139.59171021310942 820.0 60.0 L 787.0 60.0 Q 807.1 109.79999999999998 778.0 126.0 L 778.0 171.0 z" fill="rgb(255,217,194)" stroke="black"/>
  <text fill="rgb(9,33,173)" font-size="25" x="816.0" y="107.25">top_back</text>
  <path d="M 964.0 171.0 L 1090.0 171.0 L 1090.0 126.0 Q 1060.8999999999999 109.8 1081.0 60.0 L 1048.0 60.0 L 1027.0 141.0 L 1006.0 60.0 L 973.0 60.0 Q 993.1 109.79999999999998 964.0 126.0 L 964.0 171.0 z" fill="rgb(255,217,194)" stroke="black"/>
  <text fill="rgb(9,33,173)" font-size="25" x="1002.0" y="111.33333333333333">top_front</text>
  <path d="M 1203.0 222.0 L 1302.0 222.0 Q 1293.6 142.2 1302.0 138.0 Q 1263.3 130.5 1272.0 60.0 L 1152.0 60.0 L 1203.0 222.0 z" fill="rgb(255,217,194)" stroke="black"/>
  <text fill="rgb(9,33,173)" font-size="25" x="1221.2" y="143.4">Lback</text>
  <path d="M 1362.0 222.0 L 1461.0 222.0 L 1512.0 60.0 L 1392.0 60.0 Q 1396.8 129.0 1362.0 138.0 Q 1370.4 142.2 1362.0 222.0 z" fill="rgb(255,217,194)" stroke="black"/>
  <text fill="rgb(9,33,173)" font-size="25" x="1392.8" y="143.4">Lfront</text>
</svg>
