<?xml version="1.0" encoding="utf-8" ?>
<svg xmlns="http://www.w3.org/2000/svg" xmlns:ev="http://www.w3.org/2001/xml-events" xmlns:xlink="http://www.w3.org/1999/xlink" baseProfile="full" height="399.0px" version="1.1" width="1616.0px">
  <defs/>
  <path d="M 60 165 L 153 165 Q 183.0 93.00000000000001 141 69 L 60 60 L 60 165 z" fill="rgb(255,217,194)" stroke="black"/>
  <text fill="rgb(9,33,173)" font-size="25" x="78.5" y="117.75">rbsleeve</text>
  <path d="M 218.5 165.0 L 299.5 156.0 Q 341.5 132.0 311.5 60.0 L 218.5 60.0 L 218.5 165.0 z" fill="rgb(255,217,194)" stroke="black"/>
  <text fill="rgb(9,33,173)" font-size="25" x="237.0" y="113.25">rfsleeve</text>
  <path d="M 377.0 339.0 L 491.0 339.0 L 491.0 102.0 L 470.0 60.0 L 425.0 60.0 Q 453.8 129.9 413.0 153.0 L 377.0 339.0 z" fill="rgb(255,217,194)" stroke="black"/>
  <text fill="rgb(9,33,173)" font-size="25" x="419.5" y="178.5">front_right</text>
  <path d="M 589.5 189.0 L 634.5 189.0 Q 696.6 169.2 649.5 93.0 L 625.5 102.0 L 601.5 60.0 L 589.5 189.0 z" fill="rgb(255,217,194)" stroke="black"/>
  <text fill="rgb(9,33,173)" font-size="25" x="595.1" y="129.6">Rhood</text>
  <path d="M 709.5 339.0 L 937.5 339.0 L 901.5 153.0 Q 860.6999999999999 129.9 889.5 60.0 L 844.5 60.0 L 823.5 69.0 L 802.5 60.0 L 757.5 60.0 Q 786.3000000000001 129.9 745.5 153.0 L 709.5 339.0 z" fill="rgb(255,217,194)" stroke="black"/>
  <text fill="rgb(9,33,173)" font-size="25" x="798.5" y="146.66666666666666">back</text>
  <path d="M 1009.5 189.0 L 1033.5 147.0 L 1057.5 156.0 Q 1104.6 79.80000000000001 1042.5 60.0 L 997.5 60.0 L 1009.5 189.0 z" fill="rgb(255,217,194)" stroke="black"/>
  <text fill="rgb(9,33,173)" font-size="25" x="1003.0999999999999" y="125.4">Lhood</text>
  <path d="M 1117.5 339.0 L 1231.5 339.0 L 1195.5 153.0 Q 1154.7 129.9 1183.5 60.0 L 1138.5 60.0 L 1117.5 102.0 L 1117.5 339.0 z" fill="rgb(255,217,194)" stroke="black"/>
  <text fill="rgb(9,33,173)" font-size="25" x="1139.0" y="178.5">front_left</text>
  <path d="M 1299.0 165.0 L 1380.0 156.0 Q 1422.0 132.0 1392.0 60.0 L 1299.0 60.0 L 1299.0 165.0 z" fill="rgb(255,217,194)" stroke="black"/>
  <text fill="rgb(9,33,173)" font-size="25" x="1317.5" y="113.25">lbsleeve</text>
  <path d="M 1457.5 165.0 L 1550.5 165.0 Q 1580.5 93.00000000000001 1538.5 69.0 L 1457.5 60.0 L 1457.5 165.0 z" fill="rgb(255,217,194)" stroke="black"/>
  <text fill="rgb(9,33,173)" font-size="25" x="1476.0" y="117.75">lfsleeve</text>
</svg>
