<?xml version="1.0" encoding="utf-8" ?>
<svg xmlns="http://www.w3.org/2000/svg" xmlns:ev="http://www.w3.org/2001/xml-events" xmlns:xlink="http://www.w3.org/1999/xlink" baseProfile="full" height="369.0px" version="1.1" width="1466.0px">
  <defs/>
  <path d="M 60 174 L 123 174 Q 146.7 117.9 114 99 L 60 60 L 60 174 z" fill="rgb(255,217,194)" stroke="black"/>
  <text fill="rgb(9,33,173)" font-size="25" x="64.25" y="129.75">rbsleeve</text>
  <path d="M 204.25 174.0 L 258.25 135.0 Q 290.95 116.1 267.25 60.0 L 204.25 60.0 L 204.25 174.0 z" fill="rgb(255,217,194)" stroke="black"/>
  <text fill="rgb(9,33,173)" font-size="25" x="208.5" y="110.25">rfsleeve</text>
  <path d="M 348.5 306.0 L 429.5 306.0 L 429.5 75.0 L 402.5 60.0 L 381.5 60.0 Q 404.0 114.0 372.5 132.0 L 348.5 306.0 z" fill="rgb(255,217,194)" stroke="black"/>
  <text fill="rgb(9,33,173)" font-size="25" x="369.0" y="159.5">front_right</text>
  <path d="M 539.0 171.0 L 572.0 168.0 Q 642.2 155.4 602.0 66.0 L 575.0 75.0 L 545.0 60.0 L 539.0 171.0 z" fill="rgb(255,217,194)" stroke="black"/>
  <text fill="rgb(9,33,173)" font-size="25" x="541.6" y="111.0">Rhood</text>
  <path d="M 662.0 309.0 L 824.0 309.0 L 800.0 132.0 Q 768.5 114.0 791.0 60.0 L 770.0 60.0 L 743.0 69.0 L 716.0 60.0 L 695.0 60.0 Q 717.5 114.0 686.0 132.0 L 662.0 309.0 z" fill="rgb(255,217,194)" stroke="black"/>
  <text fill="rgb(9,33,173)" font-size="25" x="718.0" y="135.33333333333334">back</text>
  <path d="M 890.0 171.0 L 920.0 156.0 L 947.0 165.0 Q 987.2 75.60000000000001 917.0 63.0 L 884.0 60.0 L 890.0 171.0 z" fill="rgb(255,217,194)" stroke="black"/>
  <text fill="rgb(9,33,173)" font-size="25" x="886.6" y="126.0">Lhood</text>
  <path d="M 1007.0 306.0 L 1088.0 306.0 L 1064.0 132.0 Q 1032.5 114.0 1055.0 60.0 L 1034.0 60.0 L 1007.0 75.0 L 1007.0 306.0 z" fill="rgb(255,217,194)" stroke="black"/>
  <text fill="rgb(9,33,173)" font-size="25" x="1017.5" y="159.5">front_left</text>
  <path d="M 1177.5 174.0 L 1231.5 135.0 Q 1264.2 116.1 1240.5 60.0 L 1177.5 60.0 L 1177.5 174.0 z" fill="rgb(255,217,194)" stroke="black"/>
  <text fill="rgb(9,33,173)" font-size="25" x="1181.75" y="110.25">lbsleeve</text>
  <path d="M 1321.75 174.0 L 1384.75 174.0 Q 1408.45 117.9 1375.75 99.0 L 1321.75 60.0 L 1321.75 174.0 z" fill="rgb(255,217,194)" stroke="black"/>
  <text fill="rgb(9,33,173)" font-size="25" x="1326.0" y="129.75">lfsleeve</text>
</svg>
