<?xml version="1.0" encoding="utf-8" ?>
<svg xmlns="http://www.w3.org/2000/svg" xmlns:ev="http://www.w3.org/2001/xml-events" xmlns:xlink="http://www.w3.org/1999/xlink" baseProfile="full" height="270px" version="1.1" width="1177.0px">
  <defs/>
  <path d="M 60 210 L 225 210 L 225 63 L 198 60 L 147 60 Q 183.0 142.5 135 171 L 60 210 z" fill="rgb(255,217,194)" stroke="black"/>
  <text fill="rgb(9,33,173)" font-size="25" x="140.0" y="132.0">front_right</text>
  <path d="M 310.0 156.0 L 352.0 156.0 Q 416.79999999999995 141.6 376.0 60.0 L 346.0 69.0 L 316.0 66.0 L 310.0 156.0 z" fill="rgb(255,217,194)" stroke="black"/>
  <text fill="rgb(9,33,173)" font-size="25" x="315.0" y="104.4">Rhood</text>
  <path d="M 436.0 210.0 L 766.0 210.0 L 691.0 171.0 Q 643.0 142.5 679.0 60.0 L 628.0 60.0 L 601.0 69.0 L 574.0 60.0 L 523.0 60.0 Q 559.0 142.5 511.0 171.0 L 436.0 210.0 z" fill="rgb(255,217,194)" stroke="black"/>
  <text fill="rgb(9,33,173)" font-size="25" x="576.0" y="122.0">back</text>
  <path d="M 832.0 150.0 L 862.0 147.0 L 892.0 156.0 Q 932.8000000000001 74.4 868.0 60.0 L 826.0 60.0 L 832.0 150.0 z" fill="rgb(255,217,194)" stroke="black"/>
  <text fill="rgb(9,33,173)" font-size="25" x="831.0" y="117.6">Lhood</text>
  <path d="M 952.0 210.0 L 1117.0 210.0 L 1042.0 171.0 Q 994.0000000000001 142.5 1030.0 60.0 L 979.0 60.0 L 952.0 63.0 L 952.0 210.0 z" fill="rgb(255,217,194)" stroke="black"/>
  <text fill="rgb(9,33,173)" font-size="25" x="987.0" y="132.0">front_left</text>
</svg>
