<?xml version="1.0" encoding="utf-8" ?>
<svg xmlns="http://www.w3.org/2000/svg" xmlns:ev="http://www.w3.org/2001/xml-events" xmlns:xlink="http://www.w3.org/1999/xlink" baseProfile="full" height="291.0px" version="1.1" width="1804.0px">
  <defs/>
  <path d="M 60 189 L 90 189 Q 108.0 138.0 78 123 L 60 60 L 60 189 z" fill="rgb(255,217,194)" stroke="black"/>
  <text fill="rgb(9,33,173)" font-size="25" x="47.0" y="143.25">rbsleeve</text>
  <path d="M 187.0 189.0 L 205.0 126.0 Q 235.0 111.0 217.0 60.0 L 187.0 60.0 L 187.0 189.0 z" fill="rgb(255,217,194)" stroke="black"/>
  <text fill="rgb(9,33,173)" font-size="25" x="174.0" y="111.75">rfsleeve</text>
  <path d="M 314.0 231.0 Q 482.0 70.70550628855139 650.0 231.0 L 557.0 102.0 L 533.0 60.0 L 431.0 60.0 L 407.0 102.0 L 314.0 231.0 z" fill="rgb(255,217,194)" stroke="black"/>
  <text fill="rgb(9,33,173)" font-size="25" x="457.0" y="134.0">skirt_back</text>
  <path d="M 710.0 231.0 Q 878.0 129.2347999267608 1046.0 231.0 L 953.0 102.0 L 929.0 60.0 L 827.0 60.0 L 803.0 102.0 L 710.0 231.0 z" fill="rgb(255,217,194)" stroke="black"/>
  <text fill="rgb(9,33,173)" font-size="25" x="853.0" y="134.0">skirt_front</text>
  <path d="M 1136.0 168.0 L 1238.0 168.0 L 1268.0 126.0 Q 1238.0 111.0 1256.0 60.0 L 1217.0 60.0 Q 1187.0 84.84718478704706 1157.0 60.0 L 1118.0 60.0 Q 1136.0 110.99999999999999 1106.0 126.0 L 1136.0 168.0 z" fill="rgb(255,217,194)" stroke="black"/>
  <text fill="rgb(9,33,173)" font-size="25" x="1162.0" y="106.5">top_back</text>
  <path d="M 1358.0 165.0 L 1460.0 165.0 L 1490.0 126.0 Q 1460.0 111.0 1478.0 60.0 L 1439.0 60.0 L 1409.0 105.0 L 1379.0 60.0 L 1340.0 60.0 Q 1358.0 110.99999999999999 1328.0 126.0 L 1358.0 165.0 z" fill="rgb(255,217,194)" stroke="black"/>
  <text fill="rgb(9,33,173)" font-size="25" x="1384.0" y="106.0">top_front</text>
  <path d="M 1550.0 189.0 L 1568.0 126.0 Q 1598.0 111.0 1580.0 60.0 L 1550.0 60.0 L 1550.0 189.0 z" fill="rgb(255,217,194)" stroke="black"/>
  <text fill="rgb(9,33,173)" font-size="25" x="1537.0" y="111.75">lbsleeve</text>
  <path d="M 1677.0 189.0 L 1707.0 189.0 Q 1725.0 138.0 1695.0 123.0 L 1677.0 60.0 L 1677.0 189.0 z" fill="rgb(255,217,194)" stroke="black"/>
  <text fill="rgb(9,33,173)" font-size="25" x="1664.0" y="143.25">lfsleeve</text>
</svg>
