<?xml version="1.0" encoding="utf-8" ?>
<svg xmlns="http://www.w3.org/2000/svg" xmlns:ev="http://www.w3.org/2001/xml-events" xmlns:xlink="http://www.w3.org/1999/xlink" baseProfile="full" height="252px" version="1.1" width="1596.0px">
  <defs/>
  <path d="M 60 192 L 216 192 L 204 60 L 90 60 Q 97.5 128.25 60 135 Q 65.7 137.85 60 192 z" fill="rgb(255,217,194)" stroke="black"/>
  <text fill="rgb(9,33,173)" font-size="25" x="101.0" y="130.8">Rback</text>
  <path d="M 276 192 L 432 192 Q 426.3 137.85 432 135 Q 398.25 126.75 402 60 L 288 60 L 276 192 z" fill="rgb(255,217,194)" stroke="black"/>
  <text fill="rgb(9,33,173)" font-size="25" x="341.0" y="130.8">Rfront</text>
  <path d="M 492 78 L 531 78 L 570 78 L 570 60 L 492 60 L 492 78 z" fill="rgb(255,217,194)" stroke="black"/>
  <text fill="rgb(9,33,173)" font-size="25" x="506.0" y="73.8">wb_back</text>
  <path d="M 636.0 78.0 L 675.0 78.0 L 714.0 78.0 L 714.0 60.0 L 636.0 60.0 L 636.0 78.0 z" fill="rgb(255,217,194)" stroke="black"/>
  <text fill="rgb(9,33,173)" font-size="25" x="650.0" y="73.8">wb_front</text>
  <path d="M 790.0 150.0 L 916.0 150.0 L 916.0 105.0 Q 894.4 96.3 904.0 60.0 L 868.0 60.0 Q 853.0 108.30875820661717 838.0 60.0 L 802.0 60.0 Q 811.6 96.3 790.0 105.0 L 790.0 150.0 z" fill="rgb(255,217,194)" stroke="black"/>
  <text fill="rgb(9,33,173)" font-size="25" x="828.0" y="96.75">top_back</text>
  <path d="M 976.0 150.0 L 1102.0 150.0 L 1102.0 102.0 Q 1081.6000000000001 94.2 1090.0 60.0 L 1054.0 60.0 L 1039.0 75.0 L 1024.0 60.0 L 988.0 60.0 Q 996.4 94.2 976.0 102.0 L 976.0 150.0 z" fill="rgb(255,217,194)" stroke="black"/>
  <text fill="rgb(9,33,173)" font-size="25" x="1014.0" y="94.0">top_front</text>
  <path d="M 1164.0 192.0 L 1320.0 192.0 Q 1314.3 137.85 1320.0 135.0 Q 1282.5 128.25 1290.0 60.0 L 1176.0 60.0 L 1164.0 192.0 z" fill="rgb(255,217,194)" stroke="black"/>
  <text fill="rgb(9,33,173)" font-size="25" x="1229.0" y="130.8">Lback</text>
  <path d="M 1380.0 192.0 L 1536.0 192.0 L 1524.0 60.0 L 1410.0 60.0 Q 1413.75 126.75 1380.0 135.0 Q 1385.7 137.85 1380.0 192.0 z" fill="rgb(255,217,194)" stroke="black"/>
  <text fill="rgb(9,33,173)" font-size="25" x="1421.0" y="130.8">Lfront</text>
</svg>
