<?xml version="1.0" encoding="utf-8" ?>
<svg xmlns="http://www.w3.org/2000/svg" xmlns:ev="http://www.w3.org/2001/xml-events" xmlns:xlink="http://www.w3.org/1999/xlink" baseProfile="full" height="408.0px" version="1.1" width="1672.0px">
  <defs/>
  <path d="M 60 195 L 84 195 Q 98.39999999999999 150.29999999999998 72 138 L 60 60 L 60 195 z" fill="rgb(255,217,194)" stroke="black"/>
  <text fill="rgb(9,33,173)" font-size="25" x="44.0" y="150.0">rbsleeve</text>
  <path d="M 184.0 195.0 L 196.0 117.0 Q 222.4 104.7 208.0 60.0 L 184.0 60.0 L 184.0 195.0 z" fill="rgb(255,217,194)" stroke="black"/>
  <text fill="rgb(9,33,173)" font-size="25" x="168.0" y="111.0">rfsleeve</text>
  <path d="M 308.0 348.0 L 365.0 348.0 Q 422.75 105.75000000000001 416.0 60.0 L 338.0 60.0 Q 352.7 141.75 308.0 153.0 Q 327.5 162.75 308.0 348.0 z" fill="rgb(255,217,194)" stroke="black"/>
  <text fill="rgb(9,33,173)" font-size="25" x="322.0" y="196.8">Rback</text>
  <path d="M 527.0 348.0 L 584.0 348.0 Q 564.5 162.75 584.0 153.0 Q 543.95 140.25 554.0 60.0 L 476.0 60.0 Q 469.25 105.74999999999999 527.0 348.0 z" fill="rgb(255,217,194)" stroke="black"/>
  <text fill="rgb(9,33,173)" font-size="25" x="520.0" y="196.8">Rfront</text>
  <path d="M 644.0 168.0 L 725.0 168.0 L 806.0 168.0 L 797.0 117.0 Q 770.6 104.7 785.0 60.0 L 746.0 60.0 Q 725.0 82.1069122925204 704.0 60.0 L 665.0 60.0 Q 679.4 104.7 653.0 117.0 L 644.0 168.0 z" fill="rgb(255,217,194)" stroke="black"/>
  <text fill="rgb(9,33,173)" font-size="25" x="700.0" y="111.66666666666667">up_back</text>
  <path d="M 866.0 165.0 L 947.0 165.0 L 1028.0 165.0 L 1019.0 114.0 Q 993.8 102.6 1007.0 60.0 L 968.0 60.0 L 947.0 132.0 L 926.0 60.0 L 887.0 60.0 Q 900.2 102.6 875.0 114.0 L 866.0 165.0 z" fill="rgb(255,217,194)" stroke="black"/>
  <text fill="rgb(9,33,173)" font-size="25" x="922.0" y="112.5">up_front</text>
  <path d="M 1139.0 348.0 L 1196.0 348.0 Q 1176.5 162.75 1196.0 153.0 Q 1151.3 141.75 1166.0 60.0 L 1088.0 60.0 Q 1081.25 105.74999999999999 1139.0 348.0 z" fill="rgb(255,217,194)" stroke="black"/>
  <text fill="rgb(9,33,173)" font-size="25" x="1132.0" y="196.8">Lback</text>
  <path d="M 1256.0 348.0 L 1313.0 348.0 Q 1370.75 105.75000000000001 1364.0 60.0 L 1286.0 60.0 Q 1296.05 140.25 1256.0 153.0 Q 1275.5 162.75 1256.0 348.0 z" fill="rgb(255,217,194)" stroke="black"/>
  <text fill="rgb(9,33,173)" font-size="25" x="1270.0" y="196.8">Lfront</text>
  <path d="M 1424.0 195.0 L 1436.0 117.0 Q 1462.3999999999999 104.7 1448.0 60.0 L 1424.0 60.0 L 1424.0 195.0 z" fill="rgb(255,217,194)" stroke="black"/>
  <text fill="rgb(9,33,173)" font-size="25" x="1408.0" y="111.0">lbsleeve</text>
  <path d="M 1548.0 195.0 L 1572.0 195.0 Q 1586.3999999999999 150.29999999999998 1560.0 138.0 L 1548.0 60.0 L 1548.0 195.0 z" fill="rgb(255,217,194)" stroke="black"/>
  <text fill="rgb(9,33,173)" font-size="25" x="1532.0" y="150.0">lfsleeve</text>
</svg>
