<?xml version="1.0" encoding="utf-8" ?>
<svg xmlns="http://www.w3.org/2000/svg" xmlns:ev="http://www.w3.org/2001/xml-events" xmlns:xlink="http://www.w3.org/1999/xlink" baseProfile="full" height="378px" version="1.1" width="1164px">
  <defs/>
  <path d="M 60 318 L 135 315 Q 175.8 99.9 168 60 L 90 60 Q 104.7 141.75 60 153 Q 76.5 161.25 60 318 z" fill="rgb(255,217,194)" stroke="black"/>
  <text fill="rgb(9,33,173)" font-size="25" x="77.6" y="184.2">Rback</text>
  <path d="M 261 315 L 336 318 Q 319.5 161.25 336 153 Q 295.95 140.25 306 60 L 228 60 Q 220.2 99.9 261 315 z" fill="rgb(255,217,194)" stroke="black"/>
  <text fill="rgb(9,33,173)" font-size="25" x="268.4" y="184.2">Rfront</text>
  <path d="M 396 168 L 474 168 L 552 168 L 537 105 Q 515.4 96.3 525 60 L 504 60 Q 474.0 131.89073061972246 444 60 L 423 60 Q 432.6 96.3 411 105 L 396 168 z" fill="rgb(255,217,194)" stroke="black"/>
  <text fill="rgb(9,33,173)" font-size="25" x="449.0" y="109.0">up_back</text>
  <path d="M 612 165 L 690 165 L 768 165 L 753 105 Q 731.4 96.3 741 60 L 720 60 L 690 75 L 660 60 L 639 60 Q 648.6 96.3 627 105 L 612 165 z" fill="rgb(255,217,194)" stroke="black"/>
  <text fill="rgb(9,33,173)" font-size="25" x="665.0" y="105.0">up_front</text>
  <path d="M 861 315 L 936 318 Q 919.5 161.25 936 153 Q 891.3 141.75 906 60 L 828 60 Q 820.2 99.9 861 315 z" fill="rgb(255,217,194)" stroke="black"/>
  <text fill="rgb(9,33,173)" font-size="25" x="868.4" y="184.2">Lback</text>
  <path d="M 996 318 L 1071 315 Q 1111.8 99.9 1104 60 L 1026 60 Q 1036.05 140.25 996 153 Q 1012.5 161.25 996 318 z" fill="rgb(255,217,194)" stroke="black"/>
  <text fill="rgb(9,33,173)" font-size="25" x="1013.5999999999999" y="184.2">Lfront</text>
</svg>
