<?xml version="1.0" encoding="utf-8" ?>
<svg xmlns="http://www.w3.org/2000/svg" xmlns:ev="http://www.w3.org/2001/xml-events" xmlns:xlink="http://www.w3.org/1999/xlink" baseProfile="full" height="528px" version="1.1" width="616.0px">
  <defs/>
  <path d="M 60 468 L 132 468 L 132 120 L 105 60 L 75 60 Q 85.8 98.39999999999999 63 108 L 60 468 z" fill="rgb(255,217,194)" stroke="black"/>
  <text fill="rgb(9,33,173)" font-size="25" x="69.5" y="217.0">front_right</text>
  <path d="M 239.5 468.0 L 383.5 468.0 L 380.5 108.0 Q 357.7 98.39999999999999 368.5 60.0 L 338.5 60.0 Q 311.5 73.79306269328659 284.5 60.0 L 254.5 60.0 Q 265.3 98.39999999999999 242.5 108.0 L 239.5 468.0 z" fill="rgb(255,217,194)" stroke="black"/>
  <text fill="rgb(9,33,173)" font-size="25" x="286.5" y="177.0">back</text>
  <path d="M 443.5 468.0 L 515.5 468.0 L 512.5 108.0 Q 489.7 98.39999999999999 500.5 60.0 L 470.5 60.0 L 443.5 120.0 L 443.5 468.0 z" fill="rgb(255,217,194)" stroke="black"/>
  <text fill="rgb(9,33,173)" font-size="25" x="456.0" y="217.0">front_left</text>
</svg>
