<?xml version="1.0" encoding="utf-8" ?>
<svg xmlns="http://www.w3.org/2000/svg" xmlns:ev="http://www.w3.org/2001/xml-events" xmlns:xlink="http://www.w3.org/1999/xlink" baseProfile="full" height="384px" version="1.1" width="1462.0px">
  <defs/>
  <path d="M 60 324 L 330 324 L 330 60 L 60 60 L 60 324 z" fill="rgb(255,217,194)" stroke="black"/>
  <text fill="rgb(9,33,173)" font-size="25" x="170.0" y="195.0">skirt_back</text>
  <path d="M 390 75 L 480 75 L 480 60 L 390 60 L 390 75 z" fill="rgb(255,217,194)" stroke="black"/>
  <text fill="rgb(9,33,173)" font-size="25" x="410.0" y="70.5">wb_back</text>
  <path d="M 540 75 L 630 75 L 630 60 L 540 60 L 540 75 z" fill="rgb(255,217,194)" stroke="black"/>
  <text fill="rgb(9,33,173)" font-size="25" x="560.0" y="70.5">wb_front</text>
  <path d="M 700.0 324.0 L 970.0 324.0 L 970.0 60.0 L 700.0 60.0 L 700.0 324.0 z" fill="rgb(255,217,194)" stroke="black"/>
  <text fill="rgb(9,33,173)" font-size="25" x="810.0" y="195.0">skirt_front</text>
  <path d="M 1030.0 165.0 L 1186.0 165.0 L 1186.0 111.0 Q 1162.0 100.5 1174.0 60.0 L 1129.0 60.0 Q 1108.0 117.89158735745158 1087.0 60.0 L 1042.0 60.0 Q 1054.0 100.49999999999999 1030.0 111.0 L 1030.0 165.0 z" fill="rgb(255,217,194)" stroke="black"/>
  <text fill="rgb(9,33,173)" font-size="25" x="1083.0" y="102.0">top_back</text>
  <path d="M 1246.0 165.0 L 1402.0 165.0 L 1402.0 111.0 Q 1378.0 100.5 1390.0 60.0 L 1345.0 60.0 L 1324.0 102.0 L 1303.0 60.0 L 1258.0 60.0 Q 1270.0 100.49999999999999 1246.0 111.0 L 1246.0 165.0 z" fill="rgb(255,217,194)" stroke="black"/>
  <text fill="rgb(9,33,173)" font-size="25" x="1299.0" y="102.33333333333333">top_front</text>
</svg>
