<?xml version="1.0" encoding="utf-8" ?>
<svg xmlns="http://www.w3.org/2000/svg" xmlns:ev="http://www.w3.org/2001/xml-events" xmlns:xlink="http://www.w3.org/1999/xlink" baseProfile="full" height="270.0px" version="1.1" width="1642.0px">
  <defs/>
  <path d="M 60 156 L 135 156 Q 160.2 92.4 123 72 L 60 60 L 60 156 z" fill="rgb(255,217,194)" stroke="black"/>
  <text fill="rgb(9,33,173)" font-size="25" x="69.5" y="114.0">rbsleeve</text>
  <path d="M 209.5 156.0 L 272.5 144.0 Q 309.70000000000005 123.6 284.5 60.0 L 209.5 60.0 L 209.5 156.0 z" fill="rgb(255,217,194)" stroke="black"/>
  <text fill="rgb(9,33,173)" font-size="25" x="219.0" y="108.0">rfsleeve</text>
  <path d="M 359.0 210.0 L 443.0 210.0 Q 458.15 82.95 452.0 60.0 L 389.0 60.0 Q 403.7 141.75 359.0 153.0 Q 364.7 155.85 359.0 210.0 z" fill="rgb(255,217,194)" stroke="black"/>
  <text fill="rgb(9,33,173)" font-size="25" x="375.4" y="141.6">Rback</text>
  <path d="M 521.0 210.0 L 605.0 210.0 Q 599.3 155.85 605.0 153.0 Q 564.95 140.25 575.0 60.0 L 512.0 60.0 Q 505.85 82.95 521.0 210.0 z" fill="rgb(255,217,194)" stroke="black"/>
  <text fill="rgb(9,33,173)" font-size="25" x="538.6" y="141.6">Rfront</text>
  <path d="M 665.0 168.0 L 728.0 168.0 L 791.0 168.0 L 791.0 144.0 Q 754.6999999999999 122.39999999999999 782.0 60.0 L 740.0 60.0 Q 728.0 77.44985672842441 716.0 60.0 L 674.0 60.0 Q 701.3000000000001 122.39999999999999 665.0 144.0 L 665.0 168.0 z" fill="rgb(255,217,194)" stroke="black"/>
  <text fill="rgb(9,33,173)" font-size="25" x="703.0" y="117.66666666666667">up_back</text>
  <path d="M 851.0 165.0 L 914.0 165.0 L 977.0 165.0 L 977.0 144.0 Q 940.6999999999999 122.39999999999999 968.0 60.0 L 926.0 60.0 L 914.0 126.0 L 902.0 60.0 L 860.0 60.0 Q 887.3000000000001 122.39999999999999 851.0 144.0 L 851.0 165.0 z" fill="rgb(255,217,194)" stroke="black"/>
  <text fill="rgb(9,33,173)" font-size="25" x="889.0" y="117.9">up_front</text>
  <path d="M 1046.0 210.0 L 1130.0 210.0 Q 1124.3 155.85 1130.0 153.0 Q 1085.3 141.75 1100.0 60.0 L 1037.0 60.0 Q 1030.85 82.95 1046.0 210.0 z" fill="rgb(255,217,194)" stroke="black"/>
  <text fill="rgb(9,33,173)" font-size="25" x="1063.6" y="141.6">Lback</text>
  <path d="M 1190.0 210.0 L 1274.0 210.0 Q 1289.15 82.95 1283.0 60.0 L 1220.0 60.0 Q 1230.05 140.25 1190.0 153.0 Q 1195.7 155.85 1190.0 210.0 z" fill="rgb(255,217,194)" stroke="black"/>
  <text fill="rgb(9,33,173)" font-size="25" x="1206.4" y="141.6">Lfront</text>
  <path d="M 1343.0 156.0 L 1406.0 144.0 Q 1443.1999999999998 123.6 1418.0 60.0 L 1343.0 60.0 L 1343.0 156.0 z" fill="rgb(255,217,194)" stroke="black"/>
  <text fill="rgb(9,33,173)" font-size="25" x="1352.5" y="108.0">lbsleeve</text>
  <path d="M 1492.5 156.0 L 1567.5 156.0 Q 1592.6999999999998 92.4 1555.5 72.0 L 1492.5 60.0 L 1492.5 156.0 z" fill="rgb(255,217,194)" stroke="black"/>
  <text fill="rgb(9,33,173)" font-size="25" x="1502.0" y="114.0">lfsleeve</text>
</svg>
