<?xml version="1.0" encoding="utf-8" ?>
<svg xmlns="http://www.w3.org/2000/svg" xmlns:ev="http://www.w3.org/2001/xml-events" xmlns:xlink="http://www.w3.org/1999/xlink" baseProfile="full" height="336.0px" version="1.1" width="1720.0px">
  <defs/>
  <path d="M 60 174 L 162 174 Q 171.6 137.7 150 129 L 60 60 L 60 174 z" fill="rgb(255,217,194)" stroke="black"/>
  <text fill="rgb(9,33,173)" font-size="25" x="83.0" y="137.25">rbsleeve</text>
  <path d="M 223.0 174.0 L 313.0 105.0 Q 334.6 96.3 325.0 60.0 L 223.0 60.0 L 223.0 174.0 z" fill="rgb(255,217,194)" stroke="black"/>
  <text fill="rgb(9,33,173)" font-size="25" x="246.0" y="102.75">rfsleeve</text>
  <path d="M 386.0 276.0 L 467.0 276.0 Q 488.0 93.0 479.0 60.0 L 416.0 60.0 Q 430.7 141.75 386.0 153.0 Q 398.3 159.15 386.0 276.0 z" fill="rgb(255,217,194)" stroke="black"/>
  <text fill="rgb(9,33,173)" font-size="25" x="401.8" y="168.0">Rback</text>
  <path d="M 551.0 276.0 L 632.0 276.0 Q 619.7 159.15 632.0 153.0 Q 591.95 140.25 602.0 60.0 L 539.0 60.0 Q 530.0 93.0 551.0 276.0 z" fill="rgb(255,217,194)" stroke="black"/>
  <text fill="rgb(9,33,173)" font-size="25" x="566.2" y="168.0">Rfront</text>
  <path d="M 698.0 168.0 L 761.0 168.0 L 824.0 168.0 L 830.0 108.0 Q 808.0999999999999 97.19999999999999 821.0 60.0 L 797.0 60.0 Q 761.0 94.05776161621628 725.0 60.0 L 701.0 60.0 Q 713.9000000000001 97.19999999999999 692.0 108.0 L 698.0 168.0 z" fill="rgb(255,217,194)" stroke="black"/>
  <text fill="rgb(9,33,173)" font-size="25" x="736.0" y="109.66666666666667">up_back</text>
  <path d="M 896.0 165.0 L 959.0 165.0 L 1022.0 165.0 L 1028.0 108.0 Q 1006.0999999999999 97.19999999999999 1019.0 60.0 L 995.0 60.0 L 959.0 114.0 L 923.0 60.0 L 899.0 60.0 Q 911.9000000000001 97.19999999999999 890.0 108.0 L 896.0 165.0 z" fill="rgb(255,217,194)" stroke="black"/>
  <text fill="rgb(9,33,173)" font-size="25" x="934.0" y="109.5">up_front</text>
  <path d="M 1100.0 276.0 L 1181.0 276.0 Q 1168.7 159.15 1181.0 153.0 Q 1136.3 141.75 1151.0 60.0 L 1088.0 60.0 Q 1079.0 93.0 1100.0 276.0 z" fill="rgb(255,217,194)" stroke="black"/>
  <text fill="rgb(9,33,173)" font-size="25" x="1115.2" y="168.0">Lback</text>
  <path d="M 1241.0 276.0 L 1322.0 276.0 Q 1343.0 93.0 1334.0 60.0 L 1271.0 60.0 Q 1281.05 140.25 1241.0 153.0 Q 1253.3 159.15 1241.0 276.0 z" fill="rgb(255,217,194)" stroke="black"/>
  <text fill="rgb(9,33,173)" font-size="25" x="1256.8" y="168.0">Lfront</text>
  <path d="M 1394.0 174.0 L 1484.0 105.0 Q 1505.6 96.3 1496.0 60.0 L 1394.0 60.0 L 1394.0 174.0 z" fill="rgb(255,217,194)" stroke="black"/>
  <text fill="rgb(9,33,173)" font-size="25" x="1417.0" y="102.75">lbsleeve</text>
  <path d="M 1557.0 174.0 L 1659.0 174.0 Q 1668.6 137.7 1647.0 129.0 L 1557.0 60.0 L 1557.0 174.0 z" fill="rgb(255,217,194)" stroke="black"/>
  <text fill="rgb(9,33,173)" font-size="25" x="1580.0" y="137.25">lfsleeve</text>
</svg>
