<?xml version="1.0" encoding="utf-8" ?>
<svg xmlns="http://www.w3.org/2000/svg" xmlns:ev="http://www.w3.org/2001/xml-events" xmlns:xlink="http://www.w3.org/1999/xlink" baseProfile="full" height="282px" version="1.1" width="1563.0px">
  <defs/>
  <path d="M 60 222 L 174 222 L 210 60 L 90 60 Q 99.9 132.75 60 141 Q 68.1 145.05 60 222 z" fill="rgb(255,217,194)" stroke="black"/>
  <text fill="rgb(9,33,173)" font-size="25" x="93.8" y="144.0">Rback</text>
  <path d="M 306 222 L 420 222 Q 411.9 145.05 420 141 Q 384.15 131.25 390 60 L 270 60 L 306 222 z" fill="rgb(255,217,194)" stroke="black"/>
  <text fill="rgb(9,33,173)" font-size="25" x="336.2" y="144.0">Rfront</text>
  <path d="M 480 81 L 519 81 L 558 81 L 558 60 L 480 60 L 480 81 z" fill="rgb(255,217,194)" stroke="black"/>
  <text fill="rgb(9,33,173)" font-size="25" x="494.0" y="75.6">wb_back</text>
  <path d="M 624.0 81.0 L 663.0 81.0 L 702.0 81.0 L 702.0 60.0 L 624.0 60.0 L 624.0 81.0 z" fill="rgb(255,217,194)" stroke="black"/>
  <text fill="rgb(9,33,173)" font-size="25" x="638.0" y="75.6">wb_front</text>
  <path d="M 778.0 144.0 L 898.0 144.0 L 898.0 123.0 Q 870.0999999999999 107.69999999999999 889.0 60.0 L 850.0 60.0 Q 838.0 77.14609147663734 826.0 60.0 L 787.0 60.0 Q 805.9000000000001 107.69999999999999 778.0 123.0 L 778.0 144.0 z" fill="rgb(255,217,194)" stroke="black"/>
  <text fill="rgb(9,33,173)" font-size="25" x="813.0" y="99.75">top_back</text>
  <path d="M 958.0 141.0 L 1078.0 141.0 L 1078.0 123.0 Q 1050.1 107.69999999999999 1069.0 60.0 L 1030.0 60.0 L 1018.0 96.0 L 1006.0 60.0 L 967.0 60.0 Q 985.9000000000001 107.69999999999999 958.0 123.0 L 958.0 141.0 z" fill="rgb(255,217,194)" stroke="black"/>
  <text fill="rgb(9,33,173)" font-size="25" x="993.0" y="99.0">top_front</text>
  <path d="M 1179.0 222.0 L 1293.0 222.0 Q 1284.9 145.05 1293.0 141.0 Q 1253.1 132.75 1263.0 60.0 L 1143.0 60.0 L 1179.0 222.0 z" fill="rgb(255,217,194)" stroke="black"/>
  <text fill="rgb(9,33,173)" font-size="25" x="1209.2" y="144.0">Lback</text>
  <path d="M 1353.0 222.0 L 1467.0 222.0 L 1503.0 60.0 L 1383.0 60.0 Q 1388.85 131.25 1353.0 141.0 Q 1361.1 145.05 1353.0 222.0 z" fill="rgb(255,217,194)" stroke="black"/>
  <text fill="rgb(9,33,173)" font-size="25" x="1386.8" y="144.0">Lfront</text>
</svg>
