<?xml version="1.0" encoding="utf-8" ?>
<svg xmlns="http://www.w3.org/2000/svg" xmlns:ev="http://www.w3.org/2001/xml-events" xmlns:xlink="http://www.w3.org/1999/xlink" baseProfile="full" height="393.0px" version="1.1" width="1636.0px">
  <defs/>
  <path d="M 60 183 L 114 183 Q 141.6 115.2 102 93 L 60 60 L 60 183 z" fill="rgb(255,217,194)" stroke="black"/>
  <text fill="rgb(9,33,173)" font-size="25" x="59.0" y="132.75">rbsleeve</text>
  <path d="M 199.0 183.0 L 241.0 150.0 Q 280.6 127.8 253.0 60.0 L 199.0 60.0 L 199.0 183.0 z" fill="rgb(255,217,194)" stroke="black"/>
  <text fill="rgb(9,33,173)" font-size="25" x="198.0" y="116.25">rfsleeve</text>
  <path d="M 338.0 333.0 L 656.0 333.0 L 578.0 150.0 Q 538.4 127.8 566.0 60.0 L 533.0 60.0 L 497.0 69.0 L 461.0 60.0 L 428.0 60.0 Q 455.6 127.8 416.0 150.0 L 338.0 333.0 z" fill="rgb(255,217,194)" stroke="black"/>
  <text fill="rgb(9,33,173)" font-size="25" x="472.0" y="144.66666666666666">back</text>
  <path d="M 716.0 333.0 L 1034.0 333.0 L 956.0 150.0 Q 916.4 127.8 944.0 60.0 L 911.0 60.0 L 875.0 69.0 L 839.0 60.0 L 806.0 60.0 Q 833.6 127.8 794.0 150.0 L 716.0 333.0 z" fill="rgb(255,217,194)" stroke="black"/>
  <text fill="rgb(9,33,173)" font-size="25" x="850.0" y="144.66666666666666">front</text>
  <path d="M 1097.0 159.0 L 1160.0 162.0 Q 1217.6 137.7 1166.0 69.0 L 1133.0 78.0 L 1094.0 60.0 L 1097.0 159.0 z" fill="rgb(255,217,194)" stroke="black"/>
  <text fill="rgb(9,33,173)" font-size="25" x="1105.0" y="108.6">Rhood</text>
  <path d="M 1226.0 162.0 L 1265.0 144.0 L 1298.0 153.0 Q 1349.6 84.30000000000001 1292.0 60.0 L 1229.0 63.0 L 1226.0 162.0 z" fill="rgb(255,217,194)" stroke="black"/>
  <text fill="rgb(9,33,173)" font-size="25" x="1237.0" y="119.4">Lhood</text>
  <path d="M 1358.0 183.0 L 1400.0 150.0 Q 1439.6 127.8 1412.0 60.0 L 1358.0 60.0 L 1358.0 183.0 z" fill="rgb(255,217,194)" stroke="black"/>
  <text fill="rgb(9,33,173)" font-size="25" x="1357.0" y="116.25">lbsleeve</text>
  <path d="M 1497.0 183.0 L 1551.0 183.0 Q 1578.6 115.2 1539.0 93.0 L 1497.0 60.0 L 1497.0 183.0 z" fill="rgb(255,217,194)" stroke="black"/>
  <text fill="rgb(9,33,173)" font-size="25" x="1496.0" y="132.75">lfsleeve</text>
</svg>
