<?xml version="1.0" encoding="utf-8" ?>
<svg xmlns="http://www.w3.org/2000/svg" xmlns:ev="http://www.w3.org/2001/xml-events" xmlns:xlink="http://www.w3.org/1999/xlink" baseProfile="full" height="360px" version="1.1" width="1491.0px">
  <defs/>
  <path d="M 60 300 L 192 300 L 189 60 L 90 60 Q 104.7 141.75 60 153 Q 74.7 160.35 60 300 z" fill="rgb(255,217,194)" stroke="black"/>
  <text fill="rgb(9,33,173)" font-size="25" x="93.2" y="177.6">Rback</text>
  <path d="M 252 300 L 384 300 Q 369.3 160.35 384 153 Q 343.95 140.25 354 60 L 255 60 L 252 300 z" fill="rgb(255,217,194)" stroke="black"/>
  <text fill="rgb(9,33,173)" font-size="25" x="300.8" y="177.6">Rfront</text>
  <path d="M 444 75 L 483 75 L 522 75 L 522 60 L 444 60 L 444 75 z" fill="rgb(255,217,194)" stroke="black"/>
  <text fill="rgb(9,33,173)" font-size="25" x="458.0" y="72.0">wb_back</text>
  <path d="M 588.0 75.0 L 627.0 75.0 L 666.0 75.0 L 666.0 60.0 L 588.0 60.0 L 588.0 75.0 z" fill="rgb(255,217,194)" stroke="black"/>
  <text fill="rgb(9,33,173)" font-size="25" x="602.0" y="72.0">wb_front</text>
  <path d="M 742.0 168.0 L 862.0 168.0 L 862.0 135.0 Q 829.3 116.1 853.0 60.0 L 835.0 60.0 Q 802.0 148.72679006400153 769.0 60.0 L 751.0 60.0 Q 774.7 116.1 742.0 135.0 L 742.0 168.0 z" fill="rgb(255,217,194)" stroke="black"/>
  <text fill="rgb(9,33,173)" font-size="25" x="777.0" y="108.75">top_back</text>
  <path d="M 922.0 168.0 L 1042.0 168.0 L 1042.0 135.0 Q 1009.3 116.1 1033.0 60.0 L 1015.0 60.0 L 982.0 135.0 L 949.0 60.0 L 931.0 60.0 Q 954.7 116.1 922.0 135.0 L 922.0 168.0 z" fill="rgb(255,217,194)" stroke="black"/>
  <text fill="rgb(9,33,173)" font-size="25" x="957.0" y="112.0">top_front</text>
  <path d="M 1107.0 300.0 L 1239.0 300.0 Q 1224.3 160.35 1239.0 153.0 Q 1194.3 141.75 1209.0 60.0 L 1110.0 60.0 L 1107.0 300.0 z" fill="rgb(255,217,194)" stroke="black"/>
  <text fill="rgb(9,33,173)" font-size="25" x="1155.8" y="177.6">Lback</text>
  <path d="M 1299.0 300.0 L 1431.0 300.0 L 1428.0 60.0 L 1329.0 60.0 Q 1339.05 140.25 1299.0 153.0 Q 1313.7 160.35 1299.0 300.0 z" fill="rgb(255,217,194)" stroke="black"/>
  <text fill="rgb(9,33,173)" font-size="25" x="1332.2" y="177.6">Lfront</text>
</svg>
