<?xml version="1.0" encoding="utf-8" ?>
<svg xmlns="http://www.w3.org/2000/svg" xmlns:ev="http://www.w3.org/2001/xml-events" xmlns:xlink="http://www.w3.org/1999/xlink" baseProfile="full" height="279px" version="1.1" width="1848px">
  <defs/>
  <path d="M 60 219 L 180 219 Q 194.4 174.29999999999998 168 162 L 60 60 L 60 219 z" fill="rgb(255,217,194)" stroke="black"/>
  <text fill="rgb(9,33,173)" font-size="25" x="92.0" y="168.0">rbsleeve</text>
  <path d="M 240 219 L 348 117 Q 374.40000000000003 104.7 360 60 L 240 60 L 240 219 z" fill="rgb(255,217,194)" stroke="black"/>
  <text fill="rgb(9,33,173)" font-size="25" x="272.0" y="117.0">rfsleeve</text>
  <path d="M 420 195 L 489 195 Q 523.8 81.9 522 60 L 450 60 Q 464.7 141.75 420 153 Q 424.2 155.1 420 195 z" fill="rgb(255,217,194)" stroke="black"/>
  <text fill="rgb(9,33,173)" font-size="25" x="435.2" y="135.6">Rback</text>
  <path d="M 615 195 L 684 195 Q 679.8 155.1 684 153 Q 643.95 140.25 654 60 L 582 60 Q 580.2 81.9 615 195 z" fill="rgb(255,217,194)" stroke="black"/>
  <text fill="rgb(9,33,173)" font-size="25" x="618.8" y="135.6">Rfront</text>
  <path d="M 744 168 L 819 168 L 894 168 L 888 117 Q 862.5 103.5 879 60 L 855 60 Q 819.0 120.01364665309725 783 60 L 759 60 Q 775.5 103.5 750 117 L 744 168 z" fill="rgb(255,217,194)" stroke="black"/>
  <text fill="rgb(9,33,173)" font-size="25" x="794.0" y="111.66666666666667">up_back</text>
  <path d="M 954 165 L 1029 165 L 1104 165 L 1098 114 Q 1073.7 101.39999999999999 1089 60 L 1065 60 L 1029 66 L 993 60 L 969 60 Q 984.3000000000001 101.39999999999999 960 114 L 954 165 z" fill="rgb(255,217,194)" stroke="black"/>
  <text fill="rgb(9,33,173)" font-size="25" x="1004.0" y="105.9">up_front</text>
  <path d="M 1197 195 L 1266 195 Q 1261.8 155.1 1266 153 Q 1221.3 141.75 1236 60 L 1164 60 Q 1162.2 81.9 1197 195 z" fill="rgb(255,217,194)" stroke="black"/>
  <text fill="rgb(9,33,173)" font-size="25" x="1200.8" y="135.6">Lback</text>
  <path d="M 1326 195 L 1395 195 Q 1429.8 81.9 1428 60 L 1356 60 Q 1366.05 140.25 1326 153 Q 1330.2 155.1 1326 195 z" fill="rgb(255,217,194)" stroke="black"/>
  <text fill="rgb(9,33,173)" font-size="25" x="1341.2" y="135.6">Lfront</text>
  <path d="M 1488 219 L 1596 117 Q 1622.3999999999999 104.7 1608 60 L 1488 60 L 1488 219 z" fill="rgb(255,217,194)" stroke="black"/>
  <text fill="rgb(9,33,173)" font-size="25" x="1520.0" y="117.0">lbsleeve</text>
  <path d="M 1668 219 L 1788 219 Q 1802.3999999999999 174.29999999999998 1776 162 L 1668 60 L 1668 219 z" fill="rgb(255,217,194)" stroke="black"/>
  <text fill="rgb(9,33,173)" font-size="25" x="1700.0" y="168.0">lfsleeve</text>
</svg>
