<?xml version="1.0" encoding="utf-8" ?>
<svg xmlns="http://www.w3.org/2000/svg" xmlns:ev="http://www.w3.org/2001/xml-events" xmlns:xlink="http://www.w3.org/1999/xlink" baseProfile="full" height="285.0px" version="1.1" width="1690.8px">
  <defs/>
  <path d="M 60 147 L 135 147 Q 161.4 81.3 123 60 L 60 99 L 60 147 z" fill="rgb(255,217,194)" stroke="black"/>
  <text fill="rgb(9,33,173)" font-size="25" x="69.5" y="116.25">rbsleeve</text>
  <path d="M 209.5 108.0 L 272.5 147.0 Q 310.90000000000003 125.7 284.5 60.0 L 209.5 60.0 L 209.5 108.0 z" fill="rgb(255,217,194)" stroke="black"/>
  <text fill="rgb(9,33,173)" font-size="25" x="219.0" y="96.75">rfsleeve</text>
  <path d="M 359.0 225.0 L 410.0 225.0 Q 451.4 86.7 449.0 60.0 L 389.0 60.0 Q 403.7 141.75 359.0 153.0 Q 366.2 156.6 359.0 225.0 z" fill="rgb(255,217,194)" stroke="black"/>
  <text fill="rgb(9,33,173)" font-size="25" x="368.2" y="147.6">Rback</text>
  <path d="M 548.0 225.0 L 599.0 225.0 Q 591.8 156.60000000000002 599.0 153.0 Q 558.95 140.25 569.0 60.0 L 509.0 60.0 Q 506.6 86.7 548.0 225.0 z" fill="rgb(255,217,194)" stroke="black"/>
  <text fill="rgb(9,33,173)" font-size="25" x="539.8" y="147.6">Rfront</text>
  <path d="M 677.8 168.0 L 737.8 168.0 L 797.8 168.0 L 815.8 147.0 Q 777.4 125.7 803.8 60.0 L 758.8 60.0 Q 737.8 84.94409607311175 716.8 60.0 L 671.8 60.0 Q 698.1999999999999 125.7 659.8 147.0 L 677.8 168.0 z" fill="rgb(255,217,194)" stroke="black"/>
  <text fill="rgb(9,33,173)" font-size="25" x="712.8000000000001" y="118.33333333333333">up_back</text>
  <path d="M 893.8 165.0 L 953.8 165.0 L 1013.8 165.0 L 1031.8 147.0 Q 993.4000000000001 125.7 1019.8 60.0 L 974.8 60.0 L 953.8 126.0 L 932.8 60.0 L 887.8 60.0 Q 914.1999999999999 125.7 875.8 147.0 L 893.8 165.0 z" fill="rgb(255,217,194)" stroke="black"/>
  <text fill="rgb(9,33,173)" font-size="25" x="928.8" y="118.5">up_front</text>
  <path d="M 1130.8 225.0 L 1181.8 225.0 Q 1174.6 156.60000000000002 1181.8 153.0 Q 1137.1 141.75 1151.8 60.0 L 1091.8 60.0 Q 1089.3999999999999 86.7 1130.8 225.0 z" fill="rgb(255,217,194)" stroke="black"/>
  <text fill="rgb(9,33,173)" font-size="25" x="1122.6" y="147.6">Lback</text>
  <path d="M 1241.8 225.0 L 1292.8 225.0 Q 1334.2 86.7 1331.8 60.0 L 1271.8 60.0 Q 1281.85 140.25 1241.8 153.0 Q 1249.0 156.6 1241.8 225.0 z" fill="rgb(255,217,194)" stroke="black"/>
  <text fill="rgb(9,33,173)" font-size="25" x="1251.0" y="147.6">Lfront</text>
  <path d="M 1391.8 108.0 L 1454.8 147.0 Q 1493.1999999999998 125.7 1466.8 60.0 L 1391.8 60.0 L 1391.8 108.0 z" fill="rgb(255,217,194)" stroke="black"/>
  <text fill="rgb(9,33,173)" font-size="25" x="1401.3" y="96.75">lbsleeve</text>
  <path d="M 1541.3 147.0 L 1616.3 147.0 Q 1642.6999999999998 81.3 1604.3 60.0 L 1541.3 99.0 L 1541.3 147.0 z" fill="rgb(255,217,194)" stroke="black"/>
  <text fill="rgb(9,33,173)" font-size="25" x="1550.8" y="116.25">lfsleeve</text>
</svg>
