<?xml version="1.0" encoding="utf-8" ?>
<svg xmlns="http://www.w3.org/2000/svg" xmlns:ev="http://www.w3.org/2001/xml-events" xmlns:xlink="http://www.w3.org/1999/xlink" baseProfile="full" height="288px" version="1.1" width="1618.5px">
  <defs/>
  <path d="M 60 228 L 87 228 Q 112.5 159.0 72 138 L 60 60 L 60 228 z" fill="rgb(255,217,194)" stroke="black"/>
  <text fill="rgb(9,33,173)" font-size="25" x="44.75" y="166.5">rbsleeve</text>
  <path d="M 184.75 228.0 L 196.75 150.0 Q 237.25 129.0 211.75 60.0 L 184.75 60.0 L 184.75 228.0 z" fill="rgb(255,217,194)" stroke="black"/>
  <text fill="rgb(9,33,173)" font-size="25" x="169.5" y="127.5">rfsleeve</text>
  <path d="M 309.5 162.0 L 525.5 162.0 L 525.5 150.0 L 495.5 60.0 L 447.5 60.0 Q 471.8 126.9 432.5 147.0 L 309.5 162.0 z" fill="rgb(255,217,194)" stroke="black"/>
  <text fill="rgb(9,33,173)" font-size="25" x="431.0" y="126.5">front_right</text>
  <path d="M 601.0 162.0 L 1033.0 162.0 L 910.0 147.0 Q 870.7 126.9 895.0 60.0 L 847.0 60.0 Q 817.0 94.50431423095844 787.0 60.0 L 739.0 60.0 Q 763.3 126.9 724.0 147.0 L 601.0 162.0 z" fill="rgb(255,217,194)" stroke="black"/>
  <text fill="rgb(9,33,173)" font-size="25" x="792.0" y="110.25">back</text>
  <path d="M 1093.0 162.0 L 1309.0 162.0 L 1186.0 147.0 Q 1146.7 126.9 1171.0 60.0 L 1123.0 60.0 L 1093.0 150.0 L 1093.0 162.0 z" fill="rgb(255,217,194)" stroke="black"/>
  <text fill="rgb(9,33,173)" font-size="25" x="1137.5" y="126.5">front_left</text>
  <path d="M 1369.0 228.0 L 1381.0 150.0 Q 1421.5 129.0 1396.0 60.0 L 1369.0 60.0 L 1369.0 228.0 z" fill="rgb(255,217,194)" stroke="black"/>
  <text fill="rgb(9,33,173)" font-size="25" x="1353.75" y="127.5">lbsleeve</text>
  <path d="M 1493.75 228.0 L 1520.75 228.0 Q 1546.25 159.0 1505.75 138.0 L 1493.75 60.0 L 1493.75 228.0 z" fill="rgb(255,217,194)" stroke="black"/>
  <text fill="rgb(9,33,173)" font-size="25" x="1478.5" y="166.5">lfsleeve</text>
</svg>
