<?xml version="1.0" encoding="utf-8" ?>
<svg xmlns="http://www.w3.org/2000/svg" xmlns:ev="http://www.w3.org/2001/xml-events" xmlns:xlink="http://www.w3.org/1999/xlink" baseProfile="full" height="447.0px" version="1.1" width="1592.5px">
  <defs/>
  <path d="M 60 186 L 84 186 Q 110.7 114.9 69 93 L 60 60 L 60 186 z" fill="rgb(255,217,194)" stroke="black"/>
  <text fill="rgb(9,33,173)" font-size="25" x="43.25" y="134.25">rbsleeve</text>
  <path d="M 183.25 186.0 L 192.25 153.0 Q 233.95 131.1 207.25 60.0 L 183.25 60.0 L 183.25 186.0 z" fill="rgb(255,217,194)" stroke="black"/>
  <text fill="rgb(9,33,173)" font-size="25" x="166.5" y="117.75">rfsleeve</text>
  <path d="M 306.5 387.0 L 516.5 387.0 L 516.5 69.0 L 495.5 60.0 L 441.5 60.0 Q 470.3 129.9 429.5 153.0 L 306.5 387.0 z" fill="rgb(255,217,194)" stroke="black"/>
  <text fill="rgb(9,33,173)" font-size="25" x="426.0" y="189.0">front_right</text>
  <path d="M 596.0 387.0 L 1016.0 387.0 L 893.0 153.0 Q 852.1999999999999 129.9 881.0 60.0 L 827.0 60.0 Q 806.0 151.36023350052864 785.0 60.0 L 731.0 60.0 Q 759.8000000000001 129.9 719.0 153.0 L 596.0 387.0 z" fill="rgb(255,217,194)" stroke="black"/>
  <text fill="rgb(9,33,173)" font-size="25" x="781.0" y="168.0">back</text>
  <path d="M 1076.0 387.0 L 1286.0 387.0 L 1163.0 153.0 Q 1122.2 129.9 1151.0 60.0 L 1097.0 60.0 L 1076.0 69.0 L 1076.0 387.0 z" fill="rgb(255,217,194)" stroke="black"/>
  <text fill="rgb(9,33,173)" font-size="25" x="1116.5" y="189.0">front_left</text>
  <path d="M 1346.0 186.0 L 1355.0 153.0 Q 1396.7 131.1 1370.0 60.0 L 1346.0 60.0 L 1346.0 186.0 z" fill="rgb(255,217,194)" stroke="black"/>
  <text fill="rgb(9,33,173)" font-size="25" x="1329.25" y="117.75">lbsleeve</text>
  <path d="M 1469.25 186.0 L 1493.25 186.0 Q 1519.95 114.9 1478.25 93.0 L 1469.25 60.0 L 1469.25 186.0 z" fill="rgb(255,217,194)" stroke="black"/>
  <text fill="rgb(9,33,173)" font-size="25" x="1452.5" y="134.25">lfsleeve</text>
</svg>
