<?xml version="1.0" encoding="utf-8" ?>
<svg xmlns="http://www.w3.org/2000/svg" xmlns:ev="http://www.w3.org/2001/xml-events" xmlns:xlink="http://www.w3.org/1999/xlink" baseProfile="full" height="519.0px" version="1.1" width="1138.0px">
  <defs/>
  <path d="M 60 147 L 99 147 Q 125.4 81.3 87 60 L 60 75 L 60 147 z" fill="rgb(255,217,194)" stroke="black"/>
  <text fill="rgb(9,33,173)" font-size="25" x="51.5" y="110.25">rbsleeve</text>
  <path d="M 191.5 132.0 L 218.5 147.0 Q 256.9 125.7 230.5 60.0 L 191.5 60.0 L 191.5 132.0 z" fill="rgb(255,217,194)" stroke="black"/>
  <text fill="rgb(9,33,173)" font-size="25" x="183.0" y="102.75">rfsleeve</text>
  <path d="M 323.0 459.0 L 539.0 459.0 L 497.0 147.0 Q 458.59999999999997 125.7 485.0 60.0 L 449.0 60.0 Q 431.0 152.5894731076565 413.0 60.0 L 377.0 60.0 Q 403.40000000000003 125.7 365.0 147.0 L 323.0 459.0 z" fill="rgb(255,217,194)" stroke="black"/>
  <text fill="rgb(9,33,173)" font-size="25" x="406.0" y="184.5">back</text>
  <path d="M 599.0 459.0 L 815.0 459.0 L 773.0 147.0 Q 734.6 125.7 761.0 60.0 L 725.0 60.0 L 707.0 84.0 L 689.0 60.0 L 653.0 60.0 Q 679.4 125.7 641.0 147.0 L 599.0 459.0 z" fill="rgb(255,217,194)" stroke="black"/>
  <text fill="rgb(9,33,173)" font-size="25" x="682.0" y="173.66666666666666">front</text>
  <path d="M 875.0 132.0 L 902.0 147.0 Q 940.4 125.7 914.0 60.0 L 875.0 60.0 L 875.0 132.0 z" fill="rgb(255,217,194)" stroke="black"/>
  <text fill="rgb(9,33,173)" font-size="25" x="866.5" y="102.75">lbsleeve</text>
  <path d="M 1006.5 147.0 L 1045.5 147.0 Q 1071.8999999999999 81.3 1033.5 60.0 L 1006.5 75.0 L 1006.5 147.0 z" fill="rgb(255,217,194)" stroke="black"/>
  <text fill="rgb(9,33,173)" font-size="25" x="998.0" y="110.25">lfsleeve</text>
</svg>
