<?xml version="1.0" encoding="utf-8" ?>
<svg xmlns="http://www.w3.org/2000/svg" xmlns:ev="http://www.w3.org/2001/xml-events" xmlns:xlink="http://www.w3.org/1999/xlink" baseProfile="full" height="234px" version="1.1" width="933.0px">
  <defs/>
  <path d="M 60 174 L 159 174 L 159 81 L 141 60 L 102 60 Q 113.7 95.1 93 105 L 60 174 z" fill="rgb(255,217,194)" stroke="black"/>
  <text fill="rgb(9,33,173)" font-size="25" x="94.0" y="112.0">front_right</text>
  <path d="M 264.0 156.0 L 321.0 162.0 Q 375.0 135.0 321.0 72.0 L 300.0 81.0 L 279.0 60.0 L 264.0 156.0 z" fill="rgb(255,217,194)" stroke="black"/>
  <text fill="rgb(9,33,173)" font-size="25" x="272.0" y="109.2">Rhood</text>
  <path d="M 382.0 174.0 L 580.0 174.0 L 547.0 105.0 Q 526.3 95.1 538.0 60.0 L 499.0 60.0 L 481.0 69.0 L 463.0 60.0 L 424.0 60.0 Q 435.7 95.1 415.0 105.0 L 382.0 174.0 z" fill="rgb(255,217,194)" stroke="black"/>
  <text fill="rgb(9,33,173)" font-size="25" x="456.0" y="99.33333333333333">back</text>
  <path d="M 655.0 162.0 L 676.0 141.0 L 697.0 150.0 Q 751.0 87.0 697.0 60.0 L 640.0 66.0 L 655.0 162.0 z" fill="rgb(255,217,194)" stroke="black"/>
  <text fill="rgb(9,33,173)" font-size="25" x="648.0" y="118.8">Lhood</text>
  <path d="M 758.0 174.0 L 857.0 174.0 L 824.0 105.0 Q 803.3 95.1 815.0 60.0 L 776.0 60.0 L 758.0 81.0 L 758.0 174.0 z" fill="rgb(255,217,194)" stroke="black"/>
  <text fill="rgb(9,33,173)" font-size="25" x="773.0" y="112.0">front_left</text>
</svg>
