<?xml version="1.0" encoding="utf-8" ?>
<svg xmlns="http://www.w3.org/2000/svg" xmlns:ev="http://www.w3.org/2001/xml-events" xmlns:xlink="http://www.w3.org/1999/xlink" baseProfile="full" height="402px" version="1.1" width="1462.0px">
  <defs/>
  <path d="M 60 342 L 336 342 L 336 60 L 60 60 L 60 342 z" fill="rgb(255,217,194)" stroke="black"/>
  <text fill="rgb(9,33,173)" font-size="25" x="173.0" y="204.0">skirt_back</text>
  <path d="M 396 78 L 486 78 L 486 60 L 396 60 L 396 78 z" fill="rgb(255,217,194)" stroke="black"/>
  <text fill="rgb(9,33,173)" font-size="25" x="416.0" y="72.0">wb_back</text>
  <path d="M 546 78 L 636 78 L 636 60 L 546 60 L 546 78 z" fill="rgb(255,217,194)" stroke="black"/>
  <text fill="rgb(9,33,173)" font-size="25" x="566.0" y="72.0">wb_front</text>
  <path d="M 706.0 342.0 L 982.0 342.0 L 982.0 60.0 L 706.0 60.0 L 706.0 342.0 z" fill="rgb(255,217,194)" stroke="black"/>
  <text fill="rgb(9,33,173)" font-size="25" x="819.0" y="204.0">skirt_front</text>
  <path d="M 1042.0 189.0 L 1192.0 189.0 L 1192.0 141.0 Q 1156.0 121.5 1180.0 60.0 L 1147.0 60.0 Q 1117.0 165.66689652958632 1087.0 60.0 L 1054.0 60.0 Q 1078.0 121.49999999999999 1042.0 141.0 L 1042.0 189.0 z" fill="rgb(255,217,194)" stroke="black"/>
  <text fill="rgb(9,33,173)" font-size="25" x="1092.0" y="115.5">top_back</text>
  <path d="M 1252.0 189.0 L 1402.0 189.0 L 1402.0 141.0 Q 1366.0 121.5 1390.0 60.0 L 1357.0 60.0 L 1327.0 111.0 L 1297.0 60.0 L 1264.0 60.0 Q 1288.0 121.49999999999999 1252.0 141.0 L 1252.0 189.0 z" fill="rgb(255,217,194)" stroke="black"/>
  <text fill="rgb(9,33,173)" font-size="25" x="1302.0" y="115.33333333333333">top_front</text>
</svg>
