<?xml version="1.0" encoding="utf-8" ?>
<svg xmlns="http://www.w3.org/2000/svg" xmlns:ev="http://www.w3.org/2001/xml-events" xmlns:xlink="http://www.w3.org/1999/xlink" baseProfile="full" height="525.0px" version="1.1" width="1277.0px">
  <defs/>
  <path d="M 60 189 L 153 189 Q 185.4 112.80000000000001 141 87 L 60 60 L 60 189 z" fill="rgb(255,217,194)" stroke="black"/>
  <text fill="rgb(9,33,173)" font-size="25" x="78.5" y="134.25">rbsleeve</text>
  <path d="M 218.5 189.0 L 299.5 162.0 Q 343.90000000000003 136.20000000000002 311.5 60.0 L 218.5 60.0 L 218.5 189.0 z" fill="rgb(255,217,194)" stroke="black"/>
  <text fill="rgb(9,33,173)" font-size="25" x="237.0" y="120.75">rfsleeve</text>
  <path d="M 401.0 465.0 L 458.0 465.0 L 458.0 66.0 L 425.0 60.0 L 389.0 60.0 Q 420.20000000000005 134.10000000000002 377.0 159.0 L 401.0 465.0 z" fill="rgb(255,217,194)" stroke="black"/>
  <text fill="rgb(9,33,173)" font-size="25" x="393.0" y="215.5">front_right</text>
  <path d="M 587.0 465.0 L 701.0 465.0 L 725.0 159.0 Q 681.8 134.10000000000002 713.0 60.0 L 677.0 60.0 Q 644.0 150.93443326561095 611.0 60.0 L 575.0 60.0 Q 606.2 134.10000000000002 563.0 159.0 L 587.0 465.0 z" fill="rgb(255,217,194)" stroke="black"/>
  <text fill="rgb(9,33,173)" font-size="25" x="619.0" y="189.0">back</text>
  <path d="M 785.0 465.0 L 842.0 465.0 L 866.0 159.0 Q 822.8 134.10000000000002 854.0 60.0 L 818.0 60.0 L 785.0 66.0 L 785.0 465.0 z" fill="rgb(255,217,194)" stroke="black"/>
  <text fill="rgb(9,33,173)" font-size="25" x="800.0" y="215.5">front_left</text>
  <path d="M 960.0 189.0 L 1041.0 162.0 Q 1085.3999999999999 136.20000000000002 1053.0 60.0 L 960.0 60.0 L 960.0 189.0 z" fill="rgb(255,217,194)" stroke="black"/>
  <text fill="rgb(9,33,173)" font-size="25" x="978.5" y="120.75">lbsleeve</text>
  <path d="M 1118.5 189.0 L 1211.5 189.0 Q 1243.8999999999999 112.80000000000001 1199.5 87.0 L 1118.5 60.0 L 1118.5 189.0 z" fill="rgb(255,217,194)" stroke="black"/>
  <text fill="rgb(9,33,173)" font-size="25" x="1137.0" y="134.25">lfsleeve</text>
</svg>
