<?xml version="1.0" encoding="utf-8" ?>
<svg xmlns="http://www.w3.org/2000/svg" xmlns:ev="http://www.w3.org/2001/xml-events" xmlns:xlink="http://www.w3.org/1999/xlink" baseProfile="full" height="222px" version="1.1" width="1342.0px">
  <defs/>
  <path d="M 60 162 L 282 162 L 282 60 L 60 60 L 60 162 z" fill="rgb(255,217,194)" stroke="black"/>
  <text fill="rgb(9,33,173)" font-size="25" x="146.0" y="114.0">skirt_back</text>
  <path d="M 342 69 L 432 69 L 432 60 L 342 60 L 342 69 z" fill="rgb(255,217,194)" stroke="black"/>
  <text fill="rgb(9,33,173)" font-size="25" x="362.0" y="67.5">wb_back</text>
  <path d="M 492 69 L 582 69 L 582 60 L 492 60 L 492 69 z" fill="rgb(255,217,194)" stroke="black"/>
  <text fill="rgb(9,33,173)" font-size="25" x="512.0" y="67.5">wb_front</text>
  <path d="M 652.0 162.0 L 874.0 162.0 L 874.0 60.0 L 652.0 60.0 L 652.0 162.0 z" fill="rgb(255,217,194)" stroke="black"/>
  <text fill="rgb(9,33,173)" font-size="25" x="738.0" y="114.0">skirt_front</text>
  <path d="M 934.0 153.0 L 1078.0 153.0 L 1078.0 150.0 Q 1038.4 127.8 1066.0 60.0 L 1030.0 60.0 Q 1006.0 87.17415377559192 982.0 60.0 L 946.0 60.0 Q 973.6 127.8 934.0 150.0 L 934.0 153.0 z" fill="rgb(255,217,194)" stroke="black"/>
  <text fill="rgb(9,33,173)" font-size="25" x="981.0" y="108.75">top_back</text>
  <path d="M 1138.0 153.0 L 1282.0 153.0 L 1282.0 150.0 Q 1242.4 127.8 1270.0 60.0 L 1234.0 60.0 L 1210.0 129.0 L 1186.0 60.0 L 1150.0 60.0 Q 1177.6 127.8 1138.0 150.0 L 1138.0 153.0 z" fill="rgb(255,217,194)" stroke="black"/>
  <text fill="rgb(9,33,173)" font-size="25" x="1185.0" y="111.33333333333333">top_front</text>
</svg>
