<?xml version="1.0" encoding="utf-8" ?>
<svg xmlns="http://www.w3.org/2000/svg" xmlns:ev="http://www.w3.org/2001/xml-events" xmlns:xlink="http://www.w3.org/1999/xlink" baseProfile="full" height="318px" version="1.1" width="1115.5px">
  <defs/>
  <path d="M 60 258 L 276 258 L 276 102 L 228 60 L 195 60 Q 215.7 120.6 180 138 L 60 258 z" fill="rgb(255,217,194)" stroke="black"/>
  <text fill="rgb(9,33,173)" font-size="25" x="177.5" y="149.0">front_right</text>
  <path d="M 347.5 258.0 L 779.5 258.0 L 659.5 138.0 Q 623.8 120.6 644.5 60.0 L 611.5 60.0 Q 563.5 167.7344753637932 515.5 60.0 L 482.5 60.0 Q 503.2 120.6 467.5 138.0 L 347.5 258.0 z" fill="rgb(255,217,194)" stroke="black"/>
  <text fill="rgb(9,33,173)" font-size="25" x="538.5" y="132.0">back</text>
  <path d="M 839.5 258.0 L 1055.5 258.0 L 935.5 138.0 Q 899.8 120.6 920.5 60.0 L 887.5 60.0 L 839.5 102.0 L 839.5 258.0 z" fill="rgb(255,217,194)" stroke="black"/>
  <text fill="rgb(9,33,173)" font-size="25" x="888.0" y="149.0">front_left</text>
</svg>
