<?xml version="1.0" encoding="utf-8" ?>
<svg xmlns="http://www.w3.org/2000/svg" xmlns:ev="http://www.w3.org/2001/xml-events" xmlns:xlink="http://www.w3.org/1999/xlink" baseProfile="full" height="381px" version="1.1" width="1044.2px">
  <defs/>
  <path d="M 60 321 L 111 321 Q 159.75 101.25 153 60 L 90 60 Q 104.7 141.75 60 153 Q 76.8 161.4 60 321 z" fill="rgb(255,217,194)" stroke="black"/>
  <text fill="rgb(9,33,173)" font-size="25" x="69.8" y="186.0">Rback</text>
  <path d="M 255 321 L 306 321 Q 289.2 161.4 306 153 Q 265.95 140.25 276 60 L 213 60 Q 206.25 101.25 255 321 z" fill="rgb(255,217,194)" stroke="black"/>
  <text fill="rgb(9,33,173)" font-size="25" x="246.2" y="186.0">Rfront</text>
  <path d="M 366.2 168.0 L 429.2 168.0 L 492.2 168.0 L 486.2 123.0 Q 458.3 107.69999999999999 477.2 60.0 L 441.2 60.0 Q 429.2 94.32295980666123 417.2 60.0 L 381.2 60.0 Q 400.09999999999997 107.69999999999999 372.2 123.0 L 366.2 168.0 z" fill="rgb(255,217,194)" stroke="black"/>
  <text fill="rgb(9,33,173)" font-size="25" x="404.19999999999993" y="113.0">up_back</text>
  <path d="M 552.2 165.0 L 615.2 165.0 L 678.2 165.0 L 672.2 123.0 Q 644.3 107.69999999999999 663.2 60.0 L 627.2 60.0 L 615.2 96.0 L 603.2 60.0 L 567.2 60.0 Q 586.1000000000001 107.69999999999999 558.2 123.0 L 552.2 165.0 z" fill="rgb(255,217,194)" stroke="black"/>
  <text fill="rgb(9,33,173)" font-size="25" x="590.1999999999999" y="110.7">up_front</text>
  <path d="M 780.2 321.0 L 831.2 321.0 Q 814.4000000000001 161.4 831.2 153.0 Q 786.5 141.75 801.2 60.0 L 738.2 60.0 Q 731.45 101.25 780.2 321.0 z" fill="rgb(255,217,194)" stroke="black"/>
  <text fill="rgb(9,33,173)" font-size="25" x="771.4" y="186.0">Lback</text>
  <path d="M 891.2 321.0 L 942.2 321.0 Q 990.95 101.25 984.2 60.0 L 921.2 60.0 Q 931.25 140.25 891.2 153.0 Q 908.0 161.4 891.2 321.0 z" fill="rgb(255,217,194)" stroke="black"/>
  <text fill="rgb(9,33,173)" font-size="25" x="901.0" y="186.0">Lfront</text>
</svg>
