<?xml version="1.0" encoding="utf-8" ?>
<svg xmlns="http://www.w3.org/2000/svg" xmlns:ev="http://www.w3.org/2001/xml-events" xmlns:xlink="http://www.w3.org/1999/xlink" baseProfile="full" height="261.0px" version="1.1" width="1735.0px">
  <defs/>
  <path d="M 60 156 L 150 156 Q 182.1 85.20000000000002 141 60 L 60 60 L 60 156 z" fill="rgb(255,217,194)" stroke="black"/>
  <text fill="rgb(9,33,173)" font-size="25" x="77.75" y="111.0">rbsleeve</text>
  <path d="M 217.75 156.0 L 298.75 156.0 Q 339.85 130.8 307.75 60.0 L 217.75 60.0 L 217.75 156.0 z" fill="rgb(255,217,194)" stroke="black"/>
  <text fill="rgb(9,33,173)" font-size="25" x="235.5" y="111.0">rfsleeve</text>
  <path d="M 375.5 201.0 L 456.5 201.0 Q 478.85 82.05000000000001 474.5 60.0 L 405.5 60.0 Q 420.2 141.75 375.5 153.0 Q 380.3 155.4 375.5 201.0 z" fill="rgb(255,217,194)" stroke="black"/>
  <text fill="rgb(9,33,173)" font-size="25" x="392.5" y="138.0">Rback</text>
  <path d="M 552.5 201.0 L 633.5 201.0 Q 628.7 155.4 633.5 153.0 Q 593.45 140.25 603.5 60.0 L 534.5 60.0 Q 530.1500000000001 82.05000000000001 552.5 201.0 z" fill="rgb(255,217,194)" stroke="black"/>
  <text fill="rgb(9,33,173)" font-size="25" x="566.5" y="138.0">Rfront</text>
  <path d="M 693.5 168.0 L 765.5 168.0 L 837.5 168.0 L 828.5 156.0 Q 787.4 130.8 819.5 60.0 L 780.5 60.0 Q 765.5 68.85488961299833 750.5 60.0 L 711.5 60.0 Q 743.6 130.79999999999998 702.5 156.0 L 693.5 168.0 z" fill="rgb(255,217,194)" stroke="black"/>
  <text fill="rgb(9,33,173)" font-size="25" x="740.5" y="120.33333333333333">up_back</text>
  <path d="M 897.5 165.0 L 969.5 165.0 L 1041.5 165.0 L 1032.5 156.0 Q 991.4 130.8 1023.5 60.0 L 984.5 60.0 L 969.5 66.0 L 954.5 60.0 L 915.5 60.0 Q 947.6 130.79999999999998 906.5 156.0 L 897.5 165.0 z" fill="rgb(255,217,194)" stroke="black"/>
  <text fill="rgb(9,33,173)" font-size="25" x="944.5" y="114.3">up_front</text>
  <path d="M 1119.5 201.0 L 1200.5 201.0 Q 1195.7 155.4 1200.5 153.0 Q 1155.8 141.75 1170.5 60.0 L 1101.5 60.0 Q 1097.15 82.05000000000001 1119.5 201.0 z" fill="rgb(255,217,194)" stroke="black"/>
  <text fill="rgb(9,33,173)" font-size="25" x="1133.5" y="138.0">Lback</text>
  <path d="M 1260.5 201.0 L 1341.5 201.0 Q 1363.85 82.05000000000001 1359.5 60.0 L 1290.5 60.0 Q 1300.55 140.25 1260.5 153.0 Q 1265.3 155.4 1260.5 201.0 z" fill="rgb(255,217,194)" stroke="black"/>
  <text fill="rgb(9,33,173)" font-size="25" x="1277.5" y="138.0">Lfront</text>
  <path d="M 1419.5 156.0 L 1500.5 156.0 Q 1541.6000000000001 130.8 1509.5 60.0 L 1419.5 60.0 L 1419.5 156.0 z" fill="rgb(255,217,194)" stroke="black"/>
  <text fill="rgb(9,33,173)" font-size="25" x="1437.25" y="111.0">lbsleeve</text>
  <path d="M 1577.25 156.0 L 1667.25 156.0 Q 1699.3500000000001 85.20000000000002 1658.25 60.0 L 1577.25 60.0 L 1577.25 156.0 z" fill="rgb(255,217,194)" stroke="black"/>
  <text fill="rgb(9,33,173)" font-size="25" x="1595.0" y="111.0">lfsleeve</text>
</svg>
