<?xml version="1.0" encoding="utf-8" ?>
<svg xmlns="http://www.w3.org/2000/svg" xmlns:ev="http://www.w3.org/2001/xml-events" xmlns:xlink="http://www.w3.org/1999/xlink" baseProfile="full" height="378px" version="1.1" width="1044px">
  <defs/>
  <path d="M 60 318 L 153 318 Q 163.35 98.55000000000001 150 60 L 90 60 Q 104.7 141.75 60 153 Q 76.5 161.25 60 318 z" fill="rgb(255,217,194)" stroke="black"/>
  <text fill="rgb(9,33,173)" font-size="25" x="77.6" y="184.8">Rback</text>
  <path d="M 213 318 L 306 318 Q 289.5 161.25 306 153 Q 265.95 140.25 276 60 L 216 60 Q 202.65 98.54999999999998 213 318 z" fill="rgb(255,217,194)" stroke="black"/>
  <text fill="rgb(9,33,173)" font-size="25" x="238.39999999999998" y="184.8">Rfront</text>
  <path d="M 372 168 L 429 168 L 486 168 L 492 126 Q 462.0 111.0 480 60 L 456 60 Q 429.0 138.0828225434709 402 60 L 378 60 Q 396.0 110.99999999999999 366 126 L 372 168 z" fill="rgb(255,217,194)" stroke="black"/>
  <text fill="rgb(9,33,173)" font-size="25" x="404.0" y="113.66666666666667">up_back</text>
  <path d="M 558 165 L 615 165 L 672 165 L 678 126 Q 648.0 111.0 666 60 L 642 60 L 615 78 L 588 60 L 564 60 Q 582.0 110.99999999999999 552 126 L 558 165 z" fill="rgb(255,217,194)" stroke="black"/>
  <text fill="rgb(9,33,173)" font-size="25" x="590.0" y="109.5">up_front</text>
  <path d="M 738 318 L 831 318 Q 814.5 161.25 831 153 Q 786.3 141.75 801 60 L 741 60 Q 727.65 98.54999999999998 738 318 z" fill="rgb(255,217,194)" stroke="black"/>
  <text fill="rgb(9,33,173)" font-size="25" x="763.4" y="184.8">Lback</text>
  <path d="M 891 318 L 984 318 Q 994.35 98.55000000000001 981 60 L 921 60 Q 931.05 140.25 891 153 Q 907.5 161.25 891 318 z" fill="rgb(255,217,194)" stroke="black"/>
  <text fill="rgb(9,33,173)" font-size="25" x="908.6" y="184.8">Lfront</text>
</svg>
