<?xml version="1.0" encoding="utf-8" ?>
<svg xmlns="http://www.w3.org/2000/svg" xmlns:ev="http://www.w3.org/2001/xml-events" xmlns:xlink="http://www.w3.org/1999/xlink" baseProfile="full" height="351px" version="1.1" width="1184.5px">
  <defs/>
  <path d="M 60 291 L 216 291 L 216 99 L 171 60 L 147 60 Q 178.2 134.10000000000002 135 159 L 60 291 z" fill="rgb(255,217,194)" stroke="black"/>
  <text fill="rgb(9,33,173)" font-size="25" x="132.5" y="163.0">front_right</text>
  <path d="M 311.5 174.0 L 323.5 174.0 Q 393.7 188.4 389.5 90.0 L 347.5 99.0 L 302.5 60.0 L 311.5 174.0 z" fill="rgb(255,217,194)" stroke="black"/>
  <text fill="rgb(9,33,173)" font-size="25" x="309.9" y="122.4">Rhood</text>
  <path d="M 449.5 291.0 L 761.5 291.0 L 686.5 162.0 Q 642.1 136.20000000000002 674.5 60.0 L 650.5 60.0 L 605.5 69.0 L 560.5 60.0 L 536.5 60.0 Q 568.9 136.2 524.5 162.0 L 449.5 291.0 z" fill="rgb(255,217,194)" stroke="black"/>
  <text fill="rgb(9,33,173)" font-size="25" x="580.5" y="138.0">back</text>
  <path d="M 821.5 174.0 L 866.5 135.0 L 908.5 144.0 Q 912.6999999999999 45.6 842.5 60.0 L 830.5 60.0 L 821.5 174.0 z" fill="rgb(255,217,194)" stroke="black"/>
  <text fill="rgb(9,33,173)" font-size="25" x="828.9" y="117.6">Lhood</text>
  <path d="M 968.5 291.0 L 1124.5 291.0 L 1049.5 159.0 Q 1006.3000000000001 134.10000000000002 1037.5 60.0 L 1013.5 60.0 L 968.5 99.0 L 968.5 291.0 z" fill="rgb(255,217,194)" stroke="black"/>
  <text fill="rgb(9,33,173)" font-size="25" x="1002.0" y="163.0">front_left</text>
</svg>
