<?xml version="1.0" encoding="utf-8" ?>
<svg xmlns="http://www.w3.org/2000/svg" xmlns:ev="http://www.w3.org/2001/xml-events" xmlns:xlink="http://www.w3.org/1999/xlink" baseProfile="full" height="366px" version="1.1" width="1558.0px">
  <defs/>
  <path d="M 60 306 L 396 306 L 396 60 L 60 60 L 60 306 z" fill="rgb(255,217,194)" stroke="black"/>
  <text fill="rgb(9,33,173)" font-size="25" x="203.0" y="186.0">skirt_back</text>
  <path d="M 456 72 L 546 72 L 546 60 L 456 60 L 456 72 z" fill="rgb(255,217,194)" stroke="black"/>
  <text fill="rgb(9,33,173)" font-size="25" x="476.0" y="69.0">wb_back</text>
  <path d="M 606 72 L 696 72 L 696 60 L 606 60 L 606 72 z" fill="rgb(255,217,194)" stroke="black"/>
  <text fill="rgb(9,33,173)" font-size="25" x="626.0" y="69.0">wb_front</text>
  <path d="M 766.0 306.0 L 1102.0 306.0 L 1102.0 60.0 L 766.0 60.0 L 766.0 306.0 z" fill="rgb(255,217,194)" stroke="black"/>
  <text fill="rgb(9,33,173)" font-size="25" x="909.0" y="186.0">skirt_front</text>
  <path d="M 1162.0 144.0 L 1300.0 144.0 L 1300.0 120.0 Q 1273.3 105.6 1291.0 60.0 L 1246.0 60.0 Q 1231.0 100.70370553091186 1216.0 60.0 L 1171.0 60.0 Q 1188.7 105.6 1162.0 120.0 L 1162.0 144.0 z" fill="rgb(255,217,194)" stroke="black"/>
  <text fill="rgb(9,33,173)" font-size="25" x="1206.0" y="99.0">top_back</text>
  <path d="M 1360.0 144.0 L 1498.0 144.0 L 1498.0 120.0 Q 1471.3 105.6 1489.0 60.0 L 1444.0 60.0 L 1429.0 105.0 L 1414.0 60.0 L 1369.0 60.0 Q 1386.7 105.6 1360.0 120.0 L 1360.0 144.0 z" fill="rgb(255,217,194)" stroke="black"/>
  <text fill="rgb(9,33,173)" font-size="25" x="1404.0" y="100.0">top_front</text>
</svg>
