<?xml version="1.0" encoding="utf-8" ?>
<svg xmlns="http://www.w3.org/2000/svg" xmlns:ev="http://www.w3.org/2001/xml-events" xmlns:xlink="http://www.w3.org/1999/xlink" baseProfile="full" height="366.0px" version="1.1" width="1039.0px">
  <defs/>
  <path d="M 60 213 L 126 213 Q 142.5 169.5 117 156 L 60 60 L 60 213 z" fill="rgb(255,217,194)" stroke="black"/>
  <text fill="rgb(9,33,173)" font-size="25" x="65.75" y="163.5">rbsleeve</text>
  <path d="M 205.75 213.0 L 262.75 117.0 Q 288.25 103.5 271.75 60.0 L 205.75 60.0 L 205.75 213.0 z" fill="rgb(255,217,194)" stroke="black"/>
  <text fill="rgb(9,33,173)" font-size="25" x="211.5" y="115.5">rfsleeve</text>
  <path d="M 351.5 306.0 L 489.5 306.0 L 480.5 117.0 Q 455.0 103.5 471.5 60.0 L 444.5 60.0 Q 420.5 230.80895345055072 396.5 60.0 L 369.5 60.0 Q 386.0 103.5 360.5 117.0 L 351.5 306.0 z" fill="rgb(255,217,194)" stroke="black"/>
  <text fill="rgb(9,33,173)" font-size="25" x="395.5" y="138.75">back</text>
  <path d="M 549.5 306.0 L 687.5 306.0 L 678.5 117.0 Q 653.0 103.5 669.5 60.0 L 642.5 60.0 L 618.5 132.0 L 594.5 60.0 L 567.5 60.0 Q 584.0 103.5 558.5 117.0 L 549.5 306.0 z" fill="rgb(255,217,194)" stroke="black"/>
  <text fill="rgb(9,33,173)" font-size="25" x="593.5" y="138.33333333333334">front</text>
  <path d="M 747.5 213.0 L 804.5 117.0 Q 830.0 103.5 813.5 60.0 L 747.5 60.0 L 747.5 213.0 z" fill="rgb(255,217,194)" stroke="black"/>
  <text fill="rgb(9,33,173)" font-size="25" x="753.25" y="115.5">lbsleeve</text>
  <path d="M 893.25 213.0 L 959.25 213.0 Q 975.75 169.5 950.25 156.0 L 893.25 60.0 L 893.25 213.0 z" fill="rgb(255,217,194)" stroke="black"/>
  <text fill="rgb(9,33,173)" font-size="25" x="899.0" y="163.5">lfsleeve</text>
</svg>
