<?xml version="1.0" encoding="utf-8" ?>
<svg xmlns="http://www.w3.org/2000/svg" xmlns:ev="http://www.w3.org/2001/xml-events" xmlns:xlink="http://www.w3.org/1999/xlink" baseProfile="full" height="411px" version="1.1" width="1500px">
  <defs/>
  <path d="M 60 117 L 198 117 Q 214.5 73.5 189 60 L 60 60 L 60 117 z" fill="rgb(255,217,194)" stroke="black"/>
  <text fill="rgb(9,33,173)" font-size="25" x="101.75" y="91.5">rbsleeve</text>
  <path d="M 258 117 L 387 117 Q 412.5 103.5 396 60 L 258 60 L 258 117 z" fill="rgb(255,217,194)" stroke="black"/>
  <text fill="rgb(9,33,173)" font-size="25" x="299.75" y="91.5">rfsleeve</text>
  <path d="M 456 351 L 720 351 L 648 117 Q 622.5 103.5 639 60 L 609 60 Q 588.0 71.63907759226407 567 60 L 537 60 Q 553.5 103.5 528 117 L 456 351 z" fill="rgb(255,217,194)" stroke="black"/>
  <text fill="rgb(9,33,173)" font-size="25" x="563.0" y="150.0">back</text>
  <path d="M 780 351 L 1044 351 L 972 114 Q 947.6999999999999 101.39999999999999 963 60 L 933 60 L 912 114 L 891 60 L 861 60 Q 876.3000000000001 101.39999999999999 852 114 L 780 351 z" fill="rgb(255,217,194)" stroke="black"/>
  <text fill="rgb(9,33,173)" font-size="25" x="887.0" y="145.66666666666666">front</text>
  <path d="M 1104 117 L 1233 117 Q 1258.5 103.5 1242 60 L 1104 60 L 1104 117 z" fill="rgb(255,217,194)" stroke="black"/>
  <text fill="rgb(9,33,173)" font-size="25" x="1145.75" y="91.5">lbsleeve</text>
  <path d="M 1302 117 L 1440 117 Q 1456.5 73.5 1431 60 L 1302 60 L 1302 117 z" fill="rgb(255,217,194)" stroke="black"/>
  <text fill="rgb(9,33,173)" font-size="25" x="1343.75" y="91.5">lfsleeve</text>
</svg>
