<?xml version="1.0" encoding="utf-8" ?>
<svg xmlns="http://www.w3.org/2000/svg" xmlns:ev="http://www.w3.org/2001/xml-events" xmlns:xlink="http://www.w3.org/1999/xlink" baseProfile="full" height="417.0px" version="1.1" width="1350.5px">
  <defs/>
  <path d="M 60 228 L 108 228 Q 130.8 168.6 96 150 L 60 60 L 60 228 z" fill="rgb(255,217,194)" stroke="black"/>
  <text fill="rgb(9,33,173)" font-size="25" x="56.0" y="169.5">rbsleeve</text>
  <path d="M 196.0 228.0 L 232.0 138.0 Q 266.8 119.39999999999999 244.0 60.0 L 196.0 60.0 L 196.0 228.0 z" fill="rgb(255,217,194)" stroke="black"/>
  <text fill="rgb(9,33,173)" font-size="25" x="192.0" y="124.5">rfsleeve</text>
  <path d="M 332.0 357.0 L 464.0 357.0 L 464.0 102.0 L 434.0 60.0 L 410.0 60.0 Q 434.9 118.19999999999999 401.0 138.0 L 332.0 357.0 z" fill="rgb(255,217,194)" stroke="black"/>
  <text fill="rgb(9,33,173)" font-size="25" x="392.5" y="182.0">front_right</text>
  <path d="M 562.5 357.0 L 826.5 357.0 L 757.5 138.0 Q 723.5999999999999 118.19999999999999 748.5 60.0 L 724.5 60.0 Q 694.5 244.0951084493888 664.5 60.0 L 640.5 60.0 Q 665.4000000000001 118.19999999999999 631.5 138.0 L 562.5 357.0 z" fill="rgb(255,217,194)" stroke="black"/>
  <text fill="rgb(9,33,173)" font-size="25" x="669.5" y="156.75">back</text>
  <path d="M 886.5 357.0 L 1018.5 357.0 L 949.5 138.0 Q 915.5999999999999 118.19999999999999 940.5 60.0 L 916.5 60.0 L 886.5 102.0 L 886.5 357.0 z" fill="rgb(255,217,194)" stroke="black"/>
  <text fill="rgb(9,33,173)" font-size="25" x="908.0" y="182.0">front_left</text>
  <path d="M 1078.5 228.0 L 1114.5 138.0 Q 1149.3 119.39999999999999 1126.5 60.0 L 1078.5 60.0 L 1078.5 228.0 z" fill="rgb(255,217,194)" stroke="black"/>
  <text fill="rgb(9,33,173)" font-size="25" x="1074.5" y="124.5">lbsleeve</text>
  <path d="M 1214.5 228.0 L 1262.5 228.0 Q 1285.3 168.6 1250.5 150.0 L 1214.5 60.0 L 1214.5 228.0 z" fill="rgb(255,217,194)" stroke="black"/>
  <text fill="rgb(9,33,173)" font-size="25" x="1210.5" y="169.5">lfsleeve</text>
</svg>
