<?xml version="1.0" encoding="utf-8" ?>
<svg xmlns="http://www.w3.org/2000/svg" xmlns:ev="http://www.w3.org/2001/xml-events" xmlns:xlink="http://www.w3.org/1999/xlink" baseProfile="full" height="396px" version="1.1" width="1546.0px">
  <defs/>
  <path d="M 60 336 L 132 336 L 198 60 L 90 60 Q 105.9 144.0 60 156 Q 78.0 165.0 60 336 z" fill="rgb(255,217,194)" stroke="black"/>
  <text fill="rgb(9,33,173)" font-size="25" x="83.0" y="192.6">Rback</text>
  <path d="M 324 336 L 396 336 Q 378.0 165.0 396 156 Q 354.9 142.5 366 60 L 258 60 L 324 336 z" fill="rgb(255,217,194)" stroke="black"/>
  <text fill="rgb(9,33,173)" font-size="25" x="323.0" y="192.6">Rfront</text>
  <path d="M 456 75 L 495 75 L 534 75 L 534 60 L 456 60 L 456 75 z" fill="rgb(255,217,194)" stroke="black"/>
  <text fill="rgb(9,33,173)" font-size="25" x="470.0" y="72.0">wb_back</text>
  <path d="M 600.0 75.0 L 639.0 75.0 L 678.0 75.0 L 678.0 60.0 L 600.0 60.0 L 600.0 75.0 z" fill="rgb(255,217,194)" stroke="black"/>
  <text fill="rgb(9,33,173)" font-size="25" x="614.0" y="72.0">wb_front</text>
  <path d="M 754.0 138.0 L 892.0 138.0 L 892.0 114.0 Q 867.6999999999999 101.39999999999999 883.0 60.0 L 841.0 60.0 Q 823.0 100.2580665757917 805.0 60.0 L 763.0 60.0 Q 778.3000000000001 101.39999999999999 754.0 114.0 L 754.0 138.0 z" fill="rgb(255,217,194)" stroke="black"/>
  <text fill="rgb(9,33,173)" font-size="25" x="798.0" y="96.0">top_back</text>
  <path d="M 952.0 138.0 L 1090.0 138.0 L 1090.0 114.0 Q 1065.7 101.39999999999999 1081.0 60.0 L 1039.0 60.0 L 1021.0 63.0 L 1003.0 60.0 L 961.0 60.0 Q 976.3000000000001 101.39999999999999 952.0 114.0 L 952.0 138.0 z" fill="rgb(255,217,194)" stroke="black"/>
  <text fill="rgb(9,33,173)" font-size="25" x="996.0" y="92.66666666666667">top_front</text>
  <path d="M 1216.0 336.0 L 1288.0 336.0 Q 1270.0 165.0 1288.0 156.0 Q 1242.1 144.0 1258.0 60.0 L 1150.0 60.0 L 1216.0 336.0 z" fill="rgb(255,217,194)" stroke="black"/>
  <text fill="rgb(9,33,173)" font-size="25" x="1215.0" y="192.6">Lback</text>
  <path d="M 1348.0 336.0 L 1420.0 336.0 L 1486.0 60.0 L 1378.0 60.0 Q 1389.1 142.5 1348.0 156.0 Q 1366.0 165.0 1348.0 336.0 z" fill="rgb(255,217,194)" stroke="black"/>
  <text fill="rgb(9,33,173)" font-size="25" x="1371.0" y="192.6">Lfront</text>
</svg>
