<?xml version="1.0" encoding="utf-8" ?>
<svg xmlns="http://www.w3.org/2000/svg" xmlns:ev="http://www.w3.org/2001/xml-events" xmlns:xlink="http://www.w3.org/1999/xlink" baseProfile="full" height="240px" version="1.1" width="1104px">
  <defs/>
  <path d="M 60 180 L 144 180 Q 162.75 78.75 159 60 L 90 60 Q 104.7 141.75 60 153 Q 62.7 154.35 60 180 z" fill="rgb(255,217,194)" stroke="black"/>
  <text fill="rgb(9,33,173)" font-size="25" x="77.6" y="129.6">Rback</text>
  <path d="M 234 180 L 318 180 Q 315.3 154.35 318 153 Q 277.95 140.25 288 60 L 219 60 Q 215.25 78.75 234 180 z" fill="rgb(255,217,194)" stroke="black"/>
  <text fill="rgb(9,33,173)" font-size="25" x="250.39999999999998" y="129.6">Rfront</text>
  <path d="M 378 168 L 450 168 L 522 168 L 519 123 Q 490.2 108.89999999999999 507 60 L 480 60 Q 450.0 123.3165159507096 420 60 L 393 60 Q 409.8 108.89999999999999 381 123 L 378 168 z" fill="rgb(255,217,194)" stroke="black"/>
  <text fill="rgb(9,33,173)" font-size="25" x="425.0" y="113.0">up_back</text>
  <path d="M 582 165 L 654 165 L 726 165 L 723 123 Q 694.1999999999999 108.89999999999999 711 60 L 684 60 L 654 126 L 624 60 L 597 60 Q 613.8000000000001 108.89999999999999 585 123 L 582 165 z" fill="rgb(255,217,194)" stroke="black"/>
  <text fill="rgb(9,33,173)" font-size="25" x="629.0" y="113.7">up_front</text>
  <path d="M 801 180 L 885 180 Q 882.3 154.35 885 153 Q 840.3 141.75 855 60 L 786 60 Q 782.25 78.75 801 180 z" fill="rgb(255,217,194)" stroke="black"/>
  <text fill="rgb(9,33,173)" font-size="25" x="817.4" y="129.6">Lback</text>
  <path d="M 945 180 L 1029 180 Q 1047.75 78.75 1044 60 L 975 60 Q 985.05 140.25 945 153 Q 947.7 154.35 945 180 z" fill="rgb(255,217,194)" stroke="black"/>
  <text fill="rgb(9,33,173)" font-size="25" x="962.6" y="129.6">Lfront</text>
</svg>
