<?xml version="1.0" encoding="utf-8" ?>
<svg xmlns="http://www.w3.org/2000/svg" xmlns:ev="http://www.w3.org/2001/xml-events" xmlns:xlink="http://www.w3.org/1999/xlink" baseProfile="full" height="246px" version="1.1" width="1462.0px">
  <defs/>
  <path d="M 60 186 L 342 186 L 342 60 L 60 60 L 60 186 z" fill="rgb(255,217,194)" stroke="black"/>
  <text fill="rgb(9,33,173)" font-size="25" x="176.0" y="126.0">skirt_back</text>
  <path d="M 402 78 L 492 78 L 492 60 L 402 60 L 402 78 z" fill="rgb(255,217,194)" stroke="black"/>
  <text fill="rgb(9,33,173)" font-size="25" x="422.0" y="72.0">wb_back</text>
  <path d="M 552 78 L 642 78 L 642 60 L 552 60 L 552 78 z" fill="rgb(255,217,194)" stroke="black"/>
  <text fill="rgb(9,33,173)" font-size="25" x="572.0" y="72.0">wb_front</text>
  <path d="M 712.0 186.0 L 994.0 186.0 L 994.0 60.0 L 712.0 60.0 L 712.0 186.0 z" fill="rgb(255,217,194)" stroke="black"/>
  <text fill="rgb(9,33,173)" font-size="25" x="828.0" y="126.0">skirt_front</text>
  <path d="M 1054.0 156.0 L 1198.0 156.0 L 1198.0 147.0 Q 1159.6000000000001 125.7 1186.0 60.0 L 1147.0 60.0 Q 1126.0 137.5480028224693 1105.0 60.0 L 1066.0 60.0 Q 1092.3999999999999 125.7 1054.0 147.0 L 1054.0 156.0 z" fill="rgb(255,217,194)" stroke="black"/>
  <text fill="rgb(9,33,173)" font-size="25" x="1101.0" y="108.75">top_back</text>
  <path d="M 1258.0 156.0 L 1402.0 156.0 L 1402.0 147.0 Q 1363.6000000000001 125.7 1390.0 60.0 L 1351.0 60.0 L 1330.0 102.0 L 1309.0 60.0 L 1270.0 60.0 Q 1296.3999999999999 125.7 1258.0 147.0 L 1258.0 156.0 z" fill="rgb(255,217,194)" stroke="black"/>
  <text fill="rgb(9,33,173)" font-size="25" x="1305.0" y="108.33333333333333">top_front</text>
</svg>
