<?xml version="1.0" encoding="utf-8" ?>
<svg xmlns="http://www.w3.org/2000/svg" xmlns:ev="http://www.w3.org/2001/xml-events" xmlns:xlink="http://www.w3.org/1999/xlink" baseProfile="full" height="288px" version="1.1" width="1618.0px">
  <defs/>
  <path d="M 60 228 L 192 228 L 210 60 L 90 60 Q 101.1 135.0 60 144 Q 68.4 148.2 60 228 z" fill="rgb(255,217,194)" stroke="black"/>
  <text fill="rgb(9,33,173)" font-size="25" x="97.4" y="147.0">Rback</text>
  <path d="M 288 228 L 420 228 Q 411.6 148.2 420 144 Q 383.1 133.5 390 60 L 270 60 L 288 228 z" fill="rgb(255,217,194)" stroke="black"/>
  <text fill="rgb(9,33,173)" font-size="25" x="332.6" y="147.0">Rfront</text>
  <path d="M 480 75 L 519 75 L 558 75 L 558 60 L 480 60 L 480 75 z" fill="rgb(255,217,194)" stroke="black"/>
  <text fill="rgb(9,33,173)" font-size="25" x="494.0" y="72.0">wb_back</text>
  <path d="M 624.0 75.0 L 663.0 75.0 L 702.0 75.0 L 702.0 60.0 L 624.0 60.0 L 624.0 75.0 z" fill="rgb(255,217,194)" stroke="black"/>
  <text fill="rgb(9,33,173)" font-size="25" x="638.0" y="72.0">wb_front</text>
  <path d="M 778.0 177.0 L 928.0 177.0 L 928.0 153.0 Q 887.1999999999999 129.9 916.0 60.0 L 874.0 60.0 Q 853.0 123.62928376552765 832.0 60.0 L 790.0 60.0 Q 818.8000000000001 129.9 778.0 153.0 L 778.0 177.0 z" fill="rgb(255,217,194)" stroke="black"/>
  <text fill="rgb(9,33,173)" font-size="25" x="828.0" y="115.5">top_back</text>
  <path d="M 988.0 177.0 L 1138.0 177.0 L 1138.0 150.0 Q 1098.4 127.8 1126.0 60.0 L 1084.0 60.0 L 1063.0 66.0 L 1042.0 60.0 L 1000.0 60.0 Q 1027.6 127.8 988.0 150.0 L 988.0 177.0 z" fill="rgb(255,217,194)" stroke="black"/>
  <text fill="rgb(9,33,173)" font-size="25" x="1038.0" y="109.66666666666667">top_front</text>
  <path d="M 1216.0 228.0 L 1348.0 228.0 Q 1339.6 148.2 1348.0 144.0 Q 1306.9 135.0 1318.0 60.0 L 1198.0 60.0 L 1216.0 228.0 z" fill="rgb(255,217,194)" stroke="black"/>
  <text fill="rgb(9,33,173)" font-size="25" x="1260.6" y="147.0">Lback</text>
  <path d="M 1408.0 228.0 L 1540.0 228.0 L 1558.0 60.0 L 1438.0 60.0 Q 1444.9 133.5 1408.0 144.0 Q 1416.4 148.2 1408.0 228.0 z" fill="rgb(255,217,194)" stroke="black"/>
  <text fill="rgb(9,33,173)" font-size="25" x="1445.4" y="147.0">Lfront</text>
</svg>
