<?xml version="1.0" encoding="utf-8" ?>
<svg xmlns="http://www.w3.org/2000/svg" xmlns:ev="http://www.w3.org/2001/xml-events" xmlns:xlink="http://www.w3.org/1999/xlink" baseProfile="full" height="318px" version="1.1" width="1450.0px">
  <defs/>
  <path d="M 60 258 L 330 258 L 330 60 L 60 60 L 60 258 z" fill="rgb(255,217,194)" stroke="black"/>
  <text fill="rgb(9,33,173)" font-size="25" x="170.0" y="162.0">skirt_back</text>
  <path d="M 390 78 L 480 78 L 480 60 L 390 60 L 390 78 z" fill="rgb(255,217,194)" stroke="black"/>
  <text fill="rgb(9,33,173)" font-size="25" x="410.0" y="72.0">wb_back</text>
  <path d="M 540 78 L 630 78 L 630 60 L 540 60 L 540 78 z" fill="rgb(255,217,194)" stroke="black"/>
  <text fill="rgb(9,33,173)" font-size="25" x="560.0" y="72.0">wb_front</text>
  <path d="M 700.0 258.0 L 970.0 258.0 L 970.0 60.0 L 700.0 60.0 L 700.0 258.0 z" fill="rgb(255,217,194)" stroke="black"/>
  <text fill="rgb(9,33,173)" font-size="25" x="810.0" y="162.0">skirt_front</text>
  <path d="M 1030.0 150.0 L 1180.0 150.0 L 1180.0 108.0 Q 1157.2 98.39999999999999 1168.0 60.0 L 1120.0 60.0 Q 1105.0 96.16572392182731 1090.0 60.0 L 1042.0 60.0 Q 1052.8 98.39999999999999 1030.0 108.0 L 1030.0 150.0 z" fill="rgb(255,217,194)" stroke="black"/>
  <text fill="rgb(9,33,173)" font-size="25" x="1080.0" y="97.5">top_back</text>
  <path d="M 1240.0 150.0 L 1390.0 150.0 L 1390.0 108.0 Q 1367.2 98.39999999999999 1378.0 60.0 L 1330.0 60.0 L 1315.0 114.0 L 1300.0 60.0 L 1252.0 60.0 Q 1262.8 98.39999999999999 1240.0 108.0 L 1240.0 150.0 z" fill="rgb(255,217,194)" stroke="black"/>
  <text fill="rgb(9,33,173)" font-size="25" x="1290.0" y="99.66666666666667">top_front</text>
</svg>
