<?xml version="1.0" encoding="utf-8" ?>
<svg xmlns="http://www.w3.org/2000/svg" xmlns:ev="http://www.w3.org/2001/xml-events" xmlns:xlink="http://www.w3.org/1999/xlink" baseProfile="full" height="258.0px" version="1.1" width="1786.0px">
  <defs/>
  <path d="M 60 156 L 159 156 Q 189.0 84.00000000000001 147 60 L 60 63 L 60 156 z" fill="rgb(255,217,194)" stroke="black"/>
  <text fill="rgb(9,33,173)" font-size="25" x="81.5" y="111.75">rbsleeve</text>
  <path d="M 221.5 153.0 L 308.5 156.0 Q 350.5 132.0 320.5 60.0 L 221.5 60.0 L 221.5 153.0 z" fill="rgb(255,217,194)" stroke="black"/>
  <text fill="rgb(9,33,173)" font-size="25" x="243.0" y="110.25">rfsleeve</text>
  <path d="M 383.0 198.0 L 482.0 198.0 Q 486.34999999999997 80.55 479.0 60.0 L 413.0 60.0 Q 427.7 141.75 383.0 153.0 Q 387.5 155.25 383.0 198.0 z" fill="rgb(255,217,194)" stroke="black"/>
  <text fill="rgb(9,33,173)" font-size="25" x="403.0" y="136.8">Rback</text>
  <path d="M 542.0 198.0 L 641.0 198.0 Q 636.5 155.25 641.0 153.0 Q 600.95 140.25 611.0 60.0 L 545.0 60.0 Q 537.65 80.55 542.0 198.0 z" fill="rgb(255,217,194)" stroke="black"/>
  <text fill="rgb(9,33,173)" font-size="25" x="571.0" y="136.8">Rfront</text>
  <path d="M 716.0 168.0 L 782.0 168.0 L 848.0 168.0 L 863.0 156.0 Q 821.0 132.0 851.0 60.0 L 797.0 60.0 Q 782.0 102.68527342256503 767.0 60.0 L 713.0 60.0 Q 743.0 132.0 701.0 156.0 L 716.0 168.0 z" fill="rgb(255,217,194)" stroke="black"/>
  <text fill="rgb(9,33,173)" font-size="25" x="757.0" y="120.33333333333333">up_back</text>
  <path d="M 938.0 165.0 L 1004.0 165.0 L 1070.0 165.0 L 1085.0 156.0 Q 1043.0 132.0 1073.0 60.0 L 1019.0 60.0 L 1004.0 75.0 L 989.0 60.0 L 935.0 60.0 Q 965.0 132.0 923.0 156.0 L 938.0 165.0 z" fill="rgb(255,217,194)" stroke="black"/>
  <text fill="rgb(9,33,173)" font-size="25" x="979.0" y="115.2">up_front</text>
  <path d="M 1145.0 198.0 L 1244.0 198.0 Q 1239.5 155.25 1244.0 153.0 Q 1199.3 141.75 1214.0 60.0 L 1148.0 60.0 Q 1140.6499999999999 80.55 1145.0 198.0 z" fill="rgb(255,217,194)" stroke="black"/>
  <text fill="rgb(9,33,173)" font-size="25" x="1174.0" y="136.8">Lback</text>
  <path d="M 1304.0 198.0 L 1403.0 198.0 Q 1407.3500000000001 80.55 1400.0 60.0 L 1334.0 60.0 Q 1344.05 140.25 1304.0 153.0 Q 1308.5 155.25 1304.0 198.0 z" fill="rgb(255,217,194)" stroke="black"/>
  <text fill="rgb(9,33,173)" font-size="25" x="1324.0" y="136.8">Lfront</text>
  <path d="M 1463.0 153.0 L 1550.0 156.0 Q 1592.0 132.0 1562.0 60.0 L 1463.0 60.0 L 1463.0 153.0 z" fill="rgb(255,217,194)" stroke="black"/>
  <text fill="rgb(9,33,173)" font-size="25" x="1484.5" y="110.25">lbsleeve</text>
  <path d="M 1624.5 156.0 L 1723.5 156.0 Q 1753.5 84.00000000000001 1711.5 60.0 L 1624.5 63.0 L 1624.5 156.0 z" fill="rgb(255,217,194)" stroke="black"/>
  <text fill="rgb(9,33,173)" font-size="25" x="1646.0" y="111.75">lfsleeve</text>
</svg>
