<?xml version="1.0" encoding="utf-8" ?>
<svg xmlns="http://www.w3.org/2000/svg" xmlns:ev="http://www.w3.org/2001/xml-events" xmlns:xlink="http://www.w3.org/1999/xlink" baseProfile="full" height="465px" version="1.1" width="1746px">
  <defs/>
  <path d="M 60 195 L 192 195 Q 214.8 135.6 180 117 L 60 60 L 60 195 z" fill="rgb(255,217,194)" stroke="black"/>
  <text fill="rgb(9,33,173)" font-size="25" x="98.0" y="144.75">rbsleeve</text>
  <path d="M 252 195 L 372 138 Q 406.8 119.39999999999999 384 60 L 252 60 L 252 195 z" fill="rgb(255,217,194)" stroke="black"/>
  <text fill="rgb(9,33,173)" font-size="25" x="290.0" y="116.25">rfsleeve</text>
  <path d="M 444 405 L 714 405 L 648 138 Q 613.1999999999999 119.39999999999999 636 60 L 612 60 L 579 69 L 546 60 L 522 60 Q 544.8000000000001 119.39999999999999 510 138 L 444 405 z" fill="rgb(255,217,194)" stroke="black"/>
  <text fill="rgb(9,33,173)" font-size="25" x="554.0" y="158.0">back</text>
  <path d="M 774 405 L 1044 405 L 978 138 Q 943.1999999999999 119.39999999999999 966 60 L 942 60 L 909 75 L 876 60 L 852 60 Q 874.8000000000001 119.39999999999999 840 138 L 774 405 z" fill="rgb(255,217,194)" stroke="black"/>
  <text fill="rgb(9,33,173)" font-size="25" x="884.0" y="158.66666666666666">front</text>
  <path d="M 1104 192 L 1158 183 Q 1227.3 159.6 1173 75 L 1140 84 L 1104 60 L 1104 192 z" fill="rgb(255,217,194)" stroke="black"/>
  <text fill="rgb(9,33,173)" font-size="25" x="1110.8" y="121.8">Rhood</text>
  <path d="M 1233 192 L 1269 168 L 1302 177 Q 1356.3 92.4 1287 69 L 1233 60 L 1233 192 z" fill="rgb(255,217,194)" stroke="black"/>
  <text fill="rgb(9,33,173)" font-size="25" x="1239.8" y="136.2">Lhood</text>
  <path d="M 1362 195 L 1482 138 Q 1516.8 119.39999999999999 1494 60 L 1362 60 L 1362 195 z" fill="rgb(255,217,194)" stroke="black"/>
  <text fill="rgb(9,33,173)" font-size="25" x="1400.0" y="116.25">lbsleeve</text>
  <path d="M 1554 195 L 1686 195 Q 1708.8 135.6 1674 117 L 1554 60 L 1554 195 z" fill="rgb(255,217,194)" stroke="black"/>
  <text fill="rgb(9,33,173)" font-size="25" x="1592.0" y="144.75">lfsleeve</text>
</svg>
