<?xml version="1.0" encoding="utf-8" ?>
<svg xmlns="http://www.w3.org/2000/svg" xmlns:ev="http://www.w3.org/2001/xml-events" xmlns:xlink="http://www.w3.org/1999/xlink" baseProfile="full" height="516.0px" version="1.1" width="1480.0px">
  <defs/>
  <path d="M 60 201 L 114 201 Q 148.8 120.60000000000001 102 93 L 60 60 L 60 201 z" fill="rgb(255,217,194)" stroke="black"/>
  <text fill="rgb(9,33,173)" font-size="25" x="59.0" y="141.75">rbsleeve</text>
  <path d="M 199.0 201.0 L 241.0 168.0 Q 287.8 140.4 253.0 60.0 L 199.0 60.0 L 199.0 201.0 z" fill="rgb(255,217,194)" stroke="black"/>
  <text fill="rgb(9,33,173)" font-size="25" x="198.0" y="125.25">rfsleeve</text>
  <path d="M 338.0 456.0 L 710.0 456.0 L 599.0 168.0 Q 552.1999999999999 140.4 587.0 60.0 L 548.0 60.0 Q 524.0 135.0853423600709 500.0 60.0 L 461.0 60.0 Q 495.8 140.4 449.0 168.0 L 338.0 456.0 z" fill="rgb(255,217,194)" stroke="black"/>
  <text fill="rgb(9,33,173)" font-size="25" x="499.0" y="189.0">back</text>
  <path d="M 770.0 456.0 L 1142.0 456.0 L 1031.0 168.0 Q 984.2 140.4 1019.0 60.0 L 980.0 60.0 L 956.0 108.0 L 932.0 60.0 L 893.0 60.0 Q 927.8000000000001 140.4 881.0 168.0 L 770.0 456.0 z" fill="rgb(255,217,194)" stroke="black"/>
  <text fill="rgb(9,33,173)" font-size="25" x="931.0" y="180.33333333333334">front</text>
  <path d="M 1202.0 201.0 L 1244.0 168.0 Q 1290.8 140.4 1256.0 60.0 L 1202.0 60.0 L 1202.0 201.0 z" fill="rgb(255,217,194)" stroke="black"/>
  <text fill="rgb(9,33,173)" font-size="25" x="1201.0" y="125.25">lbsleeve</text>
  <path d="M 1341.0 201.0 L 1395.0 201.0 Q 1429.8 120.60000000000001 1383.0 93.0 L 1341.0 60.0 L 1341.0 201.0 z" fill="rgb(255,217,194)" stroke="black"/>
  <text fill="rgb(9,33,173)" font-size="25" x="1340.0" y="141.75">lfsleeve</text>
</svg>
