<?xml version="1.0" encoding="utf-8" ?>
<svg xmlns="http://www.w3.org/2000/svg" xmlns:ev="http://www.w3.org/2001/xml-events" xmlns:xlink="http://www.w3.org/1999/xlink" baseProfile="full" height="270.0px" version="1.1" width="1202.0px">
  <defs/>
  <path d="M 60 204 L 84 204 Q 97.19999999999999 161.39999999999998 72 150 L 60 60 L 60 204 z" fill="rgb(255,217,194)" stroke="black"/>
  <text fill="rgb(9,33,173)" font-size="25" x="44.0" y="157.5">rbsleeve</text>
  <path d="M 184.0 204.0 L 196.0 114.0 Q 221.2 102.6 208.0 60.0 L 184.0 60.0 L 184.0 204.0 z" fill="rgb(255,217,194)" stroke="black"/>
  <text fill="rgb(9,33,173)" font-size="25" x="168.0" y="112.5">rfsleeve</text>
  <path d="M 308.0 210.0 L 410.0 210.0 L 410.0 72.0 L 380.0 60.0 L 353.0 60.0 Q 366.20000000000005 102.6 341.0 114.0 L 308.0 210.0 z" fill="rgb(255,217,194)" stroke="black"/>
  <text fill="rgb(9,33,173)" font-size="25" x="342.0" y="124.0">front_right</text>
  <path d="M 512.0 210.0 L 716.0 210.0 L 683.0 117.0 Q 656.6 104.7 671.0 60.0 L 644.0 60.0 Q 614.0 185.82930291555783 584.0 60.0 L 557.0 60.0 Q 571.4 104.7 545.0 117.0 L 512.0 210.0 z" fill="rgb(255,217,194)" stroke="black"/>
  <text fill="rgb(9,33,173)" font-size="25" x="589.0" y="114.75">back</text>
  <path d="M 776.0 210.0 L 878.0 210.0 L 845.0 114.0 Q 819.8 102.6 833.0 60.0 L 806.0 60.0 L 776.0 72.0 L 776.0 210.0 z" fill="rgb(255,217,194)" stroke="black"/>
  <text fill="rgb(9,33,173)" font-size="25" x="794.0" y="124.0">front_left</text>
  <path d="M 954.0 204.0 L 966.0 114.0 Q 991.2 102.6 978.0 60.0 L 954.0 60.0 L 954.0 204.0 z" fill="rgb(255,217,194)" stroke="black"/>
  <text fill="rgb(9,33,173)" font-size="25" x="938.0" y="112.5">lbsleeve</text>
  <path d="M 1078.0 204.0 L 1102.0 204.0 Q 1115.1999999999998 161.39999999999998 1090.0 150.0 L 1078.0 60.0 L 1078.0 204.0 z" fill="rgb(255,217,194)" stroke="black"/>
  <text fill="rgb(9,33,173)" font-size="25" x="1062.0" y="157.5">lfsleeve</text>
</svg>
