<?xml version="1.0" encoding="utf-8" ?>
<svg xmlns="http://www.w3.org/2000/svg" xmlns:ev="http://www.w3.org/2001/xml-events" xmlns:xlink="http://www.w3.org/1999/xlink" baseProfile="full" height="279px" version="1.1" width="1140px">
  <defs/>
  <path d="M 60 141 L 174 141 Q 189.6 94.2 162 81 L 60 60 L 60 141 z" fill="rgb(255,217,194)" stroke="black"/>
  <text fill="rgb(9,33,173)" font-size="25" x="89.0" y="108.75">rbsleeve</text>
  <path d="M 234 141 L 336 120 Q 363.6 106.8 348 60 L 234 60 L 234 141 z" fill="rgb(255,217,194)" stroke="black"/>
  <text fill="rgb(9,33,173)" font-size="25" x="263.0" y="98.25">rfsleeve</text>
  <path d="M 423 219 L 525 219 L 540 120 Q 512.4 106.8 528 60 L 492 60 Q 474.0 170.89980547340068 456 60 L 420 60 Q 435.6 106.8 408 120 L 423 219 z" fill="rgb(255,217,194)" stroke="black"/>
  <text fill="rgb(9,33,173)" font-size="25" x="449.0" y="117.75">back</text>
  <path d="M 615 219 L 717 219 L 732 120 Q 704.4 106.8 720 60 L 684 60 L 666 147 L 648 60 L 612 60 Q 627.6 106.8 600 120 L 615 219 z" fill="rgb(255,217,194)" stroke="black"/>
  <text fill="rgb(9,33,173)" font-size="25" x="641.0" y="121.33333333333333">front</text>
  <path d="M 792 141 L 894 120 Q 921.6 106.8 906 60 L 792 60 L 792 141 z" fill="rgb(255,217,194)" stroke="black"/>
  <text fill="rgb(9,33,173)" font-size="25" x="821.0" y="98.25">lbsleeve</text>
  <path d="M 966 141 L 1080 141 Q 1095.6 94.2 1068 81 L 966 60 L 966 141 z" fill="rgb(255,217,194)" stroke="black"/>
  <text fill="rgb(9,33,173)" font-size="25" x="995.0" y="108.75">lfsleeve</text>
</svg>
