<?xml version="1.0" encoding="utf-8" ?>
<svg xmlns="http://www.w3.org/2000/svg" xmlns:ev="http://www.w3.org/2001/xml-events" xmlns:xlink="http://www.w3.org/1999/xlink" baseProfile="full" height="249.0px" version="1.1" width="1619.0px">
  <defs/>
  <path d="M 60 138 L 120 138 Q 135.0 82.5 102 69 L 60 60 L 60 138 z" fill="rgb(255,217,194)" stroke="black"/>
  <text fill="rgb(9,33,173)" font-size="25" x="60.5" y="104.25">rbsleeve</text>
  <path d="M 200.5 138.0 L 242.5 129.0 Q 275.5 115.5 260.5 60.0 L 200.5 60.0 L 200.5 138.0 z" fill="rgb(255,217,194)" stroke="black"/>
  <text fill="rgb(9,33,173)" font-size="25" x="201.0" y="99.75">rfsleeve</text>
  <path d="M 341.0 189.0 Q 425.0 210.5164903886072 509.0 189.0 L 509.0 102.0 L 506.0 60.0 L 344.0 60.0 L 341.0 102.0 L 341.0 189.0 z" fill="rgb(255,217,194)" stroke="black"/>
  <text fill="rgb(9,33,173)" font-size="25" x="400.0" y="120.0">skirt_back</text>
  <path d="M 569.0 189.0 Q 653.0 222.18034264599396 737.0 189.0 L 737.0 102.0 L 734.0 60.0 L 572.0 60.0 L 569.0 102.0 L 569.0 189.0 z" fill="rgb(255,217,194)" stroke="black"/>
  <text fill="rgb(9,33,173)" font-size="25" x="628.0" y="120.0">skirt_front</text>
  <path d="M 822.0 168.0 L 984.0 168.0 L 1008.0 129.0 Q 975.0 115.5 990.0 60.0 L 957.0 60.0 Q 903.0 93.36151017911553 849.0 60.0 L 816.0 60.0 Q 831.0 115.5 798.0 129.0 L 822.0 168.0 z" fill="rgb(255,217,194)" stroke="black"/>
  <text fill="rgb(9,33,173)" font-size="25" x="878.0" y="107.25">top_back</text>
  <path d="M 1092.0 165.0 L 1254.0 165.0 L 1278.0 129.0 Q 1245.0 115.5 1260.0 60.0 L 1227.0 60.0 L 1173.0 102.0 L 1119.0 60.0 L 1086.0 60.0 Q 1101.0 115.5 1068.0 129.0 L 1092.0 165.0 z" fill="rgb(255,217,194)" stroke="black"/>
  <text fill="rgb(9,33,173)" font-size="25" x="1148.0" y="106.33333333333333">top_front</text>
  <path d="M 1338.0 138.0 L 1380.0 129.0 Q 1413.0 115.5 1398.0 60.0 L 1338.0 60.0 L 1338.0 138.0 z" fill="rgb(255,217,194)" stroke="black"/>
  <text fill="rgb(9,33,173)" font-size="25" x="1338.5" y="99.75">lbsleeve</text>
  <path d="M 1478.5 138.0 L 1538.5 138.0 Q 1553.5 82.5 1520.5 69.0 L 1478.5 60.0 L 1478.5 138.0 z" fill="rgb(255,217,194)" stroke="black"/>
  <text fill="rgb(9,33,173)" font-size="25" x="1479.0" y="104.25">lfsleeve</text>
</svg>
