<?xml version="1.0" encoding="utf-8" ?>
<svg xmlns="http://www.w3.org/2000/svg" xmlns:ev="http://www.w3.org/2001/xml-events" xmlns:xlink="http://www.w3.org/1999/xlink" baseProfile="full" height="270px" version="1.1" width="1320px">
  <defs/>
  <path d="M 60 210 Q 234.0 349.73579267673847 408 210 L 312 102 L 306 60 L 162 60 L 156 102 L 60 210 z" fill="rgb(255,217,194)" stroke="black"/>
  <text fill="rgb(9,33,173)" font-size="25" x="209.0" y="127.0">skirt_back</text>
  <path d="M 468 210 Q 642.0 279.5082291527547 816 210 L 720 102 L 714 60 L 570 60 L 564 102 L 468 210 z" fill="rgb(255,217,194)" stroke="black"/>
  <text fill="rgb(9,33,173)" font-size="25" x="617.0" y="127.0">skirt_front</text>
  <path d="M 885 168 L 1029 168 L 1038 123 Q 1009.2 108.89999999999999 1026 60 L 1002 60 Q 957.0 134.7148744937863 912 60 L 888 60 Q 904.8000000000001 108.89999999999999 876 123 L 885 168 z" fill="rgb(255,217,194)" stroke="black"/>
  <text fill="rgb(9,33,173)" font-size="25" x="932.0" y="105.75">top_back</text>
  <path d="M 1107 165 L 1251 165 L 1260 123 Q 1231.2 108.89999999999999 1248 60 L 1224 60 L 1179 84 L 1134 60 L 1110 60 Q 1126.8 108.89999999999999 1098 123 L 1107 165 z" fill="rgb(255,217,194)" stroke="black"/>
  <text fill="rgb(9,33,173)" font-size="25" x="1154.0" y="103.0">top_front</text>
</svg>
