<?xml version="1.0" encoding="utf-8" ?>
<svg xmlns="http://www.w3.org/2000/svg" xmlns:ev="http://www.w3.org/2001/xml-events" xmlns:xlink="http://www.w3.org/1999/xlink" baseProfile="full" height="318px" version="1.1" width="1474.0px">
  <defs/>
  <path d="M 60 258 L 330 258 L 330 60 L 60 60 L 60 258 z" fill="rgb(255,217,194)" stroke="black"/>
  <text fill="rgb(9,33,173)" font-size="25" x="170.0" y="162.0">skirt_back</text>
  <path d="M 390 78 L 480 78 L 480 60 L 390 60 L 390 78 z" fill="rgb(255,217,194)" stroke="black"/>
  <text fill="rgb(9,33,173)" font-size="25" x="410.0" y="72.0">wb_back</text>
  <path d="M 540 78 L 630 78 L 630 60 L 540 60 L 540 78 z" fill="rgb(255,217,194)" stroke="black"/>
  <text fill="rgb(9,33,173)" font-size="25" x="560.0" y="72.0">wb_front</text>
  <path d="M 700.0 258.0 L 970.0 258.0 L 970.0 60.0 L 700.0 60.0 L 700.0 258.0 z" fill="rgb(255,217,194)" stroke="black"/>
  <text fill="rgb(9,33,173)" font-size="25" x="810.0" y="162.0">skirt_front</text>
  <path d="M 1030.0 168.0 L 1192.0 168.0 L 1192.0 147.0 Q 1153.6000000000001 125.7 1180.0 60.0 L 1126.0 60.0 Q 1111.0 93.69575756166233 1096.0 60.0 L 1042.0 60.0 Q 1068.3999999999999 125.7 1030.0 147.0 L 1030.0 168.0 z" fill="rgb(255,217,194)" stroke="black"/>
  <text fill="rgb(9,33,173)" font-size="25" x="1086.0" y="111.75">top_back</text>
  <path d="M 1252.0 168.0 L 1414.0 168.0 L 1414.0 144.0 Q 1376.8000000000002 123.6 1402.0 60.0 L 1348.0 60.0 L 1333.0 135.0 L 1318.0 60.0 L 1264.0 60.0 Q 1289.1999999999998 123.6 1252.0 144.0 L 1252.0 168.0 z" fill="rgb(255,217,194)" stroke="black"/>
  <text fill="rgb(9,33,173)" font-size="25" x="1308.0" y="114.0">top_front</text>
</svg>
