<?xml version="1.0" encoding="utf-8" ?>
<svg xmlns="http://www.w3.org/2000/svg" xmlns:ev="http://www.w3.org/2001/xml-events" xmlns:xlink="http://www.w3.org/1999/xlink" baseProfile="full" height="279px" version="1.1" width="1488px">
  <defs/>
  <path d="M 60 219 L 165 219 Q 176.1 175.2 150 165 L 60 60 L 60 219 z" fill="rgb(255,217,194)" stroke="black"/>
  <text fill="rgb(9,33,173)" font-size="25" x="83.75" y="168.75">rbsleeve</text>
  <path d="M 225 219 L 315 114 Q 341.1 103.8 330 60 L 225 60 L 225 219 z" fill="rgb(255,217,194)" stroke="black"/>
  <text fill="rgb(9,33,173)" font-size="25" x="248.75" y="116.25">rfsleeve</text>
  <path d="M 399 180 L 561 180 L 570 117 Q 543.6 104.7 558 60 L 522 60 L 480 69 L 438 60 L 402 60 Q 416.40000000000003 104.7 390 117 L 399 180 z" fill="rgb(255,217,194)" stroke="black"/>
  <text fill="rgb(9,33,173)" font-size="25" x="455.0" y="103.33333333333333">back</text>
  <path d="M 639 180 L 801 180 L 810 114 Q 784.8 102.6 798 60 L 762 60 L 720 63 L 678 60 L 642 60 Q 655.2 102.6 630 114 L 639 180 z" fill="rgb(255,217,194)" stroke="black"/>
  <text fill="rgb(9,33,173)" font-size="25" x="695.0" y="102.0">front</text>
  <path d="M 879 138 L 918 144 Q 979.1999999999999 140.4 954 60 L 915 69 L 870 60 L 879 138 z" fill="rgb(255,217,194)" stroke="black"/>
  <text fill="rgb(9,33,173)" font-size="25" x="882.2" y="97.2">Rhood</text>
  <path d="M 1014 144 L 1059 135 L 1098 144 Q 1123.2 63.60000000000001 1062 60 L 1023 66 L 1014 144 z" fill="rgb(255,217,194)" stroke="black"/>
  <text fill="rgb(9,33,173)" font-size="25" x="1026.2" y="112.8">Lhood</text>
  <path d="M 1158 219 L 1248 114 Q 1274.1 103.8 1263 60 L 1158 60 L 1158 219 z" fill="rgb(255,217,194)" stroke="black"/>
  <text fill="rgb(9,33,173)" font-size="25" x="1181.75" y="116.25">lbsleeve</text>
  <path d="M 1323 219 L 1428 219 Q 1439.1 175.2 1413 165 L 1323 60 L 1323 219 z" fill="rgb(255,217,194)" stroke="black"/>
  <text fill="rgb(9,33,173)" font-size="25" x="1346.75" y="168.75">lfsleeve</text>
</svg>
