<?xml version="1.0" encoding="utf-8" ?>
<svg xmlns="http://www.w3.org/2000/svg" xmlns:ev="http://www.w3.org/2001/xml-events" xmlns:xlink="http://www.w3.org/1999/xlink" baseProfile="full" height="429px" version="1.1" width="787.0px">
  <defs/>
  <path d="M 60 369 L 189 369 L 189 69 L 141 60 L 111 60 Q 132.9 122.69999999999999 96 141 L 60 369 z" fill="rgb(255,217,194)" stroke="black"/>
  <text fill="rgb(9,33,173)" font-size="25" x="106.0" y="181.0">front_right</text>
  <path d="M 276.0 369.0 L 534.0 369.0 L 498.0 141.0 Q 461.1 122.7 483.0 60.0 L 453.0 60.0 Q 405.0 176.2087992652762 357.0 60.0 L 327.0 60.0 Q 348.9 122.69999999999999 312.0 141.0 L 276.0 369.0 z" fill="rgb(255,217,194)" stroke="black"/>
  <text fill="rgb(9,33,173)" font-size="25" x="380.0" y="160.5">back</text>
  <path d="M 594.0 369.0 L 723.0 369.0 L 687.0 141.0 Q 650.1 122.7 672.0 60.0 L 642.0 60.0 L 594.0 69.0 L 594.0 369.0 z" fill="rgb(255,217,194)" stroke="black"/>
  <text fill="rgb(9,33,173)" font-size="25" x="627.0" y="181.0">front_left</text>
</svg>
