<?xml version="1.0" encoding="utf-8" ?>
<svg xmlns="http://www.w3.org/2000/svg" xmlns:ev="http://www.w3.org/2001/xml-events" xmlns:xlink="http://www.w3.org/1999/xlink" baseProfile="full" height="414.0px" version="1.1" width="1301.0px">
  <defs/>
  <path d="M 60 192 L 111 192 Q 125.39999999999999 147.29999999999998 99 135 L 60 60 L 60 192 z" fill="rgb(255,217,194)" stroke="black"/>
  <text fill="rgb(9,33,173)" font-size="25" x="57.5" y="147.75">rbsleeve</text>
  <path d="M 197.5 192.0 L 236.5 117.0 Q 262.9 104.7 248.5 60.0 L 197.5 60.0 L 197.5 192.0 z" fill="rgb(255,217,194)" stroke="black"/>
  <text fill="rgb(9,33,173)" font-size="25" x="195.0" y="110.25">rfsleeve</text>
  <path d="M 335.0 354.0 L 452.0 354.0 L 452.0 75.0 L 413.0 60.0 L 383.0 60.0 Q 396.20000000000005 102.6 371.0 114.0 L 335.0 354.0 z" fill="rgb(255,217,194)" stroke="black"/>
  <text fill="rgb(9,33,173)" font-size="25" x="376.0" y="172.5">front_right</text>
  <path d="M 546.0 354.0 L 780.0 354.0 L 744.0 117.0 Q 717.6 104.7 732.0 60.0 L 702.0 60.0 Q 663.0 219.5857821902584 624.0 60.0 L 594.0 60.0 Q 608.4 104.7 582.0 117.0 L 546.0 354.0 z" fill="rgb(255,217,194)" stroke="black"/>
  <text fill="rgb(9,33,173)" font-size="25" x="638.0" y="150.75">back</text>
  <path d="M 840.0 354.0 L 957.0 354.0 L 921.0 114.0 Q 895.8 102.6 909.0 60.0 L 879.0 60.0 L 840.0 75.0 L 840.0 354.0 z" fill="rgb(255,217,194)" stroke="black"/>
  <text fill="rgb(9,33,173)" font-size="25" x="866.0" y="172.5">front_left</text>
  <path d="M 1026.0 192.0 L 1065.0 117.0 Q 1091.3999999999999 104.7 1077.0 60.0 L 1026.0 60.0 L 1026.0 192.0 z" fill="rgb(255,217,194)" stroke="black"/>
  <text fill="rgb(9,33,173)" font-size="25" x="1023.5" y="110.25">lbsleeve</text>
  <path d="M 1163.5 192.0 L 1214.5 192.0 Q 1228.8999999999999 147.29999999999998 1202.5 135.0 L 1163.5 60.0 L 1163.5 192.0 z" fill="rgb(255,217,194)" stroke="black"/>
  <text fill="rgb(9,33,173)" font-size="25" x="1161.0" y="147.75">lfsleeve</text>
</svg>
