<?xml version="1.0" encoding="utf-8" ?>
<svg xmlns="http://www.w3.org/2000/svg" xmlns:ev="http://www.w3.org/2001/xml-events" xmlns:xlink="http://www.w3.org/1999/xlink" baseProfile="full" height="426px" version="1.1" width="783.5px">
  <defs/>
  <path d="M 60 366 L 186 366 L 186 105 L 171 60 L 126 60 Q 145.2 113.1 114 129 L 60 366 z" fill="rgb(255,217,194)" stroke="black"/>
  <text fill="rgb(9,33,173)" font-size="25" x="115.5" y="184.0">front_right</text>
  <path d="M 285.5 366.0 L 537.5 366.0 L 483.5 129.0 Q 452.29999999999995 113.1 471.5 60.0 L 426.5 60.0 Q 411.5 91.34512352360613 396.5 60.0 L 351.5 60.0 Q 370.70000000000005 113.1 339.5 129.0 L 285.5 366.0 z" fill="rgb(255,217,194)" stroke="black"/>
  <text fill="rgb(9,33,173)" font-size="25" x="386.5" y="156.75">back</text>
  <path d="M 597.5 366.0 L 723.5 366.0 L 669.5 129.0 Q 638.3 113.1 657.5 60.0 L 612.5 60.0 L 597.5 105.0 L 597.5 366.0 z" fill="rgb(255,217,194)" stroke="black"/>
  <text fill="rgb(9,33,173)" font-size="25" x="618.0" y="184.0">front_left</text>
</svg>
