<?xml version="1.0" encoding="utf-8" ?>
<svg xmlns="http://www.w3.org/2000/svg" xmlns:ev="http://www.w3.org/2001/xml-events" xmlns:xlink="http://www.w3.org/1999/xlink" baseProfile="full" height="252.0px" version="1.1" width="1294.0px">
  <defs/>
  <path d="M 60 174 L 264 174 L 264 60 L 60 60 L 60 174 z" fill="rgb(255,217,194)" stroke="black"/>
  <text fill="rgb(9,33,173)" font-size="25" x="137.0" y="120.0">skirt_back</text>
  <path d="M 324 72 L 414 72 L 414 60 L 324 60 L 324 72 z" fill="rgb(255,217,194)" stroke="black"/>
  <text fill="rgb(9,33,173)" font-size="25" x="344.0" y="69.0">wb_back</text>
  <path d="M 474 72 L 564 72 L 564 60 L 474 60 L 474 72 z" fill="rgb(255,217,194)" stroke="black"/>
  <text fill="rgb(9,33,173)" font-size="25" x="494.0" y="69.0">wb_front</text>
  <path d="M 634.0 174.0 L 838.0 174.0 L 838.0 60.0 L 634.0 60.0 L 634.0 174.0 z" fill="rgb(255,217,194)" stroke="black"/>
  <text fill="rgb(9,33,173)" font-size="25" x="711.0" y="120.0">skirt_front</text>
  <path d="M 898.0 192.0 L 1036.0 192.0 L 1036.0 135.0 Q 1002.4000000000001 117.3 1024.0 60.0 L 1006.0 60.0 Q 967.0 110.15638645614249 928.0 60.0 L 910.0 60.0 Q 931.6 117.3 898.0 135.0 L 898.0 192.0 z" fill="rgb(255,217,194)" stroke="black"/>
  <text fill="rgb(9,33,173)" font-size="25" x="942.0" y="114.75">top_back</text>
  <path d="M 1096.0 192.0 L 1234.0 192.0 L 1234.0 135.0 Q 1200.4 117.3 1222.0 60.0 L 1204.0 60.0 L 1165.0 129.0 L 1126.0 60.0 L 1108.0 60.0 Q 1129.6 117.3 1096.0 135.0 L 1096.0 192.0 z" fill="rgb(255,217,194)" stroke="black"/>
  <text fill="rgb(9,33,173)" font-size="25" x="1140.0" y="116.66666666666667">top_front</text>
</svg>
