<?xml version="1.0" encoding="utf-8" ?>
<svg xmlns="http://www.w3.org/2000/svg" xmlns:ev="http://www.w3.org/2001/xml-events" xmlns:xlink="http://www.w3.org/1999/xlink" baseProfile="full" height="297px" version="1.1" width="1522.0px">
  <defs/>
  <path d="M 60 237 L 177 237 L 195 60 L 90 60 Q 101.1 135.0 60 144 Q 69.3 148.65 60 237 z" fill="rgb(255,217,194)" stroke="black"/>
  <text fill="rgb(9,33,173)" font-size="25" x="91.4" y="150.6">Rback</text>
  <path d="M 273 237 L 390 237 Q 380.7 148.65 390 144 Q 353.1 133.5 360 60 L 255 60 L 273 237 z" fill="rgb(255,217,194)" stroke="black"/>
  <text fill="rgb(9,33,173)" font-size="25" x="308.6" y="150.6">Rfront</text>
  <path d="M 450 78 L 489 78 L 528 78 L 528 60 L 450 60 L 450 78 z" fill="rgb(255,217,194)" stroke="black"/>
  <text fill="rgb(9,33,173)" font-size="25" x="464.0" y="73.8">wb_back</text>
  <path d="M 594.0 78.0 L 633.0 78.0 L 672.0 78.0 L 672.0 60.0 L 594.0 60.0 L 594.0 78.0 z" fill="rgb(255,217,194)" stroke="black"/>
  <text fill="rgb(9,33,173)" font-size="25" x="608.0" y="73.8">wb_front</text>
  <path d="M 748.0 174.0 L 880.0 174.0 L 880.0 114.0 Q 855.6999999999999 101.39999999999999 871.0 60.0 L 850.0 60.0 Q 814.0 117.68841810383148 778.0 60.0 L 757.0 60.0 Q 772.3000000000001 101.39999999999999 748.0 114.0 L 748.0 174.0 z" fill="rgb(255,217,194)" stroke="black"/>
  <text fill="rgb(9,33,173)" font-size="25" x="789.0" y="105.0">top_back</text>
  <path d="M 940.0 171.0 L 1072.0 171.0 L 1072.0 114.0 Q 1047.7 101.39999999999999 1063.0 60.0 L 1042.0 60.0 L 1006.0 120.0 L 970.0 60.0 L 949.0 60.0 Q 964.3000000000001 101.39999999999999 940.0 114.0 L 940.0 171.0 z" fill="rgb(255,217,194)" stroke="black"/>
  <text fill="rgb(9,33,173)" font-size="25" x="981.0" y="106.33333333333333">top_front</text>
  <path d="M 1150.0 237.0 L 1267.0 237.0 Q 1257.7 148.65 1267.0 144.0 Q 1225.9 135.0 1237.0 60.0 L 1132.0 60.0 L 1150.0 237.0 z" fill="rgb(255,217,194)" stroke="black"/>
  <text fill="rgb(9,33,173)" font-size="25" x="1185.6" y="150.6">Lback</text>
  <path d="M 1327.0 237.0 L 1444.0 237.0 L 1462.0 60.0 L 1357.0 60.0 Q 1363.9 133.5 1327.0 144.0 Q 1336.3 148.65 1327.0 237.0 z" fill="rgb(255,217,194)" stroke="black"/>
  <text fill="rgb(9,33,173)" font-size="25" x="1358.4" y="150.6">Lfront</text>
</svg>
