<?xml version="1.0" encoding="utf-8" ?>
<svg xmlns="http://www.w3.org/2000/svg" xmlns:ev="http://www.w3.org/2001/xml-events" xmlns:xlink="http://www.w3.org/1999/xlink" baseProfile="full" height="276.0px" version="1.1" width="1048.0px">
  <defs/>
  <path d="M 60 204 L 174 204 L 174 108 L 129 60 L 93 60 Q 118.5 129.0 78 150 L 60 204 z" fill="rgb(255,217,194)" stroke="black"/>
  <text fill="rgb(9,33,173)" font-size="25" x="93.0" y="134.0">front_right</text>
  <path d="M 275.0 216.0 L 302.0 213.0 Q 386.59999999999997 211.20000000000002 356.0 99.0 L 311.0 108.0 L 263.0 60.0 L 275.0 216.0 z" fill="rgb(255,217,194)" stroke="black"/>
  <text fill="rgb(9,33,173)" font-size="25" x="276.4" y="142.2">Rhood</text>
  <path d="M 416.0 204.0 L 644.0 204.0 L 626.0 150.0 Q 585.5 129.0 611.0 60.0 L 575.0 60.0 L 530.0 69.0 L 485.0 60.0 L 449.0 60.0 Q 474.5 129.0 434.0 150.0 L 416.0 204.0 z" fill="rgb(255,217,194)" stroke="black"/>
  <text fill="rgb(9,33,173)" font-size="25" x="505.0" y="116.0">back</text>
  <path d="M 704.0 216.0 L 752.0 168.0 L 797.0 177.0 Q 827.6 64.80000000000001 743.0 63.0 L 716.0 60.0 L 704.0 216.0 z" fill="rgb(255,217,194)" stroke="black"/>
  <text fill="rgb(9,33,173)" font-size="25" x="717.4" y="139.8">Lhood</text>
  <path d="M 857.0 204.0 L 971.0 204.0 L 953.0 150.0 Q 912.5 129.0 938.0 60.0 L 902.0 60.0 L 857.0 108.0 L 857.0 204.0 z" fill="rgb(255,217,194)" stroke="black"/>
  <text fill="rgb(9,33,173)" font-size="25" x="888.0" y="134.0">front_left</text>
</svg>
