<?xml version="1.0" encoding="utf-8" ?>
<svg xmlns="http://www.w3.org/2000/svg" xmlns:ev="http://www.w3.org/2001/xml-events" xmlns:xlink="http://www.w3.org/1999/xlink" baseProfile="full" height="312px" version="1.1" width="895.0px">
  <defs/>
  <path d="M 66 252 Q 138.0 252.8980583320516 210 252 L 216 102 L 198 60 L 78 60 L 60 102 L 66 252 z" fill="rgb(255,217,194)" stroke="black"/>
  <text fill="rgb(9,33,173)" font-size="25" x="113.0" y="141.0">skirt_back</text>
  <path d="M 282 252 Q 354.0 242.81495350733238 426 252 L 432 102 L 414 60 L 294 60 L 276 102 L 282 252 z" fill="rgb(255,217,194)" stroke="black"/>
  <text fill="rgb(9,33,173)" font-size="25" x="329.0" y="141.0">skirt_front</text>
  <path d="M 508.0 168.0 L 628.0 168.0 L 637.0 144.0 Q 600.6999999999999 122.39999999999999 628.0 60.0 L 601.0 60.0 Q 568.0 142.39141757750383 535.0 60.0 L 508.0 60.0 Q 535.3 122.39999999999999 499.0 144.0 L 508.0 168.0 z" fill="rgb(255,217,194)" stroke="black"/>
  <text fill="rgb(9,33,173)" font-size="25" x="543.0" y="111.0">top_back</text>
  <path d="M 706.0 165.0 L 826.0 165.0 L 835.0 144.0 Q 798.6999999999999 122.39999999999999 826.0 60.0 L 799.0 60.0 L 766.0 126.0 L 733.0 60.0 L 706.0 60.0 Q 733.3000000000001 122.39999999999999 697.0 144.0 L 706.0 165.0 z" fill="rgb(255,217,194)" stroke="black"/>
  <text fill="rgb(9,33,173)" font-size="25" x="741.0" y="112.33333333333333">top_front</text>
</svg>
