<?xml version="1.0" encoding="utf-8" ?>
<svg xmlns="http://www.w3.org/2000/svg" xmlns:ev="http://www.w3.org/2001/xml-events" xmlns:xlink="http://www.w3.org/1999/xlink" baseProfile="full" height="348px" version="1.1" width="1174.0px">
  <defs/>
  <path d="M 60 288 L 216 288 L 216 60 L 60 60 L 60 288 z" fill="rgb(255,217,194)" stroke="black"/>
  <text fill="rgb(9,33,173)" font-size="25" x="113.0" y="177.0">skirt_back</text>
  <path d="M 276 81 L 366 81 L 366 60 L 276 60 L 276 81 z" fill="rgb(255,217,194)" stroke="black"/>
  <text fill="rgb(9,33,173)" font-size="25" x="296.0" y="73.5">wb_back</text>
  <path d="M 426 81 L 516 81 L 516 60 L 426 60 L 426 81 z" fill="rgb(255,217,194)" stroke="black"/>
  <text fill="rgb(9,33,173)" font-size="25" x="446.0" y="73.5">wb_front</text>
  <path d="M 586.0 288.0 L 742.0 288.0 L 742.0 60.0 L 586.0 60.0 L 586.0 288.0 z" fill="rgb(255,217,194)" stroke="black"/>
  <text fill="rgb(9,33,173)" font-size="25" x="639.0" y="177.0">skirt_front</text>
  <path d="M 809.0 162.0 L 929.0 162.0 L 929.0 150.0 Q 889.4 127.8 917.0 60.0 L 902.0 60.0 Q 869.0 134.32369033266988 836.0 60.0 L 821.0 60.0 Q 848.6 127.8 809.0 150.0 L 809.0 162.0 z" fill="rgb(255,217,194)" stroke="black"/>
  <text fill="rgb(9,33,173)" font-size="25" x="844.0" y="111.0">top_back</text>
  <path d="M 989.0 162.0 L 1109.0 162.0 L 1109.0 150.0 Q 1069.4 127.8 1097.0 60.0 L 1082.0 60.0 L 1049.0 141.0 L 1016.0 60.0 L 1001.0 60.0 Q 1028.6 127.8 989.0 150.0 L 989.0 162.0 z" fill="rgb(255,217,194)" stroke="black"/>
  <text fill="rgb(9,33,173)" font-size="25" x="1024.0" y="114.66666666666667">top_front</text>
</svg>
