<?xml version="1.0" encoding="utf-8" ?>
<svg xmlns="http://www.w3.org/2000/svg" xmlns:ev="http://www.w3.org/2001/xml-events" xmlns:xlink="http://www.w3.org/1999/xlink" baseProfile="full" height="324.0px" version="1.1" width="1510.0px">
  <defs/>
  <path d="M 60 180 L 75 180 Q 114.6 91.2 63 60 L 60 90 L 60 180 z" fill="rgb(255,217,194)" stroke="black"/>
  <text fill="rgb(9,33,173)" font-size="25" x="39.5" y="130.5">rbsleeve</text>
  <path d="M 179.5 150.0 L 182.5 180.0 Q 234.1 148.8 194.5 60.0 L 179.5 60.0 L 179.5 150.0 z" fill="rgb(255,217,194)" stroke="black"/>
  <text fill="rgb(9,33,173)" font-size="25" x="159.0" y="115.5">rfsleeve</text>
  <path d="M 299.0 264.0 L 599.0 264.0 L 521.0 180.0 Q 469.4 148.8 509.0 60.0 L 479.0 60.0 L 449.0 69.0 L 419.0 60.0 L 389.0 60.0 Q 428.6 148.8 377.0 180.0 L 299.0 264.0 z" fill="rgb(255,217,194)" stroke="black"/>
  <text fill="rgb(9,33,173)" font-size="25" x="424.0" y="136.0">back</text>
  <path d="M 659.0 264.0 L 959.0 264.0 L 881.0 180.0 Q 829.4 148.8 869.0 60.0 L 839.0 60.0 L 809.0 87.0 L 779.0 60.0 L 749.0 60.0 Q 788.6 148.8 737.0 180.0 L 659.0 264.0 z" fill="rgb(255,217,194)" stroke="black"/>
  <text fill="rgb(9,33,173)" font-size="25" x="784.0" y="138.0">front</text>
  <path d="M 1019.0 189.0 L 1085.0 183.0 Q 1146.2 152.4 1085.0 81.0 L 1055.0 90.0 L 1022.0 60.0 L 1019.0 189.0 z" fill="rgb(255,217,194)" stroke="black"/>
  <text fill="rgb(9,33,173)" font-size="25" x="1028.2" y="123.6">Rhood</text>
  <path d="M 1148.0 189.0 L 1181.0 159.0 L 1211.0 168.0 Q 1272.2 96.60000000000001 1211.0 66.0 L 1145.0 60.0 L 1148.0 189.0 z" fill="rgb(255,217,194)" stroke="black"/>
  <text fill="rgb(9,33,173)" font-size="25" x="1154.2" y="131.4">Lhood</text>
  <path d="M 1271.0 150.0 L 1274.0 180.0 Q 1325.6 148.8 1286.0 60.0 L 1271.0 60.0 L 1271.0 150.0 z" fill="rgb(255,217,194)" stroke="black"/>
  <text fill="rgb(9,33,173)" font-size="25" x="1250.5" y="115.5">lbsleeve</text>
  <path d="M 1390.5 180.0 L 1405.5 180.0 Q 1445.1 91.2 1393.5 60.0 L 1390.5 90.0 L 1390.5 180.0 z" fill="rgb(255,217,194)" stroke="black"/>
  <text fill="rgb(9,33,173)" font-size="25" x="1370.0" y="130.5">lfsleeve</text>
</svg>
