<?xml version="1.0" encoding="utf-8" ?>
<svg xmlns="http://www.w3.org/2000/svg" xmlns:ev="http://www.w3.org/2001/xml-events" xmlns:xlink="http://www.w3.org/1999/xlink" baseProfile="full" height="279px" version="1.1" width="952.0px">
  <defs/>
  <path d="M 63 219 L 144 219 L 144 78 L 99 60 L 72 60 Q 93.6 117.3 60 135 L 63 219 z" fill="rgb(255,217,194)" stroke="black"/>
  <text fill="rgb(9,33,173)" font-size="25" x="72.0" y="131.5">front_right</text>
  <path d="M 254.0 159.0 L 293.0 162.0 Q 360.5 157.5 332.0 69.0 L 290.0 78.0 L 242.0 60.0 L 254.0 159.0 z" fill="rgb(255,217,194)" stroke="black"/>
  <text fill="rgb(9,33,173)" font-size="25" x="257.2" y="108.6">Rhood</text>
  <path d="M 395.0 219.0 L 557.0 219.0 L 560.0 135.0 Q 526.4 117.3 548.0 60.0 L 521.0 60.0 L 476.0 69.0 L 431.0 60.0 L 404.0 60.0 Q 425.6 117.3 392.0 135.0 L 395.0 219.0 z" fill="rgb(255,217,194)" stroke="black"/>
  <text fill="rgb(9,33,173)" font-size="25" x="451.0" y="116.0">back</text>
  <path d="M 620.0 162.0 L 668.0 144.0 L 710.0 153.0 Q 738.5 64.5 671.0 60.0 L 632.0 63.0 L 620.0 162.0 z" fill="rgb(255,217,194)" stroke="black"/>
  <text fill="rgb(9,33,173)" font-size="25" x="635.2" y="119.4">Lhood</text>
  <path d="M 770.0 219.0 L 851.0 219.0 L 854.0 135.0 Q 820.4 117.3 842.0 60.0 L 815.0 60.0 L 770.0 78.0 L 770.0 219.0 z" fill="rgb(255,217,194)" stroke="black"/>
  <text fill="rgb(9,33,173)" font-size="25" x="792.0" y="131.5">front_left</text>
</svg>
