<?xml version="1.0" encoding="utf-8" ?>
<svg xmlns="http://www.w3.org/2000/svg" xmlns:ev="http://www.w3.org/2001/xml-events" xmlns:xlink="http://www.w3.org/1999/xlink" baseProfile="full" height="300.0px" version="1.1" width="1696.0px">
  <defs/>
  <path d="M 60 222 L 132 222 Q 141.6 185.7 120 177 L 60 60 L 60 222 z" fill="rgb(255,217,194)" stroke="black"/>
  <text fill="rgb(9,33,173)" font-size="25" x="68.0" y="173.25">rbsleeve</text>
  <path d="M 208.0 222.0 L 268.0 105.0 Q 289.6 96.3 280.0 60.0 L 208.0 60.0 L 208.0 222.0 z" fill="rgb(255,217,194)" stroke="black"/>
  <text fill="rgb(9,33,173)" font-size="25" x="216.0" y="114.75">rfsleeve</text>
  <path d="M 356.0 240.0 L 431.0 240.0 Q 457.85 88.05 452.0 60.0 L 386.0 60.0 Q 400.7 141.75 356.0 153.0 Q 364.7 157.35 356.0 240.0 z" fill="rgb(255,217,194)" stroke="black"/>
  <text fill="rgb(9,33,173)" font-size="25" x="371.2" y="153.6">Rback</text>
  <path d="M 533.0 240.0 L 608.0 240.0 Q 599.3 157.35000000000002 608.0 153.0 Q 567.95 140.25 578.0 60.0 L 512.0 60.0 Q 506.15 88.05 533.0 240.0 z" fill="rgb(255,217,194)" stroke="black"/>
  <text fill="rgb(9,33,173)" font-size="25" x="542.8" y="153.6">Rfront</text>
  <path d="M 677.0 168.0 L 743.0 168.0 L 809.0 168.0 L 818.0 105.0 Q 796.4 96.3 806.0 60.0 L 770.0 60.0 Q 743.0 109.81885845031563 716.0 60.0 L 680.0 60.0 Q 689.6 96.3 668.0 105.0 L 677.0 168.0 z" fill="rgb(255,217,194)" stroke="black"/>
  <text fill="rgb(9,33,173)" font-size="25" x="718.0" y="109.0">up_back</text>
  <path d="M 887.0 165.0 L 953.0 165.0 L 1019.0 165.0 L 1028.0 105.0 Q 1006.4000000000001 96.3 1016.0 60.0 L 980.0 60.0 L 953.0 99.0 L 926.0 60.0 L 890.0 60.0 Q 899.6 96.3 878.0 105.0 L 887.0 165.0 z" fill="rgb(255,217,194)" stroke="black"/>
  <text fill="rgb(9,33,173)" font-size="25" x="928.0" y="107.4">up_front</text>
  <path d="M 1109.0 240.0 L 1184.0 240.0 Q 1175.3 157.35000000000002 1184.0 153.0 Q 1139.3 141.75 1154.0 60.0 L 1088.0 60.0 Q 1082.15 88.05 1109.0 240.0 z" fill="rgb(255,217,194)" stroke="black"/>
  <text fill="rgb(9,33,173)" font-size="25" x="1118.8" y="153.6">Lback</text>
  <path d="M 1244.0 240.0 L 1319.0 240.0 Q 1345.85 88.05 1340.0 60.0 L 1274.0 60.0 Q 1284.05 140.25 1244.0 153.0 Q 1252.7 157.35 1244.0 240.0 z" fill="rgb(255,217,194)" stroke="black"/>
  <text fill="rgb(9,33,173)" font-size="25" x="1259.2" y="153.6">Lfront</text>
  <path d="M 1400.0 222.0 L 1460.0 105.0 Q 1481.6 96.3 1472.0 60.0 L 1400.0 60.0 L 1400.0 222.0 z" fill="rgb(255,217,194)" stroke="black"/>
  <text fill="rgb(9,33,173)" font-size="25" x="1408.0" y="114.75">lbsleeve</text>
  <path d="M 1548.0 222.0 L 1620.0 222.0 Q 1629.6 185.7 1608.0 177.0 L 1548.0 60.0 L 1548.0 222.0 z" fill="rgb(255,217,194)" stroke="black"/>
  <text fill="rgb(9,33,173)" font-size="25" x="1556.0" y="173.25">lfsleeve</text>
</svg>
