<?xml version="1.0" encoding="utf-8" ?>
<svg xmlns="http://www.w3.org/2000/svg" xmlns:ev="http://www.w3.org/2001/xml-events" xmlns:xlink="http://www.w3.org/1999/xlink" baseProfile="full" height="225px" version="1.1" width="1546.0px">
  <defs/>
  <path d="M 60 165 L 384 165 L 384 60 L 60 60 L 60 165 z" fill="rgb(255,217,194)" stroke="black"/>
  <text fill="rgb(9,33,173)" font-size="25" x="197.0" y="115.5">skirt_back</text>
  <path d="M 444 75 L 534 75 L 534 60 L 444 60 L 444 75 z" fill="rgb(255,217,194)" stroke="black"/>
  <text fill="rgb(9,33,173)" font-size="25" x="464.0" y="70.5">wb_back</text>
  <path d="M 594 75 L 684 75 L 684 60 L 594 60 L 594 75 z" fill="rgb(255,217,194)" stroke="black"/>
  <text fill="rgb(9,33,173)" font-size="25" x="614.0" y="70.5">wb_front</text>
  <path d="M 754.0 165.0 L 1078.0 165.0 L 1078.0 60.0 L 754.0 60.0 L 754.0 165.0 z" fill="rgb(255,217,194)" stroke="black"/>
  <text fill="rgb(9,33,173)" font-size="25" x="891.0" y="115.5">skirt_front</text>
  <path d="M 1138.0 165.0 L 1282.0 165.0 L 1282.0 144.0 Q 1244.8000000000002 123.6 1270.0 60.0 L 1228.0 60.0 Q 1210.0 90.01383296869795 1192.0 60.0 L 1150.0 60.0 Q 1175.1999999999998 123.6 1138.0 144.0 L 1138.0 165.0 z" fill="rgb(255,217,194)" stroke="black"/>
  <text fill="rgb(9,33,173)" font-size="25" x="1185.0" y="110.25">top_back</text>
  <path d="M 1342.0 165.0 L 1486.0 165.0 L 1486.0 144.0 Q 1448.8000000000002 123.6 1474.0 60.0 L 1432.0 60.0 L 1414.0 111.0 L 1396.0 60.0 L 1354.0 60.0 Q 1379.1999999999998 123.6 1342.0 144.0 L 1342.0 165.0 z" fill="rgb(255,217,194)" stroke="black"/>
  <text fill="rgb(9,33,173)" font-size="25" x="1389.0" y="110.66666666666667">top_front</text>
</svg>
