<?xml version="1.0" encoding="utf-8" ?>
<svg xmlns="http://www.w3.org/2000/svg" xmlns:ev="http://www.w3.org/2001/xml-events" xmlns:xlink="http://www.w3.org/1999/xlink" baseProfile="full" height="375px" version="1.1" width="1176px">
  <defs/>
  <path d="M 60 315 Q 210.0 328.93872397718957 360 315 L 285 102 L 264 60 L 156 60 L 135 102 L 60 315 z" fill="rgb(255,217,194)" stroke="black"/>
  <text fill="rgb(9,33,173)" font-size="25" x="185.0" y="162.0">skirt_back</text>
  <path d="M 420 315 Q 570.0 192.1076473129254 720 315 L 645 102 L 624 60 L 516 60 L 495 102 L 420 315 z" fill="rgb(255,217,194)" stroke="black"/>
  <text fill="rgb(9,33,173)" font-size="25" x="545.0" y="162.0">skirt_front</text>
  <path d="M 795 168 L 903 168 L 918 138 Q 884.0999999999999 118.19999999999999 909 60 L 864 60 Q 849.0 83.29451558988957 834 60 L 789 60 Q 813.9000000000001 118.19999999999999 780 138 L 795 168 z" fill="rgb(255,217,194)" stroke="black"/>
  <text fill="rgb(9,33,173)" font-size="25" x="824.0" y="109.5">top_back</text>
  <path d="M 993 165 L 1101 165 L 1116 138 Q 1082.1 118.19999999999999 1107 60 L 1062 60 L 1047 114 L 1032 60 L 987 60 Q 1011.9000000000001 118.19999999999999 978 138 L 993 165 z" fill="rgb(255,217,194)" stroke="black"/>
  <text fill="rgb(9,33,173)" font-size="25" x="1022.0" y="109.66666666666667">top_front</text>
</svg>
