<?xml version="1.0" encoding="utf-8" ?>
<svg xmlns="http://www.w3.org/2000/svg" xmlns:ev="http://www.w3.org/2001/xml-events" xmlns:xlink="http://www.w3.org/1999/xlink" baseProfile="full" height="279px" version="1.1" width="1510.0px">
  <defs/>
  <path d="M 60 219 L 348 219 L 348 60 L 60 60 L 60 219 z" fill="rgb(255,217,194)" stroke="black"/>
  <text fill="rgb(9,33,173)" font-size="25" x="179.0" y="142.5">skirt_back</text>
  <path d="M 408 69 L 498 69 L 498 60 L 408 60 L 408 69 z" fill="rgb(255,217,194)" stroke="black"/>
  <text fill="rgb(9,33,173)" font-size="25" x="428.0" y="67.5">wb_back</text>
  <path d="M 558 69 L 648 69 L 648 60 L 558 60 L 558 69 z" fill="rgb(255,217,194)" stroke="black"/>
  <text fill="rgb(9,33,173)" font-size="25" x="578.0" y="67.5">wb_front</text>
  <path d="M 718.0 219.0 L 1006.0 219.0 L 1006.0 60.0 L 718.0 60.0 L 718.0 219.0 z" fill="rgb(255,217,194)" stroke="black"/>
  <text fill="rgb(9,33,173)" font-size="25" x="837.0" y="142.5">skirt_front</text>
  <path d="M 1066.0 171.0 L 1228.0 171.0 L 1228.0 123.0 Q 1199.2 108.89999999999999 1216.0 60.0 L 1162.0 60.0 Q 1147.0 100.05877587182478 1132.0 60.0 L 1078.0 60.0 Q 1094.8 108.89999999999999 1066.0 123.0 L 1066.0 171.0 z" fill="rgb(255,217,194)" stroke="black"/>
  <text fill="rgb(9,33,173)" font-size="25" x="1122.0" y="106.5">top_back</text>
  <path d="M 1288.0 171.0 L 1450.0 171.0 L 1450.0 123.0 Q 1421.2 108.89999999999999 1438.0 60.0 L 1384.0 60.0 L 1369.0 90.0 L 1354.0 60.0 L 1300.0 60.0 Q 1316.8 108.89999999999999 1288.0 123.0 L 1288.0 171.0 z" fill="rgb(255,217,194)" stroke="black"/>
  <text fill="rgb(9,33,173)" font-size="25" x="1344.0" y="105.0">top_front</text>
</svg>
