<?xml version="1.0" encoding="utf-8" ?>
<svg xmlns="http://www.w3.org/2000/svg" xmlns:ev="http://www.w3.org/2001/xml-events" xmlns:xlink="http://www.w3.org/1999/xlink" baseProfile="full" height="318px" version="1.1" width="1486.0px">
  <defs/>
  <path d="M 60 258 L 186 258 L 186 60 L 90 60 Q 98.7 130.5 60 138 Q 72.0 144.0 60 258 z" fill="rgb(255,217,194)" stroke="black"/>
  <text fill="rgb(9,33,173)" font-size="25" x="91.4" y="157.8">Rback</text>
  <path d="M 246 258 L 372 258 Q 360.0 144.0 372 138 Q 337.2 129.0 342 60 L 246 60 L 246 258 z" fill="rgb(255,217,194)" stroke="black"/>
  <text fill="rgb(9,33,173)" font-size="25" x="290.6" y="157.8">Rfront</text>
  <path d="M 432 75 L 471 75 L 510 75 L 510 60 L 432 60 L 432 75 z" fill="rgb(255,217,194)" stroke="black"/>
  <text fill="rgb(9,33,173)" font-size="25" x="446.0" y="72.0">wb_back</text>
  <path d="M 576.0 75.0 L 615.0 75.0 L 654.0 75.0 L 654.0 60.0 L 576.0 60.0 L 576.0 75.0 z" fill="rgb(255,217,194)" stroke="black"/>
  <text fill="rgb(9,33,173)" font-size="25" x="590.0" y="72.0">wb_front</text>
  <path d="M 730.0 171.0 L 862.0 171.0 L 862.0 120.0 Q 834.4 106.8 850.0 60.0 L 820.0 60.0 Q 796.0 103.38968801838496 772.0 60.0 L 742.0 60.0 Q 757.6 106.8 730.0 120.0 L 730.0 171.0 z" fill="rgb(255,217,194)" stroke="black"/>
  <text fill="rgb(9,33,173)" font-size="25" x="771.0" y="105.75">top_back</text>
  <path d="M 922.0 171.0 L 1054.0 171.0 L 1054.0 120.0 Q 1026.4 106.8 1042.0 60.0 L 1012.0 60.0 L 988.0 135.0 L 964.0 60.0 L 934.0 60.0 Q 949.6 106.8 922.0 120.0 L 922.0 171.0 z" fill="rgb(255,217,194)" stroke="black"/>
  <text fill="rgb(9,33,173)" font-size="25" x="963.0" y="109.33333333333333">top_front</text>
  <path d="M 1114.0 258.0 L 1240.0 258.0 Q 1228.0 144.0 1240.0 138.0 Q 1201.3 130.5 1210.0 60.0 L 1114.0 60.0 L 1114.0 258.0 z" fill="rgb(255,217,194)" stroke="black"/>
  <text fill="rgb(9,33,173)" font-size="25" x="1158.6" y="157.8">Lback</text>
  <path d="M 1300.0 258.0 L 1426.0 258.0 L 1426.0 60.0 L 1330.0 60.0 Q 1334.8 129.0 1300.0 138.0 Q 1312.0 144.0 1300.0 258.0 z" fill="rgb(255,217,194)" stroke="black"/>
  <text fill="rgb(9,33,173)" font-size="25" x="1331.4" y="157.8">Lfront</text>
</svg>
