<?xml version="1.0" encoding="utf-8" ?>
<svg xmlns="http://www.w3.org/2000/svg" xmlns:ev="http://www.w3.org/2001/xml-events" xmlns:xlink="http://www.w3.org/1999/xlink" baseProfile="full" height="336px" version="1.1" width="1446.0px">
  <defs/>
  <path d="M 60 276 L 360 276 L 360 60 L 60 60 L 60 276 z" fill="rgb(255,217,194)" stroke="black"/>
  <text fill="rgb(9,33,173)" font-size="25" x="185.0" y="171.0">skirt_back</text>
  <path d="M 420 78 L 510 78 L 510 60 L 420 60 L 420 78 z" fill="rgb(255,217,194)" stroke="black"/>
  <text fill="rgb(9,33,173)" font-size="25" x="440.0" y="72.0">wb_back</text>
  <path d="M 570 78 L 660 78 L 660 60 L 570 60 L 570 78 z" fill="rgb(255,217,194)" stroke="black"/>
  <text fill="rgb(9,33,173)" font-size="25" x="590.0" y="72.0">wb_front</text>
  <path d="M 730.0 276.0 L 1030.0 276.0 L 1030.0 60.0 L 730.0 60.0 L 730.0 276.0 z" fill="rgb(255,217,194)" stroke="black"/>
  <text fill="rgb(9,33,173)" font-size="25" x="855.0" y="171.0">skirt_front</text>
  <path d="M 1090.0 171.0 L 1204.0 171.0 L 1204.0 144.0 Q 1167.7 122.39999999999999 1195.0 60.0 L 1162.0 60.0 Q 1147.0 94.61926678706806 1132.0 60.0 L 1099.0 60.0 Q 1126.3 122.39999999999999 1090.0 144.0 L 1090.0 171.0 z" fill="rgb(255,217,194)" stroke="black"/>
  <text fill="rgb(9,33,173)" font-size="25" x="1122.0" y="111.75">top_back</text>
  <path d="M 1264.0 171.0 L 1378.0 171.0 L 1378.0 144.0 Q 1341.7 122.39999999999999 1369.0 60.0 L 1336.0 60.0 L 1321.0 87.0 L 1306.0 60.0 L 1273.0 60.0 Q 1300.3 122.39999999999999 1264.0 144.0 L 1264.0 171.0 z" fill="rgb(255,217,194)" stroke="black"/>
  <text fill="rgb(9,33,173)" font-size="25" x="1296.0" y="109.33333333333333">top_front</text>
</svg>
