<?xml version="1.0" encoding="utf-8" ?>
<svg xmlns="http://www.w3.org/2000/svg" xmlns:ev="http://www.w3.org/2001/xml-events" xmlns:xlink="http://www.w3.org/1999/xlink" baseProfile="full" height="468px" version="1.1" width="1047.0px">
  <defs/>
  <path d="M 60 408 L 186 408 L 186 63 L 177 60 L 138 60 Q 172.5 134.99999999999997 129 162 L 60 408 z" fill="rgb(255,217,194)" stroke="black"/>
  <text fill="rgb(9,33,173)" font-size="25" x="121.0" y="196.5">front_right</text>
  <path d="M 291.0 174.0 L 360.0 165.0 Q 416.7 120.9 339.0 60.0 L 327.0 69.0 L 315.0 66.0 L 291.0 174.0 z" fill="rgb(255,217,194)" stroke="black"/>
  <text fill="rgb(9,33,173)" font-size="25" x="301.4" y="109.8">Rhood</text>
  <path d="M 420.0 408.0 L 672.0 408.0 L 603.0 162.0 Q 559.5 135.0 594.0 60.0 L 555.0 60.0 L 546.0 69.0 L 537.0 60.0 L 498.0 60.0 Q 532.5 134.99999999999997 489.0 162.0 L 420.0 408.0 z" fill="rgb(255,217,194)" stroke="black"/>
  <text fill="rgb(9,33,173)" font-size="25" x="521.0" y="164.0">back</text>
  <path d="M 756.0 168.0 L 768.0 165.0 L 780.0 174.0 Q 857.7 113.1 801.0 69.0 L 732.0 60.0 L 756.0 168.0 z" fill="rgb(255,217,194)" stroke="black"/>
  <text fill="rgb(9,33,173)" font-size="25" x="742.4" y="130.2">Lhood</text>
  <path d="M 861.0 408.0 L 987.0 408.0 L 918.0 162.0 Q 874.5 135.0 909.0 60.0 L 870.0 60.0 L 861.0 63.0 L 861.0 408.0 z" fill="rgb(255,217,194)" stroke="black"/>
  <text fill="rgb(9,33,173)" font-size="25" x="876.0" y="196.5">front_left</text>
</svg>
