<?xml version="1.0" encoding="utf-8" ?>
<svg xmlns="http://www.w3.org/2000/svg" xmlns:ev="http://www.w3.org/2001/xml-events" xmlns:xlink="http://www.w3.org/1999/xlink" baseProfile="full" height="531px" version="1.1" width="1650px">
  <defs/>
  <path d="M 60 156 L 177 156 Q 186.9 114.30000000000001 162 105 L 60 60 L 60 156 z" fill="rgb(255,217,194)" stroke="black"/>
  <text fill="rgb(9,33,173)" font-size="25" x="89.75" y="122.25">rbsleeve</text>
  <path d="M 237 156 L 339 111 Q 363.9 101.7 354 60 L 237 60 L 237 156 z" fill="rgb(255,217,194)" stroke="black"/>
  <text fill="rgb(9,33,173)" font-size="25" x="266.75" y="99.75">rfsleeve</text>
  <path d="M 414 471 L 648 471 L 618 114 Q 591.9 103.8 603 60 L 576 60 L 531 69 L 486 60 L 459 60 Q 470.1 103.8 444 114 L 414 471 z" fill="rgb(255,217,194)" stroke="black"/>
  <text fill="rgb(9,33,173)" font-size="25" x="506.0" y="167.33333333333334">back</text>
  <path d="M 708 471 L 942 471 L 912 114 Q 885.9 103.8 897 60 L 870 60 L 825 66 L 780 60 L 753 60 Q 764.1 103.8 738 114 L 708 471 z" fill="rgb(255,217,194)" stroke="black"/>
  <text fill="rgb(9,33,173)" font-size="25" x="800.0" y="167.0">front</text>
  <path d="M 1011 162 L 1065 162 Q 1131.6000000000001 146.70000000000002 1089 63 L 1047 72 L 1002 60 L 1011 162 z" fill="rgb(255,217,194)" stroke="black"/>
  <text fill="rgb(9,33,173)" font-size="25" x="1017.8" y="106.8">Rhood</text>
  <path d="M 1149 162 L 1194 150 L 1236 159 Q 1278.6000000000001 75.30000000000001 1212 60 L 1158 60 L 1149 162 z" fill="rgb(255,217,194)" stroke="black"/>
  <text fill="rgb(9,33,173)" font-size="25" x="1164.8" y="121.2">Lhood</text>
  <path d="M 1296 156 L 1398 111 Q 1422.9 101.7 1413 60 L 1296 60 L 1296 156 z" fill="rgb(255,217,194)" stroke="black"/>
  <text fill="rgb(9,33,173)" font-size="25" x="1325.75" y="99.75">lbsleeve</text>
  <path d="M 1473 156 L 1590 156 Q 1599.9 114.30000000000001 1575 105 L 1473 60 L 1473 156 z" fill="rgb(255,217,194)" stroke="black"/>
  <text fill="rgb(9,33,173)" font-size="25" x="1502.75" y="122.25">lfsleeve</text>
</svg>
