<?xml version="1.0" encoding="utf-8" ?>
<svg xmlns="http://www.w3.org/2000/svg" xmlns:ev="http://www.w3.org/2001/xml-events" xmlns:xlink="http://www.w3.org/1999/xlink" baseProfile="full" height="267px" version="1.1" width="1176px">
  <defs/>
  <path d="M 60 207 L 105 207 Q 165.9 85.2 168 60 L 90 60 Q 104.7 141.75 60 153 Q 65.4 155.7 60 207 z" fill="rgb(255,217,194)" stroke="black"/>
  <text fill="rgb(9,33,173)" font-size="25" x="71.6" y="140.4">Rback</text>
  <path d="M 291 207 L 336 207 Q 330.6 155.7 336 153 Q 295.95 140.25 306 60 L 228 60 Q 230.1 85.2 291 207 z" fill="rgb(255,217,194)" stroke="black"/>
  <text fill="rgb(9,33,173)" font-size="25" x="274.4" y="140.4">Rfront</text>
  <path d="M 396 168 L 477 168 L 558 168 L 549 111 Q 525.0 100.5 537 60 L 498 60 Q 477.0 115.56463529957307 456 60 L 417 60 Q 429.0 100.49999999999999 405 111 L 396 168 z" fill="rgb(255,217,194)" stroke="black"/>
  <text fill="rgb(9,33,173)" font-size="25" x="452.0" y="110.33333333333333">up_back</text>
  <path d="M 618 165 L 699 165 L 780 165 L 771 111 Q 747.0 100.5 759 60 L 720 60 L 699 141 L 678 60 L 639 60 Q 651.0 100.49999999999999 627 111 L 618 165 z" fill="rgb(255,217,194)" stroke="black"/>
  <text fill="rgb(9,33,173)" font-size="25" x="674.0" y="112.8">up_front</text>
  <path d="M 903 207 L 948 207 Q 942.6 155.7 948 153 Q 903.3 141.75 918 60 L 840 60 Q 842.1 85.2 903 207 z" fill="rgb(255,217,194)" stroke="black"/>
  <text fill="rgb(9,33,173)" font-size="25" x="886.4" y="140.4">Lback</text>
  <path d="M 1008 207 L 1053 207 Q 1113.8999999999999 85.2 1116 60 L 1038 60 Q 1048.05 140.25 1008 153 Q 1013.4 155.7 1008 207 z" fill="rgb(255,217,194)" stroke="black"/>
  <text fill="rgb(9,33,173)" font-size="25" x="1019.5999999999999" y="140.4">Lfront</text>
</svg>
