<?xml version="1.0" encoding="utf-8" ?>
<svg xmlns="http://www.w3.org/2000/svg" xmlns:ev="http://www.w3.org/2001/xml-events" xmlns:xlink="http://www.w3.org/1999/xlink" baseProfile="full" height="282px" version="1.1" width="1702.0px">
  <defs/>
  <path d="M 60 222 L 225 222 L 204 60 L 90 60 Q 101.1 135.0 60 144 Q 67.8 147.9 60 222 z" fill="rgb(255,217,194)" stroke="black"/>
  <text fill="rgb(9,33,173)" font-size="25" x="102.8" y="144.6">Rback</text>
  <path d="M 285 222 L 450 222 Q 442.2 147.9 450 144 Q 413.1 133.5 420 60 L 306 60 L 285 222 z" fill="rgb(255,217,194)" stroke="black"/>
  <text fill="rgb(9,33,173)" font-size="25" x="357.2" y="144.6">Rfront</text>
  <path d="M 510 75 L 549 75 L 588 75 L 588 60 L 510 60 L 510 75 z" fill="rgb(255,217,194)" stroke="black"/>
  <text fill="rgb(9,33,173)" font-size="25" x="524.0" y="72.0">wb_back</text>
  <path d="M 654.0 75.0 L 693.0 75.0 L 732.0 75.0 L 732.0 60.0 L 654.0 60.0 L 654.0 75.0 z" fill="rgb(255,217,194)" stroke="black"/>
  <text fill="rgb(9,33,173)" font-size="25" x="668.0" y="72.0">wb_front</text>
  <path d="M 808.0 183.0 L 970.0 183.0 L 970.0 117.0 Q 943.6 104.7 958.0 60.0 L 925.0 60.0 Q 889.0 129.4505259887211 853.0 60.0 L 820.0 60.0 Q 834.4 104.7 808.0 117.0 L 808.0 183.0 z" fill="rgb(255,217,194)" stroke="black"/>
  <text fill="rgb(9,33,173)" font-size="25" x="864.0" y="108.0">top_back</text>
  <path d="M 1030.0 183.0 L 1192.0 183.0 L 1192.0 114.0 Q 1166.8000000000002 102.6 1180.0 60.0 L 1147.0 60.0 L 1111.0 78.0 L 1075.0 60.0 L 1042.0 60.0 Q 1055.1999999999998 102.6 1030.0 114.0 L 1030.0 183.0 z" fill="rgb(255,217,194)" stroke="black"/>
  <text fill="rgb(9,33,173)" font-size="25" x="1086.0" y="104.33333333333333">top_front</text>
  <path d="M 1252.0 222.0 L 1417.0 222.0 Q 1409.2 147.9 1417.0 144.0 Q 1375.9 135.0 1387.0 60.0 L 1273.0 60.0 L 1252.0 222.0 z" fill="rgb(255,217,194)" stroke="black"/>
  <text fill="rgb(9,33,173)" font-size="25" x="1324.2" y="144.6">Lback</text>
  <path d="M 1477.0 222.0 L 1642.0 222.0 L 1621.0 60.0 L 1507.0 60.0 Q 1513.9 133.5 1477.0 144.0 Q 1484.8 147.9 1477.0 222.0 z" fill="rgb(255,217,194)" stroke="black"/>
  <text fill="rgb(9,33,173)" font-size="25" x="1519.8" y="144.6">Lfront</text>
</svg>
