<?xml version="1.0" encoding="utf-8" ?>
<svg xmlns="http://www.w3.org/2000/svg" xmlns:ev="http://www.w3.org/2001/xml-events" xmlns:xlink="http://www.w3.org/1999/xlink" baseProfile="full" height="531px" version="1.1" width="871.0px">
  <defs/>
  <path d="M 63 471 L 129 471 L 129 78 L 108 60 L 69 60 Q 109.5 145.49999999999997 60 177 L 63 471 z" fill="rgb(255,217,194)" stroke="black"/>
  <text fill="rgb(9,33,173)" font-size="25" x="68.0" y="222.5">front_right</text>
  <path d="M 238.0 162.0 L 310.0 165.0 Q 364.0 129.0 298.0 69.0 L 274.0 78.0 L 250.0 60.0 L 238.0 162.0 z" fill="rgb(255,217,194)" stroke="black"/>
  <text fill="rgb(9,33,173)" font-size="25" x="249.0" y="109.8">Rhood</text>
  <path d="M 373.0 471.0 L 505.0 471.0 L 508.0 177.0 Q 458.5 145.5 499.0 60.0 L 460.0 60.0 L 439.0 69.0 L 418.0 60.0 L 379.0 60.0 Q 419.5 145.49999999999997 370.0 177.0 L 373.0 471.0 z" fill="rgb(255,217,194)" stroke="black"/>
  <text fill="rgb(9,33,173)" font-size="25" x="414.0" y="181.33333333333334">back</text>
  <path d="M 580.0 165.0 L 604.0 147.0 L 628.0 156.0 Q 694.0 96.00000000000001 640.0 60.0 L 568.0 63.0 L 580.0 165.0 z" fill="rgb(255,217,194)" stroke="black"/>
  <text fill="rgb(9,33,173)" font-size="25" x="579.0" y="121.2">Lhood</text>
  <path d="M 700.0 471.0 L 766.0 471.0 L 769.0 177.0 Q 719.5 145.5 760.0 60.0 L 721.0 60.0 L 700.0 78.0 L 700.0 471.0 z" fill="rgb(255,217,194)" stroke="black"/>
  <text fill="rgb(9,33,173)" font-size="25" x="711.0" y="222.5">front_left</text>
</svg>
