<?xml version="1.0" encoding="utf-8" ?>
<svg xmlns="http://www.w3.org/2000/svg" xmlns:ev="http://www.w3.org/2001/xml-events" xmlns:xlink="http://www.w3.org/1999/xlink" baseProfile="full" height="462px" version="1.1" width="616.0px">
  <defs/>
  <path d="M 60 402 L 132 402 L 132 120 L 120 60 L 72 60 Q 106.80000000000001 140.4 60 168 L 60 402 z" fill="rgb(255,217,194)" stroke="black"/>
  <text fill="rgb(9,33,173)" font-size="25" x="71.0" y="205.0">front_right</text>
  <path d="M 241.0 402.0 L 385.0 402.0 L 385.0 168.0 Q 338.2 140.4 373.0 60.0 L 325.0 60.0 Q 313.0 93.45409357873737 301.0 60.0 L 253.0 60.0 Q 287.8 140.4 241.0 168.0 L 241.0 402.0 z" fill="rgb(255,217,194)" stroke="black"/>
  <text fill="rgb(9,33,173)" font-size="25" x="288.0" y="175.5">back</text>
  <path d="M 445.0 402.0 L 517.0 402.0 L 517.0 168.0 Q 470.2 140.4 505.0 60.0 L 457.0 60.0 L 445.0 120.0 L 445.0 402.0 z" fill="rgb(255,217,194)" stroke="black"/>
  <text fill="rgb(9,33,173)" font-size="25" x="456.0" y="205.0">front_left</text>
</svg>
