<?xml version="1.0" encoding="utf-8" ?>
<svg xmlns="http://www.w3.org/2000/svg" xmlns:ev="http://www.w3.org/2001/xml-events" xmlns:xlink="http://www.w3.org/1999/xlink" baseProfile="full" height="438px" version="1.1" width="991.0px">
  <defs/>
  <path d="M 60 378 L 177 378 L 177 93 L 162 60 L 111 60 Q 128.1 114.3 96 129 L 60 378 z" fill="rgb(255,217,194)" stroke="black"/>
  <text fill="rgb(9,33,173)" font-size="25" x="105.5" y="186.0">front_right</text>
  <path d="M 275.5 198.0 L 335.5 192.0 Q 398.5 156.0 329.5 84.0 L 311.5 93.0 L 293.5 60.0 L 275.5 198.0 z" fill="rgb(255,217,194)" stroke="black"/>
  <text fill="rgb(9,33,173)" font-size="25" x="284.1" y="128.4">Rhood</text>
  <path d="M 395.5 378.0 L 629.5 378.0 L 593.5 129.0 Q 561.4 114.3 578.5 60.0 L 527.5 60.0 L 512.5 69.0 L 497.5 60.0 L 446.5 60.0 Q 463.6 114.3 431.5 129.0 L 395.5 378.0 z" fill="rgb(255,217,194)" stroke="black"/>
  <text fill="rgb(9,33,173)" font-size="25" x="487.5" y="150.0">back</text>
  <path d="M 707.5 198.0 L 725.5 165.0 L 743.5 174.0 Q 812.5 102.0 749.5 66.0 L 689.5 60.0 L 707.5 198.0 z" fill="rgb(255,217,194)" stroke="black"/>
  <text fill="rgb(9,33,173)" font-size="25" x="698.1" y="135.6">Lhood</text>
  <path d="M 809.5 378.0 L 926.5 378.0 L 890.5 129.0 Q 858.4 114.3 875.5 60.0 L 824.5 60.0 L 809.5 93.0 L 809.5 378.0 z" fill="rgb(255,217,194)" stroke="black"/>
  <text fill="rgb(9,33,173)" font-size="25" x="831.0" y="186.0">front_left</text>
</svg>
