<?xml version="1.0" encoding="utf-8" ?>
<svg xmlns="http://www.w3.org/2000/svg" xmlns:ev="http://www.w3.org/2001/xml-events" xmlns:xlink="http://www.w3.org/1999/xlink" baseProfile="full" height="411px" version="1.1" width="1140px">
  <defs/>
  <path d="M 60 351 L 168 351 Q 167.25 102.75 150 60 L 90 60 Q 104.7 141.75 60 153 Q 79.8 162.9 60 351 z" fill="rgb(255,217,194)" stroke="black"/>
  <text fill="rgb(9,33,173)" font-size="25" x="80.6" y="198.0">Rback</text>
  <path d="M 228 351 L 336 351 Q 316.2 162.9 336 153 Q 295.95 140.25 306 60 L 246 60 Q 228.75 102.75 228 351 z" fill="rgb(255,217,194)" stroke="black"/>
  <text fill="rgb(9,33,173)" font-size="25" x="265.4" y="198.0">Rfront</text>
  <path d="M 408 168 L 468 168 L 528 168 L 540 153 Q 499.2 129.9 528 60 L 486 60 Q 468.0 68.0279542335983 450 60 L 408 60 Q 436.8 129.9 396 153 L 408 168 z" fill="rgb(255,217,194)" stroke="black"/>
  <text fill="rgb(9,33,173)" font-size="25" x="443.0" y="119.66666666666667">up_back</text>
  <path d="M 612 165 L 672 165 L 732 165 L 744 150 Q 704.4 127.8 732 60 L 690 60 L 672 108 L 654 60 L 612 60 Q 639.6 127.8 600 150 L 612 165 z" fill="rgb(255,217,194)" stroke="black"/>
  <text fill="rgb(9,33,173)" font-size="25" x="647.0" y="117.3">up_front</text>
  <path d="M 804 351 L 912 351 Q 892.2 162.9 912 153 Q 867.3 141.75 882 60 L 822 60 Q 804.75 102.75 804 351 z" fill="rgb(255,217,194)" stroke="black"/>
  <text fill="rgb(9,33,173)" font-size="25" x="841.4" y="198.0">Lback</text>
  <path d="M 972 351 L 1080 351 Q 1079.25 102.75 1062 60 L 1002 60 Q 1012.05 140.25 972 153 Q 991.8 162.9 972 351 z" fill="rgb(255,217,194)" stroke="black"/>
  <text fill="rgb(9,33,173)" font-size="25" x="992.6" y="198.0">Lfront</text>
</svg>
