<?xml version="1.0" encoding="utf-8" ?>
<svg xmlns="http://www.w3.org/2000/svg" xmlns:ev="http://www.w3.org/2001/xml-events" xmlns:xlink="http://www.w3.org/1999/xlink" baseProfile="full" height="402.0px" version="1.1" width="1348.0px">
  <defs/>
  <path d="M 60 180 L 132 180 Q 171.6 91.2 120 60 L 60 78 L 60 180 z" fill="rgb(255,217,194)" stroke="black"/>
  <text fill="rgb(9,33,173)" font-size="25" x="68.0" y="127.5">rbsleeve</text>
  <path d="M 208.0 162.0 L 268.0 180.0 Q 319.6 148.8 280.0 60.0 L 208.0 60.0 L 208.0 162.0 z" fill="rgb(255,217,194)" stroke="black"/>
  <text fill="rgb(9,33,173)" font-size="25" x="216.0" y="118.5">rfsleeve</text>
  <path d="M 377.0 342.0 L 485.0 342.0 L 506.0 180.0 Q 454.4 148.8 494.0 60.0 L 470.0 60.0 L 431.0 69.0 L 392.0 60.0 L 368.0 60.0 Q 407.6 148.8 356.0 180.0 L 377.0 342.0 z" fill="rgb(255,217,194)" stroke="black"/>
  <text fill="rgb(9,33,173)" font-size="25" x="406.0" y="153.33333333333334">back</text>
  <path d="M 587.0 339.0 L 695.0 339.0 L 716.0 180.0 Q 664.4 148.8 704.0 60.0 L 680.0 60.0 L 641.0 90.0 L 602.0 60.0 L 578.0 60.0 Q 617.6 148.8 566.0 180.0 L 587.0 339.0 z" fill="rgb(255,217,194)" stroke="black"/>
  <text fill="rgb(9,33,173)" font-size="25" x="616.0" y="155.0">front</text>
  <path d="M 782.0 183.0 L 851.0 183.0 Q 911.3 155.10000000000002 854.0 84.0 L 818.0 93.0 L 776.0 60.0 L 782.0 183.0 z" fill="rgb(255,217,194)" stroke="black"/>
  <text fill="rgb(9,33,173)" font-size="25" x="791.2" y="123.6">Rhood</text>
  <path d="M 914.0 183.0 L 956.0 150.0 L 992.0 159.0 Q 1049.3 87.9 989.0 60.0 L 920.0 60.0 L 914.0 183.0 z" fill="rgb(255,217,194)" stroke="black"/>
  <text fill="rgb(9,33,173)" font-size="25" x="929.2" y="125.4">Lhood</text>
  <path d="M 1052.0 162.0 L 1112.0 180.0 Q 1163.6 148.8 1124.0 60.0 L 1052.0 60.0 L 1052.0 162.0 z" fill="rgb(255,217,194)" stroke="black"/>
  <text fill="rgb(9,33,173)" font-size="25" x="1060.0" y="118.5">lbsleeve</text>
  <path d="M 1200.0 180.0 L 1272.0 180.0 Q 1311.6 91.2 1260.0 60.0 L 1200.0 78.0 L 1200.0 180.0 z" fill="rgb(255,217,194)" stroke="black"/>
  <text fill="rgb(9,33,173)" font-size="25" x="1208.0" y="127.5">lfsleeve</text>
</svg>
