<?xml version="1.0" encoding="utf-8" ?>
<svg xmlns="http://www.w3.org/2000/svg" xmlns:ev="http://www.w3.org/2001/xml-events" xmlns:xlink="http://www.w3.org/1999/xlink" baseProfile="full" height="285px" version="1.1" width="1836px">
  <defs/>
  <path d="M 60 162 L 174 162 Q 200.4 96.3 162 75 L 60 60 L 60 162 z" fill="rgb(255,217,194)" stroke="black"/>
  <text fill="rgb(9,33,173)" font-size="25" x="89.0" y="117.75">rbsleeve</text>
  <path d="M 234 162 L 336 147 Q 374.40000000000003 125.7 348 60 L 234 60 L 234 162 z" fill="rgb(255,217,194)" stroke="black"/>
  <text fill="rgb(9,33,173)" font-size="25" x="263.0" y="110.25">rfsleeve</text>
  <path d="M 408 225 L 510 225 Q 520.8 84.9 513 60 L 438 60 Q 452.7 141.75 408 153 Q 415.2 156.6 408 225 z" fill="rgb(255,217,194)" stroke="black"/>
  <text fill="rgb(9,33,173)" font-size="25" x="430.4" y="147.6">Rback</text>
  <path d="M 576 225 L 678 225 Q 670.8 156.60000000000002 678 153 Q 637.95 140.25 648 60 L 573 60 Q 565.2 84.9 576 225 z" fill="rgb(255,217,194)" stroke="black"/>
  <text fill="rgb(9,33,173)" font-size="25" x="605.6" y="147.6">Rfront</text>
  <path d="M 738 168 L 813 168 L 888 168 L 882 144 Q 844.8 123.6 870 60 L 849 60 Q 813.0 104.3693032984171 777 60 L 756 60 Q 781.2 123.6 744 144 L 738 168 z" fill="rgb(255,217,194)" stroke="black"/>
  <text fill="rgb(9,33,173)" font-size="25" x="788.0" y="117.66666666666667">up_back</text>
  <path d="M 948 165 L 1023 165 L 1098 165 L 1092 144 Q 1054.8000000000002 123.6 1080 60 L 1059 60 L 1023 69 L 987 60 L 966 60 Q 991.2 123.6 954 144 L 948 165 z" fill="rgb(255,217,194)" stroke="black"/>
  <text fill="rgb(9,33,173)" font-size="25" x="998.0" y="112.2">up_front</text>
  <path d="M 1161 225 L 1263 225 Q 1255.8 156.60000000000002 1263 153 Q 1218.3 141.75 1233 60 L 1158 60 Q 1150.2 84.9 1161 225 z" fill="rgb(255,217,194)" stroke="black"/>
  <text fill="rgb(9,33,173)" font-size="25" x="1190.6" y="147.6">Lback</text>
  <path d="M 1323 225 L 1425 225 Q 1435.8 84.9 1428 60 L 1353 60 Q 1363.05 140.25 1323 153 Q 1330.2 156.6 1323 225 z" fill="rgb(255,217,194)" stroke="black"/>
  <text fill="rgb(9,33,173)" font-size="25" x="1345.4" y="147.6">Lfront</text>
  <path d="M 1488 162 L 1590 147 Q 1628.3999999999999 125.7 1602 60 L 1488 60 L 1488 162 z" fill="rgb(255,217,194)" stroke="black"/>
  <text fill="rgb(9,33,173)" font-size="25" x="1517.0" y="110.25">lbsleeve</text>
  <path d="M 1662 162 L 1776 162 Q 1802.3999999999999 96.3 1764 75 L 1662 60 L 1662 162 z" fill="rgb(255,217,194)" stroke="black"/>
  <text fill="rgb(9,33,173)" font-size="25" x="1691.0" y="117.75">lfsleeve</text>
</svg>
